<?xml version="1.0" encoding="utf-8"?>
<!-- Generator: Adobe Illustrator 18.0.0, SVG Export Plug-In . SVG Version: 6.00 Build 0)  -->
<!DOCTYPE svg PUBLIC "-//W3C//DTD SVG 1.1//EN" "http://www.w3.org/Graphics/SVG/1.1/DTD/svg11.dtd">
<svg version="1.1" id="Layer_1" xmlns="http://www.w3.org/2000/svg" xmlns:xlink="http://www.w3.org/1999/xlink" x="0px" y="0px"
	 viewBox="0 0 194.3 418.1" enable-background="new 0 0 194.3 418.1" xml:space="preserve">
<g>
	<path fill="#DCEFFE" d="M3.1,116.6c-2-3.4-1.3-7.2-0.8-10.5C3.5,99,2.3,91.7,4.2,84.6c3.9-0.7,7,1.7,10.4,2.8
		c25,8.1,50.6,12,76.9,11.7c5.8-0.1,11.6-0.1,17.4,0c15.2,0,30.1-2.5,45-4.9c10.5-2.3,20.9-4.8,30.9-8.8c2.1-0.8,4.4-1.8,6.4,0.3
		c1.5,4.5,1.7,9.1,2,13.7c1.1,23.2-2.7,45.7-8.5,68c-1.7,6.4-3.2,12.9-4.4,19.5c-1.9,10.4-0.2,20.5,1.8,30.6
		c1.9,9.6,4.3,19.1,6.4,28.7c8.9,39.2,7.2,78.2-2.4,117c-0.5,2.5-1.2,5-2.8,7.1c-10.6,10.2-23.4,15.8-38,16.3
		c-10.7,0.3-20.9-2.9-30.7-7.6c-12.2-5.8-23.4-13.4-33.2-22.7c-16.1-15.3-25.8-33.8-25.9-56.7c-0.1-13.8,1.1-27.5,2.7-41.2
		c0.8-6.2,0.8-12.6-0.4-18.8c-0.8-4.1-2.4-7.9-5.5-10.4c-4.3-3.5-5.3-7.7-4.4-12.8c1.1-16.5-0.6-32.7-3.7-48.9
		c-2.1-10.8-3.3-21.9-3.4-33c0-3.6-1.3-7.2-1-9.4c1.5,11.3,1.6,24.1,3.6,36.8c1.9,12,4.6,24,4.9,36.3c0.1,6.1-0.7,12.3-0.5,18.4
		c0,1.2-0.5,2.3-1.3,3.1c-4.9-1.3-5.4-5.9-6.7-9.6c-3.7-10.7-4-22.1-5.3-33.2c-1.2-10-1.2-20.1-2.4-30.2c-2.4-19-10.5-33.6-28-41.5
		C4.3,109,5.6,113,3.1,116.6z"/>
	<path fill="#B4DFFE" d="M17.1,388.9c0-0.8-0.2-1.5-1-2c-2.1-0.7-2.4-2.6-2.9-4.4c-6.5-23-11.1-46.4-12.8-70.4
		c-1.9-26.2,1.9-51.6,8-76.8c2-8.6,3.8-17.2,5.5-25.8c1.2-9.3,1.2-18.5-0.8-27.7c-1.7-7.6-3.5-15.2-5.4-22.8
		c-1.1-4.5-2.1-9-2.7-13.7c1.3-5-0.5-9.7-1.2-14.5c-0.7-4.8-0.6-9.5-0.8-14.3c0-3.2,0.2-6.3,0-9.5c-0.2-3.3,1.5-3.4,3.5-2.2
		c12.2,7.1,21.6,16.3,24.6,31c2.3,11,3.3,22.1,4,33.3c1,14.1,1.9,28.3,5.9,42c1,3.3,4.1,5.5,4.8,9c1.1,1,1.1,2.4,0.9,3.7
		c-2.3,12.5-4.3,25-5.6,37.6c-1.8,18.5-1.7,37-0.4,55.6c1,14.4,3,28.5,5.3,42.7c-1-7.6-2.6-15.1-3.4-22.8c-1.1-10.7-2.7-21.3-2.7-32
		c0-8.1,0-16.3,0-24.4c0-13.9,2.4-27.6,4.3-41.3c0.9-6,1.9-12,2.7-18.1c0.2-1.5-0.4-3.5,1.9-4c-0.1,4.3,0.1,7.9,4.3,11.2
		c5,3.8,6.4,10.2,6.7,16.5c0.5,11.5-2.1,22.7-2.6,34c-0.6,13.3-1.5,26.6,2.1,39.9c6,21.9,20.7,36.3,38.1,48.9
		c9.6,6.9,20,12.5,31.4,15.5c17.5,4.6,33.9,1.8,48.4-9.6c1.7-1.3,3.5-2.5,5.3-3.7c0.9,0.9,1.2,2.1,0.8,3.2c-2,5.5-1.5,12.1-6.4,16.5
		c-5.3,2.8-11.2,2.8-16.9,3.7c-27.3,4.2-54.9,4.9-82.5,4.1c-18.7-0.6-37.4-2.8-55.9-6C20,391,18.3,390.4,17.1,388.9z"/>
	<path fill="#016CCF" d="M108.8,100.6c-10.4,0-20.9,0.6-31.3-0.1c-25.2-1.7-50.1-5.4-73.4-15.9c2-18.1,9.3-34.2,20.8-48.1
		c10.8-13,24.3-22.4,40.3-28.3c1.8-0.7,3.7-1.6,5.7-1.5c4.4,0.3,6.9,2.8,8.3,8.1c-3.4,3.2-8.1,3.4-12,5.2c-3.6,1.6-7.3,3-10.7,5.2
		c-9.4,5.2-17.7,11.6-24,20.4c-6.1,7.8-10.7,16.4-13.7,25.8c-1.7,5.2-1.3,5.7,3.7,7.5c7.7,2.8,15.7,4.2,23.7,5.9
		c18.7,2.4,37.5,4.5,56.4,4.3C110,89.1,112.2,93.5,108.8,100.6z"/>
	<path fill="#016CCF" d="M154.9,21.9c5.1,5.2,10.7,9.8,15.3,15.5c11.4,14.2,18.3,30.2,20.4,48.3c-2.8-0.7-5.1,1.1-7.5,2
		c-9.2,3.5-18.8,5.6-28.3,7.9c-3.7-2.8-2.3-5.9-1.8-9.5c0.7-1.6,2.9-1.2,4.3-1.5c5.4-0.9,9.8-4.4,15.2-5.5c3.5-0.7,4.7-2.5,3.6-6.1
		c-3.1-10.6-8.1-20.3-15.2-28.8c-8.1-9.6-17.9-17.1-29.4-22.4c-1.4-0.6-2.7-1.4-3.5-2.8c-1.5-3.3-4.8-5.4-6.1-8.9
		c-0.6-1.6-2-4.2,2-3.4c8.8,2,16.8,6,24.3,10.8C150.4,19.1,152.6,20.5,154.9,21.9z"/>
	<path fill="#016CCF" d="M123.8,6.9c-3.3,0.6-1.1,2.4-0.6,3.6c1.2,3.2,5.3,4.5,5.6,8.4c-1.3,1.2-2.8,0.9-4.2,0.4
		c-14.1-5.3-28.7-5.5-43.4-3.3c-0.9-0.1-1.7-0.3-2.3-1.1c-2-3.3-4.2-6.5-8-8C83.2,2.5,95.8,2,108.5,3.4C113.7,4,119,4.3,123.8,6.9z"
		/>
	<path fill="#D4E8F9" d="M108.8,100.6c0-11.1,1-10.1-9.8-9.9c-17.8,0.3-35.3-2.1-52.8-4.2c-0.4-0.1-0.8-0.5-1.2-0.8
		c0.5-2.6,1.6-5,2.2-7.6c2.9-10.9,11.5-17.7,22.7-17.7c6.6,0,13.2-0.5,19.8,0.3c4.6,2.8-11.5-3.3-8.8-6.9c2.3-3,0.6-31.6,4.2-31.1
		C90,23.6,124.3,100.7,108.8,100.6z"/>
	<path fill="#016CCF" d="M154.7,115.9c0,10.4,0.3,19.5-0.5,28.7c-1.6,19.5-7,38.4-7.4,58c-0.3,12.8,2.7,25.3,4.5,37.9
		c1.1,7.5,2.6,15,3.2,22.5c1.1,14.2,1.9,28.5,1,42.8c-0.9,14.3-2,28.7-4.4,42.9c-0.8,4.9-1.9,9.7-2.4,14.7c-0.1,1.3,0,2.7-2.3,3.3
		c-0.1-6.4,1.8-12.3,2.6-18.3c1.4-11.3,3.2-22.6,3.8-34c0.5-9,1-17.9,0.8-26.8c-0.3-15.4-2.3-30.6-4.4-45.9c-2-14.1-5-28-4.6-42.4
		c0.2-8.5,1.9-16.8,3.3-25.1c2.9-17.8,5.5-35.7,4.9-53.8C152.8,119.3,152.5,118.1,154.7,115.9z"/>
	<path fill="#016CCF" d="M49,217.3c-1.3,8.1-2.5,16.2-3.9,24.3c-4.2,23.3-4.9,46.8-3.8,70.3c0.8,16.6,2.8,33.2,6.4,49.5
		c0.4,1.7,0.8,3.5-0.7,5.8c-2.2-6.9-2.7-13.4-3.8-19.7c-4.4-24.7-4.8-49.8-3.9-74.7c0.4-11.5,2.8-22.9,4.3-34.3
		c0.8-6,1.7-12.1,2.5-18.1c2-12.9,1.7-25.8-0.4-38.6c-2.4-15.2-5.1-30.3-5.7-45.7c-0.2-5.1-0.8-10.2-0.7-15.4c0-1.2-0.6-2.7,1.6-3.8
		c0.8,6.3,0.7,12.3,1,18.3c0.8,17.3,3.9,34.2,6.7,51.1C50.2,196.5,49.4,206.9,49,217.3z"/>
	<path fill="#0A897A" d="M98.8,151.4c-9.3,0-18.6,0-27.9,0c-6.8,0-8.7-1.9-8.7-8.5c0-4.8-0.1-9.6,0-14.4c0.1-5.2,2.2-7.3,7.4-7.3
		c19.8-0.1,39.5,0,59.3,0.1c4.9,0,6.9,2.2,7,7.1c0.1,5,0.1,10,0,14.9c-0.1,6-2.1,8.1-8.1,8.1C118,151.5,108.4,151.4,98.8,151.4
		C98.8,151.4,98.8,151.4,98.8,151.4z"/>
	<path fill="#016CCF" d="M177.7,389.1c-0.1,0.3-0.1,0.5,0,0.8c-1.1,4.2-2.4,8.3-3.1,12.6c-0.7,4.4-3.2,5.8-7.3,6.5
		c-27.7,4.7-55.7,6.9-83.8,5.9c-19.3-0.6-38.4-3-57.4-6.1c-3.4-0.6-5.7-1.8-6.2-5.7c-0.6-4.7-3.2-9.1-2.9-14.1
		c11,2.3,22.2,3.6,33.3,4.8c22.1,2.4,44.3,2.8,66.5,2C137.4,394.9,157.6,392.3,177.7,389.1z"/>
	<path fill="#D4E8F9" d="M89.9,61.7c-6.6,0-13.3,0-19.9,0c-10.6,0-18.4,6.2-21.3,16.4c-0.7,2.6,0.1,6.2-3.6,7.5
		c-9.3-0.5-17.8-4.3-26.8-6.2c-2-0.4-2.4-2.2-1.9-3.9c3.2-11.3,7.6-22,15.7-30.8c1.8,3.6,2.3,7.8,6.7,9.9c6.6,3.3,17.9,1.9,24.4-3.5
		c1.3-1.1,2.4-2.3,3.6-3.5c3.2-3.2,5.9-6.8,4.2-11.5c-1.7-5-5.3-8.3-10.9-9.1c-1.6-0.2-3.9,0.4-4.1-2.3c5.6-5.1,13-6.4,19.7-8.9
		c1.1-0.4,2.1-0.7,3.2-1c0.7,0,1.3,0,2,0c1.9,3.3,4.8,6,5.5,10c-0.1,1.8-1.3,3.2-1.7,4.9c-0.9,6-0.3,12.1-0.3,18.2
		c0,2.3,1.4,3.9,2.6,5.7C88.5,56.1,90.7,58.4,89.9,61.7z"/>
	<path fill="#E1EFFC" d="M56,24.8c0.9,1.3,2.3,1,3.6,1c6.8,0.2,10.6,4.3,12.7,10c1.8,4.9-1,8.7-4.2,12.4c-6.2,7.1-14,10-23.3,9.6
		c-7.7-0.4-12.7-5.3-12.7-13C37.2,36,45.7,31,53.6,25.2C54.1,24.8,55.2,24.9,56,24.8z"/>
	<path fill="#E1EFFC" d="M86,24.8c-1.5-3.4-5.2-5.7-5-10c14.8-3.1,29.4-2.3,43.6,2.9c1.4,0.5,2.7,1.2,4.3,1.1c1,0.7,2,1.4,3,2
		c6,5.4,8.6,12.9,11.7,19.8c3.6,7.9,6.6,16.2,8,24.9c0.3,1.9,5.5,19,2.2,19.7c-14.2,3.6-33.7,4.9-45.6,5.3
		C105.9,92.3,110.4,64.3,86,24.8z"/>
	<path fill="#D5E8F9" d="M148.9,60c-3.6-13.9-9.8-26.8-17.1-39.1c18.4,8.5,32.2,21.6,40.8,40c2.2,4.6,4.3,9.2,5.2,14.3
		c0.4,2.2,0.1,3.8-2,4.3c-7.4,1.6-13,5.2-20.7,5.2C154.8,79.7,149.7,63.4,148.9,60z"/>
	<path fill="#026D62" d="M98.8,148.5c-9.6,0-19.3-0.1-28.9,0c-3.6,0.1-4.9-1.2-5.1-4.9c-0.2-5.2,0.9-10.4-0.9-15.7
		c-0.7-2,2.8-4.4,5.9-4.4c4.2,0,8.3,0,12.5,0c14.6,0,29.3,0,43.9,0c5.8,0,6.6,0.8,6.6,6.7c0,4-0.2,8,0.1,12c0.4,4.7-1.2,6.5-6.1,6.4
		C117.5,148.3,108.1,148.5,98.8,148.5z"/>
	<path fill="#AB5056" d="M124.9,146.6c-1.8-0.3-3.9,0.4-3.9-2.1c-0.1-2.7,2.2-2.1,3.6-2c1.6,0.1,4.1-0.8,3.9,2.2
		C128.4,147.1,126.1,146.1,124.9,146.6z"/>
	<path fill="#C54C55" d="M83.2,146.4c-1.8,0.1-3.3,0-3.2-2.2c0.1-2.8,2.3-1.7,3.7-1.8c1.3-0.1,3.3-0.6,3.3,1.7
		C86.9,147.2,84.5,146.1,83.2,146.4z"/>
	<path fill="#CB4858" d="M113.8,146.4c-1.6,0-3.1,0-2.9-2.2c0.2-2.4,2.1-1.6,3.4-1.7c1.5-0.2,3.4,0,3.4,1.9
		C117.6,146.5,115.5,146.4,113.8,146.4z"/>
	<path fill="#D34A53" d="M103.6,146.4c-1.7,0.2-2.9-0.2-2.7-2.2c0.2-2.4,2.1-1.5,3.3-1.6c1.2-0.1,2.8-0.5,2.8,1.6
		C107,146.5,105.3,146.4,103.6,146.4z"/>
	<path fill="#CE4C52" d="M93.5,142.4c1.4,0.3,3.4-0.5,3.4,2c0,2.3-1.7,2.1-3.1,2.1c-1.6,0-3.1-0.1-3-2.3
		C90.8,142.1,92.5,142.7,93.5,142.4z"/>
	<path fill="#96535A" d="M74.9,142.6c2-0.2,2.3,1,1.9,2.5c-0.5,2-2.4,1.4-3.7,1.4c-1.4,0-3.2,0.6-3.8-1.3c-0.5-1.4-0.2-2.7,1.8-2.5
		C72.3,144.1,73.6,143.7,74.9,142.6z"/>
	<path fill="#F7425A" d="M74.9,142.6c0.1,2-1.5,2.5-2.9,2.4c-1.3-0.1-0.9-1.5-0.9-2.4C72.3,142.6,73.6,142.6,74.9,142.6z"/>
</g>
<g>
	<path fill="#FEFEFE" d="M96.2,295.9c-0.3,0.6-0.5,0.9-0.6,1.3c-2.3,6.4-5.5,12.3-9,18c-1.9,3.1-3.8,6.1-5.3,9.4
		c-1.6,3.5-2.1,7.1-1.2,10.8c2.1,9.2,11.8,14.7,20.9,12c9.1-2.7,14-12.4,10.8-21.3c-1-2.7-2.4-5.2-3.9-7.6c-4.3-7-8.5-14.1-11.3-22
		C96.6,296.5,96.4,296.3,96.2,295.9z"/>
	<path fill="#2079BA" d="M96.2,295.9c0.2,0.4,0.3,0.5,0.4,0.7c2.7,7.8,6.9,14.9,11.3,22c1.5,2.4,2.9,4.9,3.9,7.6
		c3.2,8.9-1.7,18.6-10.8,21.3c-9.1,2.7-18.7-2.9-20.9-12c-0.9-3.8-0.4-7.3,1.2-10.8c1.5-3.3,3.4-6.3,5.3-9.4c3.5-5.7,6.7-11.7,9-18
		C95.7,296.9,95.9,296.5,96.2,295.9z M96.3,304.3c-0.3,0.4-0.4,0.5-0.5,0.7c-2.3,5-5.1,9.6-8,14.2c-1.6,2.6-3.1,5.2-4.2,8
		c-2,5.5-0.2,11.5,4.4,15c4.9,3.7,11.2,3.7,16.1,0.1c4.7-3.5,6.6-9.5,4.6-15c-0.6-1.7-1.5-3.4-2.4-5c-3-5.3-6.5-10.4-9.1-15.9
		C97,305.8,96.7,305.2,96.3,304.3z"/>
	<path fill="#F2F7F9" d="M96.3,304.3c0.4,0.9,0.8,1.6,1.1,2.2c2.6,5.5,6.1,10.6,9.1,15.9c0.9,1.6,1.8,3.3,2.4,5
		c2,5.5,0.1,11.5-4.6,15c-4.9,3.6-11.3,3.6-16.1-0.1c-4.7-3.5-6.4-9.6-4.4-15c1.1-2.9,2.6-5.5,4.2-8c2.8-4.6,5.7-9.3,8-14.2
		C95.9,304.8,96,304.7,96.3,304.3z M96.2,308.1c-2.4,5.6-5.7,10.5-8.7,15.7c-0.8,1.4-1.5,2.8-2,4.3c-1.4,4.2,0,8.9,3.3,11.8
		c4,3.4,9.8,3.7,14,0.6c4.3-3.2,5.8-8.5,3.6-13.5C103.5,320.4,98.9,314.9,96.2,308.1z"/>
	<path fill="#29AADF" d="M96.2,308.1c2.7,6.7,7.3,12.3,10.2,18.8c2.2,5,0.7,10.3-3.6,13.5c-4.2,3.1-10,2.9-14-0.6
		c-3.3-2.9-4.7-7.6-3.3-11.8c0.5-1.5,1.2-2.9,2-4.3C90.5,318.7,93.9,313.8,96.2,308.1z M100.3,339.6c-0.6,0-1,0-1.4,0
		c-5.8-0.1-10.2-5.1-9.4-10.9c0.2-1.6,0.8-3.1,1.4-4.6c1.1-2.5,2.2-4.9,3.2-7.4c0.2-0.5,0.6-1,0.2-1.8c-2.2,3.8-4.3,7.3-6.4,11
		c-1.2,2.2-1.7,4.6-1.2,7.1C88.1,339,95.2,342.5,100.3,339.6z"/>
	<path fill="#F1F8FA" d="M100.3,339.6c-5.2,2.9-12.2-0.6-13.5-6.6c-0.6-2.6-0.1-4.9,1.2-7.1c2-3.7,4.2-7.3,6.4-11
		c0.4,0.8,0,1.3-0.2,1.8c-1,2.5-2.1,4.9-3.2,7.4c-0.6,1.5-1.2,3-1.4,4.6c-0.8,5.8,3.6,10.8,9.4,10.9
		C99.3,339.6,99.7,339.6,100.3,339.6z"/>
</g>
<path fill="#016CCF" d="M107,90.9c0,0,19.2-0.2,48.8-5.7l2.1,9.8c0,0-14.7,4.2-49.1,5.7L107,90.9z"/>
<linearGradient id="SVGID_1_" gradientUnits="userSpaceOnUse" x1="96.9995" y1="91.5674" x2="96.9995" y2="12.4642">
	<stop  offset="0" style="stop-color:#FFFFFF"/>
	<stop  offset="1" style="stop-color:#707070"/>
</linearGradient>
<path fill="none" stroke="url(#SVGID_1_)" stroke-width="1.33" stroke-miterlimit="10" d="M18.2,79.5c0,0-3.6-0.1-1.3-5.8
	c0,0,15.2-62,85.7-60.5c0,0,55.7,1.8,74.2,57.7c0,0,3.4,6.9-1.4,8.7c0,0-33,10.8-68.3,11.3C107,90.9,57.1,92.2,18.2,79.5z"/>
<g opacity="0.69">
	<defs>
		<path id="SVGID_2_" opacity="0.69" d="M18.2,80.2c0,0-3.6-0.1-1.3-5.8c0,0,15.2-62,85.7-60.5c0,0,55.7,1.8,74.2,57.7
			c0,0,3.4,6.9-1.4,8.7c0,0-33,10.8-68.3,11.3C107,91.6,57.1,92.9,18.2,80.2z"/>
	</defs>
	<clipPath id="SVGID_3_">
		<use xlink:href="#SVGID_2_"  overflow="visible"/>
	</clipPath>
	<g clip-path="url(#SVGID_3_)">
		<path fill="#ED2229" d="M75.7,83.8c-0.6,0.2-1.2,0.5-1.8,0.7C74.2,83.5,75,83.8,75.7,83.8z"/>
		<ellipse fill="#FBC387" cx="99.4" cy="51.4" rx="37.1" ry="36.8"/>
		<circle fill="#FFFFFF" cx="97.4" cy="57.8" r="10.2"/>
		<circle fill="#FFFFFF" cx="125.2" cy="57.8" r="10.2"/>
		<linearGradient id="SVGID_4_" gradientUnits="userSpaceOnUse" x1="98.9204" y1="113.7774" x2="98.9204" y2="13.8643">
			<stop  offset="0" style="stop-color:#FFFFFF"/>
			<stop  offset="1" style="stop-color:#707070"/>
		</linearGradient>
		<path fill="url(#SVGID_4_)" d="M136.5,51.5c0,0-0.4,12.7-1.5,23.2c0,0-2.3,3.7,2.9,15.3c0,0,7,11.2-7.1,8.1c0,0-12.6-3.7-20.9-11
			c0,0,25.8-7,23.6-33.6c0,0-27.4,2.1-42.3-15.3c0,0-5.8,14.5-3.9,35.2c0,0,4.2,33-1.4,37.3c0,0-17.8,10-19.8-5.8l-0.9,3.9
			c0,0-4.6-0.4-3.7-11.4l1.8-11.2c0,0,0.3-3.3-3.1-13.3c0,0-8.7-25.1,8.9-47.7c0,0,9.4-11.2,29.7-11.2c0,0,29,0.6,37.3,28
			C136.1,41.9,144.2,49.5,136.5,51.5z"/>
		<path fill="#FBC387" d="M74.1,60.6c-3.7,0-6.8-3-6.8-6.8c0-3.7,3-6.8,6.8-6.8c0.8,0,1.5,0.1,2.1,0.3"/>
		<circle fill="#020202" cx="101.5" cy="57.9" r="2.4"/>
		<circle fill="#020202" cx="128.6" cy="57.9" r="2.4"/>
		<path fill="#F16D50" stroke="#F22525" stroke-width="0.7736" stroke-miterlimit="10" d="M94.7,73.4c0,0,4.9,0.7,7.8,0.5
			c0,0,5.7-0.5,7.2-0.4c0,0,3.8,0.3,5.9,0.9c0,0,2.3,0.4,3.7,0.2c0,0,1.6-0.4,0.8,1.4c0,0-4.7,2.1-10.3,2.1
			C109.8,78.2,98.4,77.5,94.7,73.4z"/>
		<path fill="#F16D50" stroke="#F22525" stroke-width="0.7736" stroke-miterlimit="10" d="M107.4,83c0,0,8.1,0.2,12.8-6.9
			c0,0-5.1,2.5-11.9,1.9c0,0-9.5-0.6-13.6-4.6C94.7,73.4,99.3,82.3,107.4,83z"/>
	</g>
</g>
<g>
	<path fill="#00FFDA" d="M70.8,133.5l-0.2,3.7l-1.5,0.8l0.3-4.8c0-0.2,0.2-0.3,0.2-0.5L70.8,133.5z M71.1,128.4l-0.2,3.2l-1.3,0.7
		l-0.2-0.4l0.3-4.4L71.1,128.4z M76.6,126.6l-1.5,1.4h-4.1l-1.3-0.8l1.1-0.7L76.6,126.6z M74.9,131.8l1,0.8l-1,0.7h-4
		c-0.3-0.3-0.7-0.5-1.1-0.8l1.3-0.7H74.9z M76.6,133.4l-0.3,4.6l-0.3,0.4l-1.1-1.3l0.2-3.6l0.9-0.7L76.6,133.4z M76.9,127.1
		c-0.1,1.6-0.2,3.1-0.3,4.7l-0.6,0.6l-0.9-0.7l0.2-3.4l1.4-1.4C76.8,126.9,76.9,127,76.9,127.1z"/>
	<path fill="#00FFDA" d="M80.2,133.5l-0.2,3.7l-1.5,0.8l0.3-4.8c0-0.2,0.2-0.3,0.2-0.5L80.2,133.5z M84.2,137.5
		c0.3,0.4,0.7,0.9,1,1.3c0,0,0.1,0.1,0.1,0.1c0,0,0,0.1-0.2,0.1h-2.7h-2.3H79c-0.1-0.1-0.2-0.3-0.3-0.4c0,0-0.1-0.1-0.1-0.2v0
		l1.5-0.9H84.2z M80.4,128.4l-0.2,3.2l-1.3,0.7l-0.2-0.4l0.3-4.4L80.4,128.4z"/>
	<path fill="#00FFDA" d="M89.5,133.5l-0.2,3.7l-1.5,0.8l0.3-4.8c0-0.2,0.2-0.3,0.2-0.5L89.5,133.5z M93.5,137.5
		c0.3,0.4,0.7,0.9,1,1.3c0,0,0.1,0.1,0.1,0.1c0,0,0,0.1-0.2,0.1h-2.7h-2.3h-1.1c-0.1-0.1-0.2-0.3-0.3-0.4c0,0-0.1-0.1-0.1-0.2v0
		l1.5-0.9H93.5z M89.8,128.4l-0.2,3.2l-1.3,0.7l-0.2-0.4l0.3-4.4L89.8,128.4z M95.3,126.6l-1.5,1.4h-4.1l-1.3-0.8l1.1-0.7
		L95.3,126.6z M93.6,131.8l1,0.8l-1,0.7h-4c-0.3-0.3-0.7-0.5-1.1-0.8l1.3-0.7H93.6z"/>
	<path fill="#00FFDA" d="M98.9,133.5l-0.2,3.7l-1.5,0.8l0.3-4.8c0-0.2,0.2-0.3,0.2-0.5L98.9,133.5z M99.1,128.4l-0.2,3.2l-1.3,0.7
		l-0.2-0.4l0.3-4.4L99.1,128.4z M104.6,126.6l-1.5,1.4h-4.1l-1.3-0.8l1.1-0.7L104.6,126.6z M104.6,133.4l-0.3,4.6l-0.3,0.4l-1.1-1.3
		l0.2-3.6l0.9-0.7L104.6,133.4z M104.9,127.1c-0.1,1.6-0.2,3.1-0.3,4.7l-0.6,0.6l-0.9-0.7l0.2-3.4l1.4-1.4
		C104.8,126.9,104.9,127,104.9,127.1z"/>
	<path fill="#00FFDA" d="M112.2,137.5c0.3,0.4,0.7,0.9,1,1.3c0,0,0.1,0.1,0.1,0.1c0,0,0,0.1-0.2,0.1h-2.7h-2.3H107
		c-0.1-0.1-0.2-0.3-0.3-0.4c0,0-0.1-0.1-0.1-0.2v0l1.5-0.9H112.2z M108.5,128.4l-0.2,3.2l-1.3,0.7l-0.2-0.4l0.3-4.4L108.5,128.4z
		 M112.2,131.8l1,0.8l-1,0.7h-4c-0.3-0.3-0.7-0.5-1.1-0.8l1.3-0.7H112.2z M113.9,133.4l-0.3,4.6l-0.3,0.4l-1.1-1.3l0.2-3.6l0.9-0.7
		L113.9,133.4z M114.2,127.1c-0.1,1.6-0.2,3.1-0.3,4.7l-0.6,0.6l-0.9-0.7l0.2-3.4l1.4-1.4C114.2,126.9,114.2,127,114.2,127.1z"/>
	<path fill="#00FFDA" d="M117.5,133.5l-0.2,3.7l-1.5,0.8l0.3-4.8c0-0.2,0.2-0.3,0.2-0.5L117.5,133.5z M117.8,128.4l-0.2,3.2
		l-1.3,0.7l-0.2-0.4l0.3-4.4L117.8,128.4z M123.3,126.6l-1.5,1.4h-4.1l-1.3-0.8l1.1-0.7L123.3,126.6z M123.2,133.4l-0.3,4.6
		l-0.3,0.4l-1.1-1.3l0.2-3.6l0.9-0.7L123.2,133.4z M123.6,127.1c-0.1,1.6-0.2,3.1-0.3,4.7l-0.6,0.6l-0.9-0.7l0.2-3.4l1.4-1.4
		C123.5,126.9,123.6,127,123.6,127.1z"/>
	<path fill="#00FFDA" d="M123.7,133.5l-0.2,3.7L122,138l0.3-4.8c0-0.2,0.2-0.3,0.2-0.5L123.7,133.5z M123.9,128.4l-0.2,3.2l-1.3,0.7
		l-0.2-0.4l0.3-4.4L123.9,128.4z M129.5,126.6l-1.5,1.4h-4.1l-1.3-0.8l1.1-0.7L129.5,126.6z M129.4,133.4l-0.3,4.6l-0.3,0.4
		l-1.1-1.3l0.2-3.6l0.9-0.7L129.4,133.4z M129.7,127.1c-0.1,1.6-0.2,3.1-0.3,4.7l-0.6,0.6l-0.9-0.7l0.2-3.4l1.4-1.4
		C129.7,126.9,129.7,127,129.7,127.1z"/>
</g>
<path fill="#00FFDA" d="M3.9,130.9c0,0,62.2,89.7,190.2,157.7c0,0,0.8,29.2-3.6,52c0,0-97.5-51.5-176.5-131.1c0,0,2.5-6.9,2.1-22.9
	C16.1,186.7,4.8,154.7,3.9,130.9z"/>
<g>
	<path fill="#FFFFFF" d="M56.2,205.1c0-0.1,0.1-0.1,0.2,0l3.2,3c0.1,0.1,0.1,0.2,0,0.4l-2.5,4.4c-0.1,0.1-0.1,0.2,0,0.2
		c0,0,0.1,0,0.2-0.1l4.1-2.8c0.1-0.1,0.3-0.1,0.4,0l3.1,2.8c0.1,0.1,0.1,0.3-0.1,0.3l-9.2,5.2c-0.3,0.2-0.8,0.6-1,0.8l-4.1,4.4
		c-0.1,0.1-0.3,0.1-0.5,0l-3.4-3.2c-0.1-0.1-0.1-0.3,0-0.4l4.1-4.5c0.2-0.3,0.4-0.5,0.6-1L56.2,205.1z"/>
	<path fill="#FFFFFF" d="M58.9,218.8c-0.1-0.1,0-0.2,0.7-1c1.3-1.4,3.5-1.7,5.3,0c1.9,1.8,1.9,4,0.7,5.4l-4.4,4.8
		c-0.1,0.1-0.1,0.2,0.3,0.5c0.1,0.1,0.1,0.2,0,0.3l-1,1.1c-0.8,0.9-2.5,1.2-3.5,0.3c-0.8-0.7-0.9-1.3-0.8-1.9c0-0.2,0-0.3,0-0.3
		c0,0-0.1,0-0.4,0c-0.4,0.1-1.2,0-1.8-0.5c-0.7-0.7-1.3-2.3,0.3-4.1l1.2-1.3c1.3-1.4,2.9-1.3,4.2-0.8c1.8,0.6,2,0.5,2.6-0.1
		c0.2-0.2,0.2-0.5,0.1-0.6c-0.3-0.3-0.4-0.2-1.1,0.7c-0.1,0.1-0.2,0.1-0.3,0L58.9,218.8z M59.7,224.1c0.1-0.1,0.1-0.2,0-0.2
		c-0.1-0.1-0.6-0.3-1,0.1l-1.2,1.3c-0.2,0.2-0.1,0.4,0,0.6c0.1,0.1,0.4,0.2,0.6,0L59.7,224.1z"/>
	<path fill="#FFFFFF" d="M68.6,226.4c0.1-0.1,0.1-0.2,0-0.2c-0.4-0.3-0.4-0.4-0.3-0.5l2.3-2.6c0-0.1,0.1-0.1,0.2,0
		c0.4,0.4,0.4,0.4,0.6,0.3l1.4-1.6c0.1-0.1,0.2-0.1,0.2,0l2.6,2.3c0.2,0.2,0.1,0.2,0,0.3l-1.3,1.5c-0.1,0.1-0.1,0.2,0,0.3
		c0.6,0.5,0.6,0.5,0.5,0.7l-2.3,2.6c-0.1,0.1-0.2,0.1-0.2,0c-0.6-0.5-0.6-0.6-0.8-0.4l-4.2,4.7c-0.1,0.1-0.1,0.2,0,0.2
		c0.6,0.6,0.7,0.6,0.6,0.7c-0.9,1-2.5,2.8-4.3,1.2c-1.1-1-1.3-2.3,0.6-4.5L68.6,226.4z"/>
	<path fill="#FFFFFF" d="M72.8,230.1c1.9-2.1,4.2-1.5,5.7-0.2c2,1.8,1.8,4.4,0.3,6.1l-1,1.1c-0.1,0.1-0.2,0.1-0.3,0l-3-2.6
		c-0.1-0.1-0.2,0-0.2,0l-2.5,2.8c-0.3,0.3-0.2,0.5-0.1,0.6c0.1,0.1,0.4,0.1,0.6-0.1l1-1.1c0.1-0.1,0.2-0.1,0.3,0l2.2,2.2
		c0.1,0.1,0.1,0.2,0,0.4l-1,1.2c-2,2.3-4.2,1.6-5.9,0.2c-1.9-1.7-1.8-4,0-6.1L72.8,230.1z M75.3,233.4c0,0.1,0,0.1,0,0.2
		c0.4,0.4,0.5,0.4,0.5,0.3c1-1.2,1.1-1.3,0.8-1.5c-0.1-0.1-0.4-0.1-0.6,0.1L75.3,233.4z"/>
	<path fill="#FFFFFF" d="M78.5,248.8c-0.1-0.1,0.1-0.7,0-0.8c0,0-0.1,0-0.3-0.1c-0.4,0-0.9-0.2-1.3-0.6c-0.9-0.8-1.4-2.3,1.1-5.3
		l3.2-3.8c2.3-2.8,4.1-2.6,5-1.8c0.4,0.4,0.7,0.8,0.7,1.2c0,0.2,0,0.3,0.1,0.3c0,0,0.1,0,0.2-0.1l2.7-3.2c0.1-0.1,0.2-0.1,0.3,0
		l2.4,2c0.1,0.1,0.1,0.2,0,0.3l-11.6,13.7c-0.1,0.1-0.2,0.1-0.3,0L78.5,248.8z M84.7,241c0.2-0.3,0.2-0.6,0.1-0.8
		c-0.2-0.1-0.4,0-0.5,0.1l-3.9,4.6c-0.1,0.1-0.3,0.3-0.1,0.5c0.1,0.1,0.2,0.1,0.3,0.1c0.1,0,0.3-0.1,0.4-0.2L84.7,241z"/>
	<path fill="#FFFFFF" d="M85,254c-0.1,0.1-0.2,0.1-0.3,0l-2.7-2.2c-0.1-0.1-0.1-0.2,0-0.3l8.8-10.7c0.1-0.1,0.3-0.2,0.4-0.1l2.6,2.2
		c0.1,0.1,0.1,0.2,0,0.3L85,254z M94.5,242.1c-0.1,0.1-0.2,0.1-0.4,0.1l-2.3-1.9c-0.1-0.1-0.1-0.3,0-0.4l1.9-2.3
		c0.1-0.1,0.3-0.1,0.4-0.1l2.3,1.9c0.1,0.1,0.1,0.2,0,0.3L94.5,242.1z"/>
	<path fill="#FFFFFF" d="M94.5,248.6c0.1-0.1,0.1-0.2,0-0.2c-0.4-0.3-0.4-0.3-0.3-0.5l2.2-2.7c0-0.1,0.1-0.1,0.2-0.1
		c0.4,0.3,0.5,0.4,0.6,0.2l1.3-1.6c0.1-0.1,0.2-0.1,0.2,0l2.7,2.2c0.2,0.1,0.2,0.2,0.1,0.3l-1.3,1.6c-0.1,0.1-0.1,0.2,0,0.3
		c0.6,0.5,0.6,0.5,0.5,0.6l-2.2,2.7c-0.1,0.1-0.2,0.1-0.2,0c-0.6-0.5-0.7-0.5-0.8-0.4l-3.9,4.9c-0.1,0.1-0.1,0.2,0,0.2
		c0.7,0.5,0.7,0.6,0.6,0.7c-0.9,1.1-2.3,2.9-4.2,1.4c-1.1-0.9-1.4-2.2,0.4-4.5L94.5,248.6z"/>
	<path fill="#FFFFFF" d="M101.2,249.2c0.1-0.1,0.2-0.1,0.3-0.1l2.4,1.8c0.1,0.1,0.1,0.2,0,0.3l-5.6,7.2c-0.2,0.3-0.1,0.5,0,0.6
		c0.2,0.1,0.4,0.1,0.6-0.1l5.6-7.2c0.1-0.1,0.2-0.1,0.3,0l2.5,1.9c0.1,0.1,0.1,0.2,0.1,0.3l-8.6,11.1c-0.1,0.1-0.2,0.1-0.3,0
		l-2.2-1.7c-0.1-0.1,0.3-0.8,0.2-0.9c0,0-0.1,0-0.3,0c-0.6,0.1-1.1,0-1.7-0.5c-0.8-0.6-1.3-2-0.3-3.3L101.2,249.2z"/>
	<path fill="#FFFFFF" d="M110.9,262.4c-0.1-0.1-0.1-0.2,0-0.3c0.4-0.6,0.5-1,0.2-1.2c-0.2-0.1-0.4-0.1-0.5,0.1
		c-0.3,0.4-0.1,1.4,0.2,3.2c0.4,1.8,0.3,3-0.6,4.3c-1.2,1.7-3.2,2.7-5.6,0.9c-1.3-1-2.5-2.9-0.1-6.2c0.1-0.1,0.2-0.1,0.3-0.1
		l2.2,1.4c0.1,0.1,0.1,0.2,0.1,0.2c-0.5,0.7-0.6,1.3-0.3,1.5c0.2,0.1,0.4,0.1,0.5-0.1c0.3-0.5,0.2-1.7-0.3-3.4
		c-0.3-1.2-0.2-2.8,0.8-4.2c1.3-1.7,3.6-2,5.3-0.7c2.3,1.7,2,4.2,0.6,6.1c-0.1,0.1-0.2,0.1-0.3,0L110.9,262.4z"/>
	<path fill="#FFFFFF" d="M114.6,263.6c1.3-1.8,3.5-2.1,5.5-0.6c2,1.4,2.5,3.6,1.1,5.5l-4,5.5c-1.3,1.8-3.5,2.1-5.5,0.6
		c-2-1.4-2.5-3.6-1.2-5.4L114.6,263.6z M114,270.9c-0.2,0.2-0.2,0.5,0,0.6c0.2,0.2,0.4,0.1,0.6-0.2l3.3-4.6c0.2-0.2,0.2-0.5,0-0.6
		c-0.2-0.2-0.4,0-0.6,0.2L114,270.9z"/>
	<path fill="#FFFFFF" d="M124,266c0.1-0.1,0.1-0.1,0.2-0.1l2.8,1.9c0.1,0.1-0.2,0.8-0.1,0.9c0,0,0.1,0,0.2-0.1
		c0.5-0.3,1-0.1,1.6,0.4c0.1,0,0.1,0.1,0,0.2l-2,2.8c-0.1,0.1-0.1,0.1-0.2,0c-1-0.7-1.8-0.4-2.9,1.2l-4.4,6.4
		c-0.1,0.1-0.2,0.1-0.3,0.1l-2.9-2c-0.1-0.1-0.1-0.2,0-0.3L124,266z"/>
	<path fill="#FFFFFF" d="M132.2,271.4c0.1,0.1-0.1,0.7,0,0.8c0,0,0.1,0,0.3,0c0.4,0,1,0.1,1.4,0.4c1,0.7,1.7,2.1-0.5,5.4l-2.8,4.1
		c-2,3-3.8,3-4.8,2.3c-0.5-0.3-0.7-0.7-0.8-1.2c0-0.2,0-0.2-0.1-0.3c0,0-0.1,0-0.2,0.1l-2.1,3.2c-0.1,0.1-0.2,0.1-0.3,0.1l-2.6-1.7
		c-0.1-0.1-0.1-0.2-0.1-0.3l9.8-14.5c0.1-0.1,0.2-0.1,0.3-0.1L132.2,271.4z M126.9,279.8c-0.2,0.3-0.2,0.6,0,0.8
		c0.2,0.1,0.4,0,0.5-0.2l3.4-5c0.1-0.1,0.2-0.4,0-0.5c-0.1-0.1-0.2-0.1-0.3-0.1c-0.2,0-0.3,0.1-0.4,0.3L126.9,279.8z"/>
	<path fill="#FFFFFF" d="M136.7,274.6c0.1-0.1,0.1-0.1,0.2-0.1l2.8,1.9c0.1,0.1-0.2,0.8-0.1,0.9c0,0,0.1,0,0.2-0.1
		c0.5-0.3,1-0.1,1.6,0.3c0.1,0,0.1,0.1,0,0.2l-1.9,2.9c-0.1,0.1-0.1,0.1-0.2,0c-1-0.7-1.8-0.4-2.8,1.2l-4.3,6.5
		c-0.1,0.1-0.2,0.1-0.3,0.1l-2.9-1.9c-0.1-0.1-0.1-0.2,0-0.3L136.7,274.6z"/>
	<path fill="#FFFFFF" d="M140.1,281.3c1.5-2.4,3.9-2.1,5.6-1c2.3,1.5,2.4,4.1,1.2,6l-0.8,1.2c-0.1,0.1-0.2,0.1-0.3,0.1l-3.4-2.2
		c-0.1-0.1-0.2,0-0.2,0.1l-2,3.2c-0.2,0.3-0.1,0.5,0,0.6c0.1,0.1,0.4,0.1,0.6-0.2l0.8-1.2c0.1-0.1,0.2-0.1,0.3,0l2.5,1.8
		c0.1,0.1,0.1,0.2,0.1,0.4l-0.8,1.3c-1.7,2.6-3.9,2.2-5.8,1c-2.1-1.4-2.4-3.7-0.9-6L140.1,281.3z M143,284.2c0,0.1,0,0.1,0.1,0.2
		c0.5,0.3,0.5,0.3,0.6,0.2c0.8-1.3,0.9-1.4,0.6-1.6c-0.2-0.1-0.4-0.1-0.6,0.2L143,284.2z"/>
	<path fill="#FFFFFF" d="M151.1,289.7c-0.1,0-0.1-0.2,0-0.3c0.4-0.6,0.5-1,0.2-1.2c-0.2-0.1-0.4-0.1-0.5,0.2c-0.3,0.4,0,1.4,0.4,3.1
		c0.5,1.8,0.5,3-0.3,4.3c-1.1,1.7-3.1,2.9-5.5,1.3c-1.4-0.9-2.7-2.8-0.5-6.2c0.1-0.1,0.2-0.1,0.3-0.1l2.3,1.3
		c0.1,0.1,0.1,0.2,0.1,0.2c-0.4,0.8-0.5,1.4-0.2,1.5c0.2,0.1,0.4,0,0.5-0.2c0.3-0.5,0-1.7-0.5-3.4c-0.4-1.2-0.4-2.7,0.5-4.3
		c1.1-1.8,3.4-2.2,5.2-1.1c2.4,1.5,2.3,4.1,1,6.1c-0.1,0.1-0.2,0.1-0.3,0.1L151.1,289.7z"/>
	<path fill="#FFFFFF" d="M154.7,291.8c-0.1-0.1-0.1-0.2,0.5-1.1c1-1.6,3.1-2.3,5.3-0.9c2.2,1.4,2.6,3.6,1.6,5.2l-3.4,5.5
		c-0.1,0.2,0,0.2,0.4,0.5c0.1,0.1,0.1,0.2,0,0.3l-0.8,1.3c-0.6,1-2.2,1.6-3.4,0.9c-0.9-0.6-1.1-1.1-1.1-1.8c0-0.2,0-0.3-0.1-0.3
		c0,0-0.1,0-0.4,0.1c-0.4,0.2-1.1,0.2-1.9-0.2c-0.9-0.5-1.7-2-0.4-4.1l0.9-1.5c1-1.6,2.6-1.8,4-1.6c1.9,0.3,2.1,0.1,2.5-0.6
		c0.2-0.3,0.1-0.5,0-0.6c-0.3-0.2-0.4-0.1-1,0.9c-0.1,0.1-0.2,0.1-0.3,0L154.7,291.8z M156.4,296.9c0.1-0.1,0-0.2,0-0.2
		c-0.1-0.1-0.6-0.1-0.9,0.3l-0.9,1.5c-0.2,0.2-0.1,0.4,0.1,0.5c0.2,0.1,0.4,0.1,0.5-0.1L156.4,296.9z"/>
</g>
</svg>
