<?xml version="1.0" encoding="utf-8"?>
<!-- Generator: Adobe Illustrator 18.0.0, SVG Export Plug-In . SVG Version: 6.00 Build 0)  -->
<!DOCTYPE svg PUBLIC "-//W3C//DTD SVG 1.1//EN" "http://www.w3.org/Graphics/SVG/1.1/DTD/svg11.dtd">
<svg version="1.1" id="Layer_1" xmlns="http://www.w3.org/2000/svg" xmlns:xlink="http://www.w3.org/1999/xlink" x="0px" y="0px"
	 viewBox="0 0 157 314.5" enable-background="new 0 0 157 314.5" xml:space="preserve">
<g>
	<path fill="#DCEFFE" d="M8.9,88.8c-1.5-2.5-1-5.4-0.6-7.9c0.9-5.4,0-10.8,1.4-16.1c2.9-0.5,5.3,1.3,7.8,2.1
		c18.8,6.1,38.1,9,57.8,8.8c4.4,0,8.7-0.1,13.1,0c11.4,0,22.6-1.9,33.9-3.7c7.9-1.7,15.7-3.6,23.2-6.6c1.6-0.6,3.3-1.3,4.8,0.2
		c1.1,3.4,1.3,6.8,1.5,10.3c0.8,17.4-2.1,34.4-6.4,51.1c-1.2,4.8-2.4,9.7-3.3,14.6c-1.4,7.8-0.2,15.4,1.3,23
		c1.4,7.2,3.2,14.4,4.8,21.6c6.7,29.5,5.4,58.8-1.8,88c-0.4,1.9-0.9,3.8-2.1,5.3c-8,7.7-17.6,11.9-28.6,12.2
		c-8,0.2-15.8-2.2-23.1-5.7c-9.2-4.4-17.6-10.1-24.9-17c-12.1-11.5-19.4-25.4-19.5-42.6c0-10.4,0.8-20.7,2.1-30.9
		c0.6-4.7,0.6-9.5-0.3-14.2c-0.6-3.1-1.8-5.9-4.1-7.8c-3.3-2.7-4-5.8-3.3-9.6c0.9-12.4-0.4-24.6-2.8-36.7
		c-1.6-8.1-2.5-16.4-2.6-24.8c0-2.7-1-5.4-0.7-7.1c1.1,8.5,1.2,18.1,2.7,27.7c1.5,9.1,3.5,18.1,3.7,27.3c0.1,4.6-0.5,9.2-0.4,13.8
		c0,0.9-0.3,1.7-1,2.3c-3.7-1-4.1-4.4-5-7.2c-2.8-8.1-3-16.6-4-25c-0.9-7.5-0.9-15.1-1.8-22.7c-1.8-14.3-7.9-25.2-21.1-31.2
		C9.8,83.1,10.8,86.1,8.9,88.8z"/>
	<path fill="#B4DFFE" d="M19.4,293.5c0-0.6-0.2-1.2-0.7-1.5c-1.5-0.5-1.8-2-2.2-3.3c-4.9-17.3-8.3-34.9-9.6-52.9
		c-1.4-19.7,1.5-38.8,6-57.8c1.5-6.4,2.9-12.9,4.2-19.4c0.9-7,0.9-13.9-0.6-20.8c-1.3-5.7-2.6-11.4-4.1-17.1
		c-0.9-3.4-1.6-6.8-2-10.3c1-3.7-0.4-7.3-0.9-10.9C9,96,9,92.4,8.9,88.8c0-2.4,0.2-4.8,0-7.1c-0.2-2.5,1.1-2.5,2.7-1.6
		c9.2,5.4,16.3,12.2,18.5,23.3c1.7,8.3,2.4,16.6,3,25.1c0.7,10.6,1.4,21.3,4.4,31.6c0.7,2.5,3.1,4.2,3.6,6.8
		c0.8,0.8,0.8,1.8,0.6,2.8c-1.7,9.4-3.3,18.8-4.2,28.3c-1.4,13.9-1.3,27.8-0.3,41.8c0.8,10.8,2.2,21.5,4,32.1
		c-0.8-5.7-1.9-11.4-2.5-17.1c-0.8-8-2-16-2.1-24.1c0-6.1,0-12.2,0-18.4c0-10.5,1.8-20.8,3.3-31.1c0.6-4.5,1.4-9.1,2-13.6
		c0.1-1.1-0.3-2.6,1.4-3c-0.1,3.3,0,6,3.2,8.4c3.8,2.9,4.8,7.7,5,12.4c0.4,8.6-1.6,17.1-1.9,25.6c-0.4,10-1.1,20,1.6,30
		c4.5,16.4,15.5,27.3,28.7,36.8c7.2,5.2,15.1,9.4,23.6,11.7c13.1,3.4,25.5,1.3,36.4-7.2c1.3-1,2.6-1.9,3.9-2.8
		c0.7,0.7,0.9,1.6,0.6,2.4c-1.5,4.2-1.1,9.1-4.8,12.4c-4,2.1-8.4,2.1-12.7,2.7c-20.6,3.1-41.3,3.7-62,3.1c-14.1-0.4-28.1-2.1-42-4.5
		C21.6,295.1,20.4,294.7,19.4,293.5z"/>
	<path fill="#016CCF" d="M88.4,76.8c-7.8,0-15.7,0.5-23.5-0.1c-19-1.3-37.6-4-55.2-11.9c1.5-13.6,7-25.7,15.6-36.2
		c8.1-9.8,18.3-16.9,30.3-21.2c1.4-0.5,2.8-1.2,4.3-1.1c3.3,0.3,5.2,2.1,6.2,6.1c-2.5,2.4-6.1,2.6-9.1,3.9c-2.7,1.2-5.5,2.3-8,3.9
		C42,24.1,35.7,28.9,31,35.5c-4.6,5.9-8,12.3-10.3,19.4c-1.3,3.9-1,4.3,2.8,5.6c5.8,2.1,11.8,3.1,17.8,4.4
		c14.1,1.8,28.2,3.4,42.4,3.2C89.2,68.2,90.9,71.5,88.4,76.8z"/>
	<path fill="#016CCF" d="M123,17.6c3.8,3.9,8,7.4,11.5,11.7C143,40,148.2,52,149.8,65.6c-2.1-0.5-3.8,0.8-5.6,1.5
		c-6.9,2.6-14.1,4.2-21.3,5.9c-2.8-2.1-1.8-4.4-1.4-7.1c0.5-1.2,2.2-0.9,3.3-1.1c4.1-0.7,7.4-3.3,11.4-4.2c2.6-0.5,3.5-1.9,2.7-4.5
		c-2.4-8-6.1-15.3-11.4-21.6c-6.1-7.2-13.5-12.9-22.1-16.9c-1.1-0.5-2-1-2.7-2.1c-1.1-2.5-3.6-4.1-4.6-6.7c-0.4-1.2-1.5-3.2,1.5-2.5
		c6.6,1.5,12.6,4.5,18.3,8.2C119.6,15.5,121.3,16.6,123,17.6z"/>
	<path fill="#016CCF" d="M99.7,6.3c-2.5,0.5-0.8,1.8-0.5,2.7c0.9,2.4,4,3.4,4.2,6.3c-1,0.9-2.1,0.7-3.2,0.3
		c-10.6-4-21.6-4.1-32.6-2.5c-0.7-0.1-1.3-0.3-1.8-0.8c-1.5-2.5-3.1-4.9-6-6C69.1,3,78.6,2.6,88.2,3.7C92,4.1,96.1,4.4,99.7,6.3z"/>
	<path fill="#D4E8F9" d="M88.4,76.8c0-8.4,0.7-7.6-7.4-7.4c-13.3,0.2-26.5-1.6-39.7-3.2c-0.3,0-0.6-0.4-0.9-0.6
		c0.4-2,1.2-3.8,1.7-5.7c2.1-8.2,8.7-13.3,17.1-13.3c5,0,9.9-0.4,14.9,0.2c3.4,2.1-8.6-2.5-6.6-5.2c1.7-2.3,0.5-23.8,3.2-23.3
		C74.3,18.9,100,76.9,88.4,76.8z"/>
	<path fill="#016CCF" d="M122.9,88.3c0,7.8,0.2,14.7-0.4,21.6c-1.2,14.6-5.3,28.9-5.6,43.6c-0.2,9.6,2,19,3.4,28.5
		c0.8,5.7,2,11.3,2.4,17c0.8,10.7,1.4,21.5,0.8,32.2c-0.7,10.8-1.5,21.6-3.3,32.3c-0.6,3.7-1.4,7.3-1.8,11c-0.1,1,0,2-1.7,2.5
		c0-4.8,1.4-9.2,1.9-13.8c1.1-8.5,2.4-17,2.9-25.6c0.4-6.7,0.7-13.4,0.6-20.2c-0.2-11.6-1.7-23-3.3-34.5
		c-1.5-10.6-3.8-21.1-3.5-31.9c0.2-6.4,1.5-12.6,2.5-18.9c2.2-13.4,4.2-26.8,3.7-40.5C121.4,90.9,121.2,90,122.9,88.3z"/>
	<path fill="#016CCF" d="M43.4,164.5c-1,6.1-1.9,12.2-3,18.2c-3.2,17.5-3.7,35.2-2.8,52.8c0.6,12.5,2.1,25,4.8,37.2
		c0.3,1.3,0.6,2.6-0.5,4.4c-1.7-5.2-2-10-2.9-14.8c-3.3-18.6-3.6-37.4-2.9-56.2c0.3-8.6,2.1-17.2,3.2-25.8c0.6-4.5,1.2-9.1,1.9-13.6
		c1.5-9.7,1.2-19.4-0.3-29C39,126.3,37,115,36.5,103.4c-0.2-3.8-0.6-7.7-0.5-11.6c0-0.9-0.4-2,1.2-2.9c0.6,4.7,0.6,9.3,0.8,13.7
		c0.6,13,2.9,25.7,5.1,38.4C44.3,148.9,43.7,156.7,43.4,164.5z"/>
	<path fill="#0A897A" d="M80.8,115c-7,0-14,0-21,0c-5.1,0-6.5-1.4-6.6-6.4c0-3.6-0.1-7.2,0-10.9c0.1-3.9,1.6-5.5,5.5-5.5
		c14.9,0,29.7,0,44.6,0c3.7,0,5.2,1.6,5.3,5.3c0.1,3.7,0.1,7.5,0,11.2c-0.1,4.5-1.6,6.1-6.1,6.1C95.3,115,88,115,80.8,115
		C80.8,115,80.8,115,80.8,115z"/>
	<path fill="#016CCF" d="M140.2,293.7c-0.1,0.2-0.1,0.4,0,0.6c-0.8,3.1-1.8,6.3-2.3,9.4c-0.5,3.3-2.4,4.3-5.5,4.9
		c-20.9,3.5-41.9,5.2-63,4.5c-14.5-0.5-28.8-2.2-43.1-4.6c-2.6-0.4-4.3-1.4-4.6-4.3c-0.4-3.6-2.4-6.8-2.2-10.6
		c8.3,1.7,16.7,2.7,25.1,3.6c16.6,1.8,33.3,2.1,50,1.5C109.9,298.1,125,296.1,140.2,293.7z"/>
	<path fill="#D4E8F9" d="M74.1,47.5c-5,0-10,0-15,0c-8,0-13.9,4.7-16,12.3c-0.6,2,0.1,4.7-2.7,5.7c-7-0.4-13.4-3.2-20.2-4.7
		c-1.5-0.3-1.8-1.6-1.4-3c2.4-8.5,5.7-16.5,11.8-23.1c1.3,2.7,1.7,5.8,5,7.5c5,2.5,13.5,1.5,18.4-2.6c1-0.8,1.8-1.7,2.7-2.6
		c2.4-2.4,4.4-5.1,3.2-8.6c-1.3-3.8-4-6.3-8.2-6.8c-1.2-0.2-2.9,0.3-3.1-1.8c4.2-3.8,9.7-4.8,14.8-6.7c0.8-0.3,1.6-0.5,2.4-0.8
		c0.5,0,1,0,1.5,0c1.4,2.5,3.6,4.5,4.1,7.5c-0.1,1.4-1,2.4-1.3,3.7c-0.7,4.5-0.2,9.1-0.2,13.7c0,1.7,1.1,2.9,1.9,4.3
		C73.1,43.3,74.7,45,74.1,47.5z"/>
	<path fill="#E1EFFC" d="M48.6,19.8c0.7,1,1.8,0.8,2.7,0.8c5.1,0.1,8,3.2,9.6,7.5c1.3,3.7-0.8,6.6-3.2,9.3
		c-4.7,5.3-10.5,7.5-17.5,7.2c-5.8-0.3-9.5-4-9.6-9.8c3.9-6.6,10.3-10.3,16.2-14.7C47.3,19.8,48,19.9,48.6,19.8z"/>
	<path fill="#E1EFFC" d="M71.2,19.8c-1.1-2.6-3.9-4.3-3.8-7.5c11.1-2.3,22.1-1.8,32.8,2.2c1.1,0.4,2,0.9,3.2,0.8
		c0.7,0.5,1.5,1,2.2,1.5c4.5,4,6.5,9.7,8.8,14.9c2.7,6,5,12.2,6,18.7c0.2,1.4,4.1,14.3,1.7,14.8c-10.7,2.7-25.4,3.7-34.3,4
		C86.2,70.5,89.5,49.5,71.2,19.8z"/>
	<path fill="#D5E8F9" d="M118.5,46.2c-2.7-10.5-7.4-20.1-12.8-29.4c13.8,6.4,24.2,16.2,30.7,30.1c1.6,3.5,3.2,6.9,3.9,10.8
		c0.3,1.6,0,2.9-1.5,3.2c-5.6,1.2-9.7,3.9-15.6,3.9C123,61.1,119.1,48.8,118.5,46.2z"/>
	<path fill="#026D62" d="M80.9,112.8c-7.2,0-14.5-0.1-21.7,0c-2.7,0-3.7-0.9-3.8-3.7c-0.2-3.9,0.7-7.8-0.7-11.8
		c-0.5-1.5,2.1-3.3,4.5-3.3c3.1,0,6.2,0,9.4,0c11,0,22,0,33,0c4.3,0,4.9,0.6,5,5c0,3-0.2,6,0.1,9c0.3,3.5-0.9,4.9-4.6,4.8
		C94.9,112.6,87.9,112.8,80.9,112.8z"/>
	<path fill="#AB5056" d="M100.5,111.3c-1.3-0.2-2.9,0.3-3-1.6c0-2,1.6-1.5,2.7-1.5c1.2,0,3.1-0.6,3,1.6
		C103.1,111.8,101.4,111,100.5,111.3z"/>
	<path fill="#C54C55" d="M69.1,111.2c-1.4,0.1-2.5,0-2.4-1.6c0.1-2.1,1.7-1.3,2.8-1.3c1,0,2.4-0.5,2.5,1.3
		C71.9,111.8,70.1,111,69.1,111.2z"/>
	<path fill="#CB4858" d="M92.2,111.2c-1.2,0-2.3,0-2.2-1.7c0.1-1.8,1.6-1.2,2.5-1.3c1.2-0.2,2.5,0,2.5,1.4
		C95,111.3,93.4,111.2,92.2,111.2z"/>
	<path fill="#D34A53" d="M84.5,111.2c-1.3,0.2-2.2-0.2-2.1-1.7c0.1-1.8,1.6-1.2,2.5-1.2c0.9,0,2.1-0.4,2.1,1.2
		C87,111.3,85.8,111.3,84.5,111.2z"/>
	<path fill="#CE4C52" d="M76.9,108.2c1.1,0.2,2.5-0.4,2.5,1.5c0,1.7-1.2,1.6-2.4,1.6c-1.2,0-2.3-0.1-2.3-1.7
		C74.8,108,76.1,108.4,76.9,108.2z"/>
	<path fill="#96535A" d="M62.9,108.4c1.5-0.2,1.7,0.8,1.4,1.8c-0.4,1.5-1.8,1.1-2.8,1.1c-1,0-2.4,0.4-2.9-1c-0.4-1.1-0.2-2,1.3-1.9
		C60.9,109.5,61.9,109.2,62.9,108.4z"/>
	<path fill="#F7425A" d="M62.9,108.4c0,1.5-1.1,1.9-2.2,1.8c-1-0.1-0.7-1.1-0.7-1.8C60.9,108.4,61.9,108.4,62.9,108.4z"/>
</g>
<g>
	<path fill="#FEFEFE" d="M78.9,223.7c-0.2,0.4-0.4,0.7-0.5,1c-1.7,4.8-4.1,9.2-6.8,13.6c-1.4,2.3-2.8,4.6-4,7.1
		c-1.2,2.6-1.6,5.3-0.9,8.1c1.6,6.9,8.8,11.1,15.7,9.1c6.8-2,10.5-9.3,8.1-16c-0.7-2-1.8-3.9-2.9-5.7c-3.3-5.3-6.4-10.6-8.5-16.5
		C79.2,224.1,79.1,223.9,78.9,223.7z"/>
	<path fill="#2079BA" d="M78.9,223.7c0.2,0.3,0.3,0.4,0.3,0.5c2.1,5.9,5.2,11.2,8.5,16.5c1.1,1.8,2.2,3.7,2.9,5.7
		c2.4,6.7-1.3,14-8.1,16c-6.8,2-14.1-2.2-15.7-9.1c-0.7-2.8-0.3-5.5,0.9-8.1c1.1-2.5,2.5-4.8,4-7.1c2.7-4.3,5.1-8.8,6.8-13.6
		C78.5,224.4,78.7,224.1,78.9,223.7z M79,229.9c-0.2,0.3-0.3,0.4-0.4,0.5c-1.7,3.7-3.9,7.2-6,10.7c-1.2,1.9-2.4,3.9-3.2,6.1
		c-1.5,4.1-0.2,8.7,3.3,11.3c3.6,2.8,8.5,2.8,12.1,0.1c3.5-2.6,5-7.2,3.5-11.3c-0.5-1.3-1.1-2.6-1.8-3.8c-2.3-4-4.9-7.8-6.8-12
		C79.5,231.1,79.3,230.6,79,229.9z"/>
	<path fill="#F2F7F9" d="M79,229.9c0.3,0.7,0.6,1.2,0.8,1.7c2,4.2,4.6,8,6.8,12c0.7,1.2,1.3,2.5,1.8,3.8c1.5,4.1,0.1,8.7-3.5,11.3
		c-3.7,2.7-8.5,2.7-12.1-0.1c-3.5-2.7-4.8-7.2-3.3-11.3c0.8-2.2,2-4.1,3.2-6.1c2.1-3.5,4.3-7,6-10.7C78.7,230.3,78.8,230.2,79,229.9
		z M78.9,232.8c-1.8,4.2-4.3,7.9-6.5,11.8c-0.6,1-1.1,2.1-1.5,3.2c-1,3.1,0,6.7,2.5,8.8c3,2.6,7.4,2.8,10.5,0.4
		c3.2-2.4,4.4-6.4,2.7-10.1C84.4,242.1,80.9,237.9,78.9,232.8z"/>
	<path fill="#29AADF" d="M78.9,232.8c2,5.1,5.5,9.2,7.7,14.1c1.7,3.8,0.5,7.8-2.7,10.1c-3.2,2.3-7.5,2.1-10.5-0.4
		c-2.5-2.1-3.5-5.7-2.5-8.8c0.4-1.1,0.9-2.2,1.5-3.2C74.6,240.8,77.1,237.1,78.9,232.8z M82,256.5c-0.5,0-0.8,0-1.1,0
		c-4.4-0.1-7.7-3.8-7.1-8.2c0.2-1.2,0.6-2.4,1.1-3.5c0.8-1.9,1.6-3.7,2.4-5.6c0.2-0.4,0.5-0.8,0.1-1.3c-1.6,2.8-3.3,5.5-4.8,8.3
		c-0.9,1.7-1.3,3.4-0.9,5.4C72.8,256,78.1,258.7,82,256.5z"/>
	<path fill="#F1F8FA" d="M82,256.5c-3.9,2.2-9.2-0.5-10.2-4.9c-0.4-1.9,0-3.7,0.9-5.4c1.5-2.8,3.1-5.5,4.8-8.3c0.3,0.6,0,1-0.1,1.3
		c-0.8,1.9-1.6,3.7-2.4,5.6c-0.5,1.1-0.9,2.3-1.1,3.5c-0.6,4.3,2.7,8.1,7.1,8.2C81.2,256.5,81.5,256.5,82,256.5z"/>
</g>
<path fill="#016CCF" d="M87,69.5c0,0,14.4-0.1,36.7-4.3l1.6,7.3c0,0-11,3.1-36.9,4.2L87,69.5z"/>
<linearGradient id="SVGID_1_" gradientUnits="userSpaceOnUse" x1="79.4878" y1="69.9968" x2="79.4878" y2="10.5207">
	<stop  offset="0" style="stop-color:#FFFFFF"/>
	<stop  offset="1" style="stop-color:#707070"/>
</linearGradient>
<path fill="none" stroke="url(#SVGID_1_)" stroke-miterlimit="10" d="M20.2,60.9c0,0-2.7-0.1-1-4.4c0,0,11.5-46.6,64.4-45.5
	c0,0,41.9,1.4,55.8,43.4c0,0,2.6,5.2-1.1,6.5c0,0-24.8,8.1-51.3,8.5C87,69.5,49.5,70.5,20.2,60.9z"/>
<g opacity="0.69">
	<defs>
		<path id="SVGID_2_" opacity="0.69" d="M20.2,61.4c0,0-2.7-0.1-1-4.4c0,0,11.5-46.6,64.4-45.5c0,0,41.9,1.4,55.8,43.4
			c0,0,2.6,5.2-1.1,6.5c0,0-24.8,8.1-51.3,8.5C87,70,49.5,71,20.2,61.4z"/>
	</defs>
	<clipPath id="SVGID_3_">
		<use xlink:href="#SVGID_2_"  overflow="visible"/>
	</clipPath>
	<g clip-path="url(#SVGID_3_)">
		<path fill="#ED2229" d="M63.5,64.1c-0.4,0.2-0.9,0.4-1.3,0.5C62.3,63.9,62.9,64.2,63.5,64.1z"/>
		<ellipse fill="#FBC387" cx="81.3" cy="39.8" rx="27.9" ry="27.7"/>
		<circle fill="#FFFFFF" cx="79.8" cy="44.6" r="7.7"/>
		<circle fill="#FFFFFF" cx="100.7" cy="44.6" r="7.7"/>
		<linearGradient id="SVGID_4_" gradientUnits="userSpaceOnUse" x1="80.9321" y1="86.6961" x2="80.9321" y2="11.5734">
			<stop  offset="0" style="stop-color:#FFFFFF"/>
			<stop  offset="1" style="stop-color:#707070"/>
		</linearGradient>
		<path fill="url(#SVGID_4_)" d="M109.2,39.9c0,0-0.3,9.6-1.2,17.4c0,0-1.7,2.8,2.2,11.5c0,0,5.2,8.4-5.4,6.1c0,0-9.4-2.8-15.7-8.3
			c0,0,19.4-5.3,17.7-25.3c0,0-20.6,1.6-31.8-11.5c0,0-4.4,10.9-2.9,26.4c0,0,3.2,24.8-1,28c0,0-13.4,7.6-14.9-4.4l-0.6,2.9
			c0,0-3.4-0.3-2.8-8.6l1.4-8.4c0,0,0.2-2.5-2.3-10c0,0-6.5-18.9,6.7-35.9c0,0,7.1-8.4,22.3-8.4c0,0,21.8,0.4,28,21.1
			C108.9,32.6,115,38.4,109.2,39.9z"/>
		<path fill="#FBC387" d="M62.2,46.7c-2.8,0-5.1-2.3-5.1-5.1c0-2.8,2.3-5.1,5.1-5.1c0.6,0,1.1,0.1,1.6,0.3"/>
		<circle fill="#020202" cx="82.9" cy="44.7" r="1.8"/>
		<circle fill="#020202" cx="103.2" cy="44.7" r="1.8"/>
		<path fill="#F16D50" stroke="#F22525" stroke-width="0.5817" stroke-miterlimit="10" d="M77.8,56.4c0,0,3.7,0.5,5.9,0.3
			c0,0,4.3-0.4,5.4-0.3c0,0,2.9,0.2,4.5,0.7c0,0,1.7,0.3,2.8,0.2c0,0,1.2-0.3,0.6,1.1c0,0-3.5,1.6-7.8,1.6
			C89.1,59.9,80.5,59.4,77.8,56.4z"/>
		<path fill="#F16D50" stroke="#F22525" stroke-width="0.5817" stroke-miterlimit="10" d="M87.3,63.6c0,0,6.1,0.1,9.6-5.2
			c0,0-3.8,1.9-8.9,1.5c0,0-7.1-0.5-10.2-3.5C77.8,56.4,81.2,63.1,87.3,63.6z"/>
	</g>
</g>
<g>
	<path fill="#00FFDA" d="M59.8,101.5l-0.1,2.8l-1.1,0.6l0.2-3.6c0-0.1,0.1-0.3,0.2-0.4L59.8,101.5z M60,97.7l-0.1,2.4l-0.9,0.6
		l-0.1-0.3l0.2-3.3L60,97.7z M64.2,96.4l-1.1,1.1H60l-1-0.6l0.8-0.5L64.2,96.4z M62.9,100.3l0.8,0.6l-0.8,0.5h-3
		c-0.3-0.2-0.5-0.4-0.8-0.6l1-0.5H62.9z M64.1,101.5l-0.2,3.5l-0.2,0.3l-0.8-0.9l0.1-2.7l0.7-0.6L64.1,101.5z M64.4,96.7
		c-0.1,1.2-0.1,2.3-0.2,3.5l-0.4,0.4l-0.7-0.5l0.1-2.6l1.1-1.1C64.3,96.6,64.4,96.6,64.4,96.7z"/>
	<path fill="#00FFDA" d="M66.8,101.5l-0.1,2.8l-1.1,0.6l0.2-3.6c0-0.1,0.1-0.3,0.2-0.4L66.8,101.5z M69.8,104.5
		c0.3,0.3,0.5,0.7,0.8,1c0,0,0.1,0.1,0.1,0.1c0,0,0,0.1-0.1,0.1h-2.1h-1.7h-0.9c-0.1-0.1-0.2-0.2-0.3-0.3c0,0-0.1-0.1-0.1-0.1v0
		l1.1-0.7H69.8z M67,97.7l-0.1,2.4l-0.9,0.6l-0.1-0.3l0.2-3.3L67,97.7z"/>
	<path fill="#00FFDA" d="M73.9,101.5l-0.1,2.8l-1.1,0.6l0.2-3.6c0-0.1,0.1-0.3,0.2-0.4L73.9,101.5z M76.8,104.5
		c0.3,0.3,0.5,0.7,0.8,1c0,0,0.1,0.1,0.1,0.1c0,0,0,0.1-0.1,0.1h-2.1h-1.7h-0.9c-0.1-0.1-0.2-0.2-0.3-0.3c0,0-0.1-0.1-0.1-0.1v0
		l1.1-0.7H76.8z M74.1,97.7l-0.1,2.4l-0.9,0.6l-0.1-0.3l0.2-3.3L74.1,97.7z M78.2,96.4l-1.1,1.1h-3.1l-1-0.6l0.8-0.5L78.2,96.4z
		 M76.9,100.3l0.8,0.6l-0.8,0.5h-3c-0.3-0.2-0.5-0.4-0.8-0.6l1-0.5H76.9z"/>
	<path fill="#00FFDA" d="M80.9,101.5l-0.1,2.8l-1.1,0.6l0.2-3.6c0-0.1,0.1-0.3,0.2-0.4L80.9,101.5z M81.1,97.7l-0.1,2.4l-0.9,0.6
		l-0.1-0.3l0.2-3.3L81.1,97.7z M85.2,96.4l-1.1,1.1h-3.1l-1-0.6l0.8-0.5L85.2,96.4z M85.2,101.5l-0.2,3.5l-0.2,0.3l-0.8-0.9l0.1-2.7
		l0.7-0.6L85.2,101.5z M85.4,96.7c-0.1,1.2-0.1,2.3-0.2,3.5l-0.4,0.4l-0.7-0.5l0.1-2.6l1.1-1.1C85.4,96.6,85.4,96.6,85.4,96.7z"/>
	<path fill="#00FFDA" d="M90.9,104.5c0.3,0.3,0.5,0.7,0.8,1c0,0,0.1,0.1,0.1,0.1c0,0,0,0.1-0.1,0.1h-2.1h-1.7H87
		c-0.1-0.1-0.2-0.2-0.3-0.3c0,0-0.1-0.1-0.1-0.1v0l1.1-0.7H90.9z M88.1,97.7l-0.1,2.4l-0.9,0.6l-0.1-0.3l0.2-3.3L88.1,97.7z
		 M90.9,100.3l0.8,0.6l-0.8,0.5h-3c-0.3-0.2-0.5-0.4-0.8-0.6l1-0.5H90.9z M92.2,101.5l-0.2,3.5l-0.2,0.3l-0.8-0.9l0.1-2.7l0.7-0.6
		L92.2,101.5z M92.4,96.7c-0.1,1.2-0.1,2.3-0.2,3.5l-0.4,0.4l-0.7-0.5l0.1-2.6l1.1-1.1C92.4,96.6,92.4,96.6,92.4,96.7z"/>
	<path fill="#00FFDA" d="M94.9,101.5l-0.1,2.8l-1.1,0.6l0.2-3.6c0-0.1,0.1-0.3,0.2-0.4L94.9,101.5z M95.1,97.7l-0.1,2.4l-0.9,0.6
		l-0.1-0.3l0.2-3.3L95.1,97.7z M99.3,96.4l-1.1,1.1h-3.1l-1-0.6l0.8-0.5L99.3,96.4z M99.2,101.5l-0.2,3.5l-0.2,0.3l-0.8-0.9l0.1-2.7
		l0.7-0.6L99.2,101.5z M99.5,96.7c-0.1,1.2-0.1,2.3-0.2,3.5l-0.4,0.4l-0.7-0.5l0.1-2.6l1.1-1.1C99.4,96.6,99.5,96.6,99.5,96.7z"/>
	<path fill="#00FFDA" d="M99.5,101.5l-0.1,2.8l-1.1,0.6l0.2-3.6c0-0.1,0.1-0.3,0.2-0.4L99.5,101.5z M99.7,97.7l-0.1,2.4l-0.9,0.6
		l-0.1-0.3l0.2-3.3L99.7,97.7z M103.9,96.4l-1.1,1.1h-3.1l-1-0.6l0.8-0.5L103.9,96.4z M103.8,101.5l-0.2,3.5l-0.2,0.3l-0.8-0.9
		l0.1-2.7l0.7-0.6L103.8,101.5z M104.1,96.7c-0.1,1.2-0.1,2.3-0.2,3.5l-0.4,0.4l-0.7-0.5l0.1-2.6l1.1-1.1
		C104,96.6,104.1,96.6,104.1,96.7z"/>
</g>
<path fill="#00FFDA" d="M9.5,99.6c0,0,46.7,67.5,143,118.6c0,0,0.6,22-2.7,39.1c0,0-73.3-38.7-132.7-98.6c0,0,1.9-5.2,1.6-17.2
	C18.7,141.5,10.1,117.4,9.5,99.6z"/>
<g>
	<path fill="#FFFFFF" d="M23.6,149.3c-0.1-0.1-0.1-0.3,0-0.4l9.3-9.1c0.1-0.1,0.2-0.1,0.2,0l2.2,2.2c0.1,0.1,0.1,0.2,0,0.3l-9.3,9.2
		c-0.1,0.1-0.2,0.1-0.3,0L23.6,149.3z"/>
	<path fill="#FFFFFF" d="M33.6,147.7c1.1-1.1,2.6-1,3.7,0.1c0.4,0.4,0.6,0.7,0.7,1.1c0.2-0.1,1-0.1,1.3,0.1c0.3,0.3,0,1.3-0.1,1.4
		c-0.1,0.1-0.9-0.3-1.1-0.2c0,0.4-0.3,0.9-0.8,1.3l-1.9,1.9c-1.1,1.1-2.5,1-3.6-0.1c-0.2-0.2-0.4-0.4-0.5-0.6
		c-0.1,0-0.2,0.1-0.3,0.1c-0.2,0.2-0.1,0.4,0.4,1c1.2,1.5,1.3,2.6,0.1,3.8c-1.1,1.1-2.5,0.9-3.7-0.2c-1.4-1.4-1.3-2.8-0.6-3.5
		c0.4-0.4,0.9-0.6,1.3-0.5c0-0.3,0.1-0.8,0.6-1.2c0.5-0.5,1.3-0.7,1.8-0.6c-0.1-0.6,0.2-1.5,0.7-2L33.6,147.7z M29.2,154.7
		c-0.1,0-0.2,0-0.3,0.1c-0.3,0.3,0.2,0.9,0.3,1c0.2,0.2,0.6,0.5,0.8,0.2c0.1-0.1,0.1-0.2-0.1-0.3C29.7,155.4,29.3,155,29.2,154.7z
		 M33.6,151c-0.2,0.2-0.2,0.3,0,0.5c0.1,0.1,0.3,0.1,0.4-0.1l1.4-1.4c0.2-0.2,0.2-0.3,0.1-0.4c-0.1-0.1-0.3-0.1-0.5,0L33.6,151z"/>
	<path fill="#FFFFFF" d="M37.1,152.7c-0.1-0.1,0-0.2,0.6-0.8c1-1,2.7-1.2,4,0.1c1.4,1.4,1.3,3,0.4,4l-3.4,3.5
		c-0.1,0.1-0.1,0.1,0.2,0.4c0.1,0,0,0.1,0,0.2l-0.8,0.8c-0.6,0.6-1.9,0.8-2.6,0.1c-0.6-0.6-0.6-1-0.5-1.5c0-0.2,0-0.2,0-0.2
		c0,0-0.1,0-0.3,0c-0.3,0.1-0.9,0-1.3-0.4c-0.5-0.5-0.9-1.8,0.3-3l0.9-1c1-1,2.2-0.9,3.2-0.5c1.3,0.5,1.5,0.4,2,0
		c0.2-0.2,0.2-0.3,0.1-0.5c-0.2-0.2-0.3-0.1-0.9,0.5c-0.1,0.1-0.2,0.1-0.2,0L37.1,152.7z M37.6,156.7c0.1-0.1,0.1-0.1,0-0.2
		c-0.1-0.1-0.4-0.2-0.7,0.1l-0.9,1c-0.1,0.2-0.1,0.3,0,0.4s0.3,0.1,0.4,0L37.6,156.7z"/>
	<path fill="#FFFFFF" d="M44,154.5c0-0.1,0.1-0.1,0.1,0l1.7,1.6c0.1,0,0.1,0.1,0,0.2l-1.9,2.6c-0.1,0.1-0.1,0.2-0.1,0.2
		c0,0,0.1,0,0.2-0.1l2.5-2c0.1-0.1,0.2,0,0.2,0l1.7,1.6c0.1,0,0,0.1,0,0.2l-8.5,6.4c-0.1,0.1-0.2,0.1-0.2,0l-1.8-1.7
		c-0.1,0-0.1-0.1,0-0.2L44,154.5z"/>
	<path fill="#FFFFFF" d="M46.8,161c1.4-1.6,3.2-1,4.3,0c1.5,1.4,1.3,3.3,0.1,4.6l-0.7,0.8c-0.1,0.1-0.2,0.1-0.2,0l-2.2-2
		c-0.1,0-0.1,0-0.2,0l-1.9,2.1c-0.2,0.2-0.2,0.4-0.1,0.5c0.1,0.1,0.3,0.1,0.5-0.1l0.7-0.8c0-0.1,0.1-0.1,0.2,0l1.6,1.7
		c0.1,0.1,0.1,0.2,0,0.3l-0.8,0.8c-1.6,1.7-3.2,1.1-4.4,0c-1.4-1.3-1.3-3.1,0.1-4.6L46.8,161z M48.6,163.5c0,0,0,0.1,0,0.1
		c0.3,0.3,0.3,0.3,0.4,0.3c0.8-0.8,0.9-0.9,0.6-1.1c-0.1-0.1-0.3-0.1-0.5,0.1L48.6,163.5z"/>
	<path fill="#FFFFFF" d="M55,164.7c0,0,0.1-0.1,0.2,0l1.8,1.7c0.1,0.1,0.1,0.1,0,0.2l-1.5,2.3c0,0.1-0.1,0.1,0,0.2
		c0,0,0.1,0,0.1-0.1l2.2-1.7c0,0,0.1,0,0.1,0l1.8,1.6c0.1,0,0.1,0.1,0,0.1L49,177.1c-0.1,0-0.1,0.1-0.2,0l-1.7-1.5
		c-0.1-0.1-0.1-0.1,0-0.2l3.7-2.8c0.1-0.1,0.1-0.1,0.2-0.2L55,164.7z"/>
	<path fill="#FFFFFF" d="M58.2,171.2c1.1-1.2,2.8-1.3,4.2,0c1.4,1.2,1.6,2.9,0.4,4.2l-3.4,3.8c-1.1,1.3-2.8,1.3-4.2,0
		c-1.4-1.2-1.6-2.9-0.5-4.2L58.2,171.2z M57.1,176.6c-0.1,0.2-0.2,0.3,0,0.5c0.1,0.1,0.3,0.1,0.5-0.1l2.8-3.2c0.1-0.1,0.2-0.3,0-0.5
		c-0.1-0.1-0.3-0.1-0.5,0.1L57.1,176.6z"/>
	<path fill="#FFFFFF" d="M65,173.8c0.1-0.1,0.2-0.1,0.2,0l1.7,1.5c0.1,0.1,0.1,0.1,0,0.2l-4.5,5.2c-0.2,0.2-0.1,0.4,0,0.5
		c0.1,0.1,0.3,0.1,0.5-0.1l4.5-5.2c0.1-0.1,0.1-0.1,0.2,0l1.8,1.5c0.1,0.1,0.1,0.1,0,0.2l-6.9,8c0,0.1-0.1,0.1-0.2,0l-1.6-1.4
		c-0.1-0.1,0.2-0.6,0.2-0.7c0,0-0.1,0-0.2,0c-0.4,0-0.8,0-1.3-0.5c-0.6-0.5-0.9-1.6-0.1-2.5L65,173.8z"/>
	<path fill="#FFFFFF" d="M70,178c0.1-0.1,0.1-0.1,0.2,0l1.9,1.6c0.1,0.1-0.2,0.6-0.1,0.6c0,0,0.1,0,0.2,0c0.4-0.2,0.7,0,1.2,0.4
		c0,0,0,0.1,0,0.2l-1.7,2c0,0.1-0.1,0.1-0.2,0c-0.7-0.6-1.3-0.5-2.2,0.7l-3.8,4.5c-0.1,0.1-0.2,0.1-0.2,0l-2-1.7
		c-0.1,0-0.1-0.1,0-0.2L70,178z"/>
	<path fill="#FFFFFF" d="M75.6,187.4c-0.1,0-0.1-0.1,0-0.2c0.4-0.4,0.4-0.7,0.2-0.9c-0.1-0.1-0.3-0.1-0.4,0.1
		c-0.2,0.3-0.2,1.1,0,2.4c0.2,1.4,0.1,2.3-0.6,3.2c-1,1.2-2.5,1.9-4.2,0.5c-0.9-0.8-1.8-2.3,0.1-4.6c0.1-0.1,0.1-0.1,0.2,0l1.6,1.1
		c0.1,0,0.1,0.1,0,0.2c-0.4,0.5-0.5,1-0.3,1.1c0.1,0.1,0.3,0.1,0.4-0.1c0.3-0.3,0.2-1.3-0.1-2.6c-0.2-0.9-0.1-2.1,0.8-3.1
		c1-1.2,2.8-1.4,4-0.4c1.7,1.4,1.3,3.2,0.2,4.6c-0.1,0.1-0.2,0.1-0.2,0L75.6,187.4z"/>
	<path fill="#FFFFFF" d="M80,186.4c0.1-0.1,0.2-0.1,0.2-0.1l1.8,1.4c0.1,0.1,0.1,0.1,0,0.2l-4.3,5.4c-0.2,0.2-0.1,0.4,0,0.5
		c0.1,0.1,0.3,0.1,0.4-0.1l4.3-5.4c0.1-0.1,0.1-0.1,0.2,0l1.8,1.5c0.1,0.1,0.1,0.1,0,0.2l-6.5,8.3c0,0.1-0.1,0.1-0.2,0l-1.7-1.3
		c-0.1-0.1,0.2-0.6,0.1-0.7c0,0-0.1,0-0.2,0c-0.4,0-0.8,0-1.3-0.4c-0.6-0.5-0.9-1.5-0.2-2.5L80,186.4z"/>
	<path fill="#FFFFFF" d="M85.1,190.4c0.1-0.1,0.1-0.1,0.2,0l2,1.5c0.1,0.1-0.2,0.6-0.1,0.7c0,0,0.1,0,0.2,0c0.4-0.2,0.7,0,1.2,0.3
		c0,0,0.1,0.1,0,0.2L87,195c0,0.1-0.1,0.1-0.2,0c-0.7-0.6-1.3-0.4-2.2,0.8l-3.6,4.6c-0.1,0.1-0.2,0.1-0.2,0l-2.1-1.6
		c-0.1,0-0.1-0.1,0-0.2L85.1,190.4z"/>
	<path fill="#FFFFFF" d="M91,194.7c0.1,0-0.1,0.5,0,0.6c0,0,0.1,0,0.2,0c0.3,0,0.7,0.1,1,0.4c0.7,0.5,1.2,1.7-0.6,4l-2.2,3
		c-1.6,2.2-3,2.1-3.7,1.6c-0.3-0.2-0.5-0.6-0.6-0.9c0-0.1,0-0.2-0.1-0.2c0,0-0.1,0-0.1,0.1l-1.7,2.3c-0.1,0.1-0.2,0.1-0.2,0
		l-1.9-1.4c-0.1-0.1-0.1-0.2,0-0.2l7.8-10.6c0.1-0.1,0.2-0.1,0.2,0L91,194.7z M86.8,200.8c-0.2,0.2-0.2,0.5,0,0.6
		c0.1,0.1,0.3,0,0.4-0.2l2.7-3.6c0.1-0.1,0.2-0.3,0-0.4c-0.1,0-0.2-0.1-0.2-0.1c-0.1,0-0.2,0.1-0.3,0.2L86.8,200.8z"/>
	<path fill="#FFFFFF" d="M94.3,197.2c0.1-0.1,0.1-0.1,0.2-0.1l2.1,1.5c0.1,0.1-0.1,0.6-0.1,0.7c0,0,0.1,0,0.2,0
		c0.4-0.2,0.7,0,1.2,0.3c0,0,0.1,0.1,0,0.2l-1.5,2.1c0,0.1-0.1,0.1-0.2,0c-0.7-0.5-1.3-0.4-2.2,0.8l-3.4,4.8c-0.1,0.1-0.2,0.1-0.2,0
		l-2.1-1.5c-0.1,0-0.1-0.1,0-0.2L94.3,197.2z"/>
	<path fill="#FFFFFF" d="M94.7,210.4c0,0.1-0.1,0.1-0.2,0l-2.2-1.5c-0.1,0-0.1-0.2,0-0.2l6-8.5c0.1-0.1,0.2-0.1,0.3-0.1l2.1,1.5
		c0.1,0.1,0.1,0.2,0,0.3L94.7,210.4z M101.1,200.9c-0.1,0.1-0.2,0.1-0.3,0.1l-1.8-1.3c-0.1-0.1-0.1-0.2,0-0.3l1.3-1.8
		c0.1-0.1,0.2-0.1,0.3-0.1l1.8,1.3c0.1,0,0.1,0.1,0,0.2L101.1,200.9z"/>
	<path fill="#FFFFFF" d="M102.1,207.1c-0.1,0-0.1-0.1,0-0.2c0.3-0.5,0.4-0.8,0.2-0.9c-0.1-0.1-0.3,0-0.4,0.1
		c-0.2,0.3-0.1,1.1,0.2,2.4c0.3,1.4,0.3,2.3-0.4,3.2c-0.9,1.3-2.4,2.1-4.2,0.8c-1-0.7-2-2.1-0.2-4.6c0.1-0.1,0.1-0.1,0.2-0.1l1.7,1
		c0.1,0,0.1,0.1,0,0.2c-0.3,0.6-0.4,1-0.2,1.2c0.1,0.1,0.3,0,0.4-0.1c0.2-0.4,0.1-1.3-0.3-2.6c-0.3-0.9-0.3-2.1,0.5-3.2
		c0.9-1.3,2.6-1.6,4-0.7c1.8,1.2,1.6,3.1,0.6,4.6c-0.1,0.1-0.2,0.1-0.2,0L102.1,207.1z"/>
	<path fill="#FFFFFF" d="M104.9,208c1.2-1.8,3-1.5,4.2-0.7c1.7,1.1,1.8,3.1,0.8,4.5l-0.6,0.9c0,0.1-0.1,0.1-0.2,0l-2.5-1.7
		c-0.1,0-0.1,0-0.2,0.1l-1.6,2.3c-0.2,0.2-0.1,0.4,0,0.5c0.1,0.1,0.3,0.1,0.4-0.2l0.6-0.9c0-0.1,0.1-0.1,0.2,0l1.9,1.4
		c0.1,0.1,0.1,0.2,0,0.3l-0.6,1c-1.3,1.9-3,1.6-4.4,0.7c-1.6-1.1-1.8-2.8-0.6-4.5L104.9,208z M107.1,210.2c0,0,0,0.1,0,0.1
		c0.3,0.2,0.4,0.3,0.4,0.2c0.6-1,0.7-1.1,0.5-1.2c-0.1-0.1-0.3-0.1-0.4,0.2L107.1,210.2z"/>
	<path fill="#FFFFFF" d="M112,213.6c-0.1-0.1-0.1-0.1,0.4-0.9c0.8-1.2,2.4-1.7,4-0.7c1.7,1.1,1.9,2.7,1.1,3.9l-2.7,4.1
		c-0.1,0.1,0,0.2,0.3,0.4c0.1,0,0.1,0.1,0,0.2l-0.6,0.9c-0.5,0.7-1.7,1.2-2.5,0.6c-0.7-0.5-0.8-0.9-0.8-1.3c0-0.2,0-0.2-0.1-0.2
		c0,0-0.1,0-0.3,0c-0.3,0.1-0.9,0.2-1.4-0.2c-0.6-0.4-1.2-1.5-0.3-3.1l0.7-1.1c0.8-1.2,2-1.3,3-1.1c1.4,0.2,1.6,0.1,1.9-0.4
		c0.1-0.2,0.1-0.4,0-0.5c-0.2-0.2-0.3-0.1-0.8,0.6c0,0.1-0.1,0.1-0.2,0L112,213.6z M113.3,217.4c0-0.1,0-0.1,0-0.2
		c-0.1-0.1-0.5-0.1-0.7,0.2l-0.7,1.1c-0.1,0.2,0,0.3,0.1,0.4s0.3,0.1,0.4-0.1L113.3,217.4z"/>
	<path fill="#FFFFFF" d="M114.2,223.6c-0.1,0-0.1-0.2,0-0.2l7.2-11.3c0.1-0.1,0.2-0.1,0.3-0.1l2.1,1.4c0.1,0.1,0.1,0.1,0.1,0.2
		l-7.2,11.4c0,0.1-0.1,0.1-0.2,0L114.2,223.6z"/>
	<path fill="#FFFFFF" d="M123,216.5c0-0.1,0.1-0.1,0.2-0.1l2.1,1.4c0.1,0.1-0.1,0.6,0,0.7c0,0,0.1,0,0.2,0c0.4-0.3,0.7-0.1,1.2,0.2
		c0,0,0.1,0.1,0,0.2l-1.4,2.2c0,0.1-0.1,0.1-0.2,0c-0.8-0.5-1.3-0.3-2.1,1l-3.1,4.9c0,0.1-0.1,0.1-0.2,0.1l-2.2-1.4
		c-0.1,0-0.1-0.1,0-0.2L123,216.5z"/>
	<path fill="#FFFFFF" d="M125.7,221.5c1.1-1.8,2.9-1.6,4.2-0.8c1.7,1.1,1.9,3,1,4.5l-0.6,0.9c0,0.1-0.1,0.1-0.2,0.1l-2.6-1.6
		c-0.1,0-0.1,0-0.2,0.1l-1.5,2.4c-0.2,0.2-0.1,0.4,0,0.5c0.1,0.1,0.3,0.1,0.4-0.2l0.6-0.9c0-0.1,0.1-0.1,0.2,0l1.9,1.3
		c0.1,0.1,0.1,0.2,0,0.3l-0.6,1c-1.2,2-2.9,1.7-4.3,0.8c-1.6-1-1.8-2.8-0.8-4.5L125.7,221.5z M127.9,223.6c0,0,0,0.1,0,0.1
		c0.4,0.2,0.4,0.2,0.4,0.2c0.6-1,0.7-1.1,0.4-1.2c-0.1-0.1-0.3-0.1-0.4,0.2L127.9,223.6z"/>
	<path fill="#FFFFFF" d="M131.4,225.9c-0.1-0.1-0.1-0.1,0.4-0.9c0.7-1.2,2.3-1.7,3.9-0.7c1.7,1,2,2.7,1.2,3.9l-2.6,4.2
		c-0.1,0.1,0,0.2,0.3,0.4c0.1,0,0.1,0.1,0,0.2l-0.6,1c-0.5,0.8-1.7,1.2-2.5,0.7c-0.7-0.4-0.8-0.8-0.9-1.3c0-0.2,0-0.2-0.1-0.2
		c0,0-0.1,0-0.3,0c-0.3,0.1-0.9,0.2-1.4-0.1c-0.6-0.4-1.3-1.5-0.3-3l0.7-1.1c0.7-1.2,2-1.4,3-1.2c1.4,0.2,1.6,0.1,1.9-0.5
		c0.1-0.2,0.1-0.4,0-0.5c-0.2-0.2-0.3-0.1-0.7,0.6c0,0.1-0.1,0.1-0.2,0L131.4,225.9z M132.7,229.6c0-0.1,0-0.1,0-0.2
		c-0.1-0.1-0.5-0.1-0.7,0.2l-0.7,1.1c-0.1,0.2,0,0.3,0.1,0.4c0.1,0.1,0.3,0.1,0.4-0.1L132.7,229.6z"/>
	<path fill="#FFFFFF" d="M136.6,237.5c-0.1,0,0-0.5-0.1-0.6c0,0-0.1,0-0.3,0c-0.3,0-0.7,0-1.1-0.3c-0.8-0.5-1.3-1.5,0.2-4.1l2-3.2
		c1.4-2.3,2.7-2.4,3.5-1.9c0.4,0.2,0.6,0.5,0.7,0.8c0,0.1,0.1,0.2,0.1,0.2c0,0,0.1,0,0.1-0.1l1.6-2.7c0-0.1,0.2-0.1,0.2-0.1l2,1.2
		c0.1,0,0.1,0.1,0.1,0.2l-7,11.5c0,0.1-0.2,0.1-0.2,0.1L136.6,237.5z M140.3,230.9c0.1-0.2,0.1-0.5,0-0.6c-0.1-0.1-0.3,0-0.4,0.2
		l-2.3,3.9c-0.1,0.1-0.2,0.3,0,0.4c0.1,0,0.1,0,0.2,0c0.1,0,0.2-0.1,0.3-0.2L140.3,230.9z"/>
	<path fill="#FFFFFF" d="M144.7,229.9c0,0,0.1-0.1,0.1-0.1l2.1,1.3c0.1,0,0.1,0.1,0.1,0.2l-1.1,2.5c0,0.1,0,0.1,0,0.2
		c0,0,0.1,0,0.1-0.1l1.8-2.1c0,0,0.1-0.1,0.1,0l2,1.2c0.1,0,0.1,0.1,0.1,0.1l-9,10.1c-0.1,0.1-0.1,0.1-0.2,0l-2-1.2
		c-0.1,0-0.1-0.1,0-0.2l3.1-3.5c0.1-0.1,0.1-0.1,0.1-0.2L144.7,229.9z"/>
</g>
</svg>
