<?xml version="1.0" encoding="utf-8"?>
<!-- Generator: Adobe Illustrator 18.0.0, SVG Export Plug-In . SVG Version: 6.00 Build 0)  -->
<!DOCTYPE svg PUBLIC "-//W3C//DTD SVG 1.1//EN" "http://www.w3.org/Graphics/SVG/1.1/DTD/svg11.dtd">
<svg version="1.1" id="Layer_1" xmlns="http://www.w3.org/2000/svg" xmlns:xlink="http://www.w3.org/1999/xlink" x="0px" y="0px"
	 viewBox="0 0 1322 327" enable-background="new 0 0 1322 327" xml:space="preserve">
<path fill="#FFFFFF" d="M9.4,178.1c0,0,70.6-78.6,286.6-113.4c0,0,558-10.3,708,0c0,0,246.6,24.4,313.8,119.8
	c0,0-39.4,69-331.1,96.7c0,0-581.2,15.4-682.5-4.4C304.3,276.9,0.9,241.2,9.4,178.1z"/>
<path fill="#FFFFFF" d="M599,194.6c-97.2-0.6-194.3,2.3-291.3,7.4c-63.5,3.3-127,7.6-190.5,12.1c-17.7,1.2-35.5,3.9-52.9,7.4
	c-23.3,4.8-44.1-10.1-52.7-23.2c-5.6-8.5-4.6-17.6,0.9-25.9C20.2,161,31.1,153,42.7,146c35.8-21.5,74.5-36,115.5-42.9
	c37.9-6.4,76.1-11.8,114.4-15c67.9-5.7,135.9-10,203.9-13.7c43.1-2.4,86.3-3.4,129.4-3.7c59.6-0.4,119.3-0.6,178.9,1.3
	c69.1,2.2,138.1,6.1,207.1,10.8c46.5,3.2,92.9,8.5,139.2,14c45.2,5.4,88.9,17,130.1,37.2c15.7,7.7,31.1,16.3,43.6,28.7
	c4.5,4.5,8.2,10.1,11.1,15.8c3.9,7.7,2.3,15.4-3.3,21.8c-10.1,11.5-23.3,18-37.5,23c-1.3,0.5-3,0.3-4.4,0
	c-40.8-8.1-82.1-11.4-123.6-13.7c-56.4-3.1-112.8-6.8-169.2-8.8c-77.3-2.8-154.6-4.7-231.8-6.1C697,193.9,648,194.6,599,194.6z
	 M664.3,99.6c-17.2-0.1-31.7,11.2-34.8,27.1c-2.8,14.2,5.4,28.4,20.1,34.7c19.1,8.1,41.1,0,48-17.6
	C705.7,122.7,688.4,99.7,664.3,99.6z M799.5,166.2c22.7,0.5,35.6-15.5,30.1-34.1c-5-16.9-19.4-28.9-36.9-30.9
	c-18.6-2.1-39.5,16.2-29.1,39.2C771.1,156.8,784.4,164.9,799.5,166.2z M527.3,166.1c19.3-0.2,34.9-11.7,39.9-28.7
	c4.2-14.4-2.5-28.2-16.5-33.7c-16.4-6.5-37.8,2.4-47.6,19.8c-5.4,9.7-6.5,19.6-0.5,29.4C508.3,162.4,517.1,166.6,527.3,166.1z
	 M394.2,168.7c18.4,0.1,37.7-14,43.1-31.6c5.6-18-5.8-33.7-23.9-33c-17.8,0.7-37.4,16-42.4,33.1
	C365.8,155.6,375.3,168.6,394.2,168.7z M936.9,169.8c17.4-0.1,27.5-13.1,22.3-30c-5.9-18.8-19.2-30.7-38.5-34.6
	c-19.6-3.9-33.2,11.5-28.1,30.8C897.4,154.4,917.9,169.9,936.9,169.8z M267.8,173.1c8.5-0.1,17.7-4.2,25.9-10.5
	c10.1-7.8,18.2-17.1,20.5-30.2c2.5-14.5-6.6-24.1-21.2-22.7c-14.3,1.4-25.8,8.2-35.4,18.6c-5.4,5.8-9.9,12.1-11.5,20.1
	C243.1,163.5,250.3,172.5,267.8,173.1z M1035.9,109.7c-13.6-0.3-21.3,6.9-21.4,18c0,3.3,0.3,6.8,1.5,9.8
	c7.4,18.9,21.3,30.5,40.9,35.2c3.9,0.9,8.3,0.6,12.3-0.2c11.6-2.1,17.7-11.8,14-23c-1.7-5.1-4.4-10.1-7.6-14.5
	C1065.3,120.6,1051,112.3,1035.9,109.7z M148.6,178.2c0.9-0.1,2.3-0.1,3.6-0.3c1-0.1,2-0.3,2.9-0.6c18.4-5.2,32-16.5,41.6-32.8
	c1.4-2.4,2.3-5.2,3-7.9c2.6-11.1-3.9-18.8-14.9-16.6c-22.4,4.6-39.5,17.4-50.2,37.6C128.5,168.8,135.3,178.3,148.6,178.2z
	 M1177.6,178.1c8,0,13.2-1.1,16.4-6.5c3-5.1,1.3-10-1.3-14.6c-10.8-18.8-26.5-31.3-47.6-36.7c-11.5-2.9-18.9,4.5-15.7,15.8
	c0.9,3.2,2.2,6.4,3.9,9.1c8.3,13.3,19.6,23.4,34,29.7C1171.3,176.7,1175.6,177.5,1177.6,178.1z M42.3,184.6c3.4-1.1,7-1.9,10.3-3.4
	c13.1-6,24-14.8,33.1-25.9c2.6-3.2,5.3-6.7,6.5-10.5c0.9-2.9,0.6-7.4-1.2-9.5c-1.5-1.7-6.3-2-9-1.1c-12.7,4.4-24.2,11.2-33.4,21.1
	c-4.8,5.2-9.2,11-12.6,17.2C32.5,178.8,35.7,184,42.3,184.6z M1282.8,183.9c7.3,0,10.5-4.6,8.5-10.3c-0.8-2.2-2.1-4.1-3.4-6
	c-10.6-15.1-24.8-25.8-41.6-33.1c-3.8-1.6-7.5-2.1-10.5,1.4c-2.9,3.4-2.3,7-0.3,10.7c0.4,0.7,0.9,1.4,1.3,2.1
	c9.8,14.6,22.6,25.7,38.6,32.9C1278.2,182.8,1281.3,183.4,1282.8,183.9z"/>
<path fill="#FFFFFF" d="M986.7,281.3c0,18.7-179.2,37.6-335.2,37.6s-305-20.6-305-39.3s149-28.6,305-28.6S986.7,262.5,986.7,281.3z"
	/>
<g>
	<path fill="#FFFFFF" d="M599,194.6c49,0,98-0.7,146.9,0.2c77.3,1.4,154.6,3.3,231.8,6.1c56.4,2,112.8,5.7,169.2,8.8
		c41.4,2.3,82.8,5.6,123.6,13.7c1.4,0.3,3.1,0.4,4.4,0c14.1-4.9,27.4-11.5,37.5-23c5.7-6.5,7.3-14.1,3.3-21.8
		c-2.9-5.7-6.6-11.3-11.1-15.8c-12.6-12.4-27.9-21-43.6-28.7c-41.1-20.1-84.8-31.8-130.1-37.2c-46.3-5.5-92.7-10.8-139.2-14
		c-69-4.7-138-8.5-207.1-10.8c-59.6-1.9-119.3-1.6-178.9-1.3c-43.1,0.3-86.3,1.3-129.4,3.7c-68,3.7-136,8-203.9,13.7
		c-38.3,3.2-76.5,8.6-114.4,15c-41,6.9-79.7,21.4-115.5,42.9c-11.6,7-22.6,15-30.3,26.4c-5.6,8.2-6.5,17.4-0.9,25.9
		c8.6,13.1,29.4,27.9,52.7,23.2c17.4-3.6,35.2-6.2,52.9-7.4c63.5-4.5,127-8.7,190.5-12.1C404.7,196.9,501.8,194,599,194.6z
		 M1241.9,232.9c-0.1-0.7-0.2-1.4-0.3-2c-5.7-0.6-11.4-1.4-17.1-1.9c-52.7-3.9-105.3-8.6-158-11.4c-70-3.7-140.2-6.4-210.3-8.6
		c-48.1-1.5-96.3-1.8-144.4-2.3c-37.3-0.4-74.7-0.6-112-0.4c-115.2,0.8-230.3,4.1-345.2,11.3c-50.5,3.2-101,7.5-151.5,11.4
		c-6.4,0.5-12.7,1.7-19,2.6c1.5,1.8,3,2.7,4.7,3.3c7.7,2.6,15.4,5.5,23.2,7.7c44.2,12.3,89.3,20.5,134.6,27.1
		c30.7,4.4,61.5,7.6,92.3,11.2c2.5,0.3,5.2-0.4,7.6-1.2c7-2.4,13.8-6.1,20.9-7.5c25.9-5,52.2-6.5,78.5-7.3
		c98.1-2.9,196.3-3.7,294.4-3.1c68.8,0.4,137.6,2.4,206.3,7.9c12.3,1,24,3.8,34.5,10.7c1.5,1,3.8,1.2,5.6,1
		c11.9-1.4,23.8-2.8,35.7-4.5c40.4-6,80.8-11.5,121-18.4c31.8-5.5,63.3-12.7,93.8-23.7C1238.8,234.2,1240.3,233.5,1241.9,232.9z
		 M1151.6,92.7c-1.6-0.8-3.2-1.7-4.9-2.2c-16.6-5-32.9-11-49.8-14.5c-23.9-5-48.2-8.1-72.4-12c-6.4-1-11.7-3.5-13.2-10.3
		c-1.4-5.9-5.1-9.3-10.4-11.1c-6.3-2.2-12.6-4.7-19.1-5.6c-28.2-3.8-56.4-8.3-84.8-10.3c-51.5-3.7-103.1-7.2-154.7-8.4
		C629.6,15.7,517,17.6,404.7,28.9c-24,2.4-47.8,6.8-71.6,10.8c-9,1.5-15.6,7-18.3,15.8c-1.7,5.6-5.2,7.5-10.5,8.2
		c-15.4,1.9-30.8,3.5-46,6.1c-27.2,4.7-54.4,10-80.2,20.6c-1.2,0.5-2.3,1.1-3.5,1.7c2,0.6,3.6,0.3,5.3,0.1
		c28.2-3.7,56.3-8.8,84.7-11c67.1-5.2,134.3-10,201.5-13c57.2-2.5,114.6-2.6,171.9-3.2c106.8-1,213.6,2.1,320.3,8.4
		C1023,77.3,1087.4,83.4,1151.6,92.7z M465.7,287.1c51.5-4.1,103.1-8.2,154.6-12.2c-1.5-1.2-2.9-1.6-4.4-1.8
		c-5-0.5-9.9-1.1-14.9-1.3c-60.3-2.4-120.5-5.6-180.8-1.9c-17.3,1.1-34.6,2.4-51.2,7.9c-6,2-8.8,5.2-8.9,10.1
		c-0.1,5.3,2.4,8.7,8.7,10.7c7.5,2.3,15,4.7,22.6,6.1c35.1,6.5,70.7,9.5,106.3,10.6c63.6,2,127.3,3.5,190.9,3.6
		c78.6,0.1,157.2-2.8,235.4-12.1c12.9-1.5,25.6-4.1,37.5-9.7c3.6-1.7,6.6-4.1,6.5-8.6c0-4.4-2.7-7.2-6.3-8.8
		c-3.6-1.6-7.4-3.2-11.3-3.7c-19-2.5-37.9-5.4-57-6.6c-57-3.6-113.9,0.6-170.9,2.2c-6.2,0.2-12.4,1.1-18.5,1.7c0,0.5,0,1.1,0,1.6
		c52.3,4.3,104.6,8.7,156.9,13C729.2,290.7,597.5,291.1,465.7,287.1z"/>
	<path d="M599,194.6c-97.2-0.6-194.3,2.3-291.3,7.4c-63.5,3.3-127,7.6-190.5,12.1c-17.7,1.2-35.5,3.9-52.9,7.4
		c-23.3,4.8-44.1-10.1-52.7-23.2c-5.6-8.5-4.6-17.6,0.9-25.9C20.2,161,31.1,153,42.7,146c35.8-21.5,74.5-36,115.5-42.9
		c37.9-6.4,76.1-11.8,114.4-15c67.9-5.7,135.9-10,203.9-13.7c43.1-2.4,86.3-3.4,129.4-3.7c59.6-0.4,119.3-0.6,178.9,1.3
		c69.1,2.2,138.1,6.1,207.1,10.8c46.5,3.2,92.9,8.5,139.2,14c45.2,5.4,88.9,17,130.1,37.2c15.7,7.7,31.1,16.3,43.6,28.7
		c4.5,4.5,8.2,10.1,11.1,15.8c3.9,7.7,2.3,15.4-3.3,21.8c-10.1,11.5-23.3,18-37.5,23c-1.3,0.5-3,0.3-4.4,0
		c-40.8-8.1-82.1-11.4-123.6-13.7c-56.4-3.1-112.8-6.8-169.2-8.8c-77.3-2.8-154.6-4.7-231.8-6.1C697,193.9,648,194.6,599,194.6z
		 M664.3,99.6c-17.2-0.1-31.7,11.2-34.8,27.1c-2.8,14.2,5.4,28.4,20.1,34.7c19.1,8.1,41.1,0,48-17.6
		C705.7,122.7,688.4,99.7,664.3,99.6z M799.5,166.2c22.7,0.5,35.6-15.5,30.1-34.1c-5-16.9-19.4-28.9-36.9-30.9
		c-18.6-2.1-39.5,16.2-29.1,39.2C771.1,156.8,784.4,164.9,799.5,166.2z M527.3,166.1c19.3-0.2,34.9-11.7,39.9-28.7
		c4.2-14.4-2.5-28.2-16.5-33.7c-16.4-6.5-37.8,2.4-47.6,19.8c-5.4,9.7-6.5,19.6-0.5,29.4C508.3,162.4,517.1,166.6,527.3,166.1z
		 M394.2,168.7c18.4,0.1,37.7-14,43.1-31.6c5.6-18-5.8-33.7-23.9-33c-17.8,0.7-37.4,16-42.4,33.1
		C365.8,155.6,375.3,168.6,394.2,168.7z M936.9,169.8c17.4-0.1,27.5-13.1,22.3-30c-5.9-18.8-19.2-30.7-38.5-34.6
		c-19.6-3.9-33.2,11.5-28.1,30.8C897.4,154.4,917.9,169.9,936.9,169.8z M267.8,173.1c8.5-0.1,17.7-4.2,25.9-10.5
		c10.1-7.8,18.2-17.1,20.5-30.2c2.5-14.5-6.6-24.1-21.2-22.7c-14.3,1.4-25.8,8.2-35.4,18.6c-5.4,5.8-9.9,12.1-11.5,20.1
		C243.1,163.5,250.3,172.5,267.8,173.1z M1035.9,109.7c-13.6-0.3-21.3,6.9-21.4,18c0,3.3,0.3,6.8,1.5,9.8
		c7.4,18.9,21.3,30.5,40.9,35.2c3.9,0.9,8.3,0.6,12.3-0.2c11.6-2.1,17.7-11.8,14-23c-1.7-5.1-4.4-10.1-7.6-14.5
		C1065.3,120.6,1051,112.3,1035.9,109.7z M148.6,178.2c0.9-0.1,2.3-0.1,3.6-0.3c1-0.1,2-0.3,2.9-0.6c18.4-5.2,32-16.5,41.6-32.8
		c1.4-2.4,2.3-5.2,3-7.9c2.6-11.1-3.9-18.8-14.9-16.6c-22.4,4.6-39.5,17.4-50.2,37.6C128.5,168.8,135.3,178.3,148.6,178.2z
		 M1177.6,178.1c8,0,13.2-1.1,16.4-6.5c3-5.1,1.3-10-1.3-14.6c-10.8-18.8-26.5-31.3-47.6-36.7c-11.5-2.9-18.9,4.5-15.7,15.8
		c0.9,3.2,2.2,6.4,3.9,9.1c8.3,13.3,19.6,23.4,34,29.7C1171.3,176.7,1175.6,177.5,1177.6,178.1z M42.3,184.6c3.4-1.1,7-1.9,10.3-3.4
		c13.1-6,24-14.8,33.1-25.9c2.6-3.2,5.3-6.7,6.5-10.5c0.9-2.9,0.6-7.4-1.2-9.5c-1.5-1.7-6.3-2-9-1.1c-12.7,4.4-24.2,11.2-33.4,21.1
		c-4.8,5.2-9.2,11-12.6,17.2C32.5,178.8,35.7,184,42.3,184.6z M1282.8,183.9c7.3,0,10.5-4.6,8.5-10.3c-0.8-2.2-2.1-4.1-3.4-6
		c-10.6-15.1-24.8-25.8-41.6-33.1c-3.8-1.6-7.5-2.1-10.5,1.4c-2.9,3.4-2.3,7-0.3,10.7c0.4,0.7,0.9,1.4,1.3,2.1
		c9.8,14.6,22.6,25.7,38.6,32.9C1278.2,182.8,1281.3,183.4,1282.8,183.9z"/>
	<path d="M1241.9,232.9c-1.6,0.6-3.1,1.3-4.7,1.9c-30.5,10.9-62,18.2-93.8,23.7c-40.2,6.9-80.6,12.4-121,18.4
		c-11.9,1.8-23.8,3.1-35.7,4.5c-1.8,0.2-4.1-0.1-5.6-1c-10.5-7-22.2-9.8-34.5-10.7c-68.6-5.5-137.4-7.5-206.3-7.9
		c-98.2-0.6-196.3,0.2-294.4,3.1c-26.3,0.8-52.6,2.3-78.5,7.3c-7.2,1.4-13.9,5.1-20.9,7.5c-2.4,0.8-5.2,1.5-7.6,1.2
		c-30.8-3.6-61.6-6.8-92.3-11.2c-45.3-6.5-90.4-14.8-134.6-27.1c-7.8-2.2-15.5-5-23.2-7.7c-1.7-0.6-3.2-1.5-4.7-3.3
		c6.3-0.9,12.6-2.1,19-2.6c50.5-3.9,101-8.2,151.5-11.4c114.9-7.2,230-10.5,345.2-11.3c37.3-0.3,74.7,0,112,0.4
		c48.1,0.5,96.3,0.8,144.4,2.3c70.1,2.2,140.2,4.9,210.3,8.6c52.7,2.8,105.4,7.5,158,11.4c5.7,0.4,11.4,1.2,17.1,1.9
		C1241.7,231.5,1241.8,232.2,1241.9,232.9z"/>
	<path d="M1151.6,92.7c-64.2-9.2-128.6-15.4-193.3-19.2C851.6,67.2,744.9,64,638,65.1c-57.3,0.6-114.7,0.6-171.9,3.2
		c-67.2,3-134.4,7.9-201.5,13c-28.3,2.2-56.5,7.2-84.7,11c-1.6,0.2-3.3,0.4-5.3-0.1c1.2-0.6,2.3-1.2,3.5-1.7
		c25.7-10.6,52.9-15.9,80.2-20.6c15.2-2.6,30.7-4.2,46-6.1c5.3-0.6,8.8-2.6,10.5-8.2c2.7-8.9,9.3-14.4,18.3-15.8
		c23.8-3.9,47.6-8.4,71.6-10.8C517,17.6,629.6,15.7,742.3,18.3c51.6,1.2,103.2,4.7,154.7,8.4c28.4,2,56.6,6.5,84.8,10.3
		c6.5,0.9,12.8,3.4,19.1,5.6c5.3,1.8,9,5.2,10.4,11.1c1.6,6.8,6.8,9.3,13.2,10.3c24.2,3.8,48.5,7,72.4,12
		c16.9,3.5,33.2,9.5,49.8,14.5C1148.4,90.9,1150,91.9,1151.6,92.7z"/>
	<path d="M465.7,287.1c1,22.6,394.3,21.3,395.3,0.7c-0.9-10.8-62.3-10.1-156.9-13c0-0.5,0-1.1,0-1.6c6.2-0.6,12.4-1.6,18.5-1.7
		c56.9-1.6,113.9-5.8,170.9-2.2c19.1,1.2,38,4.1,57,6.6c3.9,0.5,7.7,2.1,11.3,3.7c3.6,1.6,6.3,4.5,6.3,8.8c0,4.5-2.9,6.9-6.5,8.6
		c-11.9,5.6-24.6,8.2-37.5,9.7c-78.2,9.3-156.8,12.2-235.4,12.1c-63.6-0.1-127.3-1.6-190.9-3.6c-35.6-1.1-71.2-4.1-106.3-10.6
		c-7.7-1.4-15.2-3.8-22.6-6.1c-6.3-2-8.8-5.4-8.7-10.7c0.1-4.9,2.9-8.1,8.9-10.1c16.6-5.6,33.8-6.9,51.2-7.9
		c60.3-3.8,120.6-0.6,180.8,1.9c5,0.2,10,0.8,14.9,1.3c1.5,0.1,2.9,0.5,4.4,1.8C568.8,278.9,468,273.7,465.7,287.1z"/>
	<path fill="#FFFFFF" d="M664.3,99.6c24.1,0.1,41.4,23.1,33.2,44.1c-6.9,17.6-28.9,25.7-48,17.6c-14.6-6.2-22.9-20.5-20.1-34.7
		C632.6,110.8,647.1,99.5,664.3,99.6z"/>
	<path fill="#FFFFFF" d="M799.5,166.2c-15.2-1.3-28.4-9.3-35.9-25.8c-10.4-22.9,10.5-41.3,29.1-39.2c17.5,2,31.9,14,36.9,30.9
		C835.1,150.7,822.2,166.7,799.5,166.2z"/>
	<path fill="#FFFFFF" d="M527.3,166.1c-10.2,0.5-18.9-3.7-24.7-13.3c-5.9-9.8-4.9-19.7,0.5-29.4c9.8-17.4,31.1-26.2,47.6-19.8
		c14,5.5,20.7,19.3,16.5,33.7C562.2,154.3,546.6,165.8,527.3,166.1z"/>
	<path fill="#FFFFFF" d="M394.2,168.7c-19-0.1-28.5-13-23.1-31.5c5-17.1,24.6-32.4,42.4-33.1c18.1-0.7,29.5,15,23.9,33
		C431.9,154.7,412.7,168.7,394.2,168.7z"/>
	<path fill="#FFFFFF" d="M936.9,169.8c-19,0.1-39.5-15.4-44.3-33.7c-5.1-19.3,8.5-34.7,28.1-30.8c19.3,3.9,32.6,15.7,38.5,34.6
		C964.4,156.7,954.3,169.7,936.9,169.8z"/>
	<path fill="#FFFFFF" d="M267.8,173.1c-17.6-0.6-24.7-9.6-21.6-24.8c1.6-8,6.1-14.3,11.5-20.1c9.6-10.3,21-17.2,35.4-18.6
		c14.6-1.4,23.7,8.3,21.2,22.7c-2.2,13.1-10.3,22.5-20.5,30.2C285.5,168.9,276.4,173,267.8,173.1z"/>
	<path fill="#FFFFFF" d="M1035.9,109.7c15.1,2.5,29.4,10.8,39.8,25.3c3.2,4.4,5.9,9.4,7.6,14.5c3.7,11.2-2.4,20.9-14,23
		c-4,0.7-8.4,1.1-12.3,0.2c-19.6-4.7-33.5-16.3-40.9-35.2c-1.2-3-1.5-6.5-1.5-9.8C1014.6,116.7,1022.4,109.4,1035.9,109.7z"/>
	<path fill="#FFFFFF" d="M148.6,178.2c-13.2,0.1-20-9.3-14-20.6c10.7-20.2,27.8-33,50.2-37.6c11.1-2.3,17.5,5.5,14.9,16.6
		c-0.6,2.7-1.6,5.5-3,7.9c-9.6,16.3-23.3,27.6-41.6,32.8c-1,0.3-1.9,0.5-2.9,0.6C150.8,178,149.5,178.1,148.6,178.2z"/>
	<path fill="#FFFFFF" d="M1177.6,178.1c-2.1-0.6-6.4-1.4-10.3-3.1c-14.4-6.3-25.7-16.4-34-29.7c-1.7-2.8-3-6-3.9-9.1
		c-3.2-11.4,4.2-18.8,15.7-15.8c21.1,5.4,36.9,17.8,47.6,36.7c2.6,4.6,4.4,9.5,1.3,14.6C1190.9,177,1185.6,178.1,1177.6,178.1z"/>
	<path fill="#FFFFFF" d="M42.3,184.6c-6.6-0.5-9.8-5.7-6.3-12.1c3.4-6.2,7.8-12,12.6-17.2c9.2-9.9,20.7-16.7,33.4-21.1
		c2.7-0.9,7.5-0.7,9,1.1c1.8,2.1,2.1,6.6,1.2,9.5c-1.2,3.8-3.8,7.4-6.5,10.5c-9.1,11.1-20.1,19.9-33.1,25.9
		C49.3,182.7,45.7,183.5,42.3,184.6z"/>
	<path fill="#FFFFFF" d="M1282.8,183.9c-1.5-0.5-4.6-1.1-7.5-2.4c-16-7.2-28.8-18.3-38.6-32.9c-0.5-0.7-0.9-1.4-1.3-2.1
		c-2-3.6-2.6-7.3,0.3-10.7c3-3.5,6.7-3,10.5-1.4c16.9,7.3,31,18,41.6,33.1c1.3,1.9,2.7,3.9,3.4,6
		C1293.3,179.3,1290.1,183.8,1282.8,183.9z"/>
</g>
</svg>
