<?xml version="1.0" encoding="utf-8"?>
<!-- Generator: Adobe Illustrator 18.0.0, SVG Export Plug-In . SVG Version: 6.00 Build 0)  -->
<!DOCTYPE svg PUBLIC "-//W3C//DTD SVG 1.1//EN" "http://www.w3.org/Graphics/SVG/1.1/DTD/svg11.dtd">
<svg version="1.1" id="Layer_1" xmlns="http://www.w3.org/2000/svg" xmlns:xlink="http://www.w3.org/1999/xlink" x="0px" y="0px"
	 viewBox="0 0 692 668" enable-background="new 0 0 692 668" xml:space="preserve">
<g>
	<path fill="#AF112D" d="M565,115.5c0.3,0,0.6-0.1,0.9-0.1c0.1,1.9,0.2,3.6-2.1,4.4c-0.7,0.2-1.3,1.6-1.3,2.4c0,1.3,1.4,1.2,2.3,1.1
		c2-0.2,2.6,1.2,3.7,2.5c2.8,3.4,2.5,8.5,6.2,11.1c3.9,2.7,2.9,8.1,6.8,10.8c1.4,1,0.1,4.3-1,4.8c-5.8,2.5-2.1,5.8-1.3,9
		c0.8,3,2.2,2,3.8,0.8l0,0c1,2.2,2.4,4,4.7,5c8.7,16.3,15.1,33.5,20.3,51.3c4.2,14.4,6.4,29.1,8.9,43.8c0.1,0.6,0.1,1.3,0.2,1.9
		c0.4,5.7,0.7,11.3,1.1,17c0,4.3,0,8.7,0,13l-0.1,0.1c-20.8,0-41.7,0-62.5,0c-19.8,0-39.6-0.2-59.5-0.3
		c-1.4-57.9-26.7-102.4-75-134.1c-1.4-0.9-3.7-1.2-3.4-3.7c6.2-10,12.2-20.1,17.6-30.5c2.2-3.4,4.3-6.8,6.5-10.1
		c1,2.3-1,3.7-1.8,5.4c-2.1,4.3-0.2,7.9,3.1,9.3c5.6,2.3,9.6,6.7,14.5,9.8c9.6,6.3,17.4,15.1,25.4,23.5c3.6,3.7,8.1,6.9,10.5,11.3
		c2.3,4.3,4.5,8.4,7.8,12.1c5.7,6.3,8.6,14.4,12.5,21.8c1.4,2.6,3.9,4.8,4.1,7.9c0.3,5.8,6,10.1,4.5,16.4c-0.1,0.4,0.7,1,1.2,1.5
		c2.1,2.2,2.8,4.8,2.5,7.8c-0.2,1.7-0.1,3.6,1.1,4.7c3.5,3.2,2.9,7.2,2.9,11.1c0,2-0.2,3.9,0.6,5.9c3.4,8.2,3.9,17.1,2.8,25.6
		c-0.6,4.2,0.7,3.4,3,3.4c19.2,0,38.3,0,57.5,0c1.1,0,2.3,0.3,3.1-0.4c-0.7-8.3-4.1-16.1-3-24.3c1-7.7-0.9-15.3-2.7-22.3
		c-2.8-11.2-4.2-22.8-9-33.5c-2.2-5-3.4-10.6-5.7-15.6c-4-9.3-8.5-18.3-12.7-27.5c-3.3-7.1-8.6-12.9-12.5-19.6
		c-2-3.5-5.6-7.3-3-11.6c2.5-4.1,6.1-7.5,7.6-12.3c0.4-1.4,1.3-2.6,2.9-3.1c1.1-0.4,0.5-1.3-0.2-1.8
		C560.9,119.4,562.9,117.5,565,115.5z"/>
	<path fill="#DDDDDD" d="M470,553.4c-15.7,4.6-20.6,18.1-25.9,31.3c-4.4,10.9-8.7,21.9-12.9,32.9c-6.5,17.1-19.9,25.9-36.7,30.8
		c-14.9,4.4-30.2,5.8-45.5,7.2c-11.3,1-22.6,1.1-33.9,0.6c-31.1-1.3-61.6-5.6-91.2-16.2c-12.5-4.5-24.4-9.5-34.1-18.8
		c-3-2.9-5.7-6-8-9.4c-10.6-15.4-17.6-32.8-25.3-49.7c-11.4-25.3-23.8-50.1-38.9-73.5c-3.3-5.1-6.6-10.3-9.9-15.5
		c1.2-1.2,2.4-2.4,3.5-3.5c0.9-0.4,1.7-0.8,2.6-1.2c1.4,0.4,1.9,1.7,2.6,2.8c6,9.2,11.4,18.7,17.2,28c8.7,13.8,16,28.3,22.9,43
		c8.6,18.3,16.4,37,25.8,55c6.9,13.2,16.3,23.6,30.3,29.7c34.2,14.8,70.3,20.1,107.1,21.5c8.3,0.3,16.6-0.3,24.9-0.7
		c16.2-0.7,32-2.9,47.6-7.3c14.9-4.1,26-12.3,31.9-27.3c4.4-11.1,8.3-22.4,12.9-33.4c4.4-10.4,8.9-20.7,17.9-28.3
		c4.4-1.2,7.7-5.7,13-4l0,0c0.1,0.8,0.2,1.5,1.1,1.9l0,0c0.2,0.3,0.5,0.6,0.7,1c0.3,0.2,0.4,0.5,0.3,0.8
		C470,551.9,470,552.7,470,553.4z"/>
	<path fill="#DDDDDD" d="M591.9,151.4c10,11.5,20,23,30,34.6c12.9,14.9,26.2,29.6,37.5,45.8c12,17.2,20.5,36.1,22.4,57.3
		c1.1,12.1-0.5,24.1-3.1,36.1c-4.9,22.6-15.4,42.7-27.3,62.1c-14.8,24.1-31.7,46.8-52.8,65.8c-14.1,12.8-29,24.8-43.4,37.3
		c-7.7,6.6-15.2,13.3-22.7,20.1c-6.3,5.7-12.8,11-19.6,16c-1.3,1-2.6,2.2-4.4,2.1c-1.1-0.8-2.1-1.7-2.5-3.1
		c-0.1-0.9-0.2-1.7-1.4-1.8c0,0,0,0.2,0,0.2c0.1-0.2,0.1-0.4,0.2-0.5c7.3-5.8,13.3-13.5,22.7-16.6c0.9-0.3,2.4-1.3,2.1-3
		c-0.2-1.2,0.4-2,1.3-2.4c4.5-1.9,6.7-5.9,9.1-9.7c2.5-0.7,4.5-2.2,6.2-3.9c8.1-7.9,17.3-14.4,25.8-21.9c5.2-4.6,11-8.5,15.1-14.2
		c9.2-6.5,16.3-15,23.9-23.1c2.6-1.2,3.4-3.9,5-6c0.4-0.3,0.9-0.5,1.2-0.9c7.7-10.7,15.7-21.2,23-32.1c4.4-6.6,9.1-13.3,11.8-20.9
		c1.3-0.6,1.9-1.6,2-3.1c3.3-3.9,4.7-8.7,6.7-13.3c3.4-8,7.7-15.8,8.4-24.7c1.1-0.8,0.9-1.9,0.9-3c1.6-3.8,2.3-7.8,2-11.9
		c1.1-0.8,0.9-2,0.9-3.1c0.6-5.6,1.5-11.3,0.9-17c-0.3-2.7-0.6-5.3-1-8c-0.3-1.3-0.6-2.7-1-4c0-2.2-0.6-4.2-1.9-6.1
		c0-0.3,0-0.6-0.1-0.9c-0.2-1.4,0.4-3-1-4c-1-3.5-2.2-6.9-3.7-10.2c-4.3-9.4-9.8-18.2-15.5-26.8c-0.6-1.4-1.6-2.3-2.9-3
		c-0.7-2.2-2.3-3.6-4-5c-1-2-1.9-4-4-5c-3.7-5.5-7.6-10.9-12.9-15c-0.9-3.3-3.6-5-6-7c-0.3-0.3-0.6-0.7-1-1
		c-3-6.2-8.3-10.5-12.5-15.8c-6.8-8.7-15.1-16.1-21.6-25.1C587,153.6,589.4,152.3,591.9,151.4z"/>
	<path fill="#DDDDDD" d="M82,436.6c0.3-4.7-3.4-7.5-5.6-10.8c-14-21.2-27.3-42.9-38.9-65.5c-10-19.7-18.3-40.2-22.1-62.2
		c-1.8-10.5-1.9-21.1-0.4-31.7c3.3-23,9.9-45,20.4-65.8c8.2-16.1,18.9-30.4,31.4-43.4c7.1-7.3,14.5-14.2,21.1-21.9
		c5.1-5.9,11.3-10.8,16.9-16.2c7.5-7.2,13.4-15.9,21.4-22.8c8.1-6.9,16.9-12.8,24.9-19.9c1.5-1.3,3.2-2.4,4-4.4
		c0.3,0,0.6,0.1,0.8,0.3c0.3,0.4,0.6,0.8,0.9,1.2c0,0,0,0,0,0c0.3,0.6,0.5,1.2,1,1.7c3,2.7,2.8,4.7-0.7,7.1
		c-5,3.4-9.5,7.5-14.2,11.3c-1.2,0-2.2,0.1-3.1,1.1c-9.3,9.3-19.7,17.6-26.9,28.8c-10.1,8.4-19.2,17.9-28.1,27.5
		c-8.6,9.3-18.2,17.6-25.9,27.6C42.5,200.4,31.8,225,26,251.8c-2.6,12-5,24.2-3.7,36.4c1.7,15.2,6,29.8,11.7,44
		C44.3,358,58.4,381.6,73,405c5.6,9,11.4,17.9,17,26.8c-1.3,1-2.7,1.9-4,2.9C84.7,435.3,83.4,435.9,82,436.6z"/>
	<path fill="#DDDDDD" d="M565,115.5c-2.1,1.9-4.2,3.9-6.3,5.8c-0.6,0-1.1,0.1-1.7,0.1c-2.8-6.3-8.2-10.5-12-16
		c1.1-0.9,0.4-1.7-0.1-2.5c-4-6.5-8.1-13-12-19.5c-11.1-18.4-26.1-32.5-45.8-41.3c-11.8-5.3-24.3-6.2-37.1-5.6
		c-2.3,0.3-4.6,0.6-6.8,1c-11.7,2-23.3,4-34.2,9c-1.5,0.2-3,0.3-4.4,0.7c-20.3,6.2-40.4,13.1-61.8,14.5c-3,0.2-3.9,1.5-3.9,4.6
		c0.2,20.6,0.1,41.3,0.1,61.9c0,1.8,0.5,3.7-0.6,5.4c-0.1-2-0.3-3.9-0.3-5.9c-0.1-16.7-0.2-33.4-0.3-50.1c0-1.3,0-2.7,0-4
		c0-1.3,0-2.6-0.1-4c0.4-7.1,0.4-7.1-6.7-7.3c-9-0.3-17.9-1.5-26.5-4.2c-11.1-3.4-22.1-7.1-33.2-10.7c-9.1-4-18.8-6-28.5-8.2
		c0-0.5,0.1-1.3,0-1.3c-4.4-0.5-8.9-1.7-13.2-1.1c-9.3,1.2-18.3,4-26.6,8.7c-3.1,1.8-5.7,4.6-9.5,5.2l0.1,0.1
		c0.9-2.8-3.6-5.1-0.9-8.1C206.8,32,222.6,29,239.4,30.6c2.9,0.3,5-1.7,7.6-1.1c0.1,0.7-3.1,0.9-0.5,2c2.1,0.8,4.5,1,6.7,1.5
		c11.8,2.5,22.8,7.5,34.5,10.7c0,0,0.1-0.1,0.1-0.1c1.1,1.2,2.6,1.5,4.1,1.7l0.4,0.2l0.4,0c0.9,0.7,1.9,1.1,3,1
		c6.1,2.7,12.5,4.3,19,5.5c7.8,1.5,15.6,3,23.5,1.3c8.9,0.9,17.3-1.7,25.8-3.5c8.7-1.9,17.2-4.3,25.8-6.5c1.2-0.6,2.2-1.5,3.5-1.8
		c12.2-3.4,24.4-6.8,36.7-10.2c10-1.8,19.9-3,30.1-3c20.2,0,37.2,8.1,53.1,19.8c15.9,11.8,25.2,28.8,35.6,45c3.9,6,7.7,12,11.6,18
		C561.6,113,562.8,114.8,565,115.5z"/>
	<path fill="#AF112D" d="M287.8,43.7c-11.6-3.1-22.7-8.2-34.5-10.7c-2.3-0.5-4.6-0.7-6.7-1.5c-2.7-1,0.5-1.2,0.5-2
		c20.5-6.6,41.4-11.5,62.8-13.5c9.3-0.9,18.6-1.5,27.9-1.4c0.7,10,0.4,19.9,0.1,29.9c-0.9-0.7-1-1.7-0.9-2.7
		c0.3-4.5-1.2-5.9-5.9-4.6c-3.1,0.9-6.6,0.1-9.9,0.4c-7.3,0.7-14.7,1.4-22,2.7C297.4,40.5,287.4,42.1,287.8,43.7z"/>
	<path fill="#EBEAEA" d="M430.1,31.4c-12.2,3.4-24.5,6.7-36.7,10.2c-1.2,0.3-2.3,1.2-3.5,1.8c-0.1-1.9-1.5-1.7-2.8-1.9
		c-14.8-2.3-29.6-4.5-44.6-4c-1.1,0-2.2-0.5-3.3-0.8c0-7.4-0.1-14.8-0.1-22.2c26.8,0.2,53.1,4,78.8,11.5
		C422,27.2,426.6,28.1,430.1,31.4z"/>
	<path fill="#BE0D31" d="M506,525.5c0.4,1.4,1.4,2.3,2.5,3.1c1.6,2,1.7,3.4-0.7,5.2c-9.9,7.5-20.2,14.6-30.8,21.1
		c-2.7,1.7-4.1,1.3-5.3-1.4c-0.5-0.8-1-1.6-1.6-2.3c0.1-0.3,0-0.6-0.3-0.8c-0.2-0.3-0.5-0.6-0.7-1c0,0,0,0,0,0
		c-0.4-0.6-0.7-1.3-1.1-1.9c0,0,0,0,0,0c-0.1-0.6-0.3-1.2-0.4-1.8c1.9-0.4,3.7-0.3,5.4,0.8c0.1,0.1,0.3,0.1,0.4,0.2
		c-0.1-0.1-0.3-0.2-0.4-0.2c0-1.9,0.2-3,2.8-2.7c4,0.5,7.2-0.5,10.2-4.3c2.2-2.9,4.6-7.6,10-6c0.1,0.7,0.1,1.6,1.2,1.5
		c0.1,0,0.3-0.2,0.3-0.3c0.1-1.1-0.8-1.1-1.5-1.2c1-4.4,2.5-8.6,6.8-10.9c0.6,0.4,1.2,0.8,1.8,1.3c0,0,0-0.2,0-0.2
		C504.8,524.5,505.2,525.1,506,525.5z"/>
	<path fill="#BE0D31" d="M591.9,151.4c-2.5,1-4.9,2.2-7,4.1c-0.9,0.4-1.8,0.7-2.7,1.1c-0.5,0.1-1.2-0.4-1.3,0.6
		c0,0.1,0.8,0.2,1.2,0.3c2.3,3.1,4,6.5,5.5,10.1c-2.3-1-3.6-2.8-4.7-5c0.1-0.2,0.1-0.3,0.2-0.5c-0.1,0.1-0.2,0.3-0.3,0.4
		c-1.6,1.2-3.1,2.2-3.8-0.8c-0.8-3.2-4.6-6.5,1.3-9c1.2-0.5,2.5-3.8,1-4.8c-3.9-2.7-2.9-8.1-6.8-10.8c-3.7-2.6-3.4-7.7-6.2-11.1
		c-1.1-1.3-1.7-2.7-3.7-2.5c-0.9,0.1-2.3,0.2-2.3-1.1c0-0.8,0.6-2.2,1.3-2.4c2.3-0.8,2.3-2.6,2.1-4.4c0,0,0,0,0,0
		c1.4,0.7,2.7,1.4,4.1,2c8.5,9.7,15.1,20.6,21.8,31.5C592.3,149.8,592.2,150.5,591.9,151.4z"/>
	<path fill="#BE0D31" d="M156,72.3c-0.3-0.1-0.6-0.2-0.8-0.3c-2.6-2.6-2.4-4.4,0.8-6.8c10.7-7.9,21.3-15.7,33-22
		c1.6,2.4,3.3,4.9,4.9,7.3c0,0-0.1-0.1-0.1-0.1c0,0.3,0,0.6-0.1,0.9c-4.8,1.5-7,7.2-12.1,7.8c-5.5,0.7-9.6,4-13.6,7.3
		c-2.4,2.1-4.3,4.1-7.5,1.1c-1.1,2.3,1.8,6.8-3.6,5.8c0,0,0,0,0,0C156.8,73,157.5,71.7,156,72.3z"/>
	<path fill="#BE0D31" d="M82,436.6c1.3-0.6,2.7-1.2,4-1.8c1.9,0.5,3.2,0.9,4.5,3.3c1.3,2.4,0,6.4,3.1,7.2c3.4,0.9,4.4,3.9,6.7,5.6
		c3.5,2.6,0,5.4,0,7.9c1.8,0.5,3.3-2.7,4-0.5c1.6,4.3,5.7,6.9,6.9,11.4c-1.2,1.2-2.4,2.4-3.5,3.5c-1.6,1.1-2.7,0.9-4-0.8
		c-8-10.2-15.3-20.9-21.9-32C80.9,438.8,80.4,437.7,82,436.6z"/>
	<path fill="#DDDDDD" d="M339,14.5c0,7.4,0.1,14.8,0.1,22.1c-0.5,4.9,0.7,10-0.8,14.8c-0.2-2.3-0.3-4.7-0.5-7
		c0.2-10,0.5-19.9-0.1-29.9C338.2,14.5,338.6,14.5,339,14.5z"/>
	<path fill="#EBEAEA" d="M193.9,50.6c-1.6-2.4-3.3-4.9-4.9-7.3c1.1-1.3,2.6-0.7,4-0.8C190.3,45.5,194.8,47.7,193.9,50.6z"/>
	<path fill="#AF112D" d="M570,117.4c-1.4-0.7-2.7-1.4-4.1-2C569.1,112.6,568.9,116.4,570,117.4z"/>
	<path fill="#EBEAEA" d="M470.1,551.2c0.5,0.8,1,1.6,1.6,2.3c-0.5,0-1.1,0-1.6-0.1C470,552.7,470,551.9,470.1,551.2z"/>
	<path fill="#BE0D31" d="M557.1,121.4c0.6,0,1.1-0.1,1.7-0.1c0.8,0.5,1.4,1.4,0.2,1.8c-1.6,0.6-2.5,1.7-2.9,3.1
		c-1.5,4.8-5.1,8.2-7.6,12.3c-2.7,4.3,1,8.1,3,11.6c3.9,6.7,9.2,12.5,12.5,19.6c4.2,9.2,8.7,18.2,12.7,27.5
		c2.2,5.1,3.4,10.6,5.7,15.6c4.8,10.7,6.2,22.3,9,33.5c1.8,7,3.7,14.6,2.7,22.3c-1.1,8.3,2.2,16.1,3,24.3c-0.8,0.6-2,0.4-3.1,0.4
		c-19.2,0-38.3,0-57.5,0c-2.2,0-3.5,0.9-3-3.4c1.1-8.5,0.5-17.3-2.8-25.6c-0.8-2-0.6-3.9-0.6-5.9c-0.1-4,0.6-8-2.9-11.1
		c-1.2-1.1-1.3-3-1.1-4.7c0.3-3-0.4-5.6-2.5-7.8c-0.5-0.5-1.3-1.1-1.2-1.5c1.5-6.3-4.2-10.6-4.5-16.4c-0.1-3.1-2.7-5.3-4.1-7.9
		c-4-7.4-6.9-15.4-12.5-21.8c-3.3-3.7-5.5-7.8-7.8-12.1c-2.3-4.4-6.9-7.6-10.5-11.3c-8-8.4-15.8-17.2-25.4-23.5
		c-4.8-3.2-8.8-7.6-14.5-9.8c-3.3-1.4-5.2-5-3.1-9.3c0.8-1.7,2.8-3.1,1.8-5.4c0,0,0-0.3,0-0.3l0.2-0.1c4.5-2,5.5-6,6-10.3
		c2.2-4.9,4.9-9.4,7.9-13.8c2.3-0.1,2.2-1.5,1.9-3.2l0,0.1c0.7-0.2,0.9-0.6,0.6-1.3l0-0.2c4.3-1.7,5.1-5.5,5.6-9.4l0,0
		c2.2-0.1,2.1-1.6,1.8-3.2l0,0.1c0.7-0.2,0.9-0.6,0.6-1.3l0-0.1c2-0.4,3.8-0.6,5.2,1.5c0.9,1.3,2.4,2.3,3.9,2.9
		c6.2,2.6,11.5,6.4,16,11.4c0.9,1,1.9,2.6,3,0.9c4.2-6.5,3.9,1.5,6,1.7c-0.6,6.1,5,8.5,8.2,10.9c11.7,8.6,19.6,20.6,29.8,30.5
		c2.2,2.1,2.9,2.6,5.3,0.4C548.2,129.2,551.4,123.8,557.1,121.4z"/>
	<path fill="#FDFDFD" d="M455.9,91.4c-3,4.4-5.7,9-7.9,13.8c-2.5,3.1-4.3,6.6-6,10.3l-0.2,0.1c0,0,0,0.3,0,0.3
		c-2.2,3.4-4.3,6.8-6.5,10.1c-3.3-3.6-7.9-5.2-12-7.3c-9.4-4.8-19.5-7.9-29.6-11.1c-16.2-5.1-32.8-7.5-49.7-8.2
		c-3.1-0.1-4,1.1-4,4.1c0.1,8.1,0.3,16.3,0,24.4c-0.2,4.9-0.1,9.1,6.1,9.5c-3.3-0.9-3.3-0.9-8-0.9l0.1-0.1c0.7-0.2,0.9-0.5,0.3-1.1
		c0-0.6,0-1.3,0-1.9c1.1-1.7,0.6-3.6,0.6-5.4c0-20.6,0.1-41.3-0.1-61.9c0-3.1,0.9-4.4,3.9-4.6c21.4-1.4,41.5-8.3,61.8-14.5
		c1.4-0.4,2.9-0.5,4.4-0.7c0.4,0.3,0.7,0.8,1.1,0.9c16.5,5,32.4,11.2,47.8,19.1c3,1.6,5.6,4.4,9.5,4.1c-0.3,0.8-0.6,1.5-0.9,2.3
		c0,0,0,0.1,0,0.2c-0.2,0.4-0.4,0.9-0.6,1.3c0,0,0-0.1,0-0.1c-1,0.8-1.6,1.9-1.8,3.2c0,0,0,0,0,0c-2.3,2.9-4,6.1-5.6,9.4
		c0,0,0,0.2,0,0.2c-0.2,0.4-0.4,0.8-0.6,1.3c0,0,0-0.1,0-0.1C456.7,89,456.1,90.1,455.9,91.4z"/>
	<path fill="#EBEAEA" d="M618,306.4c-0.5,23.5-4.5,46.5-11.3,68.9c-3.7,12.1-8.3,23.9-13.3,35.5c-1.6,3.6-3.2,7.4-5.5,10.9
		c-1.5,2.3-3,4.8-2.9,7.8c-2.2,0.8-3.8,2.3-5.1,4.3c-5.9-3.1-11.7-6.3-17.6-9.4c-0.5-0.5-1.1-1.1-1.6-1.6c2.2-0.9,3.1-3,4-4.9
		c6.3-12.6,12.3-25.3,16.9-38.6c3.5-9.8,6-19.9,8.4-30.1c3.7-15.5,4.6-31.4,5.9-47.2c0.4-4.7-0.9-6.5-5.5-6.5
		c-17.3,0-34.6,0.1-51.9-0.1c-4.3,0-5.6,1.8-5.5,5.6c0,5.8-0.1,11.6-0.9,17.4c-2.2,16.5-5.9,32.5-12.1,47.9c-3.6,8.8-7.9,17.3-12,26
		c-11-5.7-21.7-11.9-32.1-18.5c1-2.8,2-5.5,3.1-8.3c1.9-1.8,2.9-4.1,3.6-6.4c2.7-9,6.9-17.5,9-26.9c2.1-9.2,3-18.5,4.4-27.7
		c0.4-2,2.2-9.2,0.1-10.2c19.8,0.1,39.6,0.2,59.5,0.3c20.8,0,41.7,0,62.5,0C618,298.5,618,302.5,618,306.4z"/>
	<path fill="#EBEAEA" d="M346,137.4c-6.3-0.5-6.3-4.6-6.1-9.5c0.4-8.1,0.2-16.3,0-24.4c-0.1-3,0.9-4.2,4-4.1
		c16.9,0.7,33.4,3.1,49.7,8.2c10.1,3.2,20.2,6.3,29.6,11.1c4.2,2.1,8.7,3.7,12,7.3c-5.4,10.4-11.4,20.5-17.6,30.5
		c-2.2-0.4-4.4-0.7-6.7-1.1c-1.6-3-5-3-7.6-4.3c-15-7.2-30.6-12.2-47.4-12.7c-0.7-1.1-1.9-0.9-3-1
		C350.7,137.5,348.3,137.5,346,137.4z"/>
	<path fill="#AF112D" d="M196.1,536.2c-21.6-13.3-41.6-28.6-59.2-46.9c-6.4-6.7-12.7-13.6-18.3-21c-1.9-2.5-3.3-2.2-4.8,0.2
		c-0.9,0.4-1.7,0.8-2.6,1.2c-1.2-4.4-5.3-7.1-6.9-11.4c-0.8-2.1-2.3,1.1-4,0.5c0-2.6,3.6-5.4,0-7.9c-2.3-1.7-3.3-4.7-6.7-5.6
		c-3.1-0.8-1.9-4.8-3.1-7.2c-1.2-2.3-2.5-2.8-4.5-3.3c1.3-1,2.7-1.9,4-2.9c3.2-0.6,2.8-2.3,1.6-4.6C87,419,83,410.5,79.4,401.7
		C72,383.2,65.8,364.3,63,344.5c-0.4-5,6.5-5.8,6.1-10.8c0.3,0,0.7,0,1-0.1c4.9-0.6,7.6-4.2,6.3-8.9c2.2,2,4,2.3,4.7-1.5
		c1.7,3.6,0.3,6.7,1.4,9.5c2,5.2,3.7,10.5,3.5,16.1c-0.1,2.2,0.2,4.3,1.3,6.2c3.5,6.2,3.6,13.4,6.5,19.9c3.9,8.5,4.8,18,9.9,26.2
		c3.5,5.6,6.3,11.6,8.6,17.8c2.3,6.1,7.9,10,10.5,16.3c2.6,6.3,7.4,12,12,17.2c5.8,6.6,10.5,14.2,17.3,20c2.2,1.9,3.1,5.3,6.8,5.8
		c0.8,0.1,1.3,1.8,2,2.7c1,1.3,1.8,3,3.1,3.8c5.8,3.4,10.6,7.9,15.3,12.6c4.6,4.5,10.2,8.3,15.6,11.2c4.2,2.2,7.6,4.3,9.8,8.4
		c2.2-1.7,4.2-3.1,6.7-3.6c-0.6,1.3-1.2,2.7-1.7,4c-3.3,5.5-6.6,11-9.8,16.5C199.2,535.6,198.4,537.3,196.1,536.2z"/>
	<path fill="#EBEAEA" d="M455,551.4c-0.1-0.6-0.2-1.2-0.3-1.8c3.1-1.6,6.2-3,9.2-4.7c1.6-0.9,2.7-0.6,3.7,0.8
		c0.1,0.6,0.3,1.2,0.4,1.8C462.7,545.8,459.4,550.3,455,551.4z"/>
	<path fill="#EBEAEA" d="M468,547.5c0.4,0.6,0.7,1.3,1.1,1.9C468.2,549,468.1,548.3,468,547.5z"/>
	<path fill="#EBEAEA" d="M469,549.4c0.2,0.3,0.5,0.6,0.7,1C469.5,550,469.3,549.7,469,549.4z"/>
	<path fill="#EBEAEA" d="M539.9,489.3c0,0.7,0.1,1.5,0.1,2.2c-2.4,3.8-4.6,7.9-9.1,9.7c-0.9,0.4-1.5,1.2-1.3,2.4
		c0.3,1.7-1.2,2.7-2.1,3c-9.4,3.1-15.3,10.8-22.7,16.6c-0.1,0.1-0.1,0.3-0.2,0.5c-0.6-0.4-1.2-0.8-1.8-1.3c0.1-0.7,0.3-1.3,0.4-2
		c1.2-0.3,2.1-1,2.8-2.1l0,0c0.4-0.3,0.8-0.6,1.2-0.9c1.5-1,3-2,4.4-3.1C521.7,506.8,530.7,497.9,539.9,489.3z"/>
	<path fill="#EBEAEA" d="M506,525.5c-0.8-0.3-1.2-1-1.4-1.8C505.8,523.7,505.9,524.6,506,525.5z"/>
	<path fill="#AF112D" d="M96.3,155.3c-0.7-1.9,0.7-3.1,1.6-4.4c5.3-8.2,10.7-16.3,16.1-24.5c9.2-11.4,18.8-22.5,29.1-33
		c4.7-3.8,9.3-7.8,14.2-11.3c3.5-2.4,3.7-4.4,0.7-7.1c-0.5-0.4-0.7-1.1-1-1.7c5.4,1.1,2.4-3.5,3.6-5.8c3.1,3,5,0.9,7.5-1.1
		c4-3.3,8-6.6,13.6-7.3c5.2-0.7,7.4-6.3,12.1-7.8c1.1,2.2,2.5,1.9,4.4,0.8c3.8-2.3,7.9-4.2,11.7-6.5c10.3-6.4,21.1-9.2,33.1-6.6
		c9.7,2.1,19.4,4.1,28.5,8.2c-9.6,0.1-18.5,3.4-26.9,7.3c-3.8,1.8-9.4,1.4-11.6,6.5c-0.2,0.5-1.8,0.3-2.8,0.4
		c-1.5,0.1-3-0.2-4.3,0.7c-9.2,6.2-19.7,10.2-28.9,16.2c-8,5.2-15.7,11.1-22.6,17.5c-6.3,5.9-13.1,11.1-18.8,17.7
		c-5.3,6.2-11.8,11.6-16.8,18c-4.8,6.2-9.9,12.3-13.8,19.2c-2.9,5.2-7.3,9.7-7.6,16.1c-0.8-0.3-1.5-0.6-2.3-0.8
		C109.1,162.1,102.8,158.5,96.3,155.3z"/>
	<path fill="#EBEAEA" d="M143.1,93.5c-10.2,10.5-19.9,21.6-29.1,33c-0.3-1-0.7-2.1-1-3.1c7.2-11.3,17.7-19.5,26.9-28.8
		C140.9,93.6,141.9,93.5,143.1,93.5z"/>
	<path fill="#AF112D" d="M156,72.3c1.5-0.6,0.7,0.7,0.9,1.2C156.7,73.1,156.4,72.7,156,72.3z"/>
	<path fill="#BE0D31" d="M117.4,167c0.2-6.5,4.6-10.9,7.6-16.1c3.9-6.9,8.9-13,13.8-19.2c5-6.4,11.5-11.8,16.8-18
		c5.7-6.6,12.5-11.8,18.8-17.7c6.9-6.5,14.6-12.4,22.6-17.5c9.2-6,19.7-9.9,28.9-16.2c1.4-0.9,2.9-0.6,4.3-0.7c1-0.1,2.6,0,2.8-0.4
		c2.2-5.1,7.8-4.7,11.6-6.5c8.4-3.9,17.3-7.2,26.9-7.3c11,3.6,22,7.3,33.2,10.7c8.6,2.6,17.5,3.9,26.5,4.2c7.1,0.2,7.1,0.2,6.7,7.3
		c-1.2,1.3-1.3,2.7,0.1,4c0,1.3,0,2.7,0,4c-2,5.6-0.7,11.5-0.8,17.2c-0.1,3.7-1,5.3-4.8,4.8c-10.2-1.4-20,2.8-30.2,2.1
		c-0.9-0.1-2.2,0.4-2.6,1.1c-1.9,3.2-4.9,3.1-7.9,2.8c-3.4-0.4-6.3,0.7-8.9,2.5c-1.8,1.3-3.5,1.5-5.5,1.6c-1.6,0-3.7-0.3-4.8,0.5
		c-4.9,3.6-10.8,4.8-16.1,7.3c-12.6,6.1-24.5,13-35.6,21.4c-4.9,3.7-8.7,8.7-13.8,12c-4.1,2.6-7.3,6.3-10,9.9
		c-4.2,5.6-10.1,9.5-13.7,15.8c-2.6,4.4-6.3,8.4-9.4,12.6c-1.6,2.3-1.6,7.4-6.7,6.4c-16.3-8.8-32.3-18.1-48.1-27.7
		c-0.2-0.7-0.6-1-1.4-0.8L117.4,167z"/>
	<path fill="#AF112D" d="M167,195.5c5.1,1,5-4.1,6.7-6.4c3.1-4.3,6.9-8.2,9.4-12.6c3.6-6.3,9.5-10.2,13.7-15.8
		c2.7-3.6,5.9-7.2,10-9.9c5.1-3.3,8.9-8.2,13.8-12c11.2-8.5,23.1-15.4,35.6-21.4c5.3-2.6,11.2-3.7,16.1-7.3c1.1-0.8,3.2-0.5,4.8-0.5
		c2,0,3.7-0.3,5.5-1.6c2.5-1.8,5.5-2.9,8.9-2.5c3,0.4,6,0.4,7.9-2.8c0.4-0.7,1.8-1.2,2.6-1.1c10.2,0.8,20-3.4,30.2-2.1
		c3.8,0.5,4.7-1.1,4.8-4.8c0.1-5.7-1.2-11.6,0.8-17.2c0.1,16.7,0.1,33.4,0.3,50.1c0,2,0.2,3.9,0.3,5.9c0,0.6,0,1.3,0,1.9
		c-0.1,0.4-0.2,0.7-0.3,1.1c0,0-0.1,0.1-0.1,0.1c-3.7,0.2-7.5-0.2-11.1,0.8c-32.9,2-61.9,13.9-87.6,34.3
		c-9.1,7.2-17.4,15.3-24.3,24.8c-0.5,0.6-1,1.2-1.4,1.9c-4.1,4.2-6.9,9.3-10.1,14.1c-0.8,1.2-1,3.5-3.4,2.8
		c-8.9-5.2-17.7-10.5-26.7-15.7c-1.7-1-3.2-2.5-5.3-2.2C167.7,196.7,167.3,196.1,167,195.5z"/>
	<path fill="#AF112D" d="M466.4,72.9c0.3-0.8,0.6-1.5,0.9-2.3c1-1.5,1.9-3.1,2.9-4.6c3.1-4.5,4.6-9.9,8.7-13.7
		c11.4,7.2,23,14,33,23.1c-8.8,2.4-9.5,3.3-8.1,9c-1.1,1.6-5.3-3.7-4.4,1.8c0.4,2.2,2.6,3.9,5,2.7c2.9-1.5-1.1-2.9-0.5-4.5
		c1,0,2,0,3,0c0.2,0.1,0.3,0.1,0.5,0.2c-0.1-0.1-0.3-0.2-0.4-0.3c1.1-3.7,3.7-5.9,7.1-7.4c1.3,0.9,2.7,1.8,4,2.9
		c9.6,7.9,18.3,16.7,26.9,25.5c3.8,5.5,9.2,9.7,12,16c-5.7,2.4-8.9,7.7-13.1,11.7c-2.3,2.2-3.1,1.7-5.3-0.4
		c-10.2-9.9-18.6-21.4-30.3-30c-3.3-2.4-15.8-13-16.8-14.1c-4.5-5-9.8-8.8-16-11.4c-1.5-0.6-3.1-1.6-3.9-2.9
		C470.2,72.3,468.4,72.5,466.4,72.9z"/>
	<path fill="#EBEAEA" d="M450,36.5c3.7,4.7,9.6,5.6,14.4,8.2c4.8,2.6,9.7,5.1,14.5,7.6c-4.1,3.8-5.6,9.2-8.7,13.7
		c-1,1.5-2,3-2.9,4.6c-3.9,0.3-6.4-2.6-9.5-4.1c-15.3-7.9-31.3-14.2-47.8-19.1c-0.4-0.1-0.8-0.6-1.1-0.9c10.9-4.9,22.5-7,34.2-9
		C445.5,37.1,447.8,36.8,450,36.5z"/>
	<path fill="#BE0D31" d="M337.9,44.4c0.2,2.3,0.3,4.7,0.5,7c0,0.6-0.1,1.3-0.1,1.9c-8,1.7-15.8,0.2-23.5-1.3
		c-6.5-1.2-12.9-2.8-19-5.5c0.3-0.1,0.8-0.1,0.9-0.3c0.5-0.5,0-0.8-0.5-0.8c-1.2,0-2.3,0-3.5,0l-0.4,0c0,0-0.4-0.2-0.4-0.2
		c-0.5-2.7-2.5-1.7-4.1-1.7c0,0-0.1,0.1-0.1,0.1c-0.4-1.6,9.6-3.2,11.4-3.5c7.3-1.3,14.6-2,22-2.7c3.3-0.3,6.8,0.5,9.9-0.4
		c4.7-1.3,6.2,0.1,5.9,4.6C336.9,42.7,337,43.7,337.9,44.4z"/>
	<path fill="#FDFDFD" d="M338.3,53.3c0-0.6,0.1-1.3,0.1-1.9c1.5-4.9,0.2-9.9,0.8-14.8c1.1,0.3,2.2,0.8,3.3,0.8
		c15-0.5,29.8,1.7,44.6,4c1.4,0.2,2.7,0.1,2.8,1.9c-8.6,2.2-17.2,4.6-25.8,6.5C355.6,51.7,347.2,54.3,338.3,53.3z"/>
	<path fill="#EBEAEA" d="M243,39.1c-12-2.6-22.9,0.2-33.1,6.6c-3.8,2.4-7.9,4.2-11.7,6.5c-1.9,1.1-3.3,1.5-4.4-0.8
		c0-0.3,0.1-0.6,0.1-0.9c3.8-0.6,6.3-3.4,9.5-5.2c8.3-4.7,17.3-7.5,26.6-8.7c4.3-0.6,8.8,0.6,13.2,1.1C243.1,37.8,243,38.6,243,39.1
		z"/>
	<path fill="#AF112D" d="M287.8,43.6c1.6,0,3.6-1,4.1,1.7C290.4,45.1,288.9,44.9,287.8,43.6z"/>
	<path fill="#AF112D" d="M292.8,45.5c1.2,0,2.3-0.1,3.5,0c0.5,0,0.9,0.2,0.5,0.8c-0.2,0.2-0.6,0.2-0.9,0.3
		C294.7,46.6,293.7,46.3,292.8,45.5z"/>
	<path fill="#AF112D" d="M337.9,73.4c-1.3-1.3-1.3-2.6-0.1-4C337.9,70.8,337.9,72.1,337.9,73.4z"/>
	<path fill="#AF112D" d="M539.9,489.3c-9.2,8.5-18.2,17.4-28.2,25.1c-1.4,1.1-3,2.1-4.4,3.1c-0.4,0.3-0.8,0.6-1.2,0.9c0,0,0,0,0,0
		c-1.1-0.1-6.2-0.1-4.9,0.9c0.7,0.5,1.4,0.8,2.1,1.2c-0.1,0.7-0.3,1.3-0.4,2c-4.3,2.3-5.9,6.5-6.8,10.9l0,0c-5.4-1.5-7.8,3.2-10,6
		c-2.9,3.7-6.2,4.7-10.2,4.3c-2.6-0.3-2.8,0.8-2.8,2.7l0,0c-1.7-1-3.5-1.2-5.4-0.8c-1-1.4-2.1-1.7-3.7-0.8c-3,1.7-6.1,3.1-9.2,4.7
		c-15.4,6.6-31,12.4-47.3,16.5c-21,5.3-42.4,8.2-64,8.5c-1.5,0-3-0.2-4.4-0.3c0-40.5,0-81,0-121.5c10.5-1,21.1-0.8,31.6-3.3
		c34.6-8.2,64-24.7,87.1-51.9c0.3,0,0.4-0.2,0.4-0.5c5-5.1,8.8-11,12.8-16.8c1.5-2.2,2.2-5.2,5-6.4c10.4,6.6,21.1,12.8,32.1,18.5
		c1.4,1,2.8,2.1,4.2,3.1c-1.5,0-3,0.4-4.2-0.8c-0.7-0.7-1.2-0.7-1.9,0.3c-5.5,7.8-10.7,15.9-16.7,23.2c-3,3.7-5.3,8.1-8.8,11.1
		c-5.1,4.5-9.4,9.9-15.3,13.5c-5,3.1-8.5,7.9-13.6,10.8c-5.2,3-10.6,5.9-15.3,9.2c-13.5,9.5-29.2,13.5-43.7,20.3
		c-0.8,0.4-13.4,3.6-18.9,4.4c-5.2,0.7-10.4,2.4-15.8,2.1c-4.5-0.3-9-0.1-13.5,0c-2.9,0.1-4.5,1.3-4.5,4.6c0.1,17.3,0,34.6,0.1,51.9
		c0,4.7,1.9,5.5,6.1,5.7c8.8,0.5,17.3-1.7,26-2.4c11.6-1,23.3-1.9,34.2-7.1c2.2-1.1,23.2-9.6,27-10.7c2.8-0.8,5.4,1,7.9-0.8
		c6-4.3,14.1-4.4,19.7-9.7c4.3-4,10.1-6.2,15.2-9c10.2-5.6,17.8-15.1,29-18.9c0.4-0.1,0.8-0.8,0.7-1.2c-0.2-2.7,1.6-3.7,3.6-4.7
		c4.9-2.6,6.5-8.6,12-11.2c1.6-0.7,3.7-4.3,6.3-6.1c3.9-2.6,4.6-8.5,10-9.6c0.1,0,0.2-0.6,0.2-0.9c0.9-5.9,6-9.1,8.8-13.8
		c2.3-3.9,7-6.3,7.2-11.4c0.1-2.8,0.6-4.7,3.3-6c1.9-0.9,3.4-2.5,5.1-3.9c5.9,3.1,11.7,6.3,17.6,9.4c1.4,2.3-0.7,3.7-1.6,5.3
		C567.5,457.3,554.2,473.7,539.9,489.3z"/>
	<path fill="#AF112D" d="M496,533.4c0.7,0.1,1.6,0.1,1.5,1.2c0,0.1-0.2,0.3-0.3,0.3C496.1,535,496.1,534.2,496,533.4L496,533.4z"/>
	<path fill="#AF112D" d="M473,546.4c0.1,0.1,0.3,0.2,0.4,0.2C473.3,546.6,473.1,546.5,473,546.4C473,546.5,473,546.4,473,546.4z"/>
	<path fill="#AF112D" d="M582.3,156.5c0,0.3,0,0.6-0.1,0.8c-0.4-0.1-1.2-0.2-1.2-0.3C581.1,156.2,581.8,156.6,582.3,156.5z"/>
	<path fill="#AF112D" d="M583,162.4c0.1-0.1,0.2-0.3,0.3-0.4C583.2,162.2,583.1,162.3,583,162.4C583,162.5,583,162.4,583,162.4z"/>
	<path fill="#AF112D" d="M442,115.5c1.6-3.6,3.5-7.1,6-10.3C447.4,109.5,446.5,113.5,442,115.5z"/>
	<path fill="#AF112D" d="M458.4,86.9c1.6-3.3,3.3-6.6,5.6-9.4C463.5,81.4,462.7,85.2,458.4,86.9z"/>
	<path fill="#AF112D" d="M455.9,91.4c0.2-1.3,0.8-2.4,1.9-3.2C458.1,89.9,458.1,91.3,455.9,91.4z"/>
	<path fill="#AF112D" d="M464,77.4c0.2-1.3,0.8-2.4,1.8-3.2C466,75.8,466.2,77.3,464,77.4z"/>
	<path fill="#AF112D" d="M457.7,88.3c0.2-0.4,0.4-0.8,0.6-1.3C458.7,87.7,458.4,88.1,457.7,88.3z"/>
	<path fill="#AF112D" d="M465.8,74.3c0.2-0.4,0.4-0.9,0.6-1.3C466.7,73.7,466.4,74.1,465.8,74.3z"/>
	<path fill="#DDDDDD" d="M338.1,136.5c0.1-0.4,0.2-0.7,0.3-1.1C339,136,338.8,136.3,338.1,136.5z"/>
	<path fill="#BE0D31" d="M406.3,542.2c-10.9,5.2-22.6,6.2-34.2,7.1c-8.7,0.7-17.2,3-26,2.4c-4.2-0.3-6.1-1-6.1-5.7
		c-0.1-17.3,0-34.6-0.1-51.9c0-3.3,1.6-4.5,4.5-4.6c4.5-0.1,9-0.2,13.5,0c5.4,0.3,10.7-1.4,15.8-2.1c5.5-0.7,18.1-4,18.9-4.4
		c14.5-6.8,30.3-10.8,43.7-20.3c4.7-3.3,10.1-6.3,15.3-9.2c5.1-2.9,8.6-7.8,13.6-10.8c5.9-3.6,10.2-9,15.3-13.5
		c3.4-3,5.8-7.4,8.8-11.1c6-7.4,11.2-15.4,16.7-23.2c0.7-1,1.2-1,1.9-0.3c1.3,1.2,2.8,0.9,4.2,0.8c1.8,0.9,3.6,1.7,5.3,2.7
		c14.4,8.2,28.7,16.4,43.1,24.6c0.5,0.5,1.1,1.1,1.6,1.6c-1.7,1.3-3.2,2.9-5.1,3.9c-2.7,1.3-3.2,3.2-3.3,6
		c-0.1,5.1-4.8,7.6-7.2,11.4c-2.8,4.7-7.9,7.9-8.8,13.8c-0.1,0.3-0.1,0.9-0.2,0.9c-5.3,1.2-6.1,7.1-10,9.6c-2.6,1.7-4.7,5.3-6.3,6.1
		c-5.5,2.5-7.1,8.6-12,11.2c-2,1.1-3.8,2-3.6,4.7c0,0.4-0.4,1.1-0.7,1.2c-11.2,3.8-18.8,13.3-29,18.9c-5.1,2.8-10.9,4.9-15.2,9
		c-5.7,5.4-13.7,5.4-19.7,9.7c-2.5,1.7-5.1-0.1-7.9,0.8C429.5,532.6,408.5,541.1,406.3,542.2z"/>
	<path fill="#FDFDFD" d="M560.6,422.7c-14.4-8.2-28.7-16.4-43.1-24.6c-1.7-1-3.5-1.8-5.3-2.7c-1.4-1-2.8-2.1-4.2-3.1
		c4-8.6,8.4-17.1,12-26c6.2-15.4,9.9-31.4,12.1-47.9c0.8-5.8,0.9-11.6,0.9-17.4c0-3.9,1.3-5.7,5.5-5.6c17.3,0.2,34.6,0.1,51.9,0.1
		c4.6,0,5.9,1.8,5.5,6.5c-1.3,15.8-2.2,31.6-5.9,47.2c-2.4,10.1-4.9,20.2-8.4,30.1c-4.7,13.3-10.6,26-16.9,38.6
		C563.7,419.6,562.8,421.8,560.6,422.7z"/>
	<path fill="#EBEAEA" d="M196.1,536.2c2.4,1.1,3.1-0.6,4.1-2.2c3.2-5.5,6.5-11,9.8-16.5c2.5,2.7,6,3.4,9,5.1
		c16.7,9.2,34.4,16,52.8,20.9c21.7,5.8,43.8,8.3,66.1,9c0.1,7.3,0.2,14.6,0.2,21.9c-20.6,0.3-40.9-2.1-61.1-6.6
		c-20.4-4.5-39.8-11.3-58.7-19.9c-5.8-2.6-12-4.7-16.6-9.5C200.3,536.9,197.4,538.5,196.1,536.2z"/>
	<path fill="#BE0D31" d="M338.2,574.4c-0.1-7.3-0.2-14.6-0.2-21.9c0-21,0-42,0-63c0.1-12.3,0.2-24.6,0.3-36.9c0.3,0,0.5,0,0.8,0.2
		c0,40.5,0,81,0,121.5C338.7,574.4,338.5,574.4,338.2,574.4z"/>
	<path fill="#BE0D31" d="M82.1,308.9c-0.4-1.6-0.8-3.1-1.5-4.6c-2.6-5.9-1.6-8.7,3.1-8.7c18.7-0.1,37.3-0.1,56-0.1
		c1.5,0,3.2,0,3.3,2.1c0.4,9.7,1.6,19.3,2.9,28.9c0.7,5.2,1.4,10.6,3.2,15.3c3.3,8.8,3.3,18.6,8.9,26.8c2.6,3.9,4.2,8.6,5.5,13.1
		c1.5,5.2,6.3,8.4,7.2,14.2c0.4,2.8,4.2,5.9,6.2,9c0.7,1.2,2.7,0.7,3.5-0.5c2.5-3.7,3,0.5,4.1,1.1c3.4,1.9-0.8,1.6-0.9,2.6
		c-0.3,2-5.3,4.7,0.9,5.7c0.6,0.1,1.3,1.1,1.5,1.8c1.3,5.7,6.3,8.8,9.5,13c4.6,6,11.1,10.5,16.7,15.7c0.8,0.8,1.6,1.1,2.7,1.1
		c1.9-0.1,2.6,0.7,3.6,2.5c3.6,6.7,6,6.8,10.4-0.1c-0.2,2.9,2.7,4.2,2,5.4c-3.2,5.2,2.6,5.5,4.2,7.4c2.3,3,2.6-2.3,4.6-2.7
		c1,2,0.4,3.8,0.6,5.6c-0.1,0.6-0.1,1.4-0.4,1.9c-9.3,16-18.6,32-27.9,48c-2.5,0.5-4.5,1.9-6.7,3.6c-2.2-4.1-5.6-6.2-9.8-8.4
		c-5.4-2.9-11-6.6-15.6-11.2c-4.7-4.6-9.6-9.2-15.3-12.6c-1.3-0.8-2.1-2.5-3.1-3.8c-0.7-0.9-1.2-2.6-2-2.7c-3.7-0.5-4.6-3.9-6.8-5.8
		c-6.8-5.9-11.5-13.4-17.3-20c-4.6-5.2-9.3-10.9-12-17.2c-2.6-6.3-8.3-10.1-10.5-16.3c-2.3-6.2-5.1-12.2-8.6-17.8
		c-5.1-8.1-6-17.7-9.9-26.2c-2.9-6.4-3-13.7-6.5-19.9c-1.1-2-1.4-4-1.3-6.2c0.1-5.7-1.6-10.9-3.5-16.1c-1.1-2.8,0.4-5.9-1.4-9.5
		C80.3,327,84.2,317.1,82.1,308.9z"/>
	<path fill="#FDFDFD" d="M211.7,513.5c9.3-16,18.6-32,27.9-48c0.3-0.5,0.3-1.3,0.4-1.9c0.3-0.1,0.6-0.2,0.9-0.2
		c5.1,4.3,11.4,6.9,17.3,9.4c25.3,11,51.8,17.4,79.6,16.6c0,21,0,42,0,63c-22.4-0.7-44.5-3.2-66.1-9c-18.4-5-36.1-11.7-52.8-20.9
		c-3-1.7-6.5-2.4-9-5.1C210.6,516.1,211.1,514.8,211.7,513.5z"/>
	<path fill="#AF112D" d="M503.3,520.6c-0.7-0.4-1.5-0.7-2.1-1.2c-1.3-0.9-1.5-2.3-0.4-3.3c1.1-1,2.5-0.9,3.2,0.7
		c0.4,1,1.1,1.6,2.1,1.7C505.3,519.5,504.4,520.2,503.3,520.6z"/>
	<path fill="#BE0D31" d="M506.1,518.5c0.4-0.3,0.8-0.6,1.2-0.9C506.9,517.9,506.5,518.2,506.1,518.5z"/>
	<path fill="#AF112D" d="M240.9,463.4c-0.3,0-0.6,0.1-0.9,0.2c-0.2-1.8-2.9,0.1-5.2-2.9c-1.6-2-13-6.1-16.6-12.8
		c-1-1.8-1.7-2.6-3.6-2.5c-1,0-1.8-0.3-2.7-1.1c-5.6-5.2-12.1-9.7-16.7-15.7c-3.2-4.2-8.3-7.3-9.5-13c-0.2-0.7-0.9-1.7-1.5-1.8
		c-6.3-1-6.8-7.8-7.6-8.9c-2-3.2-5.8-6.2-6.2-9c-0.9-5.8-5.7-9-7.2-14.2c-1.3-4.5-2.9-9.3-5.5-13.1c-5.5-8.2-5.5-18-8.9-26.8
		c-1.8-4.7-2.4-10.1-3.2-15.3c-1.3-9.6-2.6-19.2-2.9-28.9c-0.1-2.1-1.7-2.1-3.3-2.1c-18.7,0-37.3-0.1-56,0.1c-4.7,0-5.7,2.8-3.1,8.7
		c0.7,1.5,1.1,3,1.5,4.6c2.1,8.2,4,19.2,0.4,23.9c-2.5,3.2-9,9.9-11.9,12.7c-1.1,41.4-5.5,7-8.4-7.1c-3-12.4-3.1-25-3.8-37.6
		c-0.1-2-0.1-4-0.1-6c1.8-0.1,3.7-0.2,5.5-0.2c25.2,0,50.3,0.1,75.5,0c13.3,0,26.6-0.2,40-0.3c1.7,1.1,1.2,2.7,1.2,4.4
		c-0.1,4.3-0.9,8.7,0.8,12.9c1.2,1.9-2.6,4.4,0.8,6c0.7,2.7,1.4,5.4,2.1,8.1c0,0-0.1,0-0.1,0c0.2,1.5,0.2,3,0.6,4.4
		c4.3,18.5,11.5,35.7,22.1,51.5c13.6,20.3,30.6,37.1,52.2,49.1c0.6,2.1-0.9,3.4-1.8,4.9C251.6,444.8,246.3,454.1,240.9,463.4z
		 M178.5,321.3c0.3-2.7-2.3-4.8-0.6-7.7c-2.6,0.6-4.5,2-4.2,3.7C173.9,319.3,175.8,320.7,178.5,321.3z"/>
	<path fill="#EBEAEA" d="M179.1,294.2c-13.3,0.1-26.6,0.3-40,0.3c-25.2,0-50.3,0-75.5,0c-1.8,0-3.7,0.2-5.5,0.2
		c0.7-14,1.2-28,3.4-42c1.6-10,3.3-20,5.9-29.6c3.4-12.5,7-25.1,12.9-36.9c3-5.8,4.9-12.2,7.8-18.1c2.3-4.6,4.8-9,8.2-12.9
		c6.5,3.2,12.8,6.8,18.8,10.8c-6.1,8.7-10,18.6-14.2,28.3c-7.2,16.8-12.6,34.2-15.7,52.2c-2.5,14-4.6,28.1-4.3,42.5
		c0.1,2.6,0.1,4.5,3.6,4.4c18.3-0.1,36.7-0.1,55,0c2.6,0,3.4-1,3.5-3.5c0.2-11.4,1.6-22.8,3.9-34c2.8-13.5,6.9-26.5,12.2-39.3
		c2.8-6.6,7.1-12.4,8.9-19.4c2.2-0.3,3.7,1.2,5.3,2.2c8.9,5.2,17.8,10.5,26.7,15.7c-2,1.8-0.5,4.2-1.1,6.2c-4.8,6.7-6.5,14.7-10,22
		c-0.8,0.4-1,1.2-1,2c-3.3,13.8-7.3,27.6-7,42C179,289.3,180.9,292.3,179.1,294.2z"/>
	<path fill="#FDFDFD" d="M168.1,197.3c-1.8,7-6.1,12.8-8.9,19.4c-5.3,12.7-9.4,25.8-12.2,39.3c-2.3,11.2-3.8,22.5-3.9,34
		c0,2.5-0.9,3.5-3.5,3.5c-18.3-0.1-36.7-0.1-55,0c-3.5,0-3.5-1.9-3.6-4.4c-0.3-14.3,1.8-28.4,4.3-42.5c3.2-18,8.5-35.4,15.7-52.2
		c4.2-9.7,8.1-19.5,14.2-28.3c0.8,0.3,1.5,0.6,2.3,0.8c0,0,0.1,0,0.2-0.1c0.5,0.3,0.9,0.5,1.4,0.8c15.8,9.6,31.8,18.9,48.1,27.7
		C167.3,196.1,167.7,196.7,168.1,197.3z"/>
	<path fill="#AF112D" d="M118.9,167.7c-0.5-0.3-0.9-0.5-1.4-0.8C118.3,166.7,118.7,167.1,118.9,167.7z"/>
	<path fill="#AF112D" d="M512,75.4c1,0.2,1.7,0.7,2.1,1.6c-3.4,1.5-6,3.7-7.1,7.4l-0.1,0.1c-1,0-2,0-3,0l0,0
		C502.5,78.7,503.3,77.9,512,75.4z"/>
	<path fill="#AF112D" d="M504,84.5c-0.5,1.6,3.5,3,0.5,4.5c-2.4,1.2-4.6-0.5-5-2.7C498.7,80.7,502.9,86,504,84.5
		C504,84.4,504,84.5,504,84.5z"/>
	<path fill="#BE0D31" d="M507,84.4c0.1,0.1,0.3,0.2,0.4,0.3C507.3,84.6,507.1,84.6,507,84.4C507,84.5,507,84.4,507,84.4z"/>
	<path fill="#AF112D" d="M414,544.5c-0.3,2.1,0.7,3.6,2.7,5.1c-4.4-1-4.1,6.3-8.7,3.9l0,0c0-1.3-0.7-2-2-2l0,0
		C407.5,547.7,409.7,544.9,414,544.5C414,544.4,414,544.5,414,544.5z"/>
	<path fill="#AF112D" d="M408,553.5c-1.1,1.4-0.6,3-0.1,5.1c-2.9-1.2-4.9-2.5-5.2-4.8c-0.2-1.4,1.6-2.2,3.2-2.3c0,0,0,0,0,0
		C406,552.8,406.7,553.4,408,553.5L408,553.5z"/>
	<path fill="#EBEAEA" d="M329,452.4c3.1,0,6.1,0.1,9.2,0.1c-0.1,12.3-0.2,24.6-0.3,36.9c-27.9,0.8-54.3-5.6-79.6-16.6
		c-6-2.6-12.2-5.1-17.3-9.4c5.3-9.3,10.7-18.6,16-27.9c0.9-1.5,2.4-2.9,1.8-4.9c2.3,1.6,4.4,3.6,7.3,3.9c7.4,4.7,15.5,7.8,24,10
		c0.4,0.8,1.2,1,2,1C304,449.3,316.5,451.1,329,452.4z"/>
	<path fill="#BE0D31" d="M178.5,321.3c-2.6-0.5-4.6-1.9-4.9-4c-0.2-1.7,1.6-3,4.2-3.7C176.2,316.5,178.8,318.6,178.5,321.3z"/>
	<path fill="#BE0D31" d="M181,311.5c0.9,1.9,0.9,3.9,0.8,6C178.4,315.9,182.2,313.3,181,311.5z"/>
	<path fill="#AF112D" d="M408,553.4c-1.3,0-2-0.7-2-2C407.3,551.5,408,552.1,408,553.4z"/>
</g>
</svg>
