<?xml version="1.0" encoding="utf-8"?>
<!-- Generator: Adobe Illustrator 18.0.0, SVG Export Plug-In . SVG Version: 6.00 Build 0)  -->
<!DOCTYPE svg PUBLIC "-//W3C//DTD SVG 1.1//EN" "http://www.w3.org/Graphics/SVG/1.1/DTD/svg11.dtd">
<svg version="1.1" id="Layer_1" xmlns="http://www.w3.org/2000/svg" xmlns:xlink="http://www.w3.org/1999/xlink" x="0px" y="0px"
	 viewBox="0 0 311.8 311.8" enable-background="new 0 0 311.8 311.8" xml:space="preserve">
<g>
	<path fill="#6B463D" d="M193.7,74.2c3.8,0.7,7.6,1.5,11.4,2.2c0.9,1.5-0.6,1.9-1.3,2.5c-1.6,1.2-2.5,2.8-2.1,4.8
		c0.4,2.2,2,3.2,4.2,3.4c0.3,1.7,1.7,1.2,2.7,1.3c2,1.4,4.3,0.7,6.5,0.8c1.4,0.1,3.4,0.2,3.8-1.4c0.5-1.7-1.8-1.7-2.6-2.7
		c0.2-1.1-0.4-2.5,0.7-3.4c2.5,1.6,4.1,3.6,3.8,6.7c-4,4.6-9.4,6.8-15.1,8.3c-3.5,0.9-6.9,1.8-10.4,2.8c-11.1,1.4-22.2,2.7-33.4,3
		c-16.3,0.4-32.6-0.5-48.6-3.8C104.9,97,96.2,95.4,90,88.4c-0.3-2.9,1-4.9,3.5-6.6c0.3,1.9-0.3,4.2,1.9,5.2c1.7,1.5,3.6,0.6,5.5,0.7
		c0.6,0.3,1.1,0.6,1.7,0.9c-0.3,0.5-0.9,1.1,0.2,1.2c1.5,0.1,2.9,0.2,4.4,0.1c1.4-0.1,3.3,0.5,3.7-1.4c0.4-1.7-1.8-1.7-2.6-2.6
		c0.1-1,0.1-2,0.2-3c0.5-3.8-0.8-5.3-4.5-5.1c-0.5-0.8-1-1.6-1.5-2.4c-0.1-0.3,0-0.7,0-1c0.4,0.2,0.9,0.3,1.3,0.5
		c1,1.8,2.5,1.5,4.2,1.1c4.3-0.9,8.7-1.8,13-2.6c1.2,5,2.9,5.7,9.1,3.9c0,0.6,0.1,1.2,0.1,1.8c-0.8,0.1-1.7,0.1-2.5,0.2
		c-1.1,0.4-2.2,1.2-2.2,2.3c-0.2,3.4-2,5.6-4.4,7.8c-1.8,1.7-1.1,5.3,1,6.2c3,1.2,5.9,0.8,8.4-1.4c2.4-2.1,2.1-4.5,0.7-7.1
		c-1.2-2.3-3.1-4.3-3.1-7.1c2.2,0.2,4.4,0.6,6.6,0.6c1.3,0,3-0.1,3.6-1.4c0.7-1.6-1.1-2.2-2.1-3.1c0.4-1.4,1-2.9,0.8-4.4
		c1-0.1,2-0.3,3-0.4c1.8-0.1,3.6-0.2,5.5-0.2c0.4,0,0.9-0.1,1.3-0.1c1.2,0,2.4,0.1,3.5,0.1c0.3,3.8,2.9,4.5,6.1,4.4
		c0.2,0.8,0.1,1.9,1.5,1.7c1.9,0.2,3.9,0.4,5.8,0.5c1.4,0,3.2,0.4,3.8-1.4c0.7-1.8-1.4-2-2.1-3.1c0.2-0.7,0.4-1.3,0.7-2
		c3.2,0.1,10.5,0.4,10.9,0.5c2.6,0.1,8.4,1.1,9,1.2c-0.3,1.3-1.2,4-1.1,4.1c0.2,0.5,0.3,1.1,0.5,1.6l-0.1,0.1c-0.9-0.1-1,0.5-1,1.2
		c-0.2,2.9-0.7,5.6-3.6,7.3c-1.7,1.1-2.1,3.1-1.4,5c0.7,1.9,2.2,2.6,4.1,2.6c1,0,2-0.1,3-0.2c0,0.3,0,0.6,0.1,0.9
		c1.5,2.6,4,1.3,6,1.5c1.4,0.1,3.5,0.4,3.6-1.6c0.1-2-1.8-2.2-3.5-2.1c3.4-4.7,1.1-10.6-4.5-11.3c-0.6-0.7-0.9-1.4-0.8-2.3
		c1.4,0,2.8,0.1,4.1-0.1c1.4-0.3,3.4-0.1,3.7-1.8c0.4-1.7-1.7-1.8-2.7-2.6C192.4,74.7,192.8,74.2,193.7,74.2z M165.4,95.2
		c0-1.4,0.1-2.7,0-4.1c-0.3-4.2-2.9-6.7-6.1-6.2c-1.2-1.1-1.1-2.9-2-4.5c-1.7,1-2.3,2.5-2.4,4.3c0,1.5-0.5,2.7-1.7,3.5
		c-2.2,1.5-3.9,3.2-2.9,6.1c1,3.1,3.7,2.8,6.2,2.8c0,0.3,0,0.5,0,0.8c2.2,1.9,4.8,1.5,7.3,1.5c1.4,0,2.9-0.3,3.5-1.6
		C167.9,96.4,165.6,96.4,165.4,95.2z M127,97.7c2.7,0.5,5.3,1.7,8,0.9c0.9-0.3,2.1-0.2,2.4-1.4c0.2-0.8-0.4-1.4-1-1.8
		c-1-0.6-1.9-1.2-3-0.1C131.8,97.1,129.5,97.5,127,97.7z"/>
	<path fill="#FFFFFF" d="M90.2,109.9c0,1.2,0.5,1.9,1.8,1.8c6-0.2,9.9,3.1,12.9,7.9c2.4,3.8,5.6,4.1,9.1,1.4c1-0.8,1.8-1.7,2.7-2.5
		c5.1-4.7,10.3-5.2,16.3-1.8c0.3,1.3,0.6,2.6,0.9,3.9c0.4,1.6,1.7,1.6,2.9,1.6c0.4,0.8,0.8,1.5,1.2,2.3c2.5,4.8,6.1,5.1,9.4,0.7
		c1-1.3,1.9-2.6,2.7-4c3.5-5.3,8.9-6.8,14.5-4.4c3.2,1.4,5.3,4,7.5,6.5c3.9,4.5,9.6,4.7,13.8-1.1c1.9-2.6,3.7-5.3,6.4-7.2
		c0.2,0.1,0.5,0.2,0.7,0.3c0,2.8,0,5.7,0,8.5c-0.1,0.2-0.1,0.3-0.1,0.5c-0.2,0.4-0.5,0.9-0.7,1.3c-0.4,0.4-0.9,0.8-1.3,1.3
		c-6.9,8.2-15.6,8.7-23.3,1.3c-1.6-1.6-3.1-3.2-4.9-4.6c-2.2-1.8-4.4-1.5-6.3,0.6c-0.9,1-1.7,2.2-2.3,3.4c-2.9,5.2-7,8-13.1,7.3
		c-5.5-0.6-8-4.6-9.9-9c-2.5-5.6-5.3-6.2-10-2.2c-2.3,2-4.5,4.3-7.6,5.2c-6.3,1.7-10.8-0.2-15.1-6.6c-2-3-4.3-4.9-8-2.9
		C89.7,115.5,90.3,108.3,90.2,109.9z"/>
	<path fill="#F2E8DC" d="M205.9,87.1c-2.2-0.2-3.8-1.2-4.2-3.4c-0.4-2,0.5-3.5,2.1-4.8c0.8-0.6,2.2-0.9,1.3-2.5
		c0.9,0,2.8,2.4,2.2-0.8c-0.5-3,1.4-4.4,3.4-4.5c2.3-0.1,2.4,2.5,2.7,4.3c-0.7-0.5-1.4-1-2.1-1.4c-0.2-0.1-0.5-0.3-0.7-0.4
		c0,0.3,0.1,0.6,0.1,0.9c0.3,0.6,0.4,1.2,0.8,1.7C216.3,82.2,212.2,87,205.9,87.1z M208.1,73.7c-0.3,4,2.4,7.4-0.8,11.1
		C212.3,82.6,212.3,81.6,208.1,73.7z M203.1,82.2c3.2,1.6,3.5,1.4,4-2.4C205.9,81.1,204.6,81.8,203.1,82.2z"/>
	<path fill="#F2E8DC" d="M130.1,77.4c-6.2,1.8-7.9,1-9.1-3.9c0.5,0,1-0.1,1.5-0.1c0.7,1.3,1.8,1.8,3,1c1.1-0.7,2.1-1.8,0.9-3.3
		c-0.5-1.7,1.9-3.6-0.1-5.3c0-1.1,0-2.2,0-3.3c0.3-0.6,0.9-1.3,1.3-0.8c1.7,2.2,3.5,1.8,4.8,4.2c-0.7,0-1.1-1-2.3-0.4
		C132.3,69.4,136,73.6,130.1,77.4z M126.8,76c5.3-1.3,5.1-5,1.1-10.3C127.4,69.1,130.3,72.4,126.8,76z"/>
	<path fill="#F2E8DC" d="M103.9,75c-0.4-0.2-0.9-0.3-1.3-0.5c0,0.3-0.1,0.7,0,1c0.4,0.8,1,1.6,1.5,2.4c2.6,5.3,2.1,7.1-3.2,9.9
		c-8.6,1.4-7.4-5.8-7.4-5.9c0.5-4.1,4.3-2.9,5.8-6.7c0.4-1-0.5-3,1.2-3C102,72.1,103.6,73.1,103.9,75z M100.3,85.1
		c3.9-2.2,3.8-5.1-0.2-9.5C99.9,78.8,102.3,81.8,100.3,85.1z"/>
	<path fill="#F2E8DC" d="M188.5,63.6c0.1,0.8,0.7,0.8,1.4,0.7c2.1,0.9,2.8,2.6,2.5,4.7c-1.4-0.9-2.2-2.7-5-3.1
		c3.4,5.1,5.7,8.7-2.5,11.4c-1.4,0.6-2.4,0.6-2.3,0.5c-1,0,1-1.9,2.4-2.7c2.8-2.2,3.1-3.8,1.6-6.6c-0.7-1.4-1.7-2.8-1.8-4.5
		c0.3-2.9,2.3-2.8,4.4-2.3c-0.2,0.4-0.3,0.8-0.5,1.2c-0.1,0.1-0.3,0.1-0.3,0.2C188.4,63.2,188.5,63.4,188.5,63.6z"/>
	<path fill="#855D3A" d="M205.9,87.1c6.3,0,10.4-4.8,5.6-10.9c-0.4-0.5-0.5-1.1-0.8-1.7c0.2-0.2,0.4-0.3,0.6-0.5
		c0.7,0.5,1.4,1,2.1,1.4c1.8,1.7,3.2,3.7,3.7,6.3c-1.2,0.9-0.6,2.2-0.7,3.4c-2.2,2.1-4.8,3.1-7.8,3.3
		C207.6,88.2,206.2,88.7,205.9,87.1z"/>
	<path fill="#855D3A" d="M184.8,77.3c6.1-2.2,5.9-6.4,2.5-11.4c2.8,0.4,3.6,2.2,5,3.1c1,1.6,0,3.7,1.3,5.2c-0.8,0-1.3,0.5-1.3,1.3
		c-1.8,1.3-3.6,2.7-5.4,4c-0.5-0.2-0.7-1.5-1.6-0.6C182.9,79.5,183.2,78.1,184.8,77.3z"/>
	<path fill="#855D3A" d="M126.4,71.1c1.2,1.5,0.3,2.5-0.9,3.3c-1.2,0.8-2.4,0.3-3-1c0.2-0.1,0.2-0.3,0.3-0.5
		c1.3,0.2,2.4,0.2,3.1-1.2C126,71.5,126.2,71.3,126.4,71.1z"/>
	<path fill="#F2E8DC" d="M125.8,71.7c-0.6,1.4-1.8,1.4-3.1,1.2C123.1,70.7,123.7,69.2,125.8,71.7z"/>
	<path fill="#F78E1F" d="M248,185.2c0.5,2.1-0.2,9-0.1,6.7c0.1-4.5-1.9-6.7-6.4-7.5c-9.5-1.6-17.1,4.5-17.6,14
		c0,0.8,0.2,1.8-0.7,2.3c0.1-5.7,0.2-11.4-0.6-17.2c-0.4-3.3-0.4-6.7,0.2-10c0.6-3.5,2.1-4,5.1-2.5c4.9,2.3,7.8,1.3,10.4-3.5
		c0.6-1.1,1.1-2.2,1.7-3.3c0.5-1,1.1-1.6,2.3-1.5c1.2,0.1,1.8,1,2,2c0.3,1.3,0.5,2.7,0.6,4c0.1,3.7-0.1,7.5,0.1,11.2
		C245.2,181.9,244.9,184.6,248,185.2z"/>
	<path fill="#350E09" d="M211.1,157.8c-0.7,0.9-1,2.2-0.7,3.9c0.4,2.2,0.7,4.8-2.4,5.3c1,0.9,1.8,1.7,2.6,2.5
		c-0.1,0.2-0.2,0.4-0.2,0.6c-4.5,0.9-6.2-2.1-7.6-5.5c-0.4-1-0.9-2.2-2.3-2c-1.2,0.2-1.3,1.4-1.4,2.4c-0.3,1.8-0.4,3.7-0.6,5.6
		c-0.2,1.7-0.5,3.4-0.9,5.1c-0.2,0.9-0.6,1.8-1.6,1.8c-1.2,0-1.7-0.9-1.9-1.9c-0.5-2.3-1-4.6-1.4-7c-0.3-1.4-0.3-3.1-1.9-3.3
		c-1.3-0.2-2,1.3-2.7,2.4c-1.4,2.1-2.3,4.5-4.9,5.4c-6.2,2.3-7.4,4-7.1,10.7c0.1,2.6,0.5,5.2,0.6,7.8c0.1,2.1-0.8,3.8-3.1,3.8
		c-2.2,0-2.9-1.6-2.9-3.6c0-2.5,0.2-5,0.3-7.5c0-1.8-0.1-3.9-1.8-4.7c-3.8-1.8-5.9-5.2-8.5-8.2c-2.5-2.9-4.4-2.5-5.5,1.2
		c-0.7,2.3-1,4.6-1.5,6.9c-0.4,1.7-0.7,3.4-1.2,5.1c-0.4,1.4-1.1,2.6-2.8,2.6c-1.8,0-2.6-1.3-3-2.9c-0.2-0.8-0.4-1.7-0.5-2.6
		c-0.3-1.9,0.4-4.7-1.8-5.3c-2.5-0.8-2.7,2.4-3.8,3.8c-0.7,0.9-1.4,1.9-2.7,1.7c-1.3-0.2-1.8-1.2-2.2-2.3c-0.3-1.1-0.5-2.2-0.8-3.3
		c-0.3-1.1-0.5-2.4-1.9-2.4c-1.6,0-1.9,1.4-2.1,2.6c-0.2,1.1-0.5,2.2-0.5,3.3c-0.1,7.1-0.1,14.2-0.1,21.3c-0.8,1.8-1.8,3.4-4,3.6
		c-2-1.1-2.5-3.1-2.4-5.1c0.1-3.1,0.4-6.2,0.8-9.3c0.4-3.5,0.6-7,0.3-10.5c-0.2-2.4-1.2-4.4-3.9-4.8c-2.7-0.4-3.6,1.7-4.4,3.7
		c-0.3,0.7-0.5,1.4-0.8,2.1c-0.5,1.1-0.8,2.6-2.3,2.6c-1.8,0-2.1-1.6-2.3-2.9c-0.8-4.3-1.4-8.6-2.3-12.9c-0.5-2.4-0.4-6-3.8-6
		c-3.2-0.1-3.2,3.4-4,5.6c-1.6,4.5-2.7,4.7-5.9,1.3c-1.9-2.1-3.8-1.8-4.6,0.9c-0.3,1-0.3,2.2-0.3,3.3c0,3.5,0.1,7,0,10.5
		c-0.1,1.9,0,4.6-2.7,4.5c-2.5-0.1-2.2-2.7-2.1-4.5c0.2-3,0.6-6,1-8.9c0.4-3.7,0.9-7.5-0.1-11.2c-0.4-1.5-0.8-3.1-2.5-3.4
		c-1.6-0.3-1.8,1.4-2.4,2.4c-0.7,1.1-1.6,2-3,1.8c-1.6-0.2-1.7-1.7-1.9-2.9c-0.3-1.3-0.1-2.8-0.4-4.1c-0.3-1.3-0.1-3.4-1.5-3.5
		c-1.8-0.2-1.2,2-1.7,3.2c-0.3,0.9-0.3,2-0.5,2.9c-0.2,0.8-0.4,1.9-1.5,1.8c-1-0.1-1.2-1.1-1.3-2c-0.2-1.7-0.3-3.5-0.6-5.2
		c-0.1-0.7-0.1-1.7-1.1-1.7c-1.1-0.1-1.4,0.9-1.4,1.8c-0.3,3.7-0.5,7.5-0.8,11.2c-0.2,2.6-0.3,5.3-2.4,7.3c-1.7-1-1.4-2.8-1.5-4.3
		c-0.1-6.2,0-12.3,0.1-18.5c0.3-3.5,0.6-7,0.9-10.5c4.6,6.7,11.4,10.2,18.8,12.8c21.5,7.8,44,9.3,66.5,10.3
		c15.2,0.7,30.4-0.7,45.5-2.2c5.3-0.6,10.6-1.7,16.8-2.7"/>
	<g>
		<path fill="none" d="M131.8,154.4c-0.9-0.5-1.8-1-2.7-0.1c-1.6,1.7-3.6,2.3-5.9,2.7c2.5,0.2,4.8,1.4,7.3,0.5
			c0.9-0.3,2-0.2,2.4-1.4C133.1,155.3,132.4,154.8,131.8,154.4z"/>
		<path fill="#6B463D" d="M241.4,127.9c-0.3,1.8,1.1,3.2,0.9,5c-0.7,5.6-6.5,8-12.3,5c-3.8-2.5-4.1-4.8-0.8-7.8c1-0.9,2.3-1.5,2.5-3
			c-0.5-1.6,0.5-2.9,0.6-4.4c-3.6-1.8-7.4-2.9-11.3-3.9c-0.1,1.8-0.2,3.7-0.3,5.5c0.3,4.1,1.1,8.4-2.5,11.8
			c-0.3,0.3-0.2,1.2-0.2,1.8c1,0.9,2,1.8,3,2.8c2.1,2,2.1,4.5,1.2,6.9c-0.8,2.3-2.7,3.6-5.2,3.7c-2.4,0.2-5,0.5-7.1-1.4
			c-3.1-2.9-3.1-5-0.1-7.5c1-0.9,2.4-1.4,2.2-3.1c-5.8,2.4-15.2,5-21.5,5.3c1.6,1.8,3,0.7,3,1.3c0.1,0.1,0.3,0.2,0.4,0.3
			c0,2.5,0.1,5,0.1,7.5c0.6,1.1,2.8,1.3,2,3c-0.6,1.4-2.2,1.7-3.5,1.4c-2-0.5-4.7,1.6-6.1-1.5c0-0.3,0-0.6,0-0.9
			c-1.1,0-2.2,0.2-3.3,0.1c-1.9-0.1-3.3-1-3.9-2.9c-0.5-1.8-0.1-3.4,1.3-4.7c1-0.9,2.4-1.3,2.7-2.8c-6.1,2-12.3,1.3-18.6,1.5
			c-1.1,2.6-0.7,5.3-0.8,7.9c0.7,0.9,2.6,1,2.1,2.6c-0.5,1.7-2.1,1.4-3.5,1.4c-2,0-4,0-6,0c-0.1-1.2,1.2-0.7,1.4-1.5
			c-0.3-0.3-0.7-0.7-1-1c-0.7,0.1-1.5,0.2-2.2,0.3c-2.3,0.1-4.6,0-5.5-2.7c-0.8-2.5,0.3-4.3,2.3-5.7c0.5-0.3,0.8-0.9,1.2-1.4
			c-6.9-0.4-13.9,0.3-20.8-0.7c-2.1-0.3-3.9-0.7-5.1-2.4c-0.6-0.9-1.3-1.4-2.4-1.5c0.9,1.8,1.9,3.5,2.8,5.3c1.4,2.7,0.4,4.9-2,6.4
			c-2.7,1.7-5.8,2.5-8.3,0.3c-2.1-1.8-1.6-4.3,0.2-6.3c0.8-0.9,1.8-1.7,2.7-2.5c-1.9-2.8-5.1-1.1-7.5-2c-3.4-1.2-7-1.8-10.6-2.6
			c-1.7,0-2.8,0.8-2,2.5c0.8,1.8,0.1,3.4-0.2,5.1c1.1,0.9,3.1,1.5,2.5,3.2c-0.5,1.5-2.4,1.4-3.9,1.3c-2.2-0.1-4.5,0.6-6.2-1.5
			c0-0.3,0-0.6-0.1-1c-5.4,0.3-7.6-1.3-6.8-5.1c0.2-0.7,0.4-1.7,0.9-1.9c3.8-2,3.7-5.8,4.6-9.2c-0.1-4.9-0.1-9.9-0.2-14.8
			c-1.5-0.7-3,0.2-4.4,0.3c-1.9,0.6-3.7,1.2-5.6,1.9c-0.4,0.2-0.7,0.4-1.1,0.5c-0.9,0.3-1.7,0.7-2.6,1c-1.2,1.2-4.7,1.8-1.2,4.3
			c2.4-1.5,3.5,1.1,3.9,2c0.7,1.6,3.1,3,1.5,5.2c-0.5,0.7-1,1.4-1,2.3c1.4,0.3,3.1,0.4,3,2.2c-0.1,2.1-2.1,1.9-3.5,1.8
			c-2.1-0.2-4.6,1-6.1-1.4c0-0.3,0-0.6-0.1-0.9c-0.7,0-1.5,0.1-2.2,0.1c-2.1,0.1-4.1-0.3-4.9-2.5c-0.8-2.3-0.1-4.1,1.8-5.5
			c0.9-0.7,2-1.2,2.2-2.4c0.3-1.5-0.7-0.7-1.3-0.7c-3.8,3.1-6.8,6.5-6.1,11.9c4.6,6.7,11.4,10.2,18.8,12.8
			c21.5,7.8,44,9.3,66.5,10.3c15.2,0.7,30.4-0.7,45.5-2.2c5.3-0.6,10.6-1.7,16.8-2.7c0,0,3-0.6,4.7-1c4.1-1,7.8-2.6,11.6-3.3
			c4.7-0.9,8.4-3.5,12.7-5.2c3.2-1.2,5.3-4.7,8.8-5.7C248.3,136.4,248,130.7,241.4,127.9z M132.9,156.1c-0.3,1.2-1.5,1.1-2.4,1.4
			c-2.5,0.9-4.8-0.3-7.3-0.5c2.2-0.4,4.3-1,5.9-2.7c0.9-1,1.8-0.4,2.7,0.1C132.4,154.8,133.1,155.3,132.9,156.1z"/>
	</g>
	<path fill="#350E09" d="M210.5,169.5c-0.8-0.8-1.7-1.6-2.6-2.5c3.2-0.5-3.5-8.2-1.3-8.6c1.7-0.3,5.8-1.1,8.4-1.8
		c4.1-1,7.8-2.6,11.6-3.3c4.7-0.9,8.4-3.5,12.7-5.2c3.2-1.2,5.3-4.7,8.8-5.7c0.6,1.5,0.5,3,0.4,4.5c-0.8,0.1-1.9,0-1.9,1.3
		c0,1.2,0.9,1.6,2,1.8c0.8,9.7,1.1,19.4,0.7,29.2c-0.1,2.1,0,4.3-1.3,6.1c-3.1-0.6-2.8-3.2-2.9-5.3c-0.2-3.7,0-7.5-0.1-11.2
		c0-1.4-0.3-2.7-0.6-4c-0.2-1-0.8-1.8-2-2c-1.2-0.1-1.8,0.5-2.3,1.5c-0.6,1.1-1.1,2.2-1.7,3.3c-2.6,4.8-5.6,5.8-10.4,3.5
		c-3-1.5-4.5-1-5.1,2.5c-0.6,3.4-0.6,6.8-0.2,10c0.7,5.7,0.6,11.4,0.6,17.2c-1.4,2.2-3,2-4.6,0.2c-1.1-4.8-0.7-9.7-0.2-14.5
		c0.5-4.5,0.7-9-1.3-13.2C215.8,170.5,214.2,168,210.5,169.5z"/>
	<path fill="#FFFFFF" d="M221,118.8c-0.1,1.8-0.2,3.7-0.3,5.5c-3.3,2.7-7.1,4-11.3,2.8c-2.6-0.8-4.7-2.6-7-4.1
		c-4.3-2.8-5.7-2.6-9.3,0.9c0-2.8,0-5.7,0-8.5c1.1-1.6,2.8-1.5,4.5-1.4c0.1,0.6,0.3,1.2,0.4,1.8c0.3,1.3,0.3,2.8,2,3.1
		c2.2,0.3,1.8-1.8,2.6-2.9c2.3,0.6,4.4,1.4,6.2,3c2.5,2.3,5.3,1.2,9.1-3.1c0.9,0.1,1.8,0.1,2.7,0.2C220.8,117,220.9,117.9,221,118.8
		z"/>
	<path fill="#F2E8DC" d="M73.1,138.5c-0.7,0-1.5,0.1-2.2,0.1c-2.1,0.1-4.1-0.3-4.9-2.5c-0.8-2.3-0.1-4.1,1.8-5.5
		c0.9-0.7,2-1.2,2.2-2.4c0.3-1.5-0.7-0.7-1.3-0.7c1.4-0.4,2.1-2.2,3.8-3.1c0.5-0.3,1.1,0.2,0.9,0.8c-0.1,0.4,0.3,1,1.9,2.1
		c0.2,0.6,0.3,1.2,0.6,1.7C78.6,134.3,78.3,135.6,73.1,138.5z M72.7,135.9c3.7-2.1,3.6-4.3-0.4-9.5c-0.2,3.2,1.8,6.3,0.1,9.3
		c-0.2,0.1-0.4,0.3-0.5,0.4C72.2,136.4,72.4,136.2,72.7,135.9z M71.1,131.8c-0.8,1.5-2.6,1.4-4.5,2.5
		C69.7,135.5,71.1,134.9,71.1,131.8z"/>
	<path fill="#F2E8DC" d="M230.1,137.9c-3.8-2.5-4.1-4.8-0.8-7.8c1-0.9,2.3-1.5,2.5-3c2.6-1.2,2.1,1.3,2.5,2.3
		c0.7,1.6-0.4,3.6,0.7,5.3c1.7-1,2.6-2,1.6-4c-1.4-2.7-2.5-5.5-3.7-8.2c2.6-2.7,1.9,1.3,3,1.5c0.4,1.9,1.6,3.5,2.5,5.2
		c1.9,3.7-0.5,8-4.6,8.6C232.5,137.9,231.3,137.9,230.1,137.9z M232.6,130.3c-1.7,1.7-3.3,2.4-3.9,4.4
		C231.6,134.8,232.8,133.6,232.6,130.3z"/>
	<path fill="#855D3A" d="M230.1,137.9c1.2,0,2.5,0,3.7-0.1c4.1-0.5,6.6-4.9,4.6-8.6c-0.9-1.7-2.1-3.3-2.5-5.2
		c1.8,1.1,3.9,1.6,5.3,3.2c-0.2,0.2-0.3,0.4-0.5,0.6c0.2,0,0.4,0.1,0.6,0.1c0,0,0.1-0.1,0.1-0.1c-0.3,1.8,1.1,3.2,0.9,5
		C241.7,138.5,235.8,141,230.1,137.9z"/>
	<path fill="#855D3A" d="M232.9,122.5c1.2,2.8,2.3,5.6,3.7,8.2c1,2,0.1,2.9-1.6,4c-1.1-1.7-0.1-3.7-0.7-5.3
		c-0.4-1.1,0.1-3.5-2.5-2.3c-0.5-1.6,0.5-2.9,0.6-4.4C232.5,122.5,232.7,122.5,232.9,122.5z"/>
	<path fill="#350E09" d="M248.5,149.9c-1.1-0.2-2-0.6-2-1.8c0-1.2,1-1.2,1.9-1.3C248.5,147.9,248.5,148.9,248.5,149.9z"/>
	<path fill="#350E09" d="M241.3,128c-0.2,0-0.4-0.1-0.6-0.1c0.2-0.2,0.3-0.4,0.5-0.6c0.1,0.2,0.2,0.3,0.2,0.5
		C241.5,127.8,241.4,127.9,241.3,128z"/>
	<path fill="#F2E8DC" d="M80.3,121.5c-0.4,0.2-0.7,0.4-1.1,0.5C79.5,121.9,79.9,121.7,80.3,121.5z"/>
	<path fill="#855D3A" d="M160.9,62.8c1,0.9,2.1,1.8,3.1,2.7c0.4,0.3,0.7,0.7,1.1,1c0.4,1.6,1.3,2.4,0.9,4.9c-0.2,0.7-0.5,1.3-0.7,2
		c-2,2.4-5.1,2.6-7.6,3.9c-1.3,0.2-1.2-0.9-1.5-1.7c6.6-2.3,7.4-4.4,4.2-10.6c-0.3-0.7-1.3-1.3-0.4-2.2
		C160.4,62.8,160.6,62.8,160.9,62.8z"/>
	<path fill="#855D3A" d="M130.1,77.4c5.9-3.8,2.2-8,0-11.8c1.2-0.6,1.6,0.4,2.3,0.4c0.5,0.6,1,1.2,1.6,1.8c0.8,0.8,1.5,1.7,2.3,2.5
		c0.1,0.1,0.6,0.6,0.7,0.8c0,0,0,0.3,0,0.7c0.2,1.5-0.4,3-0.8,4.4c-1.8,1.3-3.5,2.8-5.9,3C130.1,78.6,130.1,78,130.1,77.4z"/>
	<path fill="#F2E8DC" d="M156.4,97.3c-2.5-0.1-5.2,0.3-6.2-2.8c-0.9-2.9,0.8-4.6,2.9-6.1c1.2-0.8,1.7-2.1,1.7-3.5
		c0-1.8,0.6-3.3,2.4-4.3c1,1.5,0.8,3.3,2,4.5C163.3,93.2,163,94.4,156.4,97.3z M156.4,94.3c4.4-0.9,4.4-3.2,0.2-10.1
		C156,87.6,158.7,91,156.4,94.3c0,0.1-0.1,0.2-0.2,0.3c0,0,0,0.1,0,0.2C156.2,94.6,156.3,94.5,156.4,94.3z M151.2,92.5
		c3.2,1.6,3.7,1.4,4.2-2.4C154.3,91.6,152.9,92,151.2,92.5z"/>
	<path fill="#F2E8DC" d="M128,80.1c0,2.8,1.9,4.8,3.1,7.1c1.4,2.6,1.7,5-0.7,7.1c-2.5,2.2-5.4,2.6-8.4,1.4c-2.1-0.9-2.8-4.5-1-6.2
		c2.4-2.2,4.2-4.4,4.4-7.8c0.1-1.1,1.1-1.9,2.2-2.3C127.8,79.7,127.9,79.9,128,80.1z M126.4,93.6c2.3,0.3,3.3-1.2,3.3-3
		c0.1-2.1-0.5-4.2-3.4-5.5C127.4,88.3,128.1,91,126.4,93.6l-0.1,0.3L126.4,93.6z M125.4,89.7c-1.1,1.1-2.6,1.2-4,2
		C124.4,93.3,124.6,93.2,125.4,89.7z"/>
	<path fill="#F2E8DC" d="M185.3,79c0.9-0.9,1.1,0.4,1.6,0.6c0,0.2,0.1,0.4,0.3,0.6c-0.2,0.9,0.2,1.6,0.8,2.3
		c0.4,0.9,0.8,1.8,1.3,2.6c2.9,5.2,2.3,7.1-2.9,10c-1,0.1-2,0.2-3,0.2c-1.9,0-3.4-0.7-4.1-2.6c-0.7-1.9-0.4-3.9,1.4-5
		c2.9-1.7,3.4-4.4,3.6-7.3c0.3-0.4,0.7-0.8,1-1.2L185.3,79z M184.4,93.1c5.4-2.6,5.4-5.3,1-10.6C185.3,86,188.1,89.4,184.4,93.1z
		 M179.5,90.5c4.3,1.3,4.5,1.1,5-2.6C183.4,89.3,182,89.9,179.5,90.5z"/>
	<path fill="#855D3A" d="M156.4,97.3c6.6-2.9,6.9-4.1,2.8-12.4c3.2-0.6,5.8,2,6.1,6.2c0.1,1.3,0,2.7,0,4.1c-2.9,1.3-5.4,3.9-9,2.9
		C156.4,97.8,156.4,97.6,156.4,97.3z"/>
	<path fill="#855D3A" d="M186.3,95c5.2-2.8,5.8-4.8,2.9-10c-0.5-0.8-0.9-1.8-1.3-2.6c5.5,0.8,7.8,6.7,4.5,11.3
		c-1.5,2.2-3.7,2.3-6.1,2.2C186.4,95.6,186.4,95.3,186.3,95z"/>
	<path fill="#855D3A" d="M100.9,87.8c5.2-2.9,5.8-4.6,3.2-9.9c3.8-0.1,5.1,1.3,4.5,5.1c-0.1,1-0.1,2-0.2,3c-1.8,1.1-3.4,2.8-5.7,2.7
		C102.1,88.3,101.5,88,100.9,87.8z"/>
	<path fill="#350E09" d="M127,97.7c2.4-0.2,4.7-0.6,6.4-2.5c1-1.2,2-0.5,3,0.1c0.7,0.4,1.2,1,1,1.8c-0.3,1.2-1.5,1.2-2.4,1.4
		C132.3,99.5,129.7,98.2,127,97.7z"/>
	<path fill="#350E09" d="M156.4,98.1c3.6,0.9,6.1-1.6,9-2.9c0.2,1.2,2.5,1.3,1.8,2.8c-0.6,1.3-2.1,1.6-3.5,1.6
		C161.2,99.6,158.6,100,156.4,98.1z"/>
	<path fill="#350E09" d="M128,80.1c-0.1-0.2-0.2-0.5-0.3-0.7c0.8-0.1,1.7-0.1,2.5-0.2c2.4-0.1,4.1-1.7,5.9-3c1,0.9,2.7,1.5,2.1,3.1
		c-0.5,1.3-2.3,1.5-3.6,1.4C132.4,80.7,130.2,80.3,128,80.1z"/>
	<path fill="#350E09" d="M186.4,95.9c2.3,0.1,4.6,0,6.1-2.2c1.7-0.1,3.6,0.1,3.5,2.1c-0.1,1.9-2.2,1.7-3.6,1.6
		C190.4,97.2,187.9,98.4,186.4,95.9z"/>
	<path fill="#350E09" d="M157.8,77.4c2.5-1.4,5.6-1.5,7.6-3.9c0.7,1,2.8,1.3,2.1,3.1c-0.7,1.8-2.4,1.4-3.8,1.4
		C161.7,77.8,159.8,77.5,157.8,77.4z"/>
	<path fill="#350E09" d="M102.6,88.6c2.4,0.1,3.9-1.6,5.7-2.7c0.8,0.9,3,1,2.6,2.6c-0.4,1.9-2.4,1.3-3.7,1.4
		c-1.5,0.1-2.9,0.1-4.4-0.1C101.8,89.8,102.3,89.1,102.6,88.6z"/>
	<path fill="#350E09" d="M187.2,80.1c-0.1-0.2-0.2-0.4-0.3-0.6c1.8-1.3,3.6-2.7,5.4-4c1,0.8,3,0.9,2.7,2.6c-0.4,1.7-2.4,1.5-3.7,1.8
		C190,80.2,188.6,80.1,187.2,80.1z"/>
	<path fill="#855D3A" d="M183.7,75c0.9-0.9,1.7-0.1,1.2,0.1c-1,0.6-2.6,2.3-2.3,2.4c-0.4,0.3,0.3,0.8,2.3-0.2
		c-2.4,1.2-4.4,0.8-4.4-0.5C181,75.7,182.3,76.4,183.7,75z"/>
	<path fill="#350E09" d="M208.6,88.3c3-0.2,5.6-1.2,7.8-3.3c0.8,1,3,1,2.6,2.7c-0.5,1.6-2.4,1.5-3.8,1.4
		C212.9,89,210.6,89.7,208.6,88.3z"/>
	<path fill="#F2E8DC" d="M185.2,79c-0.3,0.4-0.7,0.8-1,1.2C184.2,79.6,184.3,79,185.2,79z"/>
	<path fill="#855D3A" d="M184.8,64c0,1.7,1,3.1,1.8,4.5c1.4,2.8,1.2,5-1.6,6.6c-0.4,0-0.8-0.1-1.2-0.1c1.3-1.7,2.2-3.4,0.5-5.4
		C184.9,67.8,181.3,65.6,184.8,64z"/>
	<path fill="#F2E8DC" d="M184.2,69.6c1.7,2,0.8,3.7-0.5,5.4C180.7,73.3,180.8,72.1,184.2,69.6z"/>
	<path fill="#F78E1F" d="M90.3,105.1c2.2-1.6,1-3.8,1.2-5.8c0.1-1.6-1.8-6,3.1-2.9c0.3,0.2,1-0.1,1.4-0.3c2.4-1.6,3.2-0.1,3.6,1.8
		c0.6,3.4,1.8,5.6,6,3.1c0,4.1,0,7.7,0,11.3c0,1.1,0,2.3,0.2,3.4c0.2,1.1,0.6,2.4,1.9,2.4c1.5,0,2.1-1.3,2.2-2.6
		c0.1-2.5,0.1-5,0-7.5c0-1.7,0.3-3,2.4-2.9c1.5,0.1,2.4-1.2,3.5-1.9c3.2-2.2,6.1-1.5,7.4,2.1c0.9,2.6,2.2,3.2,4.8,2.2
		c3.6-1.4,5-0.5,5.3,3.5c0.2,2,0,4,0,6c-6.1-3.4-11.2-2.9-16.3,1.8c-0.9,0.8-1.7,1.8-2.7,2.5c-3.5,2.8-6.7,2.4-9.1-1.4
		c-3.1-4.8-6.9-8.1-12.9-7.9c-1.3,0-1.8-0.6-1.8-1.8C90.3,108.3,90.3,106.7,90.3,105.1z"/>
	<path fill="#F78E1F" d="M196.8,105c-1.2-0.1-1.2,0.9-1.7,1.7c-0.6,1.1-0.1,2.6-1.3,3.4c-0.5,0.3-1,0.5-1.4,0.8
		c-1.5-0.4-2.1-1.7-2.6-2.9c-0.9-2.5-1.6-5-5.1-2.9c-0.8,0.5-1.6-0.1-2.1-1c-1.2-2.1-2.3-1.4-3.2,0.3c-1,2-2.3,3.2-4.7,2.6
		c-2.1-0.6-2.7,0.6-2.7,2.4c0,1.7,0.1,3.5,0,5.2c-0.1,1.2-0.9,2.1-2.2,2.1c-1.3,0.1-2.3-0.8-2.2-2c0.3-4.1-1.1-6.7-5.4-7.3
		c-0.2,0-0.4-0.3-0.5-0.5c-2-1.9-4-1.9-5.8,0.3c-1.6,2-3.3,2.4-5.8,1.6c-4-1.2-5.8,0.1-7.2,4c-0.2,0.6-0.4,1.2-1.2,1.1
		c-0.7-0.1-0.9-0.7-1.2-1.3c-0.4-0.7,0.6-3.2-1.8-1.5c-0.3,3.8,2,8.1-1.9,11.3c0.4,0.8,0.8,1.5,1.2,2.3c2.5,4.8,6.1,5.1,9.4,0.7
		c1-1.3,1.9-2.6,2.7-4c3.5-5.3,8.9-6.8,14.5-4.4c3.2,1.4,5.3,4,7.5,6.5c3.9,4.5,9.6,4.7,13.8-1.1c1.9-2.6,3.7-5.3,6.4-7.2
		c0.2,0.1,0.5,0.2,0.7,0.3c1.1-1.6,2.8-1.5,4.5-1.4c0.2-2.2,0.5-4.4,0.6-6.7C198.3,106.3,198.2,105.2,196.8,105z"/>
	<path fill="#D55834" d="M220.7,124.3c-3.3,2.7-7.1,4-11.3,2.8c-2.6-0.8-4.7-2.6-7-4.1c-4.3-2.8-5.7-2.6-9.3,0.9
		c-0.1,0.2-0.1,0.3-0.1,0.5c-0.2,0.4-0.5,0.9-0.7,1.3c-0.4,0.4-0.9,0.8-1.3,1.3c-6.9,8.2-15.6,8.7-23.3,1.3
		c-1.6-1.6-3.1-3.2-4.9-4.6c-2.2-1.8-4.4-1.5-6.3,0.6c-0.9,1-1.7,2.2-2.3,3.4c-2.9,5.2-7,8-13.1,7.3c-5.5-0.6-8-4.6-9.9-9
		c-2.5-5.6-5.3-6.2-10-2.2c-2.3,2-4.5,4.3-7.6,5.2c-6.3,1.7-10.8-0.2-15.1-6.6c-2-3-4.3-4.9-8-2.9c0.1,4.9,0.1,9.9,0.2,14.8
		c2-0.7,2,1.1,2.7,2.1c0.6,0.4,0.9,1,0.8,1.7L94,138c3-0.2,5.4,1.1,7.7,2.8c3.5,0.8,7.2,1.3,10.6,2.6c2.5,0.9,5.6-0.8,7.5,2
		c1.3-2-0.1-5.1,3-6.6c0.5,1.1,1,2.3,1.5,3.5c1.1,0.1,1.8,0.6,2.4,1.5c1.2,1.8,3,2.1,5.1,2.4c6.9,1,13.9,0.4,20.8,0.7
		c1.4-1.2,0.5-3.1,1.3-4.3c0.6-0.9,0.6-3.4,2.9-1.5c1.2,0.3,0.9,1.2,0.9,2.1l-0.1,0c0.3,0.3,0.5,0.6,0.8,0.9l-0.2,0.1
		c2.4,0.3,3.4,3.7,6.4,2.8c6.2-0.3,12.5,0.4,18.6-1.5c0.2-0.8,0.5-1.6,0.6-2.5c0.3-1.3,0.4-3.1,1.8-3.3c1.8-0.3,1,2.1,2.1,2.8
		c1.8,0.1,2.6,2.4,4.6,2.2v0c0.8,0.2,0.8,0.2,1.5,0.2c0,0,0,0,0,0c6.3-0.4,12.3-3.1,18.1-5.5c0.6-1.8,1.2-3.7,1.9-5.6
		c1.7,0.4,1.8,1.9,2.5,2.8c0.7,0.3,0.8,0.8,0.7,1.5c0,0,0,0,0,0c0.3-0.1,0.6-0.1,0.9-0.2c0.1-0.6-0.1-1.4,0.2-1.8
		C221.8,132.7,221,128.4,220.7,124.3z"/>
	<path fill="#350E09" d="M221.9,100.4c-0.1-1.5-0.1-3-0.2-4.5c-0.3-2.5-0.6-5-0.9-7.5c-4,4.6-9.4,6.8-15.1,8.3
		c-3.5,0.9-6.9,1.8-10.4,2.8c-11.1,1.4-22.2,2.7-33.4,3c-16.3,0.4-32.6-0.5-48.6-3.8C104.9,97,96.2,95.4,90,88.4
		c-0.4,5-0.7,10-1.1,14.9c0.5,0.6,0.9,1.1,1.4,1.7c2.2-1.6,1-3.8,1.2-5.8c0.1-1.6-1.8-6,3.1-2.9c0.3,0.2,1-0.1,1.4-0.3
		c2.4-1.6,3.2-0.1,3.6,1.8c0.6,3.4,1.8,5.6,6,3.1c0,4.1,0,7.7,0,11.3c0,1.1,0,2.3,0.2,3.4c0.2,1.1,0.6,2.4,1.9,2.4
		c1.5,0,2.1-1.3,2.2-2.6c0.1-2.5,0.1-5,0-7.5c0-1.7,0.3-3,2.4-2.9c1.5,0.1,2.4-1.2,3.5-1.9c3.2-2.2,6.1-1.5,7.4,2.1
		c0.9,2.6,2.2,3.2,4.8,2.2c3.6-1.4,5-0.5,5.3,3.5c0.2,2,0,4,0,6c0.3,1.3,0.6,2.6,0.9,3.9l0,0c0,0,0,0,0,0l0,0l0,0
		c0.4,1.6,1.7,1.6,2.9,1.6c3.9-3.2,1.7-7.5,1.9-11.3c2.4-1.7,1.4,0.8,1.8,1.5c0.3,0.6,0.5,1.2,1.2,1.3c0.8,0.1,1-0.5,1.2-1.1
		c1.3-3.9,3.2-5.1,7.2-4c2.6,0.8,4.2,0.4,5.8-1.6c1.8-2.2,3.8-2.2,5.8-0.3c0.2,0.2,0.3,0.5,0.5,0.5c4.2,0.7,5.7,3.3,5.4,7.3
		c-0.1,1.2,0.9,2,2.2,2c1.3-0.1,2.1-0.9,2.2-2.1c0.1-1.7,0-3.5,0-5.2c0-1.8,0.5-3,2.7-2.4c2.4,0.6,3.7-0.6,4.7-2.6
		c0.9-1.7,1.9-2.4,3.2-0.3c0.5,0.9,1.4,1.5,2.1,1c3.5-2.1,4.2,0.5,5.1,2.9c0.5,1.3,1.1,2.5,2.6,2.9c0.5-0.3,1-0.5,1.4-0.8
		c-1.2-1.4-1.7-3.1-1.7-4.7c-0.1,1.6,0.5,3.3,1.7,4.7c1.2-0.8,0.7-2.3,1.3-3.4c0.4-0.7,0.5-1.8,1.7-1.7c1.4,0.2,1.4,1.3,1.4,2.3
		c-0.1,2.2-0.4,4.5-0.6,6.7c0.1,0.6,0.3,1.2,0.4,1.8c0.3,1.3,0.3,2.8,2,3.1c2.2,0.3,1.8-1.8,2.6-2.9c0.1-3.5,0.2-7,0.2-10.4
		c0-2.5,0.6-3.4,3.3-2.4c2.6,1,4.8-0.1,6.5-2.3c0.7-0.9,1.2-2.4,2.8-1.8c1.6,0.6,1.6,2,1.7,3.4c0.2,3.8-0.7,7.6,0.1,11.4
		c0.2,0.7,0.5,1.4,0.8,2.1c0.9,0.1,1.8,0.1,2.7,0.2c1.5-3.1,0.7-6.5,1.4-9.7C222,104.4,222,102.4,221.9,100.4z"/>
	<path fill="#F78E1F" d="M218,115.9c-3.9,4.3-6.6,5.4-9.1,3.1c-1.9-1.7-4-2.4-6.2-3c0.1-3.5,0.2-7,0.2-10.4c0-2.5,0.6-3.4,3.3-2.4
		c2.6,1,4.8-0.1,6.5-2.3c0.7-0.9,1.2-2.4,2.8-1.8c1.6,0.6,1.6,2,1.7,3.4c0.2,3.8-0.7,7.6,0.1,11.4
		C217.4,114.6,217.7,115.2,218,115.9z"/>
	<path fill="#855D3A" d="M208.1,73.7c4.2,7.9,4.1,8.9-0.8,11.1C210.6,81.1,207.8,77.7,208.1,73.7z"/>
	<path fill="#855D3A" d="M203.1,82.2c1.5-0.4,2.8-1.1,4-2.4C206.6,83.6,206.3,83.8,203.1,82.2z"/>
	<path fill="#855D3A" d="M210.7,74.5c0-0.3-0.1-0.6-0.1-0.9c0.2,0.1,0.5,0.3,0.7,0.4C211.1,74.1,210.9,74.3,210.7,74.5z"/>
	<path fill="#855D3A" d="M126.8,76c3.5-3.6,0.6-7,1.1-10.3C131.9,71,132,74.8,126.8,76z"/>
	<path fill="#855D3A" d="M100.3,85.1c2-3.3-0.4-6.3-0.2-9.5C104,80,104.2,82.9,100.3,85.1z"/>
	<path fill="#FAFBFB" d="M188.5,63.6c-0.1-0.2-0.1-0.4-0.1-0.6c0-0.1,0.2-0.1,0.3-0.2C188.6,63.1,188.6,63.3,188.5,63.6z"/>
	<path fill="#D55834" d="M247.2,198.8c-1.3-1.6-2.5-3.4-4-4.8c-3.1-3.1-7.9-2.7-11.1,1c-1.3,1.6-2.3,3.5-3.4,5.3
		c-5,8.2-8.7,10-18.2,8.3c-0.1-0.2-0.2-0.3-0.3-0.5c-3.7-0.8-5.8-3.7-8.3-6c-1.3-1.2-2.4-2.6-3.7-3.7c-4.3-3.6-9.3-2.7-11.9,2.3
		c-1.7,3.2-2.8,6.7-4.4,9.9c-3.4,6.7-9.5,9.2-16.6,7c-3.4-1.1-5.8-3.3-7.6-6.3c-1.7-2.8-3.1-5.7-4.8-8.4c-3.4-5.5-8.1-6.1-12.5-1.4
		c-2.3,2.5-4.3,5.2-6.5,7.7c-8.9,9.6-20.7,8.8-28.3-1.9c-1.9-2.6-3.5-5.5-5.4-8.1c-3-4.1-5.6-4.6-9.9-1.9c-2.6,1.7-5,3.8-7.5,5.6
		c-1.7,1.2-3.4,2.6-5.7,2.7c0,0,0,0,0,0c-5,1.6-9.3,0.1-12.8-4.5c-0.3-0.2-0.5-0.4-0.8-0.6c-1.2,4.7-0.5,9.4,0.1,14
		c0.2,0.1,0.4,0.2,0.5,0.2c7.5,7.3,16.5,11.2,26.6,13.6c7.5,1.8,15.1,3.1,22.6,4.5c18.9,3.4,38,2.7,57.1,2.8c0.4,0,0.7,0.1,1.1,0.1
		c5.4,0.2,10.6-1.2,15.9-1.5c7.9-0.4,15.6-1.7,23.2-3.7c9.8-1.2,19-4.2,27.6-8.8C249.1,215.6,248.9,210.6,247.2,198.8z"/>
	<path fill="#FFFFFF" d="M247.2,198.8c-1.3-1.6-2.5-3.4-4-4.8c-3.1-3.1-7.9-2.7-11.1,1c-1.3,1.6-2.3,3.5-3.4,5.3
		c-5,8.2-8.7,10-18.2,8.3c-0.1-0.2-0.2-0.3-0.3-0.5c0-2.8,0-5.6-0.1-8.4c0.1-0.1,0.2-0.2,0.3-0.3c2.4,2.1,5.3,1.5,8.1,1.5
		c1.6,1.8,3.2,2,4.6-0.2c1-0.6,0.7-1.5,0.7-2.3c0.5-9.5,8.1-15.6,17.6-14c4.5,0.7,6.5,3,6.4,7.5
		C247.8,194.2,248.6,196.6,247.2,198.8z"/>
	<path fill="#F78E1F" d="M64.8,188.9c-3.1-5.1-2.1-10.7-1.6-16.2c2.1-2,2.1-4.7,2.4-7.3c0.3-3.7,0.5-7.5,0.8-11.2
		c0.1-0.9,0.3-1.9,1.4-1.8c0.9,0.1,1,1,1.1,1.7c0.2,1.7,0.4,3.5,0.6,5.2c0.1,0.9,0.3,1.9,1.3,2c1.1,0.1,1.3-1,1.5-1.8
		c0.3-1,0.2-2,0.5-2.9c0.4-1.2-0.1-3.4,1.7-3.2c1.5,0.1,1.2,2.2,1.5,3.5c0.3,1.3,0.2,2.8,0.4,4.1c0.2,1.2,0.3,2.6,1.9,2.9
		c1.4,0.2,2.3-0.7,3-1.8c0.7-1,0.8-2.7,2.4-2.4c1.7,0.3,2.2,2,2.5,3.4c1,3.7,0.5,7.4,0.1,11.2c-0.4,3-0.8,5.9-1,8.9
		c-0.1,1.8-0.4,4.4,2.1,4.5c2.7,0.2,2.7-2.5,2.7-4.5c0.1-3.5,0-7,0-10.5c0-1.1,0-2.3,0.3-3.3c0.8-2.7,2.7-3,4.6-0.9
		c3.2,3.5,4.3,3.2,5.9-1.3c0.8-2.2,0.8-5.7,4-5.6c3.4,0.1,3.3,3.6,3.8,6c0.9,4.3,1.5,8.6,2.3,12.9c0.2,1.3,0.5,2.9,2.3,2.9
		c1.5,0,1.8-1.5,2.3-2.6c0.3-0.7,0.5-1.4,0.8-2.1c0.7-2.1,1.6-4.1,4.4-3.7c2.7,0.4,3.7,2.4,3.9,4.8c0.3,3.5,0.1,7-0.3,10.5
		c-0.4,3.1-0.7,6.2-0.8,9.3c-0.1,2,0.4,4,2.4,5.1c0.1,1.5-1.1,1.7-2.2,2.1c-5,1.7-9.3,0.5-12.8-4c-2.1-2.7-3.9-5.7-5.8-8.6
		c-5.2-7.4-11.1-8.9-18.8-4.1c-3.5,2.2-6.5,5.1-9.8,7.7c-0.5,0.1-0.9,0.2-1.4,0.2c-1,0-2,0-3,0c-0.5-0.1-0.9-0.2-1.4-0.2
		c-0.5-0.4-1-0.8-1.5-1.2c-0.1-0.2-0.2-0.4-0.5-0.4c-0.4-0.4-0.8-0.9-1.2-1.3c0,0,0,0,0,0c0-1.1-0.7-1.8-1.4-2.5
		c0.1-0.2,0-0.4-0.2-0.5c0.1-1.1-0.6-1.7-1.3-2.4C65,189.3,65,189.1,64.8,188.9z"/>
	<path fill="#FFFFFF" d="M130.2,201.2c2.6-1.5,3.8-4.2,5.8-6.2c7.6-8,17.2-5.1,21.9,2.7c1.7,2.7,3.1,5.7,4.8,8.4
		c3.9,6,10.5,5.7,13.7-0.6c1.5-3,2.6-6.1,4.1-9.1c4.2-8.6,15.2-10.6,22.2-4c2.5,2.4,4.9,4.9,7.3,7.3c0,2.8,0,5.6,0.1,8.4
		c-3.7-0.8-5.8-3.7-8.3-6c-1.3-1.2-2.4-2.6-3.7-3.7c-4.3-3.6-9.3-2.7-11.9,2.3c-1.7,3.2-2.8,6.7-4.4,9.9c-3.4,6.7-9.5,9.2-16.6,7
		c-3.4-1.1-5.8-3.3-7.6-6.3c-1.7-2.8-3.1-5.7-4.8-8.4c-3.4-5.5-8.1-6.1-12.5-1.4c-2.3,2.5-4.3,5.2-6.5,7.7
		c-8.9,9.6-20.7,8.8-28.3-1.9c-1.9-2.6-3.5-5.5-5.4-8.1c-3-4.1-5.6-4.6-9.9-1.9c-2.6,1.7-5,3.8-7.5,5.6c-1.7,1.2-3.4,2.6-5.7,2.7
		c0.1-0.7-6.9,3.4-12.8-4.5c-0.4-0.5-0.8-16.3-0.6-15.8c7.7,18.3,11.9,10.7,13.3,11.7c3.3-2.6,6.3-4.5,9.8-6.7
		c7.7-4.7,13.7-3.3,18.8,4.1c2,2.8,3.7,5.8,5.8,8.6c3.5,4.5,7.8,5.8,12.8,4c1.1-0.4,2.2-0.6,2.2-2.1
		C128.5,204.6,129.4,203,130.2,201.2z"/>
	<path fill="#F78E1F" d="M218.4,186.4c0.5-4.5,0.7-9-1.3-13.2c-1.3-2.7-2.8-5.2-6.5-3.7c-0.1,0.2-0.2,0.4-0.2,0.6
		c-4.5,0.9-6.2-2.1-7.6-5.5c-0.4-1-0.9-2.2-2.3-2c-1.2,0.2-1.3,1.4-1.4,2.4c-0.3,1.8-0.4,3.7-0.6,5.6c-0.2,1.7-0.5,3.4-0.9,5.1
		c-0.2,0.9-0.6,1.8-1.6,1.8c-1.2,0-1.7-0.9-1.9-1.9c-0.5-2.3-1-4.6-1.4-7c-0.3-1.4-0.3-3.1-1.9-3.3c-1.3-0.2-2,1.3-2.7,2.4
		c-1.4,2.1-2.3,4.5-4.9,5.4c-6.2,2.3-7.4,4-7.1,10.7c0.1,2.6,0.5,5.2,0.6,7.8c0.1,2.1-0.8,3.8-3.1,3.8c-2.2,0-2.9-1.6-2.9-3.6
		c0-2.5,0.2-5,0.3-7.5c0-1.8-0.1-3.9-1.8-4.7c-3.8-1.8-5.9-5.2-8.5-8.2c-2.5-2.9-4.4-2.5-5.5,1.2c-0.7,2.3-1,4.6-1.5,6.9
		c-0.4,1.7-0.7,3.4-1.2,5.1c-0.4,1.4-1.1,2.6-2.8,2.6c-1.8,0-2.6-1.3-3-2.9c-0.2-0.8-0.4-1.7-0.5-2.6c-0.3-1.9,0.4-4.7-1.8-5.3
		c-2.5-0.8-2.7,2.4-3.8,3.8c-0.7,0.9-1.4,1.9-2.7,1.7c-1.3-0.2-1.8-1.2-2.2-2.3c-0.3-1.1-0.5-2.2-0.8-3.3c-0.3-1.1-0.5-2.4-1.9-2.4
		c-1.6,0-1.9,1.4-2.1,2.6c-0.2,1.1-0.5,2.2-0.5,3.3c-0.1,7.1-0.1,14.2-0.1,21.3c2.6-1.5,3.8-4.2,5.8-6.2c7.6-8,17.2-5.1,21.9,2.7
		c1.7,2.7,3.1,5.7,4.8,8.4c3.9,6,10.5,5.7,13.7-0.6c1.5-3,2.6-6.1,4.1-9.1c4.2-8.6,15.2-10.6,22.2-4c2.5,2.4,4.9,4.9,7.3,7.3
		c0.1-0.1,0.2-0.2,0.3-0.3c2.4,2.1,5.3,1.5,8.1,1.5C217.4,196.1,217.8,191.2,218.4,186.4z"/>
	<path fill="#F2E8DC" d="M211.9,139.3c0.6-1.8,1.2-3.7,1.9-5.6c1.7,0.4,1.8,1.9,2.5,2.8c0,0.6,0,1.2,0.7,1.5c0,0,0,0,0,0
		c0.2,1.3,1.1,2.2,1.7,3.3c2.1,3.6-0.5,8.5-4.8,8.7c-1.4,0.1-2.7,0-4.1,0c-3.1-2.9-3.1-5-0.1-7.5C210.8,141.6,212.1,141,211.9,139.3
		z M214.9,146.9c3.2-1.6,3-4.6-0.9-8.6C214.7,141.3,215.1,144.1,214.9,146.9c-0.5,0.1-1.2,0.1-1.1,0.9c0,0.1,0.2,0.2,0.2,0.2
		C214.9,148.1,214.9,147.5,214.9,146.9z M208.3,146.3c3.1,0.8,4.4,0.2,5-2.3C211.6,144.8,210.4,145.4,208.3,146.3z"/>
	<path fill="#855D3A" d="M209.9,149.9c1.4,0,2.8,0.1,4.1,0c4.2-0.2,6.9-5.1,4.8-8.7c-0.6-1.1-1.5-2-1.7-3.3c0.3-0.1,0.6-0.1,0.9-0.2
		c1,0.9,2,1.8,3,2.8c2.1,2,2.1,4.5,1.2,6.9c-0.8,2.3-2.7,3.6-5.2,3.7C214.6,151.4,212,151.8,209.9,149.9z"/>
	<path fill="#F2E8DC" d="M183.2,145.4c0.2-0.8,0.5-1.6,0.6-2.5c0.3-1.3,0.4-3.1,1.8-3.3c1.8-0.3,1,2.1,2.1,2.8c0.5,1,0.9,2,1.4,3
		c3.1,5.3,2.6,7.2-2.8,10.3c-1.1,0-2.2,0.2-3.3,0.1c-1.9-0.1-3.3-1-3.9-2.9c-0.5-1.8-0.1-3.4,1.3-4.7
		C181.5,147.3,182.9,146.9,183.2,145.4z M184.4,153.9c5.3-2.6,5.3-4.3,1.2-10.7C185,146.6,188.2,150,184.4,153.9z M180.6,151
		c3.1,1.8,3.7,1.4,3.9-2.2C183.3,149.9,182.3,150.9,180.6,151z"/>
	<path fill="#F2E8DC" d="M152.7,147c1.4-1.2,0.5-3.1,1.3-4.3c0.6-0.9,0.6-3.4,2.9-1.5c0.2,0.8-0.1,1.7,0.9,2.1c0,0-0.1,0-0.1,0
		c-0.1,0.6,0,1,0.8,0.9c0,0-0.2,0.1-0.2,0.1c-0.3,1,0.4,1.6,0.8,2.3c2.9,5.3,2.6,6.6-2.3,10c-0.7,0.1-1.5,0.2-2.2,0.3
		c-2.3,0.1-4.6,0-5.5-2.7c-0.8-2.5,0.3-4.3,2.3-5.7C152,148,152.3,147.5,152.7,147z M154.8,154.6c4.9-2.4,4.8-5.8,0.3-10.7
		C155.3,147.4,157.8,150.8,154.8,154.6z M154.7,149.4c-1.3,1.6-2.9,2-4.5,2.7C153.5,153.6,153.8,153.5,154.7,149.4z"/>
	<path fill="#F2E8DC" d="M90.6,134.1c2-0.7,2,1.1,2.7,2.1c0.1,0.7,0,1.4,0.8,1.7c0,0-0.1,0.1-0.1,0.1c0.4,0.8,0.7,1.6,1.1,2.3
		c3,5.3,2.3,7.4-3.3,10.1c-5.4,0.3-7.6-1.3-6.8-5.1c0.2-0.7,0.4-1.7,0.9-1.9C89.8,141.4,89.7,137.5,90.6,134.1z M91.2,147.7
		c4.5-1.7,4.4-3.4,0.1-10.3C91,140.9,93.3,144.2,91.2,147.7z M90.2,143.7c-0.9,1.4-2.6,1.4-4.1,2.2
		C89.4,147.4,89.5,147.3,90.2,143.7z"/>
	<path fill="#F2E8DC" d="M119.8,145.4c1.3-2-0.1-5.1,3-6.6c0.5,1.1,1,2.3,1.5,3.5c0.9,1.8,1.9,3.5,2.8,5.3c1.4,2.7,0.4,4.9-2,6.4
		c-2.7,1.7-5.8,2.5-8.3,0.3c-2.1-1.8-1.6-4.3,0.2-6.3C117.9,147,118.9,146.3,119.8,145.4z M122,142.2c-0.2,3.7,2.4,7.1-0.3,10.8
		C126.4,151,126.4,149.3,122,142.2z M121,148.8c-0.9,1.5-2.9,1-4.2,2.2C119.9,152.9,120.8,151.5,121,148.8z"/>
	<path fill="#855D3A" d="M91.8,150.4c5.6-2.6,6.3-4.8,3.3-10.1c-0.4-0.7-0.7-1.5-1.1-2.3c3-0.2,5.4,1.1,7.7,2.8
		c-1.7,0-2.8,0.8-2,2.5c0.8,1.8,0.1,3.4-0.2,5.1c-2.1,1.9-4.4,3.6-7.5,3C91.9,151,91.8,150.7,91.8,150.4z"/>
	<path fill="#855D3A" d="M186.4,155.7c5.4-3.1,5.9-5,2.8-10.3c-0.6-0.9-1-2-1.4-3c1.8,0.1,2.6,2.4,4.6,2.2c0.5,0.3,1,0.6,1.4,0.9
		c0,2.7,0.1,5.5,0.1,8.2c-2.2,1.7-4.4,3.6-7.5,2.9C186.4,156.3,186.4,156,186.4,155.7z"/>
	<path fill="#855D3A" d="M156.9,156.5c4.8-3.4,5.1-4.7,2.3-10c-0.4-0.7-1.1-1.4-0.8-2.3c2.4,0.3,3.4,3.7,6.3,2.8
		c-1.1,2.6-0.7,5.3-0.8,7.9c-2,0.8-3.4,3.1-6,2.6C157.6,157.1,157.2,156.8,156.9,156.5z"/>
	<path fill="#855D3A" d="M73.1,138.5c5.2-2.9,5.5-4.2,2.9-9.4c-0.3-0.5-0.4-1.1-0.6-1.7c2.4-1.5,3.5,1.1,3.9,2
		c0.7,1.6,3.1,3,1.5,5.2c-0.5,0.7-1,1.4-1,2.3c-1.7,2.2-4,2.8-6.7,2.5C73.2,139.1,73.1,138.8,73.1,138.5z"/>
	<path fill="#350E09" d="M91.9,151.3c3.1,0.6,5.4-1,7.5-3c1.1,0.9,3.1,1.5,2.5,3.2c-0.5,1.5-2.4,1.4-3.9,1.3
		C95.9,152.8,93.6,153.4,91.9,151.3z"/>
	<path fill="#350E09" d="M186.4,156.6c3.1,0.7,5.3-1.2,7.5-2.9c0.6,1.1,2.8,1.3,2,3c-0.6,1.4-2.2,1.7-3.5,1.4
		C190.4,157.6,187.7,159.7,186.4,156.6z"/>
	<path fill="#350E09" d="M73.2,139.4c2.6,0.2,5-0.4,6.7-2.5c1.4,0.3,3.1,0.4,3,2.2c-0.1,2.1-2.1,1.9-3.5,1.8
		C77.2,140.7,74.7,141.9,73.2,139.4z"/>
	<path fill="#350E09" d="M157.9,157.5c2.6,0.4,3.9-1.8,6-2.6c0.7,0.9,2.6,1,2.1,2.6c-0.5,1.7-2.1,1.4-3.5,1.4c-2,0-4,0-6,0
		C156.4,157.8,157.8,158.2,157.9,157.5z"/>
	<path fill="#350E09" d="M123.3,157c2.2-0.4,4.3-1,5.9-2.7c0.9-1,1.8-0.4,2.7,0.1c0.6,0.4,1.4,0.8,1.1,1.7c-0.3,1.2-1.5,1.1-2.4,1.4
		C128,158.4,125.7,157.2,123.3,157z"/>
	<path fill="#855D3A" d="M72.4,135.6c1.7-3-0.2-6.1-0.1-9.3c4,5.3,4.1,7.4,0.4,9.5C72.6,135.8,72.5,135.7,72.4,135.6z"/>
	<path fill="#855D3A" d="M71.1,131.8c0,3.1-1.4,3.7-4.5,2.5C68.5,133.2,70.3,133.3,71.1,131.8z"/>
	<path fill="#855D3A" d="M72.7,135.9c-0.2,0.3-0.5,0.5-0.9,0.1c0.2-0.1,0.4-0.3,0.5-0.4C72.5,135.7,72.6,135.8,72.7,135.9z"/>
	<path fill="#855D3A" d="M232.6,130.3c0.2,3.4-1,4.5-3.9,4.4C229.3,132.6,230.9,132,232.6,130.3z"/>
	<path fill="#855D3A" d="M157.1,72.6c1-2.6,1.2-5.1-0.7-7.5c-0.1-0.7-0.1-1.3,0.7-1.6c3.9,4.8,4,7.2,0.2,9.3L157.1,72.6z"/>
	<path fill="#855D3A" d="M155,68.3c2.3,0.5,1.1,1.9,0.6,2.7c-1,1.5-2.5,1.3-3.8,0.1c0-0.3,0.1-0.5,0.1-0.8c0.9,0.1,1.8,0.3,2.4-0.6
		C155,69.5,154.9,68.9,155,68.3z"/>
	<path fill="#F2E8DC" d="M154.3,69.7c-0.6,0.9-1.5,0.7-2.4,0.6C152.5,69.5,153.4,69.6,154.3,69.7z"/>
	<path fill="#F2E8DC" d="M160.6,65.1c-0.3-0.6-1.2-1.3-0.5-2.1c0,0,0.1,0,0.1,0l0,0c0,0,0,0,0,0c0,0,0,0,0-0.1c0.2,0,0.5,0,0.7-0.1
		c-0.2-0.3-0.5,0-0.7-0.3l-0.5-0.2c-1.4-0.5,0.4-2.7-1.4-2.3c-0.9,0.2-2.2,0.2-1.6,1.8c0.2,0.6,0.3,1.1,0.5,1.7
		c3.9,4.8,4,7.2,0.2,9.3c-0.2,0.3-0.5,0.6-0.8,0.1c0.2-0.1,0.4-0.3,0.5-0.4c1-2.6,1.2-5.1-0.7-7.5c-0.9,0.9-1.8,1.7-1.4,3.2
		c2.3,0.5,1.1,1.9,0.6,2.7c-1,1.5-2.5,1.3-3.8,0.1c-0.5,0-1,0.1-1.5,0.1c0.3,3.8,2.9,4.5,6.1,4.4C162.9,73.3,163.7,71.3,160.6,65.1z
		"/>
	<path fill="#855D3A" d="M156.4,94.4c2.3-3.3-0.5-6.7,0.1-10.2C160.8,91.2,160.8,93.4,156.4,94.4L156.4,94.4z"/>
	<path fill="#855D3A" d="M151.2,92.5c1.6-0.5,3.1-1,4.2-2.4C154.9,93.9,154.5,94.2,151.2,92.5z"/>
	<path fill="#855D3A" d="M156.4,94.3c-0.1,0.1-0.1,0.3-0.2,0.4c0-0.1,0-0.2,0-0.2C156.2,94.5,156.3,94.4,156.4,94.3
		C156.4,94.4,156.4,94.3,156.4,94.3z"/>
	<path fill="#855D3A" d="M126.4,93.6c1.7-2.6,1-5.3-0.1-8.5c2.9,1.2,3.5,3.3,3.4,5.5C129.6,92.4,128.6,93.9,126.4,93.6L126.4,93.6z"
		/>
	<path fill="#855D3A" d="M125.4,89.7c-0.9,3.5-1,3.6-4,2C122.8,90.9,124.4,90.8,125.4,89.7z"/>
	<polygon fill="#855D3A" points="126.4,93.6 126.3,93.8 126.4,93.6 	"/>
	<path fill="#855D3A" d="M184.4,93.1c3.7-3.8,0.9-7.1,1-10.6C189.8,87.8,189.7,90.6,184.4,93.1z"/>
	<path fill="#855D3A" d="M179.5,90.5c2.5-0.6,3.9-1.2,5-2.6C184.1,91.6,183.8,91.8,179.5,90.5z"/>
	<path fill="#855D3A" d="M160.2,62.9"/>
	<path fill="#855D3A" d="M157.3,72.8c-0.2,0.3-0.5,0.6-0.8,0.1c0.2-0.1,0.4-0.3,0.5-0.4C157.1,72.6,157.3,72.8,157.3,72.8z"/>
	<path fill="#855D3A" d="M157.8,143.2c-1-0.4-0.8-1.3-0.9-2.1C158.2,141.4,157.8,142.4,157.8,143.2z"/>
	<path fill="#855D3A" d="M94.1,137.9c-0.8-0.3-0.8-1-0.8-1.7C93.9,136.6,94.1,137.2,94.1,137.9z"/>
	<path fill="#855D3A" d="M158.5,144c-0.8,0.2-0.8-0.3-0.8-0.9C158,143.5,158.3,143.8,158.5,144z"/>
	<path fill="#855D3A" d="M217.1,137.9c-0.7-0.3-0.7-0.9-0.7-1.5C217,136.7,217.1,137.3,217.1,137.9z"/>
	<path fill="#855D3A" d="M214.9,146.9c0.2-2.8-0.2-5.6-0.9-8.6C217.9,142.3,218.1,145.3,214.9,146.9L214.9,146.9z"/>
	<path fill="#855D3A" d="M208.3,146.3c2.2-1,3.4-1.5,5-2.3C212.6,146.6,211.4,147.1,208.3,146.3z"/>
	<path fill="#855D3A" d="M214.9,146.9c0,0.6,0,1.2-0.9,1.2c-0.1,0-0.2-0.1-0.2-0.2C213.7,146.9,214.4,147,214.9,146.9
		C214.9,146.9,214.9,146.9,214.9,146.9z"/>
	<path fill="#855D3A" d="M184.4,153.9c3.7-3.9,0.5-7.3,1.2-10.7C189.8,149.6,189.8,151.2,184.4,153.9z"/>
	<path fill="#855D3A" d="M180.6,151c1.7-0.1,2.7-1.1,3.9-2.2C184.3,152.3,183.7,152.7,180.6,151z"/>
	<path fill="#855D3A" d="M154.8,154.6c3-3.8,0.5-7.2,0.3-10.7C159.6,148.8,159.7,152.2,154.8,154.6z"/>
	<path fill="#855D3A" d="M154.7,149.4c-0.9,4.1-1.1,4.2-4.5,2.7C151.8,151.4,153.3,151,154.7,149.4z"/>
	<path fill="#855D3A" d="M91.2,147.7c2.1-3.6-0.2-6.8,0.1-10.3C95.6,144.3,95.7,146,91.2,147.7z"/>
	<path fill="#855D3A" d="M90.2,143.7c-0.7,3.6-0.8,3.6-4.1,2.2C87.5,145.1,89.3,145.1,90.2,143.7z"/>
	<path fill="#855D3A" d="M122,142.2c4.4,7.1,4.4,8.8-0.3,10.8C124.4,149.3,121.8,145.9,122,142.2z"/>
	<path fill="#855D3A" d="M121,148.8c-0.2,2.7-1.2,4.1-4.2,2.2C118.2,149.7,120.2,150.2,121,148.8z"/>
</g>
<g opacity="0.4">
	<path fill="#FDFEFD" d="M155.8,304.1c84.5-1.1,146.7-67.5,147.9-146.5c0.6-40.2-13.4-76-42.2-104.8c-35.1-35.1-77.3-49-127.1-43.1
		C73.2,16.9,6.9,72.9,7.4,156.9C7.9,238.3,73.3,303.4,155.8,304.1z"/>
	<path fill="#9EDBFB" d="M155.8,304.1C73.3,303.4,7.9,238.3,7.4,156.9c-0.5-84,65.8-140,127.1-147.3c49.8-5.9,92,8,127.1,43.1
		c28.8,28.8,42.8,64.7,42.2,104.8C302.5,236.6,240.3,303,155.8,304.1z M162.2,14.1c-14.1-0.4-29.3,2.4-44.3,7.8
		c-18.4,6.6-34.4,17.2-48.2,30.6c-14.1,13.7-24.9,30.1-31.5,48.7c-7,19.5-9.3,39.7-7.7,60.2c0.6,7.6,2.5,15.2,4.5,22.6
		c2.1,7.8,5.6,15.1,8.8,22.6c4.5,10.5,11.3,19.6,18.3,28.1c7.3,8.8,15.9,17,26.2,22.9c4.9,2.8,9.3,6.6,14.3,9
		c12,5.6,24.3,10.4,37.5,12.5c16.2,2.6,32.3,3.2,48.5-0.1c14.3-2.9,27.8-8,40.6-14.9c14-7.5,25.9-17.7,36.2-29.7
		c8.2-9.6,15.6-19.9,20.6-31.4c9.8-22.8,13.7-46.6,10.4-71.5c-0.9-6.8-2.6-13.3-3.6-20c-1.1-7.1-5.6-12.7-7.1-19.5
		c-1.5-6.6-7.8-10.3-9.5-16.8c-0.1-0.5-0.9-1-1.5-1.1c-1.7-0.2-1.6-1-1.9-2.6c-0.7-4.2-2.9-7.9-7.1-9.3c-1.9-0.6-2.6-1.5-3.8-3
		c-4.5-5.5-9.5-10.7-14.6-15.8c-6.4-6.4-14.7-9.8-22.4-14.2c-7.4-4.3-15.2-7.2-23.1-10c-2.6-0.9-5.9-4-8.6,0.4
		c-0.5,0.8-2.2,0.1-2.4-0.9c-0.7-2.9-3.1-2.2-5-2.9C178.6,13.6,171.3,14.3,162.2,14.1z"/>
	<path fill="#BCEBFD" d="M162.2,14.1c9.1,0.2,16.4-0.6,23.6,1.9c2,0.7,4.3,0,5,2.9c0.2,1,2,1.7,2.4,0.9c2.7-4.4,6-1.3,8.6-0.4
		c7.9,2.8,15.7,5.7,23.1,10c7.7,4.5,16,7.8,22.4,14.2c5,5.1,10.1,10.2,14.6,15.8c1.2,1.5,1.9,2.3,3.8,3c4.3,1.4,6.4,5.2,7.1,9.3
		c0.3,1.6,0.3,2.3,1.9,2.6c0.6,0.1,1.4,0.6,1.5,1.1c1.6,6.4,8,10.2,9.5,16.8c1.5,6.7,6,12.3,7.1,19.5c1,6.7,2.7,13.2,3.6,20
		c3.3,24.9-0.6,48.7-10.4,71.5c-5,11.5-12.4,21.8-20.6,31.4c-10.3,12-22.1,22.2-36.2,29.7c-12.8,6.9-26.3,12-40.6,14.9
		c-16.2,3.3-32.3,2.6-48.5,0.1c-13.2-2.1-25.5-6.9-37.5-12.5c-5.1-2.4-9.4-6.2-14.3-9c-10.3-5.8-18.9-14.1-26.2-22.9
		c-7.1-8.4-13.8-17.6-18.3-28.1c-3.2-7.5-6.7-14.8-8.8-22.6c-2-7.4-3.9-15-4.5-22.6c-1.7-20.5,0.7-40.8,7.7-60.2
		c6.7-18.7,17.4-35,31.5-48.7C83.5,39.1,99.4,28.6,117.9,22C132.9,16.6,148.1,13.7,162.2,14.1z M256.2,93.3
		c0-11.7-12.1-19.5-22.7-14.6c-4.4,2-7.1,5.6-7.2,10.4c-0.1,4.6,2.3,8.2,6.8,10c4.6,1.9,9.3,3.3,14.4,3.1
		C253.6,101.9,256.2,99.5,256.2,93.3z M263.4,98.2c-5.9,0-7.3,1.3-7.3,6.8c0,5.3,2.4,7.2,8.9,7.2c5.5,0,7.2-1.5,7.2-6.4
		C272.1,100.5,269.4,98.2,263.4,98.2z M250.2,117c-0.5,3.8,1.2,6.1,4.8,5.9c2.6-0.1,5.6-0.5,5.2-4.8c-0.3-3.7-1.9-6.2-5.4-6.4
		C251.9,111.6,249.5,113.3,250.2,117z"/>
	<path fill="#FDFEFD" d="M256.2,93.3c0,6.1-2.6,8.6-8.6,8.9c-5.1,0.3-9.8-1.1-14.4-3.1c-4.5-1.9-6.9-5.4-6.8-10
		c0.1-4.8,2.8-8.4,7.2-10.4C244.2,73.8,256.3,81.7,256.2,93.3z"/>
	<path fill="#FDFEFD" d="M263.4,98.2c6,0,8.7,2.4,8.8,7.6c0.1,4.9-1.6,6.4-7.2,6.4c-6.5,0-8.8-1.9-8.9-7.2
		C256.1,99.5,257.6,98.2,263.4,98.2z"/>
	<path fill="#FDFEFD" d="M250.2,117c-0.7-3.7,1.7-5.4,4.7-5.2c3.5,0.2,5.1,2.7,5.4,6.4c0.3,4.3-2.6,4.7-5.2,4.8
		C251.4,123,249.7,120.8,250.2,117z"/>
</g>
</svg>
