<?xml version="1.0" encoding="utf-8"?>
<!-- Generator: Adobe Illustrator 18.0.0, SVG Export Plug-In . SVG Version: 6.00 Build 0)  -->
<!DOCTYPE svg PUBLIC "-//W3C//DTD SVG 1.1//EN" "http://www.w3.org/Graphics/SVG/1.1/DTD/svg11.dtd">
<svg version="1.1" id="Layer_1" xmlns="http://www.w3.org/2000/svg" xmlns:xlink="http://www.w3.org/1999/xlink" x="0px" y="0px"
	 viewBox="0 0 110 150" enable-background="new 0 0 110 150" xml:space="preserve">
<g>
	<path fill="#020202" d="M83.2,137.3c-3.2,0.1-6.4,0-9.6-0.1c-0.1-4-0.1-8-0.2-12c0-4,0-8.1,0-12.1c0.1-2,0.2-4,0.4-6.6
		c2.5,2.6,4.6,4.4,6.9,5.9c1.1-4.1,2.8-7.8,6.7-10c-2.2-1.9-4.5-3.8-6.4-6c-7-8.1-8.3-17.6-7.4-27.8c-0.3,0-0.6,0-1,0
		c-8.5,5-17.3,5.1-26.4,2c-1.9-0.6-3.6-1.7-5.7-1.3c0,0,0,0.2,0,0.2c-11.5,12.4-15.1,27-12.2,43.4c0.2,0.6,0.5,1.2,0.7,1.8
		c3.2-3.2,6.7-5.2,11.4-3.4c-1.5-6.3-1.8-12.5,0.8-19.8c0,7.6,0,14,0,20.4c0.5,0.3,1,0.7,1.5,1c2.6,4,2.6,8,0,12c2,0,2,0,0,0
		c-0.5,0.3-1,0.6-1.5,0.9c0.1,3.8,0.2,7.5,0.2,11.3c0,2.9,0.1,5.9-0.2,8.8c-0.2,2.7,0.7,3.4,3.3,3.3c10.7-0.1,21.5-0.1,32.2-0.1
		c9.5,0,9.4,0,9-9.6C85.6,137.9,85.2,137.2,83.2,137.3z M61.4,137.8h-8v-11.9h8V137.8z"/>
	<path fill="#FBC387" d="M42.7,113.1c2.6,4,2.6,8,0,12c-0.5,0.3-1,0.6-1.5,0.9c-3.3,1.8-6.6,2-9.7-0.5c-3.5-2.9-3.6-6.6-2.5-10.6
		c3.2-3.2,6.7-5.2,11.4-3.4c0.3,0.2,0.5,0.4,0.8,0.6C41.6,112.5,42.1,112.8,42.7,113.1z"/>
	<path fill="#FBC387" d="M80.7,112.5c1.1-4.1,2.8-7.8,6.7-10c6.7,0.6,10,3.2,10.3,7.9c0.3,3.8-1.5,6.6-4.8,8.1
		c-3.4,1.5-6.8,0.9-9.4-2.1C82.5,115.1,81.6,113.7,80.7,112.5z"/>
	<path fill="none" d="M53.4,125.3c0,4,0,7.9,0,11.9c2.7,0,5.3,0,8,0c0-4,0-7.9,0-11.9c4,0,8-0.1,12-0.1c-4,0-8,0.1-12,0.1
		C58.7,125.3,56.1,125.3,53.4,125.3z"/>
	<g>
		<path fill="#FFFFFF" d="M46.6,95.7c0-0.9,0.2-1.7,0.7-2.5c0.4-0.8,1.1-1.4,1.8-1.8c0.8-0.4,1.6-0.7,2.5-0.7c1.2,0,2.2,0.4,3.2,1.2
			c0.3,0.2,0.5,0.4,0.6,0.6c0.1,0.2,0.2,0.4,0.2,0.6c0,0.3-0.1,0.6-0.3,0.8c-0.2,0.2-0.5,0.3-0.8,0.3c-0.3,0-0.5-0.1-0.8-0.3
			l-0.2-0.2c-0.2-0.2-0.5-0.4-0.8-0.5C52.3,93,52,93,51.6,93c-0.8,0-1.4,0.3-2,0.8c-0.5,0.5-0.8,1.2-0.8,2c0,0.8,0.3,1.4,0.8,2
			c0.5,0.5,1.2,0.8,2,0.8c0.3,0,0.6-0.1,0.9-0.2c0.3-0.1,0.6-0.3,0.8-0.4l0.4-0.4c0.2-0.2,0.5-0.3,0.8-0.3c0.3,0,0.6,0.1,0.8,0.3
			s0.3,0.5,0.3,0.8c0,0.3-0.2,0.6-0.5,1c-0.4,0.4-1,0.8-1.6,1.1s-1.3,0.4-1.9,0.4c-0.9,0-1.7-0.2-2.5-0.7s-1.4-1.1-1.8-1.8
			C46.9,97.5,46.6,96.6,46.6,95.7z"/>
		<path fill="#FFFFFF" d="M56.9,99.4v-0.2v-6.9V92c0-0.4,0.1-0.7,0.3-0.9c0.2-0.2,0.5-0.3,0.8-0.3s0.6,0.1,0.8,0.3
			c0.2,0.2,0.3,0.5,0.3,0.9v0.2v6.9v0.2c0,0.4-0.1,0.7-0.3,0.9c-0.2,0.2-0.5,0.3-0.8,0.3s-0.6-0.1-0.8-0.3
			C57,100.1,56.9,99.8,56.9,99.4z"/>
		<path fill="#FFFFFF" d="M60.7,95.7c0-0.9,0.2-1.7,0.7-2.5c0.4-0.8,1.1-1.4,1.8-1.8c0.8-0.4,1.6-0.7,2.5-0.7c1.2,0,2.2,0.4,3.2,1.2
			c0.3,0.2,0.5,0.4,0.6,0.6c0.1,0.2,0.2,0.4,0.2,0.6c0,0.3-0.1,0.6-0.3,0.8c-0.2,0.2-0.5,0.3-0.8,0.3c-0.3,0-0.5-0.1-0.8-0.3
			l-0.2-0.2c-0.2-0.2-0.5-0.4-0.8-0.5C66.3,93,66,93,65.6,93c-0.8,0-1.4,0.3-2,0.8c-0.5,0.5-0.8,1.2-0.8,2c0,0.8,0.3,1.4,0.8,2
			c0.5,0.5,1.2,0.8,2,0.8c0.3,0,0.6-0.1,0.9-0.2c0.3-0.1,0.6-0.3,0.8-0.4l0.4-0.4c0.2-0.2,0.5-0.3,0.8-0.3c0.3,0,0.6,0.1,0.8,0.3
			s0.3,0.5,0.3,0.8c0,0.3-0.2,0.6-0.5,1c-0.4,0.4-1,0.8-1.6,1.1s-1.3,0.4-1.9,0.4c-0.9,0-1.7-0.2-2.5-0.7s-1.4-1.1-1.8-1.8
			C60.9,97.5,60.7,96.6,60.7,95.7z"/>
		<path fill="#FFFFFF" d="M49.7,110.3c0-0.9,0.2-1.7,0.7-2.5c0.4-0.8,1.1-1.4,1.8-1.8c0.8-0.4,1.6-0.7,2.5-0.7c0.7,0,1.3,0.1,2,0.4
			c0.6,0.3,1.2,0.6,1.6,1.1c0.4,0.4,0.8,1,1.1,1.6c0.3,0.6,0.4,1.3,0.4,1.9s-0.1,1.3-0.4,1.9c-0.3,0.6-0.6,1.1-1.1,1.6
			s-1,0.8-1.6,1.1s-1.3,0.4-1.9,0.4c-0.7,0-1.3-0.1-1.9-0.4c-0.6-0.3-1.1-0.6-1.6-1.1c-0.4-0.4-0.8-1-1.1-1.6
			C49.8,111.6,49.7,110.9,49.7,110.3z M51.9,110.2c0,0.8,0.3,1.5,0.8,2c0.5,0.5,1.2,0.8,2,0.8c0.8,0,1.4-0.3,2-0.8
			c0.5-0.5,0.8-1.2,0.8-2c0-0.8-0.3-1.4-0.8-2s-1.2-0.8-2-0.8c-0.8,0-1.4,0.3-2,0.8C52.2,108.8,51.9,109.5,51.9,110.2z"/>
		<path fill="#FFFFFF" d="M60,106.4c0-0.3,0.1-0.5,0.3-0.7c0.2-0.2,0.5-0.3,0.8-0.3h0.2h4c0.9,0,1.3,0.4,1.3,1.3
			c0,0.3-0.1,0.6-0.2,0.9l-2.6,6.6l-0.1,0.2c-0.2,0.5-0.6,0.8-1.1,0.8c-0.3,0-0.6-0.1-0.8-0.3c-0.2-0.2-0.3-0.5-0.3-0.7
			c0-0.2,0-0.4,0.1-0.6l0.1-0.2l2.3-5.9h-2.8h-0.2c-0.3,0-0.6-0.1-0.8-0.3S60,106.8,60,106.4z"/>
	</g>
	<g>
		<g>
			
				<radialGradient id="SVGID_1_" cx="-754.2682" cy="36.6953" r="32.8766" gradientTransform="matrix(-1 0 0 1 -716.9984 0)" gradientUnits="userSpaceOnUse">
				<stop  offset="0" style="stop-color:#F8B062"/>
				<stop  offset="0.9859" style="stop-color:#A46101"/>
				<stop  offset="1" style="stop-color:#A36000"/>
			</radialGradient>
			<path fill="url(#SVGID_1_)" d="M49.3,55.2c0,0-8.5-10.9-25.1-18.7c0,0-10.2,7.9-15,2.4c0,0-6.4-17.7,2.7-23.3
				c1.4-0.9,1.2-3,0-4.2l0,0c0,0,7.2-12.5,13.5-9.6c0,0,2.8-0.1,4.7,3.5S34,15.8,37.9,19c0,0,17.6,1.4,21.9,10.5
				c0,0,13.7,27,4.6,42.5C64.4,72,29.3,58.7,49.3,55.2z"/>
			<g>
				<ellipse fill="#FCD6AD" cx="59" cy="41.4" rx="32.8" ry="32.6"/>
				<circle fill="#FFFFFF" cx="58.5" cy="45.1" r="9"/>
				<circle fill="#FFFFFF" cx="83.1" cy="45.1" r="9"/>
				<circle fill="#025EB2" cx="62.1" cy="45.1" r="2.2"/>
				<circle fill="#025EB2" cx="86.1" cy="45.1" r="2.2"/>
			</g>
			
				<radialGradient id="SVGID_2_" cx="-776.0393" cy="28.1799" r="27.0713" gradientTransform="matrix(-1 0 0 1 -716.9984 0)" gradientUnits="userSpaceOnUse">
				<stop  offset="0" style="stop-color:#F8B062"/>
				<stop  offset="0.9859" style="stop-color:#A46101"/>
				<stop  offset="1" style="stop-color:#A36000"/>
			</radialGradient>
			<path fill="url(#SVGID_2_)" d="M26.7,47.8c-3.2-18.4,7.5-34.4,25.8-38.7c0.3-0.1,0.6-0.4,0.9-0.7c3.8,0,7.7,0,11.5,0
				c4.3,1.7,8.9,2.8,12.8,5.5c8.1,5.8,13,13.4,14.2,23.3c-3-3.8-10-5.2-17.8,1.3C64.3,37.6,58,24,43.2,41.4
				c-2.7,3.2-5.4,1.1-4.7,4.9c-0.8,0.1-1.6,0.2-2.3,0.2C32.8,44.5,29.7,45.8,26.7,47.8z"/>
			<path fill="#FCD6AD" d="M73.6,70.5c-10.6,5.1-13.4,6.1-24,2.2c-3.3-0.8-10.9-4.3-11.7-6.1c0-3.9,0-7.8,0-12.8
				c-2.2,3.7-4.8,4.2-7.7,4.1c-4.4-2.1-5.1-5.7-3.8-10c2.9-1.9,5.9-3.6,9.3-1.7c0.9,1.8,0,4.5,2.2,4.2c1.6-0.3,3,4.8,4.6,4.7
				c2.5-0.2,5,0.2,6.6,2.8c2.3,3.9,4.9,0.6,8.3,1.7c6,1.8,21.6,1.1,27.2,1.9c-0.3,1.9-1.4,0.8-2.5,2.1c-1.4-1.2-2.9-1.8-4.8-1.7
				c-7.2,0.1-14.5,0.1-21.7,0c-2.9,0-2.9,0.8-2.8,4.1c0,3.3,2.1,2.4,4.9,2.4c6,0,10.1,1.7,16.1,1.8C73.6,70.2,73.6,70.3,73.6,70.5z"
				/>
			
				<radialGradient id="SVGID_3_" cx="-783.6497" cy="80.0049" r="14.7628" gradientTransform="matrix(-1 0 0 1 -716.9984 0)" gradientUnits="userSpaceOnUse">
				<stop  offset="0" style="stop-color:#F8B062"/>
				<stop  offset="0.9859" style="stop-color:#A46101"/>
				<stop  offset="1" style="stop-color:#A36000"/>
			</radialGradient>
			<path fill="url(#SVGID_3_)" d="M52.7,66.6c15.2,2.1,28.1,2,28.4-1.7c-1.4,24.2-4.9,16.3-12.4,30.2C59.6,85.6,50.1,76.7,52.7,66.6
				z"/>
			
				<radialGradient id="SVGID_4_" cx="-786.0778" cy="61.0801" r="11.4136" gradientTransform="matrix(-1 0 0 1 -716.9984 0)" gradientUnits="userSpaceOnUse">
				<stop  offset="0" style="stop-color:#F8B062"/>
				<stop  offset="0.9859" style="stop-color:#A46101"/>
				<stop  offset="1" style="stop-color:#A36000"/>
			</radialGradient>
			<path fill="url(#SVGID_4_)" d="M55.8,59.4c0,0,7.1-4.2,16.4-1c0,0,6.8-3.6,12,2.1c0,0,0.9,2.1,0.3,4.4c0,0-1.5-3.3-4-2.4
				c-3.5,1.2-5.6,0.8-9.3-0.1c0,0-5.7,2.4-8.3,1.4c0,0-3.1,0-5.7-1.1c0,0-2.9-0.8-3.7,1.9C53.2,66,53.6,59.6,55.8,59.4z"/>
			<path fill="#FCD6AD" d="M25.4,54.6c-1.6-4.1-0.5-7.5,2.7-10.3c3.9-1.3,7.5-0.9,10.3,2.4c1,2.6,1.4,5.2,0.2,7.9
				C34.3,59.9,29.7,59.9,25.4,54.6z"/>
		</g>
		
			<radialGradient id="SVGID_5_" cx="-757.7946" cy="50.1835" r="6.6667" gradientTransform="matrix(-1 0 0 1 -716.9984 0)" gradientUnits="userSpaceOnUse">
			<stop  offset="0" style="stop-color:#F8B062"/>
			<stop  offset="0.9859" style="stop-color:#A46101"/>
			<stop  offset="1" style="stop-color:#A36000"/>
		</radialGradient>
		<polygon fill="url(#SVGID_5_)" points="44.2,59 37.4,58.2 37.8,41.4 43.2,41.4 41.5,49.5 		"/>
	</g>
</g>
</svg>
