<?xml version="1.0" encoding="utf-8"?>
<!-- Generator: Adobe Illustrator 18.0.0, SVG Export Plug-In . SVG Version: 6.00 Build 0)  -->
<!DOCTYPE svg PUBLIC "-//W3C//DTD SVG 1.1//EN" "http://www.w3.org/Graphics/SVG/1.1/DTD/svg11.dtd">
<svg version="1.1" id="Layer_1" xmlns="http://www.w3.org/2000/svg" xmlns:xlink="http://www.w3.org/1999/xlink" x="0px" y="0px"
	 viewBox="0 0 136 186" enable-background="new 0 0 136 186" xml:space="preserve">
<path fill="#020202" d="M124.1,55.6c-4.8,17.8-15.5,30.7-32.3,38.3c-2.8,1.3-3.5,2.7-3.5,5.6c0.1,12.3,0,24.6-0.1,37
	c-13.3,0-26.6,0-39.9,0l0.1,0.1c0-12.4,0-24.8,0-37.2c0-2,0.3-4.1-2.3-4.9c-4.8-1.5-8.6-4.8-13-7.2c-10-8.5-17.3-18.7-20.5-31.7
	c5.1,1.4,10.1,1.6,14.2-2.9c2.5,4.8,0.2,11.7,7.2,13.7c2,4.6,5.1,8.3,9.3,10.9C54,86.2,66,88.9,79.3,84.5c8.3-0.6,15.7-3.1,21.7-9.2
	c2.2-2.2,2.9-4.3,1.2-7c6.4-1.7,10.8-5.6,12.8-12C118.1,56.7,121.1,56.4,124.1,55.6z"/>
<path fill="#020202" d="M48.2,136.5c13.3,0,26.6,0,39.9,0c0,5,0,10,0,15c-5,0.1-9.9,0.1-14.9,0.2c-3.3,0-6.6,0-9.9,0
	c-5-0.1-9.9-0.1-14.9-0.2C48.4,146.4,48.3,141.5,48.2,136.5z"/>
<path fill="#FCD6AD" d="M115,56.3c0.3-5.6-1.8-10.2-5.8-14c3.2-5.9,9.7-7.8,14.8-4.3c4.9,3.4,5.7,10.2,1.8,15.2
	c-0.6,0.8-1.2,1.5-1.8,2.3C121.1,56.4,118.1,56.7,115,56.3z"/>
<path fill="#020202" d="M63.1,166.5c-5-0.1-9.9-0.1-14.9-0.2c0.1-5,0.1-9.9,0.2-14.9c5,0.1,9.9,0.1,14.9,0.2
	C63.3,156.5,63.2,161.5,63.1,166.5z"/>
<path fill="#020202" d="M88.4,166.3c-5,0.1-9.9,0.1-14.9,0.2c-0.1-5-0.1-9.9-0.2-14.9c5-0.1,9.9-0.1,14.9-0.2
	C88.2,156.4,88.3,161.4,88.4,166.3z"/>
<g>
	<ellipse fill="#FCD6AD" cx="69.2" cy="46" rx="40.7" ry="40.3"/>
	<circle fill="#FFFFFF" cx="71.5" cy="53" r="11.2"/>
	<circle fill="#FFFFFF" cx="40.9" cy="53" r="11.2"/>
	
		<radialGradient id="SVGID_1_" cx="-2275.9561" cy="74.573" r="58.6718" gradientTransform="matrix(-1 0 0 1 -2206.2166 0)" gradientUnits="userSpaceOnUse">
		<stop  offset="0" style="stop-color:#F8B062"/>
		<stop  offset="0.9859" style="stop-color:#A46101"/>
		<stop  offset="1" style="stop-color:#A36000"/>
	</radialGradient>
	<path fill="url(#SVGID_1_)" d="M28.5,46.1c0,0,0.4,14,1.7,25.4c0,0,2.5,39.5-3.2,52.2c0,0,7.4,12.3,22.8,8.9c0,0-1.2-39.5,7.9-47.6
		c0,0-28.3-7.7-25.9-36.9c0,0,30.1,2.3,46.4-16.7c0,0,6.4,15.9,4.2,38.6c0,0-4.7,66.2,1.5,70.9c0,0,19.5,11,21.7-6.4l0.9,4.2
		c0,0,5-0.4,4.1-12.5l-2-12.3c0,0-0.3-33.6,3.4-44.6c0,0,9.5-27.5-9.7-52.3c0,0-10.3-12.3-32.6-12.3c0,0-31.8,0.6-40.9,30.7
		C29,35.5,20.1,43.9,28.5,46.1z"/>
	<circle fill="#025EB2" cx="66.9" cy="53" r="2.7"/>
	<circle fill="#025EB2" cx="37.2" cy="53" r="2.7"/>
	<path fill="#F18C50" stroke="#F55D5D" stroke-width="0.8486" stroke-miterlimit="10" d="M74.4,70.1c0,0-5.4,0.8-8.6,0.5
		c0,0-6.3-0.6-7.9-0.4c0,0-4.2,0.3-6.5,1c0,0-2.5,0.4-4,0.2c0,0-1.8-0.5-0.9,1.6c0,0,5.1,2.3,11.3,2.3
		C57.8,75.3,70.3,74.6,74.4,70.1z"/>
	<path fill="#F18C50" stroke="#F55D5D" stroke-width="0.8486" stroke-miterlimit="10" d="M60.5,80.7c0,0-8.9,0.2-14-7.6
		c0,0,5.5,2.7,13,2.1c0,0,10.4-0.7,14.9-5C74.4,70.1,69.4,79.9,60.5,80.7z"/>
</g>
<path fill="#FCD6AD" d="M7.9,53.1c-2.2-5.6-0.7-10.2,3.7-14c5.4-1.8,10.2-1.2,14.1,3.3c1.4,3.5,1.9,7.1,0.3,10.7
	C20.1,60.4,13.8,60.4,7.9,53.1z"/>
<path fill="#FFFFFF" d="M63.3,164.2c0,0-6.3,6.7-14.9-0.2c0,0-10.6,4.2-15,12.8v2.8l15.7,0.1l8.3-0.1l5.8,0V164.2z"/>
<path fill="#FFFFFF" d="M73.9,164.2c0,0,6.3,6.7,14.9-0.2c0,0,10.6,4.2,15,12.8v2.8l-15.7,0.1l-8.3-0.1l-5.8,0V164.2z"/>
<g>
	<path fill="#FFFFFF" d="M51.1,105.4c0-1.1,0.3-2.1,0.8-3.1c0.6-0.9,1.3-1.7,2.3-2.3c1-0.6,2-0.8,3.1-0.8c1.4,0,2.8,0.5,3.9,1.4
		c0.4,0.3,0.6,0.6,0.8,0.8s0.2,0.5,0.2,0.7c0,0.4-0.1,0.7-0.4,0.9s-0.6,0.4-1,0.4c-0.3,0-0.7-0.1-1-0.4l-0.3-0.3
		c-0.3-0.3-0.6-0.5-1.1-0.6s-0.8-0.2-1.2-0.2c-0.9,0-1.7,0.3-2.4,1s-1,1.5-1,2.4c0,0.9,0.3,1.8,1,2.4s1.5,1,2.4,1
		c0.4,0,0.8-0.1,1.2-0.2s0.7-0.3,1-0.5l0.5-0.4c0.3-0.3,0.6-0.4,1-0.4c0.4,0,0.7,0.1,0.9,0.4s0.4,0.6,0.4,0.9c0,0.4-0.2,0.8-0.6,1.2
		c-0.6,0.6-1.2,1-2,1.3s-1.6,0.5-2.4,0.5c-1.1,0-2.1-0.3-3.1-0.8c-1-0.6-1.7-1.3-2.3-2.3C51.4,107.6,51.1,106.6,51.1,105.4z"/>
	<path fill="#FFFFFF" d="M63.9,110v-0.3v-8.5v-0.3c0-0.5,0.1-0.8,0.4-1.1s0.6-0.4,1-0.4s0.7,0.1,1,0.4s0.4,0.7,0.4,1.1v0.3v8.5v0.3
		c0,0.5-0.1,0.8-0.4,1.1s-0.6,0.4-1,0.4s-0.7-0.1-1-0.4S63.9,110.5,63.9,110z"/>
	<path fill="#FFFFFF" d="M68.5,105.4c0-1.1,0.3-2.1,0.8-3.1s1.3-1.7,2.3-2.3c1-0.6,2-0.8,3.1-0.8c1.4,0,2.8,0.5,3.9,1.4
		c0.4,0.3,0.6,0.6,0.8,0.8c0.1,0.2,0.2,0.5,0.2,0.7c0,0.4-0.1,0.7-0.4,0.9s-0.6,0.4-1,0.4c-0.3,0-0.7-0.1-1-0.4l-0.3-0.3
		c-0.3-0.3-0.6-0.5-1.1-0.6c-0.4-0.2-0.8-0.2-1.2-0.2c-0.9,0-1.7,0.3-2.4,1s-1,1.5-1,2.4c0,0.9,0.3,1.8,1,2.4s1.5,1,2.4,1
		c0.4,0,0.8-0.1,1.2-0.2c0.4-0.1,0.7-0.3,1-0.5l0.5-0.4c0.3-0.3,0.6-0.4,1-0.4c0.4,0,0.7,0.1,0.9,0.4s0.4,0.6,0.4,0.9
		c0,0.4-0.2,0.8-0.6,1.2c-0.6,0.6-1.2,1-2,1.3c-0.8,0.3-1.6,0.5-2.4,0.5c-1.1,0-2.1-0.3-3.1-0.8c-1-0.6-1.7-1.3-2.3-2.3
		C68.8,107.6,68.5,106.6,68.5,105.4z"/>
	<path fill="#FFFFFF" d="M54.1,123.4c0-1.1,0.3-2.1,0.8-3.1c0.6-0.9,1.3-1.7,2.2-2.3c0.9-0.6,2-0.8,3.1-0.8c0.8,0,1.7,0.2,2.4,0.5
		s1.4,0.8,2,1.3s1,1.2,1.3,2c0.3,0.8,0.5,1.6,0.5,2.4s-0.2,1.6-0.5,2.4c-0.3,0.8-0.8,1.4-1.3,2c-0.6,0.6-1.2,1-2,1.3
		c-0.8,0.3-1.6,0.5-2.4,0.5s-1.6-0.2-2.4-0.5c-0.8-0.3-1.4-0.8-2-1.3c-0.6-0.6-1-1.2-1.3-2S54.1,124.3,54.1,123.4z M56.9,123.4
		c0,1,0.3,1.8,1,2.5c0.7,0.7,1.5,1,2.5,1c1,0,1.8-0.3,2.4-1c0.7-0.7,1-1.5,1-2.4c0-0.9-0.3-1.8-1-2.4s-1.5-1-2.4-1
		c-0.9,0-1.7,0.3-2.4,1C57.2,121.7,56.9,122.5,56.9,123.4z"/>
	<path fill="#FFFFFF" d="M67.5,125.5c0-0.4,0.1-0.8,0.4-1.1c0.3-0.3,0.6-0.4,1-0.4c0.4,0,0.7,0.1,0.9,0.3s0.4,0.5,0.4,0.8l0,0.3
		c0,0.4,0.2,0.8,0.5,1s0.7,0.4,1.1,0.4c0.4,0,0.8-0.2,1.1-0.5c0.3-0.3,0.5-0.7,0.5-1.1c0-0.4-0.1-0.7-0.4-1
		c-0.2-0.3-0.6-0.5-0.9-0.6c-0.3-0.1-0.4-0.1-0.5-0.2c-0.1,0-0.1-0.1-0.2-0.1c-0.1-0.1-0.2-0.4-0.2-0.6c0-0.4,0.1-0.6,0.4-0.8
		l0.4-0.2c0.2-0.1,0.3-0.2,0.4-0.4c0.1-0.2,0.2-0.3,0.2-0.5c0-0.3-0.1-0.5-0.3-0.6c-0.2-0.2-0.4-0.3-0.6-0.3c-0.4,0-0.8,0.3-1,0.9
		c-0.1,0.3-0.3,0.5-0.5,0.7c-0.2,0.1-0.4,0.2-0.8,0.2c-0.4,0-0.8-0.1-1-0.4s-0.4-0.6-0.4-1c0-0.3,0.1-0.6,0.3-1
		c0.2-0.3,0.4-0.7,0.7-1c0.7-0.7,1.6-1.1,2.6-1.1c0.6,0,1.3,0.2,1.8,0.5c0.6,0.3,1,0.7,1.4,1.2c0.3,0.5,0.5,1.1,0.5,1.7
		c0,0.7-0.3,1.3-0.8,1.9c0.5,0.3,0.8,0.5,0.9,0.7c0.2,0.3,0.4,0.6,0.6,1s0.2,0.8,0.2,1.1c0,0.6-0.1,1.1-0.4,1.6
		c-0.2,0.5-0.6,1-1,1.4c-0.4,0.4-0.9,0.7-1.4,0.9s-1.1,0.4-1.7,0.4c-0.8,0-1.5-0.2-2.2-0.6s-1.2-0.9-1.6-1.5
		C67.7,126.9,67.5,126.2,67.5,125.5z"/>
</g>
</svg>
