<?xml version="1.0" encoding="utf-8"?>
<!-- Generator: Adobe Illustrator 18.0.0, SVG Export Plug-In . SVG Version: 6.00 Build 0)  -->
<!DOCTYPE svg PUBLIC "-//W3C//DTD SVG 1.1//EN" "http://www.w3.org/Graphics/SVG/1.1/DTD/svg11.dtd">
<svg version="1.1" id="Layer_1" xmlns="http://www.w3.org/2000/svg" xmlns:xlink="http://www.w3.org/1999/xlink" x="0px" y="0px"
	 viewBox="0 0 136 186" enable-background="new 0 0 136 186" xml:space="preserve">
<g>
	<path fill="#020202" d="M48,136.1C48,136.1,48,136,48,136.1C48,136,47.9,136,48,136.1C47.9,136,48,136.1,48,136.1z"/>
	<path fill="#020202" d="M72.9,85.2c-9.4,0.4-20.4-0.2-25.1-1.9c-0.3,0.1-0.7,0.2-1,0.3c-0.7,0.3-1.3,0.5-2,0.8c0,0,0.1-0.1,0.1-0.1
		c-13.7,7-24.4,16.8-30.2,31.4c-1,2.5-2,4.9-2.1,7.6c5.4-1.8,10.2-1.2,14.1,3.3C30.1,115.3,37,106.8,48,100c0,13.1,0,25.3,0,37.5
		c13.3,0,26.6,0,39.9,0"/>
</g>
<path fill="#020202" d="M47.9,136c13.3,0,26.6,0,39.9,0c0,5,0,10,0,15c-5,0.1-9.9,0.1-14.9,0.2c-3.3,0-6.6,0-9.9,0
	c-5-0.1-9.9-0.1-14.9-0.2C48.1,146,48,141,47.9,136z"/>
<path fill="#FCD6AD" d="M109.1,125.9c4.2-4.2,9.2-4.8,14.7-3.1c1.5,2.3,3.9,4.1,4.2,7.2c0.4,4.2-0.5,8-4.2,10.4
	c-3.5,2.3-7.3,2.3-10.8,0.4c-3.9-2.1-5.4-5.7-4.9-10.1C108.2,129.1,108.7,127.5,109.1,125.9z"/>
<path fill="#FCD6AD" d="M9,136.9c-2.2-5.6-0.7-10.2,3.7-14c5.4-1.8,10.2-1.2,14.1,3.3c1.4,3.5,1.9,7.1,0.3,10.7
	C21.2,144.2,14.8,144.2,9,136.9z"/>
<path fill="#020202" d="M88,165.9c-5,0.1-9.9,0.1-14.9,0.2c-0.1-5-0.1-9.9-0.2-14.9c5-0.1,9.9-0.1,14.9-0.2
	C87.9,155.9,88,160.9,88,165.9z"/>
<path fill="#020202" d="M62.8,166c-5-0.1-9.9-0.1-14.9-0.2c0.1-5,0.1-9.9,0.2-14.9c5,0.1,9.9,0.1,14.9,0.2
	C63,156.1,62.9,161.1,62.8,166z"/>
<path fill="#020202" d="M68,87c4,0,8,0.1,12,0c4.4-0.1,2.8,3.2,3,5.3c0.2,2.2,0.7,4.9-3.1,4.7c-4.5-0.2-9,0-13.5,0
	c-1.8,0-3.3,0-3.3,2.5c0,2.5,1.6,2.5,3.3,2.5c4.5,0,9,0.1,13.5,0c2.4-0.1,3.2,0.8,3.2,3.2c-0.1,6.2-0.1,12.3,0,18.5
	c0,2.2-0.5,3.4-3,3.4c-8-0.1-16-0.1-24,0c-4.4,0-2.8-3.2-3-5.3c-0.2-2.2-0.7-4.9,3.1-4.7c4.5,0.2,9,0,13.5,0c1.8,0,3.3,0,3.3-2.5
	c0-2.5-1.6-2.5-3.3-2.5c-4.5,0-9-0.1-13.5,0c-2.4,0.1-3.2-0.8-3.2-3.2c0.1-6.2,0.1-12.3,0-18.5c-0.1-2.7,1-3.5,3.6-3.4
	C60.3,87.1,64.2,87,68,87z"/>
<g>
	<path fill="#ED2229" d="M42.4,81.8c-0.7,0.3-1.3,0.5-2,0.8C40.8,81.5,41.6,81.8,42.4,81.8z"/>
	<ellipse fill="#FCD6AD" cx="68.4" cy="46.3" rx="40.7" ry="40.3"/>
	<circle fill="#FFFFFF" cx="66.2" cy="53.4" r="11.2"/>
	<circle fill="#FFFFFF" cx="96.7" cy="53.4" r="11.2"/>
	<radialGradient id="SVGID_1_" cx="67.8739" cy="74.9349" r="58.6718" gradientUnits="userSpaceOnUse">
		<stop  offset="0" style="stop-color:#F8E962"/>
		<stop  offset="0.9859" style="stop-color:#DC9C01"/>
		<stop  offset="1" style="stop-color:#DC9B00"/>
	</radialGradient>
	<path fill="url(#SVGID_1_)" d="M109.1,46.5c0,0-0.4,14-1.7,25.4c0,0-2.5,39.5,3.2,52.2c0,0-7.4,12.3-22.8,8.9
		c0,0,1.2-39.5-7.9-47.6c0,0,28.3-7.7,25.9-36.9c0,0-30.1,2.3-46.4-16.7c0,0-6.4,15.9-4.2,38.6c0,0,4.7,66.2-1.5,70.9
		c0,0-19.5,11-21.7-6.4l-0.9,4.2c0,0-5-0.4-4.1-12.5l2-12.3c0,0,0.3-33.6-3.4-44.6c0,0-9.5-27.5,9.7-52.3c0,0,10.3-12.3,32.6-12.3
		c0,0,31.8,0.6,40.9,30.7C108.6,35.9,117.6,44.3,109.1,46.5z"/>
	<circle fill="#025EB2" cx="70.7" cy="53.4" r="2.7"/>
	<circle fill="#025EB2" cx="100.4" cy="53.4" r="2.7"/>
	<path fill="#F18C50" stroke="#F55D5D" stroke-width="0.8486" stroke-miterlimit="10" d="M63.2,70.5c0,0,5.4,0.8,8.6,0.5
		c0,0,6.3-0.6,7.9-0.4c0,0,4.2,0.3,6.5,1c0,0,2.5,0.4,4,0.2c0,0,1.8-0.5,0.9,1.6c0,0-5.1,2.3-11.3,2.3
		C79.8,75.7,67.3,74.9,63.2,70.5z"/>
	<path fill="#F18C50" stroke="#F55D5D" stroke-width="0.8486" stroke-miterlimit="10" d="M77.2,81c0,0,8.9,0.2,14-7.6
		c0,0-5.5,2.7-13,2.1c0,0-10.4-0.7-14.9-5C63.2,70.5,68.2,80.2,77.2,81z"/>
</g>
<path fill="#020202" d="M87.8,137.5c0-12.2,0-24.4,0-37.5c11.2,6.5,17.8,15.1,21.2,26.4c4.2-4.2,9.2-4.8,14.7-3.1
	c-5.4-19.6-17.6-33.9-36.6-41.1c-2.1,1-8.8,4.2-15.3,4.5"/>
<path fill="#FFFFFF" d="M63,162.8c0,0-6.3,6.7-14.9-0.2c0,0-10.6,4.2-15,12.8v2.8l15.7,0.1l8.3-0.1l5.8,0V162.8z"/>
<path fill="#FFFFFF" d="M73.7,162.8c0,0,6.3,6.7,14.9-0.2c0,0,10.6,4.2,15,12.8v2.8l-15.7,0.1l-8.3-0.1l-5.8,0V162.8z"/>
<g>
	<path fill="#FFFFFF" d="M57,105c0-1.1,0.3-2.1,0.8-3.1c0.6-0.9,1.3-1.7,2.3-2.3c1-0.6,2-0.8,3.1-0.8c1.4,0,2.8,0.5,3.9,1.4
		c0.4,0.3,0.6,0.6,0.8,0.8s0.2,0.5,0.2,0.7c0,0.4-0.1,0.7-0.4,0.9s-0.6,0.4-1,0.4c-0.3,0-0.7-0.1-1-0.4l-0.3-0.3
		c-0.3-0.3-0.6-0.5-1.1-0.6s-0.8-0.2-1.2-0.2c-0.9,0-1.7,0.3-2.4,1s-1,1.5-1,2.4c0,0.9,0.3,1.8,1,2.4s1.5,1,2.4,1
		c0.4,0,0.8-0.1,1.2-0.2s0.7-0.3,1-0.5l0.5-0.4c0.3-0.3,0.6-0.4,1-0.4c0.4,0,0.7,0.1,0.9,0.4c0.3,0.3,0.4,0.6,0.4,0.9
		c0,0.4-0.2,0.8-0.6,1.2c-0.6,0.6-1.2,1-2,1.3s-1.6,0.5-2.4,0.5c-1.1,0-2.1-0.3-3.1-0.8c-1-0.6-1.7-1.3-2.3-2.3
		C57.3,107.2,57,106.1,57,105z"/>
	<path fill="#FFFFFF" d="M69.8,109.6v-0.3v-8.5v-0.3c0-0.5,0.1-0.8,0.4-1.1s0.6-0.4,1-0.4s0.7,0.1,1,0.4s0.4,0.7,0.4,1.1v0.3v8.5
		v0.3c0,0.5-0.1,0.8-0.4,1.1s-0.6,0.4-1,0.4s-0.7-0.1-1-0.4S69.8,110.1,69.8,109.6z"/>
	<path fill="#FFFFFF" d="M74.4,105c0-1.1,0.3-2.1,0.8-3.1c0.6-0.9,1.3-1.7,2.3-2.3c1-0.6,2-0.8,3.1-0.8c1.4,0,2.8,0.5,3.9,1.4
		c0.4,0.3,0.6,0.6,0.8,0.8s0.2,0.5,0.2,0.7c0,0.4-0.1,0.7-0.4,0.9s-0.6,0.4-1,0.4c-0.3,0-0.7-0.1-1-0.4l-0.3-0.3
		c-0.3-0.3-0.6-0.5-1-0.6s-0.8-0.2-1.2-0.2c-0.9,0-1.7,0.3-2.4,1s-1,1.5-1,2.4c0,0.9,0.3,1.8,1,2.4s1.5,1,2.4,1
		c0.4,0,0.8-0.1,1.2-0.2s0.7-0.3,1-0.5l0.5-0.4c0.3-0.3,0.6-0.4,1-0.4c0.4,0,0.7,0.1,0.9,0.4s0.4,0.6,0.4,0.9c0,0.4-0.2,0.8-0.6,1.2
		c-0.6,0.6-1.2,1-2,1.3s-1.6,0.5-2.4,0.5c-1.1,0-2.1-0.3-3.1-0.8s-1.7-1.3-2.3-2.3S74.4,106.1,74.4,105z"/>
	<path fill="#FFFFFF" d="M62,123c0-1.1,0.3-2.1,0.8-3.1c0.6-0.9,1.3-1.7,2.2-2.3c0.9-0.6,2-0.8,3.1-0.8c0.8,0,1.7,0.2,2.4,0.5
		c0.8,0.3,1.4,0.8,2,1.3c0.6,0.6,1,1.2,1.3,2s0.5,1.6,0.5,2.4s-0.2,1.6-0.5,2.4c-0.3,0.8-0.8,1.4-1.3,2s-1.2,1-2,1.3
		s-1.6,0.5-2.4,0.5s-1.6-0.2-2.4-0.5c-0.8-0.3-1.4-0.8-2-1.3c-0.6-0.6-1-1.2-1.3-2S62,123.9,62,123z M64.7,123c0,1,0.3,1.8,1,2.5
		c0.7,0.7,1.5,1,2.5,1c1,0,1.8-0.3,2.4-1s1-1.5,1-2.4c0-0.9-0.3-1.8-1-2.4s-1.5-1-2.4-1c-0.9,0-1.7,0.3-2.4,1
		C65.1,121.3,64.7,122.1,64.7,123z"/>
	<path fill="#FFFFFF" d="M74.7,118.3c0-0.4,0.1-0.7,0.4-0.9s0.6-0.4,1-0.4h0.3H78c1,0,1.5,0.6,1.5,1.9v8.4v0.3
		c0,0.5-0.1,0.9-0.4,1.1s-0.6,0.4-1,0.4c-0.4,0-0.7-0.1-1-0.4s-0.4-0.7-0.4-1.1v-0.3v-7.7l-0.4,0h-0.3c-0.4,0-0.8-0.1-1-0.3
		S74.7,118.7,74.7,118.3z"/>
</g>
</svg>
