<?xml version="1.0" encoding="utf-8"?>
<!-- Generator: Adobe Illustrator 18.0.0, SVG Export Plug-In . SVG Version: 6.00 Build 0)  -->
<!DOCTYPE svg PUBLIC "-//W3C//DTD SVG 1.1//EN" "http://www.w3.org/Graphics/SVG/1.1/DTD/svg11.dtd">
<svg version="1.1" id="Layer_1" xmlns="http://www.w3.org/2000/svg" xmlns:xlink="http://www.w3.org/1999/xlink" x="0px" y="0px"
	 viewBox="0 0 110 150" enable-background="new 0 0 110 150" xml:space="preserve">
<g>
	<path fill="#FCD6AD" d="M92.4,45.4c0.2-4.5-1-8.2-4.2-11.3c2.6-4.8,7.9-6.3,12-3.5c4,2.8,4.6,8.2,1.4,12.3c-0.5,0.6-1,1.3-1.5,1.9
		C97.8,45.5,94.8,45.7,92.4,45.4z"/>
	<path fill="#020202" d="M92.4,45.4c-1.6,5.2-4.6,8.3-9.8,9.7c1.4,2.2,0.8,3.9-1,5.6c-4.9,4.9-10.9,6.9-17.5,7.4
		c-10.8,3.6-20.5,1.4-29.2-5.7c-3.4-2.2-5.9-5.1-7.5-8.8c-5.6-1.6-3.8-7.2-5.8-11.1c-3.3,3.6-7.3,3.4-11.4,2.3
		c2.6,10.4,8.5,18.7,16.6,25.6c3.5,1.9,6.6,4.5,10.5,5.8c2,0.6,1.8,2.3,1.8,4c0,10,0,20,0,30c0,0,0,0-0.1,0c0.1,4,0.1,8.1,0.2,12.1
		c0,0,0,0,0,0c-0.1,4-0.1,8-0.2,12c4,0,8,0.1,12,0.1c0.1-4,0.1-8,0.2-12c2.7,0,5.3,0,8,0c0.1,4,0.1,8,0.2,12c4,0,8-0.1,12-0.1
		c-0.1-4-0.1-8-0.2-12c0-4,0-8.1,0-12.1c0-10,0.2-19.9,0.1-29.9c0-2.3,0.6-3.5,2.8-4.5c13.5-6.2,22.2-16.5,26.1-30.9
		C97.8,45.5,94.8,45.7,92.4,45.4z"/>
	<g>
		<path fill="#FCD6AD" d="M23,37.1c0,18,14.2,33.9,32.8,32.6C74,68.3,88.7,55.1,88.7,37.1S74,4.5,55.9,4.5S23,19.1,23,37.1z"/>
		<circle fill="#FFFFFF" cx="57.7" cy="42.7" r="9"/>
		<circle fill="#FFFFFF" cx="33" cy="42.7" r="9"/>
		
			<radialGradient id="SVGID_1_" cx="-2288.4941" cy="60.1546" r="47.3775" gradientTransform="matrix(-1 0 0 1 -2232.2166 0)" gradientUnits="userSpaceOnUse">
			<stop  offset="0" style="stop-color:#F8B062"/>
			<stop  offset="0.9859" style="stop-color:#A46101"/>
			<stop  offset="1" style="stop-color:#A36000"/>
		</radialGradient>
		<path fill="url(#SVGID_1_)" d="M23,37.2c0,0,0.3,11.3,1.4,20.5c0,0,2.1,31.9-2.6,42.2c0,0,6,9.9,18.4,7.2c0,0-1-31.9,6.4-38.4
			c0,0-22.8-6.2-20.9-29.8c0,0,24.3,1.9,37.5-13.5c0,0,5.1,12.8,3.4,31.1c0,0-3.8,53.5,1.2,57.2c0,0,15.8,8.9,17.6-5.1l0.8,3.4
			c0,0,4-0.3,3.3-10.1L87.9,92c0,0-0.2-27.1,2.7-36c0,0,7.7-22.2-7.9-42.3c0,0-8.3-9.9-26.3-9.9c0,0-25.7,0.5-33,24.8
			C23.4,28.6,16.2,35.4,23,37.2z"/>
		<circle fill="#025EB2" cx="54" cy="42.8" r="2.2"/>
		<circle fill="#025EB2" cx="30" cy="42.8" r="2.2"/>
		<path fill="#F18C50" stroke="#F55D5D" stroke-width="0.6853" stroke-miterlimit="10" d="M60,56.6c0,0-4.3,0.6-6.9,0.4
			c0,0-5.1-0.5-6.4-0.3c0,0-3.4,0.3-5.3,0.8c0,0-2.1,0.3-3.2,0.2c0,0-1.4-0.4-0.7,1.3c0,0,4.2,1.9,9.2,1.8
			C46.6,60.8,56.8,60.2,60,56.6z"/>
		<path fill="#F18C50" stroke="#F55D5D" stroke-width="0.6853" stroke-miterlimit="10" d="M48.8,65.1c0,0-7.2,0.2-11.3-6.2
			c0,0,4.5,2.2,10.5,1.7c0,0,8.4-0.6,12-4.1C60,56.6,56,64.4,48.8,65.1z"/>
	</g>
	<path fill="#FCD6AD" d="M6.4,42.8c-1.8-4.5-0.5-8.2,3-11.3c4.3-1.5,8.2-1,11.4,2.6c1.1,2.9,1.5,5.7,0.2,8.6
		C16.2,48.7,11.1,48.7,6.4,42.8z"/>
	<path fill="#FFFFFF" d="M51.1,132.1c0,0-5.1,5.4-12-0.1c0,0-8.5,3.4-12.1,10.4v2.2l12.6,0l6.7-0.1l4.7,0V132.1z"/>
	<path fill="#FFFFFF" d="M59.3,132.1c0,0,5.1,5.4,12-0.1c0,0,8.5,3.4,12.1,10.4v2.2l-12.6,0l-6.7-0.1l-4.7,0V132.1z"/>
	<g>
		<path fill="#FFFFFF" d="M41.3,85.1c0-0.9,0.2-1.7,0.7-2.5c0.4-0.8,1.1-1.4,1.8-1.8c0.8-0.4,1.6-0.7,2.5-0.7c1.2,0,2.2,0.4,3.2,1.2
			c0.3,0.2,0.5,0.4,0.6,0.6c0.1,0.2,0.2,0.4,0.2,0.6c0,0.3-0.1,0.6-0.3,0.8c-0.2,0.2-0.5,0.3-0.8,0.3c-0.3,0-0.5-0.1-0.8-0.3
			L48.1,83c-0.2-0.2-0.5-0.4-0.8-0.5c-0.3-0.1-0.7-0.2-1-0.2c-0.8,0-1.4,0.3-2,0.8c-0.5,0.5-0.8,1.2-0.8,2c0,0.8,0.3,1.4,0.8,2
			c0.5,0.5,1.2,0.8,2,0.8c0.3,0,0.6-0.1,0.9-0.2c0.3-0.1,0.6-0.3,0.8-0.4l0.4-0.4c0.2-0.2,0.5-0.3,0.8-0.3c0.3,0,0.6,0.1,0.8,0.3
			c0.2,0.2,0.3,0.5,0.3,0.8c0,0.3-0.2,0.6-0.5,1c-0.4,0.4-1,0.8-1.6,1.1c-0.6,0.3-1.3,0.4-1.9,0.4c-0.9,0-1.7-0.2-2.5-0.7
			c-0.8-0.4-1.4-1.1-1.8-1.8C41.5,86.8,41.3,86,41.3,85.1z"/>
		<path fill="#FFFFFF" d="M51.5,88.8v-0.2v-6.9v-0.2c0-0.4,0.1-0.7,0.3-0.9c0.2-0.2,0.5-0.3,0.8-0.3s0.6,0.1,0.8,0.3
			c0.2,0.2,0.3,0.5,0.3,0.9v0.2v6.9v0.2c0,0.4-0.1,0.7-0.3,0.9C53.3,89.9,53,90,52.7,90s-0.6-0.1-0.8-0.3
			C51.7,89.5,51.5,89.2,51.5,88.8z"/>
		<path fill="#FFFFFF" d="M55.3,85.1c0-0.9,0.2-1.7,0.7-2.5c0.4-0.8,1.1-1.4,1.8-1.8c0.8-0.4,1.6-0.7,2.5-0.7c1.2,0,2.2,0.4,3.2,1.2
			c0.3,0.2,0.5,0.4,0.6,0.6c0.1,0.2,0.2,0.4,0.2,0.6c0,0.3-0.1,0.6-0.3,0.8c-0.2,0.2-0.5,0.3-0.8,0.3c-0.3,0-0.5-0.1-0.8-0.3
			L62.1,83c-0.2-0.2-0.5-0.4-0.8-0.5c-0.3-0.1-0.7-0.2-1-0.2c-0.8,0-1.4,0.3-2,0.8c-0.5,0.5-0.8,1.2-0.8,2c0,0.8,0.3,1.4,0.8,2
			c0.5,0.5,1.2,0.8,2,0.8c0.3,0,0.6-0.1,0.9-0.2c0.3-0.1,0.6-0.3,0.8-0.4l0.4-0.4c0.2-0.2,0.5-0.3,0.8-0.3c0.3,0,0.6,0.1,0.8,0.3
			c0.2,0.2,0.3,0.5,0.3,0.8c0,0.3-0.2,0.6-0.5,1c-0.4,0.4-1,0.8-1.6,1.1c-0.6,0.3-1.3,0.4-1.9,0.4c-0.9,0-1.7-0.2-2.5-0.7
			C57,89,56.4,88.3,56,87.6C55.5,86.8,55.3,86,55.3,85.1z"/>
		<path fill="#FFFFFF" d="M43.7,99.6c0-0.9,0.2-1.7,0.7-2.5c0.4-0.8,1.1-1.4,1.8-1.8s1.6-0.7,2.5-0.7c0.7,0,1.3,0.1,2,0.4
			c0.6,0.3,1.2,0.6,1.6,1.1c0.4,0.4,0.8,1,1.1,1.6s0.4,1.3,0.4,1.9c0,0.7-0.1,1.3-0.4,1.9c-0.3,0.6-0.6,1.1-1.1,1.6s-1,0.8-1.6,1.1
			c-0.6,0.3-1.3,0.4-1.9,0.4c-0.7,0-1.3-0.1-1.9-0.4s-1.1-0.6-1.6-1.1c-0.4-0.4-0.8-1-1.1-1.6C43.8,100.9,43.7,100.3,43.7,99.6z
			 M45.9,99.6c0,0.8,0.3,1.5,0.8,2c0.5,0.5,1.2,0.8,2,0.8c0.8,0,1.4-0.3,2-0.8c0.5-0.5,0.8-1.2,0.8-2c0-0.8-0.3-1.4-0.8-2
			c-0.5-0.5-1.2-0.8-2-0.8c-0.8,0-1.4,0.3-2,0.8C46.2,98.2,45.9,98.8,45.9,99.6z"/>
		<path fill="#FFFFFF" d="M54.5,101.2c0-0.4,0.1-0.6,0.3-0.9c0.2-0.2,0.5-0.4,0.8-0.4c0.3,0,0.6,0.1,0.8,0.3
			c0.2,0.2,0.3,0.4,0.4,0.7l0,0.3c0,0.3,0.2,0.6,0.4,0.8c0.3,0.2,0.6,0.3,0.9,0.3c0.4,0,0.7-0.1,0.9-0.4c0.3-0.2,0.4-0.5,0.4-0.9
			c0-0.3-0.1-0.6-0.3-0.8c-0.2-0.2-0.4-0.4-0.7-0.5c-0.2-0.1-0.4-0.1-0.4-0.1c0,0-0.1-0.1-0.1-0.1c-0.1-0.1-0.2-0.3-0.2-0.5
			c0-0.3,0.1-0.5,0.3-0.6l0.4-0.2c0.1-0.1,0.2-0.2,0.3-0.3c0.1-0.1,0.1-0.3,0.1-0.4c0-0.2-0.1-0.4-0.2-0.5c-0.1-0.1-0.3-0.2-0.5-0.2
			c-0.4,0-0.6,0.2-0.8,0.7c-0.1,0.2-0.2,0.4-0.4,0.5c-0.2,0.1-0.4,0.2-0.6,0.2c-0.3,0-0.6-0.1-0.8-0.3c-0.2-0.2-0.3-0.5-0.3-0.8
			c0-0.2,0.1-0.5,0.2-0.8c0.1-0.3,0.3-0.5,0.6-0.8c0.6-0.6,1.3-0.9,2.1-0.9c0.5,0,1,0.1,1.5,0.4c0.5,0.2,0.8,0.6,1.1,1
			c0.3,0.4,0.4,0.9,0.4,1.3c0,0.5-0.2,1-0.6,1.5c0.4,0.2,0.6,0.4,0.8,0.6c0.2,0.2,0.3,0.5,0.4,0.8c0.1,0.3,0.2,0.6,0.2,0.9
			c0,0.5-0.1,0.9-0.3,1.3c-0.2,0.4-0.5,0.8-0.8,1.1c-0.3,0.3-0.7,0.6-1.2,0.8c-0.4,0.2-0.9,0.3-1.4,0.3c-0.6,0-1.2-0.2-1.7-0.5
			c-0.6-0.3-1-0.7-1.3-1.2C54.7,102.4,54.5,101.8,54.5,101.2z"/>
	</g>
</g>
</svg>
