<?xml version="1.0" encoding="utf-8"?>
<!-- Generator: Adobe Illustrator 18.0.0, SVG Export Plug-In . SVG Version: 6.00 Build 0)  -->
<!DOCTYPE svg PUBLIC "-//W3C//DTD SVG 1.1//EN" "http://www.w3.org/Graphics/SVG/1.1/DTD/svg11.dtd">
<svg version="1.1" id="Layer_1" xmlns="http://www.w3.org/2000/svg" xmlns:xlink="http://www.w3.org/1999/xlink" x="0px" y="0px"
	 viewBox="0 0 110 150" enable-background="new 0 0 110 150" xml:space="preserve">
<g>
	<path fill="#020202" d="M38.8,109.9C38.8,109.8,38.8,109.8,38.8,109.9C38.8,109.8,38.8,109.8,38.8,109.9L38.8,109.9z"/>
	<path fill="#FCD6AD" d="M88.2,101.7c3.4-3.4,7.4-3.9,11.8-2.5c1.2,1.9,3.1,3.3,3.4,5.8c0.4,3.4-0.4,6.4-3.4,8.4
		c-2.8,1.8-5.9,1.9-8.7,0.3c-3.1-1.7-4.3-4.6-3.9-8.1C87.5,104.2,87.9,102.9,88.2,101.7z"/>
	<path fill="#FCD6AD" d="M7.3,110.5c-1.8-4.5-0.5-8.2,3-11.3c4.3-1.5,8.2-1,11.4,2.6c1.1,2.9,1.5,5.7,0.2,8.6
		C17.2,116.4,12,116.4,7.3,110.5z"/>
	<path fill="#020202" d="M71.2,133.9c-0.1-4-0.1-8-0.2-12c0-3.6,0-7.2,0-10.9l0,0v0c0-0.4,0-0.8,0-1.2c-0.1,0-0.2,0-0.3,0L59,68.8
		c-7.6,0.3-16.5-0.1-20.3-1.5c-0.3,0.1-0.5,0.2-0.8,0.3c-0.5,0.2-1,0.4-1.6,0.6l0.1-0.1c-11.1,5.6-19.7,13.6-24.4,25.3
		c-0.8,2-1.6,4-1.7,6.1c4.3-1.5,8.2-1,11.4,2.6c2.7-9.2,8.3-16,17.1-21.5c0,10.2,0,19.7,0,29.1c0,0,0,0-0.1,0
		c0.1,4,0.1,8.1,0.2,12.1c-0.1,4-0.1,8-0.2,12c4,0,8,0.1,12,0.1c0.1-4,0.1-8,0.2-12c2.7,0,5.3,0,8,0c0.1,4,0.1,8,0.2,12
		C63.2,134,67.2,133.9,71.2,133.9z"/>
	<g>
		<path fill="#ED2229" d="M34.3,66.1c-0.5,0.2-1.1,0.4-1.6,0.6C33,65.8,33.7,66.1,34.3,66.1z"/>
		<ellipse fill="#FCD6AD" cx="55.3" cy="37.4" rx="32.8" ry="32.6"/>
		<circle fill="#FFFFFF" cx="53.5" cy="43.1" r="9"/>
		<circle fill="#FFFFFF" cx="78.2" cy="43.1" r="9"/>
		<radialGradient id="SVGID_1_" cx="54.9002" cy="60.4772" r="47.3775" gradientUnits="userSpaceOnUse">
			<stop  offset="0" style="stop-color:#F8E962"/>
			<stop  offset="0.9859" style="stop-color:#DC9C01"/>
			<stop  offset="1" style="stop-color:#DC9B00"/>
		</radialGradient>
		<path fill="url(#SVGID_1_)" d="M88.2,37.5c0,0-0.3,11.3-1.4,20.5c0,0-2.1,31.9,2.6,42.2c0,0-6,9.9-18.4,7.2c0,0,1-31.9-6.4-38.4
			c0,0,22.8-6.2,20.9-29.8c0,0-24.3,1.9-37.5-13.5c0,0-5.1,12.8-3.4,31.1c0,0,3.8,53.5-1.2,57.2c0,0-15.8,8.9-17.6-5.1l-0.8,3.4
			c0,0-4-0.3-3.3-10.1l1.6-9.9c0,0,0.2-27.1-2.7-36c0,0-7.7-22.2,7.9-42.3c0,0,8.3-9.9,26.3-9.9c0,0,25.7,0.5,33,24.8
			C87.8,28.9,95,35.7,88.2,37.5z"/>
		<circle fill="#025EB2" cx="57.2" cy="43.1" r="2.2"/>
		<circle fill="#025EB2" cx="81.2" cy="43.1" r="2.2"/>
		<path fill="#F18C50" stroke="#F55D5D" stroke-width="0.6853" stroke-miterlimit="10" d="M51.2,56.9c0,0,4.3,0.6,6.9,0.4
			c0,0,5.1-0.5,6.4-0.3c0,0,3.4,0.3,5.3,0.8c0,0,2.1,0.3,3.2,0.2c0,0,1.4-0.4,0.7,1.3c0,0-4.2,1.9-9.2,1.8
			C64.6,61.1,54.4,60.5,51.2,56.9z"/>
		<path fill="#F18C50" stroke="#F55D5D" stroke-width="0.6853" stroke-miterlimit="10" d="M62.4,65.4c0,0,7.2,0.2,11.3-6.2
			c0,0-4.5,2.2-10.5,1.7c0,0-8.4-0.6-12-4.1C51.2,56.9,55.2,64.8,62.4,65.4z"/>
	</g>
	<path fill="#020202" d="M71,111c0-9.9,0-19.7,0-30.3C80,86,85.4,93,88.2,102.1c3.4-3.4,7.4-3.9,11.8-2.5
		c-4.3-15.8-14.2-27.4-29.5-33.2c-1.7,0.8-7.1,3.4-12.3,3.6"/>
	<path fill="#FFFFFF" d="M51,131.4c0,0-5.1,5.4-12-0.1c0,0-8.5,3.4-12.1,10.4v2.2l12.6,0l6.7-0.1l4.7,0V131.4z"/>
	<path fill="#FFFFFF" d="M59.2,131.4c0,0,5.1,5.4,12-0.1c0,0,8.5,3.4,12.1,10.4v2.2l-12.6,0l-6.7-0.1l-4.7,0V131.4z"/>
	<g>
		<path fill="#FFFFFF" d="M46.2,84.8c0-0.9,0.2-1.7,0.7-2.5c0.4-0.8,1.1-1.4,1.8-1.8c0.8-0.4,1.6-0.7,2.5-0.7c1.2,0,2.2,0.4,3.2,1.2
			c0.3,0.2,0.5,0.4,0.6,0.6c0.1,0.2,0.2,0.4,0.2,0.6c0,0.3-0.1,0.6-0.3,0.8c-0.2,0.2-0.5,0.3-0.8,0.3c-0.3,0-0.5-0.1-0.8-0.3
			L53,82.7c-0.2-0.2-0.5-0.4-0.8-0.5c-0.3-0.1-0.7-0.2-1-0.2c-0.8,0-1.4,0.3-2,0.8c-0.5,0.5-0.8,1.2-0.8,2c0,0.8,0.3,1.4,0.8,2
			c0.5,0.5,1.2,0.8,2,0.8c0.3,0,0.6-0.1,0.9-0.2s0.6-0.3,0.8-0.4l0.4-0.4c0.2-0.2,0.5-0.3,0.8-0.3c0.3,0,0.6,0.1,0.8,0.3
			c0.2,0.2,0.3,0.5,0.3,0.8c0,0.3-0.2,0.6-0.5,1c-0.4,0.4-1,0.8-1.6,1.1c-0.6,0.3-1.3,0.4-1.9,0.4c-0.9,0-1.7-0.2-2.5-0.7
			c-0.8-0.4-1.4-1.1-1.8-1.8C46.4,86.5,46.2,85.7,46.2,84.8z"/>
		<path fill="#FFFFFF" d="M56.4,88.5v-0.2v-6.9v-0.2c0-0.4,0.1-0.7,0.3-0.9c0.2-0.2,0.5-0.3,0.8-0.3c0.3,0,0.6,0.1,0.8,0.3
			c0.2,0.2,0.3,0.5,0.3,0.9v0.2v6.9v0.2c0,0.4-0.1,0.7-0.3,0.9c-0.2,0.2-0.5,0.3-0.8,0.3c-0.3,0-0.6-0.1-0.8-0.3
			S56.4,88.8,56.4,88.5z"/>
		<path fill="#FFFFFF" d="M60.2,84.8c0-0.9,0.2-1.7,0.7-2.5c0.4-0.8,1.1-1.4,1.8-1.8c0.8-0.4,1.6-0.7,2.5-0.7c1.2,0,2.2,0.4,3.2,1.2
			c0.3,0.2,0.5,0.4,0.6,0.6c0.1,0.2,0.2,0.4,0.2,0.6c0,0.3-0.1,0.6-0.3,0.8c-0.2,0.2-0.5,0.3-0.8,0.3c-0.3,0-0.5-0.1-0.8-0.3
			L67,82.7c-0.2-0.2-0.5-0.4-0.8-0.5c-0.3-0.1-0.7-0.2-1-0.2c-0.8,0-1.4,0.3-2,0.8c-0.5,0.5-0.8,1.2-0.8,2c0,0.8,0.3,1.4,0.8,2
			c0.5,0.5,1.2,0.8,2,0.8c0.3,0,0.6-0.1,0.9-0.2s0.6-0.3,0.8-0.4l0.4-0.4c0.2-0.2,0.5-0.3,0.8-0.3c0.3,0,0.6,0.1,0.8,0.3
			s0.3,0.5,0.3,0.8c0,0.3-0.2,0.6-0.5,1c-0.4,0.4-1,0.8-1.6,1.1c-0.6,0.3-1.3,0.4-1.9,0.4c-0.9,0-1.7-0.2-2.5-0.7s-1.4-1.1-1.8-1.8
			S60.2,85.7,60.2,84.8z"/>
		<path fill="#FFFFFF" d="M50.2,99.3c0-0.9,0.2-1.7,0.7-2.5c0.4-0.8,1.1-1.4,1.8-1.8c0.8-0.4,1.6-0.7,2.5-0.7c0.7,0,1.3,0.1,2,0.4
			c0.6,0.3,1.2,0.6,1.6,1.1c0.4,0.4,0.8,1,1.1,1.6c0.3,0.6,0.4,1.3,0.4,1.9c0,0.7-0.1,1.3-0.4,1.9c-0.3,0.6-0.6,1.1-1.1,1.6
			c-0.4,0.4-1,0.8-1.6,1.1c-0.6,0.3-1.3,0.4-1.9,0.4c-0.7,0-1.3-0.1-1.9-0.4c-0.6-0.3-1.1-0.6-1.6-1.1c-0.4-0.4-0.8-1-1.1-1.6
			C50.3,100.6,50.2,100,50.2,99.3z M52.4,99.3c0,0.8,0.3,1.5,0.8,2c0.5,0.5,1.2,0.8,2,0.8c0.8,0,1.4-0.3,2-0.8
			c0.5-0.5,0.8-1.2,0.8-2c0-0.8-0.3-1.4-0.8-2c-0.5-0.5-1.2-0.8-2-0.8c-0.8,0-1.4,0.3-2,0.8C52.6,97.9,52.4,98.5,52.4,99.3z"/>
		<path fill="#FFFFFF" d="M60.4,95.5c0-0.3,0.1-0.5,0.3-0.7c0.2-0.2,0.5-0.3,0.8-0.3h0.2h1.3c0.8,0,1.2,0.5,1.2,1.5v6.8v0.2
			c0,0.4-0.1,0.7-0.3,0.9s-0.5,0.3-0.8,0.3c-0.3,0-0.6-0.1-0.8-0.3c-0.2-0.2-0.3-0.5-0.3-0.9v-0.2v-6.2l-0.3,0h-0.2
			c-0.3,0-0.6-0.1-0.8-0.3C60.5,96,60.4,95.8,60.4,95.5z"/>
	</g>
</g>
</svg>
