<?xml version="1.0" encoding="utf-8"?>
<!-- Generator: Adobe Illustrator 18.0.0, SVG Export Plug-In . SVG Version: 6.00 Build 0)  -->
<!DOCTYPE svg PUBLIC "-//W3C//DTD SVG 1.1//EN" "http://www.w3.org/Graphics/SVG/1.1/DTD/svg11.dtd">
<svg version="1.1" id="Layer_1" xmlns="http://www.w3.org/2000/svg" xmlns:xlink="http://www.w3.org/1999/xlink" x="0px" y="0px"
	 viewBox="0 0 136 186" enable-background="new 0 0 136 186" xml:space="preserve">
<path fill="#020202" d="M35.9,142.2c-0.3-0.8-0.6-1.5-0.8-2.3c-3.7-20.4,0.8-38.5,15.1-53.8c0,0,0-0.2,0-0.2
	c2.6-0.4,4.8,0.9,7.1,1.7C68.5,91.3,79.5,91.2,90,85c0.4,0,0.8,0,1.2,0c-1,12.6,0.5,24.4,9.2,34.4c2.4,2.8,5.2,5,7.9,7.4
	c-4.9,2.7-6.9,7.3-8.3,12.4c-2.9-1.9-5.5-4.2-8.6-7.3c-0.2,3.2-0.3,5.7-0.5,8.1c-12.7,0-25.4,0-38.1,0c-0.6-0.4-1.3-0.8-1.9-1.2
	c0-7.9,0-15.9,0-25.2c-3.3,9-2.9,16.7-1,24.5C44.2,135.7,39.8,138.3,35.9,142.2z"/>
<path fill="#020202" d="M91.2,169.8c4,0,8,0.2,12,0.1c2.4-0.1,3,0.8,3.1,3.1c0.5,11.9,0.6,11.9-11.2,11.9c-13.3,0-26.6-0.1-39.9,0.1
	c-3.2,0-4.4-0.8-4.1-4.1c0.3-3.6,0.2-7.3,0.2-10.9c5,0,9.9-0.1,14.9-0.1c3.3,0,6.6,0,9.9,0C81.1,169.8,86.2,169.8,91.2,169.8z"/>
<path fill="#020202" d="M52.9,140c12.7,0,25.4,0,38.1,0c0,5,0,10,0,15c-5,0-9.9,0.1-14.9,0.1c-3.3,0-6.6,0-9.9,0
	c-4.4-0.1-8.9-0.1-13.3-0.2C56,149.9,56.2,144.9,52.9,140z"/>
<path fill="#FBC387" d="M52.9,140c3.3,5,3.2,9.9,0,14.9c-0.6,0.4-1.3,0.7-1.9,1.1c-4.1,2.2-8.2,2.5-12-0.6
	c-4.3-3.6-4.5-8.2-3.1-13.1c4-3.9,8.3-6.5,14.1-4.2c0.3,0.2,0.7,0.5,1,0.7C51.6,139.2,52.3,139.6,52.9,140z"/>
<path fill="#FBC387" d="M100,139.2c1.4-5.1,3.4-9.7,8.3-12.4c8.2,0.7,12.4,3.9,12.8,9.7c0.3,4.7-1.8,8.2-5.9,10
	c-4.3,1.9-8.5,1.1-11.7-2.6C102.3,142.4,101.2,140.7,100,139.2z"/>
<path fill="#020202" d="M76.1,155.1c5-0.1,9.9-0.1,14.9-0.1c0.1,5,0.1,9.9,0.2,14.9c-5,0-10.1,0-15.1,0
	C76.1,164.9,76.1,160,76.1,155.1z"/>
<path fill="#020202" d="M51,155.9c0.6-0.4,1.3-0.7,1.9-1.1c4.4,0.1,8.9,0.1,13.3,0.2c0,4.9,0,9.8,0,14.7c-5,0.1-9.9,0.1-14.9,0.1
	C51.2,165.3,51.1,160.6,51,155.9z"/>
<g>
	<path fill="#FFFFFF" d="M57.8,118.4c0-1.1,0.3-2.1,0.8-3.1c0.6-0.9,1.3-1.7,2.3-2.3c1-0.6,2-0.8,3.1-0.8c1.4,0,2.8,0.5,3.9,1.4
		c0.4,0.3,0.6,0.6,0.8,0.8c0.2,0.2,0.2,0.5,0.2,0.7c0,0.4-0.1,0.7-0.4,0.9s-0.6,0.4-1,0.4c-0.3,0-0.7-0.1-1-0.4l-0.3-0.3
		c-0.3-0.3-0.6-0.5-1.1-0.6S64.4,115,64,115c-0.9,0-1.7,0.3-2.4,1s-1,1.5-1,2.4c0,0.9,0.3,1.8,1,2.4s1.5,1,2.4,1
		c0.4,0,0.8-0.1,1.2-0.2s0.7-0.3,1-0.5l0.5-0.4c0.3-0.3,0.6-0.4,1-0.4c0.4,0,0.7,0.1,0.9,0.4s0.4,0.6,0.4,0.9c0,0.4-0.2,0.8-0.6,1.2
		c-0.6,0.6-1.2,1-2,1.3s-1.6,0.5-2.4,0.5c-1.1,0-2.1-0.3-3.1-0.8c-1-0.6-1.7-1.3-2.3-2.3C58.1,120.6,57.8,119.5,57.8,118.4z"/>
	<path fill="#FFFFFF" d="M70.6,123v-0.3v-8.5v-0.3c0-0.5,0.1-0.8,0.4-1.1c0.2-0.3,0.6-0.4,1-0.4s0.7,0.1,1,0.4s0.4,0.7,0.4,1.1v0.3
		v8.5v0.3c0,0.5-0.1,0.8-0.4,1.1s-0.6,0.4-1,0.4s-0.7-0.1-1-0.4C70.7,123.9,70.6,123.5,70.6,123z"/>
	<path fill="#FFFFFF" d="M75.2,118.4c0-1.1,0.3-2.1,0.8-3.1s1.3-1.7,2.3-2.3c1-0.6,2-0.8,3.1-0.8c1.4,0,2.8,0.5,3.9,1.4
		c0.4,0.3,0.6,0.6,0.8,0.8c0.1,0.2,0.2,0.5,0.2,0.7c0,0.4-0.1,0.7-0.4,0.9s-0.6,0.4-1,0.4c-0.3,0-0.7-0.1-1-0.4l-0.3-0.3
		c-0.3-0.3-0.6-0.5-1.1-0.6c-0.4-0.2-0.8-0.2-1.2-0.2c-0.9,0-1.7,0.3-2.4,1s-1,1.5-1,2.4c0,0.9,0.3,1.8,1,2.4s1.5,1,2.4,1
		c0.4,0,0.8-0.1,1.2-0.2c0.4-0.1,0.7-0.3,1-0.5l0.5-0.4c0.3-0.3,0.6-0.4,1-0.4c0.4,0,0.7,0.1,0.9,0.4s0.4,0.6,0.4,0.9
		c0,0.4-0.2,0.8-0.6,1.2c-0.6,0.6-1.2,1-2,1.3c-0.8,0.3-1.6,0.5-2.4,0.5c-1.1,0-2.1-0.3-3.1-0.8c-1-0.6-1.7-1.3-2.3-2.3
		C75.5,120.6,75.2,119.5,75.2,118.4z"/>
	<path fill="#FFFFFF" d="M61.6,136.4c0-1.1,0.3-2.1,0.8-3.1c0.6-0.9,1.3-1.7,2.2-2.3c0.9-0.6,2-0.8,3.1-0.8c0.8,0,1.7,0.2,2.4,0.5
		c0.8,0.3,1.4,0.8,2,1.3s1,1.2,1.3,2s0.5,1.6,0.5,2.4s-0.2,1.6-0.5,2.4c-0.3,0.8-0.8,1.4-1.3,2s-1.2,1-2,1.3
		c-0.8,0.3-1.6,0.5-2.4,0.5s-1.6-0.2-2.4-0.5c-0.8-0.3-1.4-0.8-2-1.3c-0.6-0.6-1-1.2-1.3-2S61.6,137.3,61.6,136.4z M64.3,136.4
		c0,1,0.3,1.8,1,2.5c0.7,0.7,1.5,1,2.5,1c1,0,1.8-0.3,2.4-1c0.7-0.7,1-1.5,1-2.4c0-0.9-0.3-1.8-1-2.4s-1.5-1-2.4-1
		c-0.9,0-1.7,0.3-2.4,1C64.7,134.7,64.3,135.5,64.3,136.4z"/>
	<path fill="#FFFFFF" d="M74.4,131.7c0-0.4,0.1-0.7,0.4-0.9s0.6-0.4,1-0.4h0.3H81c1.1,0,1.6,0.5,1.6,1.6c0,0.3-0.1,0.7-0.3,1.1
		l-3.3,8.2l-0.1,0.3c-0.3,0.7-0.7,1-1.3,1c-0.4,0-0.7-0.1-1-0.4s-0.4-0.6-0.4-0.9c0-0.2,0-0.5,0.1-0.7l0.1-0.3l2.9-7.3h-3.4h-0.3
		c-0.4,0-0.8-0.1-1-0.4S74.4,132.1,74.4,131.7z"/>
</g>
<g>
	<g>
		
			<radialGradient id="SVGID_1_" cx="-737.223" cy="45.3269" r="40.714" gradientTransform="matrix(-1 0 0 1 -690.9984 0)" gradientUnits="userSpaceOnUse">
			<stop  offset="0" style="stop-color:#F8B062"/>
			<stop  offset="0.9859" style="stop-color:#A46101"/>
			<stop  offset="1" style="stop-color:#A36000"/>
		</radialGradient>
		<path fill="url(#SVGID_1_)" d="M61.1,68.2c0,0-10.5-13.5-31.1-23.2c0,0-12.6,9.8-18.5,3c0,0-8-21.9,3.4-28.8
			c1.7-1.1,1.5-3.7,0-5.2l0,0c0,0,8.9-15.4,16.7-11.9c0,0,3.4-0.2,5.8,4.3s4.8,13.1,9.6,17.1c0,0,21.8,1.7,27.2,13
			c0,0,17,33.4,5.7,52.6C79.9,89,36.4,72.6,61.1,68.2z"/>
		<g>
			<ellipse fill="#FCD6AD" cx="73.2" cy="51.2" rx="40.7" ry="40.3"/>
			<circle fill="#FFFFFF" cx="72.5" cy="55.7" r="11.2"/>
			<circle fill="#FFFFFF" cx="103" cy="55.7" r="11.2"/>
			<circle fill="#025EB2" cx="77" cy="55.8" r="2.7"/>
			<circle fill="#025EB2" cx="106.7" cy="55.8" r="2.7"/>
		</g>
		
			<radialGradient id="SVGID_2_" cx="-764.1841" cy="34.7815" r="33.5249" gradientTransform="matrix(-1 0 0 1 -690.9984 0)" gradientUnits="userSpaceOnUse">
			<stop  offset="0" style="stop-color:#F8B062"/>
			<stop  offset="0.9859" style="stop-color:#A46101"/>
			<stop  offset="1" style="stop-color:#A36000"/>
		</radialGradient>
		<path fill="url(#SVGID_2_)" d="M33.2,59.1c-4-22.8,9.2-42.6,31.9-47.9c0.4-0.1,0.8-0.5,1.1-0.8c4.8,0,9.5,0,14.3,0
			c5.4,2.1,11,3.4,15.8,6.9c10,7.1,16.1,16.6,17.5,28.9c-3.7-4.7-12.4-6.4-22,1.6c-12.2-1.3-20-18.2-38.2,3.4c-3.4,4-6.6,1.4-5.8,6
			c-1,0.1-1.9,0.2-2.9,0.3C40.6,55,36.9,56.7,33.2,59.1z"/>
		<path fill="#FCD6AD" d="M91.2,87.2c-13.1,6.3-16.6,7.6-29.7,2.7c-4.1-1-13.5-5.3-14.5-7.5c0-4.8,0-9.6,0-15.9
			c-2.8,4.6-6,5.2-9.6,5c-5.5-2.6-6.3-7-4.7-12.4c3.6-2.4,7.3-4.5,11.5-2.1c1.1,2.2,0,5.6,2.7,5.2c1.9-0.3,3.7,6,5.6,5.8
			c3.1-0.3,6.2,0.2,8.1,3.4c2.9,4.8,6.1,0.8,10.3,2.1c7.4,2.3,26.8,1.3,33.6,2.4c-0.3,2.3-1.8,1-3.1,2.7c-1.7-1.5-3.6-2.2-5.9-2.2
			c-9,0.1-18,0.1-26.9,0c-3.6,0-3.6,1-3.5,5.1c0,4.1,2.6,3,6.1,3c7.5,0,12.5,2.1,19.9,2.2C91.2,86.8,91.2,87,91.2,87.2z"/>
		
			<radialGradient id="SVGID_3_" cx="-773.6088" cy="98.9611" r="18.2821" gradientTransform="matrix(-1 0 0 1 -690.9984 0)" gradientUnits="userSpaceOnUse">
			<stop  offset="0" style="stop-color:#F8B062"/>
			<stop  offset="0.9859" style="stop-color:#A46101"/>
			<stop  offset="1" style="stop-color:#A36000"/>
		</radialGradient>
		<path fill="url(#SVGID_3_)" d="M65.3,82.3c18.8,2.6,34.8,2.4,35.1-2.1c-1.7,30-6,20.1-15.4,37.4C73.9,105.9,62.1,94.9,65.3,82.3z"
			/>
		
			<radialGradient id="SVGID_4_" cx="-776.6157" cy="75.5248" r="14.1345" gradientTransform="matrix(-1 0 0 1 -690.9984 0)" gradientUnits="userSpaceOnUse">
			<stop  offset="0" style="stop-color:#F8B062"/>
			<stop  offset="0.9859" style="stop-color:#A46101"/>
			<stop  offset="1" style="stop-color:#A36000"/>
		</radialGradient>
		<path fill="url(#SVGID_4_)" d="M69.2,73.4c0,0,8.8-5.2,20.3-1.2c0,0,8.4-4.4,14.9,2.6c0,0,1.2,2.6,0.4,5.5c0,0-1.9-4-5-3
			c-4.4,1.5-7,1-11.5-0.1c0,0-7,3-10.3,1.7c0,0-3.8,0-7-1.3c0,0-3.6-1-4.6,2.4C65.9,81.6,66.4,73.6,69.2,73.4z"/>
		<path fill="#FCD6AD" d="M31.5,67.5c-2-5.1-0.6-9.2,3.4-12.7c4.9-1.6,9.2-1.1,12.8,3c1.3,3.2,1.7,6.4,0.3,9.7
			C42.6,74.1,36.8,74.1,31.5,67.5z"/>
	</g>
	
		<radialGradient id="SVGID_5_" cx="-741.59" cy="62.0306" r="8.2559" gradientTransform="matrix(-1 0 0 1 -690.9984 0)" gradientUnits="userSpaceOnUse">
		<stop  offset="0" style="stop-color:#F8B062"/>
		<stop  offset="0.9859" style="stop-color:#A46101"/>
		<stop  offset="1" style="stop-color:#A36000"/>
	</radialGradient>
	<polygon fill="url(#SVGID_5_)" points="54.9,72.9 46.3,71.9 46.8,51.2 53.5,51.2 51.5,61.2 	"/>
</g>
</svg>
