<?xml version="1.0" encoding="utf-8"?>
<!-- Generator: Adobe Illustrator 18.0.0, SVG Export Plug-In . SVG Version: 6.00 Build 0)  -->
<!DOCTYPE svg PUBLIC "-//W3C//DTD SVG 1.1//EN" "http://www.w3.org/Graphics/SVG/1.1/DTD/svg11.dtd">
<svg version="1.1" id="Layer_1" xmlns="http://www.w3.org/2000/svg" xmlns:xlink="http://www.w3.org/1999/xlink" x="0px" y="0px"
	 viewBox="0 0 163.7 186" enable-background="new 0 0 163.7 186" xml:space="preserve">
<path fill="#020202" d="M101.8,104.1c0,12,0,23.9-0.1,35.9c-13.4,0-26.7,0-40.1,0c0-12.5,0-24.9,0.1-37.4c0-2.6-0.9-4.3-2.9-5.8
	C47.4,87.9,34.6,86,20.7,88.9c2.7-5.6-0.1-9.9-3.3-14.1c8.5-3.1,17.2-2.8,25.9-1.3c1.8,0.3,3.5,1.1,5.3,0.6c0,0,0-0.1,0-0.1
	c-0.2,0.9,0.5,0.8,1.1,0.9c0.7,0.7,1.4,1.4,2.1,2.1c-0.1,6.6,1.1,7.9,7.6,8c1.2,0,2.3,0.1,3.5,0.1c12.7,8.1,33.1,6.1,43.9-4.1
	c3-1.2,4.3-4.2,6.8-6c0.6-0.1,1-0.3,1.1-1l-0.1,0c9-1.1,18.1-1.4,27.2-0.9c1.6,0.7,3.2,1.4,4.8,2c-4.5,3.7-6.3,8.1-3.9,13.7
	c-3.9-0.4-7.8-1.8-11.8-0.8c-9.7-1.1-17.9,2.8-25.6,8.1C102.4,98,101,100.6,101.8,104.1z"/>
<path fill="#020202" d="M61.6,140c13.4,0,26.7,0,40.1,0c0,0-0.1-0.1-0.1-0.1c0,5,0,9.9,0,14.9c-13.3,0-26.6,0-40,0
	C61.7,149.9,61.7,144.9,61.6,140L61.6,140z"/>
<path fill="#020202" d="M116.5,140c0-2.7,0.1-5.3,0.1-8c0-7,0-7,7-7c8,0,8,0,8,8.1c0,6.3-0.1,12.6,0,18.9c0.1,2.4-0.7,3.2-3.1,3.1
	c-4-0.2-8-0.1-11.9-0.2C116.6,149.9,116.6,144.9,116.5,140z"/>
<path fill="#020202" d="M46.6,154.9c-4.8,0-10.8,1.7-14-0.6c-3.1-2.2-0.7-8.7-1-13.2c-0.1-1.8,0-3.6,0-5.5c0-11.2,1.5-12.4,13-10.6
	c2.3,0.4,2,1.6,2,3.1c0.1,4,0.1,8,0.1,11.9C46.7,144.9,46.7,149.9,46.6,154.9z"/>
<path fill="#FCD6AD" d="M17.4,74.8c3.2,4.2,6,8.5,3.3,14.1c-4.2,5.6-10.7,7-15.4,3.2c-4.3-3.4-5-9.7-1.5-14.2
	C7.4,73.2,12.4,73.9,17.4,74.8z"/>
<path fill="#FCD6AD" d="M142.6,88.9c-2.4-5.6-0.6-10.1,3.9-13.7c6.6-3.2,13.8,0.5,15.1,7.2c0.9,4.7-1.5,9.2-5.7,11
	C150.9,95.5,146.5,94,142.6,88.9z"/>
<path fill="#020202" d="M116.5,140c0.1,5,0.1,9.9,0.2,14.9c-5,0-10,0-15,0c0-5,0-9.9,0-14.9C106.6,140,111.6,140,116.5,140z"/>
<path fill="#020202" d="M46.6,154.9c0.1-5,0.1-9.9,0.2-14.9c5,0,9.9,0,14.9,0c0,5,0,9.9,0,14.9C56.7,154.9,51.7,154.9,46.6,154.9z"
	/>
<g>
	<path fill="#FFFFFF" d="M67.7,115.7c0-1.1,0.3-2.1,0.8-3.1c0.6-0.9,1.3-1.7,2.3-2.3c1-0.6,2-0.8,3.1-0.8c1.4,0,2.8,0.5,3.9,1.4
		c0.4,0.3,0.6,0.6,0.8,0.8s0.2,0.5,0.2,0.7c0,0.4-0.1,0.7-0.4,0.9s-0.6,0.4-1,0.4c-0.3,0-0.7-0.1-1-0.4l-0.3-0.3
		c-0.3-0.3-0.6-0.5-1.1-0.6s-0.8-0.2-1.2-0.2c-0.9,0-1.7,0.3-2.4,1s-1,1.5-1,2.4c0,0.9,0.3,1.8,1,2.4s1.5,1,2.4,1
		c0.4,0,0.8-0.1,1.2-0.2s0.7-0.3,1-0.5l0.5-0.4c0.3-0.3,0.6-0.4,1-0.4c0.4,0,0.7,0.1,0.9,0.4s0.4,0.6,0.4,0.9c0,0.4-0.2,0.8-0.6,1.2
		c-0.6,0.6-1.2,1-2,1.3s-1.6,0.5-2.4,0.5c-1.1,0-2.1-0.3-3.1-0.8c-1-0.6-1.7-1.3-2.3-2.3C68,117.8,67.7,116.8,67.7,115.7z"/>
	<path fill="#FFFFFF" d="M80.4,120.2v-0.3v-8.5v-0.3c0-0.5,0.1-0.8,0.4-1.1s0.6-0.4,1-0.4s0.7,0.1,1,0.4s0.4,0.7,0.4,1.1v0.3v8.5
		v0.3c0,0.5-0.1,0.8-0.4,1.1s-0.6,0.4-1,0.4s-0.7-0.1-1-0.4S80.4,120.7,80.4,120.2z"/>
	<path fill="#FFFFFF" d="M85,115.7c0-1.1,0.3-2.1,0.8-3.1c0.6-0.9,1.3-1.7,2.3-2.3s2-0.8,3.1-0.8c1.4,0,2.8,0.5,3.9,1.4
		c0.4,0.3,0.6,0.6,0.8,0.8c0.2,0.2,0.2,0.5,0.2,0.7c0,0.4-0.1,0.7-0.4,0.9s-0.6,0.4-1,0.4c-0.3,0-0.7-0.1-1-0.4l-0.3-0.3
		c-0.3-0.3-0.6-0.5-1-0.6c-0.4-0.2-0.8-0.2-1.2-0.2c-0.9,0-1.7,0.3-2.4,1s-1,1.5-1,2.4c0,0.9,0.3,1.8,1,2.4s1.5,1,2.4,1
		c0.4,0,0.8-0.1,1.2-0.2c0.4-0.1,0.7-0.3,1-0.5l0.5-0.4c0.3-0.3,0.6-0.4,1-0.4c0.4,0,0.7,0.1,0.9,0.4s0.4,0.6,0.4,0.9
		c0,0.4-0.2,0.8-0.6,1.2c-0.6,0.6-1.2,1-2,1.3c-0.8,0.3-1.6,0.5-2.4,0.5c-1.1,0-2.1-0.3-3.1-0.8c-1-0.6-1.7-1.3-2.3-2.3
		C85.3,117.8,85,116.8,85,115.7z"/>
	<path fill="#FFFFFF" d="M75.6,128.9c0-0.4,0.1-0.7,0.4-0.9s0.6-0.4,1-0.4h0.3h1.6c1,0,1.5,0.6,1.5,1.9v8.4v0.3
		c0,0.5-0.1,0.9-0.4,1.1s-0.6,0.4-1,0.4c-0.4,0-0.7-0.1-1-0.4s-0.4-0.7-0.4-1.1v-0.3v-7.7l-0.4,0H77c-0.4,0-0.8-0.1-1-0.3
		S75.6,129.3,75.6,128.9z"/>
	<path fill="#FFFFFF" d="M81.6,128.9c0-0.4,0.1-0.7,0.4-0.9s0.6-0.4,1-0.4h0.3h1.6c1,0,1.5,0.6,1.5,1.9v8.4v0.3
		c0,0.5-0.1,0.9-0.4,1.1s-0.6,0.4-1,0.4c-0.4,0-0.7-0.1-1-0.4s-0.4-0.7-0.4-1.1v-0.3v-7.7l-0.4,0H83c-0.4,0-0.8-0.1-1-0.3
		C81.7,129.6,81.6,129.3,81.6,128.9z"/>
</g>
<g>
	<g>
		<radialGradient id="SVGID_1_" cx="108.3869" cy="44.6371" r="40.714" gradientUnits="userSpaceOnUse">
			<stop  offset="0" style="stop-color:#F8E962"/>
			<stop  offset="0.9859" style="stop-color:#DC9C01"/>
			<stop  offset="1" style="stop-color:#DC9B00"/>
		</radialGradient>
		<path fill="url(#SVGID_1_)" d="M93.5,67.5c0,0,10.5-13.5,31.1-23.2c0,0,12.6,9.8,18.5,3c0,0,8-21.9-3.4-28.8
			c-1.7-1.1-1.5-3.7,0-5.2v0c0,0-8.9-15.4-16.7-11.9c0,0-3.4-0.2-5.8,4.3c-2.4,4.4-4.8,13.1-9.6,17.1c0,0-21.8,1.7-27.2,13
			c0,0-17,33.4-5.7,52.6C74.8,88.3,118.2,71.9,93.5,67.5z"/>
		<g>
			<ellipse fill="#FCD6AD" cx="81.4" cy="50.5" rx="40.7" ry="40.3"/>
			<circle fill="#FFFFFF" cx="82.1" cy="55" r="11.2"/>
			<circle fill="#FFFFFF" cx="51.6" cy="55" r="11.2"/>
			<circle fill="#025EB2" cx="77.6" cy="55.1" r="2.7"/>
			<circle fill="#025EB2" cx="47.9" cy="55.1" r="2.7"/>
		</g>
		<radialGradient id="SVGID_2_" cx="81.4052" cy="33.7768" r="33.6273" gradientUnits="userSpaceOnUse">
			<stop  offset="0" style="stop-color:#F8E962"/>
			<stop  offset="0.9859" style="stop-color:#DC9C01"/>
			<stop  offset="1" style="stop-color:#DC9B00"/>
		</radialGradient>
		<path fill="url(#SVGID_2_)" d="M121.4,58.4c4-22.8-10.4-43.4-33-48.7c-0.4-0.1,0.4,0.3,0,0c-6.7-1.4-9.5,0-14.3,0
			c-5.4,2.1-11,3.4-15.8,6.9c-10,7.1-16.1,16.6-17.5,28.9c3.7-4.7,12.4-6.4,22,1.6C75,45.8,82.8,29,101,50.5c3.4,4,6.6,1.4,5.8,6
			c1,0.1,1.9,0.2,2.9,0.3C114,54.4,117.8,56,121.4,58.4z"/>
		<path fill="#FCD6AD" d="M63.4,86.5c13.1,6.3,16.6,7.6,29.7,2.7c4.1-1,13.5-5.3,14.5-7.5c0-4.8,0-9.6,0-15.9c2.8,4.6,6,5.2,9.6,5
			c5.5-2.6,6.3-7,4.7-12.4c-3.6-2.4-7.3-4.5-11.5-2.1c-1.1,2.2,0,5.6-2.7,5.2c-1.9-0.3-3.7,6-5.6,5.8C99,67,95.9,67.5,94,70.7
			c-2.9,4.8-6.1,0.8-10.3,2.1c-7.4,2.3-26.8,1.3-33.6,2.4c0.3,2.3,1.8,1,3.1,2.7c1.7-1.5,3.6-2.2,5.9-2.2c9,0.1,18,0.1,26.9,0
			c3.6,0,3.6,1,3.5,5.1c0,4.1-2.6,3-6.1,3c-7.5,0-12.5,2.1-19.9,2.2C63.4,86.1,63.4,86.3,63.4,86.5z"/>
		<radialGradient id="SVGID_3_" cx="72.0011" cy="98.2713" r="18.2821" gradientUnits="userSpaceOnUse">
			<stop  offset="0" style="stop-color:#F8E962"/>
			<stop  offset="0.9859" style="stop-color:#DC9C01"/>
			<stop  offset="1" style="stop-color:#DC9B00"/>
		</radialGradient>
		<path fill="url(#SVGID_3_)" d="M89.3,81.6c-18.8,2.6-34.8,2.4-35.1-2.1c1.7,30,6,20.1,15.4,37.4C80.7,105.2,92.5,94.2,89.3,81.6z"
			/>
		<radialGradient id="SVGID_4_" cx="68.9943" cy="74.835" r="14.1345" gradientUnits="userSpaceOnUse">
			<stop  offset="0" style="stop-color:#F8E962"/>
			<stop  offset="0.9859" style="stop-color:#DC9C01"/>
			<stop  offset="1" style="stop-color:#DC9B00"/>
		</radialGradient>
		<path fill="url(#SVGID_4_)" d="M85.4,72.7c0,0-8.8-5.2-20.3-1.2c0,0-8.4-4.4-14.9,2.6c0,0-1.2,2.6-0.4,5.5c0,0,1.9-4,5-3
			c4.4,1.5,7,1,11.5-0.1c0,0,7,3,10.3,1.7c0,0,3.8,0,7-1.3c0,0,3.6-1,4.6,2.4C88.7,80.9,88.2,72.9,85.4,72.7z"/>
		<path fill="#FCD6AD" d="M123.1,66.8c2-5.1,0.6-9.2-3.4-12.7c-4.9-1.6-9.2-1.1-12.8,3c-1.3,3.2-1.7,6.4-0.3,9.7
			C112,73.4,117.8,73.4,123.1,66.8z"/>
	</g>
	<radialGradient id="SVGID_5_" cx="104.0199" cy="61.3408" r="8.2559" gradientUnits="userSpaceOnUse">
		<stop  offset="0" style="stop-color:#F8E962"/>
		<stop  offset="0.9859" style="stop-color:#DC9C01"/>
		<stop  offset="1" style="stop-color:#DC9B00"/>
	</radialGradient>
	<polygon fill="url(#SVGID_5_)" points="99.8,72.2 108.3,71.2 107.8,50.5 101.1,50.5 103.1,60.5 	"/>
</g>
<path fill="#020202" d="M117.2,72.7c-3.6,0.2-6.3,2-9.1-2.5c-1.4,10.7-6.5,12.3-15,19C96.2,88,111.6,87,117.2,72.7z"/>
</svg>
