<?xml version="1.0" encoding="utf-8"?>
<!-- Generator: Adobe Illustrator 18.0.0, SVG Export Plug-In . SVG Version: 6.00 Build 0)  -->
<!DOCTYPE svg PUBLIC "-//W3C//DTD SVG 1.1//EN" "http://www.w3.org/Graphics/SVG/1.1/DTD/svg11.dtd">
<svg version="1.1" id="Layer_1" xmlns="http://www.w3.org/2000/svg" xmlns:xlink="http://www.w3.org/1999/xlink" x="0px" y="0px"
	 viewBox="-11 0 132 150" enable-background="new -11 0 132 150" xml:space="preserve">
<g>
	<path fill="#020202" d="M107.4,61.1c-1.3-0.6-2.6-1.1-3.9-1.7c-7.3-0.4-14.6-0.2-21.9,0.7c0,0,0,0.1,0,0.1
		c-1.9,0.3-3.5,0.4-5.2-2.3c-0.7,5.4-2.5,7.9-5.4,10.3c-12.7,4.4-40.1-0.9-40.1-5.6c-0.6-0.6-1.1-1.1-1.7-1.7
		c-0.4-0.1-0.9,0-0.9-0.6c-1.5,0.4-2.9-0.2-4.3-0.5c-7-1.2-14-1.5-20.9,1c2.6,3.4,4.9,6.9,2.7,11.4c11.2-2.4,21.6-0.8,30.8,6.4
		c1.6,1.2,2.4,2.6,2.3,4.7c-0.1,10-0.1,20.1-0.1,30.1c-4,0-8,0-12,0c0-3.2-0.1-6.4-0.1-9.6c0-1.2,0.2-2.2-1.7-2.5
		c-9.2-1.4-10.5-0.5-10.5,8.6c0,1.5-0.1,3,0,4.4c0.2,3.7-2.2,10.1,0.8,10.7c3.5,0.6,45,0.5,55.7,0.5c4,0,8.1,0,12.1,0
		c3.2,0,6.4,0,9.6,0.2c1.9,0.1,2.5-0.5,2.5-2.5c-0.1-5.1,0-10.2,0-15.3c0-6.5,0-6.5-6.4-6.5c-5.7,0-5.7,0-5.7,5.6
		c0,2.1-0.1,4.3-0.1,6.4c-4,0-8,0-12,0c0-9.6,0-19.3,0-28.9c-0.7-2.9,0.5-4.9,2.8-6.5c6.2-4.2,12.8-7.4,20.7-6.5
		c3.2-0.8,6.4,0.4,9.5,0.7C102.3,67.6,103.8,64,107.4,61.1z"/>
	<path fill="#FCD6AD" d="M3.1,60.8c2.6,3.4,4.9,6.9,2.7,11.4c-3.4,4.5-8.6,5.6-12.4,2.6c-3.4-2.7-4-7.9-1.2-11.5
		C-4.9,59.4-0.9,60.1,3.1,60.8z"/>
	<path fill="#FCD6AD" d="M104.2,72.1c-1.9-4.5-0.5-8.1,3.1-11.1c5.3-2.6,11.1,0.4,12.2,5.8c0.7,3.8-1.2,7.4-4.6,8.9
		C110.9,77.5,107.3,76.3,104.2,72.1z"/>
	<g>
		<path fill="#020202" d="M28.3,60.2C28.3,60.2,28.3,60.2,28.3,60.2C28.3,60.2,28.3,60.2,28.3,60.2L28.3,60.2z"/>
		<path fill="#020202" d="M81.6,60.1C81.6,60.1,81.6,60.1,81.6,60.1C81.6,60.1,81.6,60.1,81.6,60.1L81.6,60.1z"/>
	</g>
	<g>
		<path fill="#FFFFFF" d="M43.7,93.8c0-0.9,0.2-1.7,0.7-2.5c0.4-0.8,1.1-1.4,1.8-1.8c0.8-0.4,1.6-0.7,2.5-0.7c1.2,0,2.2,0.4,3.2,1.2
			c0.3,0.2,0.5,0.4,0.6,0.6c0.1,0.2,0.2,0.4,0.2,0.6c0,0.3-0.1,0.6-0.3,0.8c-0.2,0.2-0.5,0.3-0.8,0.3c-0.3,0-0.5-0.1-0.8-0.3
			l-0.2-0.2c-0.2-0.2-0.5-0.4-0.8-0.5C49.4,91,49,91,48.7,91c-0.8,0-1.4,0.3-2,0.8c-0.5,0.5-0.8,1.2-0.8,2c0,0.8,0.3,1.4,0.8,2
			c0.5,0.5,1.2,0.8,2,0.8c0.3,0,0.6-0.1,0.9-0.2c0.3-0.1,0.6-0.3,0.8-0.4l0.4-0.4c0.2-0.2,0.5-0.3,0.8-0.3c0.3,0,0.6,0.1,0.8,0.3
			s0.3,0.5,0.3,0.8c0,0.3-0.2,0.6-0.5,1c-0.4,0.4-1,0.8-1.6,1.1c-0.6,0.3-1.3,0.4-1.9,0.4c-0.9,0-1.7-0.2-2.5-0.7
			c-0.8-0.4-1.4-1.1-1.8-1.8C43.9,95.5,43.7,94.7,43.7,93.8z"/>
		<path fill="#FFFFFF" d="M54,97.5v-0.2v-6.9v-0.2c0-0.4,0.1-0.7,0.3-0.9c0.2-0.2,0.5-0.3,0.8-0.3s0.6,0.1,0.8,0.3s0.3,0.5,0.3,0.9
			v0.2v6.9v0.2c0,0.4-0.1,0.7-0.3,0.9s-0.5,0.3-0.8,0.3s-0.6-0.1-0.8-0.3C54.1,98.1,54,97.8,54,97.5z"/>
		<path fill="#FFFFFF" d="M57.7,93.8c0-0.9,0.2-1.7,0.7-2.5s1.1-1.4,1.8-1.8c0.8-0.4,1.6-0.7,2.5-0.7c1.2,0,2.2,0.4,3.2,1.2
			c0.3,0.2,0.5,0.4,0.6,0.6c0.1,0.2,0.2,0.4,0.2,0.6c0,0.3-0.1,0.6-0.3,0.8c-0.2,0.2-0.5,0.3-0.8,0.3c-0.3,0-0.5-0.1-0.8-0.3
			l-0.2-0.2c-0.2-0.2-0.5-0.4-0.8-0.5C63.4,91,63,91,62.7,91c-0.8,0-1.4,0.3-2,0.8c-0.5,0.5-0.8,1.2-0.8,2c0,0.8,0.3,1.4,0.8,2
			c0.5,0.5,1.2,0.8,2,0.8c0.3,0,0.6-0.1,0.9-0.2c0.3-0.1,0.6-0.3,0.8-0.4l0.4-0.4c0.2-0.2,0.5-0.3,0.8-0.3c0.3,0,0.6,0.1,0.8,0.3
			c0.2,0.2,0.3,0.5,0.3,0.8c0,0.3-0.2,0.6-0.5,1c-0.4,0.4-1,0.8-1.6,1.1c-0.6,0.3-1.3,0.4-1.9,0.4c-0.9,0-1.7-0.2-2.5-0.7
			c-0.8-0.4-1.4-1.1-1.8-1.8C58,95.5,57.7,94.7,57.7,93.8z"/>
		<path fill="#FFFFFF" d="M50.1,104.5c0-0.3,0.1-0.5,0.3-0.7c0.2-0.2,0.5-0.3,0.8-0.3h0.2h1.3c0.8,0,1.2,0.5,1.2,1.5v6.8v0.2
			c0,0.4-0.1,0.7-0.3,0.9c-0.2,0.2-0.5,0.3-0.8,0.3c-0.3,0-0.6-0.1-0.8-0.3c-0.2-0.2-0.3-0.5-0.3-0.9v-0.2v-6.2l-0.3,0h-0.2
			c-0.3,0-0.6-0.1-0.8-0.3C50.2,105,50.1,104.8,50.1,104.5z"/>
		<path fill="#FFFFFF" d="M54.9,104.5c0-0.3,0.1-0.5,0.3-0.7c0.2-0.2,0.5-0.3,0.8-0.3h0.2h1.3c0.8,0,1.2,0.5,1.2,1.5v6.8v0.2
			c0,0.4-0.1,0.7-0.3,0.9c-0.2,0.2-0.5,0.3-0.8,0.3c-0.3,0-0.6-0.1-0.8-0.3c-0.2-0.2-0.3-0.5-0.3-0.9v-0.2v-6.2l-0.3,0h-0.2
			c-0.3,0-0.6-0.1-0.8-0.3C55,105,54.9,104.8,54.9,104.5z"/>
	</g>
	<g>
		<g>
			<radialGradient id="SVGID_1_" cx="76.5766" cy="36.4109" r="32.8766" gradientUnits="userSpaceOnUse">
				<stop  offset="0" style="stop-color:#F8E962"/>
				<stop  offset="0.9859" style="stop-color:#DC9C01"/>
				<stop  offset="1" style="stop-color:#DC9B00"/>
			</radialGradient>
			<path fill="url(#SVGID_1_)" d="M64.6,54.9c0,0,8.5-10.9,25.1-18.7c0,0,10.2,7.9,15,2.4c0,0,6.4-17.7-2.7-23.3
				c-1.4-0.9-1.2-3,0-4.2v0c0,0-7.2-12.5-13.5-9.6c0,0-2.8-0.1-4.7,3.5S79.9,15.5,76,18.8c0,0-17.6,1.4-21.9,10.5
				c0,0-13.7,27-4.6,42.5C49.4,71.7,84.5,58.5,64.6,54.9z"/>
			<g>
				<ellipse fill="#FCD6AD" cx="54.8" cy="41.2" rx="32.8" ry="32.6"/>
				<circle fill="#FFFFFF" cx="55.4" cy="44.8" r="9"/>
				<circle fill="#FFFFFF" cx="30.7" cy="44.8" r="9"/>
				<circle fill="#025EB2" cx="51.7" cy="44.8" r="2.2"/>
				<circle fill="#025EB2" cx="27.7" cy="44.8" r="2.2"/>
			</g>
			<radialGradient id="SVGID_2_" cx="54.8055" cy="27.8955" r="27.0713" gradientUnits="userSpaceOnUse">
				<stop  offset="0" style="stop-color:#F8E962"/>
				<stop  offset="0.9859" style="stop-color:#DC9C01"/>
				<stop  offset="1" style="stop-color:#DC9B00"/>
			</radialGradient>
			<path fill="url(#SVGID_2_)" d="M87.1,47.6c3.2-18.4-7.5-34.4-25.8-38.7c-0.3-0.1-0.6-0.4-0.9-0.7c-3.8,0-7.7,0-11.5,0
				C44.6,9.9,40,11,36.1,13.8C28,19.6,23.1,27.2,22,37.1c3-3.8,10-5.2,17.8,1.3c9.8-1.1,16.1-14.7,30.9,2.7c2.7,3.2,5.4,1.1,4.7,4.9
				c0.8,0.1,1.6,0.2,2.3,0.2C81.1,44.3,84.1,45.6,87.1,47.6z"/>
			<path fill="#FCD6AD" d="M40.3,69.8c10.6,5.1,13.4,6.1,24,2.2c3.3-0.8,10.9-4.3,11.7-6.1c0-3.9,0-7.8,0-12.8
				c2.2,3.7,4.8,4.2,7.7,4.1c4.4-2.1,5.1-5.7,3.8-10c-2.9-1.9-5.9-3.6-9.3-1.7c-0.9,1.8,0,4.5-2.2,4.2c-1.6-0.3-3,4.8-4.6,4.7
				c-2.5-0.2-5,0.2-6.6,2.8c-2.3,3.9-4.9,0.6-8.3,1.7c-6,1.8-21.6,1.1-27.2,1.9c0.3,1.9,1.4,0.8,2.5,2.1c1.4-1.2,2.9-1.8,4.8-1.7
				c7.2,0.1,14.5,0.1,21.7,0c2.9,0,2.9,0.8,2.8,4.1c0,3.3-2.1,2.4-4.9,2.4c-6,0-10.1,1.7-16.1,1.8C40.3,69.5,40.3,69.6,40.3,69.8z"
				/>
			<radialGradient id="SVGID_3_" cx="47.1951" cy="79.7205" r="14.7628" gradientUnits="userSpaceOnUse">
				<stop  offset="0" style="stop-color:#F8E962"/>
				<stop  offset="0.9859" style="stop-color:#DC9C01"/>
				<stop  offset="1" style="stop-color:#DC9B00"/>
			</radialGradient>
			<path fill="url(#SVGID_3_)" d="M61.2,66.3c-15.2,2.1-28.1,2-28.4-1.7c1.4,24.2,4.9,16.3,12.4,30.2C54.3,85.4,63.7,76.4,61.2,66.3
				z"/>
			<radialGradient id="SVGID_4_" cx="44.7671" cy="60.7957" r="11.4136" gradientUnits="userSpaceOnUse">
				<stop  offset="0" style="stop-color:#F8E962"/>
				<stop  offset="0.9859" style="stop-color:#DC9C01"/>
				<stop  offset="1" style="stop-color:#DC9B00"/>
			</radialGradient>
			<path fill="url(#SVGID_4_)" d="M58,59.1c0,0-7.1-4.2-16.4-1c0,0-6.8-3.6-12,2.1c0,0-0.9,2.1-0.3,4.4c0,0,1.5-3.3,4-2.4
				c3.5,1.2,5.6,0.8,9.3-0.1c0,0,5.7,2.4,8.3,1.4c0,0,3.1,0,5.7-1.1c0,0,2.9-0.8,3.7,1.9C60.7,65.7,60.2,59.3,58,59.1z"/>
			<path fill="#FCD6AD" d="M88.5,54.3c1.6-4.1,0.5-7.5-2.7-10.3c-3.9-1.3-7.5-0.9-10.3,2.4c-1,2.6-1.4,5.2-0.2,7.9
				C79.5,59.6,84.2,59.6,88.5,54.3z"/>
		</g>
		<radialGradient id="SVGID_5_" cx="73.0503" cy="49.8991" r="6.6667" gradientUnits="userSpaceOnUse">
			<stop  offset="0" style="stop-color:#F8E962"/>
			<stop  offset="0.9859" style="stop-color:#DC9C01"/>
			<stop  offset="1" style="stop-color:#DC9B00"/>
		</radialGradient>
		<polygon fill="url(#SVGID_5_)" points="69.6,58.7 76.5,57.9 76.1,41.1 70.7,41.1 72.3,49.2 		"/>
	</g>
</g>
</svg>
