<?xml version="1.0" encoding="utf-8"?>
<!-- Generator: Adobe Illustrator 18.0.0, SVG Export Plug-In . SVG Version: 6.00 Build 0)  -->
<!DOCTYPE svg PUBLIC "-//W3C//DTD SVG 1.1//EN" "http://www.w3.org/Graphics/SVG/1.1/DTD/svg11.dtd">
<svg version="1.1" id="Layer_1" xmlns="http://www.w3.org/2000/svg" xmlns:xlink="http://www.w3.org/1999/xlink" x="0px" y="0px"
	 viewBox="0 0 110 150" enable-background="new 0 0 110 150" xml:space="preserve">
<g>
	<path fill="#020202" d="M98.4,62.8c-1.1-0.5-2.1-0.9-3.2-1.4C89,61.1,83,61.3,76.9,62c0,0,0,0,0,0.1c-1.6,0.3-3,0.3-4.3-1.9
		c-0.6,4.5-2.1,6.6-4.5,8.6c-10.5,3.7-33.4-0.7-33.4-4.7c-0.5-0.5-0.9-1-1.4-1.4c-0.3-0.1-0.8,0-0.7-0.5c-1.2,0.3-2.4-0.2-3.6-0.4
		c-5.9-1-11.7-1.2-17.4,0.8c2.2,2.8,4,5.7,2.2,9.5c9.3-2,17.9-0.6,25.6,5.3c1.3,1,2,2.1,2,3.9c-0.1,8.4-0.1,16.7-0.1,25.1
		c-3.3,0-6.6,0-10,0c0-2.7-0.1-5.4-0.1-8c0-1,0.2-1.8-1.4-2.1c-7.7-1.2-8.7-0.4-8.7,7.1c0,1.2-0.1,2.5,0,3.7
		c0.2,3.1-1.8,8.4,0.6,8.9c2.9,0.5,37.4,0.4,46.4,0.4c3.4,0,6.7,0,10.1,0c2.7,0,5.4,0,8,0.1c1.6,0.1,2.1-0.4,2.1-2.1
		c-0.1-4.2,0-8.5,0-12.7c0-5.4,0-5.4-5.4-5.4c-4.7,0-4.7,0-4.7,4.7c0,1.8-0.1,3.6-0.1,5.4c-3.3,0-6.6,0-10,0c0-8,0-16.1,0-24.1
		c-0.5-2.4,0.4-4.1,2.3-5.4c5.2-3.5,10.7-6.2,17.2-5.4c2.7-0.6,5.3,0.3,7.9,0.6C94.1,68.3,95.3,65.3,98.4,62.8z"/>
	<path fill="#FCD6AD" d="M11.5,62.6c2.2,2.8,4,5.7,2.2,9.5c-2.8,3.8-7.2,4.7-10.3,2.2c-2.9-2.3-3.4-6.5-1-9.6
		C4.8,61.5,8.2,62,11.5,62.6z"/>
	<path fill="#FCD6AD" d="M95.7,72.1c-1.6-3.8-0.4-6.8,2.6-9.2c4.4-2.2,9.3,0.3,10.1,4.9c0.6,3.2-1,6.2-3.8,7.4
		C101.3,76.5,98.3,75.5,95.7,72.1z"/>
	<g>
		<path fill="#020202" d="M32.5,62.1C32.5,62.1,32.5,62.1,32.5,62.1C32.5,62.2,32.5,62.2,32.5,62.1L32.5,62.1z"/>
		<path fill="#020202" d="M76.9,62.1C76.9,62.1,76.9,62.1,76.9,62.1C76.9,62,76.9,62,76.9,62.1L76.9,62.1z"/>
	</g>
	<g>
		<path fill="#FFFFFF" d="M45.3,90.1c0-0.7,0.2-1.4,0.6-2.1c0.4-0.6,0.9-1.1,1.5-1.5s1.3-0.6,2.1-0.6c1,0,1.9,0.3,2.6,1
			c0.2,0.2,0.4,0.4,0.5,0.5c0.1,0.2,0.2,0.3,0.2,0.5c0,0.2-0.1,0.5-0.3,0.6c-0.2,0.2-0.4,0.3-0.6,0.3c-0.2,0-0.5-0.1-0.7-0.3
			L51,88.3c-0.2-0.2-0.4-0.3-0.7-0.4c-0.3-0.1-0.5-0.2-0.8-0.2c-0.6,0-1.2,0.2-1.6,0.7c-0.4,0.5-0.7,1-0.7,1.6
			c0,0.6,0.2,1.2,0.7,1.6s1,0.7,1.6,0.7c0.3,0,0.5,0,0.8-0.1c0.3-0.1,0.5-0.2,0.6-0.4l0.3-0.3c0.2-0.2,0.4-0.3,0.7-0.3
			c0.2,0,0.5,0.1,0.6,0.3c0.2,0.2,0.3,0.4,0.3,0.6c0,0.3-0.1,0.5-0.4,0.8c-0.4,0.4-0.8,0.7-1.3,0.9c-0.5,0.2-1,0.3-1.6,0.3
			c-0.7,0-1.4-0.2-2.1-0.6c-0.6-0.4-1.1-0.9-1.5-1.5C45.5,91.5,45.3,90.8,45.3,90.1z"/>
		<path fill="#FFFFFF" d="M53.9,93.2V93v-5.7V87c0-0.3,0.1-0.6,0.3-0.8c0.2-0.2,0.4-0.3,0.7-0.3s0.5,0.1,0.7,0.3s0.3,0.4,0.3,0.7
			v0.2V93v0.2c0,0.3-0.1,0.6-0.3,0.8s-0.4,0.3-0.7,0.3s-0.5-0.1-0.7-0.3C54,93.7,53.9,93.5,53.9,93.2z"/>
		<path fill="#FFFFFF" d="M57,90.1c0-0.7,0.2-1.4,0.6-2.1c0.4-0.6,0.9-1.1,1.5-1.5c0.6-0.4,1.3-0.6,2.1-0.6c1,0,1.9,0.3,2.6,1
			c0.2,0.2,0.4,0.4,0.5,0.5c0.1,0.2,0.2,0.3,0.2,0.5c0,0.2-0.1,0.5-0.3,0.6c-0.2,0.2-0.4,0.3-0.6,0.3c-0.2,0-0.5-0.1-0.7-0.3
			l-0.2-0.2c-0.2-0.2-0.4-0.3-0.7-0.4c-0.3-0.1-0.5-0.2-0.8-0.2c-0.6,0-1.2,0.2-1.6,0.7c-0.4,0.5-0.7,1-0.7,1.6
			c0,0.6,0.2,1.2,0.7,1.6c0.5,0.5,1,0.7,1.6,0.7c0.3,0,0.5,0,0.8-0.1c0.3-0.1,0.5-0.2,0.6-0.4l0.3-0.3c0.2-0.2,0.4-0.3,0.7-0.3
			c0.2,0,0.5,0.1,0.6,0.3c0.2,0.2,0.3,0.4,0.3,0.6c0,0.3-0.1,0.5-0.4,0.8c-0.4,0.4-0.8,0.7-1.3,0.9c-0.5,0.2-1,0.3-1.6,0.3
			c-0.7,0-1.4-0.2-2.1-0.6c-0.6-0.4-1.1-0.9-1.5-1.5C57.2,91.5,57,90.8,57,90.1z"/>
		<path fill="#FFFFFF" d="M50.7,99c0-0.2,0.1-0.5,0.3-0.6s0.4-0.2,0.7-0.2h0.2h1.1c0.7,0,1,0.4,1,1.2v5.7v0.2c0,0.3-0.1,0.6-0.2,0.8
			s-0.4,0.3-0.7,0.3c-0.3,0-0.5-0.1-0.7-0.3c-0.2-0.2-0.3-0.4-0.3-0.8v-0.2v-5.2l-0.3,0h-0.2c-0.3,0-0.5-0.1-0.7-0.2
			C50.8,99.5,50.7,99.3,50.7,99z"/>
		<path fill="#FFFFFF" d="M54.7,99c0-0.2,0.1-0.5,0.3-0.6s0.4-0.2,0.7-0.2h0.2h1.1c0.7,0,1,0.4,1,1.2v5.7v0.2c0,0.3-0.1,0.6-0.2,0.8
			s-0.4,0.3-0.7,0.3c-0.3,0-0.5-0.1-0.7-0.3c-0.2-0.2-0.3-0.4-0.3-0.8v-0.2v-5.2l-0.3,0h-0.2c-0.3,0-0.5-0.1-0.7-0.2
			C54.8,99.5,54.7,99.3,54.7,99z"/>
	</g>
	<g>
		<g>
			<radialGradient id="SVGID_1_" cx="72.709" cy="42.3161" r="27.3801" gradientUnits="userSpaceOnUse">
				<stop  offset="0" style="stop-color:#F8E962"/>
				<stop  offset="0.9859" style="stop-color:#DC9C01"/>
				<stop  offset="1" style="stop-color:#DC9B00"/>
			</radialGradient>
			<path fill="url(#SVGID_1_)" d="M62.7,57.7c0,0,7.1-9.1,20.9-15.6c0,0,8.5,6.6,12.5,2c0,0,5.4-14.7-2.3-19.4c-1.2-0.7-1-2.5,0-3.5
				l0,0c0,0-6-10.4-11.2-8c0,0-2.3-0.1-3.9,2.9c-1.6,3-3.2,8.8-6.4,11.5c0,0-14.6,1.1-18.3,8.7c0,0-11.4,22.4-3.9,35.4
				C50.1,71.7,79.3,60.7,62.7,57.7z"/>
			<g>
				<ellipse fill="#FCD6AD" cx="54.6" cy="46.3" rx="27.3" ry="27.1"/>
				<circle fill="#FFFFFF" cx="55.1" cy="49.3" r="7.5"/>
				<circle fill="#FFFFFF" cx="34.5" cy="49.3" r="7.5"/>
				<circle fill="#025EB2" cx="52" cy="49.3" r="1.8"/>
				<circle fill="#025EB2" cx="32" cy="49.3" r="1.8"/>
			</g>
			<radialGradient id="SVGID_2_" cx="54.5777" cy="35.2243" r="22.5454" gradientUnits="userSpaceOnUse">
				<stop  offset="0" style="stop-color:#F8E962"/>
				<stop  offset="0.9859" style="stop-color:#DC9C01"/>
				<stop  offset="1" style="stop-color:#DC9B00"/>
			</radialGradient>
			<path fill="url(#SVGID_2_)" d="M81.5,51.6c2.7-15.4-6.2-28.7-21.5-32.2c-0.3-0.1-0.5-0.4-0.8-0.5c-3.2,0-6.4,0-9.6,0
				c-3.6,1.4-7.4,2.3-10.6,4.6c-6.8,4.8-10.8,11.2-11.8,19.4c2.5-3.2,8.3-4.3,14.8,1.1c8.2-0.9,13.4-12.2,25.7,2.3
				c2.3,2.7,4.5,0.9,3.9,4.1c0.6,0.1,1.3,0.1,1.9,0.2C76.5,48.9,79,49.9,81.5,51.6z"/>
			<path fill="#FCD6AD" d="M42.5,70.1c8.8,4.2,11.2,5.1,20,1.8c2.8-0.7,9.1-3.6,9.8-5.1c0-3.2,0-6.5,0-10.7c1.9,3.1,4,3.5,6.4,3.4
				c3.7-1.8,4.2-4.7,3.2-8.3c-2.4-1.6-4.9-3-7.8-1.4c-0.8,1.5,0,3.8-1.8,3.5c-1.3-0.2-2.5,4-3.8,3.9c-2.1-0.2-4.2,0.2-5.5,2.3
				c-1.9,3.2-4.1,0.5-6.9,1.4c-5,1.5-18,0.9-22.6,1.6c0.2,1.6,1.2,0.7,2.1,1.8c1.1-1,2.4-1.5,4-1.5c6,0,12.1,0,18.1,0
				c2.4,0,2.4,0.7,2.4,3.4c0,2.7-1.7,2-4.1,2c-5,0-8.4,1.4-13.4,1.5C42.5,69.9,42.5,70,42.5,70.1z"/>
			<radialGradient id="SVGID_3_" cx="48.2396" cy="78.385" r="12.2947" gradientUnits="userSpaceOnUse">
				<stop  offset="0" style="stop-color:#F8E962"/>
				<stop  offset="0.9859" style="stop-color:#DC9C01"/>
				<stop  offset="1" style="stop-color:#DC9B00"/>
			</radialGradient>
			<path fill="url(#SVGID_3_)" d="M59.9,67.2c-12.7,1.7-23.4,1.6-23.6-1.4C37.4,86,40.3,79.3,46.6,91C54.1,83.1,62,75.7,59.9,67.2z"
				/>
			<radialGradient id="SVGID_4_" cx="46.2175" cy="62.6241" r="9.5054" gradientUnits="userSpaceOnUse">
				<stop  offset="0" style="stop-color:#F8E962"/>
				<stop  offset="0.9859" style="stop-color:#DC9C01"/>
				<stop  offset="1" style="stop-color:#DC9B00"/>
			</radialGradient>
			<path fill="url(#SVGID_4_)" d="M57.2,61.2c0,0-5.9-3.5-13.6-0.8c0,0-5.6-3-10,1.8c0,0-0.8,1.8-0.3,3.7c0,0,1.3-2.7,3.3-2
				c2.9,1,4.7,0.7,7.7,0c0,0,4.7,2,6.9,1.2c0,0,2.6,0,4.7-0.9c0,0,2.4-0.7,3.1,1.6C59.5,66.7,59.1,61.4,57.2,61.2z"/>
			<path fill="#FCD6AD" d="M82.6,57.2c1.4-3.4,0.4-6.2-2.3-8.5c-3.3-1.1-6.2-0.8-8.6,2c-0.9,2.2-1.2,4.3-0.2,6.5
				C75.2,61.7,79.1,61.7,82.6,57.2z"/>
		</g>
		<radialGradient id="SVGID_5_" cx="69.7722" cy="53.5493" r="5.5521" gradientUnits="userSpaceOnUse">
			<stop  offset="0" style="stop-color:#F8E962"/>
			<stop  offset="0.9859" style="stop-color:#DC9C01"/>
			<stop  offset="1" style="stop-color:#DC9B00"/>
		</radialGradient>
		<polygon fill="url(#SVGID_5_)" points="66.9,60.9 72.6,60.2 72.3,46.2 67.8,46.2 69.1,53 		"/>
	</g>
</g>
</svg>
