<?xml version="1.0" encoding="utf-8"?>
<!-- Generator: Adobe Illustrator 18.0.0, SVG Export Plug-In . SVG Version: 6.00 Build 0)  -->
<!DOCTYPE svg PUBLIC "-//W3C//DTD SVG 1.1//EN" "http://www.w3.org/Graphics/SVG/1.1/DTD/svg11.dtd">
<svg version="1.1" id="Layer_1" xmlns="http://www.w3.org/2000/svg" xmlns:xlink="http://www.w3.org/1999/xlink" x="0px" y="0px"
	 viewBox="0 0 142.8 93.1" enable-background="new 0 0 142.8 93.1" xml:space="preserve">
<g>
	<path fill="#7E5A66" d="M3.3,50.9c-1-0.9-0.4-1.8-0.1-2.7c7-17.9,18-32.1,36.7-39C52,4.6,64.7,4.5,77.5,5.5
		c15.7,1.7,30.7,5.8,45.2,11.9c4,1.7,4.1,2.3,2.3,6.1c-1.6,3.3-3.9,5.4-7.4,6.8c-6.8,2.7-13.4,5.9-20.3,8.4
		c-3.6,1.5-7.4,2.6-11.1,3.9c-13.6,4.6-27.6,7.4-41.8,8.9c-2.1,0.2-4.2,0.6-6.3,0.6c-4,0.6-8.1-0.2-12,1.1c-6.7-1.3-13.5-1-20.2-2
		C4.9,51.2,4.1,51.2,3.3,50.9z"/>
	<path fill="#462436" d="M3.3,50.9c4.6-1.5,9,0.3,13.5,0.5c3.3,0.1,7-0.8,10,1.6c1.7-0.7,2.8,0.5,4.1,1.2c9,5,18.2,9.3,28.3,11.5
		c18.6,4.2,35.9,1.2,51.8-9.4c3.6-2.4,3.5-3,0.5-6.2c-3.1-3.3-6.8-5.8-10.6-8.3c-1.2-0.8-2.9-1.2-2.9-3.1c4.1-2.5,8.3-5.2,13.3-2.1
		c10.7,4.6,19.6,11.6,27.1,21.1c-1.9,1.1-3.7,2.1-5.5,3.1c-16.2,7-33,12.2-50.5,14.7c-13.7,2-27.4,1.6-40.6-3.2
		c-11.1-4.1-21.4-9.6-31-16.4c-1.9-1.3-4,0.2-5.7-1.3C4.6,53.4,3.9,52.1,3.3,50.9z"/>
	<path fill="#6B4759" d="M5.2,54.6c3.3-1.5,5.7,0.1,8.4,1.9c8.6,5.7,17.4,11,27.3,14.1c0.4,0.1,0.7,0.6,1.1,0.9
		c-0.8,0.7-1.9,0.4-2.9,1.1c0.7,1.3,2,1.4,3.1,1.7c9.8,2.8,19.7,4.3,30,3.2c1.4-0.1,3-0.4,3.6,1.2c0.6,1.5-0.9,2.2-2,2.8
		c-9.5,5.7-19.4,10-30.8,6.5c-1.9-0.6-4-0.1-5.8-1.4c-10.8-3.6-18.5-11.1-25-20.1C9.5,62.9,6.6,59.2,5.2,54.6z"/>
	<path fill="#6B4759" d="M37.3,86.8c3.8,0.5,7.6,1.3,11.4,1.6c10.1,0.7,18.6-3.6,27.2-9.1c-3.2-1.8-5.9-0.1-8.6-0.1
		c-8.9,0-17.5-1.5-26-3.9c-1.6-0.5-4.5-0.3-3.8-3c0.7-3.1,3.1-0.4,4.6-0.7c20.1,6.4,39.9,4.2,59.8-1.2c9.5-2.6,18.7-5.8,27.9-9.2
		c1-0.4,2.1-0.8,3.3-0.5c-24.6,14.7-49.7,28-79.2,29.6C48,90.7,42.5,89.6,37.3,86.8z"/>
	<path fill="#7E5A66" d="M111.4,36.6c-4.9-2.3-8.9,0.7-13.1,2.1c-0.8,0.5-1.4,0.2-1.9-0.4c7.3-3.1,14.5-6.5,22-9.3
		c4.1-1.5,4.9-5.3,6.9-8.3c0.9-1.4-1.1-1.6-2-1.9C109.3,13.1,95,8.3,80,6.2c-0.9-0.1-1.7-0.4-2.5-0.7c4.8-0.5,9.4,0.6,14,1.5
		c9.1,1.9,18.3,4,27.1,7.3c6.2,2.3,12.5,4.6,19.2,7.7c-9.5,5.1-18.9,9-28.5,12.8C110,35.5,110.7,36,111.4,36.6z"/>
	<path fill="#8A6A75" d="M73.7,23.1c-5.4,10-12.4,17.9-24.6,18.8c-11.2,0.9-22.4,1.3-32.8-4.4c-2.5-1.4-2.9-2.1-1.1-4.6
		C28.2,14.2,46.8,8,68.5,8.8c2.1,0.1,4.2,0.4,6.3,0.6c0.8,1,0.7,2.1,0.3,3.2C74.2,16,73.9,19.5,73.7,23.1z"/>
	<path fill="#F1A08B" d="M96.4,38.3c0.6,0.1,1.2,0.3,1.9,0.4c5.8,3.6,11.4,7.5,16.1,12.7c1.8,2,1.4,2.8-0.5,4.2
		c-19.6,14-40.8,16.2-63.3,8.5c-8.3-2.8-16-6.8-23.6-11.2c-0.3-0.9-0.2-1.2,1-1.3c3.4,0,6.8-0.2,10.2-0.3c9.6,5.3,20,8.3,30.9,8.2
		c8.4-0.1,16.1-2.8,23-7.7c2-1.4,2.1-2.6,0.3-4.4c-2-1.9-4.1-3.6-6-5.5C89.6,40.7,93,39.5,96.4,38.3z"/>
	<path fill="#FDDF79" d="M86.1,41.9c4.5,0.6,6,4.8,9.1,7.3c1,0.8-0.2,1.7-1,2.3c-5.8,4.8-12.7,7.2-19.9,8.6
		c-5.6,1.1-11.3,1-16.8-0.8c-6.1-1.9-12.7-2.3-18.1-6.2c-0.7-0.5-1.6-0.7-1.4-1.8C54.4,50,70.4,46.7,86.1,41.9z"/>
	<path fill="#7E5A66" d="M77,36.9c5.6-4.2,11-8.6,13.8-15.3c0.7-1.8,1.2-3.4,1.2-5.4c0-1.6-0.3-3.9,2.1-4.2c2.5-0.3,5.1,0.1,7.1,1.6
		c1,0.7,0.1,2.1-0.4,3.1C95.6,26.6,87.6,33.3,77,36.9z"/>
	<path fill="#7E5A66" d="M44.3,45.3c-12.7,3.5-25,3.4-37.4,2.4c2.2-6.3,2.2-6.3,8-4.5c7.8,2.5,15.8,3,24,2.1
		C40.4,45.1,42,44.5,44.3,45.3z"/>
	<path fill="#7E5A66" d="M73.7,23.1c-1.9-3.1-0.6-6.2,0.2-9.3c0.4-1.4,0.7-2.9,1-4.3c0.2-0.1,0.4-0.3,0.7-0.3c4.9,0,4.9,0,3.3,4.5
		C77.5,17.1,76.2,20.4,73.7,23.1z"/>
	<path fill="#6B4759" d="M11,60.8c9.4,2.2,15.3,7.9,18.2,16.8c0.2,0.6,0.3,1.3-0.2,1.7c-0.6,0.5-1.1-0.1-1.6-0.4
		c-2.3-1.2-3.6-3.4-5.3-5.2C18.2,69.6,14.7,65.2,11,60.8z"/>
</g>
</svg>
