<?xml version="1.0" encoding="utf-8"?>
<!-- Generator: Adobe Illustrator 18.0.0, SVG Export Plug-In . SVG Version: 6.00 Build 0)  -->
<!DOCTYPE svg PUBLIC "-//W3C//DTD SVG 1.1//EN" "http://www.w3.org/Graphics/SVG/1.1/DTD/svg11.dtd">
<svg version="1.1" id="Layer_1" xmlns="http://www.w3.org/2000/svg" xmlns:xlink="http://www.w3.org/1999/xlink" x="0px" y="0px"
	 viewBox="0 0 251.7 257.2" enable-background="new 0 0 251.7 257.2" xml:space="preserve">
<g>
	<path fill="#3F605D" d="M43.1,56.8C50.5,48,59.4,41,69.3,35.3c20.4-11.9,42.1-19.6,66-19.4c14.1,0.1,27.4,3.5,40.3,9.2
		c0.9,0.4,1.6,1.2,3,0.9c-0.8-3.3-2.3-6.3-4.2-9c-1.6-2.4-3.5-4.6-5.1-6.9c-0.9-1.3-3.1-2.7-1.8-4.4c1.1-1.4,3.3-0.3,4.9,0.3
		c9.6,3.1,15.8,11.9,15.9,23c0,2.4,0.9,3.7,2.8,5.1c14.5,10.2,25.9,23,32.6,39.6c1.4,3.5,2.6,7,2.4,10.9c-2.3,1.8-4.9,1.6-7.5,1
		c-6.8-1.5-13.2-4.4-19.5-7.2c-1.2-0.6-2.4-1.4-3.8-1.3c-2.4-0.9-4.4-2.4-6.8-3.1c-0.4-0.7,0-1.6-1.1-2c-2.7-1.2-4.9-3.2-7.5-4.7
		c-4.9-2.5-9.4-5.7-14-8.7c-13.7-8.9-28.1-16.1-44.1-19.9C111.6,36,101.7,37,91.6,40C77.9,44,67,51.8,58.2,62.8
		c-0.5,0.6-1.1,1.1-1.7,1.5c-4,3.6-8.1,3.1-12.5,0.6c-3.5-2-3.9-2.9-1.5-6.4C42.8,58,43,57.4,43.1,56.8z"/>
	<path fill="#2D4445" d="M180.8,66.5c2.5,1.6,4.9,3.3,7.4,4.8c1.3,0.7,1,1.4,0.5,2.3c0.9,4.1,2.5,7.8,6.4,9.9
		c1.1,0.6,2.3,1.5,3.4,0.4c1.1-1.1-0.1-2.3-0.7-3.3c-0.8-1.3-2.3-2.3-2.1-4.1c1-1.6,2.1-0.1,2.8,0.2c6.1,3.2,12.5,5.6,19.1,7.5
		c3,0.9,5.8,0.6,8.7,0.2c1.5,8.8-3.8,14.2-12.5,12.5c-8.4-1.7-15.3-6.4-22.2-11.2c-7.4-5.1-14.8-10.1-22-15.4
		c-2.5-1.8-4.3-1.5-6.5,0.2c-6.4,4.7-13.5,8-21.5,9c-6.3,0.7-12.5,0-18-3.5c-1.1-0.7-2.7-1.4-2.3-3c0.3-1.4,2-1.3,3.2-1.5
		c7.3-1,14.6-1.6,21.6-4.3c2.1-0.8,4.2-1.5,6-3c1.8-1.8,1.7-3-0.8-4.3c-8.8-4.6-17.6-8.9-27.6-10.1c-1.4-0.2-2.7-0.5-3.7-1.6
		c-2-2.6-1.9,1.1-3,1c-4.4,1.3-9,2-13.4,3.4c-4.6,1.2-8.9,3.3-13,5.5c-20.3,11.2-32.6,28.6-39.1,50.5c-0.4,1.2-0.8,2.4-1.8,3.2
		c-5.5,0.3-7.7,4.2-9.5,8.6c-0.4-0.1-0.7-0.2-1-0.5c-1.7-3.2-0.4-6.6-0.1-9.9c0.7-8.7,2.4-17.2,5.3-25.5c0.7-2,1.2-4.1,2.9-5.6
		c2.9-2.8,4.2-6.7,6.5-9.9c9.1-12.6,21.1-20.8,35.8-25.7c12.7-4.2,25-3.3,37.5,0c3.6,1,6.9,2.8,10.4,4.1c12,4.6,23.5,10.2,35.4,15.1
		C175.5,63.8,177.6,66.2,180.8,66.5z"/>
	<path fill="#2F3343" d="M39.8,120.4c0.1-0.2,0.4-0.4,0.4-0.6c0-6.1,3.5-8.2,9-8.3c0.8,1.2,0.5,2.4,0.2,3.6
		c-3.6,17.1-2.7,34,2.4,50.7c2.5,8.2,5.7,16.1,9.6,23.6c10.5,18.3,26.7,28.7,46.6,33.9c6,1.6,12.2,2.6,18.4,3.1
		c1.8-1.3,3.8-0.7,5.8-0.6c15.1,0.9,29.6-2.3,43.8-6.5c12.8-3.8,25.2-8.8,37.8-13c2.1-0.7,4.3-1.3,6.5,0.1c0.5,1.7-0.9,2.5-1.9,3.3
		c-12.5,9.5-25.9,17.4-40.8,22.4c-7.1,2.4-14.6,3.4-22,4.2c-18.5,2.1-36.9,0.9-55-3.8c-17.5-4.6-33.5-12.3-47.8-23.3
		c-2.3-1.7-4.2-3.9-6.2-5.9c-3-2.9-6.3-5.3-9.9-7.3c-1.1-2-2.3-3.9-3.4-5.9c1.7-1.3,3.6-2.3,5.3-3.7c2.1-1.8,2.4,1.4,3.4,2.4
		c0.3-1.3-1-2.4-0.5-3.7c2.6-0.5,5.4,2.4,5.6,5.8c0.1,1.1-0.2,2.2-0.4,3.3c-0.3,1.7,0.7,2.8,1.7,3.9c3.9,4.2,7.9,8.3,13.5,11.1
		c-3-5.1-7-8.9-11.4-12.3c-1.2-0.9-2.7-1.5-3-3.2c0.8-4.7,1.5-5.3,6-5.1c3.8,0.2,4.5-0.7,3-4.4c-2.2-5.3-4.4-10.6-6.9-15.8
		c-6.5-13.4-10-27.6-10.8-42.5C38.8,124.3,38.6,122.2,39.8,120.4z"/>
	<path fill="#545466" d="M220.6,207c-2.1-0.7-4.2-0.4-6.2,0.3c-10.8,3.8-21.4,8-32.3,11.4c-15.3,4.9-30.8,8.7-47,8.3
		c-2.8-0.1-5.7-0.4-8.5-0.6c13-10.2,28.1-12.3,43.9-11.3c9.9,0.6,18.6-2.3,27.4-6.1c12.4-5.4,25.3-9.3,38.7-11.4
		c2.1-0.3,4.2-0.4,6.3-0.2c3.5,0.4,4.5,2.6,2.4,5.5c-3.1,4.4-7.1,8.2-12.4,9.1c-7.7,1.3-13.6,5.4-18.9,10.6c-2.5,2.4-5,4.9-7.3,7.5
		c-5.5,6.1-12.3,9.3-20.4,9.6c-5.6,0.2-10.1,2-14.2,6.2c-5.1,5.2-12.3,6.6-19.4,6.6c-8.8,0-17.3-2.2-25.3-5.8c1.4-2,3.6-1.5,5.5-1.6
		c31.1-1.5,58.3-12.6,82-32.6C216.9,210.9,219.5,209.8,220.6,207z"/>
	<path fill="#324249" d="M45.9,194.6c1.6-3.7-0.5-6.3-2.5-9c-0.4-0.5-1-0.7-1.4,0.2c-1,1.6,1.5,3.1,0.3,4.7
		c-1.7-0.8-1.4-2.8-2.8-4.1c-1.2,2.7-3,4.3-6.1,3.8c-0.2-0.1-0.3-0.3-0.4-0.5c-0.4-1.9-1.3-3.6-2.3-5.4c-8.7-16.3-13.6-33.7-14-52.2
		c0-0.5,0.1-1,0.2-1.5c0.9-2.5,2.5-3.6,5.2-2.7c0.6,0.2,1.4,0.4,1.8-0.1c2.8-3.8,5.8-1.3,8.6-0.3c4.1,1.5,4,1.7,4.5-2.9
		c0.2-1.9,0.1-4.1,2.5-4.9c0.1,0.2,0.2,0.5,0.3,0.7c-0.2,9.1,1.3,18.1,3.3,26.9c1.6,6.9,4.1,13.5,7.1,19.9
		c2.9,6.2,5.6,12.5,8.2,18.9c1.3,3-0.3,4.8-3.8,3.9c-4.3-1-6,0.6-6.4,4.6C47.5,195.2,46.7,195.2,45.9,194.6z"/>
	<path fill="#1D1F2C" d="M220.6,207c2.1,1.2,0,1.9-0.4,2.4c-14.4,13.9-31.4,23.5-50.1,30c-13.4,4.7-27.3,7-41.6,7.1
		c-0.4,0-0.7,0.2-1.1,0.3c-6.5-0.8-13.1-0.9-19.7-2.1c-26.5-4.8-48.2-17.6-64.6-39.1c-2.3-3-5-5.8-6.3-9.5c3.4,0.3,6,2,8.2,4.4
		c10.6,11,23.3,18.9,37.3,24.8c13.4,5.7,27.4,9.1,41.8,10.6c15.6,1.6,31.2,0.3,46.6-3c14.4-3.1,27-10,39-18.1
		C213.4,212.3,216.9,209.6,220.6,207z"/>
	<path fill="#C0D0BC" d="M51.1,165.4c-5.6-17-6.2-34.3-2-51.7c0.2-0.7,0.1-1.5,0.2-2.2c1.5-4.3,3-8.7,4.7-12.9
		C61,80.9,72.7,67.1,89.5,57.8c4.4-2.4,9-4.3,13.7-6c4.5-1.5,9.3-2.4,13.9-3.4c1.1,0,1.9-1.4,3.2-0.5c2.1,1.7,4.7,1.3,7.1,1.6
		c7.9,1.2,21.7,7.8,28.1,12.2c-0.8,1.4-2.1,2-3.6,2.5c-14.4-5.6-28.8-6.1-43.4-0.7c-8.6,3.2-17.1,6.8-24.6,12.2
		c-16.5,11.9-26.8,27.8-31.5,47.4c-4,16.4-2.7,32.6,2.3,48.6c0.2,0.5,0,1.2,0,1.8C53,171.1,51.8,168.3,51.1,165.4z"/>
	<path fill="#394F53" d="M39.5,119.7c-1.7,2.2-1.8,4.9-1.6,7.5c0.2,2.6-1,3.1-3.2,2.3c-1.9-0.7-3.7-1.5-5.5-2.2
		c-1.7-0.6-3.5-1.9-4.1,1.4c-0.3,1.5-1.9,1-2.8,0.4c-1.9-1.3-3.2-0.8-4.4,0.9c-2.1-3.5-1-7.3-0.7-10.8c1.1-13.7,4.7-26.8,9.6-39.5
		c0.9-2.4,2.1-4.8,3.9-6.8c1.4-1.4,1.7-3.6,3.5-4.8c1-0.5,2.2-0.8,1.5-2.3c2.2-3.2,4.5-6.4,7.5-8.9c1.2,1.3,0.1,2.1-0.7,2.9
		c-2,1.9-0.8,3.1,0.9,4c4.2,2.1,8.5,4.2,12.7-0.1c0.6,0.7,0.5,1.5,0,2.1c-3.2,4.4-5.5,9.4-8.7,13.9c-4.9,9.9-6.5,20.6-7.6,31.4
		C39.4,113.8,38.5,116.8,39.5,119.7z"/>
	<path fill="#617278" d="M30.6,72.8c-1.9,5.6-4.5,11-6.4,16.7c-4.2,13.2-6.8,26.6-6.4,40.5c-0.2,10.4,1.6,20.5,4.2,30.4
		c2.4,9,6.1,17.5,10.9,25.5c0.8,1.4,0.7,2.6,0,3.8c-3-5.2-7.9-8.5-12.1-12.4c-4.8-4.4-7.6-9.1-6.9-16c0.8-7.3-0.9-14.3-4.7-20.9
		c-1.9-3.2-3.1-6.8-4-10.5c-1.1-4.9-0.7-9.1,2.6-13.3c4-5,6-10.9,4.7-17.5c-0.4-2,0.2-3.9,1-5.8C17,85.9,22,79.8,27.8,74.2
		C28.5,73.5,29.2,72.3,30.6,72.8z"/>
	<path fill="#324249" d="M51.1,165.4c1.2,2.7,2.4,5.5,3.6,8.2c1.9,5.4,4.2,10.7,6.8,15.9c-1.7-0.9-1.9-2.8-2.6-4.3
		c-2.4-5.4-4.7-10.8-7.1-16.3C51.4,167.8,50.5,166.7,51.1,165.4z"/>
	<path fill="#3F605D" d="M35.6,65.7c0.8,0.8,2,1.4,1.7,3c-1.3,0.8-2.1-1-3.3-0.6C34.6,67.3,35.1,66.5,35.6,65.7z"/>
	<path fill="#213539" d="M47.4,79.5c1.7-4.2,3.8-8.1,6.4-11.9c0.9-1.3,2.1-2.4,2.2-4.1c3.8-3.9,7.1-8.3,11.4-11.7
		c17.8-13.9,37.3-19.6,59.6-13.1c14.8,4.3,28.4,11.3,41.2,19.9c4.1,2.7,8.4,5.3,12.6,7.9c-3.1,0.9-5-1.8-7.5-2.7
		c-8-3.1-15.9-6.4-23.7-9.9c-10.3-4.6-20.5-9.3-31.7-11.4c-8.4-1.6-16.8-1.5-25,0.9c-10.1,2.9-19.4,7.3-27.5,14.3
		c-6.6,5.7-11.8,12.4-15.8,20C49,78.6,49.2,80.3,47.4,79.5z"/>
	<path fill="#D6ECDB" d="M197.5,51c-1.6,0.5-3-0.3-4.3-1c-9.8-4.6-19.4-9.7-28.2-16.2c-2.2-1.6-4.3-3.5-6-5.6
		c-0.9-1.1-2.1-2.2-1.1-3.6c1-1.4,2.6-0.6,3.8-0.2c1.9,0.6,3.8,1.3,5.5,2.3c10.6,5.7,19.8,13.4,28.7,21.5
		C196.7,48.9,197.6,49.7,197.5,51z"/>
	<path fill="#BDD0BE" d="M217.3,64c0.2,2.4,2.3,5.1-0.8,7c-2,1.2-5.3-0.9-6.7-4c-1.5-3.2-1-6.5,1.3-7.2
		C214.8,58.7,215.6,62,217.3,64z"/>
	<path fill="#9FB29D" d="M195.7,76.5c1.5,2,3.4,3.7,4.3,6c0.7,1.8,0.1,2.9-1.8,3.1c-4.6,0.3-10.7-7.5-9.4-12.1
		C191.8,72.7,193.4,75.4,195.7,76.5z"/>
	<path fill="#D7EDDB" d="M138.5,19.5c4.2-0.9,8.6,0,12.6,2.2c0.6,0.3,1.2,0.8,1,1.4c-0.1,0.5-0.9,1-1.4,1c-4.5,0.7-9,0.5-13.3-1
		c-0.7-0.2-1.4-0.7-1.4-1.6C136.2,20.3,137.3,20,138.5,19.5z"/>
	<path fill="#324249" d="M103.2,51.9c-4.6,2-9.1,4-13.7,6C93.7,54.9,98.2,52.9,103.2,51.9z"/>
	<path fill="#324249" d="M120.3,48c-1,0.6-2,0.9-3.2,0.5c0.8-0.8-1.4-2.3,0.6-2.6C119.3,45.5,119.9,46.8,120.3,48z"/>
	<path fill="#A2B2AB" d="M45.9,194.6c0.8,0,1.6-0.1,2.4-0.1c6.6,4.1,11.9,9.5,16.5,17.1c-5.5-2-8.8-5.4-12.4-8.3
		c-2.1-1.6-3.7-3.9-5.6-5.9C45.8,196.6,45.2,195.8,45.9,194.6z"/>
	<path fill="#A8B3B5" d="M42.3,190.5c-0.5-1.2-1.2-2.5-1.6-3.8c-0.4-1.2,0.5-1.1,1.3-0.9c0.7,1.5,1.7,2.9,1.9,4.4
		C44.1,192.4,42.9,191,42.3,190.5z"/>
	<path fill="#4B5E4E" d="M214.4,68c0.4-1.6,0.2-3.1-0.8-4.9c2,0.7,2.8,1.9,3,3.3C216.7,67.7,215.8,68,214.4,68z"/>
	<path fill="#3A4D3D" d="M192,80.2c1.4,2,3.8-3.6,4.9,0.6c0.2,0.6,0.5,1.4-0.3,1.6C194.7,82.7,193.3,81.6,192,80.2z"/>
</g>
</svg>
