<?xml version="1.0" encoding="utf-8"?>
<!-- Generator: Adobe Illustrator 18.0.0, SVG Export Plug-In . SVG Version: 6.00 Build 0)  -->
<!DOCTYPE svg PUBLIC "-//W3C//DTD SVG 1.1//EN" "http://www.w3.org/Graphics/SVG/1.1/DTD/svg11.dtd">
<svg version="1.1" id="Layer_1" xmlns="http://www.w3.org/2000/svg" xmlns:xlink="http://www.w3.org/1999/xlink" x="0px" y="0px"
	 viewBox="0 0 194.3 418.1" enable-background="new 0 0 194.3 418.1" xml:space="preserve">
<g>
	<path fill="#DCEFFE" d="M3.6,117.1c-2-3.4-1.3-7.2-0.8-10.5C4,99.5,2.8,92.2,4.7,85.1c3.9-0.7,7,1.7,10.4,2.8
		c25,8.1,50.6,12,76.9,11.7c5.8-0.1,11.6-0.1,17.4,0c15.2,0,30.1-2.5,45-4.9c10.5-2.3,20.9-4.8,30.9-8.8c2.1-0.8,4.4-1.8,6.4,0.3
		c1.5,4.5,1.7,9.1,2,13.7c1.1,23.2-2.7,45.7-8.5,68c-1.7,6.4-3.2,12.9-4.4,19.5c-1.9,10.4-0.2,20.5,1.8,30.6
		c1.9,9.6,4.3,19.1,6.4,28.7c8.9,39.2,7.2,78.2-2.4,117c-0.5,2.5-1.2,5-2.8,7.1c-10.6,10.2-23.4,15.8-38,16.3
		c-10.7,0.3-20.9-2.9-30.7-7.6c-12.2-5.8-23.4-13.4-33.2-22.7c-16.1-15.3-25.8-33.8-25.9-56.7c-0.1-13.8,1.1-27.5,2.7-41.2
		c0.8-6.2,0.8-12.6-0.4-18.8c-0.8-4.1-2.4-7.9-5.5-10.4c-4.3-3.5-5.3-7.7-4.4-12.8c1.1-16.5-0.6-32.7-3.7-48.9
		c-2.1-10.8-3.3-21.9-3.4-33c0-3.6-1.3-7.2-1-9.4C42,137.2,42,150,44,162.7c1.9,12,4.6,24,4.9,36.3c0.1,6.1-0.7,12.3-0.5,18.4
		c0,1.2-0.5,2.3-1.3,3.1c-4.9-1.3-5.4-5.9-6.7-9.6c-3.7-10.7-4-22.1-5.3-33.2c-1.2-10-1.2-20.1-2.4-30.2c-2.4-19-10.5-33.6-28-41.5
		C4.8,109.5,6.1,113.5,3.6,117.1z"/>
	<path fill="#B4DFFE" d="M17.6,389.4c0-0.8-0.2-1.5-1-2c-2.1-0.7-2.4-2.6-2.9-4.4C7.3,360,2.7,336.6,1,312.7
		c-1.9-26.2,1.9-51.6,8-76.8c2-8.6,3.8-17.2,5.5-25.8c1.2-9.3,1.2-18.5-0.8-27.7c-1.7-7.6-3.5-15.2-5.4-22.8
		c-1.1-4.5-2.1-9-2.7-13.7c1.3-5-0.5-9.7-1.2-14.5c-0.7-4.8-0.6-9.5-0.8-14.3c0-3.2,0.2-6.3,0-9.5c-0.2-3.3,1.5-3.4,3.5-2.2
		c12.2,7.1,21.6,16.3,24.6,31c2.3,11,3.3,22.1,4,33.3c1,14.1,1.9,28.3,5.9,42c1,3.3,4.1,5.5,4.8,9c1.1,1,1.1,2.4,0.9,3.7
		c-2.3,12.5-4.3,25-5.6,37.6c-1.8,18.5-1.7,37-0.4,55.6c1,14.4,3,28.5,5.3,42.7c-1-7.6-2.6-15.1-3.4-22.8c-1.1-10.7-2.7-21.3-2.7-32
		c0-8.1,0-16.3,0-24.4c0-13.9,2.4-27.6,4.3-41.3c0.9-6,1.9-12,2.7-18.1c0.2-1.5-0.4-3.5,1.9-4c-0.1,4.3,0.1,7.9,4.3,11.2
		c5,3.8,6.4,10.2,6.7,16.5c0.5,11.5-2.1,22.7-2.6,34c-0.6,13.3-1.5,26.6,2.1,39.9c6,21.9,20.7,36.3,38.1,48.9
		c9.6,6.9,20,12.5,31.4,15.5c17.5,4.6,33.9,1.8,48.4-9.6c1.7-1.3,3.5-2.5,5.3-3.7c0.9,0.9,1.2,2.1,0.8,3.2c-2,5.5-1.5,12.1-6.4,16.5
		c-5.3,2.8-11.2,2.8-16.9,3.7c-27.3,4.2-54.9,4.9-82.5,4.1c-18.7-0.6-37.4-2.8-55.9-6C20.5,391.5,18.8,390.9,17.6,389.4z"/>
	<path fill="#016CCF" d="M109.3,101.1c-10.4,0-20.9,0.6-31.3-0.1C52.9,99.3,28,95.6,4.7,85.1C6.7,67,13.9,51,25.4,37
		C36.2,24,49.8,14.6,65.7,8.8c1.8-0.7,3.7-1.6,5.7-1.5c4.4,0.3,6.9,2.8,8.3,8.1c-3.4,3.2-8.1,3.4-12,5.2c-3.6,1.6-7.3,3-10.7,5.2
		C47.6,31,39.3,37.4,33,46.2C26.9,54,22.3,62.6,19.3,72.1c-1.7,5.2-1.3,5.7,3.7,7.5c7.7,2.8,15.7,4.2,23.7,5.9
		c18.7,2.4,37.5,4.5,56.4,4.3C110.5,89.6,112.7,94,109.3,101.1z"/>
	<path fill="#016CCF" d="M155.4,22.4c5.1,5.2,10.7,9.8,15.3,15.5C182,52.2,188.9,68.2,191,86.2c-2.8-0.7-5.1,1.1-7.5,2
		c-9.2,3.5-18.8,5.6-28.3,7.9c-3.7-2.8-2.3-5.9-1.8-9.5c0.7-1.6,2.9-1.2,4.3-1.5c5.4-0.9,9.8-4.4,15.2-5.5c3.5-0.7,4.7-2.5,3.6-6.1
		c-3.1-10.6-8.1-20.3-15.2-28.8c-8.1-9.6-17.9-17.1-29.4-22.4c-1.4-0.6-2.7-1.4-3.5-2.8c-1.5-3.3-4.8-5.4-6.1-8.9
		c-0.6-1.6-2-4.2,2-3.4c8.8,2,16.8,6,24.3,10.8C150.9,19.6,153.1,21,155.4,22.4z"/>
	<path fill="#016CCF" d="M124.3,7.3c-3.3,0.6-1.1,2.4-0.6,3.6c1.2,3.2,5.3,4.5,5.6,8.4c-1.3,1.2-2.8,0.9-4.2,0.4
		c-14.1-5.3-28.7-5.5-43.4-3.3c-0.9-0.1-1.7-0.3-2.3-1.1c-2-3.3-4.2-6.5-8-8C83.7,3,96.3,2.5,109,3.9C114.2,4.5,119.5,4.8,124.3,7.3
		z"/>
	<path fill="#D4E8F9" d="M109.3,101.1c0-11.1,1-10.1-9.8-9.9c-17.8,0.3-35.3-2.1-52.8-4.2c-0.4-0.1-0.8-0.5-1.2-0.8
		c0.5-2.6,1.6-5,2.2-7.6c2.9-10.9,11.5-17.7,22.7-17.7c6.6,0,13.2-0.5,19.8,0.3c4.6,2.8-11.5-3.3-8.8-6.9c2.3-3,0.6-31.6,4.2-31.1
		C90.5,24.1,124.8,101.2,109.3,101.1z"/>
	<path fill="#016CCF" d="M155.2,116.4c0,10.4,0.3,19.5-0.5,28.7c-1.6,19.5-7,38.4-7.4,58c-0.3,12.8,2.7,25.3,4.5,37.9
		c1.1,7.5,2.6,15,3.2,22.5c1.1,14.2,1.9,28.5,1,42.8c-0.9,14.3-2,28.7-4.4,42.9c-0.8,4.9-1.9,9.7-2.4,14.7c-0.1,1.3,0,2.7-2.3,3.3
		c-0.1-6.4,1.8-12.3,2.6-18.3c1.4-11.3,3.2-22.6,3.8-34c0.5-9,1-17.9,0.8-26.8c-0.3-15.4-2.3-30.6-4.4-45.9c-2-14.1-5-28-4.6-42.4
		c0.2-8.5,1.9-16.8,3.3-25.1c2.9-17.8,5.5-35.7,4.9-53.8C153.3,119.8,153,118.6,155.2,116.4z"/>
	<path fill="#016CCF" d="M49.5,217.8c-1.3,8.1-2.5,16.2-3.9,24.3c-4.2,23.3-4.9,46.8-3.8,70.3c0.8,16.6,2.8,33.2,6.4,49.5
		c0.4,1.7,0.8,3.5-0.7,5.8c-2.2-6.9-2.7-13.4-3.8-19.7c-4.4-24.7-4.8-49.8-3.9-74.7c0.4-11.5,2.8-22.9,4.3-34.3
		c0.8-6,1.7-12.1,2.5-18.1c2-12.9,1.7-25.8-0.4-38.6c-2.4-15.2-5.1-30.3-5.7-45.7c-0.2-5.1-0.8-10.2-0.7-15.4c0-1.2-0.6-2.7,1.6-3.8
		c0.8,6.3,0.7,12.3,1,18.3c0.8,17.3,3.9,34.2,6.7,51.1C50.7,197,49.9,207.4,49.5,217.8z"/>
	<path fill="#0A897A" d="M99.3,151.9c-9.3,0-18.6,0-27.9,0c-6.8,0-8.7-1.9-8.7-8.5c0-4.8-0.1-9.6,0-14.4c0.1-5.2,2.2-7.3,7.4-7.3
		c19.8-0.1,39.5,0,59.3,0.1c4.9,0,6.9,2.2,7,7.1c0.1,5,0.1,10,0,14.9c-0.1,6-2.1,8.1-8.1,8.1C118.5,152,108.9,151.9,99.3,151.9
		C99.3,151.9,99.3,151.9,99.3,151.9z"/>
	<path fill="#016CCF" d="M178.2,389.6c-0.1,0.3-0.1,0.5,0,0.8c-1.1,4.2-2.4,8.3-3.1,12.6c-0.7,4.4-3.2,5.8-7.3,6.5
		c-27.7,4.7-55.7,6.9-83.8,5.9c-19.3-0.6-38.4-3-57.4-6.1c-3.4-0.6-5.7-1.8-6.2-5.7c-0.6-4.7-3.2-9.1-2.9-14.1
		c11,2.3,22.2,3.6,33.3,4.8c22.1,2.4,44.3,2.8,66.5,2C137.9,395.4,158.1,392.8,178.2,389.6z"/>
	<path fill="#D4E8F9" d="M90.4,62.2c-6.6,0-13.3,0-19.9,0c-10.6,0-18.4,6.2-21.3,16.4c-0.7,2.6,0.1,6.2-3.6,7.5
		c-9.3-0.5-17.8-4.3-26.8-6.2c-2-0.4-2.4-2.2-1.9-3.9c3.2-11.3,7.6-22,15.7-30.8c1.8,3.6,2.3,7.8,6.7,9.9c6.6,3.3,17.9,1.9,24.4-3.5
		c1.3-1.1,2.4-2.3,3.6-3.5c3.2-3.2,5.9-6.8,4.2-11.5c-1.7-5-5.3-8.3-10.9-9.1c-1.6-0.2-3.9,0.4-4.1-2.3c5.6-5.1,13-6.4,19.7-8.9
		c1.1-0.4,2.1-0.7,3.2-1c0.7,0,1.3,0,2,0c1.9,3.3,4.8,6,5.5,10c-0.1,1.8-1.3,3.2-1.7,4.9c-0.9,6-0.3,12.1-0.3,18.2
		c0,2.3,1.4,3.9,2.6,5.7C89,56.6,91.2,58.9,90.4,62.2z"/>
	<path fill="#E1EFFC" d="M56.5,25.3c0.9,1.3,2.3,1,3.6,1c6.8,0.2,10.6,4.3,12.7,10c1.8,4.9-1,8.7-4.2,12.4c-6.2,7.1-14,10-23.3,9.6
		c-7.7-0.4-12.7-5.3-12.7-13c5.2-8.7,13.7-13.8,21.5-19.6C54.6,25.2,55.7,25.4,56.5,25.3z"/>
	<path fill="#E1EFFC" d="M86.5,25.3c-1.5-3.4-5.2-5.7-5-10c14.8-3.1,29.4-2.3,43.6,2.9c1.4,0.5,2.7,1.2,4.3,1.1c1,0.7,2,1.4,3,2
		c6,5.4,8.6,12.9,11.7,19.8c3.6,7.9,6.6,16.2,8,24.9c0.3,1.9,5.5,19,2.2,19.7c-14.2,3.6-33.7,4.9-45.6,5.3
		C106.4,92.8,110.9,64.8,86.5,25.3z"/>
	<path fill="#D5E8F9" d="M149.4,60.5c-3.6-13.9-9.8-26.8-17.1-39.1c18.4,8.5,32.2,21.6,40.8,40c2.2,4.6,4.3,9.2,5.2,14.3
		c0.4,2.2,0.1,3.8-2,4.3c-7.4,1.6-13,5.2-20.7,5.2C155.3,80.2,150.2,63.9,149.4,60.5z"/>
	<path fill="#026D62" d="M99.3,149c-9.6,0-19.3-0.1-28.9,0c-3.6,0.1-4.9-1.2-5.1-4.9c-0.2-5.2,0.9-10.4-0.9-15.7
		c-0.7-2,2.8-4.4,5.9-4.4c4.2,0,8.3,0,12.5,0c14.6,0,29.3,0,43.9,0c5.8,0,6.6,0.8,6.6,6.7c0,4-0.2,8,0.1,12c0.4,4.7-1.2,6.5-6.1,6.4
		C118,148.8,108.6,149,99.3,149z"/>
	<path fill="#AB5056" d="M125.4,147.1c-1.8-0.3-3.9,0.4-3.9-2.1c-0.1-2.7,2.2-2.1,3.6-2c1.6,0.1,4.1-0.8,3.9,2.2
		C128.9,147.6,126.6,146.6,125.4,147.1z"/>
	<path fill="#C54C55" d="M83.7,146.9c-1.8,0.1-3.3,0-3.2-2.2c0.1-2.8,2.3-1.7,3.7-1.8c1.3-0.1,3.3-0.6,3.3,1.7
		C87.4,147.7,85,146.6,83.7,146.9z"/>
	<path fill="#CB4858" d="M114.3,146.9c-1.6,0-3.1,0-2.9-2.2c0.2-2.4,2.1-1.6,3.4-1.7c1.5-0.2,3.4,0,3.4,1.9
		C118.1,147,116,146.9,114.3,146.9z"/>
	<path fill="#D34A53" d="M104.1,146.9c-1.7,0.2-2.9-0.2-2.7-2.2c0.2-2.4,2.1-1.5,3.3-1.6c1.2-0.1,2.8-0.5,2.8,1.6
		C107.5,147,105.8,146.9,104.1,146.9z"/>
	<path fill="#CE4C52" d="M94,142.9c1.4,0.3,3.4-0.5,3.4,2c0,2.3-1.7,2.1-3.1,2.1c-1.6,0-3.1-0.1-3-2.3C91.3,142.5,93,143.2,94,142.9
		z"/>
	<path fill="#96535A" d="M75.4,143.1c2-0.2,2.3,1,1.9,2.5c-0.5,2-2.4,1.4-3.7,1.4c-1.4,0-3.2,0.6-3.8-1.3c-0.5-1.4-0.2-2.7,1.8-2.5
		C72.8,144.6,74.1,144.2,75.4,143.1z"/>
	<path fill="#F7425A" d="M75.4,143.1c0.1,2-1.5,2.5-2.9,2.4c-1.3-0.1-0.9-1.5-0.9-2.4C72.8,143.1,74.1,143.1,75.4,143.1z"/>
</g>
<g>
	<path fill="#FEFEFE" d="M96.7,296.4c-0.3,0.6-0.5,0.9-0.6,1.3c-2.3,6.4-5.5,12.3-9,18c-1.9,3.1-3.8,6.1-5.3,9.4
		c-1.6,3.5-2.1,7.1-1.2,10.8c2.1,9.2,11.8,14.7,20.9,12c9.1-2.7,14-12.4,10.8-21.3c-1-2.7-2.4-5.2-3.9-7.6c-4.3-7-8.5-14.1-11.3-22
		C97.1,297,96.9,296.8,96.7,296.4z"/>
	<path fill="#2079BA" d="M96.7,296.4c0.2,0.4,0.3,0.5,0.4,0.7c2.7,7.8,6.9,14.9,11.3,22c1.5,2.4,2.9,4.9,3.9,7.6
		c3.2,8.9-1.7,18.6-10.8,21.3c-9.1,2.7-18.7-2.9-20.9-12c-0.9-3.8-0.4-7.3,1.2-10.8c1.5-3.3,3.4-6.3,5.3-9.4c3.5-5.7,6.7-11.7,9-18
		C96.2,297.4,96.4,297,96.7,296.4z M96.8,304.8c-0.3,0.4-0.4,0.5-0.5,0.7c-2.3,5-5.1,9.6-8,14.2c-1.6,2.6-3.1,5.2-4.2,8
		c-2,5.5-0.2,11.5,4.4,15c4.9,3.7,11.2,3.7,16.1,0.1c4.7-3.5,6.6-9.5,4.6-15c-0.6-1.7-1.5-3.4-2.4-5c-3-5.3-6.5-10.4-9.1-15.9
		C97.5,306.3,97.2,305.7,96.8,304.8z"/>
	<path fill="#F2F7F9" d="M96.8,304.8c0.4,0.9,0.8,1.6,1.1,2.2c2.6,5.5,6.1,10.6,9.1,15.9c0.9,1.6,1.8,3.3,2.4,5
		c2,5.5,0.1,11.5-4.6,15c-4.9,3.6-11.3,3.6-16.1-0.1c-4.7-3.5-6.4-9.6-4.4-15c1.1-2.9,2.6-5.5,4.2-8c2.8-4.6,5.7-9.3,8-14.2
		C96.4,305.3,96.5,305.2,96.8,304.8z M96.7,308.6c-2.4,5.6-5.7,10.5-8.7,15.7c-0.8,1.4-1.5,2.8-2,4.3c-1.4,4.2,0,8.9,3.3,11.8
		c4,3.4,9.8,3.7,14,0.6c4.3-3.2,5.8-8.5,3.6-13.5C104,320.9,99.4,315.4,96.7,308.6z"/>
	<path fill="#29AADF" d="M96.7,308.6c2.7,6.7,7.3,12.3,10.2,18.8c2.2,5,0.7,10.3-3.6,13.5c-4.2,3.1-10,2.9-14-0.6
		c-3.3-2.9-4.7-7.6-3.3-11.8c0.5-1.5,1.2-2.9,2-4.3C91,319.2,94.4,314.3,96.7,308.6z M100.8,340.1c-0.6,0-1,0-1.4,0
		c-5.8-0.1-10.2-5.1-9.4-10.9c0.2-1.6,0.8-3.1,1.4-4.6c1.1-2.5,2.2-4.9,3.2-7.4c0.2-0.5,0.6-1,0.2-1.8c-2.2,3.8-4.3,7.3-6.4,11
		c-1.2,2.2-1.7,4.6-1.2,7.1C88.6,339.5,95.7,343,100.8,340.1z"/>
	<path fill="#F1F8FA" d="M100.8,340.1c-5.2,2.9-12.2-0.6-13.5-6.6c-0.6-2.6-0.1-4.9,1.2-7.1c2-3.7,4.2-7.3,6.4-11
		c0.4,0.8,0,1.3-0.2,1.8c-1,2.5-2.1,4.9-3.2,7.4c-0.6,1.5-1.2,3-1.4,4.6c-0.8,5.8,3.6,10.8,9.4,10.9
		C99.8,340.1,100.2,340.1,100.8,340.1z"/>
</g>
<path fill="#016CCF" d="M107.5,91.4c0,0,19.2-0.2,48.8-5.7l2.1,9.8c0,0-14.7,4.2-49.1,5.7L107.5,91.4z"/>
<linearGradient id="SVGID_1_" gradientUnits="userSpaceOnUse" x1="97.9484" y1="92.0645" x2="97.9484" y2="12.9613">
	<stop  offset="0" style="stop-color:#FFFFFF"/>
	<stop  offset="1" style="stop-color:#707070"/>
</linearGradient>
<path fill="none" stroke="url(#SVGID_1_)" stroke-width="1.33" stroke-miterlimit="10" d="M19.2,80c0,0-3.6-0.1-1.3-5.8
	c0,0,15.2-62,85.7-60.5c0,0,55.7,1.8,74.2,57.7c0,0,3.4,6.9-1.4,8.7c0,0-33,10.8-68.3,11.3C108,91.4,58,92.7,19.2,80z"/>
<g opacity="0.69">
	<defs>
		<path id="SVGID_2_" opacity="0.69" d="M19.2,80.7c0,0-3.6-0.1-1.3-5.8c0,0,15.2-62,85.7-60.5c0,0,55.7,1.8,74.2,57.7
			c0,0,3.4,6.9-1.4,8.7c0,0-33,10.8-68.3,11.3C108,92.1,58,93.4,19.2,80.7z"/>
	</defs>
	<clipPath id="SVGID_3_">
		<use xlink:href="#SVGID_2_"  overflow="visible"/>
	</clipPath>
	<g clip-path="url(#SVGID_3_)">
		<ellipse fill="#FCA455" cx="98.4" cy="56.2" rx="35.6" ry="35.4"/>
		<circle fill="#FFFFFF" cx="100.3" cy="62.3" r="9.8"/>
		<circle fill="#FFFFFF" cx="73.6" cy="62.3" r="9.8"/>
		<linearGradient id="SVGID_4_" gradientUnits="userSpaceOnUse" x1="105.9778" y1="20.063" x2="105.9778" y2="110.7527">
			<stop  offset="0" style="stop-color:#FFF9E7"/>
			<stop  offset="1" style="stop-color:#E299DB"/>
		</linearGradient>
		<path fill="url(#SVGID_4_)" d="M62.7,56.3c0,0,0.4,12.3,1.5,22.3c0,0,2.2,3.5-2.8,14.7c0,0-6.7,10.8,6.9,7.8
			c0,0,12.1-3.5,20.1-10.6c0,0-24.8-6.7-22.6-32.3c0,0,26.4,2,40.7-14.7c0,0,12.5,23.8,4.2,34.5c0,0-14.8,16.4-8.4,22
			c0,0,21.3,15.7,28.4,7.8l0.1,2.7c0,0,6.3,2.3,8.2-4.4l0.6-7.4c0,0,0.5-2,7.8-5.8c0,0,20.3-9.1-19.8-61.9c0,0-9.1-10.8-28.6-10.8
			c0,0-27.9,0.6-35.9,26.9C63.1,47,55.3,54.4,62.7,56.3z"/>
		<path fill="#FCA455" d="M122.7,65c3.6,0,6.5-2.9,6.5-6.5s-2.9-6.5-6.5-6.5c-0.7,0-1.4,0.1-2.1,0.3"/>
		<circle fill="#020202" cx="96.4" cy="62.4" r="2.3"/>
		<circle fill="#020202" cx="70.3" cy="62.4" r="2.3"/>
		<path fill="#F16D50" stroke="#F22525" stroke-width="0.7435" stroke-miterlimit="10" d="M102.9,77.3c0,0-4.7,0.7-7.5,0.4
			c0,0-5.5-0.5-7-0.4c0,0-3.6,0.3-5.7,0.9c0,0-2.2,0.4-3.5,0.2c0,0-1.6-0.4-0.8,1.4c0,0,4.5,2,9.9,2C88.3,81.9,99.3,81.2,102.9,77.3
			z"/>
		<path fill="#F16D50" stroke="#F22525" stroke-width="0.7435" stroke-miterlimit="10" d="M90.7,86.6c0,0-7.8,0.2-12.3-6.7
			c0,0,4.9,2.4,11.4,1.9c0,0,9.1-0.6,13.1-4.4C102.9,77.3,98.5,85.9,90.7,86.6z"/>
	</g>
</g>
<g>
	<path fill="#00FFDA" d="M80.8,134l-0.2,3.7l-1.5,0.8l0.3-4.8c0-0.2,0.2-0.3,0.2-0.5L80.8,134z M84.8,138c0.3,0.4,0.7,0.9,1,1.3
		c0,0,0.1,0.1,0.1,0.1c0,0,0,0.1-0.2,0.1H83h-2.3h-1.1c-0.1-0.1-0.2-0.3-0.3-0.4c0,0-0.1-0.1-0.1-0.2v0l1.5-0.9H84.8z M81.1,128.9
		l-0.2,3.2l-1.3,0.7l-0.2-0.4l0.3-4.4L81.1,128.9z M86.6,127.1l-1.5,1.4h-4.1l-1.3-0.8l1.1-0.7L86.6,127.1z M86.5,133.9l-0.3,4.6
		l-0.3,0.4l-1.1-1.3l0.2-3.6l0.9-0.7L86.5,133.9z"/>
	<path fill="#00FFDA" d="M90.2,134l-0.2,3.7l-1.5,0.8l0.3-4.8c0-0.2,0.2-0.3,0.2-0.5L90.2,134z M94.1,138c0.3,0.4,0.7,0.9,1,1.3
		c0,0,0.1,0.1,0.1,0.1c0,0,0,0.1-0.2,0.1h-2.7h-2.3H89c-0.1-0.1-0.2-0.3-0.3-0.4c0,0-0.1-0.1-0.1-0.2v0L90,138H94.1z M90.4,128.9
		l-0.2,3.2l-1.3,0.7l-0.2-0.4l0.3-4.4L90.4,128.9z M96,127.1l-1.5,1.4h-4.1l-1.3-0.8l1.1-0.7L96,127.1z M95.9,133.9l-0.3,4.6
		l-0.3,0.4l-1.1-1.3l0.2-3.6l0.9-0.7L95.9,133.9z M96.2,127.6c-0.1,1.6-0.2,3.1-0.3,4.7l-0.6,0.6l-0.9-0.7l0.2-3.4l1.4-1.4
		C96.2,127.4,96.2,127.5,96.2,127.6z"/>
	<path fill="#00FFDA" d="M103.5,138c0.3,0.4,0.7,0.9,1.1,1.3c0,0,0.1,0.1,0.1,0.1c0,0-0.1,0.1-0.2,0.1h-2.7h-2.2h-1.1
		c-0.1-0.1-0.2-0.3-0.3-0.4c0-0.1-0.1-0.1-0.1-0.2v0l1.5-0.9H103.5z M99.8,128.9l-0.2,3.2l-1.3,0.7l-0.2-0.4l0.2-4.4L99.8,128.9z
		 M105.3,127.1l-1.4,1.5h-4.1l-1.3-0.8l1.1-0.7L105.3,127.1z M103.5,132.3l1.1,0.8l-1,0.7h-4c-0.4-0.3-0.7-0.5-1.1-0.8l1.3-0.7
		H103.5z M105.2,133.9l-0.3,4.6l-0.3,0.4l-1.1-1.2l0.2-3.6l0.9-0.7L105.2,133.9z"/>
	<path fill="#00FFDA" d="M109.8,133.9l-0.3,4.6l-0.3,0.4l-1.1-1.3l0.2-3.6l0.9-0.7L109.8,133.9z M110.1,127.6
		c-0.1,1.6-0.2,3.1-0.3,4.7l-0.6,0.6l-0.9-0.7l0.2-3.4l1.4-1.4C110.1,127.4,110.1,127.5,110.1,127.6z"/>
	<path fill="#00FFDA" d="M113.4,134l-0.2,3.7l-1.5,0.8l0.3-4.8c0-0.2,0.2-0.3,0.2-0.5L113.4,134z M113.7,128.9l-0.2,3.2l-1.3,0.7
		l-0.2-0.4l0.3-4.4L113.7,128.9z M119.2,127.1l-1.5,1.4h-4.1l-1.3-0.8l1.1-0.7L119.2,127.1z M117.4,132.3l1,0.8l-1,0.7h-4
		c-0.3-0.3-0.7-0.5-1.1-0.8l1.3-0.7H117.4z M119.1,133.9l-0.3,4.6l-0.3,0.4l-1.1-1.3l0.2-3.6l0.9-0.7L119.1,133.9z M119.4,127.6
		c-0.1,1.6-0.2,3.1-0.3,4.7l-0.6,0.6l-0.9-0.7l0.2-3.4l1.4-1.4C119.4,127.4,119.4,127.5,119.4,127.6z"/>
</g>
<path fill="#00FFDA" d="M3.8,131.4c0,0,62.2,89.7,190.2,157.7c0,0,0.8,29.2-3.6,52c0,0-97.5-51.5-176.5-131.1c0,0,2.5-6.9,2.1-22.9
	C16,187.2,4.6,155.2,3.8,131.4z"/>
<g>
	<g>
		<path fill="#FFFFFF" d="M30.4,178.7c0.1-0.1,0.2-0.1,0.3,0l2.4,2.9c0.1,0.1,0.1,0.2,0,0.3l-4.6,3.8c-0.1,0.1-0.1,0.2,0,0.2
			l0.3,0.4c0.1,0.1,0.2,0.1,0.3,0.1l4.6-3.7c0.1-0.1,0.2-0.1,0.3,0l2.4,3c0.1,0.1,0.1,0.2,0,0.3l-12.8,10.5c-0.1,0.1-0.2,0.1-0.3,0
			l-2.4-3c-0.1-0.1,0-0.2,0.1-0.3l4.6-3.7c0.1-0.1,0.1-0.2,0.1-0.2l-0.3-0.4c-0.1-0.1-0.2-0.1-0.2,0l-4.6,3.8
			c-0.1,0.1-0.2,0.1-0.3,0l-2.4-2.9c-0.1-0.1-0.1-0.3,0.1-0.4L30.4,178.7z"/>
		<path fill="#FFFFFF" d="M26.9,200.1c-0.1,0.1-0.2,0.1-0.2,0l-2.2-2.5c-0.1-0.1,0-0.2,0-0.3l9.8-8.7c0.1-0.1,0.3-0.1,0.4,0l2.1,2.4
			c0.1,0.1,0.1,0.2,0,0.3L26.9,200.1z M37.5,190.5c-0.1,0.1-0.2,0.1-0.3,0l-1.8-2.1c-0.1-0.1,0-0.3,0.1-0.3l2.1-1.9
			c0.1-0.1,0.3-0.1,0.3,0l1.8,2.1c0.1,0.1,0.1,0.2,0,0.3L37.5,190.5z"/>
		<path fill="#FFFFFF" d="M38.7,193.5c0,0,0.1-0.1,0.2,0l2.1,2.3c0.1,0.1,0.1,0.2,0,0.2l-2.1,2.7c-0.1,0.1-0.1,0.2-0.1,0.2
			c0,0,0.1,0,0.2-0.1l2.9-1.9c0,0,0.1,0,0.2,0l2,2.2c0.1,0.1,0.1,0.2,0,0.2l-14.3,9.1c-0.1,0-0.2,0.1-0.3,0l-2-2.1
			c-0.1-0.1-0.1-0.2,0-0.3l4.9-3.2c0.1-0.1,0.2-0.1,0.2-0.2L38.7,193.5z"/>
		<path fill="#FFFFFF" d="M48.3,199c0.1-0.1,0.3-0.1,0.4,0l5.8,5.8c0.1,0.1,0.1,0.3,0,0.4l-2.8,2.8c-0.1,0.1-0.3,0.1-0.4,0l-2.6-2.6
			c-0.1-0.1-0.2-0.1-0.4,0l-1,1c-0.1,0.1-0.1,0.2,0,0.3l1.2,1.2c0.1,0.1,0.1,0.3,0,0.3l-2.9,2.9c-0.1,0.1-0.3,0.1-0.4,0l-1.2-1.2
			c-0.1-0.1-0.3,0-0.4,0l-3.9,3.9c-0.1,0.1-0.3,0.1-0.4,0l-2.8-2.8c-0.1-0.1-0.1-0.3,0-0.4L48.3,199z"/>
		<path fill="#FFFFFF" d="M49.6,209.7c1.9-1.9,4-1.2,5.3,0.1c1.8,1.8,1.5,4.2,0,5.8l-1,1c-0.1,0.1-0.2,0.1-0.3,0l-2.7-2.6
			c-0.1-0.1-0.1,0-0.2,0l-2.5,2.6c-0.3,0.3-0.2,0.5-0.1,0.6c0.1,0.1,0.4,0.2,0.6-0.1l1-1c0.1-0.1,0.2-0.1,0.3,0l2,2.1
			c0.1,0.1,0.1,0.2,0,0.3l-1,1c-2,2.1-4,1.3-5.5-0.1c-1.7-1.7-1.5-3.9,0.2-5.7L49.6,209.7z M51.8,212.9c0,0,0,0.1,0,0.2
			c0.4,0.4,0.4,0.4,0.5,0.3c1-1,1.1-1.2,0.8-1.4c-0.1-0.1-0.3-0.1-0.6,0.1L51.8,212.9z"/>
		<path fill="#FFFFFF" d="M49.1,223c-0.1-0.1-0.1-0.2,0-0.3l11.5-12.3c0.1-0.1,0.3-0.1,0.4,0l2.3,2.2c0.1,0.1,0.1,0.2,0,0.3
			l-11.6,12.3c-0.1,0.1-0.2,0.1-0.3,0L49.1,223z"/>
		<path fill="#FFFFFF" d="M55.2,228.4c-0.1,0.1-0.2,0.1-0.2,0l-2.4-2.3c-0.1-0.1-0.1-0.2,0-0.3l8.9-9.6c0.1-0.1,0.3-0.1,0.4,0
			l2.4,2.2c0.1,0.1,0.1,0.2,0,0.3L55.2,228.4z M64.8,217.8c-0.1,0.1-0.2,0.1-0.3,0l-2-1.9c-0.1-0.1-0.1-0.3,0-0.4l1.9-2.1
			c0.1-0.1,0.3-0.1,0.3,0l2,1.9c0.1,0.1,0.1,0.2,0,0.3L64.8,217.8z"/>
		<path fill="#FFFFFF" d="M64.3,223.7c0,0,0-0.1,0-0.1l-1.7-1.6c-0.1,0-0.1-0.2,0-0.2l2.2-2.5c0-0.1,0.1-0.1,0.2,0l4.3,3.8
			c0.1,0.1,0.1,0.2,0,0.3l-2.1,2.4c0,0-0.1,0.1-0.2,0.1l-5.9,2.9c-0.1,0.1-0.1,0.1,0,0.2l1.7,1.5c0.1,0,0.1,0.1,0,0.2l-2.3,2.6
			c0,0.1-0.1,0.1-0.2,0l-4.3-3.9c-0.1,0,0-0.1,0-0.2l2.2-2.4c0,0,0.1-0.1,0.2-0.1L64.3,223.7z"/>
		<path fill="#FFFFFF" d="M69.6,227.5c2.7-3.1,5.7-3.6,8.1-1.6c2.5,2.2,2,5.4-0.2,7.9c-0.4,0.5-0.4,0.5-0.6,0.4l-3.3-2.6
			c-0.2-0.1-0.2-0.4,0-0.6l0.9-1.1c0.2-0.2,0.1-0.4,0-0.6c-0.1-0.1-0.4-0.1-0.5,0.1l-4.6,5.3c-0.1,0.2-0.1,0.4,0,0.5
			c0.2,0.1,0.4,0.1,0.5-0.1l1.5-1.7c0.1-0.1,0.3-0.2,0.4-0.1l3.1,2.9c0.1,0.1,0.1,0.2,0,0.3c-3.6,4.1-6.5,4.1-8.6,2.2
			c-2.4-2.1-1.8-5.4,0.3-7.8L69.6,227.5z"/>
		<path fill="#FFFFFF" d="M79.5,232.4c0.1-0.1,0.2-0.1,0.3-0.1l2.2,1.8c0.1,0.1,0.1,0.2,0,0.3l-5.6,6.6c-0.2,0.3-0.1,0.5,0,0.6
			c0.1,0.1,0.3,0.1,0.6-0.1l5.6-6.6c0.1-0.1,0.2-0.1,0.2,0l2.2,1.9c0.1,0.1,0.1,0.2,0.1,0.3l-8.6,10.1c-0.1,0.1-0.2,0.1-0.2,0
			l-2-1.7c-0.1-0.1,0.3-0.8,0.2-0.9c0,0-0.1,0-0.3,0c-0.6,0-1,0-1.6-0.6c-0.7-0.6-1.1-2-0.1-3.2L79.5,232.4z"/>
		<path fill="#FFFFFF" d="M86.5,255.2c-0.1,0.1-0.2,0.1-0.3,0.1l-2.3-1.9c-0.1-0.1-0.1-0.2,0-0.3l5.8-7.1c0.2-0.3,0.2-0.5,0-0.6
			c-0.1-0.1-0.4-0.1-0.6,0.1l-5.8,7.1c-0.1,0.1-0.2,0.1-0.3,0l-2.4-2c-0.1-0.1-0.1-0.2,0-0.3l5.8-7.1c0.2-0.3,0.1-0.5,0-0.6
			c-0.1-0.1-0.4-0.1-0.6,0.1l-5.9,7.2c-0.1,0.1-0.2,0.1-0.2,0l-2.4-2c-0.1-0.1-0.1-0.2,0-0.2l8.4-10.2c0.1-0.1,0.2-0.1,0.3,0
			l2.3,1.9c0.1,0.1-0.4,1-0.2,1.1c0.1,0,0.1,0.1,0.3,0c0.5-0.1,1.3,0,1.8,0.5c0.6,0.5,0.8,1.1,0.8,1.7c0,0.2,0,0.3,0.1,0.3
			c0.1,0,0.2,0.1,0.3,0c0.6,0,1.3,0,2,0.5c0.9,0.7,1,2.1,0.2,3.2L86.5,255.2z"/>
		<path fill="#FFFFFF" d="M97.9,247.3c0.1,0.1-0.1,0.6,0,0.7c0,0,0.1,0,0.3,0c0.4,0,0.9,0.2,1.3,0.5c0.9,0.7,1.4,2.1-0.9,5l-2.9,3.7
			c-2.1,2.7-3.8,2.5-4.7,1.8c-0.4-0.3-0.6-0.7-0.7-1.2c0-0.2,0-0.2-0.1-0.3c0,0-0.1,0-0.2,0.1l-2.3,2.8c-0.1,0.1-0.2,0.1-0.3,0.1
			l-2.3-1.8c-0.1-0.1-0.1-0.2,0-0.3l10.3-13c0.1-0.1,0.2-0.1,0.3,0L97.9,247.3z M92.3,254.9c-0.2,0.3-0.2,0.6,0,0.7
			c0.2,0.1,0.4,0,0.5-0.2l3.5-4.4c0.1-0.1,0.3-0.3,0-0.5c-0.1-0.1-0.2-0.1-0.3-0.1c-0.2,0-0.3,0.1-0.4,0.2L92.3,254.9z"/>
		<path fill="#FFFFFF" d="M93.7,261.3c-0.1-0.1-0.1-0.2,0-0.3l10.3-13.3c0.1-0.2,0.2-0.2,0.4-0.1l2.5,2c0.1,0.1,0.1,0.2,0.1,0.3
			l-10.4,13.4c-0.1,0.1-0.2,0.1-0.3,0L93.7,261.3z"/>
		<path fill="#FFFFFF" d="M103.1,256c1.6-2.1,3.9-1.7,5.3-0.6c2,1.5,2,4,0.7,5.8l-0.8,1.1c-0.1,0.1-0.2,0.1-0.3,0l-3-2.3
			c-0.1-0.1-0.1,0-0.2,0.1l-2.1,2.8c-0.2,0.3-0.2,0.5,0,0.6c0.1,0.1,0.4,0.1,0.6-0.2l0.8-1.1c0.1-0.1,0.2-0.1,0.3,0l2.2,1.9
			c0.1,0.1,0.1,0.2,0,0.3l-0.9,1.2c-1.8,2.3-3.9,1.8-5.5,0.5c-1.9-1.5-2-3.7-0.4-5.7L103.1,256z M105.7,259c0,0.1,0,0.1,0,0.2
			c0.4,0.3,0.5,0.4,0.5,0.3c0.9-1.2,1-1.3,0.7-1.5c-0.1-0.1-0.4-0.1-0.6,0.2L105.7,259z"/>
		<path fill="#FFFFFF" d="M109.6,262.1c-0.1-0.1-0.1-0.2,0.6-1c1.1-1.4,3.1-1.9,5-0.5c2,1.5,2.2,3.5,1.1,5l-3.6,4.9
			c-0.1,0.1-0.1,0.2,0.3,0.5c0.1,0.1,0.1,0.2,0,0.2l-0.8,1.1c-0.7,0.9-2.2,1.4-3.2,0.6c-0.8-0.6-1-1.1-0.9-1.8c0-0.2,0-0.3-0.1-0.3
			c0,0-0.1,0-0.3,0c-0.4,0.1-1.1,0.2-1.7-0.3c-0.8-0.6-1.4-2-0.1-3.9l1-1.3c1.1-1.4,2.6-1.5,3.9-1.2c1.7,0.4,2,0.3,2.4-0.4
			c0.2-0.3,0.2-0.5,0-0.6c-0.3-0.2-0.4-0.1-1,0.7c-0.1,0.1-0.2,0.1-0.3,0L109.6,262.1z M110.8,266.9c0.1-0.1,0.1-0.2,0-0.2
			c-0.1-0.1-0.6-0.2-0.9,0.2l-1,1.3c-0.2,0.2-0.1,0.4,0.1,0.5c0.1,0.1,0.4,0.1,0.5-0.1L110.8,266.9z"/>
		<path fill="#FFFFFF" d="M111.5,274.6c-0.1-0.1-0.1-0.2,0-0.3l7.6-10.7c0.1-0.1,0.1-0.1,0.2,0l2.3,1.6c0.1,0.1-0.3,1-0.2,1
			c0,0,0.1,0,0.2,0c0.6-0.2,1.1-0.2,1.9,0.4c0.9,0.6,1.3,2,0.4,3.2l-6.4,9c0,0.1-0.1,0.1-0.2,0l-2.5-1.8c-0.1-0.1-0.1-0.1,0-0.2
			l5.4-7.5c0.2-0.3,0.1-0.5,0-0.6s-0.4-0.1-0.6,0.2l-5.4,7.5c-0.1,0.1-0.1,0.1-0.2,0L111.5,274.6z M126.3,264.7c0,0,0,0.1,0,0.1
			c-0.3,0.4-1.7,1.4-2.7,0.7c-0.6-0.4-0.7-1.1-1.1-1.3c-0.3-0.2-0.5-0.1-0.7,0c0,0.1-0.1,0.1-0.1,0l-1.1-1.1c0,0,0-0.1,0-0.1
			c0.1-0.1,1.5-1.5,2.6-0.7c0.7,0.5,0.6,1,1.1,1.4c0.3,0.2,0.5,0,0.7-0.1c0.1-0.1,0.1-0.1,0.2-0.1L126.3,264.7z"/>
		<path fill="#FFFFFF" d="M123.8,271.1c1.2-1.7,3.3-2,5.2-0.7c1.9,1.3,2.4,3.4,1.1,5.2l-3.6,5.3c-1.2,1.7-3.3,2-5.2,0.7
			c-1.9-1.3-2.4-3.4-1.2-5.1L123.8,271.1z M123.4,278c-0.2,0.2-0.2,0.4,0,0.6c0.2,0.1,0.4,0.1,0.6-0.2l3.1-4.4
			c0.1-0.2,0.1-0.4,0-0.6c-0.2-0.1-0.4,0-0.6,0.2L123.4,278z"/>
		<path fill="#FFFFFF" d="M133.7,279.3c-0.1,0-0.1-0.2,0-0.3c0.4-0.6,0.5-1,0.2-1.2c-0.2-0.1-0.4-0.1-0.5,0.1
			c-0.3,0.4-0.1,1.3,0.3,3c0.5,1.7,0.4,2.8-0.4,4c-1.1,1.6-2.9,2.7-5.2,1.1c-1.3-0.8-2.5-2.7-0.4-5.8c0.1-0.1,0.2-0.1,0.2-0.1
			l2.1,1.2c0.1,0.1,0.1,0.1,0.1,0.2c-0.4,0.7-0.5,1.3-0.2,1.5c0.2,0.1,0.4,0,0.5-0.1c0.3-0.5,0.1-1.6-0.4-3.2
			c-0.4-1.1-0.4-2.6,0.6-4c1.1-1.7,3.3-2,5-0.9c2.3,1.5,2,3.9,0.8,5.8c-0.1,0.1-0.2,0.1-0.3,0L133.7,279.3z"/>
		<path fill="#FFFFFF" d="M142.8,275.8c0.1-0.1,0.2-0.1,0.3-0.1l3.2,2c0.1,0.1,0.1,0.2,0.1,0.3l-3.2,5c0,0.1,0,0.2,0,0.2l0.4,0.2
			c0.1,0.1,0.2,0,0.3,0l3.2-5c0.1-0.1,0.2-0.1,0.3-0.1l3.2,2.1c0.1,0.1,0.1,0.2,0.1,0.3l-8.9,13.9c-0.1,0.1-0.2,0.2-0.3,0.1
			l-3.2-2.1c-0.1-0.1-0.1-0.2,0-0.3l3.2-5c0-0.1,0.1-0.2,0-0.2l-0.4-0.3c-0.1-0.1-0.2,0-0.2,0.1l-3.2,5c-0.1,0.1-0.2,0.1-0.3,0.1
			l-3.1-2c-0.1-0.1-0.2-0.3-0.1-0.4L142.8,275.8z"/>
		<path fill="#FFFFFF" d="M147.5,286.9c1.4-2.3,3.7-2,5.2-1.1c2.2,1.3,2.4,3.8,1.2,5.7l-0.7,1.2c-0.1,0.1-0.2,0.1-0.3,0.1l-3.2-2
			c-0.1,0-0.2,0-0.2,0.1l-1.9,3c-0.2,0.3-0.1,0.5,0,0.6c0.1,0.1,0.4,0.1,0.6-0.2l0.7-1.2c0-0.1,0.2-0.1,0.3,0l2.4,1.7
			c0.1,0.1,0.1,0.2,0.1,0.3l-0.8,1.2c-1.5,2.5-3.7,2.2-5.4,1.1c-2.1-1.3-2.3-3.4-1-5.6L147.5,286.9z M150.3,289.6
			c0,0.1,0,0.1,0.1,0.2c0.4,0.3,0.5,0.3,0.6,0.2c0.8-1.2,0.8-1.4,0.5-1.6c-0.2-0.1-0.4-0.1-0.5,0.2L150.3,289.6z"/>
		<path fill="#FFFFFF" d="M156.6,288.4c0.1-0.1,0.1-0.1,0.2-0.1l2.7,1.6c0.1,0.1-0.1,0.8,0,0.8c0,0,0.1,0,0.2-0.1
			c0.5-0.4,0.9-0.1,1.5,0.2c0.1,0,0.1,0.1,0,0.2l-1.7,2.8c0,0.1-0.1,0.1-0.2,0.1c-1-0.6-1.7-0.3-2.6,1.3l-3.7,6.3
			c-0.1,0.1-0.2,0.1-0.3,0.1l-2.8-1.7c-0.1,0-0.1-0.1,0-0.2L156.6,288.4z"/>
		<path fill="#FFFFFF" d="M165.5,308.7c-0.1,0.1-0.2,0.2-0.3,0.1l-2.6-1.5c-0.1-0.1-0.1-0.2-0.1-0.3l4.5-8c0.2-0.3,0.1-0.5-0.1-0.6
			c-0.2-0.1-0.4-0.1-0.5,0.2l-4.5,8c-0.1,0.1-0.2,0.2-0.3,0.1l-2.7-1.5c-0.1-0.1-0.1-0.2-0.1-0.3l4.5-8c0.2-0.3,0.1-0.5-0.1-0.6
			c-0.2-0.1-0.4-0.1-0.5,0.2l-4.6,8.1c0,0.1-0.1,0.1-0.2,0l-2.7-1.5c-0.1,0-0.1-0.1,0-0.2l6.5-11.5c0-0.1,0.2-0.1,0.3-0.1l2.6,1.5
			c0.2,0.1-0.2,1-0.1,1.1c0.1,0,0.1,0,0.3,0c0.5-0.2,1.2-0.2,1.9,0.1c0.7,0.4,1,1,1.1,1.6c0,0.2,0.1,0.3,0.1,0.3c0.1,0,0.2,0,0.3,0
			c0.6-0.1,1.3-0.3,2,0.2c1,0.6,1.3,2,0.7,3.1L165.5,308.7z"/>
		<path fill="#FFFFFF" d="M170.6,301.5c-0.1-0.1-0.1-0.2,0.4-1.1c0.8-1.6,2.8-2.3,4.9-1.2c2.2,1.2,2.7,3.2,1.9,4.7l-2.9,5.4
			c-0.1,0.2,0,0.2,0.4,0.4c0.1,0,0.1,0.2,0.1,0.2l-0.7,1.2c-0.5,1-2,1.7-3.1,1.1c-0.9-0.5-1.1-1-1.2-1.6c0-0.2-0.1-0.3-0.1-0.3
			c0,0-0.1,0-0.3,0.1c-0.4,0.2-1.1,0.3-1.8-0.1c-0.8-0.4-1.7-1.8-0.6-3.8l0.8-1.5c0.8-1.6,2.3-1.9,3.7-1.7c1.8,0.2,2,0,2.4-0.7
			c0.1-0.3,0.1-0.5-0.1-0.6c-0.3-0.2-0.4-0.1-0.9,0.9c-0.1,0.1-0.2,0.1-0.3,0.1L170.6,301.5z M172.6,306.1c0-0.1,0-0.2,0-0.2
			c-0.1-0.1-0.6-0.1-0.8,0.3l-0.8,1.5c-0.1,0.2,0,0.4,0.1,0.5c0.2,0.1,0.4,0.1,0.5-0.2L172.6,306.1z"/>
		<path fill="#FFFFFF" d="M174.6,313.8c-0.1,0-0.1-0.2-0.1-0.3l5.9-11.8c0-0.1,0.1-0.1,0.2-0.1l2.5,1.3c0.1,0.1-0.1,1,0,1
			c0,0,0.1,0,0.2-0.1c0.6-0.3,1.1-0.4,1.9,0.1c1,0.5,1.6,1.8,0.9,3.1l-5,9.9c0,0.1-0.1,0.1-0.2,0.1l-2.8-1.4c-0.1,0-0.1-0.1-0.1-0.2
			l4.1-8.3c0.2-0.3,0-0.5-0.1-0.6c-0.2-0.1-0.4-0.1-0.5,0.2l-4.2,8.3c0,0.1-0.1,0.1-0.2,0.1L174.6,313.8z"/>
		<path fill="#FFFFFF" d="M186.3,309.6c-0.1-0.1-0.1-0.2,0.3-1.1c0.7-1.6,2.7-2.5,4.8-1.5c2.3,1,2.9,3,2.1,4.6l-2.6,5.6
			c-0.1,0.2,0,0.2,0.4,0.4c0.1,0,0.1,0.1,0.1,0.2l-0.6,1.3c-0.5,1-1.9,1.8-3,1.3c-0.9-0.4-1.2-0.9-1.3-1.5c0-0.2-0.1-0.3-0.1-0.3
			c0,0-0.1,0-0.3,0.1c-0.4,0.2-1,0.4-1.8,0c-0.9-0.4-1.8-1.7-0.9-3.8l0.7-1.5c0.7-1.6,2.2-2,3.6-1.9c1.8,0.1,2-0.1,2.3-0.9
			c0.1-0.3,0.1-0.5-0.1-0.6c-0.3-0.2-0.4,0-0.8,0.9c0,0.1-0.2,0.1-0.3,0.1L186.3,309.6z M188.5,314.1c0-0.1,0-0.2,0-0.2
			c-0.1-0.1-0.6-0.1-0.8,0.4l-0.7,1.5c-0.1,0.2,0,0.4,0.2,0.5c0.2,0.1,0.4,0,0.5-0.2L188.5,314.1z"/>
	</g>
</g>
</svg>
