<?xml version="1.0" encoding="utf-8"?>
<!-- Generator: Adobe Illustrator 18.0.0, SVG Export Plug-In . SVG Version: 6.00 Build 0)  -->
<!DOCTYPE svg PUBLIC "-//W3C//DTD SVG 1.1//EN" "http://www.w3.org/Graphics/SVG/1.1/DTD/svg11.dtd">
<svg version="1.1" id="Layer_1" xmlns="http://www.w3.org/2000/svg" xmlns:xlink="http://www.w3.org/1999/xlink" x="0px" y="0px"
	 viewBox="0 0 157 314.5" enable-background="new 0 0 157 314.5" xml:space="preserve">
<g>
	<path fill="#DCEFFE" d="M7.9,88.8c-1.5-2.5-1-5.4-0.6-7.9c0.9-5.4,0-10.8,1.4-16.1c2.9-0.5,5.3,1.3,7.8,2.1
		c18.8,6.1,38.1,9,57.8,8.8c4.4,0,8.7-0.1,13.1,0c11.4,0,22.6-1.9,33.9-3.7c7.9-1.7,15.7-3.6,23.2-6.6c1.6-0.6,3.3-1.3,4.8,0.2
		c1.1,3.4,1.3,6.8,1.5,10.3c0.8,17.4-2.1,34.4-6.4,51.1c-1.2,4.8-2.4,9.7-3.3,14.6c-1.4,7.8-0.2,15.4,1.3,23
		c1.4,7.2,3.2,14.4,4.8,21.6c6.7,29.5,5.4,58.8-1.8,88c-0.4,1.9-0.9,3.8-2.1,5.3c-8,7.7-17.6,11.9-28.6,12.2
		c-8,0.2-15.8-2.2-23.1-5.7c-9.2-4.4-17.6-10.1-24.9-17c-12.1-11.5-19.4-25.4-19.5-42.6c0-10.4,0.8-20.7,2.1-30.9
		c0.6-4.7,0.6-9.5-0.3-14.2c-0.6-3.1-1.8-5.9-4.1-7.8c-3.3-2.7-4-5.8-3.3-9.6c0.9-12.4-0.4-24.6-2.8-36.7
		c-1.6-8.1-2.5-16.4-2.6-24.8c0-2.7-1-5.4-0.7-7.1c1.1,8.5,1.2,18.1,2.7,27.7c1.5,9.1,3.5,18.1,3.7,27.3c0.1,4.6-0.5,9.2-0.4,13.8
		c0,0.9-0.3,1.7-1,2.3c-3.7-1-4.1-4.4-5-7.2c-2.8-8.1-3-16.6-4-25c-0.9-7.5-0.9-15.1-1.8-22.7c-1.8-14.3-7.9-25.2-21.1-31.2
		C8.8,83.1,9.8,86.1,7.9,88.8z"/>
	<path fill="#B4DFFE" d="M18.4,293.5c0-0.6-0.2-1.2-0.7-1.5c-1.5-0.5-1.8-2-2.2-3.3c-4.9-17.3-8.3-34.9-9.6-52.9
		c-1.4-19.7,1.5-38.8,6-57.8c1.5-6.4,2.9-12.9,4.2-19.4c0.9-7,0.9-13.9-0.6-20.8c-1.3-5.7-2.6-11.4-4.1-17.1
		c-0.9-3.4-1.6-6.8-2-10.3c1-3.7-0.4-7.3-0.9-10.9C8,96,8,92.4,7.9,88.8c0-2.4,0.2-4.8,0-7.1c-0.2-2.5,1.1-2.5,2.7-1.6
		c9.2,5.4,16.3,12.2,18.5,23.3c1.7,8.3,2.4,16.6,3,25.1c0.7,10.6,1.4,21.3,4.4,31.6c0.7,2.5,3.1,4.2,3.6,6.8
		c0.8,0.8,0.8,1.8,0.6,2.8c-1.7,9.4-3.3,18.8-4.2,28.3c-1.4,13.9-1.3,27.8-0.3,41.8c0.8,10.8,2.2,21.5,4,32.1
		c-0.8-5.7-1.9-11.4-2.5-17.1c-0.8-8-2-16-2.1-24.1c0-6.1,0-12.2,0-18.4c0-10.5,1.8-20.8,3.3-31.1c0.6-4.5,1.4-9.1,2-13.6
		c0.1-1.1-0.3-2.6,1.4-3c-0.1,3.3,0,6,3.2,8.4c3.8,2.9,4.8,7.7,5,12.4c0.4,8.6-1.6,17.1-1.9,25.6c-0.4,10-1.1,20,1.6,30
		c4.5,16.4,15.5,27.3,28.7,36.8c7.2,5.2,15.1,9.4,23.6,11.7c13.1,3.4,25.5,1.3,36.4-7.2c1.3-1,2.6-1.9,3.9-2.8
		c0.7,0.7,0.9,1.6,0.6,2.4c-1.5,4.2-1.1,9.1-4.8,12.4c-4,2.1-8.4,2.1-12.7,2.7c-20.6,3.1-41.3,3.7-62,3.1c-14.1-0.4-28.1-2.1-42-4.5
		C20.6,295.1,19.4,294.7,18.4,293.5z"/>
	<path fill="#016CCF" d="M87.4,76.8c-7.8,0-15.7,0.5-23.5-0.1c-19-1.3-37.6-4-55.2-11.9c1.5-13.6,7-25.7,15.6-36.2
		c8.1-9.8,18.3-16.9,30.3-21.2c1.4-0.5,2.8-1.2,4.3-1.1c3.3,0.3,5.2,2.1,6.2,6.1c-2.5,2.4-6.1,2.6-9.1,3.9c-2.7,1.2-5.5,2.3-8,3.9
		C41,24.1,34.7,28.9,30,35.5c-4.6,5.9-8,12.3-10.3,19.4c-1.3,3.9-1,4.3,2.8,5.6c5.8,2.1,11.8,3.1,17.8,4.4
		c14.1,1.8,28.2,3.4,42.4,3.2C88.2,68.2,89.9,71.5,87.4,76.8z"/>
	<path fill="#016CCF" d="M122,17.6c3.8,3.9,8,7.4,11.5,11.7C142,40,147.2,52,148.8,65.6c-2.1-0.5-3.8,0.8-5.6,1.5
		c-6.9,2.6-14.1,4.2-21.3,5.9c-2.8-2.1-1.8-4.4-1.4-7.1c0.5-1.2,2.2-0.9,3.3-1.1c4.1-0.7,7.4-3.3,11.4-4.2c2.6-0.5,3.5-1.9,2.7-4.5
		c-2.4-8-6.1-15.3-11.4-21.6c-6.1-7.2-13.5-12.9-22.1-16.9c-1.1-0.5-2-1-2.7-2.1c-1.1-2.5-3.6-4.1-4.6-6.7c-0.4-1.2-1.5-3.2,1.5-2.5
		c6.6,1.5,12.6,4.5,18.3,8.2C118.6,15.5,120.3,16.6,122,17.6z"/>
	<path fill="#016CCF" d="M98.7,6.3c-2.5,0.5-0.8,1.8-0.5,2.7c0.9,2.4,4,3.4,4.2,6.3c-1,0.9-2.1,0.7-3.2,0.3
		c-10.6-4-21.6-4.1-32.6-2.5c-0.7-0.1-1.3-0.3-1.8-0.8c-1.5-2.5-3.1-4.9-6-6C68.1,3,77.6,2.6,87.2,3.7C91,4.1,95.1,4.4,98.7,6.3z"/>
	<path fill="#D4E8F9" d="M87.4,76.8c0-8.4,0.7-7.6-7.4-7.4c-13.3,0.2-26.5-1.6-39.7-3.2c-0.3,0-0.6-0.4-0.9-0.6
		c0.4-2,1.2-3.8,1.7-5.7c2.1-8.2,8.7-13.3,17.1-13.3c5,0,9.9-0.4,14.9,0.2c3.4,2.1-8.6-2.5-6.6-5.2c1.7-2.3,0.5-23.8,3.2-23.3
		C73.3,18.9,99,76.9,87.4,76.8z"/>
	<path fill="#016CCF" d="M121.9,88.3c0,7.8,0.2,14.7-0.4,21.6c-1.2,14.6-5.3,28.9-5.6,43.6c-0.2,9.6,2,19,3.4,28.5
		c0.8,5.7,2,11.3,2.4,17c0.8,10.7,1.4,21.5,0.8,32.2c-0.7,10.8-1.5,21.6-3.3,32.3c-0.6,3.7-1.4,7.3-1.8,11c-0.1,1,0,2-1.7,2.5
		c0-4.8,1.4-9.2,1.9-13.8c1.1-8.5,2.4-17,2.9-25.6c0.4-6.7,0.7-13.4,0.6-20.2c-0.2-11.6-1.7-23-3.3-34.5
		c-1.5-10.6-3.8-21.1-3.5-31.9c0.2-6.4,1.5-12.6,2.5-18.9c2.2-13.4,4.2-26.8,3.7-40.5C120.4,90.9,120.2,90,121.9,88.3z"/>
	<path fill="#016CCF" d="M42.4,164.5c-1,6.1-1.9,12.2-3,18.2c-3.2,17.5-3.7,35.2-2.8,52.8c0.6,12.5,2.1,25,4.8,37.2
		c0.3,1.3,0.6,2.6-0.5,4.4c-1.7-5.2-2-10-2.9-14.8c-3.3-18.6-3.6-37.4-2.9-56.2c0.3-8.6,2.1-17.2,3.2-25.8c0.6-4.5,1.2-9.1,1.9-13.6
		c1.5-9.7,1.2-19.4-0.3-29C38,126.3,36,115,35.5,103.4c-0.2-3.8-0.6-7.7-0.5-11.6c0-0.9-0.4-2,1.2-2.9c0.6,4.7,0.6,9.3,0.8,13.7
		c0.6,13,2.9,25.7,5.1,38.4C43.3,148.9,42.7,156.7,42.4,164.5z"/>
	<path fill="#0A897A" d="M79.8,115c-7,0-14,0-21,0c-5.1,0-6.5-1.4-6.6-6.4c0-3.6-0.1-7.2,0-10.9c0.1-3.9,1.6-5.5,5.5-5.5
		c14.9,0,29.7,0,44.6,0c3.7,0,5.2,1.6,5.3,5.3c0.1,3.7,0.1,7.5,0,11.2c-0.1,4.5-1.6,6.1-6.1,6.1C94.3,115,87,115,79.8,115
		C79.8,115,79.8,115,79.8,115z"/>
	<path fill="#016CCF" d="M139.2,293.7c-0.1,0.2-0.1,0.4,0,0.6c-0.8,3.1-1.8,6.3-2.3,9.4c-0.5,3.3-2.4,4.3-5.5,4.9
		c-20.9,3.5-41.9,5.2-63,4.5c-14.5-0.5-28.8-2.2-43.1-4.6c-2.6-0.4-4.3-1.4-4.6-4.3c-0.4-3.6-2.4-6.8-2.2-10.6
		c8.3,1.7,16.7,2.7,25.1,3.6c16.6,1.8,33.3,2.1,50,1.5C108.9,298.1,124,296.1,139.2,293.7z"/>
	<path fill="#D4E8F9" d="M73.1,47.5c-5,0-10,0-15,0c-8,0-13.9,4.7-16,12.3c-0.6,2,0.1,4.7-2.7,5.7c-7-0.4-13.4-3.2-20.2-4.7
		c-1.5-0.3-1.8-1.6-1.4-3c2.4-8.5,5.7-16.5,11.8-23.1c1.3,2.7,1.7,5.8,5,7.5c5,2.5,13.5,1.5,18.4-2.6c1-0.8,1.8-1.7,2.7-2.6
		c2.4-2.4,4.4-5.1,3.2-8.6c-1.3-3.8-4-6.3-8.2-6.8c-1.2-0.2-2.9,0.3-3.1-1.8c4.2-3.8,9.7-4.8,14.8-6.7c0.8-0.3,1.6-0.5,2.4-0.8
		c0.5,0,1,0,1.5,0c1.4,2.5,3.6,4.5,4.1,7.5c-0.1,1.4-1,2.4-1.3,3.7c-0.7,4.5-0.2,9.1-0.2,13.7c0,1.7,1.1,2.9,1.9,4.3
		C72.1,43.3,73.7,45,73.1,47.5z"/>
	<path fill="#E1EFFC" d="M47.6,19.8c0.7,1,1.8,0.8,2.7,0.8c5.1,0.1,8,3.2,9.6,7.5c1.3,3.7-0.8,6.6-3.2,9.3
		c-4.7,5.3-10.5,7.5-17.5,7.2c-5.8-0.3-9.5-4-9.6-9.8c3.9-6.6,10.3-10.3,16.2-14.7C46.3,19.8,47,19.9,47.6,19.8z"/>
	<path fill="#E1EFFC" d="M70.2,19.8c-1.1-2.6-3.9-4.3-3.8-7.5c11.1-2.3,22.1-1.8,32.8,2.2c1.1,0.4,2,0.9,3.2,0.8
		c0.7,0.5,1.5,1,2.2,1.5c4.5,4,6.5,9.7,8.8,14.9c2.7,6,5,12.2,6,18.7c0.2,1.4,4.1,14.3,1.7,14.8c-10.7,2.7-25.4,3.7-34.3,4
		C85.2,70.5,88.5,49.5,70.2,19.8z"/>
	<path fill="#D5E8F9" d="M117.5,46.2c-2.7-10.5-7.4-20.1-12.8-29.4c13.8,6.4,24.2,16.2,30.7,30.1c1.6,3.5,3.2,6.9,3.9,10.8
		c0.3,1.6,0,2.9-1.5,3.2c-5.6,1.2-9.7,3.9-15.6,3.9C122,61.1,118.1,48.8,117.5,46.2z"/>
	<path fill="#026D62" d="M79.9,112.8c-7.2,0-14.5-0.1-21.7,0c-2.7,0-3.7-0.9-3.8-3.7c-0.2-3.9,0.7-7.8-0.7-11.8
		c-0.5-1.5,2.1-3.3,4.5-3.3c3.1,0,6.2,0,9.4,0c11,0,22,0,33,0c4.3,0,4.9,0.6,5,5c0,3-0.2,6,0.1,9c0.3,3.5-0.9,4.9-4.6,4.8
		C93.9,112.6,86.9,112.8,79.9,112.8z"/>
	<path fill="#AB5056" d="M99.5,111.3c-1.3-0.2-2.9,0.3-3-1.6c0-2,1.6-1.5,2.7-1.5c1.2,0,3.1-0.6,3,1.6
		C102.1,111.8,100.4,111,99.5,111.3z"/>
	<path fill="#C54C55" d="M68.1,111.2c-1.4,0.1-2.5,0-2.4-1.6c0.1-2.1,1.7-1.3,2.8-1.3c1,0,2.4-0.5,2.5,1.3
		C70.9,111.8,69.1,111,68.1,111.2z"/>
	<path fill="#CB4858" d="M91.2,111.2c-1.2,0-2.3,0-2.2-1.7c0.1-1.8,1.6-1.2,2.5-1.3c1.2-0.2,2.5,0,2.5,1.4
		C94,111.3,92.4,111.2,91.2,111.2z"/>
	<path fill="#D34A53" d="M83.5,111.2c-1.3,0.2-2.2-0.2-2.1-1.7c0.1-1.8,1.6-1.2,2.5-1.2c0.9,0,2.1-0.4,2.1,1.2
		C86,111.3,84.8,111.3,83.5,111.2z"/>
	<path fill="#CE4C52" d="M75.9,108.2c1.1,0.2,2.5-0.4,2.5,1.5c0,1.7-1.2,1.6-2.4,1.6c-1.2,0-2.3-0.1-2.3-1.7
		C73.8,108,75.1,108.4,75.9,108.2z"/>
	<path fill="#96535A" d="M61.9,108.4c1.5-0.2,1.7,0.8,1.4,1.8c-0.4,1.5-1.8,1.1-2.8,1.1c-1,0-2.4,0.4-2.9-1c-0.4-1.1-0.2-2,1.3-1.9
		C59.9,109.5,60.9,109.2,61.9,108.4z"/>
	<path fill="#F7425A" d="M61.9,108.4c0,1.5-1.1,1.9-2.2,1.8c-1-0.1-0.7-1.1-0.7-1.8C59.9,108.4,60.9,108.4,61.9,108.4z"/>
</g>
<g>
	<path fill="#FEFEFE" d="M77.9,223.7c-0.2,0.4-0.4,0.7-0.5,1c-1.7,4.8-4.1,9.2-6.8,13.6c-1.4,2.3-2.8,4.6-4,7.1
		c-1.2,2.6-1.6,5.3-0.9,8.1c1.6,6.9,8.8,11.1,15.7,9.1c6.8-2,10.5-9.3,8.1-16c-0.7-2-1.8-3.9-2.9-5.7c-3.3-5.3-6.4-10.6-8.5-16.5
		C78.2,224.1,78.1,223.9,77.9,223.7z"/>
	<path fill="#2079BA" d="M77.9,223.7c0.2,0.3,0.3,0.4,0.3,0.5c2.1,5.9,5.2,11.2,8.5,16.5c1.1,1.8,2.2,3.7,2.9,5.7
		c2.4,6.7-1.3,14-8.1,16c-6.8,2-14.1-2.2-15.7-9.1c-0.7-2.8-0.3-5.5,0.9-8.1c1.1-2.5,2.5-4.8,4-7.1c2.7-4.3,5.1-8.8,6.8-13.6
		C77.5,224.4,77.7,224.1,77.9,223.7z M78,229.9c-0.2,0.3-0.3,0.4-0.4,0.5c-1.7,3.7-3.9,7.2-6,10.7c-1.2,1.9-2.4,3.9-3.2,6.1
		c-1.5,4.1-0.2,8.7,3.3,11.3c3.6,2.8,8.5,2.8,12.1,0.1c3.5-2.6,5-7.2,3.5-11.3c-0.5-1.3-1.1-2.6-1.8-3.8c-2.3-4-4.9-7.8-6.8-12
		C78.5,231.1,78.3,230.6,78,229.9z"/>
	<path fill="#F2F7F9" d="M78,229.9c0.3,0.7,0.6,1.2,0.8,1.7c2,4.2,4.6,8,6.8,12c0.7,1.2,1.3,2.5,1.8,3.8c1.5,4.1,0.1,8.7-3.5,11.3
		c-3.7,2.7-8.5,2.7-12.1-0.1c-3.5-2.7-4.8-7.2-3.3-11.3c0.8-2.2,2-4.1,3.2-6.1c2.1-3.5,4.3-7,6-10.7C77.7,230.3,77.8,230.2,78,229.9
		z M77.9,232.8c-1.8,4.2-4.3,7.9-6.5,11.8c-0.6,1-1.1,2.1-1.5,3.2c-1,3.1,0,6.7,2.5,8.8c3,2.6,7.4,2.8,10.5,0.4
		c3.2-2.4,4.4-6.4,2.7-10.1C83.4,242.1,79.9,237.9,77.9,232.8z"/>
	<path fill="#29AADF" d="M77.9,232.8c2,5.1,5.5,9.2,7.7,14.1c1.7,3.8,0.5,7.8-2.7,10.1c-3.2,2.3-7.5,2.1-10.5-0.4
		c-2.5-2.1-3.5-5.7-2.5-8.8c0.4-1.1,0.9-2.2,1.5-3.2C73.6,240.8,76.1,237.1,77.9,232.8z M81,256.5c-0.5,0-0.8,0-1.1,0
		c-4.4-0.1-7.7-3.8-7.1-8.2c0.2-1.2,0.6-2.4,1.1-3.5c0.8-1.9,1.6-3.7,2.4-5.6c0.2-0.4,0.5-0.8,0.1-1.3c-1.6,2.8-3.3,5.5-4.8,8.3
		c-0.9,1.7-1.3,3.4-0.9,5.4C71.8,256,77.1,258.7,81,256.5z"/>
	<path fill="#F1F8FA" d="M81,256.5c-3.9,2.2-9.2-0.5-10.2-4.9c-0.4-1.9,0-3.7,0.9-5.4c1.5-2.8,3.1-5.5,4.8-8.3c0.3,0.6,0,1-0.1,1.3
		c-0.8,1.9-1.6,3.7-2.4,5.6c-0.5,1.1-0.9,2.3-1.1,3.5c-0.6,4.3,2.7,8.1,7.1,8.2C80.2,256.5,80.5,256.5,81,256.5z"/>
</g>
<path fill="#016CCF" d="M86,69.5c0,0,14.4-0.1,36.7-4.3l1.6,7.3c0,0-11,3.1-36.9,4.2L86,69.5z"/>
<linearGradient id="SVGID_1_" gradientUnits="userSpaceOnUse" x1="78.8253" y1="69.9968" x2="78.8253" y2="10.5207">
	<stop  offset="0" style="stop-color:#FFFFFF"/>
	<stop  offset="1" style="stop-color:#707070"/>
</linearGradient>
<path fill="none" stroke="url(#SVGID_1_)" stroke-miterlimit="10" d="M19.6,60.9c0,0-2.7-0.1-1-4.4C18.6,56.5,30,9.9,83,11
	c0,0,41.9,1.4,55.8,43.4c0,0,2.6,5.2-1.1,6.5c0,0-24.8,8.1-51.3,8.5C86.4,69.5,48.8,70.5,19.6,60.9z"/>
<g opacity="0.69">
	<defs>
		<path id="SVGID_2_" opacity="0.69" d="M19.6,61.4c0,0-2.7-0.1-1-4.4c0,0,11.5-46.6,64.4-45.5c0,0,41.9,1.4,55.8,43.4
			c0,0,2.6,5.2-1.1,6.5c0,0-24.8,8.1-51.3,8.5C86.4,70,48.8,71,19.6,61.4z"/>
	</defs>
	<clipPath id="SVGID_3_">
		<use xlink:href="#SVGID_2_"  overflow="visible"/>
	</clipPath>
	<g clip-path="url(#SVGID_3_)">
		<ellipse fill="#FCA455" cx="79.1" cy="43" rx="26.8" ry="26.6"/>
		<circle fill="#FFFFFF" cx="80.6" cy="47.6" r="7.4"/>
		<circle fill="#FFFFFF" cx="60.5" cy="47.6" r="7.4"/>
		<linearGradient id="SVGID_4_" gradientUnits="userSpaceOnUse" x1="84.8625" y1="15.8603" x2="84.8625" y2="84.0481">
			<stop  offset="0" style="stop-color:#FFF9E7"/>
			<stop  offset="1" style="stop-color:#E299DB"/>
		</linearGradient>
		<path fill="url(#SVGID_4_)" d="M52.3,43.1c0,0,0.3,9.2,1.1,16.8c0,0,1.7,2.7-2.1,11c0,0-5,8.1,5.2,5.9c0,0,9.1-2.7,15.1-8
			c0,0-18.6-5.1-17-24.3c0,0,19.8,1.5,30.6-11c0,0,9.4,17.9,3.1,25.9c0,0-11.2,12.3-6.3,16.5c0,0,16,11.8,21.4,5.9l0.1,2
			c0,0,4.7,1.8,6.2-3.3l0.5-5.5c0,0,0.4-1.5,5.9-4.4c0,0,15.3-6.8-14.9-46.6c0,0-6.8-8.1-21.5-8.1c0,0-21,0.4-27,20.2
			C52.6,36.1,46.7,41.6,52.3,43.1z"/>
		<path fill="#FCA455" d="M97.4,49.7c2.7,0,4.9-2.2,4.9-4.9c0-2.7-2.2-4.9-4.9-4.9c-0.5,0-1.1,0.1-1.6,0.3"/>
		<circle fill="#020202" cx="77.6" cy="47.7" r="1.8"/>
		<circle fill="#020202" cx="58" cy="47.7" r="1.8"/>
		<path fill="#F16D50" stroke="#F22525" stroke-width="0.5591" stroke-miterlimit="10" d="M82.5,58.9c0,0-3.5,0.5-5.6,0.3
			c0,0-4.1-0.4-5.2-0.3c0,0-2.7,0.2-4.3,0.7c0,0-1.7,0.3-2.7,0.2c0,0-1.2-0.3-0.6,1c0,0,3.4,1.5,7.5,1.5
			C71.6,62.3,79.9,61.8,82.5,58.9z"/>
		<path fill="#F16D50" stroke="#F22525" stroke-width="0.5591" stroke-miterlimit="10" d="M73.4,65.9c0,0-5.9,0.1-9.2-5
			c0,0,3.7,1.8,8.6,1.4c0,0,6.9-0.5,9.8-3.3C82.5,58.9,79.2,65.3,73.4,65.9z"/>
	</g>
</g>
<g>
	<path fill="#00FFDA" d="M66,101.5l-0.1,2.8l-1.1,0.6l0.2-3.6c0-0.1,0.1-0.3,0.2-0.4L66,101.5z M68.9,104.5c0.3,0.3,0.5,0.7,0.8,1
		c0,0,0.1,0.1,0.1,0.1c0,0,0,0.1-0.1,0.1h-2.1h-1.7H65c-0.1-0.1-0.2-0.2-0.3-0.3c0,0-0.1-0.1-0.1-0.1v0l1.1-0.7H68.9z M66.2,97.7
		l-0.1,2.4l-0.9,0.6l-0.1-0.3l0.2-3.3L66.2,97.7z M70.3,96.4l-1.1,1.1h-3.1l-1-0.6l0.8-0.5L70.3,96.4z M70.3,101.5l-0.2,3.5
		l-0.2,0.3l-0.8-0.9l0.1-2.7l0.7-0.6L70.3,101.5z"/>
	<path fill="#00FFDA" d="M73,101.5l-0.1,2.8l-1.1,0.6l0.2-3.6c0-0.1,0.1-0.3,0.2-0.4L73,101.5z M76,104.5c0.3,0.3,0.5,0.7,0.8,1
		c0,0,0.1,0.1,0.1,0.1c0,0,0,0.1-0.1,0.1h-2.1h-1.7h-0.9c-0.1-0.1-0.2-0.2-0.3-0.3c0,0-0.1-0.1-0.1-0.1v0l1.1-0.7H76z M73.2,97.7
		l-0.1,2.4l-0.9,0.6l-0.1-0.3l0.2-3.3L73.2,97.7z M77.3,96.4l-1.1,1.1h-3.1l-1-0.6l0.8-0.5L77.3,96.4z M77.3,101.5l-0.2,3.5
		l-0.2,0.3l-0.8-0.9l0.1-2.7l0.7-0.6L77.3,101.5z M77.5,96.7c-0.1,1.2-0.1,2.3-0.2,3.5l-0.4,0.4l-0.7-0.5l0.1-2.6l1.1-1.1
		C77.5,96.6,77.5,96.6,77.5,96.7z"/>
	<path fill="#00FFDA" d="M83,104.5c0.3,0.3,0.5,0.7,0.8,1c0,0,0.1,0.1,0.1,0.1c0,0,0,0.1-0.1,0.1h-2.1H80h-0.9
		c-0.1-0.1-0.2-0.2-0.3-0.3c0,0-0.1-0.1-0.1-0.1v0l1.1-0.7H83z M80.2,97.7l-0.1,2.4l-1,0.6l-0.1-0.3l0.2-3.3L80.2,97.7z M84.3,96.3
		l-1.1,1.1h-3l-1-0.6l0.8-0.5L84.3,96.3z M83,100.3l0.8,0.6l-0.8,0.5h-3c-0.3-0.2-0.5-0.4-0.8-0.6l0.9-0.5H83z M84.3,101.4l-0.2,3.5
		l-0.2,0.3l-0.8-0.9l0.2-2.7l0.7-0.6L84.3,101.4z"/>
	<path fill="#00FFDA" d="M87.7,101.5l-0.2,3.5l-0.2,0.3l-0.8-0.9l0.1-2.7l0.7-0.6L87.7,101.5z M88,96.7c-0.1,1.2-0.1,2.3-0.2,3.5
		l-0.4,0.4l-0.7-0.5l0.1-2.6l1.1-1.1C87.9,96.6,88,96.6,88,96.7z"/>
	<path fill="#00FFDA" d="M90.4,101.5l-0.1,2.8l-1.1,0.6l0.2-3.6c0-0.1,0.1-0.3,0.2-0.4L90.4,101.5z M90.6,97.7l-0.1,2.4l-0.9,0.6
		l-0.1-0.3l0.2-3.3L90.6,97.7z M94.8,96.4l-1.1,1.1h-3.1l-1-0.6l0.8-0.5L94.8,96.4z M93.5,100.3l0.8,0.6l-0.8,0.5h-3
		c-0.3-0.2-0.5-0.4-0.8-0.6l1-0.5H93.5z M94.7,101.5l-0.2,3.5l-0.2,0.3l-0.8-0.9l0.1-2.7l0.7-0.6L94.7,101.5z M95,96.7
		c-0.1,1.2-0.1,2.3-0.2,3.5l-0.4,0.4l-0.7-0.5l0.1-2.6l1.1-1.1C94.9,96.6,95,96.6,95,96.7z"/>
</g>
<path fill="#00FFDA" d="M8,99.6c0,0,46.7,67.5,143,118.6c0,0,0.6,22-2.7,39.1c0,0-73.3-38.7-132.7-98.6c0,0,1.9-5.2,1.6-17.2
	C17.2,141.5,8.7,117.4,8,99.6z"/>
<g>
	<g>
		<path fill="#FFFFFF" d="M29.8,136.1c0.1-0.1,0.2-0.1,0.3,0l2,2.3c0.1,0.1,0.1,0.2,0,0.2l-3.6,3.1c-0.1,0-0.1,0.1,0,0.2l0.2,0.3
			c0.1,0.1,0.2,0.1,0.2,0l3.6-3c0.1-0.1,0.2-0.1,0.2,0l2,2.3c0.1,0.1,0.1,0.2,0,0.2l-10,8.5c-0.1,0.1-0.2,0.1-0.2,0l-2-2.3
			c-0.1-0.1,0-0.2,0-0.3l3.6-3c0.1,0,0.1-0.1,0-0.2l-0.3-0.3c-0.1-0.1-0.1,0-0.2,0l-3.6,3.1c-0.1,0.1-0.2,0.1-0.2,0l-1.9-2.3
			c-0.1-0.1-0.1-0.3,0.1-0.4L29.8,136.1z"/>
		<path fill="#FFFFFF" d="M30.9,145.7c1.2-1.1,2.9-1,4.1,0.4s1.3,3,0,4.2l-3.8,3.5c-1.2,1.1-2.9,1-4.2-0.4c-1.2-1.4-1.2-3.1,0-4.2
			L30.9,145.7z M29.3,150.9c-0.2,0.1-0.2,0.3-0.1,0.5c0.1,0.1,0.3,0.1,0.5,0l3.2-2.9c0.1-0.1,0.2-0.3,0.1-0.5
			c-0.1-0.1-0.3-0.1-0.5,0L29.3,150.9z"/>
		<path fill="#FFFFFF" d="M29.9,156.3c0-0.1,0-0.2,0-0.2l9.7-9.3c0.1-0.1,0.2-0.1,0.3,0l1.8,1.8c0.1,0.1,0.1,0.2,0,0.2l-9.7,9.3
			c-0.1,0-0.2,0-0.2,0L29.9,156.3z"/>
		<path fill="#FFFFFF" d="M37.5,154c-0.1-0.1,0-0.2,0.6-0.8c1-1,2.7-1.1,4,0.2c1.4,1.4,1.3,3.1,0.3,4l-3.5,3.4
			c-0.1,0.1-0.1,0.1,0.2,0.4c0.1,0.1,0,0.1,0,0.2l-0.8,0.8c-0.6,0.6-1.9,0.8-2.6,0.1c-0.6-0.6-0.6-1-0.5-1.5c0-0.2,0-0.2,0-0.2
			c0,0-0.1,0-0.3,0c-0.3,0-0.9,0-1.3-0.5c-0.5-0.5-0.9-1.8,0.4-3l0.9-0.9c1-1,2.2-0.9,3.2-0.5c1.3,0.5,1.5,0.4,2,0
			c0.2-0.2,0.2-0.3,0.1-0.5c-0.2-0.2-0.3-0.1-0.9,0.5c-0.1,0.1-0.2,0.1-0.2,0L37.5,154z M37.9,158c0.1-0.1,0.1-0.1,0-0.2
			c-0.1-0.1-0.4-0.2-0.7,0.1l-0.9,0.9c-0.2,0.2-0.1,0.3,0,0.4c0.1,0.1,0.3,0.1,0.4,0L37.9,158z"/>
		<path fill="#FFFFFF" d="M46,170.4c0,0.1,0,0.1-0.1,0.1c-0.1,0.1-1.4,0.1-2.2-0.6c-0.5-0.5-0.5-1.1-0.4-1.7c0-0.1,0-0.2,0-0.2
			c0,0-0.1-0.1-0.3-0.1c-0.9,0.1-1.6-0.3-2.2-0.8c-1.3-1.2-1.3-3.1,0.3-4.7c1.3-1.4,2.6-1.7,3.7-1.5c0.2,0,0.3,0,0.3,0
			c0,0,0.1-0.1,0.1-0.3c0.1-0.4,0.6-1.6,1.3-2.4c1.4-1.5,3.2-1.2,4.4-0.1c1.3,1.2,1.4,2.9,0.4,3.9c-1,1.1-2.3,1.1-3,1.1
			c-0.1,0-0.3,0.1-0.3,0.1c0,0.1-0.1,0.2-0.1,0.3l-0.4,1.5c0,0.1,0,0.2,0,0.2c0,0,0.2,0,0.2,0l1.7-0.2c0.1,0,0.1,0,0.1,0
			c0,0,0.1,0.1,0.1,0.2l-0.3,1.7c0,0,0,0.1-0.1,0.1c0,0.1-0.1,0.1-0.2,0.1l-1.8,0.2c-0.2,0-0.3,0.1-0.3,0.1c0,0.1-0.1,0.2-0.2,0.3
			L46,170.4z M44.4,163.4C44.5,163.4,44.4,163.3,44.4,163.4c-0.1-0.2-0.4-0.1-0.5,0.1c-0.3,0.3-0.8,1.4-0.4,1.7c0,0,0.3,0.2,0.3,0
			L44.4,163.4z M48.7,161.1c0.1,0.1,0.4,0,0.7-0.3c0.2-0.2,0.2-0.4,0.1-0.5c-0.1-0.1-0.3-0.1-0.5,0.1
			C48.8,160.5,48.7,160.8,48.7,161.1C48.7,161.1,48.7,161.1,48.7,161.1z"/>
		<path fill="#FFFFFF" d="M55.6,162.9c0.1-0.1,0.2-0.1,0.3,0l2.2,2c0.1,0.1,0.1,0.1,0,0.2l-3.2,3.5c0,0.1,0,0.1,0,0.2l0.3,0.2
			c0.1,0.1,0.2,0.1,0.2,0l3.1-3.5c0.1-0.1,0.1-0.1,0.2,0l2.3,2c0.1,0.1,0.1,0.2,0,0.2l-8.8,9.8c-0.1,0.1-0.2,0.1-0.2,0.1l-2.3-2
			c-0.1-0.1,0-0.2,0-0.3l3.1-3.5c0-0.1,0.1-0.1,0-0.2l-0.3-0.3c-0.1-0.1-0.1,0-0.2,0l-3.2,3.5c-0.1,0.1-0.2,0.1-0.2,0l-2.2-2
			c-0.1-0.1-0.1-0.3,0-0.4L55.6,162.9z"/>
		<path fill="#FFFFFF" d="M57.5,172.8c-0.1-0.1,0-0.2,0.5-0.8c0.9-1.1,2.6-1.3,4-0.1c1.5,1.3,1.5,3,0.6,4l-3.2,3.7
			c-0.1,0.1-0.1,0.1,0.2,0.4c0.1,0,0,0.1,0,0.2l-0.7,0.8c-0.6,0.7-1.8,0.9-2.6,0.3c-0.6-0.5-0.7-1-0.6-1.4c0-0.2,0-0.2,0-0.2
			c0,0-0.1,0-0.3,0c-0.3,0.1-0.9,0-1.4-0.4c-0.6-0.5-1-1.7,0.2-3.1l0.9-1c0.9-1.1,2.1-1,3.2-0.7c1.4,0.4,1.5,0.3,2-0.1
			c0.2-0.2,0.2-0.4,0-0.5c-0.2-0.2-0.3-0.1-0.8,0.5c-0.1,0.1-0.1,0.1-0.2,0L57.5,172.8z M58.2,176.8c0-0.1,0.1-0.1,0-0.2
			c-0.1-0.1-0.5-0.2-0.7,0.1l-0.9,1c-0.1,0.2-0.1,0.3,0,0.4s0.3,0.1,0.4,0L58.2,176.8z"/>
		<path fill="#FFFFFF" d="M66.9,176.1c0.1,0-0.1,0.5,0,0.6c0,0,0.1,0,0.2,0c0.3,0,0.7,0.2,1,0.4c0.7,0.6,1.1,1.7-0.8,4l-2.4,2.9
			c-1.8,2.1-3.1,1.9-3.8,1.3c-0.3-0.3-0.5-0.6-0.5-1c0-0.1,0-0.2,0-0.2c0,0-0.1,0-0.1,0.1l-1.9,2.2c-0.1,0.1-0.2,0.1-0.2,0l-1.8-1.5
			c-0.1-0.1-0.1-0.2,0-0.2l8.5-10c0.1-0.1,0.2-0.1,0.2,0L66.9,176.1z M62.2,182c-0.2,0.2-0.2,0.5,0,0.6c0.1,0.1,0.3,0,0.4-0.1
			l2.9-3.4c0.1-0.1,0.2-0.2,0-0.4c-0.1,0-0.1-0.1-0.2-0.1c-0.1,0-0.2,0.1-0.3,0.2L62.2,182z"/>
		<path fill="#FFFFFF" d="M71.8,180.2c0.1,0-0.1,0.5,0,0.6c0,0,0.1,0,0.2,0c0.3,0,0.7,0.2,1,0.4c0.7,0.6,1.1,1.7-0.8,4l-2.4,2.9
			c-1.7,2.1-3.1,1.9-3.8,1.4c-0.3-0.3-0.5-0.6-0.5-0.9c0-0.1,0-0.2,0-0.2c0,0-0.1,0-0.1,0.1l-1.8,2.2c-0.1,0.1-0.2,0.1-0.2,0
			l-1.8-1.5c-0.1-0.1-0.1-0.2,0-0.2l8.4-10.1c0.1-0.1,0.2-0.1,0.2,0L71.8,180.2z M67.2,186.1c-0.2,0.2-0.2,0.5,0,0.6
			c0.1,0.1,0.3,0,0.4-0.1l2.9-3.5c0.1-0.1,0.2-0.2,0-0.4c-0.1,0-0.1-0.1-0.2-0.1c-0.1,0-0.2,0.1-0.3,0.2L67.2,186.1z"/>
		<path fill="#FFFFFF" d="M74.5,182.6c0,0,0.1-0.1,0.1,0l1.9,1.6c0.1,0.1,0.1,0.1,0,0.2l-1.4,2.3c0,0.1-0.1,0.1,0,0.2
			c0,0,0.1,0,0.1-0.1l2.1-1.8c0,0,0.1,0,0.1,0l1.8,1.5c0.1,0,0.1,0.1,0,0.1l-10.3,8.7c-0.1,0-0.1,0.1-0.2,0l-1.8-1.4
			c-0.1-0.1-0.1-0.1,0-0.2l3.5-3c0.1-0.1,0.1-0.1,0.2-0.2L74.5,182.6z"/>
		<path fill="#FFFFFF" d="M82.5,185.7c0.1-0.1,0.2-0.1,0.3,0l2.6,2c1.9,1.4,1.8,3.6,0.9,4.8c-0.7,0.9-1.7,2.2-3.5,1.5l0,0
			c0.6,1,0.5,2.4-0.4,3.5c-0.6,0.7-2.4,3.1-5.4,0.8l-2.6-2c-0.1-0.1-0.1-0.2,0-0.3L82.5,185.7z M78.7,196c0,0.1,0,0.1,0,0.2
			c0.2,0.2,0.6,0.2,0.7-0.1l1.2-1.5c0.2-0.2,0.1-0.5-0.1-0.7c-0.1,0-0.1,0-0.2,0L78.7,196z M82.1,191.6c0,0.1,0,0.1,0,0.2
			c0.2,0.2,0.5,0.2,0.7-0.1l0.9-1.2c0.2-0.3,0-0.6-0.1-0.7c-0.1,0-0.1,0-0.2,0L82.1,191.6z"/>
		<path fill="#FFFFFF" d="M83,202.7c0,0.1-0.1,0.1-0.2,0l-2.1-1.6c-0.1,0-0.1-0.2,0-0.2l6.3-8.3c0.1-0.1,0.2-0.1,0.3-0.1l2,1.5
			c0.1,0.1,0.1,0.2,0,0.3L83,202.7z M89.7,193.4c-0.1,0.1-0.2,0.1-0.3,0l-1.8-1.3c-0.1-0.1-0.1-0.2,0-0.3l1.3-1.8
			c0.1-0.1,0.2-0.1,0.3,0l1.8,1.3c0.1,0,0.1,0.1,0,0.2L89.7,193.4z"/>
		<path fill="#FFFFFF" d="M89.8,194.6c0.1-0.1,0.1-0.1,0.2-0.1l2,1.5c0.1,0.1-0.2,0.6-0.1,0.7c0,0,0.1,0,0.2,0
			c0.4-0.2,0.7,0,1.2,0.3c0,0,0.1,0.1,0,0.2l-1.5,2.1c0,0.1-0.1,0.1-0.2,0c-0.7-0.5-1.3-0.4-2.2,0.8l-3.5,4.7
			c-0.1,0.1-0.2,0.1-0.2,0l-2.1-1.6c-0.1,0-0.1-0.1,0-0.2L89.8,194.6z"/>
		<path fill="#FFFFFF" d="M92.2,199.9c0-0.1,0-0.1,0-0.2c-0.3-0.2-0.3-0.2-0.3-0.3l1.5-2.1c0,0,0.1-0.1,0.1,0
			c0.3,0.2,0.4,0.3,0.4,0.2l0.9-1.3c0-0.1,0.1-0.1,0.2,0l2.1,1.5c0.1,0.1,0.1,0.1,0.1,0.2l-0.9,1.2c-0.1,0.1-0.1,0.2,0,0.2
			c0.5,0.3,0.5,0.4,0.4,0.5l-1.5,2.1c0,0.1-0.1,0.1-0.2,0c-0.5-0.3-0.5-0.4-0.6-0.3l-2.8,3.8c0,0.1,0,0.1,0,0.2
			c0.5,0.4,0.6,0.4,0.5,0.5c-0.6,0.8-1.6,2.3-3.1,1.2c-0.9-0.6-1.1-1.6,0.1-3.4L92.2,199.9z"/>
		<path fill="#FFFFFF" d="M98.8,197.6c0.1-0.1,0.2-0.1,0.3-0.1l2.1,1.5c0.1,0.1,0.1,0.1,0.1,0.2l-1.9,2.7c-0.1,0.1-0.1,0.2,0,0.2
			c0,0,0.1,0,0.2,0c0.4-0.1,0.9,0,1.3,0.3c0.6,0.4,1.2,1.4,0.3,2.5l-5.1,7.2c0,0-0.1,0.1-0.2,0l-2-1.4c-0.1,0-0.1-0.1,0-0.2l4.3-6.1
			c0.2-0.2,0.1-0.4,0-0.5c-0.1-0.1-0.3-0.1-0.4,0.1l-4.3,6.1c0,0.1-0.1,0.1-0.2,0l-2.1-1.5c-0.1,0-0.1-0.2,0-0.2L98.8,197.6z"/>
		<path fill="#FFFFFF" d="M99.4,214.5c-0.1-0.1,0-0.5,0-0.6c0,0-0.1,0-0.2,0c-0.3,0-0.7-0.1-1-0.3c-0.7-0.5-1.2-1.6,0.4-4l2.1-3.1
			c1.5-2.3,2.9-2.2,3.6-1.7c0.3,0.2,0.6,0.5,0.6,0.9c0,0.1,0,0.2,0.1,0.2c0,0,0.1,0,0.1-0.1l1.8-2.6c0.1-0.1,0.2-0.1,0.2-0.1
			l1.9,1.3c0.1,0.1,0.1,0.1,0.1,0.2l-7.6,11.1c-0.1,0.1-0.2,0.1-0.2,0L99.4,214.5z M103.5,208.2c0.2-0.2,0.1-0.5,0-0.6
			c-0.1-0.1-0.3,0-0.4,0.2l-2.5,3.7c-0.1,0.1-0.2,0.3,0,0.4c0.1,0,0.1,0.1,0.2,0c0.1,0,0.2-0.1,0.3-0.2L103.5,208.2z"/>
		<path fill="#FFFFFF" d="M106,210.4c-0.1-0.1-0.1-0.1,0.4-0.9c0.8-1.2,2.4-1.7,4-0.6c1.7,1.1,1.9,2.7,1.1,3.9l-2.7,4.1
			c-0.1,0.1,0,0.2,0.3,0.4c0.1,0,0.1,0.1,0,0.2l-0.6,0.9c-0.5,0.7-1.7,1.2-2.5,0.6c-0.7-0.5-0.8-0.9-0.8-1.4c0-0.2,0-0.2-0.1-0.2
			c0,0-0.1,0-0.3,0c-0.3,0.1-0.9,0.2-1.4-0.2c-0.6-0.4-1.2-1.6-0.2-3.1l0.7-1.1c0.8-1.2,2-1.3,3-1.1c1.4,0.3,1.6,0.1,1.9-0.4
			c0.1-0.2,0.1-0.4,0-0.5c-0.2-0.2-0.3-0.1-0.8,0.6c0,0.1-0.1,0.1-0.2,0L106,210.4z M107.3,214.2c0-0.1,0-0.1,0-0.2
			c-0.1-0.1-0.5-0.1-0.7,0.2l-0.7,1.1c-0.1,0.2,0,0.3,0.1,0.4c0.1,0.1,0.3,0.1,0.4-0.1L107.3,214.2z"/>
		<path fill="#FFFFFF" d="M112.8,210.6c0,0,0.1-0.1,0.1-0.1l2.1,1.3c0.1,0,0.1,0.1,0.1,0.2l-1.1,2.5c0,0.1,0,0.1,0,0.2
			c0,0,0.1,0,0.1-0.1l1.9-2c0,0,0.1-0.1,0.1,0l2,1.3c0.1,0,0.1,0.1,0.1,0.1l-9.2,9.9c-0.1,0.1-0.1,0.1-0.2,0l-1.9-1.2
			c-0.1,0-0.1-0.1,0-0.2l3.1-3.4c0.1-0.1,0.1-0.1,0.1-0.2L112.8,210.6z"/>
		<path fill="#FFFFFF" d="M122.6,213.7c0.1-0.1,0.2-0.1,0.3-0.1l5.5,3.3c0.1,0.1,0.1,0.2,0.1,0.3l-1.7,2.8c-0.1,0.1-0.2,0.1-0.3,0.1
			l-2.6-1.5c-0.1,0-0.1,0-0.2,0l-0.5,0.9c0,0.1,0,0.1,0,0.2l1.2,0.7c0.1,0,0.1,0.1,0,0.2l-1.7,2.8c0,0.1-0.1,0.1-0.2,0.1l-1.3-0.7
			c-0.1,0-0.1,0-0.2,0.1l-0.5,0.9c0,0.1,0,0.1,0,0.2l2.7,1.6c0.1,0.1,0.1,0.2,0.1,0.3l-1.7,2.9c-0.1,0.1-0.2,0.1-0.3,0.1l-5.5-3.3
			c-0.1-0.1-0.1-0.2,0-0.3L122.6,213.7z"/>
		<path fill="#FFFFFF" d="M122.3,229c-0.1,0-0.1-0.1,0-0.2l5.2-9.1c0-0.1,0.1-0.1,0.2,0l2,1.1c0.1,0.1-0.1,0.8-0.1,0.8
			c0,0,0.1,0,0.2,0c0.5-0.2,0.9-0.2,1.5,0.1c0.8,0.4,1.2,1.5,0.6,2.5l-4.4,7.6c0,0-0.1,0.1-0.1,0l-2.2-1.2c-0.1,0-0.1-0.1,0-0.2
			l3.6-6.4c0.1-0.2,0.1-0.4-0.1-0.5s-0.3-0.1-0.4,0.2l-3.6,6.4c0,0.1-0.1,0.1-0.2,0L122.3,229z"/>
		<path fill="#FFFFFF" d="M127.4,232.4c0.1,0,0.1,0.1,0.1,0.2c-0.3,0.5-0.3,0.5-0.2,0.6c0.1,0,0.2,0,0.3-0.2l5.5-10.1
			c0-0.1,0.1-0.1,0.2,0l2.2,1.2c0.1,0,0.1,0.2,0.1,0.2l-5.6,10.1c-0.5,1-1.8,1-3.3,0.2c-2.2-1.2-1.7-2-1.2-2.9c0,0,0.1-0.1,0.1-0.1
			L127.4,232.4z M135.9,223.3c-0.1,0.1-0.2,0.1-0.3,0.1l-1.9-1.1c-0.1,0-0.1-0.2-0.1-0.3l1.1-2c0-0.1,0.2-0.1,0.3-0.1l1.9,1.1
			c0.1,0,0.1,0.1,0.1,0.2L135.9,223.3z"/>
		<path fill="#FFFFFF" d="M134.9,226.8c0.8-1.5,2.4-1.9,4-1c1.6,0.9,2.2,2.4,1.4,4l-2.4,4.5c-0.8,1.5-2.4,1.9-4,1
			c-1.6-0.9-2.2-2.5-1.4-3.9L134.9,226.8z M135.2,232.3c-0.1,0.2-0.1,0.4,0.1,0.5c0.2,0.1,0.3,0,0.4-0.2l2-3.8
			c0.1-0.2,0.1-0.4-0.1-0.5c-0.2-0.1-0.3,0-0.4,0.2L135.2,232.3z"/>
		<path fill="#FFFFFF" d="M141.6,227.4c0,0,0.1-0.1,0.1-0.1l2.2,1.1c0.1,0,0.1,0.1,0.1,0.2l-0.8,2.6c0,0.1,0,0.1,0,0.2
			c0,0,0.1,0,0.1-0.1l1.7-2.2c0,0,0.1-0.1,0.1,0l2.1,1.1c0.1,0,0.1,0.1,0.1,0.1l-8.2,10.8c0,0.1-0.1,0.1-0.2,0.1l-2.1-1
			c-0.1,0-0.1-0.1,0-0.2l2.8-3.7c0.1-0.1,0.1-0.2,0.1-0.2L141.6,227.4z"/>
		<path fill="#FFFFFF" d="M145.8,241c0,0.1-0.2,0.1-0.3,0.1l-2-0.9c-0.1,0-0.1-0.2-0.1-0.3l0.9-2c0-0.1,0.2-0.1,0.2-0.1l2,0.9
			c0.1,0,0.1,0.1,0.1,0.2L145.8,241z M148.6,227.8c0-0.1,0.1-0.1,0.2-0.1l2.7,1.3c0.1,0,0.1,0.1,0.1,0.2l-4.5,8.8
			c0,0.1-0.2,0.2-0.3,0.1l-2-0.9c-0.1,0-0.1-0.2-0.1-0.3L148.6,227.8z"/>
	</g>
</g>
</svg>
