<?xml version="1.0" encoding="utf-8"?>
<!-- Generator: Adobe Illustrator 18.0.0, SVG Export Plug-In . SVG Version: 6.00 Build 0)  -->
<!DOCTYPE svg PUBLIC "-//W3C//DTD SVG 1.1//EN" "http://www.w3.org/Graphics/SVG/1.1/DTD/svg11.dtd">
<svg version="1.1" id="Layer_1" xmlns="http://www.w3.org/2000/svg" xmlns:xlink="http://www.w3.org/1999/xlink" x="0px" y="0px"
	 viewBox="103 0 401 792" enable-background="new 103 0 401 792" xml:space="preserve">
<g>
	<g>
		<path fill="#DCEFFE" d="M127.3,224.6c-3.7-6.4-2.5-13.6-1.4-19.8c2.3-13.4-0.1-27.2,3.5-40.4c7.3-1.3,13.2,3.2,19.6,5.3
			c47.1,15.2,95.3,22.6,144.8,22.1c10.9-0.1,21.9-0.2,32.8,0c28.6-0.1,56.7-4.6,84.8-9.1c19.7-4.3,39.3-9,58.1-16.5
			c4-1.6,8.3-3.3,12.1,0.6c2.8,8.4,3.3,17.1,3.7,25.9c2.1,43.6-5.1,86.1-16,128.1c-3.1,12.1-6,24.3-8.2,36.6
			c-3.5,19.5-0.4,38.6,3.3,57.7c3.5,18.1,8.1,36,12.1,54c16.8,73.8,13.5,147.2-4.5,220.3c-0.9,4.8-2.2,9.4-5.3,13.4
			c-20,19.3-44.1,29.8-71.6,30.6c-20.1,0.6-39.4-5.5-57.7-14.2c-23.1-11-44.1-25.2-62.5-42.7c-30.4-28.8-48.6-63.5-48.8-106.7
			c-0.1-26,2-51.7,5.1-77.5c1.4-11.8,1.4-23.7-0.8-35.5c-1.5-7.7-4.5-14.8-10.3-19.6c-8.2-6.6-10-14.6-8.2-24.2
			c2.1-31-1.1-61.5-6.9-92c-3.9-20.4-6.2-41.2-6.4-62.1c-0.1-6.8-2.5-13.5-1.9-17.8c2.9,21.3,3,45.4,6.8,69.3
			c3.6,22.7,8.7,45.3,9.3,68.4c0.3,11.6-1.4,23.1-1,34.7c0.1,2.3-0.9,4.3-2.5,5.9c-9.3-2.5-10.2-11.1-12.6-18.1
			c-7-20.2-7.5-41.6-10-62.6c-2.3-18.9-2.2-37.9-4.6-56.8c-4.6-35.8-19.7-63.2-52.8-78.2C129.7,210.3,132.1,217.7,127.3,224.6z"/>
		<path fill="#B4DFFE" d="M153.8,737.3c-0.1-1.5-0.4-2.9-1.8-3.7c-3.9-1.4-4.5-4.9-5.4-8.2c-12.3-43.4-20.8-87.3-24.1-132.5
			c-3.6-49.3,3.7-97.1,15-144.7c3.9-16.1,7.2-32.3,10.4-48.6c2.2-17.5,2.3-34.9-1.6-52.2c-3.2-14.3-6.6-28.6-10.2-42.9
			c-2.1-8.5-3.9-17-5-25.7c2.4-9.3-1-18.3-2.2-27.3c-1.3-9-1.2-17.9-1.6-26.9c0-5.9,0.4-11.9,0-17.8c-0.4-6.2,2.8-6.3,6.6-4.1
			c23,13.4,40.7,30.7,46.4,58.3c4.3,20.8,6.1,41.6,7.6,62.7c1.9,26.5,3.5,53.2,11.1,79c1.8,6.3,7.7,10.4,9,17c2.1,2,2.1,4.5,1.6,7
			c-4.2,23.5-8.2,47.1-10.5,70.9c-3.5,34.8-3.2,69.7-0.8,104.6c1.9,27,5.6,53.7,10,80.4c-1.9-14.3-4.8-28.5-6.3-42.9
			c-2.1-20.1-5.1-40.1-5.1-60.3c-0.1-15.3,0-30.6,0-46c0-26.2,4.5-52,8.2-77.8c1.6-11.4,3.6-22.7,5-34.1c0.4-2.8-0.8-6.5,3.6-7.4
			c-0.3,8.1,0.1,14.9,8.1,21.1c9.4,7.2,12.1,19.2,12.6,31.1c0.9,21.6-3.9,42.7-4.8,64.1c-1.1,25-2.9,50,4,75.2
			c11.3,41.1,38.9,68.4,71.8,92c18.1,13,37.7,23.6,59.1,29.2c32.9,8.6,63.8,3.4,91.1-18.2c3.2-2.5,6.6-4.7,9.9-7
			c1.7,1.7,2.3,3.9,1.6,5.9c-3.7,10.4-2.8,22.8-12.1,31c-10,5.3-21.1,5.2-31.8,6.9c-51.5,7.9-103.3,9.2-155.3,7.6
			c-35.3-1.1-70.4-5.3-105.3-11.2C159.2,741.3,156.1,740.2,153.8,737.3z"/>
		<path fill="#016CCF" d="M326.5,194.5c-19.6,0-39.4,1.1-58.9-0.2c-47.5-3.2-94.3-10.1-138.2-29.9c3.9-34.2,17.4-64.3,39.2-90.6
			c20.3-24.5,45.8-42.2,75.8-53.2c3.5-1.3,6.9-3.1,10.8-2.8c8.3,0.6,13,5.2,15.6,15.2c-6.4,6-15.2,6.4-22.7,9.8
			c-6.8,3.1-13.8,5.7-20.1,9.7c-17.7,9.8-33.3,21.9-45.2,38.5c-11.5,14.7-20.1,30.9-25.8,48.6c-3.1,9.9-2.4,10.7,7,14.1
			c14.5,5.2,29.6,7.8,44.6,11.1c35.3,4.5,70.6,8.5,106.3,8.1C328.6,172.9,332.7,181.1,326.5,194.5z"/>
		<path fill="#016CCF" d="M413.1,46.3c9.5,9.8,20.1,18.4,28.8,29.3c21.4,26.8,34.4,56.9,38.4,90.9c-5.3-1.2-9.6,2.1-14.1,3.8
			c-17.3,6.6-35.3,10.5-53.3,14.8c-7-5.3-4.4-11.1-3.5-17.9c1.3-3,5.4-2.3,8.2-2.7c10.2-1.8,18.5-8.3,28.5-10.4
			c6.6-1.4,8.8-4.8,6.8-11.4c-5.9-20-15.3-38.3-28.6-54.1c-15.2-18.1-33.8-32.2-55.3-42.3c-2.6-1.2-5.1-2.6-6.6-5.2
			c-2.8-6.3-9-10.2-11.4-16.7c-1.1-3.1-3.8-7.9,3.7-6.4c16.6,3.8,31.6,11.2,45.8,20.4C404.7,41.1,408.9,43.7,413.1,46.3z"/>
		<path fill="#016CCF" d="M354.7,18c-6.2,1.2-2.1,4.4-1.2,6.8c2.3,6.1,10,8.5,10.6,15.8c-2.5,2.2-5.2,1.7-7.9,0.7
			c-26.6-10.1-54-10.3-81.7-6.2c-1.7-0.1-3.3-0.6-4.4-2c-3.8-6.2-7.8-12.2-15-15c23-8.1,46.9-9.1,70.8-6.5
			C335.6,12.5,345.7,13.2,354.7,18z"/>
		<path fill="#D4E8F9" d="M326.5,194.5c0-20.9,1.8-19-18.5-18.7c-33.4,0.5-66.4-3.9-99.5-7.9c-0.8-0.1-1.5-1-2.3-1.5
			c0.9-4.9,2.9-9.5,4.2-14.3c5.4-20.4,21.7-33.3,42.8-33.4c12.4,0,24.9-0.9,37.3,0.6c8.6,5.3-21.6-6.2-16.6-12.9
			c4.2-5.7,1.2-59.6,8-58.5C291.1,49.4,355.7,194.7,326.5,194.5z"/>
		<path fill="#016CCF" d="M412.9,223.4c0,19.5,0.5,36.7-0.9,54c-2.9,36.7-13.2,72.4-14,109.2c-0.5,24.1,5.1,47.6,8.5,71.3
			c2.1,14.2,5,28.2,6.1,42.5c2.1,26.8,3.6,53.7,1.9,80.6c-1.7,27-3.8,54-8.3,80.8c-1.6,9.2-3.6,18.3-4.5,27.6
			c-0.3,2.4-0.1,5.1-4.3,6.3c-0.1-12,3.4-23.1,4.8-34.4c2.7-21.3,6.1-42.5,7.2-64c0.9-16.9,1.8-33.7,1.5-50.5
			c-0.5-29-4.3-57.7-8.3-86.4c-3.7-26.5-9.4-52.7-8.7-79.8c0.4-16,3.7-31.6,6.2-47.2c5.4-33.6,10.4-67.2,9.2-101.3
			C409.2,229.8,408.7,227.5,412.9,223.4z"/>
		<path fill="#016CCF" d="M213.7,414.2c-2.5,15.2-4.6,30.5-7.4,45.7c-8,43.8-9.3,88.1-7.1,132.3c1.6,31.2,5.2,62.5,12,93.2
			c0.7,3.2,1.5,6.5-1.3,11c-4.2-13-5.1-25.2-7.2-37.1c-8.2-46.6-9-93.7-7.3-140.7c0.8-21.6,5.2-43.1,8-64.6
			c1.5-11.4,3.1-22.7,4.7-34.1c3.8-24.3,3.1-48.5-0.8-72.7c-4.6-28.6-9.6-57.1-10.8-86.1c-0.4-9.6-1.4-19.3-1.3-28.9
			c0-2.2-1.1-5,3.1-7.2c1.5,11.8,1.4,23.2,1.9,34.4c1.5,32.5,7.3,64.3,12.7,96.2C216.2,375.1,214.5,394.6,213.7,414.2z"/>
		<path fill="#0A897A" d="M307.5,290.2c-17.5,0-35,0-52.5,0c-12.7,0-16.3-3.5-16.4-15.9c-0.1-9.1-0.3-18.1-0.1-27.2
			c0.2-9.7,4.1-13.7,13.8-13.7c37.2-0.1,74.4-0.1,111.6,0.1c9.2,0,13,4.1,13.2,13.4c0.2,9.4,0.1,18.7,0,28.1
			c-0.1,11.3-4,15.2-15.2,15.3C343.7,290.3,325.6,290.2,307.5,290.2C307.5,290.2,307.5,290.2,307.5,290.2z"/>
		<path fill="#016CCF" d="M456.1,737.6c-0.2,0.5-0.2,1,0,1.4c-2,7.9-4.5,15.7-5.8,23.6c-1.3,8.3-6.1,10.9-13.7,12.2
			c-52.3,8.8-104.8,13-157.8,11.2c-36.3-1.2-72.2-5.6-108-11.6c-6.5-1.1-10.7-3.4-11.6-10.7c-1.1-8.9-5.9-17.1-5.4-26.5
			c20.7,4.3,41.8,6.8,62.8,9.1c41.6,4.6,83.5,5.4,125.3,3.8C380.2,748.7,418.3,743.8,456.1,737.6z"/>
		<path fill="#D4E8F9" d="M290.7,121.2c-12.5,0-25,0.1-37.5,0.1c-20,0-34.7,11.7-40.2,30.9c-1.4,4.9,0.2,11.7-6.8,14.2
			c-17.5-1-33.6-8.1-50.5-11.7c-3.9-0.8-4.5-4.1-3.6-7.4c6-21.3,14.4-41.4,29.6-58c3.3,6.8,4.3,14.6,12.5,18.7
			c12.4,6.2,33.7,3.7,46-6.6c2.4-2,4.5-4.3,6.7-6.5c5.9-6,11-12.8,8-21.6c-3.2-9.4-9.9-15.7-20.4-17.1c-2.9-0.4-7.3,0.8-7.7-4.4
			c10.6-9.5,24.4-12,37.1-16.8c2-0.7,4-1.3,6.1-1.9c1.3,0,2.5,0,3.8,0.1c3.6,6.2,9.1,11.4,10.3,18.8c-0.2,3.4-2.4,6.1-3.2,9.3
			c-1.7,11.4-0.6,22.8-0.6,34.2c0,4.3,2.7,7.4,4.8,10.8C288.2,110.7,292.3,115,290.7,121.2z"/>
		<path fill="#E1EFFC" d="M226.9,51.7c1.8,2.5,4.4,1.9,6.8,1.9c12.7,0.3,20,8.1,23.9,18.9c3.4,9.2-1.9,16.4-7.9,23.3
			c-11.8,13.4-26.3,18.9-43.9,18c-14.6-0.7-23.9-10-24-24.5c9.7-16.4,25.8-25.9,40.5-36.8C223.5,51.7,225.4,51.9,226.9,51.7z"/>
		<path fill="#E1EFFC" d="M283.4,51.8c-2.8-6.5-9.9-10.8-9.5-18.8c27.9-5.8,55.3-4.4,82.1,5.4c2.6,1,5.1,2.3,8,2
			c1.9,1.3,3.7,2.6,5.6,3.8c11.3,10.1,16.2,24.2,22.1,37.4c6.7,14.9,12.5,30.5,15.1,46.8c0.6,3.5,10.3,35.7,4.2,37.2
			c-26.7,6.8-63.5,9.3-85.9,9.9C320.9,178.8,329.3,126.1,283.4,51.8z"/>
		<path fill="#D5E8F9" d="M401.8,118c-6.7-26.2-18.5-50.4-32.1-73.6c34.6,16,60.6,40.6,76.9,75.3c4.1,8.7,8,17.4,9.8,27
			c0.7,4.1,0.1,7.2-3.8,8.1c-13.9,2.9-24.4,9.7-39,9.8C413.1,155.1,403.5,124.4,401.8,118z"/>
		<path fill="#026D62" d="M307.6,284.7c-18.2,0-36.3-0.2-54.5,0.1c-6.8,0.1-9.2-2.3-9.5-9.2c-0.4-9.8,1.8-19.5-1.7-29.5
			c-1.3-3.8,5.2-8.3,11.2-8.3c7.8,0,15.6,0,23.5,0c27.5,0,55.1,0,82.6,0c10.8,0,12.3,1.6,12.4,12.6c0,7.5-0.5,15.1,0.1,22.5
			c0.7,8.8-2.2,12.3-11.5,12C342.7,284.2,325.2,284.7,307.6,284.7z"/>
		<path fill="#AB5056" d="M356.8,281c-3.3-0.5-7.3,0.8-7.4-4c-0.1-5.1,4.1-3.9,6.8-3.8c2.9,0.1,7.7-1.6,7.4,4.1
			C363.3,282.1,358.9,280.1,356.8,281z"/>
		<path fill="#C54C55" d="M278.1,280.7c-3.4,0.2-6.2,0-6.1-4.1c0.2-5.3,4.3-3.2,6.9-3.3c2.4-0.1,6.1-1.2,6.2,3.3
			C285.1,282.3,280.6,280.2,278.1,280.7z"/>
		<path fill="#CB4858" d="M335.9,280.8c-3,0.1-5.8,0-5.5-4.2c0.3-4.6,3.9-2.9,6.3-3.3c2.9-0.4,6.4,0,6.3,3.5
			C342.9,281,339,280.7,335.9,280.8z"/>
		<path fill="#D34A53" d="M316.6,280.6c-3.2,0.5-5.5-0.4-5.2-4.2c0.3-4.5,3.9-2.9,6.3-3c2.2-0.1,5.3-1,5.3,3
			C323.1,280.8,319.9,280.8,316.6,280.6z"/>
		<path fill="#CE4C52" d="M297.7,273.1c2.7,0.6,6.3-1,6.3,3.7c0,4.3-3.1,3.9-5.9,4c-3,0.1-5.8-0.1-5.7-4.3
			C292.6,272.5,295.8,273.8,297.7,273.1z"/>
		<path fill="#96535A" d="M262.5,273.6c3.8-0.5,4.2,1.9,3.6,4.6c-1,3.8-4.4,2.7-7,2.7c-2.6,0-6,1.1-7.2-2.5c-0.9-2.7-0.4-5,3.4-4.8
			C257.7,276.5,260.1,275.7,262.5,273.6z"/>
		<path fill="#F7425A" d="M262.5,273.6c0.1,3.8-2.8,4.7-5.5,4.5c-2.4-0.2-1.7-2.8-1.8-4.5C257.7,273.6,260.1,273.6,262.5,273.6z"/>
	</g>
	<g>
		<path fill="#FEFEFE" d="M302.7,562.3c-0.5,1.1-0.9,1.8-1.2,2.5c-4.3,12-10.3,23.1-17,34c-3.5,5.8-7.1,11.5-9.9,17.7
			c-3,6.6-4,13.3-2.3,20.4c4,17.3,22.1,27.8,39.3,22.7c17.1-5.1,26.4-23.3,20.4-40.1c-1.8-5.1-4.5-9.8-7.3-14.4
			c-8.2-13.2-16.1-26.6-21.2-41.4C303.4,563.3,303.1,563,302.7,562.3z"/>
		<path fill="#2079BA" d="M302.7,562.3c0.4,0.7,0.7,1,0.8,1.4c5.2,14.8,13.1,28.1,21.2,41.4c2.8,4.6,5.5,9.3,7.3,14.4
			c6,16.8-3.3,35-20.4,40.1c-17.1,5.1-35.2-5.4-39.3-22.7c-1.7-7.1-0.7-13.8,2.3-20.4c2.8-6.2,6.4-11.9,9.9-17.7
			c6.7-10.8,12.7-21.9,17-34C301.8,564,302.2,563.3,302.7,562.3z M302.8,578c-0.5,0.7-0.7,1-0.9,1.4c-4.3,9.3-9.7,18.1-15,26.8
			c-3,4.9-5.9,9.8-7.9,15.2c-3.8,10.3-0.4,21.7,8.4,28.3c9.1,6.9,21.2,7,30.4,0.2c8.9-6.5,12.4-17.9,8.7-28.2
			c-1.2-3.3-2.8-6.4-4.5-9.4c-5.7-10-12.2-19.6-17.2-30C304.3,580.9,303.6,579.7,302.8,578z"/>
		<path fill="#F2F7F9" d="M302.8,578c0.8,1.6,1.4,2.9,2,4.2c5,10.4,11.4,20,17.2,30c1.7,3,3.3,6.1,4.5,9.4
			c3.7,10.3,0.1,21.7-8.7,28.2c-9.2,6.8-21.3,6.7-30.4-0.2c-8.8-6.6-12.1-18-8.4-28.3c2-5.4,4.9-10.3,7.9-15.2
			c5.3-8.8,10.7-17.5,15-26.8C302.1,579,302.4,578.7,302.8,578z M302.8,585.3c-4.5,10.6-10.8,19.9-16.4,29.5c-1.5,2.6-2.8,5.2-3.7,8
			c-2.6,7.9-0.1,16.8,6.2,22.1c7.6,6.5,18.5,6.9,26.4,1.1c8.1-6,10.9-16,6.7-25.4C316.5,608.4,307.8,597.9,302.8,585.3z"/>
		<path fill="#29AADF" d="M302.8,585.3c5,12.7,13.7,23.1,19.2,35.4c4.2,9.4,1.3,19.5-6.7,25.4c-7.9,5.8-18.8,5.4-26.4-1.1
			c-6.3-5.4-8.8-14.3-6.2-22.1c0.9-2.8,2.3-5.5,3.7-8C292,605.1,298.3,595.8,302.8,585.3z M310.5,644.5c-1.2,0-1.9,0-2.7,0
			c-11-0.2-19.2-9.6-17.7-20.5c0.4-3,1.5-5.9,2.7-8.7c2-4.6,4.1-9.3,6-13.9c0.4-0.9,1.2-1.9,0.3-3.3c-4.1,7.1-8.2,13.8-12,20.7
			c-2.3,4.1-3.3,8.6-2.2,13.4C287.5,643.3,300.7,650,310.5,644.5z"/>
		<path fill="#F1F8FA" d="M310.5,644.5c-9.7,5.5-23-1.2-25.5-12.3c-1.1-4.8-0.1-9.3,2.2-13.4c3.8-6.9,7.9-13.7,12-20.7
			c0.8,1.4,0.1,2.4-0.3,3.3c-2,4.7-4,9.3-6,13.9c-1.2,2.8-2.3,5.7-2.7,8.7c-1.5,10.9,6.7,20.3,17.7,20.5
			C308.5,644.5,309.3,644.5,310.5,644.5z"/>
	</g>
	<path fill="#016CCF" d="M323.1,176.1c0,0,36.1-0.3,91.9-10.7l4,18.4c0,0-27.6,7.8-92.4,10.6L323.1,176.1z"/>
	<linearGradient id="SVGID_1_" gradientUnits="userSpaceOnUse" x1="303.9902" y1="177.4726" x2="303.9902" y2="28.5293">
		<stop  offset="0" style="stop-color:#FFFFFF"/>
		<stop  offset="1" style="stop-color:#707070"/>
	</linearGradient>
	<path fill="none" stroke="url(#SVGID_1_)" stroke-width="2.5043" stroke-miterlimit="10" d="M155.6,154.7c0,0-6.9-0.2-2.5-11
		c0,0,28.7-116.7,161.4-113.9c0,0,104.9,3.4,139.7,108.7c0,0,6.4,13-2.7,16.3c0,0-62.1,20.4-128.6,21.3
		C322.9,176.1,228.9,178.6,155.6,154.7z"/>
	<g opacity="0.69">
		<defs>
			<path id="SVGID_2_" opacity="0.69" d="M155.6,156.1c0,0-6.9-0.2-2.5-11c0,0,28.7-116.7,161.4-113.9c0,0,104.9,3.4,139.7,108.7
				c0,0,6.4,13-2.7,16.3c0,0-62.1,20.4-128.6,21.3C322.9,177.5,228.9,180,155.6,156.1z"/>
		</defs>
		<clipPath id="SVGID_3_">
			<use xlink:href="#SVGID_2_"  overflow="visible"/>
		</clipPath>
		<g clip-path="url(#SVGID_3_)">
			<g>
				<path fill="#666666" d="M365.1,96.7c-0.4,2.7-0.6,6.7-1.5,10.7c-1.5,6.6-3,13.1-3.6,19.9c-0.9,10.2-6.6,17.8-16.2,21.9
					c-2.5,1.1-3.2,2.3-2.7,4.8c0.4,2.4,0.7,4.8,1,7.2c1,10.6-6.9,17.5-17.1,14.6c-2.9-0.8-5.5-0.2-8.4-0.1c-8.5,0.3-17,0-25.5-0.6
					c-1.8-0.1-3.4-0.1-5.1,0.4c-11.4,3.4-19.9-3.8-18.2-15.6c0-0.2,0.1-0.3,0.1-0.5c1.1-7.7,1-7.6-5.6-11.4
					c-9.6-5.4-14.1-14.1-14.3-24.8c-0.1-3.5-0.6-6.7-1.6-9.9c-12.2-38.2,15-79,54.8-82.1c25.5-2,51.1,16,60.3,42.6
					C363.8,80.8,364.9,88,365.1,96.7z"/>
				<path fill="#FEFEFE" d="M358,107.9c-2.5,7.2-1.3,14.9-3,22.2c-3.5,7.5-8.5,13.2-17.3,14.2c-1.4,0.2-2.3,1-3,2.2
					c0.7,5.9,1.4,11.9,2.1,17.8c-1,6.2-6.9,8.4-12.2,4.6c-1.3-0.9-2-2.9-4.2-2.1c-4.7,4.7-7.9,5-13,1.3c-1.7-1.2-2.8-1.4-4.7,0.2
					c-4.4,3.6-8.1,3.3-12.4-0.6c-1.5-1.3-2.3-1.6-3.6,0c-1.1,1.5-2.7,2.4-4.5,2.7c-7.1,1.2-10.3-2.3-8.6-10.2
					c0.4-3.6,0.9-7.2,1.3-10.8c0.6-2.5,0.6-4.5-2.9-4.8c-9.3-0.8-14.7-6.6-18.5-14.4c-1.6-7.6-0.7-15.6-3.1-23.1
					c-0.6-3.4-0.5-6.8-0.1-10.1c0.9-7.3,8.1-12.7,16.6-12.9c5.2-0.1,5.2-0.1,6.8-1.4c-8-2.7-16.1-3.7-24.3,0.9
					c-0.2-4.4,1.5-7.8,2.9-11.2c2.3-2,3.5-4.8,5-7.3c14-22.5,49.2-29.3,72-18c12.1,6,21.3,14.5,27.4,26.4c1.4,2.9,2.3,5.9,3,9.9
					c-8.6-3.7-17-4.4-25.1,0.1c1.7,1.2,3.6,0.5,5.4,0.6c13,0.2,19.5,7.2,18.4,20.1C358.3,105.2,358.6,106.6,358,107.9z"/>
				<path fill="#D1D1D1" d="M356.6,73.2c-5.2-5.3-9.1-11.6-15.2-16.1c-21.7-15.9-44.1-17.9-67.7-4.7c-7,3.9-12.5,9.7-17.6,15.8
					c-1.2,1.4-2.1,3.1-4,3.8c7.6-21.9,30.2-37.8,53.2-37.4C327.8,35.2,349.8,51.7,356.6,73.2z"/>
				<path fill="#D1D1D1" d="M273.5,160.1c0.6,8.5,5.8,11,12.8,6.1c1.9-1.4,2.7-1.5,4.5,0.1c3.8,3.4,8.1,3,11.9-0.1
					c1.5-1.2,2.3-1.9,4.2-0.4c5.5,4.1,8,3.9,13.4-0.3c0.7,0.8,0.7,1.5,0.1,2.4c-3.4,6.6-9.3,6.9-15.7,0.2c-2,2.7-4.4,4.8-8,4.9
					c-3.8,0.1-6.2-2-8.2-5.2c-0.5,0.6-0.9,1.1-1.3,1.6c-3.1,3.7-7.1,4.8-11.2,2.6C271.1,169,272.3,164.4,273.5,160.1z"/>
				<path fill="#D0D0D0" d="M273.5,82.4c0.5,0.3,1.5,0.6,1.6,1c0.2,1.3-1,1-1.7,1.1c-3,0.1-6.2-0.3-9,0.4c-7.8,2.1-12,7.5-13.1,15.5
					c-0.3,2.2-0.7,4.3-1,6.5c-5-15.2,0.6-23.2,16.5-23.6C269,83.2,271.5,84.4,273.5,82.4z"/>
				<path fill="#D1D1D1" d="M358,107.9c-0.4-3.2-0.1-6.4-1-9.5c-2.7-8.9-8.4-13.5-17.6-14c-1.7-0.1-3.4,0.2-4.8-1.1
					c3.5,0.1,7.1,0,10.6,0.3c11.6,1.1,16.4,7.5,14.2,19C359.1,104.3,358.4,106.1,358,107.9z"/>
				<path fill="#D1D1D1" d="M253.4,130c2.9,3,5.6,6.2,8.8,8.9c2.3,1.9,5.3,2.8,8.3,3.2c5.5,0.7,5.9,1.5,4.3,7.2c0.2-3-1.9-2.8-4-3
					C261.8,145.2,255.2,138.9,253.4,130z"/>
				<path fill="#D0D0D0" d="M334.7,146.4c0-1.5-1-4,1.4-4c8.9-0.3,14-6,18.9-12.3C353,140,345.9,145.7,334.7,146.4z"/>
				<path fill="#CFCFCF" d="M320.4,167.7c0-0.8-0.1-1.6-0.1-2.4c1.8-2.4,2.4,0.1,3.4,0.8c5,3.8,9.4,3.1,13.1-1.9
					c1.1,3.2,0.1,5.7-2.7,7.4c-3.2,1.9-6.4,1.4-9.5-0.4C323,170.2,322.5,168,320.4,167.7z"/>
				<path fill="#303030" d="M328.4,128.7c-1.2-0.1-3-0.3-4.9-0.5c-11.5-1.3-15.2-7.2-11.5-18.1c3.7-11.1,20.7-19.2,31.8-15.2
					c2.3,0.8,4,2.3,5,4.7C355.5,114.9,345.9,129.1,328.4,128.7z"/>
				<path fill="#313131" d="M300,146c-3.3,0-5.1-3.1-3.5-5.8c1.8-3,4.1-5.7,6.2-8.6c0.8-1.1,1.7-1.7,2.7-0.3
					c2.3,3.1,4.7,6.2,6.7,9.4c1,1.6,0.4,3.3-1.2,4.5c-1.3,1-3.2,1.3-4.1,0c-2.1-3-3.6-2.3-5.4,0.1C301.1,145.8,300.3,145.9,300,146z
					"/>
			</g>
			<g>
				<path fill="#303030" d="M263.7,101.1c0.1,0.1,0.2,0.2,0.3,0.2c1.2,0.8,2.1,1.8,2.9,3c1.1,1.7,1.5,3.6,1.3,5.6
					c-0.1,1.1-0.4,2.2-0.8,3.2c-0.8,1.6-2,2.9-3.5,3.9c-0.3,0.2-0.7,0.4-1.1,0.6c-0.1,0-0.1,0.1-0.2,0.1c0,0.2,0,0.3,0.1,0.4
					c0.4,1.3,1,2.5,1.6,3.7c0.9,1.6,1.9,3,3,4.4c0.4,0.5,0.9,1,1.4,1.5c0.7,0.5,1.4,1,2.2,1.2c0.6,0.1,1.2,0.1,1.9,0.1
					c0.7-0.1,1.3-0.3,1.9-0.5c0.5-0.2,1-0.4,1.4-0.6c1.2-0.5,2.5-0.6,3.8-0.4c0.8,0.1,1.6,0.3,2.4,0.7c0.4,0.2,0.8,0.3,1.3,0.5
					c0.6,0.2,1.2,0.4,1.9,0.5c0.8,0.1,1.6,0,2.3-0.4c0.7-0.3,1.3-0.8,1.9-1.4c0.5-0.5,1-1,1.4-1.6c1.1-1.4,2.1-2.9,2.9-4.5
					c1.2-2.4,2.1-4.9,2.6-7.6c0.3-1.7,0.4-3.4,0.3-5.1c-0.1-2-0.5-3.9-1.5-5.7c-1.1-2.2-2.7-3.8-5-4.9c-1.3-0.6-2.6-0.9-4-1
					c-0.8,0-1.6,0.1-2.3,0.3c-0.7,0.2-1.5,0.5-2.2,0.8c-0.6,0.2-1.1,0.4-1.7,0.6c-0.5,0.1-1.1,0.2-1.6,0c-0.5-0.2-1-0.3-1.5-0.5
					c-0.8-0.3-1.7-0.7-2.5-0.9c-0.7-0.2-1.5-0.4-2.3-0.4c-0.1,0-0.2,0-0.4,0c-1,0-1.9,0.1-2.8,0.4c-2.1,0.6-3.9,1.7-5.3,3.5
					C263.9,100.9,263.8,101,263.7,101.1z"/>
				<path fill="#303030" d="M271.4,86.7c-0.1,0.4-0.1,0.8-0.1,1.1c0.2,2.5,1.1,4.6,2.9,6.3c1,1,2.2,1.7,3.6,2.1
					c0.6,0.2,1.1,0.2,1.7,0.2c0.1,0,0.2,0,0.3-0.1c0-0.1,0-0.2,0-0.2c0.1-1.2-0.1-2.3-0.5-3.4c-1.2-3-3.4-5-6.5-5.9
					c-0.4-0.1-0.8-0.2-1.2-0.2C271.5,86.7,271.5,86.7,271.4,86.7z"/>
			</g>
		</g>
	</g>
	<g>
		<path fill="#00FFDA" d="M275.8,256.5l-0.4,7l-2.8,1.5l0.5-9.1c0.1-0.3,0.3-0.6,0.4-0.9L275.8,256.5z M283.3,264
			c0.6,0.8,1.3,1.7,2,2.5c0.1,0.1,0.1,0.2,0.1,0.2c0,0.1-0.1,0.2-0.3,0.2H280h-4.3h-2.1c-0.2-0.3-0.4-0.5-0.6-0.8
			c-0.1-0.1-0.2-0.2-0.2-0.3v0l2.8-1.7H283.3z M286.6,256.2l-0.6,8.6l-0.5,0.8l-2-2.4l0.4-6.8l1.7-1.4L286.6,256.2z M287.2,244.3
			c-0.1,3-0.3,5.8-0.5,8.8l-1.1,1.1L284,253l0.4-6.4l2.7-2.7C287.1,244,287.2,244.2,287.2,244.3z"/>
		<path fill="#00FFDA" d="M293.4,256.5l-0.4,7l-2.8,1.5l0.5-9.1c0.1-0.3,0.3-0.6,0.4-0.9L293.4,256.5z M300.9,264
			c0.6,0.8,1.3,1.7,2,2.5c0.1,0.1,0.1,0.2,0.1,0.2c0,0.1-0.1,0.2-0.3,0.2h-5.2h-4.3h-2.1c-0.2-0.3-0.4-0.5-0.6-0.8
			c-0.1-0.1-0.2-0.2-0.2-0.3v0l2.8-1.7H300.9z M293.9,246.9l-0.4,5.9l-2.4,1.4l-0.3-0.7l0.5-8.3L293.9,246.9z M304.3,243.5l-2.7,2.7
			h-7.7l-2.4-1.5l2-1.4L304.3,243.5z M304.2,256.2l-0.6,8.6l-0.5,0.8l-2-2.4l0.4-6.8l1.7-1.4L304.2,256.2z M304.8,244.3
			c-0.2,3-0.3,5.8-0.5,8.8l-1.1,1.1l-1.7-1.3l0.4-6.4l2.7-2.7C304.7,244,304.8,244.2,304.8,244.3z"/>
		<path fill="#00FFDA" d="M311,256.5l-0.4,7l-2.8,1.5l0.5-9.1c0.1-0.3,0.3-0.6,0.4-0.9L311,256.5z M318.5,264c0.6,0.8,1.3,1.7,2,2.5
			c0.1,0.1,0.1,0.2,0.1,0.2c0,0.1-0.1,0.2-0.3,0.2h-5.2h-4.3h-2.1c-0.2-0.3-0.4-0.5-0.6-0.8c-0.1-0.1-0.2-0.2-0.2-0.3v0l2.8-1.7
			H318.5z M311.5,246.9l-0.4,5.9l-2.4,1.4l-0.3-0.7l0.5-8.3L311.5,246.9z M318.6,253.2l2,1.5l-1.9,1.3h-7.4c-0.6-0.6-1.4-1-2-1.5
			l2.4-1.3H318.6z M321.8,256.2l-0.6,8.6l-0.5,0.8l-2-2.4l0.4-6.8l1.7-1.4L321.8,256.2z"/>
		<path fill="#00FFDA" d="M336.1,264c0.6,0.8,1.3,1.7,2,2.5c0.1,0.1,0.2,0.2,0.2,0.2c0,0.1-0.1,0.2-0.3,0.2h-5.2h-4.2h-2.2
			c-0.2-0.2-0.4-0.5-0.6-0.8c-0.1-0.1-0.2-0.2-0.2-0.4v-0.1l2.8-1.7H336.1z M329.1,246.9l-0.3,6l-2.4,1.4l-0.3-0.8l0.4-8.3
			L329.1,246.9z M339.5,243.4l-2.7,2.7h-7.6l-2.4-1.5l2-1.3L339.5,243.4z M336.2,253.2l2,1.5l-1.9,1.3h-7.4c-0.7-0.5-1.3-1-2-1.5
			l2.4-1.3H336.2z M339.3,256.2l-0.6,8.7l-0.5,0.8l-2-2.3l0.4-6.8l1.7-1.4L339.3,256.2z"/>
	</g>
	<path fill="#F7425A" d="M128.1,251.5c0,0,117,169,358.2,297c0,0,1.4,55-6.8,97.9c0,0-183.5-96.9-332.3-246.8c0,0,4.8-13,4-43.1
		C151.1,356.5,129.7,296.3,128.1,251.5z"/>
	<g>
		<g>
			<path fill="#FFFFFF" d="M193.9,355.8c0.2,0.2,0.1,0.6-0.1,0.8l-20.4,25.7c-0.3,0.4-0.8,0.5-1.2,0.2l-4.8-5.5
				c-0.2-0.2-0.2-0.5,0-0.7l4.5-5.1c0.1-0.2,0.1-0.4,0-0.6l-1.6-1.8c-0.1-0.1-0.4-0.2-0.6,0l-5.6,3.7c-0.3,0.2-0.6,0.1-0.8-0.1
				l-4.9-5.6c-0.3-0.3-0.2-0.7,0.2-0.9l28.6-16.7c0.2-0.1,0.6-0.1,0.8,0.1L193.9,355.8z M178.5,363.9c0.4-0.5,0.7-0.8,0.6-0.9
				c-0.1-0.1-0.4,0-1,0.4l-3.6,2.4c-0.2,0.1-0.3,0.3-0.2,0.5c0.9,1.1,1,1.2,1.3,0.9L178.5,363.9z"/>
			<path fill="#FFFFFF" d="M175.8,386.1c-0.1-0.1-0.1-0.4,0.1-0.5l24.6-22.8c0.3-0.3,0.5-0.2,0.7,0l4.3,4.7c0.2,0.2,0.2,0.4,0,0.6
				l-24.7,23c-0.1,0.1-0.4,0.1-0.5,0L175.8,386.1z"/>
			<path fill="#FFFFFF" d="M210.5,380.7c-0.2-0.1-0.2-0.4,0-0.5c0.9-0.9,1-1.1,0.8-1.3c-0.3-0.3-0.5-0.4-0.8-0.1l-2,1.9
				c-0.1,0.1-0.1,0.4,0.3,0.7c0.3,0.3,0.6,0.7,0.3,1l-4.5,4.4c-0.3,0.2-0.7,0-1-0.4c-0.4-0.4-0.6-0.4-0.7-0.3L189,399.5
				c-0.2,0.2-0.4,0.2-0.5,0l-4.3-4.4c-0.1-0.1-0.1-0.4,0-0.5l13.8-13.3c0.2-0.2,0.1-0.4-0.2-0.7c-0.3-0.4-0.3-0.5-0.2-0.7l4.5-4.4
				c0.2-0.2,0.5-0.2,0.9,0.2c0.2,0.2,0.4,0.3,0.5,0.2l2-1.9c2-2,5.2-1,8.1,2c4.2,4.3,2.7,6,0.7,7.9c-0.1,0.1-0.3,0.2-0.5,0
				L210.5,380.7z"/>
			<path fill="#FFFFFF" d="M211.3,384.7c0.2-0.2,0.3-0.2,0.4-0.1l4.5,4.5c0.2,0.2-0.6,1.4-0.4,1.6c0.1,0.1,0.2,0.1,0.4,0
				c1.1-0.4,1.8,0.2,2.8,1.2c0.1,0.1,0.1,0.3,0,0.4l-4.6,4.6c-0.1,0.1-0.3,0.2-0.4,0c-1.6-1.6-3.1-1.4-5.7,1.2l-10.3,10.4
				c-0.2,0.2-0.4,0.2-0.6,0l-4.7-4.6c-0.1-0.1-0.1-0.3,0-0.5L211.3,384.7z"/>
			<path fill="#FFFFFF" d="M215.3,401c-0.2-0.2-0.1-0.4,1.4-1.9c2.5-2.6,6.7-3,10,0.3c3.6,3.4,3.4,7.6,1,10.1l-8.4,8.8
				c-0.2,0.3-0.2,0.4,0.6,1c0.1,0.1,0.1,0.3,0,0.5l-1.9,2c-1.5,1.6-4.7,2.1-6.6,0.4c-1.5-1.4-1.6-2.5-1.4-3.7c0.1-0.4,0-0.5,0-0.6
				c0,0-0.2-0.1-0.7,0c-0.8,0.1-2.2,0-3.3-1.1c-1.4-1.3-2.3-4.4,0.8-7.6l2.3-2.4c2.5-2.6,5.5-2.3,8-1.3c3.3,1.3,3.8,1,4.9-0.1
				c0.4-0.5,0.5-0.9,0.2-1.2c-0.5-0.5-0.7-0.3-2.1,1.2c-0.2,0.2-0.4,0.1-0.5,0L215.3,401z M216.5,411c0.1-0.1,0.2-0.3,0.1-0.4
				c-0.2-0.2-1.1-0.5-1.8,0.2l-2.3,2.4c-0.4,0.4-0.3,0.8,0,1.1s0.7,0.3,1.1-0.1L216.5,411z"/>
			<path fill="#FFFFFF" d="M230.8,413.5c0.1-0.1,0.1-0.3,0-0.4c-0.7-0.6-0.8-0.7-0.5-0.9l4.5-4.8c0.1-0.1,0.3-0.1,0.3-0.1
				c0.8,0.7,0.8,0.8,1,0.5l2.7-2.9c0.1-0.1,0.3-0.1,0.4,0l4.8,4.4c0.3,0.3,0.3,0.4,0.1,0.6l-2.6,2.8c-0.2,0.2-0.2,0.4,0,0.5
				c1,1,1.1,1,0.9,1.3l-4.4,4.8c-0.1,0.1-0.3,0.1-0.4,0c-1-1-1.2-1.1-1.4-0.8l-8.1,8.7c-0.1,0.1-0.1,0.4,0,0.4
				c1.2,1.1,1.3,1.2,1.1,1.4c-1.7,1.9-4.8,5.2-8.2,2c-2-1.8-2.3-4.4,1.4-8.4L230.8,413.5z"/>
			<path fill="#FFFFFF" d="M232.6,441.2c-0.1,0.1-0.3,0.2-0.5,0.1l-4.9-4.4c-0.1-0.1-0.1-0.4,0-0.5l17.5-19.4
				c0.2-0.2,0.5-0.3,0.7-0.1l4.7,4.3c0.2,0.2,0.2,0.5,0,0.6L232.6,441.2z M251.4,419.7c-0.2,0.2-0.5,0.2-0.7,0.1l-4.1-3.7
				c-0.2-0.2-0.2-0.5,0-0.7l3.7-4.1c0.2-0.2,0.5-0.2,0.7-0.1l4.1,3.7c0.1,0.1,0.2,0.4,0.1,0.5L251.4,419.7z"/>
			<path fill="#FFFFFF" d="M267,427.8c0.2-0.2,0.6-0.3,0.8-0.1l12.1,10.4c0.2,0.2,0.2,0.5,0,0.7l-5.3,6.1c-0.2,0.2-0.5,0.2-0.7,0
				l-5.7-4.9c-0.1-0.1-0.3-0.1-0.4,0l-1.6,1.9c-0.1,0.1-0.1,0.4,0,0.4l2.7,2.3c0.1,0.1,0.2,0.3,0,0.4l-5.4,6.2
				c-0.1,0.2-0.4,0.2-0.5,0.1l-2.8-2.4c-0.1-0.1-0.3-0.1-0.5,0.1l-1.7,2c-0.1,0.1-0.1,0.3,0,0.4l5.9,5.1c0.2,0.2,0.2,0.5,0.1,0.7
				l-5.5,6.4c-0.2,0.2-0.5,0.2-0.7,0.1l-12.2-10.5c-0.2-0.2-0.2-0.5,0-0.8L267,427.8z"/>
			<path fill="#FFFFFF" d="M272.6,458.5c0.2-0.1,0.3-0.2,0.4-0.4l4.8-12.5c0.1-0.2,0.3-0.2,0.4-0.2l5,4.2c0.1,0.1,0.2,0.3,0,0.5
				l-1.5,3.2c0,0-0.1,0.1,0,0.2l0.2-0.1l2.8-2c0.2-0.1,0.4-0.1,0.5,0l5,4.2c0.1,0.1,0.1,0.4-0.1,0.5l-11.4,7
				c-0.1,0.1-0.2,0.2-0.3,0.2c-0.1,0.1-0.1,0.2-0.2,0.3l-5,12.5c-0.1,0.2-0.4,0.2-0.5,0.1l-5-4.2c-0.1-0.1-0.2-0.3,0-0.5l1.7-3.2
				c0.1-0.1,0.1-0.2,0-0.2l-0.2,0.1l-2.8,2.3c-0.2,0.1-0.4,0.2-0.5,0l-5.2-4.4c-0.1-0.1-0.1-0.2,0.1-0.4L272.6,458.5z"/>
			<path fill="#FFFFFF" d="M297.3,461.4c0.1,0.1-0.2,1.3,0,1.4c0.1,0.1,0.2,0.1,0.6,0.1c0.8,0,1.8,0.4,2.6,1c1.7,1.4,2.8,4.3-1.9,10
				l-5.9,7.3c-4.3,5.3-7.7,4.9-9.4,3.5c-0.8-0.7-1.2-1.5-1.4-2.4c0-0.3,0-0.4-0.1-0.5c0,0-0.2,0-0.3,0.2l-4.5,5.6
				c-0.1,0.2-0.4,0.2-0.6,0.1l-4.6-3.7c-0.2-0.1-0.2-0.4-0.1-0.6l20.8-25.6c0.1-0.2,0.4-0.2,0.6-0.1L297.3,461.4z M286,476.3
				c-0.4,0.5-0.5,1.1-0.1,1.4c0.3,0.3,0.7,0.1,1-0.3l7.1-8.8c0.1-0.2,0.5-0.6,0.1-1c-0.1-0.1-0.4-0.2-0.5-0.2
				c-0.3,0-0.6,0.2-0.8,0.4L286,476.3z"/>
			<path fill="#FFFFFF" d="M306.5,469.2c0.1-0.2,0.3-0.2,0.4-0.1l5,3.9c0.2,0.2-0.4,1.5-0.3,1.6c0.1,0.1,0.2,0,0.4-0.1
				c1-0.6,1.8,0,2.9,0.9c0.1,0.1,0.1,0.3,0,0.4l-4,5.1c-0.1,0.1-0.3,0.2-0.4,0.1c-1.8-1.4-3.3-1-5.5,1.8l-9.1,11.5
				c-0.1,0.2-0.4,0.2-0.6,0.1l-5.2-4.1c-0.1-0.1-0.2-0.3,0-0.5L306.5,469.2z"/>
			<path fill="#FFFFFF" d="M313.1,483.3c3.2-4.2,7.7-3.3,10.6-1.1c4,3.1,4,8,1.3,11.5l-1.7,2.2c-0.1,0.2-0.4,0.2-0.6,0.1l-6-4.6
				c-0.1-0.1-0.3-0.1-0.4,0.1l-4.3,5.6c-0.4,0.6-0.4,1,0,1.2c0.3,0.2,0.7,0.2,1.1-0.3l1.7-2.2c0.1-0.1,0.3-0.2,0.5,0l4.4,3.8
				c0.2,0.2,0.2,0.5,0.1,0.7l-1.8,2.3c-3.5,4.6-7.7,3.5-11,1c-3.8-2.9-3.9-7.3-0.8-11.4L313.1,483.3z M318.2,489.1
				c-0.1,0.1,0,0.3,0.1,0.3c0.8,0.6,0.9,0.7,1.1,0.5c1.8-2.3,1.9-2.6,1.3-3c-0.3-0.2-0.7-0.2-1.1,0.3L318.2,489.1z"/>
			<path fill="#FFFFFF" d="M334,501.6c-0.2-0.1-0.2-0.3,0-0.5c0.8-1.1,1-1.9,0.5-2.3c-0.3-0.2-0.7-0.1-1,0.3
				c-0.6,0.8-0.3,2.7,0.4,5.9c0.8,3.5,0.5,5.7-1.2,8c-2.3,3.1-6.1,5-10.5,1.8c-2.4-1.8-4.7-5.5-0.2-11.6c0.1-0.2,0.3-0.2,0.5-0.1
				l4.1,2.7c0.1,0.1,0.2,0.3,0.1,0.5c-0.9,1.4-1,2.5-0.5,2.9c0.3,0.2,0.7,0.1,1-0.2c0.6-0.9,0.3-3.3-0.5-6.5
				c-0.6-2.3-0.5-5.2,1.5-7.9c2.4-3.2,6.7-3.8,10-1.4c4.4,3.2,3.7,8,1.1,11.5c-0.1,0.2-0.4,0.2-0.6,0.1L334,501.6z"/>
			<path fill="#FFFFFF" d="M348.3,511.9c-0.2-0.1-0.2-0.3-0.1-0.5c0.8-1.1,1-1.9,0.4-2.3c-0.3-0.2-0.7-0.1-1,0.3
				c-0.5,0.8-0.2,2.7,0.5,5.9c0.8,3.5,0.6,5.7-1.1,8c-2.2,3.2-6,5.1-10.5,1.9c-2.5-1.8-4.8-5.5-0.4-11.6c0.1-0.2,0.3-0.3,0.5-0.1
				l4.2,2.6c0.1,0.1,0.2,0.3,0.1,0.5c-0.9,1.4-1,2.5-0.5,2.9c0.3,0.2,0.7,0.1,1-0.3c0.6-0.9,0.2-3.3-0.6-6.5c-0.6-2.3-0.6-5.2,1.4-8
				c2.3-3.3,6.7-3.9,10-1.5c4.4,3.1,3.8,7.9,1.3,11.5c-0.1,0.2-0.4,0.2-0.6,0.1L348.3,511.9z"/>
			<path fill="#FFFFFF" d="M357.1,539.6c-0.3-0.2-0.3-0.5-0.2-0.7l18-27.2c0.2-0.3,0.6-0.4,0.9-0.2l6.7,4.5c6,4,7,10.1,2.5,16.9
				l-4.6,7c-4,6.1-10.4,8.3-16.2,4.4L357.1,539.6z M378.9,525.7c0.2-0.4,0.3-0.8,0.2-1.1c-0.1-0.2-0.3-0.5-0.5-0.6
				c-0.2-0.1-0.3,0-0.4,0.2l-8.3,12.5c-0.2,0.2-0.1,0.3,0,0.4c0.2,0.1,1,0.6,1.7-0.4L378.9,525.7z"/>
			<path fill="#FFFFFF" d="M386.8,535.5c2.8-4.5,7.4-4,10.5-2c4.3,2.7,4.7,7.6,2.3,11.3l-1.5,2.3c-0.1,0.2-0.4,0.2-0.6,0.1l-6.4-4
				c-0.2-0.1-0.3,0-0.4,0.2l-3.8,6c-0.4,0.6-0.3,1,0.1,1.2c0.3,0.2,0.8,0.2,1.1-0.4l1.5-2.3c0.1-0.2,0.3-0.2,0.5-0.1l4.7,3.4
				c0.2,0.2,0.3,0.4,0.1,0.7l-1.5,2.4c-3.1,4.9-7.4,4.2-10.9,2c-4.1-2.6-4.6-6.9-1.8-11.3L386.8,535.5z M392.4,540.9
				c-0.1,0.1,0,0.3,0.1,0.3c0.9,0.6,1,0.6,1.1,0.4c1.5-2.4,1.7-2.7,1.1-3.1c-0.3-0.2-0.7-0.1-1.1,0.4L392.4,540.9z"/>
			<path fill="#FFFFFF" d="M393,562.7c-0.2-0.1-0.2-0.4-0.1-0.5l17.5-28.6c0.2-0.3,0.4-0.4,0.7-0.2l5.4,3.3c0.3,0.2,0.3,0.4,0.2,0.6
				l-17.6,28.8c-0.1,0.2-0.3,0.2-0.5,0.1L393,562.7z"/>
			<path fill="#FFFFFF" d="M408.8,571.8c-0.1,0.2-0.3,0.2-0.5,0.1l-5.7-3.4c-0.2-0.1-0.2-0.4-0.1-0.5l13.3-22.4
				c0.2-0.3,0.4-0.4,0.7-0.2l5.5,3.3c0.2,0.1,0.3,0.4,0.2,0.6L408.8,571.8z M423,547c-0.1,0.2-0.4,0.3-0.6,0.2l-4.7-2.8
				c-0.2-0.1-0.2-0.5-0.1-0.7l2.9-4.8c0.1-0.2,0.4-0.3,0.6-0.2l4.8,2.8c0.2,0.1,0.3,0.3,0.2,0.5L423,547z"/>
			<path fill="#FFFFFF" d="M424.5,550.5c0.1-0.2,0.2-0.3,0.3-0.2l5.1,2.9c0.2,0.1,0.2,0.3,0.2,0.5l-3.1,7.5c-0.1,0.3-0.1,0.4,0,0.4
				c0,0,0.2,0,0.4-0.3l5-6.4c0.2-0.2,0.4-0.2,0.5-0.1l5,2.9c0.2,0.1,0.2,0.3,0,0.5L421.1,579c-0.2,0.2-0.3,0.2-0.5,0.1l-5.4-3.1
				c-0.2-0.1-0.2-0.3-0.2-0.6L424.5,550.5z"/>
			<path fill="#FFFFFF" d="M436.5,565.4c2.5-4.7,7.1-4.5,10.3-2.7c4.5,2.4,5.2,7.3,3.1,11.2l-1.3,2.4c-0.1,0.2-0.4,0.3-0.6,0.2
				l-6.6-3.6c-0.2-0.1-0.3,0-0.4,0.2l-3.4,6.2c-0.3,0.6-0.2,1,0.2,1.2c0.3,0.2,0.8,0.1,1.1-0.5l1.3-2.4c0.1-0.2,0.3-0.3,0.5-0.1
				l5,3.1c0.2,0.2,0.3,0.4,0.2,0.7l-1.4,2.5c-2.8,5.1-7.1,4.7-10.7,2.7c-4.2-2.3-5-6.6-2.6-11.1L436.5,565.4z M442.4,570.4
				c-0.1,0.1,0,0.3,0.1,0.3c0.9,0.5,1,0.6,1.1,0.4c1.4-2.5,1.5-2.8,0.9-3.2c-0.3-0.2-0.7-0.1-1,0.5L442.4,570.4z"/>
			<path fill="#FFFFFF" d="M456.9,568.6c0.1-0.2,0.2-0.3,0.4-0.2l5.7,2.9c0.2,0.1-0.1,1.6,0.1,1.7c0.1,0,0.2,0,0.4-0.2
				c0.9-0.8,1.8-0.3,3,0.3c0.1,0.1,0.2,0.2,0.1,0.4l-3,5.8c-0.1,0.2-0.2,0.2-0.4,0.1c-2-1.1-3.4-0.4-5.1,2.9l-6.7,13
				c-0.1,0.2-0.3,0.3-0.5,0.2l-5.9-3c-0.2-0.1-0.2-0.3-0.1-0.5L456.9,568.6z"/>
			<path fill="#FFFFFF" d="M468.9,574.7c0.1-0.1,0.2-0.3,0.3-0.2l5.6,2.7c0.2,0.1,0.2,0.3,0.2,0.4l-2,6.5c0,0.2-0.1,0.4,0,0.4
				c0,0,0.2-0.1,0.3-0.2l4.1-5.6c0.1-0.1,0.2-0.2,0.3-0.1l5.4,2.6c0.2,0.1,0.2,0.3,0.2,0.3l-20.1,27.3c-0.1,0.1-0.3,0.2-0.5,0.2
				l-5.2-2.5c-0.2-0.1-0.2-0.3-0.1-0.5l6.8-9.3c0.1-0.2,0.2-0.4,0.3-0.6L468.9,574.7z"/>
		</g>
	</g>
	<polygon fill="#A8D3FE" points="433.3,99.6 418.3,114.7 407.5,120.9 394.9,114.7 404.9,131.4 364.9,131.4 384.9,138 379.9,163.1 
		394.1,140.6 411.6,140.1 413.3,123.9 441.7,105.9 	"/>
	<polygon fill="#A8D3FE" points="163.3,119.1 184.2,118.4 196.5,98 193.2,116.1 209.7,114.1 220.4,120.9 236.4,110.7 233.9,118 
		218.4,128.7 207.7,118.3 188.8,120.4 180.4,125 171.7,124 155.7,129.3 	"/>
	<g>
		<path fill="#FEFEFE" d="M403.2,216.6c0,0.5,0,0.9,0,1.4c0,0.3,0,0.6,0,0.9c0,1.1,0.1,2.2,0.1,3.2c0,0.4,0,0.8,0,1.2
			c0,0.1,0,0.3,0,0.4c0.8,23.3,1.6,46.7,2.5,70c0.1,1.5,0.9,2.1,2.4,1.9c5.9-1,11.8-2,17.7-3.1c0.3,0,0.6,0,0.8-0.3
			c0.6,0.1,1.3-0.1,1.9-0.3c0.9-0.1,1.8-0.2,2.7-0.5c0.5,0,1-0.1,1.6-0.3c0.8,0,1.6-0.2,2.4-0.4c1-0.1,2.1-0.2,3.1-0.6
			c0.3,0,0.6,0,0.9-0.1c11.4-2,22.7-3.9,34.1-5.9c1.8-0.3,2.5-1.2,2.5-3c-1.1-31.9-2.2-63.7-3.3-95.6c-0.1-1.8-0.9-2.4-2.6-2.1
			c-11.3,2-22.7,3.9-34,5.9c-0.3,0.1-0.7,0.2-1,0.2c-1.4,0.1-2.8,0.4-4.1,0.7c-0.5,0-1,0.1-1.5,0.3c-0.7,0-1.4,0.1-2.1,0.4
			c-0.4,0-0.8,0.1-1.2,0.2c-1,0.1-2,0.2-2.9,0.5c-2.5,0.4-5.1,0.8-7.6,1.3c-3.6,0.6-7.2,1.3-10.8,1.9c-1.3,0.2-2.2,1.2-2.2,2.4
			c0.2,6.4,0.5,12.7,0.7,19.1C403.2,216.5,403.2,216.6,403.2,216.6z"/>
		<path fill="#FE0000" d="M434.9,189.8c0.3-0.1,0.7-0.2,1-0.2c11.3-2,22.7-3.9,34-5.9c1.8-0.3,2.6,0.3,2.6,2.1
			c1.1,31.9,2.2,63.7,3.3,95.6c0.1,1.8-0.7,2.7-2.5,3c-11.4,2-22.7,4-34.1,5.9c-0.3,0.1-0.6,0.1-0.9,0.1c-0.1-0.4-0.2-0.8-0.2-1.3
			c11.6-2,23.3-4.1,34.9-6.1c1.3-0.2,1.5-0.4,1.4-1.7c-1.1-31.7-2.2-63.3-3.3-95c0-1.4-0.2-1.4-1.5-1.2c-11.6,2-23.3,4-34.9,6.1
			C434.8,190.7,434.8,190.2,434.9,189.8z"/>
		<path fill="#FE0000" d="M426.8,292.2c-0.2,0.2-0.5,0.2-0.8,0.3c-5.9,1-11.8,2.1-17.7,3.1c-1.5,0.3-2.4-0.4-2.4-1.9
			c-0.8-23.3-1.6-46.7-2.5-70c0-0.1,0-0.3,0-0.4c0.4-0.2,0.8-0.5,1.3-0.6c0,0.3,0,0.7,0.1,1c0.8,23,1.6,46,2.4,69
			c0.1,1.6,0.1,1.6,1.7,1.3c6.1-1.1,12.1-2.1,18.2-3.2C427.1,291.4,427,291.8,426.8,292.2z"/>
		<path fill="#FE0000" d="M403.2,216.4c-0.2-6.4-0.5-12.7-0.7-19.1c0-1.2,0.9-2.1,2.2-2.4c3.6-0.6,7.2-1.3,10.8-1.9
			c2.5-0.4,5.1-0.8,7.6-1.3c0.1,0.4,0.1,0.9,0.2,1.3c-6.1,1.1-12.2,2.1-18.3,3.2c-1,0.2-1.2,0.4-1.1,1.4c0.1,1.6,0.1,3.2,0.2,4.8
			c0.1,4.2,0.3,8.5,0.4,12.7C403.8,215.4,403.6,216.1,403.2,216.4z"/>
		<path fill="#FE2727" d="M423.3,193.1c-0.1-0.4-0.1-0.9-0.2-1.3c1-0.3,1.9-0.4,2.9-0.5c0.3,0.5,0.9,0.7,1.5,0.8
			c-0.2-0.4-0.3-0.7-0.4-1c0.7-0.2,1.4-0.3,2.1-0.4c-0.2,0.5-0.4,1-0.6,1.4C426.8,192.5,425,192.8,423.3,193.1z"/>
		<path fill="#FE2727" d="M434.9,189.8c0,0.4-0.1,0.9-0.1,1.3c-1.9,0.3-3.8,0.7-5.7,1c0.1-0.4,0.4-0.4,0.7-0.6c0.4-0.3,0.8-0.5,1-1
			C432.1,190.1,433.5,189.9,434.9,189.8z"/>
		<path fill="#FE2727" d="M438.2,289c0.1,0.4,0.2,0.8,0.2,1.3c-1,0.3-2.1,0.5-3.1,0.6c0-0.5,0-0.9-0.2-1.3
			C436.1,289.3,437.1,289.2,438.2,289z"/>
		<path fill="#FE0000" d="M431.4,291.5c-0.9,0.3-1.8,0.4-2.7,0.5c0-0.4-0.1-0.8,0.1-1.3c1.1-0.2,2.2-0.4,3.2-0.6
			C432,290.6,431.5,291,431.4,291.5z"/>
		<path fill="#FE0000" d="M435.1,289.5c0.2,0.4,0.2,0.8,0.2,1.3c-0.8,0.2-1.6,0.4-2.4,0.4c-0.2-0.4-0.4-0.8-0.6-1.2
			C433.3,289.8,434.2,289.7,435.1,289.5z"/>
		<path fill="#FE0000" d="M403.3,222.1c0-1.1-0.1-2.2-0.1-3.2c0.6-0.1,0.8,0.7,1.3,0.6c0,0.6,0,1.2,0.1,1.9
			C404.2,221.5,403.9,222.1,403.3,222.1z"/>
		<path fill="#FE2727" d="M428.8,290.7c-0.2,0.4-0.2,0.9-0.1,1.3c-0.6,0.2-1.3,0.4-1.9,0.3c0.2-0.4,0.4-0.9,0.3-1.3
			C427.6,290.8,428.2,290.6,428.8,290.7z"/>
		<path fill="#FE2727" d="M403.3,222.1c0.5,0,0.8-0.6,1.3-0.7c0,0.5,0,0.9,0.1,1.4c-0.5,0.1-0.9,0.4-1.3,0.6
			C403.4,222.9,403.4,222.5,403.3,222.1z"/>
		<path fill="#FE2727" d="M404.6,219.5c-0.6,0-0.7-0.7-1.3-0.6c0-0.3,0-0.6,0-0.9c0.6-0.5,0.9,0.1,1.3,0.1
			C404.6,218.6,404.6,219,404.6,219.5z"/>
		<path fill="#FE0000" d="M430.7,190.5c-0.1,0.5-0.6,0.7-1,1c-0.2,0.2-0.6,0.3-0.7,0.6c-0.2,0-0.3,0.1-0.5,0.1
			c0.2-0.5,0.4-1,0.6-1.4C429.7,190.6,430.2,190.5,430.7,190.5z"/>
		<path fill="#FE0000" d="M404.5,218.1c-0.5,0-0.8-0.6-1.3-0.1c0-0.5,0-0.9,0-1.4c0.4,0.4,0.9,0.3,1.3-0.1
			C404.5,217.1,404.5,217.6,404.5,218.1z"/>
		<path fill="#FE2727" d="M404.5,216.6c-0.5,0.4-0.9,0.5-1.3,0.1c0-0.1,0-0.1,0-0.2c0.5-0.4,0.7-1,1.3-1.2
			C404.4,215.6,404.5,216.1,404.5,216.6z"/>
		<path fill="#FE2727" d="M432.4,290c0.2,0.4,0.4,0.8,0.6,1.2c-0.5,0.2-1,0.3-1.6,0.3c0.2-0.5,0.7-0.9,0.6-1.4
			C432.1,290,432.2,290,432.4,290z"/>
		<path fill="#FE0000" d="M427.2,191.1c0.1,0.3,0.2,0.6,0.4,1c-0.7-0.1-1.2-0.3-1.5-0.8C426.4,191.1,426.8,191.1,427.2,191.1z"/>
		<path fill="#FEFEFE" d="M432.4,290c-0.1,0-0.2,0-0.4,0.1c-1.1,0.2-2.2,0.4-3.2,0.6c-0.6,0-1.1,0.2-1.7,0.2
			c-6.1,1.1-12.1,2.1-18.2,3.2c-1.6,0.3-1.6,0.3-1.7-1.3c-0.8-23-1.6-46-2.4-69c0-0.3,0-0.7-0.1-1c0-0.5,0-0.9-0.1-1.4
			c0-0.6,0-1.2-0.1-1.9c0-0.5,0-0.9,0-1.4c0-0.5,0-1-0.1-1.5c0-0.5,0-0.9-0.1-1.4c-0.1-4.2-0.3-8.5-0.4-12.7
			c-0.1-1.6-0.1-3.2-0.2-4.8c0-1,0.1-1.2,1.1-1.4c6.1-1.1,12.2-2.1,18.3-3.2c1.8-0.3,3.5-0.6,5.3-0.9c0.2,0,0.3-0.1,0.5-0.1
			c1.9-0.3,3.8-0.7,5.7-1c11.6-2,23.3-4,34.9-6.1c1.3-0.2,1.5-0.1,1.5,1.2c1.1,31.7,2.2,63.3,3.3,95c0,1.4-0.1,1.5-1.4,1.7
			c-11.6,2-23.3,4.1-34.9,6.1c-1,0.2-2.1,0.4-3.1,0.5C434.2,289.7,433.3,289.8,432.4,290z M451.9,268.6c0-0.9-0.1-1.8-0.1-2.7
			c0.1-0.3-0.1-0.3-0.3-0.3c-0.4,0.1-0.8,0.2-1.2,0.2c-0.3,0-0.6,0.1-0.9,0.1c-0.7,0-0.8,0.3-0.7,0.9c0.1,0.8,0.1,1.6,0.1,2.4
			c0,0.4,0,0.8,0,1.2c0.1,1.5,0.1,2.9,0.2,4.4c0,0.2,0,0.4,0,0.5c0,1.7,0.1,3.4,0.1,5.1c0,0.8-0.3,2.1,0.3,2.4
			c0.5,0.3,1.6-0.2,2.5-0.3c0.4-0.1,0.6-0.2,0.6-0.7c-0.1-3.3-0.3-6.7-0.4-10c0-0.4,0-0.8,0-1.2c0-0.3,0-0.7,0-1
			C451.9,269.4,451.9,269,451.9,268.6z M454.7,265.1c-0.4,0.1-0.8,0.1-1.2,0.2c-0.2,0-0.3,0.2-0.3,0.4c0,1,0.1,1.9,0.1,2.9
			c0,0.3,0,0.7,0,1c0,0.7,0,1.4,0,2.1c0.1,3.4,0.2,6.7,0.4,10.1c0,0.3-0.2,0.7,0.4,0.6c1.9-0.4,3.9-0.7,5.8-1
			c0.4-0.1,0.4-0.2,0.4-0.6c0.1-2.4,0.1-2.4-2.3-2c-0.1,0-0.2,0-0.3,0.1c-0.7,0.3-0.8-0.1-0.8-0.7c-0.1-3.9-0.3-7.7-0.4-11.6
			C456.5,264.7,456.5,264.7,454.7,265.1z M443.4,274.6c0,0.4,0,0.8,0.1,1.2c0.1,0.5-0.5,1.5,0.7,1.3c0,0,0.1,0.2,0.1,0.2
			c0,1,0.1,2,0.1,3.1c0,0.4-0.3,0.7-0.7,0.8c-0.4,0.1-0.7-0.2-0.8-0.5c-0.1-0.3-0.1-0.7-0.2-1c0.1-0.6,0.1-1.2,0-1.7
			c0.1-0.3,0.1-0.6,0-0.8c0.1-0.5,0.1-1.1-0.1-1.6c0-0.7,0-1.4,0-2c0-0.9,0-1.8,0-2.6c0-0.5,0.3-0.8,0.8-0.9
			c0.5-0.1,0.6,0.3,0.7,0.7c0,0.1,0,0.3,0,0.4c0.1,1.7,0.1,1.7,1.8,1.3c1.7-0.2,1.7-0.2,1.5-1.8c0-0.2-0.1-0.3-0.1-0.5
			c-0.1-1.4-0.5-2.5-1.7-3.1c-2.6-1.2-6,0.9-6.2,4c-0.2,3.6-0.1,7.2,0.4,10.6c0.3,2.3,1.7,3.2,3.8,2.7c1-0.2,1.7-0.9,2.3-1.8
			c0.3,0.2,0.3,0.5,0.5,0.8c0.3,0.6,0.8,0.1,1.2,0.1c0.3,0,0.3-0.3,0.3-0.5c-0.1-3-0.2-6-0.3-9c0-0.3-0.1-0.4-0.4-0.4
			c-1.1,0.2-2.2,0.4-3.2,0.6C443.5,274.2,443.3,274.3,443.4,274.6z M456.9,259c0.3-0.1,0.7-0.1,1-0.2c0.8-0.1,1.6-0.3,2.7-0.5
			c-0.5-0.3-0.7-0.5-1-0.7c-4.2-3.7-9.2-5-15.1-4c-0.7,0.1-0.6-0.3-0.6-0.7c-0.2-5.3-0.4-10.6-0.6-16c0-0.7,0.1-0.9,0.8-1.2
			c5.1-2.2,8.8-5.9,10.9-11.2c1.7-4.3,1.9-8.5,1.6-12.8c0-0.6,0.1-1.3-0.2-1.9c-0.6,0.6-1.1,1.2-1.7,1.8c-2.4,2.3-4.9,2.6-7.2,0.8
			c-0.6-0.5-1.3-0.9-2.2-1c-1.4-0.1-2.5,0.6-3.6,1.5c-1.1,1-1.8,1-2.8,0.1c-0.4-0.4-0.8-0.9-1.2-1.2c-1.3-1.2-3.1-1.1-4.6,0.1
			c-0.4,0.3-0.7,0.6-1,0.9c-1,0.8-1.8,0.9-2.7,0.3c-0.4-0.3-0.8-0.5-1.2-0.8c-1.6-1.1-3.3-1-5.1,0c-0.8,0.4-1.5,1.1-2.2,1.7
			c-0.5,0.4-0.6,0.8-0.6,1.4c0.1,1.4,0.2,2.8,0.3,4.2c0.2,2.3,0.1,4.6,0.8,6.8c2.4,7,7.4,10.6,15,10.9c0.4,0,1-0.2,1,0.7
			c0.2,5.3,0.4,10.6,0.6,16c0,0.6-0.1,0.8-0.8,0.9c-2.6,0.4-5.2,1.3-7.7,2.5c-3.8,1.9-7.1,4.7-10,8.1c0.4-0.1,0.6-0.1,0.8-0.1
			c12-2.1,24-4.2,36-6.3C456.4,259.1,456.6,259,456.9,259z M420.1,212.7c0.6-0.7,1-1.1,1.5-1.6c0.4-0.5,0.9-0.9,1.4-1.4
			c1.6-1.4,2.9-1.5,4.5-0.5c0.5,0.3,0.9,0.6,1.4,0.9c1.6,0.8,3.3,0.4,4.8-0.9c0.3-0.3,0.6-0.6,1-1c1-0.9,1.8-1,2.6-0.2
			c0.4,0.4,0.7,0.8,1.1,1.1c1.4,1.3,3.1,1.3,4.9,0.2c0.4-0.3,0.8-0.6,1.2-0.9c1.2-0.9,1.5-0.9,2.4,0.1c2.4,2.5,6.6,2,9.2-0.9
			c0.3-0.3,0.4-0.6,0.3-1c-0.2-4.9-0.4-9.7-0.5-14.6c0-0.6-0.2-0.7-0.8-0.6c-11.6,2-23.2,4.1-34.8,6.1c-0.6,0.1-0.7,0.3-0.7,0.9
			c0.2,3.8,0.3,7.5,0.4,11.3C420,210.4,420.1,211.4,420.1,212.7z M427.2,278c0.8-0.6,1.2-1.3,1.3-2.1c0.2-1.5,0.1-3-0.3-4.4
			c-0.4-1.2-1.2-1.6-2.5-1.4c-1.5,0.3-3.1,0.6-4.6,0.8c-0.6,0.1-0.7,0.3-0.7,0.9c0.1,0.9,0.1,1.8,0.1,2.6c0.2,4.3,0.3,8.6,0.4,12.9
			c0,0.7,0.2,0.8,0.9,0.7c0.6-0.2,1.1-0.3,1.7-0.3c0.7,0,0.9-0.3,0.8-1c-0.1-2.1-0.2-4.2-0.2-6.3c0-0.2-0.2-0.6,0.2-0.7
			c0.3-0.1,0.7-0.1,0.9,0.3c0.1,0.3,0.1,0.6,0.2,0.9c0.1,1.9,0.2,3.9,0.2,5.8c0,0.5,0.1,0.7,0.7,0.5c0.7-0.2,1.4-0.3,2-0.4
			c0.4-0.1,0.6-0.1,0.5-0.6c-0.1-2.1-0.1-4.3-0.2-6.4C428.5,279,428.2,278.3,427.2,278z M437,285.3c0.3-0.1,0.7-0.1,1-0.2
			c0.4,0,0.6-0.1,0.5-0.6c-0.7-5.2-1.4-10.5-2-15.7c-0.1-0.4-0.2-0.6-0.6-0.5c-1.3,0.3-2.6,0.5-3.9,0.7c-1.2,0.2-1.1,0.2-1.2,1.4
			c-0.3,4.9-0.5,9.7-0.8,14.6c-0.1,1.6-0.1,1.6,1.4,1.3c0.4-0.1,0.9-0.2,1.3-0.2c0.4,0,0.5-0.2,0.5-0.6c0-0.6,0-1.1,0-1.7
			c0-0.2,0-0.5,0.2-0.6c0.5-0.1,1.1-0.3,1.6-0.3c0.3,0,0.1,0.6,0.2,1c0,0.1,0,0.1,0,0.2C435.5,285.6,435.5,285.6,437,285.3z
			 M461.3,272.4c0.1,2.7,0.2,5.3,0.3,8c0,0.5,0.1,0.6,0.6,0.5c1.5-0.3,3-0.5,4.5-0.8c1.7-0.3,1.7-0.3,1.6-2
			c-0.1-1.5-0.1-1.5-1.6-1.3c-1.9,0.3-1.9,0.3-1.9-1.6c-0.1-2-0.1-2.1,1.9-2.4c0.9-0.1,1.2-0.4,1.1-1.3c-0.1-0.7,0.2-1.7-0.2-2
			c-0.4-0.4-1.4,0.1-2.1,0.2c-0.8,0.2-1,0-0.9-0.8c0.1-0.8-0.4-1.8,0.1-2.4c0.4-0.5,1.5-0.4,2.3-0.5c0.6-0.1,0.8-0.2,0.7-0.9
			c-0.1-0.6-0.1-1.2-0.1-1.9c0-0.5-0.2-0.7-0.7-0.6c-1.8,0.3-3.5,0.6-5.3,0.9c-0.6,0.1-0.7,0.3-0.7,0.8
			C461.1,267.2,461.2,269.8,461.3,272.4z M412.8,280.9c0.1,2,0.1,4,0.2,6c0,0.8-0.3,2,0.2,2.4c0.5,0.3,1.6-0.2,2.4-0.3
			c0.6-0.1,0.9-0.3,0.8-1c-0.1-2.1-0.1-4.2-0.2-6.2c0-0.5,0.1-0.7,0.6-0.8c0.6-0.1,1.3-0.2,1.9-0.3c0.5-0.1,0.6-0.2,0.5-0.7
			c-0.1-0.7-0.1-1.4-0.1-2c0-0.5-0.1-0.6-0.6-0.5c-0.6,0.2-1.3,0.2-2,0.4c-0.2,0-0.5,0.2-0.5-0.3c0-0.8-0.3-1.7,0-2.4
			c0.2-0.5,1.3-0.3,1.9-0.5c0.2,0,0.3-0.1,0.5-0.1c0.5,0,0.7-0.2,0.7-0.8c-0.1-0.6-0.1-1.3-0.1-2c0-0.5-0.2-0.6-0.7-0.5
			c-1.8,0.3-3.5,0.6-5.3,0.9c-0.6,0.1-0.7,0.3-0.7,0.8C412.6,275.7,412.7,278.3,412.8,280.9z"/>
		<path fill="#FE0000" d="M456.9,259c-0.2,0.1-0.5,0.1-0.7,0.2c-12,2.1-24,4.2-36,6.3c-0.2,0-0.4,0.1-0.8,0.1
			c2.9-3.5,6.1-6.2,10-8.1c2.5-1.2,5-2.1,7.7-2.5c0.7-0.1,0.8-0.3,0.8-0.9c-0.2-5.3-0.4-10.6-0.6-16c0-0.8-0.5-0.6-1-0.7
			c-7.6-0.3-12.6-3.9-15-10.9c-0.7-2.1-0.7-4.5-0.8-6.8c-0.1-1.4-0.1-2.8-0.3-4.2c0-0.6,0.1-1,0.6-1.4c0.7-0.6,1.4-1.3,2.2-1.7
			c1.8-1,3.6-1.1,5.1,0c0.4,0.3,0.8,0.6,1.2,0.8c0.9,0.6,1.8,0.5,2.7-0.3c0.3-0.3,0.7-0.6,1-0.9c1.6-1.3,3.3-1.3,4.6-0.1
			c0.4,0.4,0.8,0.9,1.2,1.2c0.9,0.9,1.7,0.9,2.8-0.1c1.1-0.9,2.2-1.6,3.6-1.5c0.9,0.1,1.6,0.5,2.2,1c2.3,1.8,4.8,1.6,7.2-0.8
			c0.6-0.5,1.1-1.1,1.7-1.8c0.2,0.6,0.1,1.3,0.2,1.9c0.3,4.2,0.2,8.5-1.6,12.8c-2.1,5.3-5.8,9-10.9,11.2c-0.7,0.3-0.8,0.6-0.8,1.2
			c0.2,5.3,0.4,10.6,0.6,16c0,0.4-0.1,0.8,0.6,0.7c5.9-1,11,0.3,15.1,4c0.2,0.2,0.5,0.4,1,0.7c-1.1,0.2-1.9,0.3-2.7,0.5
			c0-0.3,0.1-0.6,0.2-0.8c0.2-0.4,0-0.6-0.3-0.7c-0.4-0.1-0.5,0.2-0.6,0.5C457,258.1,456.9,258.6,456.9,259z M455.8,257.4
			c-0.1-0.1-0.1-0.2-0.1-0.2c-0.1-0.1-0.2-0.1-0.3-0.2c-3.8-2-7.9-2.4-12.4-1.2c-0.7,0.2-0.9,0.1-0.9-0.6c-0.2-6.5-0.4-13-0.7-19.6
			c0-0.6,0.1-0.9,0.7-1.1c9.9-3.3,13.4-12.7,12.7-20.8c-1,0.7-2.1,1.2-3.2,1.5c-2.2,0.6-3.9,0-5.3-1.3c-1.1-1-1.9-0.9-3.2,0.1
			c-0.1,0.1-0.2,0.2-0.3,0.2c-1.8,1.5-3.6,1.6-5.1,0.1c-0.4-0.3-0.7-0.7-1-1c-1-0.9-1.7-0.9-2.8,0.1c-0.6,0.5-1.2,1.1-1.9,1.4
			c-1.8,0.9-3.2,0.2-4.6-0.8c-1.5-1.2-2.9-1-4.6,0.3c-0.3,0.3-0.5,0.5-0.5,1c0,1.9,0,3.9,0,5.8c0.1,8.2,6.3,14.4,14.3,14.2
			c0.7,0,1.7-0.3,2.1,0c0.4,0.4,0.2,1.4,0.3,2.1c0.2,6,0.5,12.1,0.7,18.1c0,0.6-0.1,0.7-0.7,0.8c-5.1,0.4-9.7,2.3-14,5.8
			c-0.2,0.1-0.4,0.2-0.4,0.5C435,261,445.4,259.2,455.8,257.4z"/>
		<path fill="#FE0000" d="M420.1,212.7c0-1.2-0.1-2.2-0.1-3.2c-0.1-3.8-0.3-7.5-0.4-11.3c0-0.6,0.1-0.8,0.7-0.9
			c11.6-2,23.2-4,34.8-6.1c0.6-0.1,0.8,0,0.8,0.6c0.1,4.9,0.3,9.7,0.5,14.6c0,0.4-0.1,0.7-0.3,1c-2.6,3-6.8,3.4-9.2,0.9
			c-0.9-0.9-1.2-1-2.4-0.1c-0.4,0.3-0.8,0.6-1.2,0.9c-1.8,1.1-3.5,1.1-4.9-0.2c-0.4-0.4-0.7-0.8-1.1-1.1c-0.9-0.8-1.7-0.7-2.6,0.2
			c-0.3,0.3-0.6,0.7-1,1c-1.5,1.4-3.2,1.7-4.8,0.9c-0.5-0.2-1-0.6-1.4-0.9c-1.6-1-2.9-0.9-4.5,0.5c-0.5,0.4-0.9,0.9-1.4,1.4
			C421.1,211.5,420.7,212,420.1,212.7z M421.8,208.4c2.4-1.8,4.6-2.3,6.6-0.9c2,1.3,3,1.7,5.3-0.7c1.4-1.5,3.3-1.6,4.7-0.4
			c0.6,0.5,1,1,1.6,1.5c0.8,0.7,1.5,0.6,2.5,0c0.3-0.2,0.6-0.4,0.9-0.6c2.2-1.7,3.3-1.7,5.1,0c1.4,1.4,3.8,1.4,5.6-0.1
			c0.5-0.4,0.7-0.8,0.6-1.4c-0.2-3.7-0.3-7.4-0.4-11.1c0-0.7-0.2-1-1-0.8c-10.3,1.8-20.5,3.6-30.8,5.4c-0.2,0-0.3,0.1-0.5,0.1
			c-0.3,0-0.4,0.2-0.4,0.5C421.6,202.6,421.6,205.4,421.8,208.4z"/>
		<path fill="#FE0000" d="M427.2,278c1,0.3,1.3,1,1.3,1.9c0.1,2.1,0.1,4.3,0.2,6.4c0,0.5-0.2,0.5-0.5,0.6c-0.7,0.1-1.4,0.2-2,0.4
			c-0.5,0.1-0.7,0-0.7-0.5c0-1.9-0.1-3.9-0.2-5.8c0-0.3,0-0.6-0.2-0.9c-0.2-0.3-0.5-0.4-0.9-0.3c-0.4,0.1-0.2,0.4-0.2,0.7
			c0.1,2.1,0.1,4.2,0.2,6.3c0,0.7-0.1,1-0.8,1c-0.6,0-1.1,0.1-1.7,0.3c-0.6,0.2-0.9,0-0.9-0.7c-0.1-4.3-0.3-8.6-0.4-12.9
			c0-0.9,0-1.8-0.1-2.6c-0.1-0.6,0.1-0.8,0.7-0.9c1.5-0.2,3.1-0.5,4.6-0.8c1.3-0.2,2.1,0.3,2.5,1.4c0.4,1.4,0.5,2.9,0.3,4.4
			C428.4,276.7,428.1,277.4,427.2,278z M423.9,275.1c0,0.3,0,0.6,0,0.9c0.1,0.3-0.3,0.8,0.4,0.7c0.5-0.1,0.8-0.3,0.9-0.8
			c0.1-0.7,0.1-1.4,0-2c-0.1-0.6-0.6-0.5-1.1-0.4c-0.5,0.1-0.2,0.5-0.3,0.8C423.9,274.5,423.9,274.8,423.9,275.1z"/>
		<path fill="#FE0000" d="M437,285.3c-1.5,0.3-1.5,0.3-1.7-1.2c0-0.1,0-0.1,0-0.2c-0.1-0.3,0.1-0.9-0.2-1c-0.5-0.1-1.1,0.1-1.6,0.3
			c-0.3,0.1-0.2,0.4-0.2,0.6c0,0.6,0,1.1,0,1.7c0,0.4-0.1,0.5-0.5,0.6c-0.4,0-0.9,0.1-1.3,0.2c-1.5,0.3-1.5,0.3-1.4-1.3
			c0.3-4.9,0.6-9.7,0.8-14.6c0.1-1.2,0-1.2,1.2-1.4c1.3-0.2,2.6-0.4,3.9-0.7c0.4-0.1,0.6,0,0.6,0.5c0.6,5.2,1.3,10.5,2,15.7
			c0.1,0.5-0.1,0.6-0.5,0.6C437.7,285.2,437.4,285.3,437,285.3z M433.8,271.9c0,0-0.1,0-0.1,0c-0.1,2.6-0.2,5.3-0.3,7.9
			c0,0.6,0.3,0.6,0.7,0.5c0.4-0.1,0.8-0.1,0.7-0.7c-0.2-0.9-0.2-1.8-0.3-2.7C434.2,275.3,434,273.6,433.8,271.9z"/>
		<path fill="#FE0000" d="M445.8,272.4c-1.7,0.4-1.7,0.4-1.8-1.3c0-0.1,0-0.3,0-0.4c-0.1-0.4-0.2-0.8-0.7-0.7
			c-0.5,0.1-0.8,0.4-0.8,0.9c0,0.9,0,1.8,0,2.6c0,0.7,0,1.4,0,2c-0.6,0.4-0.9,1-1.4,1.6c-0.1,0.1-0.3,0.3-0.1,0.4
			c0.1,0.1,0.3,0.1,0.5,0c0.4-0.2,0.8-0.3,1.1-0.5c0.1,0.3,0.1,0.5,0,0.8c-0.4-0.1-0.8-0.3-1.2-0.1c-0.2,0.1-0.4,0-0.5,0.2
			c-0.1,0.2,0.1,0.3,0.2,0.4c0.4,0.5,0.9,1,1.5,1.3c0.1,0.3,0.1,0.7,0.2,1c0.1,0.4,0.3,0.6,0.8,0.5c0.4-0.1,0.7-0.4,0.7-0.8
			c0-1,0-2.1-0.1-3.1c0-0.1-0.1-0.3-0.1-0.2c-1.2,0.2-0.6-0.8-0.7-1.3c0.1-0.1,0.2-0.1,0.3-0.2c0.9-0.4,1.6-0.3,2.1,0.3
			c0.4,0.6,0.4,1.5-0.2,2.2c-0.2,0.3-0.4,0.6-0.7,0.9c-0.3,0.3-0.3,0.5,0,0.7c0.3,0.2,0.5,0.2,0.7-0.1c0.3-0.3,0.6-0.6,0.8-1
			c1-1.5,0.8-3.2-0.6-4c-0.8-0.5-1.7-0.1-2.6,0c-0.1-0.3,0.1-0.4,0.3-0.4c1.1-0.2,2.2-0.4,3.2-0.6c0.3-0.1,0.4,0.1,0.4,0.4
			c0.1,3,0.2,6,0.3,9c0,0.2,0.1,0.5-0.3,0.5c-0.4,0-0.9,0.4-1.2-0.1c-0.1-0.3-0.2-0.6-0.5-0.8c-0.6,0.9-1.3,1.5-2.3,1.8
			c-2.2,0.5-3.5-0.4-3.8-2.7c-0.5-3.5-0.6-7-0.4-10.6c0.2-3.1,3.5-5.2,6.2-4c1.2,0.6,1.7,1.7,1.7,3.1
			C446.2,270.6,445.9,271.5,445.8,272.4z"/>
		<path fill="#FE0000" d="M461.3,272.4c-0.1-2.6-0.2-5.2-0.3-7.8c0-0.6,0.1-0.7,0.7-0.8c1.8-0.3,3.5-0.6,5.3-0.9
			c0.5-0.1,0.7,0,0.7,0.6c0,0.6,0,1.3,0.1,1.9c0.1,0.6-0.2,0.8-0.7,0.9c-0.8,0.1-1.9,0-2.3,0.5c-0.5,0.6,0,1.6-0.1,2.4
			c-0.1,0.7,0.2,1,0.9,0.8c0.7-0.2,1.6-0.6,2.1-0.2c0.4,0.4,0.1,1.3,0.2,2c0.2,0.9-0.2,1.2-1.1,1.3c-2,0.3-2,0.3-1.9,2.4
			c0.1,1.9,0.1,1.9,1.9,1.6c1.6-0.3,1.6-0.3,1.6,1.3c0.1,1.7,0.1,1.7-1.6,2c-1.5,0.3-3,0.5-4.5,0.8c-0.5,0.1-0.6,0-0.6-0.5
			C461.5,277.8,461.4,275.1,461.3,272.4z"/>
		<path fill="#FE0000" d="M412.8,280.9c-0.1-2.6-0.2-5.2-0.3-7.8c0-0.6,0.1-0.7,0.7-0.8c1.8-0.3,3.5-0.6,5.3-0.9
			c0.5-0.1,0.7,0,0.7,0.5c0,0.7,0,1.3,0.1,2c0.1,0.5-0.2,0.7-0.7,0.8c-0.2,0-0.3,0-0.5,0.1c-0.7,0.2-1.7,0-1.9,0.5
			c-0.3,0.7-0.1,1.6,0,2.4c0,0.4,0.3,0.3,0.5,0.3c0.7-0.1,1.3-0.2,2-0.4c0.5-0.1,0.6,0.1,0.6,0.5c0,0.7,0,1.4,0.1,2
			c0,0.4-0.1,0.6-0.5,0.7c-0.6,0.1-1.3,0.2-1.9,0.3c-0.5,0.1-0.7,0.3-0.6,0.8c0.1,2.1,0.1,4.2,0.2,6.2c0,0.7-0.2,0.9-0.8,1
			c-0.8,0.1-1.9,0.6-2.4,0.3c-0.5-0.4-0.2-1.6-0.2-2.4C412.9,284.9,412.9,282.9,412.8,280.9z"/>
		<path fill="#FE0000" d="M453.3,268.6c0-1-0.1-1.9-0.1-2.9c1.6,0.5,2.1,1.4,1.7,3.2c-0.1,0.4,0.1,0.6,0.4,0.7
			c0.3,0.1,0.4-0.2,0.5-0.4c0.4-1,0.5-1.8,0-2.7c-0.3-0.5-0.9-0.7-1.1-1.3c1.8-0.4,1.8-0.4,1.9,1.4c0.1,3.9,0.3,7.7,0.4,11.6
			c0,0.6,0.1,1,0.8,0.7c0.1,0,0.2,0,0.3-0.1c2.4-0.4,2.4-0.4,2.3,2c0,0.3-0.1,0.5-0.4,0.6c-1.9,0.3-3.9,0.7-5.8,1
			c-0.6,0.1-0.4-0.3-0.4-0.6c-0.1-3.4-0.2-6.7-0.4-10.1c0-0.7,0-1.4,0-2.1c1-0.4,1.6-1.1,1.4-1.8c0-0.1,0-0.3-0.1-0.4
			c-0.2-0.1-0.3,0.1-0.4,0.2C453.9,268,453.8,268.4,453.3,268.6z"/>
		<path fill="#FE0000" d="M452,272.1c0.1,3.3,0.2,6.7,0.4,10c0,0.5-0.1,0.6-0.6,0.7c-0.8,0.1-1.9,0.6-2.5,0.3
			c-0.6-0.3-0.2-1.6-0.3-2.4c-0.1-1.7-0.1-3.4-0.1-5.1c0.4-0.2,0.4-0.4,0-0.5c-0.1-1.5-0.1-2.9-0.2-4.4c1-0.2,1.3,0.7,2,1
			C451.1,271.8,451.4,272.3,452,272.1z"/>
		<path fill="#FE2727" d="M443.4,274.6c0.9-0.1,1.8-0.4,2.6,0c1.4,0.8,1.7,2.5,0.6,4c-0.2,0.3-0.5,0.7-0.8,1
			c-0.2,0.3-0.4,0.3-0.7,0.1c-0.3-0.2-0.3-0.4,0-0.7c0.2-0.3,0.5-0.6,0.7-0.9c0.5-0.8,0.6-1.7,0.2-2.2c-0.5-0.6-1.2-0.7-2.1-0.3
			c-0.1,0-0.2,0.1-0.3,0.2C443.4,275.4,443.4,275,443.4,274.6z"/>
		<path fill="#FE0000" d="M448.7,269.3c0-0.8,0-1.6-0.1-2.4c-0.1-0.6,0.1-0.9,0.7-0.9c0.3,0,0.6-0.1,0.9-0.1
			c0.1,0.3-0.1,0.6-0.2,0.8c-0.4,1.6,0.3,3.2,1.9,3.2c0,0.3,0,0.7,0,1c-0.4,0.1-0.6-0.3-0.9-0.5
			C450.4,269.8,449.6,269.4,448.7,269.3z"/>
		<path fill="#FE2727" d="M454.7,265.1c0.2,0.6,0.8,0.8,1.1,1.3c0.5,0.9,0.4,1.7,0,2.7c-0.1,0.2-0.2,0.6-0.5,0.4
			c-0.3-0.1-0.5-0.3-0.4-0.7c0.4-1.8-0.1-2.7-1.7-3.2c-0.1-0.2,0-0.4,0.3-0.4C453.9,265.2,454.3,265.1,454.7,265.1z"/>
		<path fill="#FE2727" d="M451.9,269.8c-1.5,0.1-2.3-1.5-1.9-3.2c0.1-0.3,0.3-0.5,0.2-0.8c0.4-0.1,0.8-0.2,1.2-0.2
			c0.2-0.1,0.4,0,0.3,0.3c-0.7,0.4-0.8,1-0.8,1.6c0,0.6,0.2,1.1,0.9,1.1C451.9,269,451.9,269.4,451.9,269.8z"/>
		<path fill="#FE2727" d="M448.7,269.3c0.9,0.1,1.7,0.4,2.4,1c0.2,0.2,0.4,0.5,0.9,0.5c0,0.4,0,0.8,0,1.2c-0.6,0.2-0.9-0.2-1.3-0.5
			c-0.6-0.4-1-1.3-2-1C448.7,270.2,448.7,269.8,448.7,269.3z"/>
		<path fill="#FE2727" d="M445.8,272.4c0.1-0.9,0.3-1.8,1.3-2.3c0,0.2,0.1,0.3,0.1,0.5C447.5,272.2,447.5,272.2,445.8,272.4z"/>
		<path fill="#FE2727" d="M442.7,279.7c-0.6-0.3-1.1-0.8-1.5-1.3c-0.1-0.1-0.3-0.2-0.2-0.4c0.1-0.2,0.3-0.1,0.5-0.2
			c0.4-0.2,0.8,0,1.2,0.1C442.7,278.5,442.8,279.1,442.7,279.7z"/>
		<path fill="#FE2727" d="M442.6,277.1c-0.4,0.2-0.8,0.3-1.1,0.5c-0.2,0.1-0.3,0.1-0.5,0c-0.1-0.2,0-0.3,0.1-0.4
			c0.5-0.5,0.8-1.1,1.4-1.6C442.7,276.1,442.7,276.6,442.6,277.1z"/>
		<path fill="#FE0000" d="M451.9,268.6c-0.7,0-0.8-0.5-0.9-1.1c0-0.6,0.1-1.2,0.8-1.6C451.8,266.8,451.8,267.7,451.9,268.6z"/>
		<path fill="#FE2727" d="M453.3,268.6c0.5-0.1,0.6-0.6,1-0.9c0.1-0.1,0.2-0.3,0.4-0.2c0.1,0,0.1,0.2,0.1,0.4
			c0.1,0.8-0.4,1.4-1.4,1.8C453.3,269.2,453.3,268.9,453.3,268.6z"/>
		<path fill="#FE2727" d="M456.9,259c0-0.4,0.1-0.9,0.3-1.3c0.1-0.3,0.3-0.6,0.6-0.5c0.3,0.1,0.5,0.3,0.3,0.7
			c-0.1,0.3-0.3,0.5-0.2,0.8C457.6,258.9,457.2,258.9,456.9,259z"/>
		<path fill="#FE2727" d="M448.9,275c0.4,0.1,0.4,0.3,0,0.5C448.9,275.3,448.9,275.2,448.9,275z"/>
		<path fill="#FEFEFE" d="M455.8,257.4c-10.4,1.8-20.8,3.6-31.1,5.4c0-0.3,0.3-0.4,0.4-0.5c4.2-3.5,8.9-5.4,14-5.8
			c0.6,0,0.7-0.2,0.7-0.8c-0.2-6-0.5-12.1-0.7-18.1c0-0.7,0.1-1.7-0.3-2.1c-0.4-0.4-1.4,0-2.1,0c-8,0.2-14.2-6-14.3-14.2
			c0-1.9,0-3.9,0-5.8c0-0.4,0.1-0.7,0.5-1c1.7-1.4,3-1.5,4.6-0.3c1.3,1,2.7,1.6,4.6,0.8c0.7-0.3,1.3-0.9,1.9-1.4
			c1.1-1,1.8-1.1,2.8-0.1c0.3,0.3,0.7,0.7,1,1c1.5,1.4,3.3,1.4,5.1-0.1c0.1-0.1,0.2-0.2,0.3-0.2c1.3-1.1,2.1-1.1,3.2-0.1
			c1.5,1.3,3.2,1.9,5.3,1.3c1.1-0.3,2.2-0.8,3.2-1.5c0.7,8.1-2.8,17.5-12.7,20.8c-0.6,0.2-0.7,0.5-0.7,1.1c0.3,6.5,0.5,13,0.7,19.6
			c0,0.7,0.2,0.7,0.9,0.6c4.5-1.2,8.6-0.8,12.4,1.2c0.1,0.1,0.2,0.1,0.3,0.2C455.7,257.2,455.7,257.3,455.8,257.4z"/>
		<path fill="#FEFEFE" d="M421.8,208.4c-0.1-3-0.2-5.8-0.3-8.6c0-0.3,0.1-0.5,0.4-0.5c0.2,0,0.3-0.1,0.5-0.1
			c10.3-1.8,20.6-3.6,30.8-5.4c0.8-0.1,1,0.1,1,0.8c0.1,3.7,0.2,7.4,0.4,11.1c0,0.6-0.2,1-0.6,1.4c-1.7,1.5-4.1,1.5-5.6,0.1
			c-1.8-1.7-2.9-1.8-5.1,0c-0.3,0.2-0.6,0.4-0.9,0.6c-1,0.6-1.7,0.6-2.5,0c-0.6-0.5-1-1-1.6-1.5c-1.4-1.2-3.3-1.1-4.7,0.4
			c-2.3,2.4-3.3,2.1-5.3,0.7C426.3,206.1,424.2,206.6,421.8,208.4z"/>
		<path fill="#FEFEFE" d="M423.9,275.1c0-0.3-0.1-0.6,0-0.8c0-0.3-0.3-0.6,0.3-0.8c0.5-0.1,1-0.2,1.1,0.4c0.1,0.7,0.2,1.3,0,2
			c-0.1,0.5-0.5,0.7-0.9,0.8c-0.6,0.1-0.3-0.5-0.4-0.7C423.9,275.7,423.9,275.4,423.9,275.1z"/>
		<path fill="#FEFEFE" d="M433.8,271.9c0.2,1.7,0.4,3.3,0.6,5c0.1,0.9,0.2,1.8,0.3,2.7c0.1,0.6-0.3,0.6-0.7,0.7
			c-0.4,0.1-0.7,0.2-0.7-0.5c0.1-2.6,0.2-5.3,0.3-7.9C433.7,271.9,433.8,271.9,433.8,271.9z"/>
	</g>
</g>
</svg>
