<?xml version="1.0" encoding="utf-8"?>
<!-- Generator: Adobe Illustrator 18.0.0, SVG Export Plug-In . SVG Version: 6.00 Build 0)  -->
<!DOCTYPE svg PUBLIC "-//W3C//DTD SVG 1.1//EN" "http://www.w3.org/Graphics/SVG/1.1/DTD/svg11.dtd">
<svg version="1.1" id="Layer_1" xmlns="http://www.w3.org/2000/svg" xmlns:xlink="http://www.w3.org/1999/xlink" x="0px" y="0px"
	 viewBox="0 0 194.3 418.1" enable-background="new 0 0 194.3 418.1" xml:space="preserve">
<g>
	<path fill="#DCEFFE" d="M3.1,117.1c-2-3.4-1.3-7.2-0.8-10.5c1.2-7.1-0.1-14.4,1.8-21.4c3.9-0.7,7,1.7,10.4,2.8
		c25,8.1,50.6,12,76.9,11.7c5.8-0.1,11.6-0.1,17.4,0c15.2,0,30.1-2.5,45-4.9c10.5-2.3,20.9-4.8,30.9-8.8c2.1-0.8,4.4-1.8,6.4,0.3
		c1.5,4.5,1.7,9.1,2,13.7c1.1,23.2-2.7,45.7-8.5,68c-1.7,6.4-3.2,12.9-4.4,19.5c-1.9,10.4-0.2,20.5,1.8,30.6
		c1.9,9.6,4.3,19.1,6.4,28.7c8.9,39.2,7.2,78.2-2.4,117c-0.5,2.5-1.2,5-2.8,7.1c-10.6,10.2-23.4,15.8-38,16.3
		c-10.7,0.3-20.9-2.9-30.7-7.6c-12.2-5.8-23.4-13.4-33.2-22.7c-16.1-15.3-25.8-33.8-25.9-56.7c-0.1-13.8,1.1-27.5,2.7-41.2
		c0.8-6.2,0.8-12.6-0.4-18.8c-0.8-4.1-2.4-7.9-5.5-10.4c-4.3-3.5-5.3-7.7-4.4-12.8c1.1-16.5-0.6-32.7-3.7-48.9
		c-2.1-10.8-3.3-21.9-3.4-33c0-3.6-1.3-7.2-1-9.4c1.5,11.3,1.6,24.1,3.6,36.8c1.9,12,4.6,24,4.9,36.3c0.1,6.1-0.7,12.3-0.5,18.4
		c0,1.2-0.5,2.3-1.3,3.1c-4.9-1.3-5.4-5.9-6.7-9.6c-3.7-10.7-4-22.1-5.3-33.2c-1.2-10-1.2-20.1-2.4-30.2c-2.4-19-10.5-33.6-28-41.5
		C4.3,109.5,5.6,113.5,3.1,117.1z"/>
	<path fill="#B4DFFE" d="M17.1,389.4c0-0.8-0.2-1.5-1-2c-2.1-0.7-2.4-2.6-2.9-4.4c-6.5-23-11.1-46.4-12.8-70.4
		c-1.9-26.2,1.9-51.6,8-76.8c2-8.6,3.8-17.2,5.5-25.8c1.2-9.3,1.2-18.5-0.8-27.7c-1.7-7.6-3.5-15.2-5.4-22.8
		c-1.1-4.5-2.1-9-2.7-13.7c1.3-5-0.5-9.7-1.2-14.5c-0.7-4.8-0.6-9.5-0.8-14.3c0-3.2,0.2-6.3,0-9.5c-0.2-3.3,1.5-3.4,3.5-2.2
		c12.2,7.1,21.6,16.3,24.6,31c2.3,11,3.3,22.1,4,33.3c1,14.1,1.9,28.3,5.9,42c1,3.3,4.1,5.5,4.8,9c1.1,1,1.1,2.4,0.9,3.7
		c-2.3,12.5-4.3,25-5.6,37.6c-1.8,18.5-1.7,37-0.4,55.6c1,14.4,3,28.5,5.3,42.7c-1-7.6-2.6-15.1-3.4-22.8c-1.1-10.7-2.7-21.3-2.7-32
		c0-8.1,0-16.3,0-24.4c0-13.9,2.4-27.6,4.3-41.3c0.9-6,1.9-12,2.7-18.1c0.2-1.5-0.4-3.5,1.9-4c-0.1,4.3,0.1,7.9,4.3,11.2
		c5,3.8,6.4,10.2,6.7,16.5c0.5,11.5-2.1,22.7-2.6,34c-0.6,13.3-1.5,26.6,2.1,39.9c6,21.9,20.7,36.3,38.1,48.9
		c9.6,6.9,20,12.5,31.4,15.5c17.5,4.6,33.9,1.8,48.4-9.6c1.7-1.3,3.5-2.5,5.3-3.7c0.9,0.9,1.2,2.1,0.8,3.2c-2,5.5-1.5,12.1-6.4,16.5
		c-5.3,2.8-11.2,2.8-16.9,3.7c-27.3,4.2-54.9,4.9-82.5,4.1c-18.7-0.6-37.4-2.8-55.9-6C20,391.5,18.3,390.9,17.1,389.4z"/>
	<path fill="#016CCF" d="M108.8,101.1c-10.4,0-20.9,0.6-31.3-0.1c-25.2-1.7-50.1-5.4-73.4-15.9C6.2,67,13.4,51,24.9,37
		C35.7,24,49.3,14.6,65.2,8.8c1.8-0.7,3.7-1.6,5.7-1.5c4.4,0.3,6.9,2.8,8.3,8.1c-3.4,3.2-8.1,3.4-12,5.2c-3.6,1.6-7.3,3-10.7,5.2
		c-9.4,5.2-17.7,11.6-24,20.4C26.4,54,21.8,62.6,18.8,72.1c-1.7,5.2-1.3,5.7,3.7,7.5c7.7,2.8,15.7,4.2,23.7,5.9
		c18.7,2.4,37.5,4.5,56.4,4.3C110,89.6,112.2,94,108.8,101.1z"/>
	<path fill="#016CCF" d="M154.9,22.4c5.1,5.2,10.7,9.8,15.3,15.5c11.4,14.2,18.3,30.2,20.4,48.3c-2.8-0.7-5.1,1.1-7.5,2
		c-9.2,3.5-18.8,5.6-28.3,7.9c-3.7-2.8-2.3-5.9-1.8-9.5c0.7-1.6,2.9-1.2,4.3-1.5c5.4-0.9,9.8-4.4,15.2-5.5c3.5-0.7,4.7-2.5,3.6-6.1
		c-3.1-10.6-8.1-20.3-15.2-28.8c-8.1-9.6-17.9-17.1-29.4-22.4c-1.4-0.6-2.7-1.4-3.5-2.8c-1.5-3.3-4.8-5.4-6.1-8.9
		c-0.6-1.6-2-4.2,2-3.4c8.8,2,16.8,6,24.3,10.8C150.4,19.6,152.6,21,154.9,22.4z"/>
	<path fill="#016CCF" d="M123.8,7.3c-3.3,0.6-1.1,2.4-0.6,3.6c1.2,3.2,5.3,4.5,5.6,8.4c-1.3,1.2-2.8,0.9-4.2,0.4
		c-14.1-5.3-28.7-5.5-43.4-3.3c-0.9-0.1-1.7-0.3-2.3-1.1c-2-3.3-4.2-6.5-8-8C83.2,3,95.8,2.5,108.5,3.9C113.7,4.5,119,4.8,123.8,7.3
		z"/>
	<path fill="#D4E8F9" d="M108.8,101.1c0-11.1,1-10.1-9.8-9.9c-17.8,0.3-35.3-2.1-52.8-4.2c-0.4-0.1-0.8-0.5-1.2-0.8
		c0.5-2.6,1.6-5,2.2-7.6c2.9-10.9,11.5-17.7,22.7-17.7c6.6,0,13.2-0.5,19.8,0.3c4.6,2.8-11.5-3.3-8.8-6.9c2.3-3,0.6-31.6,4.2-31.1
		C90,24.1,124.3,101.2,108.8,101.1z"/>
	<path fill="#016CCF" d="M154.7,116.4c0,10.4,0.3,19.5-0.5,28.7c-1.6,19.5-7,38.4-7.4,58c-0.3,12.8,2.7,25.3,4.5,37.9
		c1.1,7.5,2.6,15,3.2,22.5c1.1,14.2,1.9,28.5,1,42.8c-0.9,14.3-2,28.7-4.4,42.9c-0.8,4.9-1.9,9.7-2.4,14.7c-0.1,1.3,0,2.7-2.3,3.3
		c-0.1-6.4,1.8-12.3,2.6-18.3c1.4-11.3,3.2-22.6,3.8-34c0.5-9,1-17.9,0.8-26.8c-0.3-15.4-2.3-30.6-4.4-45.9c-2-14.1-5-28-4.6-42.4
		c0.2-8.5,1.9-16.8,3.3-25.1c2.9-17.8,5.5-35.7,4.9-53.8C152.8,119.8,152.5,118.6,154.7,116.4z"/>
	<path fill="#016CCF" d="M49,217.8c-1.3,8.1-2.5,16.2-3.9,24.3c-4.2,23.3-4.9,46.8-3.8,70.3c0.8,16.6,2.8,33.2,6.4,49.5
		c0.4,1.7,0.8,3.5-0.7,5.8c-2.2-6.9-2.7-13.4-3.8-19.7c-4.4-24.7-4.8-49.8-3.9-74.7c0.4-11.5,2.8-22.9,4.3-34.3
		c0.8-6,1.7-12.1,2.5-18.1c2-12.9,1.7-25.8-0.4-38.6c-2.4-15.2-5.1-30.3-5.7-45.7c-0.2-5.1-0.8-10.2-0.7-15.4c0-1.2-0.6-2.7,1.6-3.8
		c0.8,6.3,0.7,12.3,1,18.3c0.8,17.3,3.9,34.2,6.7,51.1C50.2,197,49.4,207.4,49,217.8z"/>
	<path fill="#0A897A" d="M98.8,151.9c-9.3,0-18.6,0-27.9,0c-6.8,0-8.7-1.9-8.7-8.5c0-4.8-0.1-9.6,0-14.4c0.1-5.2,2.2-7.3,7.4-7.3
		c19.8-0.1,39.5,0,59.3,0.1c4.9,0,6.9,2.2,7,7.1c0.1,5,0.1,10,0,14.9c-0.1,6-2.1,8.1-8.1,8.1C118,152,108.4,151.9,98.8,151.9
		C98.8,151.9,98.8,151.9,98.8,151.9z"/>
	<path fill="#016CCF" d="M177.7,389.6c-0.1,0.3-0.1,0.5,0,0.8c-1.1,4.2-2.4,8.3-3.1,12.6c-0.7,4.4-3.2,5.8-7.3,6.5
		c-27.7,4.7-55.7,6.9-83.8,5.9c-19.3-0.6-38.4-3-57.4-6.1c-3.4-0.6-5.7-1.8-6.2-5.7c-0.6-4.7-3.2-9.1-2.9-14.1
		c11,2.3,22.2,3.6,33.3,4.8c22.1,2.4,44.3,2.8,66.5,2C137.4,395.4,157.6,392.8,177.7,389.6z"/>
	<path fill="#D4E8F9" d="M89.9,62.2c-6.6,0-13.3,0-19.9,0c-10.6,0-18.4,6.2-21.3,16.4c-0.7,2.6,0.1,6.2-3.6,7.5
		c-9.3-0.5-17.8-4.3-26.8-6.2c-2-0.4-2.4-2.2-1.9-3.9C19.5,64.7,24,54,32,45.2c1.8,3.6,2.3,7.8,6.7,9.9c6.6,3.3,17.9,1.9,24.4-3.5
		c1.3-1.1,2.4-2.3,3.6-3.5c3.2-3.2,5.9-6.8,4.2-11.5c-1.7-5-5.3-8.3-10.9-9.1c-1.6-0.2-3.9,0.4-4.1-2.3c5.6-5.1,13-6.4,19.7-8.9
		c1.1-0.4,2.1-0.7,3.2-1c0.7,0,1.3,0,2,0c1.9,3.3,4.8,6,5.5,10c-0.1,1.8-1.3,3.2-1.7,4.9c-0.9,6-0.3,12.1-0.3,18.2
		c0,2.3,1.4,3.9,2.6,5.7C88.5,56.6,90.7,58.9,89.9,62.2z"/>
	<path fill="#E1EFFC" d="M56,25.3c0.9,1.3,2.3,1,3.6,1c6.8,0.2,10.6,4.3,12.7,10c1.8,4.9-1,8.7-4.2,12.4c-6.2,7.1-14,10-23.3,9.6
		c-7.7-0.4-12.7-5.3-12.7-13c5.2-8.7,13.7-13.8,21.5-19.6C54.1,25.2,55.2,25.4,56,25.3z"/>
	<path fill="#E1EFFC" d="M86,25.3c-1.5-3.4-5.2-5.7-5-10c14.8-3.1,29.4-2.3,43.6,2.9c1.4,0.5,2.7,1.2,4.3,1.1c1,0.7,2,1.4,3,2
		c6,5.4,8.6,12.9,11.7,19.8c3.6,7.9,6.6,16.2,8,24.9c0.3,1.9,5.5,19,2.2,19.7c-14.2,3.6-33.7,4.9-45.6,5.3
		C105.9,92.8,110.4,64.8,86,25.3z"/>
	<path fill="#D5E8F9" d="M148.9,60.5c-3.6-13.9-9.8-26.8-17.1-39.1c18.4,8.5,32.2,21.6,40.8,40c2.2,4.6,4.3,9.2,5.2,14.3
		c0.4,2.2,0.1,3.8-2,4.3c-7.4,1.6-13,5.2-20.7,5.2C154.8,80.2,149.7,63.9,148.9,60.5z"/>
	<path fill="#026D62" d="M98.8,149c-9.6,0-19.3-0.1-28.9,0c-3.6,0.1-4.9-1.2-5.1-4.9c-0.2-5.2,0.9-10.4-0.9-15.7
		c-0.7-2,2.8-4.4,5.9-4.4c4.2,0,8.3,0,12.5,0c14.6,0,29.3,0,43.9,0c5.8,0,6.6,0.8,6.6,6.7c0,4-0.2,8,0.1,12c0.4,4.7-1.2,6.5-6.1,6.4
		C117.5,148.8,108.1,149,98.8,149z"/>
	<path fill="#AB5056" d="M124.9,147.1c-1.8-0.3-3.9,0.4-3.9-2.1c-0.1-2.7,2.2-2.1,3.6-2c1.6,0.1,4.1-0.8,3.9,2.2
		C128.4,147.6,126.1,146.6,124.9,147.1z"/>
	<path fill="#C54C55" d="M83.2,146.9c-1.8,0.1-3.3,0-3.2-2.2c0.1-2.8,2.3-1.7,3.7-1.8c1.3-0.1,3.3-0.6,3.3,1.7
		C86.9,147.7,84.5,146.6,83.2,146.9z"/>
	<path fill="#CB4858" d="M113.8,146.9c-1.6,0-3.1,0-2.9-2.2c0.2-2.4,2.1-1.6,3.4-1.7c1.5-0.2,3.4,0,3.4,1.9
		C117.6,147,115.5,146.9,113.8,146.9z"/>
	<path fill="#D34A53" d="M103.6,146.9c-1.7,0.2-2.9-0.2-2.7-2.2c0.2-2.4,2.1-1.5,3.3-1.6c1.2-0.1,2.8-0.5,2.8,1.6
		C107,147,105.3,146.9,103.6,146.9z"/>
	<path fill="#CE4C52" d="M93.5,142.9c1.4,0.3,3.4-0.5,3.4,2c0,2.3-1.7,2.1-3.1,2.1c-1.6,0-3.1-0.1-3-2.3
		C90.8,142.5,92.5,143.2,93.5,142.9z"/>
	<path fill="#96535A" d="M74.9,143.1c2-0.2,2.3,1,1.9,2.5c-0.5,2-2.4,1.4-3.7,1.4c-1.4,0-3.2,0.6-3.8-1.3c-0.5-1.4-0.2-2.7,1.8-2.5
		C72.3,144.6,73.6,144.2,74.9,143.1z"/>
	<path fill="#F7425A" d="M74.9,143.1c0.1,2-1.5,2.5-2.9,2.4c-1.3-0.1-0.9-1.5-0.9-2.4C72.3,143.1,73.6,143.1,74.9,143.1z"/>
</g>
<g>
	<path fill="#FEFEFE" d="M96.2,296.4c-0.3,0.6-0.5,0.9-0.6,1.3c-2.3,6.4-5.5,12.3-9,18c-1.9,3.1-3.8,6.1-5.3,9.4
		c-1.6,3.5-2.1,7.1-1.2,10.8c2.1,9.2,11.8,14.7,20.9,12c9.1-2.7,14-12.4,10.8-21.3c-1-2.7-2.4-5.2-3.9-7.6c-4.3-7-8.5-14.1-11.3-22
		C96.6,297,96.4,296.8,96.2,296.4z"/>
	<path fill="#2079BA" d="M96.2,296.4c0.2,0.4,0.3,0.5,0.4,0.7c2.7,7.8,6.9,14.9,11.3,22c1.5,2.4,2.9,4.9,3.9,7.6
		c3.2,8.9-1.7,18.6-10.8,21.3c-9.1,2.7-18.7-2.9-20.9-12c-0.9-3.8-0.4-7.3,1.2-10.8c1.5-3.3,3.4-6.3,5.3-9.4c3.5-5.7,6.7-11.7,9-18
		C95.7,297.4,95.9,297,96.2,296.4z M96.3,304.8c-0.3,0.4-0.4,0.5-0.5,0.7c-2.3,5-5.1,9.6-8,14.2c-1.6,2.6-3.1,5.2-4.2,8
		c-2,5.5-0.2,11.5,4.4,15c4.9,3.7,11.2,3.7,16.1,0.1c4.7-3.5,6.6-9.5,4.6-15c-0.6-1.7-1.5-3.4-2.4-5c-3-5.3-6.5-10.4-9.1-15.9
		C97,306.3,96.7,305.7,96.3,304.8z"/>
	<path fill="#F2F7F9" d="M96.3,304.8c0.4,0.9,0.8,1.6,1.1,2.2c2.6,5.5,6.1,10.6,9.1,15.9c0.9,1.6,1.8,3.3,2.4,5
		c2,5.5,0.1,11.5-4.6,15c-4.9,3.6-11.3,3.6-16.1-0.1c-4.7-3.5-6.4-9.6-4.4-15c1.1-2.9,2.6-5.5,4.2-8c2.8-4.6,5.7-9.3,8-14.2
		C95.9,305.3,96,305.2,96.3,304.8z M96.2,308.6c-2.4,5.6-5.7,10.5-8.7,15.7c-0.8,1.4-1.5,2.8-2,4.3c-1.4,4.2,0,8.9,3.3,11.8
		c4,3.4,9.8,3.7,14,0.6c4.3-3.2,5.8-8.5,3.6-13.5C103.5,320.9,98.9,315.4,96.2,308.6z"/>
	<path fill="#29AADF" d="M96.2,308.6c2.7,6.7,7.3,12.3,10.2,18.8c2.2,5,0.7,10.3-3.6,13.5c-4.2,3.1-10,2.9-14-0.6
		c-3.3-2.9-4.7-7.6-3.3-11.8c0.5-1.5,1.2-2.9,2-4.3C90.5,319.2,93.9,314.3,96.2,308.6z M100.3,340.1c-0.6,0-1,0-1.4,0
		c-5.8-0.1-10.2-5.1-9.4-10.9c0.2-1.6,0.8-3.1,1.4-4.6c1.1-2.5,2.2-4.9,3.2-7.4c0.2-0.5,0.6-1,0.2-1.8c-2.2,3.8-4.3,7.3-6.4,11
		c-1.2,2.2-1.7,4.6-1.2,7.1C88.1,339.5,95.2,343,100.3,340.1z"/>
	<path fill="#F1F8FA" d="M100.3,340.1c-5.2,2.9-12.2-0.6-13.5-6.6c-0.6-2.6-0.1-4.9,1.2-7.1c2-3.7,4.2-7.3,6.4-11
		c0.4,0.8,0,1.3-0.2,1.8c-1,2.5-2.1,4.9-3.2,7.4c-0.6,1.5-1.2,3-1.4,4.6c-0.8,5.8,3.6,10.8,9.4,10.9
		C99.3,340.1,99.7,340.1,100.3,340.1z"/>
</g>
<path fill="#016CCF" d="M107,91.4c0,0,19.2-0.2,48.8-5.7l2.1,9.8c0,0-14.7,4.2-49.1,5.7L107,91.4z"/>
<linearGradient id="SVGID_1_" gradientUnits="userSpaceOnUse" x1="96.897" y1="92.0645" x2="96.897" y2="12.9613">
	<stop  offset="0" style="stop-color:#FFFFFF"/>
	<stop  offset="1" style="stop-color:#707070"/>
</linearGradient>
<path fill="none" stroke="url(#SVGID_1_)" stroke-width="1.33" stroke-miterlimit="10" d="M18.1,80c0,0-3.6-0.1-1.3-5.8
	c0,0,15.2-62,85.7-60.5c0,0,55.7,1.8,74.2,57.7c0,0,3.4,6.9-1.4,8.7c0,0-33,10.8-68.3,11.3C106.9,91.4,57,92.7,18.1,80z"/>
<g opacity="0.69">
	<defs>
		<path id="SVGID_2_" opacity="0.69" d="M18.1,80.7c0,0-3.6-0.1-1.3-5.8c0,0,15.2-62,85.7-60.5c0,0,55.7,1.8,74.2,57.7
			c0,0,3.4,6.9-1.4,8.7c0,0-33,10.8-68.3,11.3C106.9,92.1,57,93.4,18.1,80.7z"/>
	</defs>
	<clipPath id="SVGID_3_">
		<use xlink:href="#SVGID_2_"  overflow="visible"/>
	</clipPath>
	<g clip-path="url(#SVGID_3_)">
		<g>
			<path fill="#666666" d="M129.3,49.2c-0.2,1.4-0.3,3.6-0.8,5.7c-0.8,3.5-1.6,7-1.9,10.6c-0.5,5.4-3.5,9.5-8.6,11.6
				c-1.3,0.6-1.7,1.2-1.4,2.5c0.2,1.3,0.4,2.6,0.5,3.8c0.5,5.6-3.7,9.3-9.1,7.8c-1.6-0.4-2.9-0.1-4.4,0c-4.5,0.2-9,0-13.5-0.3
				c-1-0.1-1.8-0.1-2.7,0.2c-6.1,1.8-10.6-2-9.6-8.3c0-0.1,0-0.2,0-0.3c0.6-4.1,0.6-4.1-3-6c-5.1-2.9-7.5-7.5-7.6-13.2
				c0-1.8-0.3-3.5-0.9-5.3c-6.5-20.3,8-41.9,29.1-43.6c13.6-1.1,27.1,8.5,32,22.6C128.7,40.7,129.2,44.5,129.3,49.2z"/>
			<path fill="#FEFEFE" d="M125.6,55.1c-1.3,3.8-0.7,7.9-1.6,11.8c-1.9,4-4.5,7-9.2,7.5c-0.8,0.1-1.2,0.5-1.6,1.2
				c0.4,3.2,0.7,6.3,1.1,9.5c-0.5,3.3-3.7,4.5-6.5,2.5c-0.7-0.5-1.1-1.5-2.2-1.1c-2.5,2.5-4.2,2.7-6.9,0.7c-0.9-0.6-1.5-0.7-2.5,0.1
				c-2.4,1.9-4.3,1.8-6.6-0.3c-0.8-0.7-1.2-0.9-1.9,0c-0.6,0.8-1.4,1.3-2.4,1.4c-3.8,0.6-5.5-1.2-4.6-5.4c0.2-1.9,0.5-3.8,0.7-5.8
				c0.3-1.4,0.3-2.4-1.5-2.6c-4.9-0.4-7.8-3.5-9.8-7.7c-0.9-4.1-0.4-8.3-1.7-12.3c-0.3-1.8-0.3-3.6-0.1-5.4c0.5-3.9,4.3-6.8,8.8-6.8
				c2.8,0,2.8,0,3.6-0.8c-4.3-1.4-8.5-1.9-12.9,0.5c-0.1-2.3,0.8-4.1,1.6-6c1.2-1.1,1.9-2.6,2.7-3.9c7.4-11.9,26.1-15.5,38.2-9.6
				c6.4,3.2,11.3,7.7,14.5,14c0.7,1.5,1.2,3.2,1.6,5.3c-4.6-1.9-9-2.4-13.3,0.1c0.9,0.6,1.9,0.3,2.9,0.3c6.9,0.1,10.3,3.8,9.8,10.7
				C125.7,53.7,125.9,54.4,125.6,55.1z"/>
			<path fill="#D1D1D1" d="M124.9,36.7c-2.7-2.8-4.8-6.1-8.1-8.5c-11.5-8.4-23.4-9.5-35.9-2.5c-3.7,2.1-6.6,5.1-9.3,8.4
				c-0.6,0.8-1.1,1.6-2.1,2c4.1-11.7,16-20.1,28.2-19.8C109.5,16.5,121.3,25.3,124.9,36.7z"/>
			<path fill="#D1D1D1" d="M80.7,82.8c0.3,4.5,3.1,5.9,6.8,3.2c1-0.7,1.4-0.8,2.4,0.1c2,1.8,4.3,1.6,6.3-0.1c0.8-0.6,1.2-1,2.2-0.2
				c2.9,2.2,4.2,2.1,7.1-0.2c0.4,0.4,0.4,0.8,0.1,1.3c-1.8,3.5-4.9,3.7-8.3,0.1c-1,1.4-2.3,2.6-4.2,2.6c-2,0-3.3-1-4.4-2.7
				c-0.3,0.3-0.5,0.6-0.7,0.8c-1.6,2-3.8,2.6-6,1.4C79.4,87.6,80.1,85.1,80.7,82.8z"/>
			<path fill="#D0D0D0" d="M80.7,41.6c0.3,0.2,0.8,0.3,0.8,0.5c0.1,0.7-0.5,0.5-0.9,0.6c-1.6,0.1-3.3-0.2-4.8,0.2
				c-4.1,1.1-6.4,4-6.9,8.2c-0.1,1.1-0.4,2.3-0.5,3.4c-2.7-8.1,0.3-12.3,8.8-12.5C78.3,42,79.6,42.6,80.7,41.6z"/>
			<path fill="#D1D1D1" d="M125.6,55.1c-0.2-1.7,0-3.4-0.5-5.1c-1.4-4.7-4.4-7.1-9.3-7.4c-0.9,0-1.8,0.1-2.5-0.6
				c1.9,0,3.8,0,5.6,0.2c6.2,0.6,8.7,4,7.6,10.1C126.1,53.2,125.8,54.2,125.6,55.1z"/>
			<path fill="#D1D1D1" d="M70.1,66.8c1.5,1.6,3,3.3,4.6,4.7c1.2,1,2.8,1.5,4.4,1.7c2.9,0.4,3.2,0.8,2.3,3.8c0.1-1.6-1-1.5-2.1-1.6
				C74.5,74.9,71,71.6,70.1,66.8z"/>
			<path fill="#D0D0D0" d="M113.2,75.6c0-0.8-0.6-2.1,0.8-2.1c4.7-0.2,7.4-3.2,10-6.5C122.9,72.2,119.2,75.2,113.2,75.6z"/>
			<path fill="#CFCFCF" d="M105.6,86.9c0-0.4,0-0.8-0.1-1.3c0.9-1.3,1.3,0.1,1.8,0.4c2.6,2,5,1.7,6.9-1c0.6,1.7,0,3-1.4,3.9
				c-1.7,1-3.4,0.8-5.1-0.2C107,88.2,106.7,87,105.6,86.9z"/>
			<path fill="#303030" d="M109.8,66.1c-0.6-0.1-1.6-0.2-2.6-0.3c-6.1-0.7-8.1-3.8-6.1-9.6c2-5.9,11-10.2,16.9-8.1
				c1.2,0.4,2.1,1.2,2.7,2.5C124.2,58.8,119.2,66.4,109.8,66.1z"/>
			<path fill="#313131" d="M94.8,75.3c-1.7,0-2.7-1.6-1.8-3.1c1-1.6,2.2-3,3.3-4.5c0.4-0.6,0.9-0.9,1.5-0.2c1.2,1.7,2.5,3.3,3.6,5
				c0.5,0.8,0.2,1.8-0.6,2.4c-0.7,0.5-1.7,0.7-2.2,0c-1.1-1.6-1.9-1.2-2.9,0.1C95.4,75.2,94.9,75.3,94.8,75.3z"/>
		</g>
		<g>
			<path fill="#303030" d="M75.5,51.5c0.1,0,0.1,0.1,0.2,0.1c0.6,0.4,1.1,1,1.5,1.6c0.6,0.9,0.8,1.9,0.7,3c0,0.6-0.2,1.2-0.4,1.7
				c-0.4,0.9-1,1.5-1.8,2.1c-0.2,0.1-0.4,0.2-0.6,0.3c0,0-0.1,0-0.1,0.1c0,0.1,0,0.2,0,0.2c0.2,0.7,0.5,1.3,0.9,1.9
				c0.5,0.8,1,1.6,1.6,2.3c0.2,0.3,0.5,0.5,0.8,0.8c0.4,0.3,0.7,0.5,1.2,0.6c0.3,0.1,0.7,0.1,1,0c0.3,0,0.7-0.1,1-0.3
				c0.3-0.1,0.5-0.2,0.8-0.3c0.6-0.3,1.3-0.3,2-0.2c0.4,0,0.9,0.2,1.3,0.3c0.2,0.1,0.4,0.2,0.7,0.3c0.3,0.1,0.7,0.2,1,0.3
				c0.4,0,0.9,0,1.2-0.2c0.4-0.2,0.7-0.4,1-0.7c0.3-0.3,0.5-0.5,0.7-0.8c0.6-0.7,1.1-1.5,1.5-2.4c0.7-1.3,1.1-2.6,1.4-4
				c0.2-0.9,0.2-1.8,0.2-2.7c-0.1-1.1-0.3-2.1-0.8-3c-0.6-1.2-1.5-2-2.6-2.6c-0.7-0.3-1.4-0.5-2.1-0.5c-0.4,0-0.8,0.1-1.2,0.2
				c-0.4,0.1-0.8,0.3-1.2,0.4c-0.3,0.1-0.6,0.2-0.9,0.3c-0.3,0.1-0.6,0.1-0.9,0c-0.3-0.1-0.5-0.2-0.8-0.3c-0.4-0.2-0.9-0.4-1.4-0.5
				c-0.4-0.1-0.8-0.2-1.2-0.2c-0.1,0-0.1,0-0.2,0c-0.5,0-1,0.1-1.5,0.2c-1.1,0.3-2.1,0.9-2.8,1.9C75.6,51.4,75.5,51.5,75.5,51.5z"/>
			<path fill="#303030" d="M79.6,43.9c0,0.2,0,0.4,0,0.6c0.1,1.3,0.6,2.4,1.5,3.3c0.5,0.5,1.2,0.9,1.9,1.1c0.3,0.1,0.6,0.1,0.9,0.1
				c0.1,0,0.1,0,0.2,0c0,0,0-0.1,0-0.1c0.1-0.6-0.1-1.2-0.3-1.8c-0.6-1.6-1.8-2.6-3.4-3.1c-0.2-0.1-0.4-0.1-0.6-0.1
				C79.7,43.9,79.6,43.9,79.6,43.9z"/>
		</g>
	</g>
</g>
<g>
	<path fill="#00FFDA" d="M81.9,134l-0.2,3.7l-1.5,0.8l0.3-4.8c0-0.2,0.2-0.3,0.2-0.5L81.9,134z M85.9,138c0.3,0.4,0.7,0.9,1,1.3
		c0,0,0.1,0.1,0.1,0.1c0,0,0,0.1-0.2,0.1h-2.7h-2.3h-1.1c-0.1-0.1-0.2-0.3-0.3-0.4c0,0-0.1-0.1-0.1-0.2v0l1.5-0.9H85.9z M87.7,133.9
		l-0.3,4.6l-0.3,0.4l-1.1-1.3l0.2-3.6l0.9-0.7L87.7,133.9z M88,127.6c-0.1,1.6-0.2,3.1-0.3,4.7l-0.6,0.6l-0.9-0.7l0.2-3.4l1.4-1.4
		C87.9,127.4,88,127.5,88,127.6z"/>
	<path fill="#00FFDA" d="M91.3,134l-0.2,3.7l-1.5,0.8l0.3-4.8c0-0.2,0.2-0.3,0.2-0.5L91.3,134z M95.3,138c0.3,0.4,0.7,0.9,1,1.3
		c0,0,0.1,0.1,0.1,0.1c0,0,0,0.1-0.2,0.1h-2.7h-2.3h-1.1c-0.1-0.1-0.2-0.3-0.3-0.4c0,0-0.1-0.1-0.1-0.2v0l1.5-0.9H95.3z M91.6,128.9
		l-0.2,3.2l-1.3,0.7l-0.2-0.4l0.3-4.4L91.6,128.9z M97.1,127.1l-1.5,1.4h-4.1l-1.3-0.8l1.1-0.7L97.1,127.1z M97,133.9l-0.3,4.6
		l-0.3,0.4l-1.1-1.3l0.2-3.6l0.9-0.7L97,133.9z M97.3,127.6c-0.1,1.6-0.2,3.1-0.3,4.7l-0.6,0.6l-0.9-0.7l0.2-3.4l1.4-1.4
		C97.3,127.4,97.3,127.5,97.3,127.6z"/>
	<path fill="#00FFDA" d="M100.6,134l-0.2,3.7l-1.5,0.8l0.3-4.8c0-0.2,0.2-0.3,0.2-0.5L100.6,134z M104.6,138c0.3,0.4,0.7,0.9,1,1.3
		c0,0,0.1,0.1,0.1,0.1c0,0,0,0.1-0.2,0.1h-2.7h-2.3h-1.1c-0.1-0.1-0.2-0.3-0.3-0.4c0,0-0.1-0.1-0.1-0.2v0l1.5-0.9H104.6z
		 M100.9,128.9l-0.2,3.2l-1.3,0.7l-0.2-0.4l0.3-4.4L100.9,128.9z M104.7,132.3l1,0.8l-1,0.7h-4c-0.3-0.3-0.7-0.5-1.1-0.8l1.3-0.7
		H104.7z M106.3,133.9l-0.3,4.6l-0.3,0.4l-1.1-1.3l0.2-3.6l0.9-0.7L106.3,133.9z"/>
	<path fill="#00FFDA" d="M113.9,138c0.3,0.4,0.7,0.9,1.1,1.3c0,0,0.1,0.1,0.1,0.1c0,0-0.1,0.1-0.2,0.1h-2.7h-2.2h-1.1
		c-0.1-0.1-0.2-0.3-0.3-0.4c0-0.1-0.1-0.1-0.1-0.2v0l1.5-0.9H113.9z M110.2,128.9l-0.2,3.2l-1.3,0.7l-0.2-0.4l0.2-4.4L110.2,128.9z
		 M115.7,127.1l-1.4,1.5h-4.1l-1.3-0.8l1.1-0.7L115.7,127.1z M114,132.3l1.1,0.8l-1,0.7h-4c-0.4-0.3-0.7-0.5-1.1-0.8l1.3-0.7H114z
		 M115.6,133.9l-0.3,4.6l-0.3,0.4l-1.1-1.2l0.2-3.6l0.9-0.7L115.6,133.9z"/>
</g>
<path fill="#F7425A" d="M3.5,131.4c0,0,62.2,89.7,190.2,157.7c0,0,0.8,29.2-3.6,52c0,0-97.5-51.5-176.5-131.1c0,0,2.5-6.9,2.1-22.9
	C15.7,187.2,4.3,155.2,3.5,131.4z"/>
<g>
	<g>
		<path fill="#FFFFFF" d="M42,190.7c0.1,0.1,0.1,0.3,0,0.4l-10.5,13.9c-0.2,0.2-0.4,0.3-0.6,0.1l-2.6-2.9c-0.1-0.1-0.1-0.3,0-0.4
			l2.3-2.8c0.1-0.1,0.1-0.2,0-0.3l-0.9-1c-0.1-0.1-0.2-0.1-0.3,0l-2.9,2c-0.1,0.1-0.3,0-0.4-0.1l-2.6-2.9c-0.1-0.2-0.1-0.4,0.1-0.5
			l15-9.2c0.1-0.1,0.3-0.1,0.4,0L42,190.7z M33.9,195.2c0.2-0.3,0.3-0.4,0.3-0.5s-0.2,0-0.5,0.2l-1.9,1.3c-0.1,0.1-0.2,0.2-0.1,0.3
			c0.5,0.6,0.6,0.6,0.7,0.5L33.9,195.2z"/>
		<path fill="#FFFFFF" d="M32.7,207c-0.1-0.1,0-0.2,0-0.3l12.8-12.4c0.2-0.1,0.3-0.1,0.4,0l2.3,2.4c0.1,0.1,0.1,0.2,0,0.3
			l-12.9,12.4c-0.1,0.1-0.2,0.1-0.3,0L32.7,207z"/>
		<path fill="#FFFFFF" d="M51.1,203.9c-0.1-0.1-0.1-0.2,0-0.3c0.5-0.5,0.5-0.6,0.4-0.7c-0.2-0.2-0.3-0.2-0.4,0l-1.1,1
			c-0.1,0.1,0,0.2,0.2,0.4c0.2,0.2,0.3,0.4,0.2,0.5l-2.4,2.3c-0.1,0.1-0.4,0-0.5-0.2c-0.2-0.2-0.3-0.2-0.4-0.1l-7.2,7.2
			c-0.1,0.1-0.2,0.1-0.3,0l-2.3-2.3c-0.1-0.1-0.1-0.2,0-0.3l7.2-7.2c0.1-0.1,0.1-0.2-0.1-0.4c-0.2-0.2-0.2-0.3-0.1-0.4l2.4-2.4
			c0.1-0.1,0.2-0.1,0.5,0.1c0.1,0.1,0.2,0.2,0.3,0.1l1.1-1c1.1-1.1,2.7-0.6,4.3,1c2.2,2.3,1.5,3.2,0.5,4.2c-0.1,0.1-0.2,0.1-0.3,0
			L51.1,203.9z"/>
		<path fill="#FFFFFF" d="M51.5,205.9c0.1-0.1,0.2-0.1,0.2,0l2.4,2.4c0.1,0.1-0.3,0.8-0.2,0.8c0,0,0.1,0,0.2,0
			c0.6-0.2,1,0.1,1.5,0.6c0.1,0,0.1,0.2,0,0.2l-2.4,2.5c-0.1,0.1-0.2,0.1-0.2,0c-0.9-0.9-1.7-0.7-3,0.7l-5.4,5.6
			c-0.1,0.1-0.2,0.1-0.3,0l-2.5-2.4c-0.1-0.1-0.1-0.2,0-0.3L51.5,205.9z"/>
		<path fill="#FFFFFF" d="M53.7,214.5c-0.1-0.1,0-0.2,0.7-1c1.3-1.4,3.5-1.6,5.3,0.1c1.9,1.8,1.9,4,0.6,5.4l-4.4,4.7
			c-0.1,0.1-0.1,0.2,0.3,0.5c0.1,0.1,0.1,0.2,0,0.3l-1,1.1c-0.8,0.9-2.5,1.2-3.5,0.2c-0.8-0.8-0.9-1.3-0.8-2c0-0.2,0-0.3,0-0.3
			c0,0-0.1,0-0.4,0c-0.4,0.1-1.2,0-1.8-0.6c-0.7-0.7-1.2-2.3,0.4-4.1l1.2-1.3c1.3-1.4,2.9-1.2,4.2-0.7c1.8,0.7,2,0.5,2.6-0.1
			c0.2-0.2,0.2-0.5,0.1-0.6c-0.3-0.3-0.4-0.2-1.1,0.6c-0.1,0.1-0.2,0.1-0.3,0L53.7,214.5z M54.4,219.8c0.1-0.1,0.1-0.2,0-0.2
			c-0.1-0.1-0.6-0.3-1,0.1l-1.2,1.3c-0.2,0.2-0.1,0.4,0,0.6c0.1,0.1,0.4,0.2,0.6,0L54.4,219.8z"/>
		<path fill="#FFFFFF" d="M62,221.1c0.1-0.1,0.1-0.2,0-0.2c-0.4-0.3-0.4-0.4-0.3-0.5l2.3-2.6c0-0.1,0.1-0.1,0.2,0
			c0.4,0.4,0.4,0.4,0.6,0.3l1.4-1.6c0.1-0.1,0.2-0.1,0.2,0l2.6,2.3c0.2,0.2,0.1,0.2,0,0.3l-1.4,1.5c-0.1,0.1-0.1,0.2,0,0.3
			c0.5,0.5,0.6,0.5,0.5,0.7l-2.3,2.6c-0.1,0.1-0.2,0.1-0.2,0c-0.5-0.5-0.6-0.6-0.7-0.4l-4.2,4.7c-0.1,0.1-0.1,0.2,0,0.2
			c0.6,0.6,0.7,0.6,0.6,0.7c-0.9,1-2.5,2.8-4.3,1.1c-1.1-1-1.2-2.3,0.7-4.5L62,221.1z"/>
		<path fill="#FFFFFF" d="M63.1,235.8c-0.1,0.1-0.2,0.1-0.3,0l-2.6-2.3c-0.1-0.1-0.1-0.2,0-0.3l9.2-10.4c0.1-0.1,0.3-0.2,0.4-0.1
			l2.5,2.3c0.1,0.1,0.1,0.2,0,0.3L63.1,235.8z M73,224.3c-0.1,0.1-0.2,0.1-0.4,0l-2.2-1.9c-0.1-0.1-0.1-0.3,0-0.4l2-2.2
			c0.1-0.1,0.3-0.1,0.4,0l2.2,2c0.1,0.1,0.1,0.2,0,0.3L73,224.3z"/>
		<path fill="#FFFFFF" d="M81.3,228.5c0.1-0.1,0.3-0.1,0.4,0l6.5,5.5c0.1,0.1,0.1,0.2,0,0.4l-2.8,3.3c-0.1,0.1-0.2,0.1-0.4,0
			l-3.1-2.6c-0.1-0.1-0.2-0.1-0.2,0l-0.9,1c-0.1,0.1,0,0.2,0,0.2l1.4,1.2c0.1,0.1,0.1,0.2,0,0.2l-2.8,3.3c-0.1,0.1-0.2,0.1-0.3,0
			l-1.5-1.3c-0.1-0.1-0.2-0.1-0.3,0l-0.9,1.1c-0.1,0.1-0.1,0.2,0,0.2l3.2,2.7c0.1,0.1,0.1,0.3,0,0.4l-2.9,3.4
			c-0.1,0.1-0.3,0.1-0.4,0l-6.5-5.5c-0.1-0.1-0.1-0.3,0-0.4L81.3,228.5z"/>
		<path fill="#FFFFFF" d="M78.6,249.4c-0.1-0.1-0.1-0.2,0-0.3l8.8-10.8c0.1-0.1,0.2-0.1,0.2,0l2.3,1.9c0.1,0.1-0.4,1-0.3,1.1
			c0,0,0.1,0,0.2,0c0.7-0.2,1.2-0.1,2,0.5c0.9,0.7,1.2,2.2,0.2,3.4l-7.4,9.1c0,0.1-0.1,0.1-0.2,0l-2.6-2.1c-0.1-0.1-0.1-0.2,0-0.2
			l6.2-7.6c0.2-0.3,0.2-0.5,0-0.6c-0.1-0.1-0.4-0.1-0.6,0.1l-6.2,7.6c-0.1,0.1-0.1,0.1-0.2,0L78.6,249.4z"/>
		<path fill="#FFFFFF" d="M93.1,247.8c0.1-0.1,0.1-0.2,0-0.2c-0.4-0.3-0.4-0.3-0.3-0.5l2.2-2.7c0-0.1,0.1-0.1,0.2-0.1
			c0.4,0.3,0.5,0.4,0.6,0.2l1.3-1.6c0.1-0.1,0.2-0.1,0.2,0l2.7,2.2c0.2,0.1,0.2,0.2,0.1,0.3l-1.3,1.6c-0.1,0.1-0.1,0.2,0,0.3
			c0.6,0.5,0.6,0.5,0.5,0.6l-2.2,2.7c-0.1,0.1-0.2,0.1-0.2,0c-0.6-0.5-0.7-0.5-0.8-0.4l-3.9,4.9c-0.1,0.1-0.1,0.2,0,0.2
			c0.7,0.5,0.7,0.6,0.6,0.7c-0.9,1.1-2.3,2.9-4.2,1.4c-1.1-0.9-1.4-2.2,0.4-4.5L93.1,247.8z"/>
		<path fill="#FFFFFF" d="M100.6,248.9c0.1-0.1,0.2-0.1,0.2-0.1l2.7,2.1c0.1,0.1-0.2,0.8-0.1,0.9c0,0,0.1,0,0.2,0
			c0.5-0.3,1,0,1.6,0.5c0.1,0,0.1,0.1,0,0.2l-2.1,2.7c-0.1,0.1-0.1,0.1-0.2,0c-1-0.8-1.7-0.5-2.9,1l-4.8,6.1c-0.1,0.1-0.2,0.1-0.3,0
			l-2.8-2.1c-0.1-0.1-0.1-0.2,0-0.3L100.6,248.9z"/>
		<path fill="#FFFFFF" d="M104.2,256.4c1.7-2.3,4.1-1.8,5.6-0.6c2.2,1.6,2.1,4.2,0.7,6.1l-0.9,1.2c-0.1,0.1-0.2,0.1-0.3,0l-3.2-2.4
			c-0.1-0.1-0.2,0-0.2,0.1l-2.3,3c-0.2,0.3-0.2,0.5,0,0.7c0.1,0.1,0.4,0.1,0.6-0.2l0.9-1.2c0.1-0.1,0.2-0.1,0.3,0l2.4,2
			c0.1,0.1,0.1,0.2,0,0.4l-0.9,1.2c-1.8,2.4-4.1,1.9-5.8,0.6c-2-1.5-2.1-3.9-0.5-6.1L104.2,256.4z M106.9,259.4c0,0.1,0,0.1,0,0.2
			c0.4,0.3,0.5,0.4,0.6,0.3c0.9-1.2,1-1.4,0.7-1.6c-0.2-0.1-0.4-0.1-0.6,0.2L106.9,259.4z"/>
		<path fill="#FFFFFF" d="M112.5,262c1.2-1.6,3.2-1.8,4.8-0.6c0.6,0.4,1,0.8,1.1,1.3c0.3-0.1,1.3-0.4,1.7-0.1
			c0.5,0.4,0.3,1.7,0.2,1.9c-0.1,0.2-1.3-0.1-1.5-0.1c0,0.5-0.3,1.2-0.8,1.9l-2.1,2.9c-1.2,1.6-3.1,1.9-4.8,0.6
			c-0.2-0.2-0.6-0.5-0.7-0.7c-0.2,0.1-0.3,0.1-0.3,0.2c-0.2,0.2,0,0.6,0.7,1.2c1.9,1.8,2.2,3.2,0.9,5c-1.2,1.7-3.2,1.6-4.9,0.4
			c-2.2-1.6-2.3-3.4-1.5-4.5c0.5-0.7,1.1-1,1.6-1c-0.1-0.4,0-1,0.5-1.7c0.5-0.7,1.6-1.2,2.3-1.2c-0.2-0.8,0-2,0.5-2.8L112.5,262z
			 M108,272c-0.1,0-0.2,0.1-0.3,0.2c-0.4,0.5,0.5,1.2,0.6,1.3c0.3,0.2,0.8,0.5,1.1,0.2c0.1-0.1,0.1-0.3-0.1-0.4
			C108.9,272.9,108.3,272.4,108,272z M113.1,266.4c-0.2,0.3-0.1,0.5,0,0.6c0.2,0.1,0.4,0.1,0.6-0.2l1.6-2.1c0.2-0.3,0.2-0.5,0-0.6
			c-0.2-0.1-0.4-0.1-0.6,0.1L113.1,266.4z"/>
		<path fill="#FFFFFF" d="M118.9,268.4c-0.1-0.1-0.1-0.2,0.6-1.1c1.1-1.5,3.3-2.1,5.3-0.7c2.2,1.5,2.4,3.7,1.3,5.2l-3.7,5.3
			c-0.1,0.2-0.1,0.2,0.4,0.5c0.1,0.1,0.1,0.2,0,0.3l-0.9,1.2c-0.7,1-2.3,1.5-3.4,0.7c-0.9-0.6-1-1.2-1-1.8c0-0.2,0-0.3-0.1-0.3
			c0,0-0.1,0-0.4,0c-0.4,0.1-1.2,0.2-1.8-0.3c-0.8-0.6-1.6-2.1-0.2-4.1l1-1.4c1.1-1.5,2.7-1.6,4.1-1.3c1.9,0.4,2.1,0.2,2.6-0.4
			c0.2-0.3,0.2-0.5,0-0.6c-0.3-0.2-0.4-0.1-1,0.8c-0.1,0.1-0.2,0.1-0.3,0L118.9,268.4z M120.3,273.6c0.1-0.1,0.1-0.2,0-0.2
			c-0.1-0.1-0.6-0.2-0.9,0.2l-1,1.4c-0.2,0.2-0.1,0.4,0.1,0.6s0.4,0.1,0.5-0.1L120.3,273.6z"/>
		<path fill="#FFFFFF" d="M138.3,271.6c0.1,0.1,0.2,0.2,0.1,0.4l-6.7,10.1c-0.2,0.3-0.2,0.5,0,0.7c0.2,0.2,0.5,0,0.6-0.2l6.8-10.2
			c0.1-0.1,0.2-0.1,0.4-0.1l3.4,2.2c0.1,0.1,0.2,0.2,0.1,0.3l-7.1,10.7c-1.4,2.1-4.2,3.1-6.8,1.3c-2.7-1.8-2.8-4.7-1.4-6.8l7.1-10.7
			c0.1-0.1,0.2-0.2,0.3-0.1L138.3,271.6z"/>
		<path fill="#FFFFFF" d="M142.5,278.9c0.1-0.1,0.1-0.1,0.2-0.1l2.8,1.8c0.1,0.1-0.2,0.8,0,0.9c0,0,0.1,0,0.2-0.1
			c0.5-0.4,1-0.1,1.6,0.3c0.1,0,0.1,0.1,0,0.2l-1.9,2.9c-0.1,0.1-0.1,0.1-0.2,0.1c-1-0.7-1.8-0.4-2.8,1.3l-4.2,6.6
			c-0.1,0.1-0.2,0.1-0.3,0.1l-2.9-1.9c-0.1-0.1-0.1-0.2,0-0.3L142.5,278.9z"/>
		<path fill="#FFFFFF" d="M147,285.5c1-1.7,3-2.1,4.8-1c0.6,0.4,1,0.8,1.2,1.2c0.3-0.1,1.2-0.5,1.7-0.2c0.5,0.3,0.4,1.7,0.3,1.8
			c-0.1,0.2-1.3,0-1.5,0c0,0.5-0.2,1.2-0.6,2l-1.9,3c-1,1.7-3,2.1-4.7,1c-0.2-0.2-0.6-0.4-0.8-0.6c-0.2,0.1-0.3,0.2-0.3,0.3
			c-0.2,0.2,0,0.6,0.8,1.2c2,1.6,2.5,3,1.3,4.9c-1.1,1.8-3,1.9-4.8,0.8c-2.3-1.4-2.6-3.2-1.9-4.4c0.4-0.7,1-1,1.6-1.1
			c-0.1-0.4,0-1,0.4-1.7c0.5-0.7,1.5-1.3,2.2-1.3c-0.3-0.8-0.2-2,0.3-2.8L147,285.5z M143.4,295.9c-0.1,0-0.2,0.1-0.3,0.2
			c-0.3,0.5,0.6,1.1,0.7,1.2c0.3,0.2,0.9,0.4,1.1,0.1c0.1-0.1,0-0.3-0.2-0.4C144.2,296.7,143.7,296.2,143.4,295.9z M148,289.9
			c-0.2,0.3-0.1,0.5,0.1,0.6c0.2,0.1,0.4,0,0.6-0.2l1.4-2.2c0.2-0.3,0.1-0.5-0.1-0.6c-0.2-0.1-0.4-0.1-0.6,0.2L148,289.9z"/>
		<path fill="#FFFFFF" d="M154.1,290.5c1.4-2.4,3.8-2.2,5.5-1.2c2.3,1.4,2.6,4,1.4,6l-0.7,1.3c-0.1,0.1-0.2,0.1-0.3,0.1l-3.4-2
			c-0.1,0-0.2,0-0.2,0.1l-1.9,3.2c-0.2,0.3-0.1,0.5,0.1,0.6c0.1,0.1,0.4,0.1,0.6-0.2l0.7-1.3c0-0.1,0.2-0.1,0.3-0.1l2.6,1.7
			c0.1,0.1,0.1,0.2,0.1,0.3l-0.8,1.3c-1.6,2.6-3.8,2.4-5.7,1.2c-2.2-1.3-2.5-3.6-1.2-6L154.1,290.5z M157.1,293.2
			c0,0.1,0,0.1,0.1,0.2c0.5,0.3,0.5,0.3,0.6,0.2c0.8-1.3,0.8-1.5,0.5-1.7c-0.2-0.1-0.4-0.1-0.6,0.2L157.1,293.2z"/>
		<path fill="#FFFFFF" d="M157.8,304.8c-0.1,0-0.1-0.2,0-0.3l6.8-12.2c0-0.1,0.1-0.1,0.2-0.1l2.6,1.5c0.1,0.1-0.2,1.1-0.1,1.1
			c0,0,0.1,0,0.2,0c0.6-0.3,1.2-0.3,2.1,0.2c1,0.6,1.6,1.9,0.8,3.4l-5.7,10.2c0,0.1-0.1,0.1-0.2,0l-2.9-1.6c-0.1,0-0.1-0.1-0.1-0.2
			l4.8-8.5c0.2-0.3,0.1-0.5-0.1-0.6c-0.2-0.1-0.4-0.1-0.6,0.2l-4.8,8.6c0,0.1-0.1,0.1-0.2,0L157.8,304.8z"/>
		<path fill="#FFFFFF" d="M171.8,300.7c0-0.1,0-0.2,0-0.2c-0.4-0.2-0.5-0.3-0.4-0.4l1.6-3.1c0-0.1,0.1-0.1,0.2-0.1
			c0.5,0.3,0.5,0.3,0.6,0.1l1-1.9c0-0.1,0.1-0.1,0.2-0.1l3,1.6c0.2,0.1,0.2,0.2,0.1,0.3l-0.9,1.8c-0.1,0.1,0,0.2,0.1,0.3
			c0.7,0.4,0.7,0.4,0.6,0.5l-1.6,3.1c0,0.1-0.1,0.1-0.2,0.1c-0.7-0.4-0.7-0.4-0.8-0.2l-3,5.5c0,0.1,0,0.2,0,0.2
			c0.7,0.4,0.8,0.4,0.8,0.6c-0.6,1.2-1.8,3.3-3.9,2.1c-1.3-0.7-1.8-2-0.4-4.5L171.8,300.7z"/>
		<path fill="#FFFFFF" d="M177.7,303.7c1.3-2.5,3.7-2.5,5.4-1.6c2.4,1.2,2.9,3.8,1.8,5.9l-0.7,1.3c-0.1,0.1-0.2,0.1-0.3,0.1
			l-3.6-1.8c-0.1,0-0.2,0-0.2,0.1l-1.7,3.4c-0.2,0.3-0.1,0.5,0.1,0.6c0.2,0.1,0.4,0,0.6-0.3l0.7-1.3c0-0.1,0.2-0.1,0.3-0.1l2.7,1.5
			c0.1,0.1,0.2,0.2,0.1,0.3l-0.7,1.4c-1.4,2.7-3.7,2.6-5.6,1.6c-2.3-1.2-2.8-3.4-1.5-5.9L177.7,303.7z M181,306.3
			c0,0.1,0,0.1,0.1,0.2c0.5,0.2,0.6,0.3,0.6,0.2c0.7-1.4,0.7-1.5,0.4-1.7c-0.2-0.1-0.4,0-0.5,0.3L181,306.3z"/>
	</g>
</g>
<polygon fill="#A8D3FE" points="165.6,50.7 157.6,58.7 151.8,62 145.2,58.7 150.5,67.6 129.2,67.6 139.9,71.1 137.2,84.4 
	144.8,72.5 154.1,72.2 154.9,63.6 170,54.1 "/>
<polygon fill="#A8D3FE" points="22.2,61.1 33.3,60.7 39.8,49.8 38.1,59.5 46.8,58.4 52.5,62 61,56.6 59.7,60.5 51.4,66.2 45.8,60.6 
	35.7,61.8 31.2,64.2 26.7,63.7 18.1,66.5 "/>
<g>
	<path fill="#FEFEFE" d="M149.6,112.9c0,0.2,0,0.5,0,0.7c0,0.2,0,0.3,0,0.5c0,0.6,0,1.1,0.1,1.7c0,0.2,0,0.4,0,0.6
		c0,0.1,0,0.2,0,0.2c0.4,12.4,0.9,24.8,1.3,37.2c0,0.8,0.5,1.1,1.3,1c3.1-0.5,6.3-1.1,9.4-1.6c0.1,0,0.3,0,0.4-0.1
		c0.3,0.1,0.7,0,1-0.1c0.5,0,1-0.1,1.4-0.3c0.3,0,0.6,0,0.8-0.1c0.4,0,0.8-0.1,1.3-0.2c0.6-0.1,1.1-0.1,1.7-0.3c0.2,0,0.3,0,0.5,0
		c6-1,12.1-2.1,18.1-3.1c0.9-0.2,1.3-0.6,1.3-1.6c-0.6-16.9-1.2-33.8-1.8-50.7c0-0.9-0.5-1.3-1.4-1.1c-6,1-12,2.1-18,3.1
		c-0.2,0-0.4,0.1-0.5,0.1c-0.7,0-1.5,0.2-2.2,0.4c-0.3,0-0.5,0.1-0.8,0.1c-0.4,0-0.7,0.1-1.1,0.2c-0.2,0-0.4,0-0.6,0.1
		c-0.5,0-1,0.1-1.6,0.3c-1.3,0.2-2.7,0.4-4,0.7c-1.9,0.3-3.8,0.7-5.8,1c-0.7,0.1-1.2,0.6-1.1,1.3c0.1,3.4,0.2,6.8,0.4,10.2
		C149.6,112.8,149.6,112.8,149.6,112.9z"/>
	<path fill="#FE0000" d="M166.4,98.6c0.2,0,0.4-0.1,0.5-0.1c6-1,12-2.1,18-3.1c0.9-0.2,1.4,0.2,1.4,1.1c0.6,16.9,1.2,33.8,1.8,50.7
		c0,0.9-0.4,1.4-1.3,1.6c-6,1.1-12.1,2.1-18.1,3.1c-0.2,0-0.3,0-0.5,0c0-0.2-0.1-0.4-0.1-0.7c6.2-1.1,12.4-2.2,18.5-3.2
		c0.7-0.1,0.8-0.2,0.7-0.9c-0.6-16.8-1.2-33.6-1.8-50.4c0-0.7-0.1-0.8-0.8-0.6c-6.2,1.1-12.4,2.2-18.5,3.2
		C166.4,99.1,166.4,98.8,166.4,98.6z"/>
	<path fill="#FE0000" d="M162.1,153c-0.1,0.1-0.3,0.1-0.4,0.1c-3.1,0.5-6.3,1.1-9.4,1.6c-0.8,0.1-1.3-0.2-1.3-1
		c-0.4-12.4-0.9-24.8-1.3-37.2c0-0.1,0-0.2,0-0.2c0.2-0.1,0.4-0.3,0.7-0.3c0,0.2,0,0.4,0,0.5c0.4,12.2,0.9,24.4,1.3,36.7
		c0,0.8,0,0.8,0.9,0.7c3.2-0.6,6.4-1.1,9.7-1.7C162.3,152.6,162.2,152.8,162.1,153z"/>
	<path fill="#FE0000" d="M149.6,112.8c-0.1-3.4-0.3-6.8-0.4-10.2c0-0.6,0.5-1.1,1.1-1.3c1.9-0.3,3.8-0.7,5.8-1
		c1.3-0.2,2.7-0.4,4-0.7c0,0.2,0.1,0.5,0.1,0.7c-3.2,0.6-6.5,1.1-9.7,1.7c-0.5,0.1-0.6,0.2-0.6,0.7c0,0.8,0.1,1.7,0.1,2.5
		c0.1,2.3,0.1,4.5,0.2,6.8C149.9,112.2,149.8,112.6,149.6,112.8z"/>
	<path fill="#FE2727" d="M160.2,100.4c0-0.2-0.1-0.5-0.1-0.7c0.5-0.1,1-0.2,1.6-0.3c0.2,0.3,0.5,0.4,0.8,0.4
		c-0.1-0.2-0.1-0.4-0.2-0.5c0.4-0.1,0.7-0.2,1.1-0.2c-0.1,0.3-0.2,0.5-0.3,0.8C162.1,100,161.2,100.2,160.2,100.4z"/>
	<path fill="#FE2727" d="M166.4,98.6c0,0.2,0,0.5-0.1,0.7c-1,0.2-2,0.3-3,0.5c0-0.2,0.2-0.2,0.4-0.3c0.2-0.2,0.4-0.2,0.5-0.5
		C164.9,98.8,165.7,98.6,166.4,98.6z"/>
	<path fill="#FE2727" d="M168.2,151.3c0,0.2,0.1,0.4,0.1,0.7c-0.5,0.2-1.1,0.2-1.7,0.3c0-0.2,0-0.5-0.1-0.7
		C167.1,151.5,167.6,151.4,168.2,151.3z"/>
	<path fill="#FE0000" d="M164.5,152.6c-0.5,0.1-1,0.2-1.4,0.3c0-0.2-0.1-0.4,0.1-0.7c0.6-0.1,1.1-0.2,1.7-0.3
		C164.9,152.2,164.6,152.4,164.5,152.6z"/>
	<path fill="#FE0000" d="M166.5,151.6c0.1,0.2,0.1,0.4,0.1,0.7c-0.4,0.1-0.8,0.2-1.3,0.2c-0.1-0.2-0.2-0.4-0.3-0.6
		C165.6,151.7,166,151.7,166.5,151.6z"/>
	<path fill="#FE0000" d="M149.7,115.8c0-0.6,0-1.1-0.1-1.7c0.3,0,0.4,0.4,0.7,0.3c0,0.3,0,0.7,0,1
		C150.1,115.4,150,115.8,149.7,115.8z"/>
	<path fill="#FE2727" d="M163.2,152.2c-0.1,0.2-0.1,0.5-0.1,0.7c-0.3,0.1-0.7,0.2-1,0.1c0.1-0.2,0.2-0.5,0.2-0.7
		C162.6,152.3,162.9,152.2,163.2,152.2z"/>
	<path fill="#FE2727" d="M149.7,115.8c0.3,0,0.4-0.3,0.7-0.4c0,0.2,0,0.5,0,0.7c-0.3,0-0.5,0.2-0.7,0.3
		C149.7,116.2,149.7,116,149.7,115.8z"/>
	<path fill="#FE2727" d="M150.3,114.4c-0.3,0-0.4-0.4-0.7-0.3c0-0.2,0-0.3,0-0.5c0.3-0.2,0.5,0.1,0.7,0.1
		C150.3,113.9,150.3,114.1,150.3,114.4z"/>
	<path fill="#FE0000" d="M164.2,99c-0.1,0.3-0.3,0.4-0.5,0.5c-0.1,0.1-0.3,0.1-0.4,0.3c-0.1,0-0.2,0-0.3,0c0.1-0.3,0.2-0.5,0.3-0.8
		C163.7,99,163.9,99,164.2,99z"/>
	<path fill="#FE0000" d="M150.3,113.6c-0.2,0-0.4-0.3-0.7-0.1c0-0.2,0-0.5,0-0.7c0.2,0.2,0.5,0.2,0.7,0
		C150.3,113.1,150.3,113.4,150.3,113.6z"/>
	<path fill="#FE2727" d="M150.3,112.8c-0.3,0.2-0.5,0.2-0.7,0c0,0,0-0.1,0-0.1c0.3-0.2,0.4-0.5,0.7-0.7
		C150.2,112.3,150.3,112.6,150.3,112.8z"/>
	<path fill="#FE2727" d="M165.1,151.8c0.1,0.2,0.2,0.4,0.3,0.6c-0.3,0.1-0.5,0.2-0.8,0.1c0.1-0.3,0.4-0.5,0.3-0.8
		C164.9,151.8,165,151.8,165.1,151.8z"/>
	<path fill="#FE0000" d="M162.3,99.3c0.1,0.2,0.1,0.3,0.2,0.5c-0.4-0.1-0.6-0.1-0.8-0.4C161.9,99.3,162.1,99.3,162.3,99.3z"/>
	<path fill="#FEFEFE" d="M165.1,151.8c-0.1,0-0.1,0-0.2,0c-0.6,0.1-1.1,0.2-1.7,0.3c-0.3,0-0.6,0.1-0.9,0.1
		c-3.2,0.6-6.4,1.1-9.7,1.7c-0.9,0.2-0.9,0.2-0.9-0.7c-0.4-12.2-0.9-24.4-1.3-36.7c0-0.2,0-0.4,0-0.5c0-0.2,0-0.5,0-0.7
		c0-0.3,0-0.7,0-1c0-0.2,0-0.5,0-0.7c0-0.3,0-0.5,0-0.8c0-0.2,0-0.5,0-0.7c-0.1-2.3-0.1-4.5-0.2-6.8c0-0.8-0.1-1.7-0.1-2.5
		c0-0.5,0.1-0.6,0.6-0.7c3.2-0.6,6.5-1.1,9.7-1.7c0.9-0.2,1.9-0.3,2.8-0.5c0.1,0,0.2,0,0.3,0c1-0.2,2-0.3,3-0.5
		c6.2-1.1,12.4-2.2,18.5-3.2c0.7-0.1,0.8-0.1,0.8,0.6c0.6,16.8,1.2,33.6,1.8,50.4c0,0.7,0,0.8-0.7,0.9c-6.2,1.1-12.4,2.2-18.5,3.2
		c-0.5,0.1-1.1,0.2-1.6,0.3C166,151.7,165.6,151.7,165.1,151.8z M175.4,140.5c0-0.5,0-1-0.1-1.4c0-0.1,0-0.2-0.2-0.2
		c-0.2,0-0.4,0.1-0.7,0.1c-0.2,0-0.3,0.1-0.5,0.1c-0.4,0-0.4,0.2-0.4,0.5c0,0.4,0,0.9,0.1,1.3c0,0.2,0,0.4,0,0.6
		c0,0.8,0.1,1.6,0.1,2.3c0,0.1,0,0.2,0,0.3c0,0.9,0,1.8,0.1,2.7c0,0.4-0.2,1.1,0.1,1.3c0.3,0.2,0.9-0.1,1.3-0.2
		c0.2,0,0.3-0.1,0.3-0.3c-0.1-1.8-0.1-3.6-0.2-5.3c0-0.2,0-0.4,0-0.6c0-0.2,0-0.4,0-0.5C175.4,140.9,175.4,140.7,175.4,140.5z
		 M176.9,138.6c-0.2,0-0.4,0.1-0.7,0.1c-0.1,0-0.2,0.1-0.1,0.2c0,0.5,0,1,0.1,1.5c0,0.2,0,0.4,0,0.5c0,0.4,0,0.7,0,1.1
		c0.1,1.8,0.1,3.6,0.2,5.3c0,0.2-0.1,0.4,0.2,0.3c1-0.2,2.1-0.4,3.1-0.5c0.2,0,0.2-0.1,0.2-0.3c0-1.3,0-1.3-1.2-1.1
		c-0.1,0-0.1,0-0.2,0c-0.4,0.1-0.4,0-0.4-0.4c-0.1-2.1-0.1-4.1-0.2-6.2C177.9,138.4,177.9,138.4,176.9,138.6z M170.9,143.6
		c0,0.2,0,0.4,0,0.6c0.1,0.3-0.3,0.8,0.4,0.7c0,0,0.1,0.1,0.1,0.1c0,0.5,0,1.1,0,1.6c0,0.2-0.1,0.4-0.4,0.4
		c-0.2,0.1-0.4-0.1-0.4-0.3c0-0.2-0.1-0.3-0.1-0.5c0-0.3,0-0.6,0-0.9c0-0.2,0-0.3,0-0.4c0-0.3,0-0.6,0-0.8c0-0.4,0-0.7,0-1.1
		c0-0.5,0-0.9,0-1.4c0-0.3,0.2-0.4,0.4-0.5c0.3,0,0.3,0.2,0.4,0.4c0,0.1,0,0.1,0,0.2c0,0.9,0,0.9,0.9,0.7c0.9-0.1,0.9-0.1,0.8-1
		c0-0.1-0.1-0.2-0.1-0.2c0-0.7-0.3-1.4-0.9-1.7c-1.4-0.6-3.2,0.5-3.3,2.1c-0.1,1.9,0,3.8,0.2,5.7c0.2,1.2,0.9,1.7,2,1.4
		c0.5-0.1,0.9-0.5,1.2-0.9c0.1,0.1,0.2,0.3,0.2,0.4c0.1,0.3,0.4,0.1,0.6,0.1c0.2,0,0.2-0.2,0.2-0.3c-0.1-1.6-0.1-3.2-0.2-4.8
		c0-0.2-0.1-0.2-0.2-0.2c-0.6,0.1-1.1,0.2-1.7,0.3C171,143.4,170.9,143.5,170.9,143.6z M178.1,135.4c0.2,0,0.4-0.1,0.5-0.1
		c0.4-0.1,0.9-0.2,1.4-0.2c-0.2-0.2-0.4-0.3-0.5-0.4c-2.2-1.9-4.9-2.7-8-2.1c-0.4,0.1-0.3-0.2-0.3-0.4c-0.1-2.8-0.2-5.7-0.3-8.5
		c0-0.3,0.1-0.5,0.4-0.6c2.7-1.2,4.7-3.1,5.8-5.9c0.9-2.3,1-4.5,0.8-6.8c0-0.3,0-0.7-0.1-1c-0.3,0.3-0.6,0.7-0.9,0.9
		c-1.3,1.2-2.6,1.4-3.8,0.4c-0.3-0.3-0.7-0.5-1.2-0.5c-0.7-0.1-1.3,0.3-1.9,0.8c-0.6,0.5-1,0.5-1.5,0.1c-0.2-0.2-0.4-0.5-0.7-0.7
		c-0.7-0.6-1.6-0.6-2.5,0.1c-0.2,0.2-0.4,0.3-0.5,0.5c-0.5,0.4-1,0.5-1.5,0.2c-0.2-0.1-0.4-0.3-0.6-0.4c-0.8-0.6-1.7-0.5-2.7,0
		c-0.4,0.2-0.8,0.6-1.2,0.9c-0.2,0.2-0.3,0.4-0.3,0.7c0.1,0.7,0.1,1.5,0.1,2.3c0.1,1.2,0.1,2.5,0.4,3.6c1.3,3.7,3.9,5.6,7.9,5.8
		c0.2,0,0.5-0.1,0.5,0.4c0.1,2.8,0.2,5.7,0.3,8.5c0,0.3-0.1,0.4-0.4,0.5c-1.4,0.2-2.8,0.7-4.1,1.3c-2,1-3.8,2.5-5.3,4.3
		c0.2,0,0.3-0.1,0.4-0.1c6.4-1.1,12.7-2.2,19.1-3.3C177.8,135.4,178,135.4,178.1,135.4z M158.6,110.8c0.3-0.3,0.5-0.6,0.8-0.8
		c0.2-0.2,0.5-0.5,0.7-0.7c0.9-0.7,1.6-0.8,2.4-0.3c0.3,0.2,0.5,0.3,0.8,0.5c0.9,0.4,1.7,0.2,2.5-0.5c0.2-0.2,0.3-0.3,0.5-0.5
		c0.5-0.5,0.9-0.5,1.4-0.1c0.2,0.2,0.4,0.4,0.6,0.6c0.7,0.7,1.7,0.7,2.6,0.1c0.2-0.1,0.4-0.3,0.7-0.5c0.6-0.5,0.8-0.5,1.3,0
		c1.3,1.3,3.5,1.1,4.9-0.5c0.2-0.2,0.2-0.3,0.2-0.6c-0.1-2.6-0.2-5.2-0.3-7.8c0-0.3-0.1-0.4-0.4-0.3c-6.2,1.1-12.3,2.2-18.5,3.2
		c-0.3,0.1-0.4,0.2-0.4,0.5c0.1,2,0.1,4,0.2,6C158.5,109.6,158.5,110.1,158.6,110.8z M162.3,145.5c0.4-0.3,0.6-0.7,0.7-1.1
		c0.1-0.8,0.1-1.6-0.2-2.3c-0.2-0.6-0.7-0.9-1.3-0.8c-0.8,0.1-1.6,0.3-2.4,0.4c-0.3,0-0.4,0.2-0.4,0.5c0,0.5,0,0.9,0.1,1.4
		c0.1,2.3,0.2,4.6,0.2,6.8c0,0.4,0.1,0.4,0.5,0.4c0.3-0.1,0.6-0.1,0.9-0.2c0.4,0,0.5-0.2,0.4-0.6c-0.1-1.1-0.1-2.2-0.1-3.4
		c0-0.1-0.1-0.3,0.1-0.4c0.2-0.1,0.4,0,0.5,0.2c0.1,0.1,0.1,0.3,0.1,0.5c0,1,0.1,2.1,0.1,3.1c0,0.3,0.1,0.4,0.4,0.3
		c0.4-0.1,0.7-0.1,1.1-0.2c0.2,0,0.3-0.1,0.3-0.3c0-1.1-0.1-2.3-0.1-3.4C163,146,162.9,145.6,162.3,145.5z M167.6,149.3
		c0.2,0,0.4-0.1,0.5-0.1c0.2,0,0.3-0.1,0.3-0.3c-0.4-2.8-0.7-5.6-1.1-8.3c0-0.2-0.1-0.3-0.3-0.2c-0.7,0.1-1.4,0.2-2.1,0.4
		c-0.6,0.1-0.6,0.1-0.6,0.7c-0.1,2.6-0.3,5.2-0.4,7.7c0,0.8-0.1,0.8,0.7,0.7c0.2,0,0.5-0.1,0.7-0.1c0.2,0,0.3-0.1,0.3-0.3
		c0-0.3,0-0.6,0-0.9c0-0.1,0-0.3,0.1-0.3c0.3-0.1,0.6-0.2,0.9-0.1c0.2,0,0.1,0.3,0.1,0.5c0,0,0,0.1,0,0.1
		C166.8,149.5,166.8,149.5,167.6,149.3z M180.4,142.5c0,1.4,0.1,2.8,0.1,4.3c0,0.3,0.1,0.3,0.3,0.3c0.8-0.2,1.6-0.3,2.4-0.4
		c0.9-0.2,0.9-0.2,0.9-1.1c0-0.8,0-0.8-0.9-0.7c-1,0.2-1,0.2-1-0.8c0-1.1,0-1.1,1-1.2c0.5-0.1,0.6-0.2,0.6-0.7
		c-0.1-0.4,0.1-0.9-0.1-1.1c-0.2-0.2-0.7,0-1.1,0.1c-0.4,0.1-0.5,0-0.5-0.4c0-0.4-0.2-1,0-1.3c0.2-0.3,0.8-0.2,1.2-0.3
		c0.3,0,0.4-0.1,0.4-0.5c0-0.3,0-0.7,0-1c0-0.3-0.1-0.3-0.4-0.3c-0.9,0.2-1.9,0.3-2.8,0.5c-0.3,0-0.4,0.1-0.4,0.4
		C180.4,139.7,180.4,141.1,180.4,142.5z M154.7,147c0,1.1,0.1,2.1,0.1,3.2c0,0.4-0.2,1.1,0.1,1.3c0.3,0.2,0.8-0.1,1.3-0.1
		c0.3,0,0.5-0.1,0.4-0.5c-0.1-1.1-0.1-2.2-0.1-3.3c0-0.3,0-0.4,0.3-0.4c0.3,0,0.7-0.1,1-0.2c0.2,0,0.3-0.1,0.3-0.4
		c0-0.4,0-0.7,0-1.1c0-0.3-0.1-0.3-0.3-0.3c-0.3,0.1-0.7,0.1-1,0.2c-0.1,0-0.3,0.1-0.3-0.1c0-0.4-0.1-0.9,0-1.3
		c0.1-0.3,0.7-0.2,1-0.3c0.1,0,0.2,0,0.3,0c0.3,0,0.4-0.1,0.3-0.4c0-0.3-0.1-0.7,0-1c0-0.3-0.1-0.3-0.4-0.3
		c-0.9,0.2-1.9,0.3-2.8,0.5c-0.3,0-0.4,0.1-0.4,0.4C154.6,144.2,154.6,145.6,154.7,147z"/>
	<path fill="#FE0000" d="M178.1,135.4c-0.1,0-0.2,0.1-0.4,0.1c-6.4,1.1-12.7,2.2-19.1,3.3c-0.1,0-0.2,0-0.4,0.1
		c1.5-1.8,3.3-3.3,5.3-4.3c1.3-0.7,2.7-1.1,4.1-1.3c0.3-0.1,0.4-0.2,0.4-0.5c-0.1-2.8-0.2-5.6-0.3-8.5c0-0.4-0.3-0.3-0.5-0.4
		c-4-0.1-6.7-2.1-7.9-5.8c-0.4-1.1-0.4-2.4-0.4-3.6c0-0.8-0.1-1.5-0.1-2.3c0-0.3,0.1-0.5,0.3-0.7c0.4-0.3,0.8-0.7,1.2-0.9
		c1-0.5,1.9-0.6,2.7,0c0.2,0.1,0.4,0.3,0.6,0.4c0.5,0.3,1,0.3,1.5-0.2c0.2-0.2,0.4-0.3,0.5-0.5c0.8-0.7,1.8-0.7,2.5-0.1
		c0.2,0.2,0.4,0.5,0.7,0.7c0.5,0.5,0.9,0.5,1.5-0.1c0.6-0.5,1.2-0.9,1.9-0.8c0.5,0,0.8,0.2,1.2,0.5c1.2,1,2.5,0.8,3.8-0.4
		c0.3-0.3,0.6-0.6,0.9-0.9c0.1,0.3,0.1,0.7,0.1,1c0.1,2.3,0.1,4.5-0.8,6.8c-1.1,2.8-3.1,4.8-5.8,5.9c-0.4,0.2-0.4,0.3-0.4,0.6
		c0.1,2.8,0.2,5.7,0.3,8.5c0,0.2,0,0.4,0.3,0.4c3.1-0.5,5.8,0.2,8,2.1c0.1,0.1,0.3,0.2,0.5,0.4c-0.6,0.1-1,0.2-1.4,0.2
		c0-0.2,0-0.3,0.1-0.4c0.1-0.2,0-0.3-0.2-0.4c-0.2-0.1-0.3,0.1-0.3,0.3C178.2,134.9,178.1,135.1,178.1,135.4z M177.5,134.5
		c0-0.1,0-0.1-0.1-0.1c0,0-0.1-0.1-0.1-0.1c-2-1.1-4.2-1.3-6.6-0.7c-0.3,0.1-0.5,0.1-0.5-0.3c-0.1-3.5-0.2-6.9-0.4-10.4
		c0-0.3,0-0.5,0.4-0.6c5.2-1.7,7.1-6.8,6.7-11c-0.5,0.4-1.1,0.6-1.7,0.8c-1.2,0.3-2,0-2.8-0.7c-0.6-0.5-1-0.5-1.7,0.1
		c0,0-0.1,0.1-0.1,0.1c-1,0.8-1.9,0.8-2.7,0.1c-0.2-0.2-0.3-0.4-0.5-0.5c-0.5-0.5-0.9-0.5-1.5,0.1c-0.3,0.3-0.6,0.6-1,0.8
		c-1,0.5-1.7,0.1-2.4-0.4c-0.8-0.6-1.5-0.5-2.4,0.2c-0.2,0.1-0.3,0.3-0.3,0.5c0,1,0,2.1,0,3.1c0,4.3,3.4,7.6,7.6,7.5
		c0.4,0,0.9-0.2,1.1,0c0.2,0.2,0.1,0.7,0.1,1.1c0.1,3.2,0.2,6.4,0.4,9.6c0,0.3-0.1,0.4-0.4,0.4c-2.7,0.2-5.2,1.2-7.4,3.1
		c-0.1,0.1-0.2,0.1-0.2,0.3C166.5,136.4,172,135.5,177.5,134.5z"/>
	<path fill="#FE0000" d="M158.6,110.8c0-0.7,0-1.2-0.1-1.7c-0.1-2-0.1-4-0.2-6c0-0.3,0.1-0.4,0.4-0.5c6.2-1.1,12.3-2.1,18.5-3.2
		c0.3-0.1,0.4,0,0.4,0.3c0.1,2.6,0.2,5.2,0.3,7.8c0,0.2,0,0.4-0.2,0.6c-1.4,1.6-3.6,1.8-4.9,0.5c-0.5-0.5-0.6-0.5-1.3,0
		c-0.2,0.2-0.4,0.3-0.7,0.5c-0.9,0.6-1.9,0.6-2.6-0.1c-0.2-0.2-0.4-0.4-0.6-0.6c-0.5-0.4-0.9-0.4-1.4,0.1c-0.2,0.2-0.3,0.3-0.5,0.5
		c-0.8,0.7-1.7,0.9-2.5,0.5c-0.3-0.1-0.5-0.3-0.8-0.5c-0.8-0.5-1.5-0.5-2.4,0.3c-0.3,0.2-0.5,0.5-0.7,0.7
		C159.1,110.2,158.9,110.4,158.6,110.8z M159.4,108.5c1.3-1,2.4-1.2,3.5-0.5c1,0.7,1.6,0.9,2.8-0.4c0.7-0.8,1.7-0.9,2.5-0.2
		c0.3,0.2,0.5,0.5,0.8,0.8c0.4,0.3,0.8,0.3,1.3,0c0.2-0.1,0.3-0.2,0.5-0.3c1.2-0.9,1.8-0.9,2.7,0c0.8,0.8,2,0.7,3,0
		c0.2-0.2,0.3-0.4,0.3-0.7c-0.1-2-0.2-3.9-0.2-5.9c0-0.4-0.1-0.5-0.5-0.4c-5.5,1-10.9,1.9-16.4,2.9c-0.1,0-0.2,0-0.3,0
		c-0.2,0-0.2,0.1-0.2,0.3C159.3,105.4,159.4,106.9,159.4,108.5z"/>
	<path fill="#FE0000" d="M162.3,145.5c0.5,0.1,0.7,0.5,0.7,1c0.1,1.1,0.1,2.3,0.1,3.4c0,0.2-0.1,0.3-0.3,0.3
		c-0.4,0.1-0.7,0.1-1.1,0.2c-0.3,0.1-0.4,0-0.4-0.3c0-1-0.1-2.1-0.1-3.1c0-0.2,0-0.3-0.1-0.5c-0.1-0.2-0.3-0.2-0.5-0.2
		c-0.2,0.1-0.1,0.2-0.1,0.4c0,1.1,0.1,2.2,0.1,3.4c0,0.4-0.1,0.5-0.4,0.6c-0.3,0-0.6,0.1-0.9,0.2c-0.3,0.1-0.5,0-0.5-0.4
		c-0.1-2.3-0.2-4.6-0.2-6.8c0-0.5,0-0.9-0.1-1.4c0-0.3,0-0.4,0.4-0.5c0.8-0.1,1.6-0.3,2.4-0.4c0.7-0.1,1.1,0.1,1.3,0.8
		c0.2,0.7,0.3,1.5,0.2,2.3C163,144.8,162.8,145.2,162.3,145.5z M160.6,143.9c0,0.2,0,0.3,0,0.5c0,0.1-0.1,0.4,0.2,0.4
		c0.3,0,0.4-0.1,0.5-0.4c0.1-0.4,0-0.7,0-1.1c-0.1-0.3-0.3-0.3-0.6-0.2c-0.3,0.1-0.1,0.3-0.1,0.4
		C160.6,143.6,160.6,143.7,160.6,143.9z"/>
	<path fill="#FE0000" d="M167.6,149.3c-0.8,0.1-0.8,0.1-0.9-0.7c0,0,0-0.1,0-0.1c-0.1-0.2,0-0.5-0.1-0.5c-0.3,0-0.6,0.1-0.9,0.1
		c-0.2,0-0.1,0.2-0.1,0.3c0,0.3,0,0.6,0,0.9c0,0.2-0.1,0.3-0.3,0.3c-0.2,0-0.5,0.1-0.7,0.1c-0.8,0.1-0.8,0.1-0.7-0.7
		c0.2-2.6,0.3-5.2,0.4-7.7c0-0.6,0-0.6,0.6-0.7c0.7-0.1,1.4-0.2,2.1-0.4c0.2,0,0.3,0,0.3,0.2c0.3,2.8,0.7,5.6,1.1,8.3
		c0,0.3,0,0.3-0.3,0.3C167.9,149.3,167.7,149.3,167.6,149.3z M165.8,142.2C165.8,142.2,165.8,142.2,165.8,142.2
		c-0.1,1.4-0.2,2.8-0.2,4.2c0,0.3,0.2,0.3,0.4,0.3c0.2,0,0.4,0,0.4-0.4c-0.1-0.5-0.1-0.9-0.2-1.4C166.1,144,166,143.1,165.8,142.2z"
		/>
	<path fill="#FE0000" d="M172.2,142.5c-0.9,0.2-0.9,0.2-0.9-0.7c0-0.1,0-0.2,0-0.2c0-0.2-0.1-0.4-0.4-0.4c-0.3,0-0.4,0.2-0.4,0.5
		c0,0.5,0,0.9,0,1.4c0,0.4,0,0.7,0,1.1c-0.3,0.2-0.5,0.6-0.7,0.8c-0.1,0.1-0.2,0.1-0.1,0.2c0.1,0.1,0.2,0,0.2,0
		c0.2-0.1,0.4-0.2,0.6-0.3c0,0.1,0,0.3,0,0.4c-0.2-0.1-0.4-0.1-0.6-0.1c-0.1,0-0.2,0-0.2,0.1c-0.1,0.1,0.1,0.1,0.1,0.2
		c0.2,0.3,0.5,0.5,0.8,0.7c0,0.2,0.1,0.4,0.1,0.5c0.1,0.2,0.2,0.3,0.4,0.3c0.2-0.1,0.4-0.2,0.4-0.4c0-0.5,0-1.1,0-1.6
		c0,0-0.1-0.1-0.1-0.1c-0.7,0.1-0.3-0.4-0.4-0.7c0.1,0,0.1-0.1,0.2-0.1c0.5-0.2,0.9-0.2,1.1,0.2c0.2,0.3,0.2,0.8-0.1,1.2
		c-0.1,0.2-0.2,0.3-0.4,0.5c-0.1,0.2-0.2,0.3,0,0.4c0.1,0.1,0.3,0.1,0.4-0.1c0.1-0.2,0.3-0.3,0.4-0.5c0.6-0.8,0.4-1.7-0.3-2.1
		c-0.4-0.2-0.9-0.1-1.4,0c0-0.1,0-0.2,0.2-0.2c0.6-0.1,1.1-0.2,1.7-0.3c0.2,0,0.2,0,0.2,0.2c0.1,1.6,0.1,3.2,0.2,4.8
		c0,0.1,0,0.3-0.2,0.3c-0.2,0-0.5,0.2-0.6-0.1c-0.1-0.1-0.1-0.3-0.2-0.4c-0.3,0.5-0.7,0.8-1.2,0.9c-1.1,0.2-1.9-0.2-2-1.4
		c-0.2-1.8-0.3-3.7-0.2-5.7c0.1-1.6,1.9-2.8,3.3-2.1c0.7,0.3,0.9,0.9,0.9,1.7C172.4,141.5,172.3,142,172.2,142.5z"/>
	<path fill="#FE0000" d="M180.4,142.5c0-1.4-0.1-2.8-0.2-4.1c0-0.3,0.1-0.4,0.4-0.4c0.9-0.1,1.9-0.3,2.8-0.5c0.3-0.1,0.4,0,0.4,0.3
		c0,0.3,0,0.7,0,1c0,0.3-0.1,0.4-0.4,0.5c-0.4,0.1-1,0-1.2,0.3c-0.3,0.3,0,0.8,0,1.3c0,0.4,0.1,0.5,0.5,0.4c0.4-0.1,0.9-0.3,1.1-0.1
		c0.2,0.2,0,0.7,0.1,1.1c0.1,0.5-0.1,0.6-0.6,0.7c-1.1,0.1-1.1,0.2-1,1.2c0,1,0,1,1,0.8c0.8-0.1,0.8-0.1,0.9,0.7
		c0,0.9,0,0.9-0.9,1.1c-0.8,0.1-1.6,0.3-2.4,0.4c-0.3,0.1-0.3,0-0.3-0.3C180.5,145.3,180.5,143.9,180.4,142.5z"/>
	<path fill="#FE0000" d="M154.7,147c0-1.4-0.1-2.8-0.2-4.2c0-0.3,0.1-0.4,0.4-0.4c0.9-0.1,1.9-0.3,2.8-0.5c0.3-0.1,0.4,0,0.4,0.3
		c0,0.3,0,0.7,0,1c0,0.3-0.1,0.4-0.3,0.4c-0.1,0-0.2,0-0.3,0c-0.4,0.1-0.9,0-1,0.3c-0.2,0.4,0,0.9,0,1.3c0,0.2,0.2,0.2,0.3,0.1
		c0.3-0.1,0.7-0.1,1-0.2c0.3-0.1,0.3,0,0.3,0.3c0,0.4,0,0.7,0,1.1c0,0.2,0,0.3-0.3,0.4c-0.3,0-0.7,0.1-1,0.2c-0.3,0-0.3,0.1-0.3,0.4
		c0.1,1.1,0.1,2.2,0.1,3.3c0,0.4-0.1,0.5-0.4,0.5c-0.4,0-1,0.3-1.3,0.1c-0.3-0.2-0.1-0.8-0.1-1.3C154.7,149.1,154.7,148.1,154.7,147
		z"/>
	<path fill="#FE0000" d="M176.2,140.4c0-0.5,0-1-0.1-1.5c0.9,0.3,1.1,0.7,0.9,1.7c0,0.2,0.1,0.3,0.2,0.4c0.2,0.1,0.2-0.1,0.3-0.2
		c0.2-0.5,0.3-1,0-1.4c-0.2-0.3-0.5-0.4-0.6-0.7c1-0.2,1-0.2,1,0.7c0.1,2.1,0.2,4.1,0.2,6.2c0,0.3,0.1,0.5,0.4,0.4
		c0.1,0,0.1,0,0.2,0c1.3-0.2,1.3-0.2,1.2,1.1c0,0.2,0,0.3-0.2,0.3c-1,0.2-2.1,0.3-3.1,0.5c-0.3,0.1-0.2-0.2-0.2-0.3
		c-0.1-1.8-0.1-3.6-0.2-5.3c0-0.4,0-0.7,0-1.1c0.5-0.2,0.8-0.6,0.8-1c0-0.1,0-0.2-0.1-0.2c-0.1,0-0.2,0.1-0.2,0.1
		C176.5,140.1,176.4,140.4,176.2,140.4z"/>
	<path fill="#FE0000" d="M175.5,142.3c0.1,1.8,0.1,3.6,0.2,5.3c0,0.2-0.1,0.3-0.3,0.3c-0.5,0.1-1,0.3-1.3,0.2
		c-0.3-0.2-0.1-0.8-0.1-1.3c0-0.9-0.1-1.8-0.1-2.7c0.2-0.1,0.2-0.2,0-0.3c0-0.8-0.1-1.6-0.1-2.3c0.5-0.1,0.7,0.3,1,0.5
		C175,142.2,175.2,142.4,175.5,142.3z"/>
	<path fill="#FE2727" d="M170.9,143.6c0.5-0.1,0.9-0.2,1.4,0c0.7,0.4,0.9,1.3,0.3,2.1c-0.1,0.2-0.3,0.3-0.4,0.5
		c-0.1,0.2-0.2,0.2-0.4,0.1c-0.2-0.1-0.1-0.2,0-0.4c0.1-0.1,0.3-0.3,0.4-0.5c0.3-0.4,0.3-0.9,0.1-1.2c-0.3-0.3-0.6-0.4-1.1-0.2
		c-0.1,0-0.1,0.1-0.2,0.1C170.9,144.1,170.9,143.8,170.9,143.6z"/>
	<path fill="#FE0000" d="M173.8,140.9c0-0.4,0-0.9-0.1-1.3c0-0.3,0-0.5,0.4-0.5c0.2,0,0.3,0,0.5-0.1c0,0.2-0.1,0.3-0.1,0.4
		c-0.2,0.9,0.2,1.7,1,1.7c0,0.2,0,0.4,0,0.5c-0.2,0-0.3-0.1-0.5-0.3C174.7,141.1,174.2,140.9,173.8,140.9z"/>
	<path fill="#FE2727" d="M176.9,138.6c0.1,0.3,0.4,0.4,0.6,0.7c0.3,0.5,0.2,0.9,0,1.4c-0.1,0.1-0.1,0.3-0.3,0.2
		c-0.2-0.1-0.3-0.1-0.2-0.4c0.2-1,0-1.4-0.9-1.7c0-0.1,0-0.2,0.1-0.2C176.5,138.7,176.7,138.6,176.9,138.6z"/>
	<path fill="#FE2727" d="M175.4,141.1c-0.8,0-1.2-0.8-1-1.7c0-0.1,0.1-0.3,0.1-0.4c0.2,0,0.4-0.1,0.7-0.1c0.1,0,0.2,0,0.2,0.2
		c-0.4,0.2-0.4,0.5-0.4,0.9c0,0.3,0.1,0.6,0.5,0.6C175.4,140.7,175.4,140.9,175.4,141.1z"/>
	<path fill="#FE2727" d="M173.8,140.9c0.5,0,0.9,0.2,1.3,0.5c0.1,0.1,0.2,0.3,0.5,0.3c0,0.2,0,0.4,0,0.6c-0.3,0.1-0.5-0.1-0.7-0.2
		c-0.3-0.2-0.5-0.7-1-0.5C173.8,141.3,173.8,141.1,173.8,140.9z"/>
	<path fill="#FE2727" d="M172.2,142.5c0.1-0.5,0.2-0.9,0.7-1.2c0,0.1,0.1,0.2,0.1,0.2C173.1,142.4,173.1,142.4,172.2,142.5z"/>
	<path fill="#FE2727" d="M170.5,146.4c-0.3-0.2-0.6-0.4-0.8-0.7c-0.1-0.1-0.2-0.1-0.1-0.2c0.1-0.1,0.2-0.1,0.2-0.1
		c0.2-0.1,0.4,0,0.6,0.1C170.6,145.7,170.6,146,170.5,146.4z"/>
	<path fill="#FE2727" d="M170.5,145c-0.2,0.1-0.4,0.2-0.6,0.3c-0.1,0-0.2,0.1-0.2,0c-0.1-0.1,0-0.2,0.1-0.2c0.2-0.3,0.4-0.6,0.7-0.8
		C170.5,144.4,170.5,144.7,170.5,145z"/>
	<path fill="#FE0000" d="M175.4,140.5c-0.4,0-0.4-0.3-0.5-0.6c0-0.3,0-0.7,0.4-0.9C175.4,139.5,175.4,140,175.4,140.5z"/>
	<path fill="#FE2727" d="M176.2,140.4c0.3-0.1,0.3-0.3,0.5-0.5c0.1-0.1,0.1-0.2,0.2-0.1c0,0,0.1,0.1,0.1,0.2c0.1,0.4-0.2,0.8-0.8,1
		C176.2,140.8,176.2,140.6,176.2,140.4z"/>
	<path fill="#FE2727" d="M178.1,135.4c0-0.2,0.1-0.5,0.2-0.7c0.1-0.1,0.1-0.3,0.3-0.3c0.2,0.1,0.3,0.2,0.2,0.4
		c-0.1,0.1-0.1,0.3-0.1,0.4C178.5,135.3,178.3,135.3,178.1,135.4z"/>
	<path fill="#FE2727" d="M173.9,143.9c0.2,0.1,0.2,0.2,0,0.3C173.9,144,173.9,143.9,173.9,143.9z"/>
	<path fill="#FEFEFE" d="M177.5,134.5c-5.5,1-11,1.9-16.5,2.9c0-0.2,0.1-0.2,0.2-0.3c2.2-1.8,4.7-2.8,7.4-3.1c0.3,0,0.4-0.1,0.4-0.4
		c-0.1-3.2-0.2-6.4-0.4-9.6c0-0.4,0.1-0.9-0.1-1.1c-0.2-0.2-0.7,0-1.1,0c-4.2,0.1-7.5-3.2-7.6-7.5c0-1,0-2.1,0-3.1
		c0-0.2,0.1-0.4,0.3-0.5c0.9-0.7,1.6-0.8,2.4-0.2c0.7,0.5,1.4,0.9,2.4,0.4c0.4-0.2,0.7-0.5,1-0.8c0.6-0.6,1-0.6,1.5-0.1
		c0.2,0.2,0.3,0.4,0.5,0.5c0.8,0.8,1.7,0.7,2.7-0.1c0.1,0,0.1-0.1,0.1-0.1c0.7-0.6,1.1-0.6,1.7-0.1c0.8,0.7,1.7,1,2.8,0.7
		c0.6-0.2,1.2-0.4,1.7-0.8c0.3,4.3-1.5,9.3-6.7,11c-0.3,0.1-0.4,0.3-0.4,0.6c0.1,3.5,0.3,6.9,0.4,10.4c0,0.4,0.1,0.4,0.5,0.3
		c2.4-0.6,4.6-0.4,6.6,0.7c0.1,0,0.1,0.1,0.1,0.1C177.5,134.4,177.5,134.5,177.5,134.5z"/>
	<path fill="#FEFEFE" d="M159.4,108.5c-0.1-1.6-0.1-3.1-0.2-4.6c0-0.2,0-0.3,0.2-0.3c0.1,0,0.2,0,0.3,0c5.5-0.9,10.9-1.9,16.4-2.9
		c0.4-0.1,0.5,0,0.5,0.4c0,2,0.1,3.9,0.2,5.9c0,0.3-0.1,0.5-0.3,0.7c-0.9,0.8-2.2,0.8-3,0c-0.9-0.9-1.5-0.9-2.7,0
		c-0.2,0.1-0.3,0.2-0.5,0.3c-0.5,0.3-0.9,0.3-1.3,0c-0.3-0.2-0.5-0.5-0.8-0.8c-0.8-0.6-1.7-0.6-2.5,0.2c-1.2,1.3-1.8,1.1-2.8,0.4
		C161.9,107.3,160.7,107.5,159.4,108.5z"/>
	<path fill="#FEFEFE" d="M160.6,143.9c0-0.1,0-0.3,0-0.4c0-0.1-0.1-0.3,0.1-0.4c0.2-0.1,0.5-0.1,0.6,0.2c0.1,0.3,0.1,0.7,0,1.1
		c-0.1,0.3-0.2,0.4-0.5,0.4c-0.3,0-0.2-0.2-0.2-0.4C160.6,144.2,160.6,144.1,160.6,143.9z"/>
	<path fill="#FEFEFE" d="M165.8,142.2c0.1,0.9,0.2,1.8,0.3,2.7c0.1,0.5,0.1,1,0.2,1.4c0.1,0.3-0.1,0.3-0.4,0.4
		c-0.2,0-0.4,0.1-0.4-0.3C165.7,145,165.7,143.6,165.8,142.2C165.8,142.2,165.8,142.2,165.8,142.2z"/>
</g>
</svg>
