<?xml version="1.0" encoding="utf-8"?>
<!-- Generator: Adobe Illustrator 18.0.0, SVG Export Plug-In . SVG Version: 6.00 Build 0)  -->
<!DOCTYPE svg PUBLIC "-//W3C//DTD SVG 1.1//EN" "http://www.w3.org/Graphics/SVG/1.1/DTD/svg11.dtd">
<svg version="1.1" id="Layer_1" xmlns="http://www.w3.org/2000/svg" xmlns:xlink="http://www.w3.org/1999/xlink" x="0px" y="0px"
	 viewBox="0 0 282.1 437.9" enable-background="new 0 0 282.1 437.9" xml:space="preserve">
<g>
	<path fill="#DB2626" d="M170.3,197.5c1.6,3.7,2.2,8.8,5,10.7c2.4,1.7,7.3-0.5,11.1-0.6c3.4-0.1,6.9,0.1,10.3,0.2
		c8.4,0.8,13.7,4.3,15.3,10.2c0,4-0.9,7.5-4.6,9.9c-2.2-1.2-1.2-2.9-0.6-4.5c1.7-4.9,0.4-7.2-4.8-8c-3.9-0.6-7.9-0.2-11.6,0.8
		c-5.4,1.4-6.3,7.9-2,12.9c1.7,2,5,3.1,4.3,6.7c-2.3,1.5-5,1.2-7.5,1.8c-4.3-2.1-5-3.5-6.3-11.1c0.5,18.8-9.6,30.3-29.3,32.8
		c-6.2,0.8-12.5,0.7-18.8-0.2c-12.3-1.7-17.9-6.5-23.8-19.7c-1.3,2.7-1.4,5.7-2.2,8.5c-1.1,3.7-1.8,6.8,2.9,9.3
		c3.6,1.9,2.8,6.9-1.5,8c-4.3,1.2-4.9,3.9-5,7.3c-0.1,6.7,0.2,13.3,1.9,19.8c4.5,17.9,15.8,26.8,34.6,27.7c4.9,0.2,9.8-0.7,14.7-0.6
		c1.4,0,2.3-0.2,2.9-2c1.9-5.5,3.2-6.1,7.7-3c2.5,1.7,4,0.5,5.8-0.5c9.2-5.3,14.5-13.5,17-23.7c2.6-10.2,1.9-20.6,1.2-31
		c-0.3-4-0.3-4,2.1-5.6c4.4,16.7,6.1,33.4-0.6,50c-2.6,6.5-6.5,12-12.4,16c-2.5,1.6-3.8,3.4-3.3,6.7c0.4,2.2,0.2,5.3-1.1,6.8
		c-4.3,5.1-1.7,9.2,0.9,13.6c2.3,3.9,3.8,8.1,4.9,12.5c1.4,5.9,1.4,11.4-4.5,14.9c-1.8,1.1-1.9,2.2-1.3,3.9c2,5.7,3,10.8-1.9,16.3
		c-2.4,2.7,1.3,6.2,4.1,8.4c-1.8,2.1-3.1,0.3-4.6-0.5c-2.5-4.4-6.1-4.7-10.9-4.2c-9.7,1-19.5,0.8-29.3,0.5c-4.7-0.1-8.5,0.7-11,4.9
		c-1.7,0.7-2.9,3.4-5.2,1.3c3.6-3.7,6.1-7.3,1.6-12.4c-3.2-3.7-2.2-8.5-1.3-13c0.4-1.9,1.3-3.6-1.1-5.1c-4.3-2.8-4.8-7.4-4.5-12
		c0.2-2.5,0.2-5.3,1.4-7.4c5.2-9.4,3.9-19.6,4-29.6c0-1.6-0.5-2.5-1.7-3.4c-15.2-11.5-16.9-27.7-15.7-44.9c0.6-9.2,2.2-18.3,5.3-27
		c1.5-4.1,0.2-4.9-3.7-5.8c-7.9-1.9-15.7-4.7-21.3-11.4c0.2-0.6,0.7-1.2,1.2-1c8.1,3,12.1-2.4,16-8c-1.2-1.7-3.7-1.3-5-2.8
		c-2.1-2.4-2.4-4.2,1.7-4.3c5.7-0.6,11.4-1.6,17.1-0.2c2.5,0.6,2.4-1.5,2.7-2.8c0.9-3.9,1.7-7.9,4.2-11.2c2.2-1.6,2.1,0.3,2.1,1.5
		c-0.1,2.8-1.1,5.4-1.9,8c-1.7,5.7-2.3,11.5-2,17.4c0.6,12.1,8.2,20,20.2,21.3c5.3,0.6,10.5,0.9,15.8,0.1c3.9-0.6,7.8-1,10-5
		c0.6-1,1.7-1.8,2.9-1.8c6.6-0.5,8.5-5.4,9.9-10.7c2.7-9.8,1.4-19.4-1.7-28.9c-0.6-1.9-1.7-3.6-1.5-5.6
		C168.3,197.5,168.6,196.1,170.3,197.5z"/>
	<path fill="#E73A36" d="M90.1,216.5c-3.3,1.6-2.4,3.1,0.3,4.1c1.6,0.6,3.5,0,5,1.3c1.2,1.1,2.7,2.2-0.1,3.1c-1.2,0.4-2.2,1-2.7,2
		c-3.6,7.3-9.3,8.3-16.3,5.6c-0.4-0.4-0.9-0.7-1.3-1.1c-2.1-1.9,0.4-6-3-7c-6.7-1.9-12.9-6.1-20.1-5.6c-10.7,0.7-18.8-4.2-26.2-10.9
		c-2.7-2.4-4-5.7-0.7-8.7c1.8-1.7,1.3-3.2,0.8-5.2c-2.8-10.3-3.7-20.8-0.9-31.3c0.7-2.7-0.2-3.8-2.2-5.1c-15.2-10-19.8-26.5-6.5-44
		c2-3.6,4.5-6.9,7.5-9.7C40.3,84.1,61.7,71,86,62.2c1.3-0.5,3.3-1.3,4.3,0.3c1.4,2.2-0.5,3.8-1.7,5.7c-13,20.2-25.5,40.5-28.7,65
		c-0.2,1.6-1.5,3.8,0.2,5c1.6,1.1,3.2-0.7,4.6-1.5c9-4.9,16.9-11.3,24.8-17.7c2.6-2.1,5.2-4.1,7.8-6.2c6.9,10.1-18.6,47.5-40,53.5
		c-3.1,3.2-6.8,2.1-10.5,1.8c-4.4-0.4-9.1-2.1-11.9,3.3c-2.8,5.3-0.2,9.3,2.8,13.4c3.1,4.2,6.8,7.1,12.4,5.8
		c2.6-0.6,4.4,1.2,6.5,1.8c4,0.9,7.4,2.5,8.8,6.8c0.7,2.1,2.6,2.7,4.2,3.8C76.5,207.5,83.8,211.3,90.1,216.5z"/>
	<path fill="#FD4D34" d="M189.2,253.7c-2.4,5.2,0,10.4,0,15.6c0,12.7-1,25-8.4,35.9c-3.2,4.6-7.5,7.9-12.3,10.7
		c-2.2,1.3-4.8,4-6.6-0.9c-0.5-1.5-2.6-1.6-4.1-0.6c-2.9,1.9-0.7,3.9,0.8,6.2c-11.9,0.6-22.9,2.4-33.8-1.2
		c-14.2-4.6-20.9-15-23.6-28.7c-1.5-7.7-1.6-15.4-1.1-23.3c0.2-3.2,1.8-2.8,3.8-2.8c2.4,0,4.4-0.9,4.8-3.4c0.4-2.7-1.5-4-3.9-4
		c-2.6,0-3-1.3-2.6-3.3c1.4-6.2,2.1-12.6,5.1-19.6c2.3,6.9,3.8,12.9,8.8,17.2c4.9,4.2,10.6,6.2,16.7,6.5c7.9,0.4,15.8,0.5,23.8-1.6
		c14.5-3.7,21.6-16.3,21-29.7c-0.1-1.8-1.3-3.8,0.8-6c2.8,5.6,1.7,12.7,6.9,16.9C186.6,242.9,187.9,248.3,189.2,253.7z"/>
	<path fill="#EE3C39" d="M212,218c-3.2-6.3-10.4-6.6-15.3-10.2c3.3-2.4,6.6-4.7,9.9-7.1c4.5-3.3,9.9-5.4,12.4-11.1
		c0.9-2,3.1-3.3,5.2-3.5c5.6-0.7,5.2-3.7,4-8c-1.4-5.3-1.2-10.8-0.4-16.2c0.3-2.2,1.1-4.7-1.9-6c-1-1.7,0.1-2.9,0.9-4.2
		c1.3-2.1,1.9-4.5,0.9-6.7c-2.2-4.5-2.5-9.2-2.7-14c-0.2-5.8-0.1-6.3,6.2-6.9c3,4.2,1.7,9,2.1,13.6c0.5,5.9,2.1,7.3,7.8,5.9
		c6.6-1.6,13.8-2.4,19.3-6.4c13.7-10.1,11.8-24.2,3.3-36.1c-11.6-16.2-28-25.9-45.4-34.3c-3.4-1.6-6.9-2.5-11.8-2.9
		c3.3,6.5,6.7,11.9,10.2,17.2c7.4,10.8,11.4,23.1,14.9,35.6c0.6,2.3,0.6,4.7-0.9,6.8c-2.3,0.7-4.6,0-6.9,0.1c-0.1-1-0.3-2-0.4-3.1
		c-0.1-1.7,4.2-4-0.6-5.1c-3.7-11.3-7.1-22.8-13.2-33.1c-5.1-8.6-10.5-17-15.7-25.5c-0.9-1.6-2.9-3.5-1.9-5.1
		c1.3-2.2,3.9-0.8,5.9-0.3c10,2.5,19.2,6.7,27.8,12.5c2.2,1.5,4.7,2.6,7,3.8c8,5.2,15.6,11,22.7,17.5c4.7,5.1,9.7,10,13.5,16
		c11.5,18,11.2,33-6.8,46.6c-2,1.5-2.1,2.9-1.9,4.9c-1.2,2.2-3.4,1.4-5.2,1.8c-5.9,1.3-11.2,3.4-14.7,8.8
		c-4.9,7.6-1.8,15.8,6.8,18.5c3.2,1,7.3,0.1,9.4,3.7c-1.2,2.8,0.8,3.6,2.6,4.9c4.7,3.2,5.5,6.2,1.5,9.9c-8,7.7-16.9,13.6-29.1,12.4
		C224.5,211.7,218.4,215.7,212,218z"/>
	<path fill="#FC5D3A" d="M170.3,197.5c-3.1,1.4-0.4,3,0.1,4.2c3.4,9.7,5.3,19.6,2.8,29.8c-1.6,6.6-2.7,13.7-12,13.5
		c-0.5,0-1.2,0.5-1.4,0.9c-2.1,6.8-8.2,5.7-13.1,6.2c-6.9,0.7-13.9,0.7-20.7-1.9c-12.7-4.7-15.1-14.7-15.2-23.7
		c0-7.1,1.4-13.9,3.7-20.6c0.4-1.2,2-2.7-0.3-3.8c2.8-10.1,9-18.5,14-27.5c6.2-1,7-5.5,7-10.6c0.4-1.3,0.8-2.6,2.2-3.3
		c3-2.9,5.6,0.1,8.4,0.5c2.5,0.5,2.7,2.6,3.4,4.5c1.4,7.6,1.4,7.7,9,5.4c-1.2,2.7-0.9,4.9,1.1,7.3
		C164,184.2,167.7,190.5,170.3,197.5z"/>
	<path fill="#FB342B" d="M118,402.6c1.6-4.5,4.6-5.4,9.4-5.4c12-0.1,24.1,0.9,36.1-1.1c4.5-0.8,4.2,3.1,6.2,4.7
		c0.2,0.6,0.2,1.2,0.4,1.7c1.3,3.6-0.7,7.8,3.9,10.9c2.8,1.8,1.6,6.6,0.9,10.2c0.1,3,1.7,7.1-1.3,8.6c-3.7,1.9-5.6-2.5-7.7-4.7
		c-2.6-2.6-4.7-5.7-7-8.6c0.2-1.3,1.2-2,2.6-3.2c-10.3,0.8-20.1,0.2-29.8,0.5c-3.2,0.1-6.2-0.4-9.1-1.7
		C117.8,412.1,116.1,407.6,118,402.6z"/>
	<path fill="#D3312C" d="M223.8,123.3c2.1-1.5,4.1-2.4,6.1,0.1c0.5,0,0.8,0.2,0.9,0.7c-1.1,1.8-5.2,1-4.6,2.7
		c1.5,4.5-1.3,9.6,1.1,13.2c4,6.1,2.4,10.8-1.4,15.7c-20.7-9.5-33.3-25.7-39.6-47.2c-0.5-1.8-1.5-4.2,0.4-5.4c1.6-1,3,1.3,4.3,2.2
		c9.3,7.1,18.1,14.9,28.4,20.7C223.5,128.4,224.5,127.6,223.8,123.3z"/>
	<path fill="#DE413A" d="M137.4,160.9c-0.3,1.3-0.3,2.6-1.4,3.5c-1.9,0.1-3.6-0.1-4.2-2.4c1.1-0.8,1.2-1.9,1.2-3.1
		c0.7-29.2-3.1-57.6-15.8-84.3C104.9,49.1,86.6,29.9,60,19.3c-0.9-0.4-1.7-0.9-2.6-1.4c-1.3-0.5-1.2-1.2-0.3-2
		c38.7,13.6,62.4,41,73.6,79.8C136.8,117,138,138.9,137.4,160.9z"/>
	<path fill="#DD413A" d="M147.9,165.9c-0.7-1.5-1.5-3-2.2-4.6c-3.2-31.3-2-62.2,10.1-91.8c8.4-20.4,21.6-37.1,40.4-49
		c2,2-0.2,2.7-1.2,3.7c-38.9,32.5-47.3,76.3-46,123.7c0.1,4.7-0.8,9.8,2,14.2C151.3,164.4,150.3,165.7,147.9,165.9z"/>
	<path fill="#FC653C" d="M56.7,192.3c-5.4-1.7-11.7,2.1-16.5-2.7c-6.1-6.2-11.3-13.1-5.8-20.5c2-2.6,4.1-3.7,7.4-3.2
		c5.1,0.7,10.3,2.2,15.5,0.4c-1.3,1.6-0.9,3.3-0.5,5C58.7,178.3,56.4,185.3,56.7,192.3z"/>
	<path fill="#FC683D" d="M256.3,185.2c-3.8-0.9-7.6-1.6-11.3-2.8c-8.3-2.6-11.4-12.5-6.6-19.8c5.1-7.9,12.8-10.1,21.6-10.3
		C263.7,163.8,260.7,174.6,256.3,185.2z"/>
	<path fill="#D81F24" d="M118,402.6c0.2,8.6,3.9,12.2,12.6,12.2c5.8-0.1,11.8-0.9,17.5-0.2c5.6,0.7,11.1-0.9,17.3-0.5
		c-2.1,2.6-4.3,3.7-6.5,4.8c-9.3-0.1-18.5-0.2-27.8-0.2c-0.3,0-0.6,0.4-0.9,0.6c-3.6,0-6.5-2.2-9.7-3.3c-2.6-0.9-3.6-0.5-3.3,2.4
		c0.2,2,0.7,4.3-2.1,5.3c-4.2,0.2-8.2,1.2-12.5,0.1c-2.4-0.6-5.3-0.3-5.9-3.5c-0.5-2.8,0.7-5.5,2.8-7.2c4.2-3.3,8.4-6.7,13.6-8.5
		C115.4,405.4,115.9,402.2,118,402.6z"/>
	<path fill="#EE3C39" d="M192.8,235.8c-2.3-4.3-8.1-6-8.5-11.9c-0.4-5.1,2.3-9,7.5-9.4c3.3-0.3,6.5-1,9.9-0.7
		c7.9,0.9,9.8,4.1,5.9,10.8c-0.7,1.2-0.5,2.2,0,3.3C203.3,232,198.4,234.5,192.8,235.8z"/>
	<path fill="#D81F24" d="M175,423.6c-1.6-2.3-0.2-5-0.9-7.5c-0.9-3.1-1.8-5.5-7.6-3.2c4.6-4.5,1.4-8.6,3.2-12.1
		c1.5,0.7,2.5,2.6,4.5,2c6,1.5,11.3,4.4,15.5,8.9c4.8,5.1,3.2,10.1-3.7,11.3C182.4,423.6,178.6,423.4,175,423.6z"/>
	<path fill="#DB2626" d="M115.1,423.8c0.3-1.3,1-2.6,1-3.9c-0.4-7.1-0.4-7.1,6.4-4.6c2.7,1,5.5,1.9,7.7,4c-1.8,4-3.6,8.1-5.5,12.1
		c-0.7,1.5-1.8,3.3-3.8,2.9c-1.9-0.3-2.6-2-3.1-3.8C117,428.3,117.4,425.5,115.1,423.8z"/>
	<path fill="#821F1D" d="M131.7,162c1.4,0.8,2.8,1.6,4.2,2.4c1.3,8.3-1.7,12.4-7.8,10.4C123.2,168.2,124.7,163.1,131.7,162z"/>
	<path fill="#7D1D19" d="M147.9,165.9c1-1.3,2.1-2.6,3.1-3.8c6.3-0.7,8.1,1.7,7.1,9.1c-1.9,1.6-2.9,5-6.4,3.5
		C147.8,172.9,147.8,169.4,147.9,165.9z"/>
	<path fill="#CE706D" d="M195,24.2c0.4-1.3,1.8-2.2,1.2-3.7c10.9-7.8,23.1-12.4,36.2-14.8C219.1,10.1,206.7,16.6,195,24.2z"/>
	<path fill="#D28E8C" d="M57.1,15.9c0.1,0.7,0.2,1.3,0.3,2c-7.9-2.2-15.9-4.3-23.8-6.5C41.8,11,49.6,12.9,57.1,15.9z"/>
	<path fill="#F24A41" d="M255.3,84.9c-7.6-5.8-15.1-11.6-22.7-17.5C241.1,71.9,248.7,77.7,255.3,84.9z"/>
	<path fill="#D3312C" d="M222.7,115.1c1.9,0.2,4.7-2,5.4,1c0.7,3.2-3.9,1.9-4.8,4.1C223.2,118.6,223,116.9,222.7,115.1z"/>
	<path fill="#F34941" d="M23.4,104.1c-2.5,3.2-5,6.5-7.5,9.7C17.6,109.9,20,106.6,23.4,104.1z"/>
	<path fill="#FD3E2F" d="M160.1,350.6c1.4-1.9-2.6-5.2,1.1-5.9c3.5-0.7,7.4,0.4,9.2,3.7c1.7,3.2,3.4,6.6,3.6,10.5
		c0.4,5.9-2,10.4-7.8,11.2c-15,2.2-30.2,2.6-45.3,0.2c-6.6-1-9.8-7.1-8.4-13.6c2.2-10.4,13.5-15.2,24-10.3c0.8,0.4,1.3,0.8,1.9,0
		c4.5-5.8,10.7-2.5,16.1-2.6C158.1,343.8,157.5,348.9,160.1,350.6z"/>
	<path fill="#FC392D" d="M167,388.9c-2.6,2.1-6.6,3-10.7,3.1c-8.9,0.2-17.9,0.3-26.8,0.2c-5.4-0.1-10.5-1.2-12.2-7.7
		c-1.4-5.6-0.1-6.9,5.6-6.8c13,0.1,26-0.3,39-0.4c2.3,0,5.2-2.4,6.8,0.6C170.7,381.3,169.9,384.9,167,388.9z"/>
	<path fill="#FB4332" d="M167.2,324.8c0.1,9.3-1.4,12.8-11.3,12.1c-10.3-0.8-20.6-1.5-30.9,0.6c-2.4,0.5-4.1-0.5-5.4-2.6
		c-1.5-2.4-1.3-5-0.6-7.4c0.5-1.9,2.2-0.6,3.5-0.3c10.6,2.1,21.2,2.9,32,1.4C158.7,328,162.8,326.7,167.2,324.8z"/>
	<path fill="#F34941" d="M46.8,154.9c-0.5,1.9-4.8-3.2-3.4,1.9c-0.7,0.1-1.5,0.5-2.2,0.3c-11.5-2.1-21.5-6.5-27.2-17.6
		c-4-7.8-1.3-15.3,2.6-22c3.5-6.1,7.7-12.2,12.9-16.6c4.9-4.2,9.1-9.3,15.8-12c6.8-2.6,12.2-8.8,19.4-11.4c3.3-1.2,6.5-2.5,9.9-3.7
		c1.3-0.4,2.8-0.7,3.9,0.4c1.3,1.3,0,2.5-0.5,3.7c-2.4,6.5-7.2,11.6-10.8,17.3c-8.4,13.3-12.8,27.7-14.4,43.1
		c-0.3,3.2-0.9,4.8-4.2,4.6c-3.6-2.2-1.8-6.4-4-10.1C42.2,141.1,41.9,148.2,46.8,154.9z"/>
	<path fill="#FBB273" d="M46.8,154.9c-6.6-4.7-7.6-17.7-1.6-23.9c3.1,3.5,1.7,8.2,3.4,12.1c0.1,1.1,0.3,2.2,0.4,3.4
		C50.7,149.8,51.1,153,46.8,154.9L46.8,154.9z"/>
	<path fill="#F34941" d="M46.8,154.9c2.4-2.4,1.8-5.6,2.2-8.5c2.7-0.7,5.2,0.1,4.4,3.1C52.6,152.2,52.4,157.2,46.8,154.9z"/>
	<path fill="#FC975D" d="M182.1,270.8c0,2.5,0.2,4.9,0.2,7.4c0.3,8-3.8,14.8-7.2,21.7c-0.3,0.7-1.2,1-1.7,1.6
		c-7.3,10.1-11.7,10.1-18.6-0.1c-1.9-2.8-3.2-5.7-4.5-8.8c-1.3-3.1-3-5.7,2-7c1.7-0.4,1.9-2.6,1.6-4.1c-0.4-2.2-2.2-3.7-4.2-3.4
		c-6.3,0.9-4.4-4-4.9-6.9c-0.6-3.7,0.5-6.5,5.1-6.8c1.7-0.1,3.3-1,5.1-1.4c1.3-0.3,2.8-0.8,2.5,1.7c-0.3,2.1,0.8,3.6,3,3.2
		c2.7-0.6,2-2.3,0.9-4c-1.8-3,0.6-3.3,2.5-3.6c4.4-0.8,8.6-2.2,12.8-3.8c0.4,2.6-1.7,4.6-1.9,7.2
		C174.6,269.1,176.4,271.1,182.1,270.8z"/>
	<path fill="#FBDE7C" d="M182.1,270.8c-3.9,3.3-7,2.6-8.2-2.2c-1.1-4.5-0.6-8.8,3-12.2c2.1-0.4,3.1,0.7,3.6,2.6
		C181.4,262.9,182.5,266.7,182.1,270.8z"/>
	<path fill="#DB2626" d="M115.2,311.3c-1.7-1.1-2.4-2.5-1-4.3c1.3-1.7,2.9-2.9,4.8-1.3c1.6,1.4,1.9,3.5,0.7,5.2
		C118.5,312.8,116.8,312.4,115.2,311.3z"/>
	<path fill="#F24A41" d="M230.8,124.1c-0.3-0.2-0.6-0.5-0.9-0.7c2.1-9.2-3.3-16.6-5.8-24.7c-3.7-11.9-12.2-21.2-17.9-32
		c-0.7-1.3-2.4-2.6-1.5-4.1c1.1-2,3.2-0.9,4.8-0.4c19.2,5.9,36,15.9,49.5,30.7c4.3,4.7,8.6,9.7,11.1,16.1c3.4,8.9,1.2,20.4-5.6,27
		c-5.8,5.6-13.2,6.5-20.3,8.2c-3.2,0.8-6.9,4.6-10.5,0c-1.3-1.6-2.1-2.8-2.1-5C231.6,134.2,231.1,129.2,230.8,124.1z"/>
	<path fill="#FCA767" d="M168.4,229.9c-3,8.7-13.6,16.3-22.5,16.7c-2.7,0.1-3.5-1.5-2.9-3.1c2.5-5.9-0.5-11.6-0.3-17.4
		c0.4-15.6-0.4-31.2-0.7-46.6c0.6-0.4,1-0.9,1.1-0.8c4.5,3.6,8,8.2,13.8,10.5c3.4,1.4,5.9,6.2,5.1,11c-0.4,2.3,1,4.1,1.9,6
		c1.9,4.1,4.1,8,4.5,12.6c0.2,2.7,1.4,5.5-3.3,4.9c-1.9-0.2-3.5,1.1-3.1,3.3C162.5,231.2,165.9,229.1,168.4,229.9z"/>
	<path fill="#DB2626" d="M122.7,243.7c-1.6,1.5-3.1,1.3-4.7,0c-1.1-0.9-1.9-2.3-0.8-3.5c1.3-1.4,3.1-1.5,4.7-0.5
		C123.5,240.6,123.6,242.1,122.7,243.7z"/>
	<path fill="#FAAD68" d="M256.9,162.7c2.1,1.9-0.3,14.7-2.9,15.7c-1.5,0.6-2.8,0.2-3.1-1.6c-0.8-5.1,0.6-9.6,3.6-13.7
		C255.1,162.3,255.9,161.7,256.9,162.7z"/>
	<path fill="#FB9358" d="M160,353.7c1.6-2.1,3.4-4.2,6.1-2.2c3.2,2.3,5,11.8,2.8,13.8c-3,2.7-5.8,0.7-8.2-1.3
		C156.6,360.7,156.4,358.1,160,353.7z"/>
	<path fill="#FBBB71" d="M264.9,129.9c-2.8,3.6-7.3,3.5-9.2-0.6c-3.8-8.6-3.8-17.8-2.1-26.9c0.4-2.2,2.2-4.4,5.2-2.1
		c6,4.6,10.1,21.5,6.8,28.3C265.5,129.1,265.1,129.6,264.9,129.9z"/>
	<path fill="#D94027" d="M156,227.6c-1.2,1.3-2.7,1.6-4.2,0.6c-1.5-1.1-1.7-2.7-0.5-4c1.4-1.6,3.1-1.4,4.6-0.1
		C157.2,225.1,157,226.3,156,227.6z"/>
</g>
</svg>
