<?xml version="1.0" encoding="utf-8"?>
<!-- Generator: Adobe Illustrator 18.0.0, SVG Export Plug-In . SVG Version: 6.00 Build 0)  -->
<!DOCTYPE svg PUBLIC "-//W3C//DTD SVG 1.1//EN" "http://www.w3.org/Graphics/SVG/1.1/DTD/svg11.dtd">
<svg version="1.1" id="Layer_1" xmlns="http://www.w3.org/2000/svg" xmlns:xlink="http://www.w3.org/1999/xlink" x="0px" y="0px"
	 viewBox="0 0 20 9.3" enable-background="new 0 0 20 9.3" xml:space="preserve">
<g>
	<path fill="#5A5A5A" d="M4.9,2.9L3,3.2L3,3.1l0.2-1.6L1.5,3.1L1,2.7l2.3-2.2L3.8,1L3.6,2.6l1.8-0.3L6,2.7L3.7,4.9L3.2,4.5L4.9,2.9z
		"/>
	<path fill="#5A5A5A" d="M7.5,6.2L5.8,5.5L5.2,5.8L4.6,5.5l3.4-1.7l0.6,0.3L8,7.1L7.4,6.8L7.5,6.2z M7.8,4.4L6.4,5.1l1.2,0.5
		L7.8,4.4z"/>
	<path fill="#5A5A5A" d="M12.8,6.2C12.6,6,12.3,5.8,12,5.7c-0.8-0.2-1.5,0.1-1.8,0.6C9.9,6.7,10,7.2,10.9,7.5c0.3,0.1,0.5,0.1,0.9,0
		L12.1,7l-0.9-0.2l0.3-0.4L13,6.8l-0.7,1.1c-0.5,0.2-1.1,0.2-1.7,0.1c-1.3-0.3-1.5-1.1-1-1.8C10,5.4,11.1,5,12.3,5.3
		c0.5,0.1,0.9,0.4,1.1,0.7L12.8,6.2z"/>
	<path fill="#5A5A5A" d="M13.4,8.4l1.4-2.5l0.7,0.1l-1.4,2.5L13.4,8.4z"/>
	<path fill="#5A5A5A" d="M19.3,8.3c-0.5,0.3-1.1,0.4-1.7,0.4c-1.5,0-1.8-0.6-1.6-1.3C16.3,6.7,17.3,6,18.7,6c0.5,0,1,0.1,1.3,0.4
		l-0.6,0.3c-0.2-0.2-0.5-0.2-0.9-0.2c-1,0-1.6,0.5-1.8,0.9c-0.2,0.4,0,0.9,1,0.9c0.4,0,0.8-0.1,1.1-0.3L19.3,8.3z"/>
</g>
</svg>
