<?xml version="1.0" encoding="utf-8"?>
<!-- Generator: Adobe Illustrator 18.0.0, SVG Export Plug-In . SVG Version: 6.00 Build 0)  -->
<!DOCTYPE svg PUBLIC "-//W3C//DTD SVG 1.1//EN" "http://www.w3.org/Graphics/SVG/1.1/DTD/svg11.dtd">
<svg version="1.1" xmlns="http://www.w3.org/2000/svg" xmlns:xlink="http://www.w3.org/1999/xlink" x="0px" y="0px"
	 viewBox="0 0 194 155" enable-background="new 0 0 194 155" xml:space="preserve">
<g id="Layer_1">
	<path fill="#AA3706" d="M184.7,64c-0.1,0.3-0.2,0.5-0.3,0.8c-0.9-1-2-1.8-3.1-2.4c-3.4-1.8-7.1-2.8-10.8-3.7
		c-7.5-1.8-15.2-2.4-22.8-2.5c-5.6,0-11.1,0.2-16.7,0.8c-3.6,0.4-7.3,0.8-10.9,1.3c-3.8,0.6-7.6,1.3-11.4,2.1
		c-5.3,1.1-10.5,2.4-15.6,4C91,65,89,66,86.8,66.3c0-0.2,0-0.4,0-0.5l0,0c0.4-0.1,0.9,0.2,1.1-0.4c0.1,0,0.1,0,0.2,0
		c0.9,0,1.8-0.1,2.5-0.9c0.1,0,0.1,0,0.2,0c1,0,1.9-0.2,2.7-0.9l0-0.1l0.1,0c0.5-0.1,1.1,0.4,1.4-0.4l0,0c0.5-0.2,1.2,0.4,1.6-0.5
		l0,0c0.5-0.1,1.1,0.3,1.4-0.4c0-0.1,0.1-0.1,0.2,0c0.4-0.1,1,0.3,1.2-0.4c15.2-4,30.7-6.3,46.4-6.4c10.4-0.1,20.7,0.8,30.6,4
		c2.3,0.8,4.6,1.7,6.7,3.1C183.6,62.9,184.3,63.3,184.7,64z"/>
	<path fill="#AA3706" d="M59.1,88.9c-0.2-0.3-0.3-1-0.8-0.3c-0.1-3.1,1.2-5.8,3.1-8.2c1.7-2.3,3.9-4.1,6.3-5.6
		c3.6-2.3,7.4-4.4,11.4-6c1.7-0.1,3-1.2,4.6-1.6c0.8-0.2,1.6-0.8,2.5-0.7c-2.5,1.1-5,2.1-7.4,3.2c-3.5,1.5-6.8,3.4-10,5.2
		c-2.3,1.3-4.2,3.1-5.9,5C60.6,82.6,59.1,85.4,59.1,88.9z"/>
	<path fill="#622F1E" d="M86.2,66.6c-0.9-0.2-1.7,0.5-2.5,0.7c-1.6,0.4-2.9,1.5-4.6,1.6c2.5-1.3,5.1-2.3,7.8-3.1c0,0.2,0,0.4,0,0.5
		C86.6,66.4,86.4,66.5,86.2,66.6z"/>
	<path fill="#622F1E" d="M90.6,64.4c-0.7,0.8-1.5,0.9-2.5,0.9C88.9,64.9,89.8,64.6,90.6,64.4z"/>
	<path fill="#622F1E" d="M93.6,63.5c-0.8,0.6-1.7,0.8-2.7,0.9C91.7,63.9,92.6,63.7,93.6,63.5z"/>
	<path fill="#622F1E" d="M96.7,62.6c-0.3,0.8-1,0.3-1.6,0.5C95.6,62.7,96.1,62.6,96.7,62.6z"/>
	<path fill="#622F1E" d="M95.1,63c-0.3,0.8-1,0.3-1.4,0.4C94.1,63.2,94.6,63,95.1,63z"/>
	<path fill="#622F1E" d="M98,62.2c-0.3,0.7-0.9,0.3-1.4,0.4C97.1,62.3,97.5,62.2,98,62.2z"/>
	<path fill="#E38047" d="M86.2,66.6c0.2-0.1,0.5-0.2,0.7-0.3C89,66,91,65,93.1,64.3c5.1-1.6,10.3-2.9,15.6-4
		c3.8-0.8,7.6-1.5,11.4-2.1c3.6-0.5,7.3-0.9,10.9-1.3c5.5-0.6,11.1-0.8,16.7-0.8c7.7,0,15.3,0.7,22.8,2.5c3.7,0.9,7.4,1.9,10.8,3.7
		c1.2,0.6,2.2,1.4,3.1,2.4c0.7,2,0.3,4,0.2,6c0,0.1-0.1,0.2-0.1,0.3c0,0.1,0,0.3,0,0.4c-0.2,0.4-0.4,0.4-0.7,0.1
		c-0.6-0.6-1.3-1-2-1.4c-2-1.2-4.3-1.5-6.5-2.1c-2.9-0.8-5.9-1.1-8.9-1.5c-3.2-0.4-6.4-0.5-9.6-0.7c-2.8-0.2-5.5-0.5-8.3-0.6
		c-4.3-0.1-8.7-0.1-13,0.1c-4,0.2-8.1,0.5-12.1,1c-6.5,0.8-12.9,2.6-19.1,4.6c-5.5,1.7-10.9,3.7-16.2,6c-6,2.6-11.8,5.5-17.2,9.2
		c-3.8,2.6-7.3,5.5-9.5,9.7c-1.3-2.1-2.1-4.4-2.2-7c-0.1-3.5,1.5-6.3,3.6-8.9c1.7-2,3.6-3.7,5.9-5c3.3-1.9,6.6-3.7,10-5.2
		C81.2,68.7,83.7,67.7,86.2,66.6z M141.9,63.2c2.6,0,4.7,0.1,6.7,0c1,0,2.1-0.1,2.6-1.2c0.5-1,0.2-2-0.5-2.7
		c-0.7-0.8-1.7-1.2-2.8-1.2c-5.7,0.1-11.4-0.1-17.1,0.2c-4.4,0.2-8.7,0.9-13,1.7c-6.8,1.3-13.4,3.2-20.1,5.1
		c-5.1,1.4-10.2,3.2-15.2,5c-6.1,2.2-11.6,5.4-16.1,10.1c-1.4,1.5-2.4,3.2-2.7,5.3c-0.1,0.9,0.1,1.8,0.9,2.4
		c0.7,0.5,1.2-0.1,1.5-0.5c1.8-1.8,3.9-3.1,6.1-4.5c4.5-2.9,9.1-5.4,14-7.6c2.6-1.2,5.4-2.1,8.1-3.2c4.1-1.6,8.3-3,12.6-4.2
		c3.8-1.1,7.8-1.9,11.7-2.6c4.8-0.9,9.6-1.5,14.4-1.9C136.1,63.2,139.3,63.1,141.9,63.2z"/>
	<path fill="#AA3706" d="M61.4,95.9c2.2-4.2,5.7-7.1,9.5-9.7c5.4-3.7,11.2-6.6,17.2-9.2c5.3-2.3,10.7-4.3,16.2-6
		c6.3-1.9,12.6-3.8,19.1-4.6c4-0.5,8-0.8,12.1-1c4.4-0.2,8.7-0.2,13-0.1c2.8,0.1,5.5,0.4,8.3,0.6c3.2,0.2,6.4,0.3,9.6,0.7
		c3,0.4,6,0.7,8.9,1.5c2.2,0.6,4.5,0.9,6.5,2.1c0.7,0.4,1.4,0.8,2,1.4c0.3,0.3,0.5,0.3,0.7-0.1c0.4,0.8-0.2,1.2-0.6,1.8
		c-0.5-1.2-1.5-1.9-2.7-2.4c-3.5-1.6-7.3-2.4-11.1-2.9c-14.3-2.2-28.6-2.4-43-1.1c-9,0.8-17.5,3.2-26,6c-9.6,3.2-19,7.1-27.7,12.5
		c-3.4,2.1-6.5,4.4-9.1,7.5c-1,1.1-1.6,2.4-2.3,3.6C61.7,96.4,61.4,96.2,61.4,95.9z"/>
	<path fill="#E38047" d="M141.9,63.2c-2.6-0.1-5.8,0-9,0.3c-4.8,0.4-9.6,1-14.4,1.9c-3.9,0.7-7.8,1.5-11.7,2.6
		c-4.2,1.2-8.4,2.5-12.6,4.2c-2.7,1.1-5.4,2-8.1,3.2c-4.8,2.2-9.5,4.7-14,7.6c-2.1,1.4-4.2,2.7-6.1,4.5c-0.4,0.4-0.9,1-1.5,0.5
		c-0.8-0.6-1-1.4-0.9-2.4c0.3-2,1.3-3.8,2.7-5.3c4.5-4.8,10-7.9,16.1-10.1c5-1.8,10-3.6,15.2-5c6.7-1.9,13.3-3.8,20.1-5.1
		c4.3-0.8,8.6-1.5,13-1.7c5.7-0.3,11.4-0.1,17.1-0.2c1.1,0,2.1,0.5,2.8,1.2c0.7,0.7,1,1.7,0.5,2.7c-0.5,1.1-1.6,1.2-2.6,1.2
		C146.6,63.3,144.5,63.2,141.9,63.2z"/>
	<g>
		<path fill="#A5B4C4" d="M73,107c-14-24.2-5.5-73.7,38.6-80.8c1.5-0.2,3-0.2,4.5-0.2c2,3.9,6.9,5.5,8,10.1c-2,1.1-2.1,2.9-1.9,4.7
			c0.4,3.7,6.4,8.8,10.9,9.3c1.6,2.7,2.4,5.9,5,8c-2.6,1.7-5.2,3.4-7.7,5.2c-1.3,0.9-2.1,2.3-0.8,3.8c1.1,1.3,2.4,0.7,3.5,0
			c1.7-1,3.3-2,5-3.1c1,0.8,1,1.9,1,3c-5.2,3.8-5.2,6.1,0,9.5c-0.4,3-0.7,6-1.1,9c-11.5-2.1-22.2-0.5-31.8,6.4
			c10-3.8,20.1-6.5,30.9-3.8c-0.4,0.9-0.9,1.8-1.3,2.7c-7.3,15.8-17.3,29.1-33.5,36.9c-0.9,0.4-1.5,1.7-2.2,2.6
			c-11.5-3.6-20.3-10.5-26-21.2c0.6-0.3,1.1-0.7,1.7-0.9c5.3-1.9,7.7-6,6-10.3c-1.5-3.8-5.5-4.8-10.9-2.8c0.2,0.2,0.4,0.7,0.6,0.7
			c3.3,0.2,6.6,0.9,7.4,4.6c0.8,3.7-3,4.3-5,6.1C73.6,106.7,73.2,106.9,73,107z M94.5,91c3.7,0,7.2-3.1,7.3-6.6
			c0.1-3.6-3.2-7.2-6.7-7.3c-4.2-0.2-7.1,2.6-7.2,7C87.8,88.4,90.3,91,94.5,91z M106,40.5c0.4-3.4-1.9-5.1-4.1-6.9
			c-0.7-0.5-1.6-0.7-2.2,0.1c-0.6,0.8-0.2,1.5,0.4,2.1c0.9,0.9,2.2,1.8,2.6,2.9c1,3,0,5.5-2.7,7.2c-2.5,1.5-5,1.1-6.8-0.9
			c-2-2.3-1.1-4.5,0.9-6.6c0.8-0.8,2.6-1.8,1-3.1c-1.4-1-2.8,0-3.9,1.2c-0.3,0.4-0.6,0.8-0.8,1.3c-1.3,3.2-2.1,6.5,0.7,9.2
			c2.3,2.3,5.2,4,8.5,2.4C103.2,47.7,106.3,45.3,106,40.5z M107,108.3c0-4.1-2.3-5.6-6-5.3c-3.7,0.3-7.1,1-6.9,5.8
			c0.1,3.8,2.9,6.3,6.8,6.2C105.1,114.8,107,112.4,107,108.3z M99.9,58.3c-0.8,0-2.4-0.3-2.8,1.4c-0.5,2.1,1.4,2.4,2.8,2.7
			c3.9,1,7.6,2.5,11.1,4.4c1.5,0.8,3.2,1.7,4.2-0.5c0.9-2-0.5-3-2.1-3.9C109.2,60.1,104.9,58.9,99.9,58.3z M77.1,60.9
			c0.4-0.3,1.1-0.5,1.4-1c2.8-3.9,4.4-8.5,7.7-12.1c0.6-0.7,0.2-1.6-0.4-2.2C85,44.8,84,45,83.1,45.7c-3.9,3.3-6.8,7.3-8,12.3
			C74.8,59.2,75,60.6,77.1,60.9z M82.9,80c3.5,0.1,5.2-2,5.8-5c0.4-2.3-1.3-4.1-3.5-3.7c-2.6,0.5-6.4,0.1-6.2,4.7
			C79.1,78.7,80.2,80.1,82.9,80z M104.5,67.2c-2.7,0.5-4.4,1.9-4.3,4.6c0.1,2.9,1.9,4.6,4.8,4.3c2.7-0.2,4.2-1.9,4-4.6
			C108.8,68.8,107.1,67.4,104.5,67.2z M93.5,118c-1.5,0-2.6,0.3-2.3,1.6c0.6,3.1,3.2,3.9,5.9,4.3c1.5,0.2,3-0.8,2.5-2.2
			C98.6,118.8,95.2,119.4,93.5,118z M77.1,66.2c-0.1-1.2,0.4-3.2-1.5-3c-2.7,0.2-3.1,2.6-3.4,4.8c-0.2,1.5,0.4,2.9,2.1,2.7
			C77.1,70.6,76.7,68.1,77.1,66.2z M121.9,76.9c1.8-0.1,2.8-1.1,2.9-2.8c0.1-2-1.1-3.1-3-3.1c-1.8,0-2.8,0.9-2.8,2.7
			C118.9,75.6,119.9,76.7,121.9,76.9z"/>
		<path fill="#889BB0" d="M99.9,130.2c0.7-0.9,1.3-2.1,2.2-2.6c16.2-7.8,26.2-21.1,33.5-36.9c0.4-0.9,0.9-1.8,1.3-2.7
			c0.9-0.7,1.1-1.6,1-2.7c0.4-3,0.7-6,1.1-9c2.9-0.2,5.1-1.3,5.1-4.7c0-3.3-2.2-4.4-5.1-4.8c0-1.1,0-2.2-1-3c0.5-0.3,1.1-0.7,1.6-1
			c1.8-1,5-1.4,4.5-3.7c-0.5-2.2-3.6-1.3-5.6-1.2c-0.2,0-0.3,0-0.5,0c-2.6-2.1-3.4-5.3-5-8c-1.8-5.5-3.8-10.8-9-14
			c-1.1-4.6-6-6.2-8-10.1c18.6-2.5,35.1,2.1,47.2,16.6c13.9,16.6,18.1,36.2,11.4,57.2c-6.9,21.6-23.4,31.6-44.8,34.2
			C119.7,135.1,109.5,134.7,99.9,130.2z M142.9,84.3c0.1,4.5,2.4,6.8,6.7,6.8c4.3,0,7.5-3.1,7.3-7c-0.2-3.8-3.8-7.2-7.6-7.1
			C145.5,77.2,142.8,80.2,142.9,84.3z"/>
		<path fill="#95A8B9" d="M73,107c0.3-0.2,0.6-0.3,0.9-0.5c2-1.8,5.7-2.5,5-6.1c-0.8-3.8-4.1-4.4-7.4-4.6c-0.2,0-0.4-0.4-0.6-0.7
			c5.3-2.1,9.4-1.1,10.9,2.8c1.7,4.3-0.7,8.4-6,10.3c-0.6,0.2-1.1,0.6-1.7,0.9C73.6,108.4,73.3,107.7,73,107z"/>
		<path fill="#889BB0" d="M94.5,91c-4.2,0-6.7-2.6-6.6-6.9c0.1-4.4,3-7.2,7.2-7c3.6,0.2,6.8,3.7,6.7,7.3
			C101.7,87.9,98.2,91.1,94.5,91z"/>
		<path fill="#95A8B9" d="M106,40.5c0.4,4.8-2.8,7.3-6.5,9c-3.3,1.6-6.2-0.1-8.5-2.4c-2.8-2.7-2.1-6-0.7-9.2
			c0.2-0.5,0.5-0.9,0.8-1.3c1-1.2,2.5-2.3,3.9-1.2c1.7,1.3-0.2,2.3-1,3.1c-1.9,2-2.9,4.3-0.9,6.6c1.8,2,4.3,2.4,6.8,0.9
			c2.7-1.7,3.7-4.2,2.7-7.2c-0.4-1.1-1.7-2-2.6-2.9c-0.6-0.6-1-1.3-0.4-2.1c0.6-0.8,1.6-0.6,2.2-0.1C104,35.4,106.4,37.1,106,40.5z"
			/>
		<path fill="#95A8B9" d="M107,108.3c-0.1,4.1-1.9,6.5-6.2,6.7c-3.9,0.2-6.7-2.3-6.8-6.2c-0.1-4.8,3.3-5.5,6.9-5.8
			C104.7,102.7,107.1,104.2,107,108.3z M103.8,108.5c-0.4-2.2-2-2.4-3.7-2.5c-1.6,0-3.1,0.3-2.9,2.4c0.2,2,1.4,3.5,3.5,3.3
			C102.5,111.6,103.5,110.2,103.8,108.5z"/>
		<path d="M99.9,58.3c5,0.6,9.3,1.8,13.2,4.1c1.5,0.9,3,1.9,2.1,3.9c-1,2.2-2.7,1.4-4.2,0.5c-3.5-1.9-7.2-3.4-11.1-4.4
			c-1.4-0.4-3.2-0.7-2.8-2.7C97.5,58,99.1,58.3,99.9,58.3z"/>
		<path d="M137.9,85.4c0.1,1,0,2-1,2.7c-10.8-2.8-20.9,0-30.9,3.8C115.7,84.9,126.4,83.3,137.9,85.4z"/>
		<path fill="#889BB0" d="M77.1,60.9c-2.1-0.2-2.3-1.6-2-3c1.3-5,4.1-9,8-12.3c0.8-0.7,1.8-0.8,2.7-0.1c0.7,0.6,1.1,1.5,0.4,2.2
			c-3.4,3.6-5,8.2-7.7,12.1C78.2,60.4,77.5,60.6,77.1,60.9z"/>
		<path fill="#95A8B9" d="M123.9,36c5.2,3.3,7.3,8.6,9,14c-4.5-0.5-10.6-5.6-10.9-9.3C121.9,38.9,122,37.1,123.9,36z"/>
		<path d="M138,58c0.2,0,0.3,0,0.5,0c2-0.1,5.1-0.9,5.6,1.2c0.5,2.3-2.7,2.7-4.5,3.7c-0.6,0.3-1.1,0.7-1.6,1c-1.7,1-3.4,2-5,3.1
			c-1.2,0.7-2.4,1.4-3.5,0c-1.2-1.5-0.5-2.9,0.8-3.8C132.8,61.4,135.4,59.7,138,58z"/>
		<path fill="#95A8B9" d="M82.9,80c-2.7,0.1-3.8-1.3-3.9-3.9c-0.2-4.6,3.5-4.3,6.2-4.7c2.2-0.4,3.9,1.3,3.5,3.7
			C88.1,78,86.4,80.1,82.9,80z"/>
		<path d="M139,66.9c2.9,0.4,5.1,1.6,5.1,4.8c0,3.3-2.2,4.5-5.1,4.7C133.8,73,133.8,70.7,139,66.9z"/>
		<path d="M104.5,67.2c2.6,0.3,4.3,1.6,4.5,4.3c0.2,2.7-1.3,4.4-4,4.6c-3,0.2-4.8-1.4-4.8-4.3C100.1,69.1,101.9,67.6,104.5,67.2z"/>
		<path fill="#889BB0" d="M93.5,118c1.7,1.4,5.1,0.8,6.1,3.7c0.5,1.4-1.1,2.4-2.5,2.2c-2.6-0.4-5.3-1.2-5.9-4.3
			C90.9,118.3,92,117.9,93.5,118z"/>
		<path fill="#889BB0" d="M77.1,66.2c-0.3,1.9,0,4.4-2.8,4.5c-1.7,0.1-2.3-1.3-2.1-2.7c0.3-2.2,0.7-4.6,3.4-4.8
			C77.5,63.1,76.9,65,77.1,66.2z"/>
		<path fill="#889BB0" d="M121.9,76.9c-2-0.2-3-1.3-3-3.2c0-1.8,1-2.7,2.8-2.7c2,0.1,3.1,1.1,3,3.1
			C124.7,75.8,123.7,76.8,121.9,76.9z"/>
		<path fill="#A5B4C4" d="M142.9,84.3c-0.1-4.1,2.6-7.1,6.4-7.3c3.8-0.2,7.4,3.2,7.6,7.1c0.2,3.9-3,7-7.3,7
			C145.3,91.1,143,88.7,142.9,84.3z"/>
		<path fill="#A5B4C4" d="M103.8,108.5c-0.3,1.8-1.3,3.1-3.1,3.2c-2.1,0.1-3.3-1.4-3.5-3.3c-0.2-2.1,1.3-2.4,2.9-2.4
			C101.8,106,103.4,106.3,103.8,108.5z"/>
	</g>
	<g>
		<path fill="#622F1E" d="M184.7,64c0.5,0.3,0.7,0.9,0.9,1.4c1.5,5,3.1,10.1,4.1,15.3c0.4,1.9,0,3.6-0.9,5.3c-2.6,5.1-6.5,9-11,12.4
			c-5.5,4.2-11.6,7.4-17.7,10.7c-9.6,5.2-19.2,10.5-28,17c-7,5.2-13.2,11.2-18.8,17.8c-2,2.3-4.2,4.2-7.4,4.8
			c-4.1,0.8-8.2-3-7.5-7.2c0.4-2.3,1.5-4.3,2.8-6.2c3.7-5.2,8.5-9.2,13.7-12.9c6-4.2,12.3-8,18.5-11.8c0.2-0.1,0.5-0.3,0.7-0.4
			c-1.1-1.4-2.3-1.5-3.9-1.1c-4.6,1.4-9.1,3-13.7,4.5c-2.9,0.9-5.7,1.8-8.6,2.6c-4.7,1.4-9.5,2.8-14.4,3.6
			c-8.9,1.5-17.3,0.3-25.1-4.4c-2-1.2-3.9-2.5-5.7-4.1c-1.8-1.7-3.1-3.6-3.2-6.4c-0.1-4.9-0.7-9.9-1.1-14.8c0-0.3,0.1-0.6-0.1-0.9
			c0-0.2,0-0.4,0-0.6c0.6-0.8,0.6,0,0.8,0.3c0.1,2.5,0.9,4.8,2.2,7c0.1,0.4,0.3,0.5,0.7,0.6c-0.1,0.4,0.1,0.8,0.4,1.1
			c1.7,2.3,3.7,4.5,6.1,6.1c1.6,1.1,3.3,2.2,5.1,3c4.5,2,9.2,2.7,14.1,2.4c4.8-0.4,9.5-1.2,14.2-2.3c9.2-2.1,18.1-5,26.9-8.3
			c0.6-0.2,0.7-0.6,0.8-1.1c0.4-2.5,1.8-4.2,4.3-4.7c3.8-0.9,7.6-1.8,11.4-2.5c3.2-0.7,5.9,1.2,6.6,4.3c0.3,1.4,0.7,2.7,0.9,4.1
			c0.1,0.8,0.4,0.9,1,0.5c2.7-1.6,5.5-3,8.1-4.6c5.5-3.2,10.9-6.6,15.5-11.2c2.5-2.5,4.8-5.3,6.1-8.7l0.1,0l0-0.1
			c0.1-0.4,0.1-0.8,0.2-1.1c0.4-0.5,1-1,0.6-1.8c0-0.1,0-0.3,0-0.4c0-0.1,0.1-0.2,0.1-0.3c0.2-2,0.5-4-0.2-6
			C184.5,64.5,184.6,64.3,184.7,64z M69.4,114.8L69.4,114.8c0,0.2,0.1,0.3,0.3,0.4c3.7,2,7.6,3.4,11.8,4c2.9,0.4,5.8,0.5,8.8,0.2
			c4.1-0.5,8.1-1.5,12.1-2.5c2.7-0.7,5.4-1.6,8.1-2.4c3.3-0.9,6.4-2.2,9.7-3c1.7-0.4,3.5-1.2,5.2-1.8c1.9-0.7,3.7-1.3,5.7-1.6
			c1.2-0.2,2.5-0.2,3.7-0.7c0.4-0.2,1-0.3,0.9-0.8c-0.1-0.9-0.3-1.8-0.7-2.6c-0.3-0.6-0.9-0.3-1.4-0.3c-0.7,0-0.9-0.5-0.9-1
			c0-0.6-0.3-1.5,0.7-1.6c0.9-0.1,0.7-0.5,0.6-1c-0.1-0.7-0.3-1.3-0.5-1.9c-0.2-0.6-0.7-0.9-1.2-0.6c-2,1.2-4.1,2-6.3,2.9
			c-1.7,0.7-3.6,1.2-5.3,1.8c-1.8,0.7-3.6,1.4-5.5,1.9c-1.9,0.5-3.8,1.2-5.7,1.7c-3.5,0.9-7,1.6-10.4,2.4c-1.9,0.5-3.9,0.7-5.8,1.1
			c-3.5,0.7-7,0.6-10.5,0.5c-1.5,0-2.9-0.4-4.2-0.7c-0.7-0.2-1.4-0.2-2.1-0.5c-1.4-0.5-2.8-1.3-4.3-1.5c-0.1-0.3-0.3-0.4-0.7-0.4
			l0,0c-0.2-0.4-0.7-0.6-1-0.8c-2.7-1.4-4.9-3.4-6.9-5.6c-1.5-1.6-2.6-3.5-3.8-5.6c0,0.8-0.1,1.4,0,2c0.5,2.7,0.6,5.5,0.7,8.3
			c0.1,2.9,1.6,4.6,3.6,6.2c1.4,1.2,2.9,2.2,4.4,3.2C68.6,114.7,69,114.8,69.4,114.8z M99.5,139.8c-1.7,3.4,0.2,7.1,3.6,8
			c2.5,0.7,4.9-0.1,6.8-1.6c2.8-2.3,5-5.2,7.4-7.9c1.9-2.1,3.8-4.1,5.9-6c2.6-2.3,5.4-4.6,8.2-6.7c3.1-2.4,6.5-4.5,9.8-6.7
			c2.9-1.9,6-3.6,9-5.3c3.9-2.2,7.8-4.3,11.8-6.5c2.3-1.3,4.7-2.4,6.9-3.8c3.4-2.1,6.8-4.2,9.9-6.8c2.6-2.2,5-4.6,7-7.3
			c0.9-1.1,1.5-2.4,2.2-3.7c0.9-1.6,1.2-3.1,0.9-4.9c-0.6-3-1.3-5.9-2.1-8.8c-0.3-1-0.4-2.1-1.1-3.2c-0.3,1.4-0.5,2.6-0.7,3.7
			c-0.7,3.2-2.3,5.8-4.3,8.3c-3.1,3.8-6.9,6.9-10.9,9.6c-2.7,1.9-5.6,3.6-8.5,5.3c-3,1.7-6,3.3-8.9,5c-1.2,0.7-2.6,1.1-3.6,2.2
			c-0.2,0.1-0.5,0.3-0.7,0.4c-0.4,0-0.8-0.1-0.9,0.4c-4.3,2.1-8.3,4.6-12.4,7c-2.5,1.5-5,3-7.5,4.5c-4.2,2.5-8.2,5.1-12.2,7.9
			c-3.5,2.5-6.9,5.2-9.8,8.3C102.8,133.9,100.7,136.5,99.5,139.8z M137.8,107.5c0.7,0,1.2-0.2,1.8-0.5c3.2-1.8,6.5-3.7,9.7-5.5
			c0.6-0.3,0.7-0.7,0.5-1.3c-0.3-1.3-0.6-2.7-0.9-4c-0.6-2.5-2.3-3.6-4.8-3.1c-1.5,0.3-3,0.7-4.6,1c-1.3,0.3-2.6,0.5-3.9,0.9
			c-0.7,0.2-1.4,0.6-1.9,1.3c-0.4,0.6,0.5,0.5,0.6,1.1c0.1,0.8,0.4,1.6,0.6,2.3c0.2,0.9,0.6,0.8,1.2,0.7c1.8-0.4,3.6-0.7,5.3-1.2
			c1.9-0.5,3.9-0.5,5.5-1.8c0.3-0.3,0.8-0.3,1.2,0.2c0.6,0.8,0.5,1.8-0.3,2.4c-0.7,0.6-1.5,0.9-2.4,1.1c-3,0.6-5.9,1.3-8.9,2
			c-0.5,0.1-0.6,0.3-0.5,0.8c0.3,0.9,0.6,1.8,0.7,2.7C136.8,107.4,137.2,107.5,137.8,107.5z M150.6,93.1c-1.1-1.9-2.9-2.8-4.9-2.4
			c-3.9,0.8-7.8,1.7-11.7,2.5c-1.6,0.4-2.7,1.4-3.4,3c-0.1,0.3-0.3,0.6-0.1,0.8c0.3,0.3,0.8,0.2,1,0c0.3-0.2,0.5-0.5,0.7-0.8
			c0.6-1,1.4-1.6,2.6-2c3.1-0.9,6.4-1.4,9.5-2.2C146.6,91.4,148.7,91.4,150.6,93.1z M134.4,103c-0.1,0,0.1,0,0.4-0.1
			c3.7-0.8,7.3-1.8,11-2.4c0.7-0.1,1.2-0.5,1.7-1c0.4-0.4,0.4-0.8,0.1-1.2c-0.4-0.5-0.6,0-0.9,0.1c-0.5,0.3-1,0.6-1.5,0.7
			c-1.8,0.4-3.6,0.8-5.3,1.2c-1.9,0.4-3.8,0.9-5.8,1.3c-0.6,0.1-0.7,0.5-0.7,1C133.4,103,133.8,103,134.4,103z M150.6,100.9
			c0.5-0.6,1.4-0.5,1.3-1.2c-0.2-1.7-0.7-3.4-1.8-4.9c-0.1-0.2-0.3-0.3-0.6-0.2c-0.3,0.1-0.2,0.3-0.1,0.6
			C150.1,96.9,150.2,98.8,150.6,100.9z"/>
		<path fill="#AA3706" d="M58.3,89.2c0.2,0.3,0.1,0.6,0.1,0.9C58.3,89.9,58.3,89.6,58.3,89.2z"/>
		<path fill="#AA3706" d="M148,103.2c0.2-0.1,0.5-0.3,0.7-0.4c0.7,0.1,1.3-0.6,2-0.4c-1.3,0.8-2.6,1.6-3.9,2.3
			c-8.2,4.6-16.2,9.3-24.1,14.3c-4.9,3.2-9.8,6.5-14.1,10.5c-2.3,2.1-4.3,4.4-5.9,7c-0.4,0.3-0.7,0.6-0.7,1.1c0,0.1-0.1,0.1-0.1,0.2
			c0,0,0.1-0.1,0.1-0.1c0.4-0.3,0.6-0.6,0.7-1.1c0.2-0.2,0.5-0.3,0.6-0.5c3-3.9,6.7-7,10.6-10c5.5-4.1,11.3-7.7,17.2-11.4
			c7.3-4.6,14.9-8.8,22.3-13.3c0.3-0.2,0.9-0.3,0.9-0.9l0,0c0.8,0,1.3-0.3,1.8-0.9l0,0c0.5-0.1,0.9-0.3,1.1-0.7l0,0
			c0.1-0.1,0.2-0.2,0.2-0.2c0.3-0.5,0.8-0.8,1.3-0.9c0.9-0.3,1.7-0.8,2.6-1.3c2.8-1.6,5.4-3.5,8.7-4.1c1.8-0.3,3.6,0.3,4.2,1.7
			c0.6,1.6,0.6,2.9-1.1,4.4c-1.5,1.3-3.2,2.2-5,3.1c-4.4,2.2-8.8,4.4-13.2,6.7c-3.7,1.9-7.4,3.9-11,6c-3.8,2.1-7.4,4.3-10.9,6.8
			c-5.1,3.7-10,7.5-14.2,12.3c-1.9,2.2-3.7,4.5-5.8,6.6c-2.1,2.1-4.2,4-7.2,4.7c-3.7,0.8-6.1-1.1-6.3-4.8c1.2-3.3,3.3-5.9,5.6-8.4
			c2.9-3.2,6.3-5.9,9.8-8.3c4-2.8,8-5.4,12.2-7.9c2.5-1.5,5-3,7.5-4.5c4.1-2.4,8.1-4.9,12.4-7C147.4,103.6,147.9,103.8,148,103.2z
			 M163.3,102.3c0.9,0,1.5-0.7,1.5-1.6c0-0.9-0.7-1.5-1.6-1.5c-0.9,0-1.4,0.6-1.4,1.6C161.8,101.5,162.6,102.3,163.3,102.3z
			 M149.5,109.2c0-1-0.7-1.3-1.5-1.5c-0.7-0.1-1.4,0.7-1.4,1.6c0,0.8,0.7,1.5,1.5,1.5C148.9,110.8,149.6,110,149.5,109.2z
			 M170.7,97.9c1,0,1.6-0.6,1.6-1.4c0-0.7-0.8-1.5-1.5-1.4c-0.8,0.1-1.4,0.6-1.5,1.4C169.2,97.3,169.8,97.8,170.7,97.9z
			 M140.5,114.8c1,0,1.5-0.5,1.5-1.4c0-0.9-0.5-1.3-1.4-1.3c-1,0-1.4,0.6-1.4,1.4C139.1,114.4,139.6,114.9,140.5,114.8z
			 M155.7,106.4c1,0,1.5-0.4,1.4-1.4c-0.1-0.8-0.5-1.4-1.4-1.3c-0.9,0-1.4,0.6-1.4,1.6C154.3,106.2,154.9,106.4,155.7,106.4z
			 M101.7,138.1C101.6,138.1,101.6,138.1,101.7,138.1c-0.2,0-0.2,0.1-0.1,0.1C101.6,138.2,101.6,138.2,101.7,138.1
			C101.7,138.2,101.7,138.1,101.7,138.1z"/>
		<path fill="#AA3706" d="M99.5,139.8c0.1,3.8,2.6,5.6,6.3,4.8c3-0.6,5.1-2.6,7.2-4.7c2.1-2.1,3.9-4.4,5.8-6.6
			c4.2-4.8,9.1-8.6,14.2-12.3c3.5-2.5,7.1-4.7,10.9-6.8c3.6-2,7.3-4.1,11-6c4.4-2.3,8.8-4.5,13.2-6.7c1.8-0.9,3.5-1.8,5-3.1
			c1.7-1.5,1.7-2.7,1.1-4.4c-0.6-1.5-2.3-2.1-4.2-1.7c-3.3,0.6-5.9,2.5-8.7,4.1c-0.8,0.5-1.6,1-2.6,1.3c-0.5,0.2-1,0.4-1.3,0.9
			c-0.1,0.1-0.2,0.2-0.2,0.2l0,0c-0.5,0.1-1,0.1-1.1,0.7l0,0c-0.7,0-1.3,0.3-1.8,0.9l0,0c-1,0.3-1.9,0.9-2.9,1.4
			c-0.1,0.1-0.2,0.1-0.2,0.2c-0.1,0.2-0.3,0.2-0.5,0.3c-0.7-0.1-1.3,0.5-2,0.4c1-1,2.4-1.5,3.6-2.2c3-1.7,6-3.3,8.9-5
			c2.9-1.6,5.7-3.4,8.5-5.3c4-2.8,7.8-5.8,10.9-9.6c2-2.5,3.7-5.1,4.3-8.3c0.2-1.2,0.5-2.3,0.7-3.7c0.7,1.1,0.9,2.2,1.1,3.2
			c0.8,2.9,1.6,5.9,2.1,8.8c0.3,1.7,0,3.3-0.9,4.9c-0.7,1.3-1.3,2.5-2.2,3.7c-2.1,2.7-4.4,5.1-7,7.3c-3.1,2.6-6.6,4.6-9.9,6.8
			c-2.2,1.4-4.6,2.6-6.9,3.8c-3.9,2.2-7.9,4.3-11.8,6.5c-3,1.7-6.1,3.4-9,5.3c-3.3,2.2-6.6,4.3-9.8,6.7c-2.8,2.1-5.6,4.4-8.2,6.7
			c-2.1,1.8-4,3.9-5.9,6c-2.4,2.7-4.6,5.6-7.4,7.9c-1.9,1.6-4.3,2.3-6.8,1.6C99.7,146.9,97.8,143.2,99.5,139.8z M178.4,92.5
			c0.8,0,1.5-0.7,1.5-1.3c0-0.7-1.1-1.9-1.6-1.7c-0.7,0.3-1.4,0.8-1.4,1.7C176.8,91.8,177.6,92.5,178.4,92.5z"/>
		<path fill="#AA3706" d="M71.4,106.8c0.3,0,0.5,0.2,0.7,0.4c0,0.2,0,0.3,0,0.5C67,105.4,63,101.9,60.2,97c0,0.8,0,0.9,0.4,1.7
			c2.6,5.2,7.1,8.3,12.2,10.7c2.6,1.2,5.5,1.6,8.4,1.9c3.6,0.4,7.1,0.5,10.7-0.1c-1.7,0-3.4,0-5.1,0c0.2-0.6,0.7-0.4,1.1-0.4
			c3.3-0.1,6.5-0.7,9.7-1c1.8-0.2,3.6-0.6,5.4-0.5c1.3,0.1,2.3,0.5,2.8,1.8c0.5,1.2,0,2.1-0.9,3c-1.2,1.3-2.7,1.7-4.2,2.1
			c-3.7,1.1-7.6,1.8-11.4,2c-5.7,0.3-11.4,0-16.8-2.3c-1-0.4-1.9-1.2-3.1-1.1l0,0c-0.2-0.7-0.6-0.7-1.1-0.5c-1.5-1-3-2-4.4-3.2
			c-1.9-1.6-3.4-3.3-3.6-6.2c-0.1-2.7-0.2-5.5-0.7-8.3c-0.1-0.6,0-1.2,0-2c1.2,2.1,2.3,4,3.8,5.6c2,2.2,4.2,4.2,6.9,5.6
			C70.8,106.2,71.2,106.4,71.4,106.8C71.4,106.8,71.4,106.9,71.4,106.8C71.4,106.9,71.4,106.8,71.4,106.8z"/>
		<path fill="#AA3706" d="M69.4,114.8c1.2-0.1,2.1,0.6,3.1,1.1c5.4,2.2,11.1,2.6,16.8,2.3c3.9-0.2,7.7-0.9,11.4-2
			c1.5-0.4,3.1-0.9,4.2-2.1c0.8-0.9,1.3-1.8,0.9-3c-0.5-1.2-1.6-1.7-2.8-1.8c-1.8-0.1-3.6,0.4-5.4,0.5c-3.2,0.3-6.4,1-9.7,1
			c-0.4,0-0.9-0.2-1.1,0.4c-1.9-0.2-3.8-0.3-5.7-0.6c-3.1-0.5-6.2-1.3-9-2.9c0-0.2,0-0.3,0-0.5c1.5,0.2,2.9,1,4.3,1.5
			c0.7,0.3,1.4,0.3,2.1,0.5c1.4,0.4,2.8,0.7,4.2,0.7c3.5,0,7.1,0.1,10.5-0.5c1.9-0.4,3.9-0.6,5.8-1.1c3.5-0.8,7-1.6,10.4-2.4
			c1.9-0.5,3.8-1.2,5.7-1.7c1.9-0.5,3.7-1.2,5.5-1.9c1.8-0.7,3.6-1.1,5.3-1.8c2.1-0.9,4.3-1.8,6.3-2.9c0.6-0.3,1,0,1.2,0.6
			c0.2,0.6,0.4,1.3,0.5,1.9c0.1,0.5,0.2,0.9-0.6,1c-0.9,0.1-0.7,1-0.7,1.6c0,0.6,0.2,1,0.9,1c0.5,0,1.1-0.3,1.4,0.3
			c0.4,0.8,0.6,1.7,0.7,2.6c0.1,0.5-0.5,0.7-0.9,0.8c-1.2,0.4-2.5,0.5-3.7,0.7c-2,0.3-3.8,1-5.7,1.6c-1.7,0.6-3.5,1.4-5.2,1.8
			c-3.3,0.8-6.5,2.1-9.7,3c-2.7,0.8-5.4,1.7-8.1,2.4c-4,1-8,2-12.1,2.5c-3,0.4-5.9,0.2-8.8-0.2c-4.2-0.5-8.1-2-11.8-4
			C69.5,115.2,69.4,115,69.4,114.8z M132.7,107.2c0.1,0,0.2,0,0.3,0c0.9-0.1,1.4-0.5,1.5-1.4c0.1-0.9-0.4-1.1-1.2-1.1
			c-0.5,0-0.7-0.3-0.8-0.8c-0.4-1.3,0.1-2.5,0.3-3.7c0.1-0.4,0.3-0.9-0.1-1.1c-0.5-0.3-1-0.6-1.6-0.2c-0.4,0.3-1,0.4-0.9,1.1
			c0.4,2.1,0.5,4.2,1.2,6.3C131.6,106.9,132,107.3,132.7,107.2z"/>
		<path fill="#EFA671" d="M150.6,93.1c-1.9-1.7-4-1.7-6.3-1.1c-3.1,0.8-6.4,1.3-9.5,2.2c-1.2,0.3-2,1-2.6,2
			c-0.2,0.3-0.4,0.6-0.7,0.8c-0.3,0.2-0.7,0.3-1,0c-0.3-0.2-0.1-0.5,0.1-0.8c0.7-1.5,1.7-2.6,3.4-3c3.9-0.9,7.8-1.7,11.7-2.5
			C147.7,90.3,149.5,91.2,150.6,93.1z"/>
		<path fill="#EFA671" d="M134.4,103c-0.7,0.1-1,0-1.1-0.4c-0.1-0.5,0.1-0.8,0.7-1c1.9-0.4,3.8-0.8,5.8-1.3c1.8-0.4,3.6-0.7,5.3-1.2
			c0.5-0.1,1-0.5,1.5-0.7c0.3-0.1,0.6-0.6,0.9-0.1c0.3,0.4,0.3,0.9-0.1,1.2c-0.5,0.5-1,0.9-1.7,1c-3.7,0.6-7.3,1.6-11,2.4
			C134.6,102.9,134.4,103,134.4,103z"/>
		<path fill="#E38047" d="M150.6,100.9c-0.4-2.1-0.5-3.9-1.2-5.7c-0.1-0.2-0.1-0.5,0.1-0.6c0.2-0.1,0.4,0.1,0.6,0.2
			c1,1.5,1.5,3.1,1.8,4.9C152,100.4,151.1,100.3,150.6,100.9z"/>
		<path fill="#AA3706" d="M68.3,114.4c0.5-0.3,0.9-0.2,1.1,0.5C69,114.8,68.6,114.7,68.3,114.4z"/>
		<path fill="#AA3706" d="M148,103.2c-0.1,0.6-0.5,0.4-0.9,0.4C147.2,103.1,147.6,103.2,148,103.2z"/>
		<polygon fill="#AA3706" points="183.6,74.5 183.6,74.4 183.6,74.4 183.7,74.5 		"/>
		<path fill="#AA3706" d="M184.4,71.1c0-0.1,0.1-0.2,0.1-0.3C184.5,70.9,184.5,71,184.4,71.1z"/>
		<path fill="#AA3706" d="M151.4,101.9c1-0.4,1.8-1.1,2.9-1.4c0,0.6-0.6,0.7-0.9,0.9c-7.4,4.5-14.9,8.7-22.3,13.3
			c-5.8,3.7-11.6,7.3-17.2,11.4c-3.9,2.9-7.6,6.1-10.6,10c-0.1,0.2-0.4,0.3-0.6,0.5c0,0-0.1-0.1-0.1-0.1c1.6-2.7,3.7-4.9,5.9-7
			c4.3-4,9.2-7.3,14.1-10.5c7.9-5.1,15.9-9.8,24.1-14.3c1.3-0.7,2.6-1.5,3.9-2.3c0.2,0,0.4-0.1,0.5-0.3
			C151.2,102,151.3,101.9,151.4,101.9z"/>
		<path fill="#622F1E" d="M163.3,102.3c-0.7,0-1.5-0.7-1.5-1.5c0-1,0.5-1.6,1.4-1.6c0.9,0,1.5,0.6,1.6,1.5
			C164.8,101.6,164.2,102.3,163.3,102.3z"/>
		<path fill="#622F1E" d="M149.5,109.2c0,0.8-0.6,1.5-1.4,1.6c-0.8,0-1.4-0.6-1.5-1.5c0-0.8,0.6-1.7,1.4-1.6
			C148.8,107.9,149.5,108.2,149.5,109.2z"/>
		<path fill="#622F1E" d="M170.7,97.9c-0.9,0-1.5-0.6-1.4-1.5c0.1-0.8,0.6-1.3,1.5-1.4c0.8-0.1,1.5,0.7,1.5,1.4
			C172.3,97.3,171.7,97.9,170.7,97.9z"/>
		<path fill="#622F1E" d="M140.5,114.8c-0.9,0.1-1.4-0.5-1.4-1.3c0-0.8,0.4-1.4,1.4-1.4c0.9,0,1.3,0.5,1.4,1.3
			C142,114.4,141.5,114.9,140.5,114.8z"/>
		<path fill="#622F1E" d="M155.7,106.4c-0.8,0-1.4-0.2-1.4-1.1c0-1,0.5-1.5,1.4-1.6c0.9,0,1.4,0.5,1.4,1.3
			C157.2,105.9,156.7,106.4,155.7,106.4z"/>
		<path fill="#AA3706" d="M154.3,100.5c0.5-0.6,1.1-0.9,1.8-0.9C155.6,100.2,155,100.5,154.3,100.5z"/>
		<path fill="#AA3706" d="M156.1,99.6c0.2-0.6,0.6-0.6,1.1-0.7C156.9,99.4,156.5,99.6,156.1,99.6z"/>
		<path fill="#AA3706" d="M102,137.6c0-0.5,0.3-0.8,0.7-1.1c0,0,0.1,0.1,0.1,0.1C102.7,137,102.5,137.4,102,137.6L102,137.6z"/>
		<path fill="#E38047" d="M101.7,138.1C101.7,138.1,101.7,138.2,101.7,138.1c0,0.1-0.1,0.1-0.1,0.1
			C101.4,138.2,101.5,138.1,101.7,138.1C101.6,138.1,101.6,138.1,101.7,138.1z"/>
		<path fill="#E38047" d="M157.2,99c0.1-0.1,0.2-0.2,0.2-0.2C157.3,98.8,157.2,98.9,157.2,99z"/>
		<path fill="#E38047" d="M102.1,137.6c0,0-0.1,0.1-0.1,0.1C101.9,137.7,102,137.6,102.1,137.6C102,137.6,102.1,137.6,102.1,137.6z"
			/>
		<path fill="#622F1E" d="M178.4,92.5c-0.9,0-1.6-0.7-1.6-1.4c0.1-0.9,0.7-1.4,1.4-1.7c0.5-0.2,1.6,1,1.6,1.7
			C179.9,91.8,179.2,92.5,178.4,92.5z"/>
		<path fill="#BD4C07" d="M151.4,101.9c-0.1,0.1-0.2,0.1-0.2,0.2C151.2,102,151.3,101.9,151.4,101.9z"/>
		<path fill="#AA3706" d="M72.1,107.7c2.8,1.5,5.9,2.3,9,2.9c1.9,0.3,3.8,0.4,5.7,0.6c1.7,0,3.4,0,5.1,0c-3.6,0.6-7.1,0.5-10.7,0.1
			c-2.9-0.3-5.8-0.7-8.4-1.9c-5.1-2.3-9.6-5.4-12.2-10.7c-0.4-0.8-0.4-0.9-0.4-1.7C63,101.9,67,105.4,72.1,107.7z"/>
		<path fill="#AA3706" d="M71.4,106.8C71.4,106.8,71.4,106.9,71.4,106.8C71.4,106.9,71.4,106.8,71.4,106.8L71.4,106.8z"/>
		<path fill="#BD4C07" d="M132.7,107.2c-0.7,0.1-1.1-0.3-1.3-0.9c-0.8-2-0.8-4.2-1.2-6.3c-0.1-0.7,0.4-0.8,0.9-1.1
			c0.6-0.4,1.1-0.1,1.6,0.2c0.4,0.2,0.2,0.7,0.1,1.1c-0.3,1.2-0.8,2.4-0.3,3.7c0.2,0.5,0.4,0.8,0.8,0.8c0.8,0,1.3,0.2,1.2,1.1
			c-0.1,0.9-0.6,1.3-1.5,1.4C132.9,107.2,132.8,107.2,132.7,107.2z"/>
	</g>
	<path fill="#FFFFFF" d="M74.6,39.7c0,0,0.8,7.9,10,14.6c0,0-13.5-1.7-20.9-8.8C63.8,45.5,71.6,43.4,74.6,39.7z"/>
</g>
<g id="english" display="none">
	<ellipse display="inline" fill="#FFFFFF" cx="43" cy="26.1" rx="40.4" ry="23.3"/>
	<text transform="matrix(1.1223 0 0 1 14.6729 23.748)" display="inline"><tspan x="0" y="0" fill="#889BB0" font-family="'GillSansMT-BoldCondensed'" font-size="17.1194">$</tspan><tspan x="8.7" y="0" fill="#889BB0" font-family="'Lobster1.4'" font-size="17.1194">h</tspan><tspan x="17.4" y="0" fill="#889BB0" font-family="'GillSansMT-BoldCondensed'" font-size="17.1194">!</tspan><tspan x="22" y="0" fill="#889BB0" font-family="'Lobster1.4'" font-size="17.1194">t my </tspan><tspan x="7.3" y="17.1" fill="#889BB0" font-family="'Lobster1.4'" font-size="17.1194">belt...</tspan></text>
</g>
<g id="spanish">
	<ellipse fill="#FFFFFF" cx="43" cy="26.1" rx="40.4" ry="23.3"/>
	<g>
		<path fill="#889BB0" d="M16.6,21.5v1.9c-0.9,0.3-1.7,0.5-2.5,0.5c-1.3,0-2.3-0.4-3.2-1.2C10.1,22,9.7,21,9.7,19.8
			c0-1.2,0.4-2.2,1.3-3c0.8-0.8,1.9-1.2,3.2-1.2c0.7,0,1.5,0.2,2.4,0.5v1.9c-0.6-0.3-1.2-0.5-1.8-0.5c-0.6,0-1.1,0.2-1.5,0.6
			c-0.4,0.4-0.6,0.9-0.6,1.6c0,0.7,0.2,1.2,0.6,1.7c0.4,0.4,0.9,0.6,1.6,0.6C15.4,22,16,21.9,16.6,21.5z"/>
		<path fill="#889BB0" d="M25.8,21.7v1.4c-0.9,0.5-1.7,0.8-2.3,0.8c-0.8,0-1.3-0.4-1.4-1.1c-0.8,0.7-1.7,1.1-2.6,1.1
			c-0.6,0-1.2-0.2-1.6-0.6c-0.4-0.4-0.7-0.9-0.7-1.4c0-0.7,0.3-1.2,1-1.7c0.7-0.5,1.9-1,3.7-1.5v-0.3c0-0.7-0.4-1.1-1.1-1.1
			c-0.9,0-1.9,0.4-3,1.2v-1.8c1.1-0.7,2.3-1.1,3.7-1.1c2.2,0,3.2,0.8,3.2,2.3v3.2c0,0.4,0,0.6,0,0.7c0,0.1,0.1,0.1,0.2,0.1
			C25.2,22,25.4,21.9,25.8,21.7z M21.9,21.7v-1.9c-0.8,0.3-1.4,0.5-1.7,0.7c-0.3,0.2-0.5,0.5-0.5,0.8c0,0.3,0.1,0.5,0.3,0.6
			c0.2,0.2,0.4,0.2,0.7,0.2C21,22.2,21.5,22.1,21.9,21.7z"/>
		<path fill="#889BB0" d="M34.6,17.1h-1.8c0.6,0.6,0.9,1.2,0.9,1.9c0,0.6-0.2,1.1-0.7,1.7s-1.5,0.9-3,1c-0.6,0-1,0.1-1.1,0.2
			c-0.1,0.1-0.2,0.2-0.2,0.3c0,0.1,0.1,0.3,0.3,0.3c0.2,0.1,0.7,0.1,1.4,0.2c1.7,0,2.9,0.3,3.4,0.8c0.5,0.5,0.8,1,0.8,1.6
			c0,0.8-0.4,1.4-1.1,1.8c-0.8,0.5-1.8,0.7-3.3,0.7c-1.4,0-2.5-0.2-3.2-0.6s-1.1-0.9-1.1-1.5c0-0.9,0.7-1.5,2-1.7v0
			c-0.9-0.2-1.3-0.7-1.3-1.3c0-0.7,0.5-1.1,1.5-1.3c-1.1-0.6-1.7-1.5-1.7-2.5c0-0.9,0.4-1.6,1.1-2.1c0.7-0.6,1.7-0.8,2.9-0.8h4.2
			V17.1z M30.3,24.4c-0.6,0-1.1,0.1-1.5,0.3c-0.4,0.2-0.5,0.4-0.5,0.7c0,0.6,0.7,1,2,1c1.3,0,2-0.3,2-0.9
			C32.3,24.8,31.6,24.4,30.3,24.4z M30.1,17.2c-0.8,0-1.2,0.5-1.2,1.6c0,1.1,0.4,1.7,1.2,1.7c0.8,0,1.2-0.6,1.2-1.7
			C31.4,17.7,31,17.2,30.1,17.2z"/>
		<path fill="#889BB0" d="M43.2,21.7v1.4c-0.9,0.5-1.7,0.8-2.3,0.8c-0.8,0-1.3-0.4-1.4-1.1c-0.8,0.7-1.7,1.1-2.6,1.1
			c-0.6,0-1.2-0.2-1.6-0.6c-0.4-0.4-0.7-0.9-0.7-1.4c0-0.7,0.3-1.2,1-1.7c0.7-0.5,1.9-1,3.7-1.5v-0.3c0-0.7-0.4-1.1-1.1-1.1
			c-0.9,0-1.9,0.4-3,1.2v-1.8c1.1-0.7,2.3-1.1,3.7-1.1c2.2,0,3.2,0.8,3.2,2.3v3.2c0,0.4,0,0.6,0,0.7c0,0.1,0.1,0.1,0.2,0.1
			C42.6,22,42.9,21.9,43.2,21.7z M39.4,21.7v-1.9c-0.8,0.3-1.4,0.5-1.7,0.7c-0.3,0.2-0.5,0.5-0.5,0.8c0,0.3,0.1,0.5,0.3,0.6
			c0.2,0.2,0.4,0.2,0.7,0.2C38.5,22.2,38.9,22.1,39.4,21.7z"/>
		<path fill="#889BB0" d="M44,23.7v-7.9h2.6v3h0c0.6-2.1,1.4-3.1,2.4-3.1c0.5,0,1,0.2,1.6,0.5L50,18.4c-0.4-0.3-0.8-0.4-1.2-0.4
			c-0.6,0-1.2,0.4-1.5,1.3c-0.4,0.9-0.6,1.9-0.6,3.2v1.2H44z"/>
		<path fill="#889BB0" d="M57.1,23.7v-7.9h2.8v1.2h0c0.7-0.9,1.6-1.4,2.6-1.4c1.2,0,2,0.5,2.5,1.6c0.6-1.1,1.5-1.6,2.7-1.6
			c0.8,0,1.5,0.2,2,0.7s0.8,1.2,0.8,2.1v5.3h-2.8v-4.3c0-0.8-0.1-1.3-0.2-1.6c-0.2-0.2-0.4-0.4-0.8-0.4c-0.6,0-1.1,0.4-1.6,1.1v5.1
			h-2.8v-4.7c0-1-0.3-1.6-1-1.6c-0.5,0-1.1,0.4-1.6,1.2v5.1H57.1z"/>
		<path fill="#889BB0" d="M72.1,13.3c0-0.4,0.2-0.7,0.5-1s0.7-0.4,1.1-0.4c0.4,0,0.8,0.1,1.1,0.4c0.3,0.3,0.4,0.6,0.4,1
			c0,0.4-0.1,0.7-0.4,1c-0.3,0.3-0.7,0.4-1.1,0.4c-0.4,0-0.8-0.1-1.1-0.4C72.2,14,72.1,13.7,72.1,13.3z M72.2,23.7v-7.9H75v7.9H72.2
			z"/>
		<path fill="#889BB0" d="M12.9,36.1c0-0.3,0-0.6,0.1-1c0.1-0.3,0.1-0.7,0.3-1.1s0.3-0.8,0.5-1.2c0.2-0.4,0.4-0.7,0.7-1.1
			c0.3-0.4,0.6-0.7,0.9-0.9c0.3-0.3,0.7-0.5,1.2-0.6c0.5-0.2,1-0.2,1.5-0.2c0.8,0,1.3,0.1,1.7,0.4c0.3,0.3,0.5,0.7,0.5,1.1
			c0,0.4-0.1,0.7-0.3,0.9c-0.2,0.2-0.4,0.3-0.7,0.3c-0.2,0-0.4-0.1-0.7-0.2c0.2-0.4,0.2-0.7,0.2-1c0-0.5-0.2-0.7-0.5-0.7
			c-0.4,0-0.8,0.3-1.2,0.9c-0.4,0.6-0.7,1.3-0.9,2c-0.2,0.8-0.4,1.5-0.4,2.1c0,0.6,0.1,0.9,0.3,1.1c0.2,0.2,0.6,0.3,1.1,0.3
			c0.5,0,0.9-0.1,1.4-0.2c0.4-0.2,0.8-0.4,1.1-0.6s0.6-0.5,1-0.9h0.7c-1.5,2.1-3.2,3.2-5.3,3.2c-0.9,0-1.7-0.2-2.2-0.7
			C13.1,37.7,12.9,37.1,12.9,36.1z"/>
		<path fill="#889BB0" d="M19.9,36.8c0-0.3,0.1-0.7,0.2-1.1l1.3-5.5h2.8L22.7,36c0,0.2-0.1,0.4-0.1,0.6c0,0.2,0.1,0.4,0.2,0.5
			s0.3,0.1,0.6,0.1c0.4,0,0.7-0.1,1-0.4c0.3-0.3,0.6-0.6,0.7-1.1h0.8c-0.2,0.5-0.5,1-0.7,1.4c-0.3,0.4-0.6,0.7-0.8,0.9
			c-0.3,0.2-0.6,0.4-0.9,0.5c-0.3,0.1-0.6,0.2-0.8,0.3s-0.5,0.1-0.7,0.1c-0.6,0-1.1-0.2-1.5-0.5C20,38,19.9,37.5,19.9,36.8z
			 M21.7,27.9c0-0.4,0.1-0.7,0.4-1c0.3-0.3,0.7-0.4,1.1-0.4c0.4,0,0.7,0.1,0.9,0.4c0.3,0.3,0.4,0.6,0.4,1c0,0.4-0.1,0.7-0.3,1
			c-0.2,0.3-0.6,0.4-1,0.4c-0.4,0-0.8-0.1-1.1-0.4C21.8,28.6,21.7,28.3,21.7,27.9z"/>
		<path fill="#889BB0" d="M23.9,38.7l2-8.6h2.8l-0.2,0.9c0.6-0.6,1.4-1,2.2-1c0.6,0,1.2,0.2,1.6,0.5c0.4,0.3,0.6,0.8,0.6,1.5
			c0,0.5-0.2,1.3-0.5,2.4c-0.3,1.1-0.5,1.8-0.5,2.1c0,0.5,0.3,0.7,0.8,0.7c0.4,0,0.7-0.1,0.9-0.4c0.2-0.2,0.5-0.6,0.7-1.2h0.8
			c-0.2,0.5-0.4,1-0.7,1.4c-0.3,0.4-0.5,0.7-0.7,0.9c-0.2,0.2-0.5,0.4-0.8,0.5c-0.3,0.1-0.5,0.2-0.7,0.3c-0.2,0-0.4,0.1-0.7,0.1
			c-0.8,0-1.4-0.2-1.7-0.6c-0.4-0.4-0.6-0.8-0.6-1.4c0-0.4,0.1-1.1,0.4-2.2c0.3-1.1,0.4-1.8,0.4-2.2c0-0.6-0.2-0.9-0.7-0.9
			c-0.3,0-0.6,0.1-0.9,0.4c-0.3,0.3-0.5,0.7-0.6,1.1l-1.3,5.5H23.9z"/>
		<path fill="#889BB0" d="M33.7,36.8c0-0.3,0.1-0.7,0.2-1.1l1.2-4.8h-0.6l0.2-0.7h0.6l0.6-2.4l2.8-0.3l-0.7,2.7h1.2l-0.2,0.7h-1.2
			L36.5,36c0,0.2-0.1,0.4-0.1,0.6c0,0.2,0.1,0.4,0.2,0.5s0.3,0.1,0.6,0.1c0.4,0,0.7-0.1,1-0.4c0.3-0.3,0.6-0.6,0.7-1.1h0.8
			c-0.2,0.5-0.5,1-0.7,1.4c-0.3,0.4-0.6,0.7-0.8,0.9c-0.3,0.2-0.6,0.4-0.9,0.5c-0.3,0.1-0.6,0.2-0.8,0.3s-0.5,0.1-0.7,0.1
			c-0.6,0-1.1-0.2-1.5-0.5C33.9,38,33.7,37.5,33.7,36.8z"/>
		<path fill="#889BB0" d="M38.4,36.8c0-0.3,0-0.7,0.1-1.1l1.3-5.5h2.8L41.2,36c0,0.2-0.1,0.3-0.1,0.5c0,0.5,0.2,0.7,0.6,0.7
			c0.7,0,1.2-0.5,1.5-1.5l1.3-5.5h2.8L45.9,36c-0.1,0.2-0.1,0.4-0.1,0.6c0,0.2,0.1,0.4,0.2,0.5s0.3,0.1,0.6,0.1
			c0.4,0,0.7-0.1,0.9-0.4c0.3-0.3,0.5-0.6,0.6-1.1H49c-0.8,2.1-2.1,3.2-3.9,3.2c-0.6,0-1-0.1-1.3-0.4s-0.5-0.7-0.6-1.2
			c-0.7,1.1-1.7,1.6-2.8,1.6c-0.6,0-1.1-0.2-1.5-0.5C38.5,38,38.4,37.5,38.4,36.8z"/>
		<path fill="#889BB0" d="M47,38.7l2-8.6h2.8l-0.3,1.1c0.3-0.2,0.5-0.4,0.7-0.5s0.4-0.2,0.7-0.4c0.3-0.1,0.6-0.2,0.9-0.2
			c0.4,0,0.7,0.1,1,0.4c0.2,0.3,0.4,0.6,0.3,0.9c0,0.3-0.1,0.6-0.4,0.9c-0.2,0.3-0.6,0.4-1,0.4c-0.2,0-0.4,0-0.5-0.1
			c-0.1-0.1-0.2-0.2-0.2-0.3S53.1,32.1,53,32s-0.1-0.2-0.1-0.3c0-0.1-0.1-0.1-0.2-0.1c-0.3,0-0.5,0.1-0.7,0.2s-0.4,0.3-0.7,0.5
			l-1.6,6.5H47z"/>
		<path fill="#889BB0" d="M54.1,36.1c0-0.3,0-0.6,0.1-1c0.1-0.3,0.1-0.7,0.3-1.1c0.1-0.4,0.3-0.8,0.5-1.2c0.2-0.4,0.4-0.7,0.7-1.1
			c0.3-0.3,0.6-0.7,1-0.9s0.8-0.5,1.2-0.6s1-0.2,1.5-0.2c1.6,0,2.5,0.9,2.5,2.7c0,0,0.1,0,0.2,0c0.4,0,0.9-0.1,1.4-0.3
			c0.6-0.2,1.1-0.4,1.5-0.7l0.2,0.5c-0.4,0.3-0.8,0.6-1.4,0.9c-0.6,0.2-1.3,0.4-2,0.5c-0.1,1.6-0.7,2.8-1.5,3.8s-1.9,1.4-3.1,1.4
			c-0.9,0-1.7-0.2-2.2-0.7C54.4,37.7,54.1,37,54.1,36.1z M56.9,35.9c0,0.6,0.1,0.9,0.2,1.1c0.1,0.2,0.4,0.3,0.8,0.3
			c0.5,0,0.9-0.3,1.3-1s0.7-1.5,0.9-2.5c-0.3-0.1-0.5-0.3-0.5-0.7c0-0.5,0.2-0.8,0.6-0.9c0-0.4-0.1-0.6-0.2-0.8
			c-0.1-0.2-0.3-0.2-0.5-0.2c-0.4,0-0.8,0.3-1.3,0.9c-0.4,0.6-0.7,1.2-1,2C57,34.6,56.9,35.3,56.9,35.9z M58.7,29.1l1.8-3.2h2
			l-2.3,3.2H58.7z"/>
		<path fill="#889BB0" d="M61.6,38.7l2-8.6h2.8l-0.2,0.9c0.6-0.6,1.4-1,2.2-1c0.6,0,1.2,0.2,1.6,0.5c0.4,0.3,0.6,0.8,0.6,1.5
			c0,0.5-0.2,1.3-0.5,2.4c-0.3,1.1-0.5,1.8-0.5,2.1c0,0.5,0.3,0.7,0.8,0.7c0.4,0,0.7-0.1,0.9-0.4c0.2-0.2,0.5-0.6,0.7-1.2h0.8
			c-0.2,0.5-0.4,1-0.7,1.4c-0.3,0.4-0.5,0.7-0.7,0.9c-0.2,0.2-0.5,0.4-0.8,0.5c-0.3,0.1-0.5,0.2-0.7,0.3c-0.2,0-0.4,0.1-0.7,0.1
			c-0.8,0-1.4-0.2-1.7-0.6c-0.4-0.4-0.6-0.8-0.6-1.4c0-0.4,0.1-1.1,0.4-2.2c0.3-1.1,0.4-1.8,0.4-2.2c0-0.6-0.2-0.9-0.7-0.9
			c-0.3,0-0.6,0.1-0.9,0.4c-0.3,0.3-0.5,0.7-0.6,1.1l-1.3,5.5H61.6z"/>
	</g>
</g>
</svg>
