<?xml version="1.0" encoding="utf-8"?>
<!-- Generator: Adobe Illustrator 18.0.0, SVG Export Plug-In . SVG Version: 6.00 Build 0)  -->
<!DOCTYPE svg PUBLIC "-//W3C//DTD SVG 1.1//EN" "http://www.w3.org/Graphics/SVG/1.1/DTD/svg11.dtd">
<svg version="1.1" id="Layer_1" xmlns="http://www.w3.org/2000/svg" xmlns:xlink="http://www.w3.org/1999/xlink" x="0px" y="0px"
	 viewBox="0 0 241.4 210.3" enable-background="new 0 0 241.4 210.3" xml:space="preserve">
<g>
	<path fill="#FDAC5C" d="M135.6,71.7c0.4,0.1,0.7,0.1,1.1,0.1c5.7,0.1,5.7,0.1,5.6,5.4c0.1,5-1.9,9.5-3.4,14
		c-2.9,8.4-4.4,17.2-7.7,25.4c-0.3,0.8-0.9,2.1,0.4,2.6c1,0.4,1.6-0.6,2-1.3c2-2.9,4-5.7,6-8.6c0.9-1.2,1.5-2.6,3-3.2
		c1.9,2.6,4.3,3.4,7.5,2.6c1.7-0.4,3.4,0.5,4.8,1.6c1.4,1.1,2.4,2.6,3.8,3.6c3.3,2.4,5,6.9,10.5,6.5c2.4-0.2,4.8,2.3,5.6,5.3
		c-0.1,1.4-1.1,1.9-2.2,2.2c-9.6,3.4-19.3,6.5-29,9.6c-0.2,0.1-0.5,0-0.7,0c-2.1-1.6-3.9-3.5-5-5.9c1-0.7,2.1-0.5,2.8,0.1
		c2.6,2.3,4.7,1.3,7.2-0.4c3-2,6.4-3.3,9.3-5.6c3.1-2.4,3.2-3.4,0.9-6.5c-0.7-0.9-1.4-1.8-2-2.7c-3.7-5-4.4-5.1-9.8-1.8
		c-3.5,2.1-6.7,4.3-8.1,8.4c-0.7,2-1.3,3.7-0.3,5.7c0.4,0.7,0.7,1.7-0.4,2.3c-2.2-2.9-6.1-4.6-6.1-9c0-0.8-1.3-1-2.2-0.9
		c-5.1,0.4-10.1-0.6-15-1.9c-1.1-0.3-1.9,0-2.7,0.6c-0.9-0.4-1.4-1.3-2.2-1.6c-2.4-2.2-5.7-2.5-8.4-3.9c-1,0.2-1.8,0-2.4-0.9
		c-2.7-1.6-4.6-4.8-8.4-4.1c-0.8-0.1-0.9-1.2-1.8-1.2c0-1.8-0.6-3-2.1-4.4c-2.9-2.8-5.3-6.1-8-9.2c-4.7-6.2-5.9-13.6-7.3-21
		c1.3-2.4,3.4-2.7,5.9-2.6c8.4,0.3,16.8,0.4,25.1,0.5c1.2,0.1,2.8-0.1,2.8,1.6c0,1.5-1.5,1.9-2.7,2.1c-2.6,0.5-5.2,0.2-7.8,0.6
		c-2.6,0.4-6.4,0-7,3c-0.6,2.8,3.1,3.5,5.1,4.6c9.3,5.1,19.5,8.2,29.7,10.9c2.3,0.6,4.8,2.5,7.1,1.3c2.3-1.2,1.6-4.2,2.6-6.3
		c1.4-2.9,3.2-5.7,4.2-8.7c1.3-3.8,1-4.2-2.9-4.6c-4.5-0.4-9-0.3-13.4-0.7c-3.1-0.3-3.5-1.2-1.6-3.9c3.3,0.9,6.8-0.4,10.1,0.4
		C130.6,72.1,133.1,72.4,135.6,71.7z"/>
	<path fill="#FD9853" d="M138.3,165.4c-0.5-1.5-0.5-2.9-0.1-4.4c1.3-5.8,2.6-11.7,3.9-17.5c0.2-1,0.5-1.9,1.3-2.6
		c1-0.7,2.1-0.7,3.2-0.7c10.5,0.1,21-0.8,31.4-0.8c2.5,0,5-0.4,7.3-1.3c0.1,1.4,0.7,2.3,2.2,2.3c0.8,0,1.9-0.4,2,1
		c0.2,1.4-0.1,2.7-0.7,4c-0.8,1.6-1.7,2.8-3.1,0.4c-1.5-2.7-3.1-1.4-4.8-0.1c-4.3,3.3-6.4,8.2-9.1,12.6c-2.6,4.1-5,8.4-6.9,12.9
		c-1.3,3.1-0.7,4.7,2.5,6.7c2.7,1.6,3.9-0.4,5.2-2.1c4-5.3,7.6-10.9,9.5-17.3c0.9-3.1,2.5-6,3.8-9c0.3-0.7,0.8-1.3,1.7-1.1
		c1,0.3,0.7,1.1,0.7,1.8c0,1.6-0.6,3.2-0.8,4.8c-2.7,9.1-6.1,17.8-13.1,24.6c-4.7,4.5-4.7,4.5-10.3,1.7c-4.1-0.7-6.9-3.9-10.3-5.8
		C148.5,172.5,143.1,169.3,138.3,165.4z"/>
	<path fill="#FDCA7B" d="M118,71.6c-0.9,2-1.3,3.1,1.9,2.9c5.2-0.3,10.4,0.1,15.6,0.4c2,0.1,3.2,1.1,2.3,3.5c-1.2,3.1-2.2,6.3-4,9.2
		c-1.1,1.6-1.8,3.6-2.2,5.5c-1.2,5.2-1.2,4.9-6.4,3.6c-5.5-1.4-10.9-3.4-16.4-4.9c-7.6-1.9-14.5-5.9-21.4-9.6
		c-1.4-0.7-2.6-2.1-2.3-4c0.3-1.7,2-1.6,3.2-2.1c4.1-1.9,8.6-1.1,12.8-1.6c1-0.1,2.6,0.3,2.8-1.2c0.2-1.2-1.5-1-2.2-1.6
		C107.2,71.4,112.6,71,118,71.6z"/>
	<path fill="#ED3C33" d="M82.1,202.1c-11.9,2-23.6,0.7-35.2-2.1c-1-0.2-1.9-0.6-2.8-1c-1.3-0.5-3-1.1-2.9-2.5c0.1-1.9,2.1-1.9,3.5-2
		c4.2-0.4,8.4-0.7,13.3-1.1c-4.1-1.9-7.9-3-11.2-5.1c-1-0.7-2.1-1.3-3.2-1.9c-1.2-0.7-2.8-1.6-2.4-3c0.5-1.8,2.6-1.2,3.9-1.1
		c4.7,0.3,9.3,1.4,14,2.5c0.9,0.2,1.9,0.5,2.8,0.7c0-0.4,0.1-0.7,0-0.8c-1-1.3-3.5-2.3-2.5-4.1c1-1.7,3.4-1.1,5.2-0.8
		c7.1,1,13.8,3.3,20.5,5.8c7,1.9,7,1.9,2.6,7.5c-1.4,1.8-2.4,3.8-3.2,5.9C84,200.1,83.4,201.4,82.1,202.1z"/>
	<path fill="#FD904F" d="M148.4,200.4c-6.1,0.7-12.1,2-18.1,3.5c-4-0.9-8.1,0.1-12.2-0.3c-1.5-0.1-2.7-0.2-3.1-1.9
		c-1.4-4.1-1.4-8.5-1.9-12.7c-0.3-2.6-0.6-5.1-0.9-7.7c8.1-4.7,15.9-10.1,24.4-14.1c0.9,0.2,1.5,0.8,2.1,1.4
		c5.6,6,11.2,11.9,17.2,17.5c0.7,0.7,1.2,1.6,1.6,2.5c3.7,5.4,3.6,5.3-2.8,8.4C152.7,198.2,149.9,198.1,148.4,200.4z"/>
	<path fill="#F26343" d="M70.8,73.8c1.2,0.6,1.4,1.6,1.6,2.7c0.8,5.7,2,11.3,5.4,16.1c0.4,0.6,0.5,1.4,0.3,2.2c-2.7-1-5.6-1.7-8-3.2
		c-3.6-2.4-6.9-2.3-10.9-0.8c-6.8,2.7-14,4.6-21.2,5.9c-1.5,0.3-3.1,0.7-5.1-0.3c4.7-4.3,10.6-5.8,15.7-9c-6.3-0.4-12.6,1.9-19,0.2
		c5.1-3.5,11.4-4.1,17.3-6.5c-5.8-1.9-11.4-3.1-17.2-6.9c4.4-1,7.7-0.4,11,0.2c1.3-0.3,2.5,1.3,3.9,0.2c-0.5-1.4-2.2-1.1-2.9-1.9
		c-0.1-2,1.9-0.4,2.3-1.5c-7.1-10.7-7.5-22-3.7-33.8c0.5-0.6,1-1.3,2-0.7c-1.1,6.9-2,13.7-0.6,20.6c0.9,4.5,2.5,8.8,5.8,12.2
		c3.7,3.8,8,6.1,13.7,5.1C64.3,74.2,67.6,74.1,70.8,73.8z"/>
	<path fill="#FDB25E" d="M174.5,126.1c-2.4-2.6-3.9-6.7-8.8-4.3c-0.6,0.3-1.5-0.2-1.9-0.9c-1.8-3.5-5.5-5.2-7.9-8.3
		c-2.2-2.7-5-3.7-8.6-2.5c-2.8,0.9-4.1-0.4-3.9-3.7c-0.6-2.4,1.2-4,2.3-5.6c2.8-4.1,5.5-8.3,8.5-12.3c1.3-1.7,2-3.7,2.8-5.6
		c11.7-0.9,16.8,8.2,22.8,15.5c3.8,4.6,6.4,10,8.8,15.4c0.2,1.6-0.8,1.6-1.8,1.1c-1-0.5-1.8-1.4-2.4-2.4
		c-3.2-5.9-7.6-11.1-11.4-16.7c-2.2-3.3-5.5-5.4-8.7-7.6c-1-0.7-2.3-1.2-3.5-0.2c-1.2,1-1.4,2.6-0.7,3.8c1,1.9,0.8,3.7,0.6,5.8
		c-0.4,3.1,1.6,5.3,3.8,6.9c2.9,2.2,4.9,4.7,6.2,8.2c0.9,2.6,3.1,4.6,5.3,6.1c2.9,2,6,0.3,8.9-0.6c1.8-0.6,3.4-2.4,5.4-0.6
		c1.2,1.4,1.3,2.5-0.7,3.3c-1.6,0.6-3,1.4-4.6,2.1C181.9,124.9,178.5,126.5,174.5,126.1z"/>
	<path fill="#E87D5C" d="M42.3,36.7c-0.5,0.4-1,0.8-1.5,1.2c-1.6-1.3-0.6-2.7-0.2-4.1c0.7-2.4,1.7-4.7,2.6-7
		c0.6-1.7,0.3-2.9-1.5-3.6c-6.4-2.6-13-4.5-20-4.2C13,19.5,9.2,24.3,10.2,33c0.5,4.1,2.3,7.7,4.2,11.2C20,54.3,28.1,61.9,38,67.6
		c2.5,1.5,4.9,3.3,7.8,4.1c0.9,0.5,1.7,1.2,0,1.4c-1,0.1-2.1-0.6-3.3-0.5c1.3,0.7,2.7,1.3,4.4,2.1c-2.5,1.4-4.4,0.6-6.2-0.3
		c0.8,0,1.7-0.1,3.1-0.1c-7.9-4.2-15.2-8.5-21.3-14.5c-6.7-6.7-12.1-14.2-14.7-23.4C4.2,23.6,12.1,14.5,25.3,16
		c6.4,0.7,12.4,2.7,18.3,5c2,0.8,3,0.9,4.4-1.3c3.2-5.1,7.2-9.6,12.7-12.3c7.9-3.9,16.8-1.6,24.7,6.1c6.3,6.2,11.1,13.4,15.2,21.1
		c2.9,5.4,6.7,9.8,11.9,13.1c-0.9,1.8-1.8,0.5-2.7,0c-4.4-2.4-7.3-6.2-9.7-10.5c-4-7.3-8.3-14.5-14.2-20.4
		c-5.2-5.2-10.9-9.5-18.9-9.1C60.4,8,51,14.7,48.8,20.9c-0.6,1.6,0,2.2,1.3,2.8c14.3,6.5,27.4,15.2,40.4,24c4.9,3.4,10,6.5,15.5,8.8
		c3,2.4,7.2,2.3,10.1,5.2c-4.2-1-8.3-2.2-12.2-4.2c-8.1-2.9-14.7-8.2-21.6-12.9C71.5,37.3,60.4,30.7,48.8,25
		c-1.6-0.8-2.2-0.3-2.8,1.1C44.8,29.7,43.5,33.2,42.3,36.7z"/>
	<path fill="#F56C45" d="M157,83c0.9,1.3,0.6,2.2-0.3,3.6c-4.6,6.6-8.9,13.3-13.3,20c-3.7,4.1-6.5,8.9-9.7,13.4
		c-0.9,1.2-1.6,1.7-3,1.1c-1.5-0.6-1.7-1.5-1.2-2.9c5-13.4,7.8-27.4,12.8-40.8C148,77.1,152.7,79.7,157,83z"/>
	<path fill="#FDCC7D" d="M190.5,117.7c-3.9-0.3-6.7,2.9-10.6,3c-2.5,0.1-4.1-0.3-5.8-2.2c-2.5-2.7-4.7-5.3-5.7-8.9
		c-0.4-1.4-1.6-2-2.7-2.9c-3.5-2.9-7.6-5.6-5.5-11.4c0.6-1.8-1.9-3.1-1.4-5.4c0.6-3,2-4.4,4.7-3.1c4.2,2.1,7.9,5,10.6,8.9
		c4.1,6,8.3,11.9,12.5,17.9c0.6,0.9,1.2,1.8,2.1,0.3C190.2,114.7,190.5,116.1,190.5,117.7z"/>
	<path fill="#F46343" d="M174.5,126.1c3.6-1,7.2-2.1,10.8-3.1c1,5,2,10.1,0.1,15.1c-0.5,1.5-1.7,2-3.2,2.1
		c-12.9,0.2-25.8,1.4-38.8,0.8c-0.2-1.1-0.4-2.2-0.6-3.2c5.6-3.2,12-4.4,18.1-6.6C165.4,129.4,170.1,128.3,174.5,126.1z"/>
	<path fill="#FC9050" d="M82.1,202.1c1.5-4.8,3.4-9.3,7.2-12.7c1.2-1.1,1-1.8-0.5-2.3c-1.3-0.5-2.5-1.1-3.7-1.6
		c4.4,1.8,8.4,1.1,12.4-1.6c2.6-1.8,6-2.3,9.1-2.9c1.4-0.3,2.7-0.3,3.8,0.8c-0.7,6.7-0.8,13.4-1.8,20c-0.9,0.6-1.4,1.7-2.7,1.8
		C97.9,204.3,89.9,204.7,82.1,202.1z"/>
	<path fill="#FDBA6D" d="M187.6,155c0.1-2,0.1-4,0.2-6c-0.3-0.1-0.6-0.1-0.9-0.2c-1.6,4.2-3.3,8.4-4.7,12.6
		c-2,6.3-6.1,11.3-9.8,16.6c-1.6,2.3-3.5,2.8-5.9,0.6c-4.9-4.5-4.9-4.4-0.3-12.7c2.9-5.3,6.5-10.2,9.1-15.7c1.3-2.8,4.5-4.1,6.2-6.8
		c0.9-1.5,3.2,0.2,4.9,0c1-0.1-0.3,2,0.7,3.2c1.7-1.3,1.7-3.5,2.5-5.1C190.1,146.1,189.1,150.6,187.6,155z"/>
	<path fill="#FD9854" d="M137.3,131.4c-2.1-4.2-1.1-8.2,1.5-11.7c3-4.1,7.6-6.3,12.3-8.1c1.3-0.5,2.1,0.4,2.8,1.3c2,2.5,4.1,5,6,7.6
		c1.3,1.7,1.3,3.2-0.6,4.8c-3,2.6-6.3,4.4-9.7,6.2c-4.1,2.1-6.3,2.3-10.7,0.6c-0.3-0.1-0.7-0.2-1.1-0.3
		C137.5,131.7,137.4,131.6,137.3,131.4z"/>
	<path fill="#E09271" d="M103.9,57.4c3.8,1.4,7.6,2.8,11.4,4.2c-2.6-2.7-6.8-2.3-9.2-5.2c8.4,3.1,16.8,6.1,25.8,7.7
		c17.3,3,34.4,2.2,51.6-1.2c17.6-3.5,34.2-9.7,50.2-17.8c0.7-0.3,1.2-0.9,1.8-1.3c0.2,0.3,0.4,0.7,0.6,1c-2.2,1.3-4.3,2.8-6.6,4
		c-16.7,8.7-34.6,14-53.2,16.9c-15.6,2.4-31.3,2.7-46.8-0.3C120.6,63.9,111.8,62,103.9,57.4z"/>
	<path fill="#F25039" d="M157.6,188.7c-7.6-6.6-14.6-13.6-20.9-21.4c0.5-0.6,1.1-1.2,1.6-1.8c4.4,1.1,7.5,4.5,11.4,6.6
		c5,2.8,9.9,5.9,14.5,9.3C162.5,184.3,160.1,186.6,157.6,188.7z"/>
	<path fill="#E1A187" d="M109.9,47.7c0.9,0.1,1.8,0.7,2.7,0c14.6,6.9,29.2,4.5,43.7-0.1c20.2-6.3,38.7-16.3,56.5-27.7
		c1-0.7,2.2-1.2,3.3-1.7c0.4,0,0.4,0.2,0.2,0.5c-7.7,6.1-16.3,10.9-25,15.5c-14.9,7.9-30.3,14.6-47,17.9c-11,2.2-21.7,2.1-32.1-2.6
		C111.4,49,110.5,48.6,109.9,47.7z"/>
	<path fill="#EE4434" d="M108.7,201.8c-1.5-4.5,0.3-9,0.3-13.5c0-2.2-0.5-4.7,1.5-6.6c0.6-0.1,1.2-0.3,1.8-0.4
		c0.3,0.2,0.8,0.4,0.8,0.7c1,6.5,2,13.1,1.9,19.7C112.9,201.7,110.8,201.7,108.7,201.8z"/>
	<path fill="#CD5C50" d="M109.1,118.5c1.6-0.7,2.2,0.1,2.2,1.6c-4.8,11.6-1.7,22.9,1.1,34.3C107.7,142.8,104.3,131.1,109.1,118.5z"
		/>
	<path fill="#CE695E" d="M98.2,113.7c0.8,0.3,1.6,0.6,2.4,0.9c-3.2,7.3-2.9,14.9-2.1,22.6c0.1,1.2,0.7,2.4,0.3,3.7
		c-0.1,0.4-0.3,0.5-0.6,0.2C95.9,131.9,95.3,122.8,98.2,113.7z"/>
	<path fill="#CF685A" d="M88.1,108.3c0.4-0.4,0.8-1.3,1.4-0.8c0.4,0.4,0.3,1.3,0.4,2c-1.4,7.9-0.9,15.8-0.8,23.8
		C87.2,125.1,86.5,116.8,88.1,108.3z"/>
	<path fill="#FDCA7B" d="M135.6,71.7c-2.4,1.9-4.9,1.5-7.4,0.2C130.6,70.8,133.1,71.7,135.6,71.7z"/>
	<path fill="#E1A187" d="M216.1,18.2c1.5-2.1,4-2.8,6.2-4.1c-1.7,1.9-3.5,3.6-5.9,4.5C216.3,18.5,216.2,18.4,216.1,18.2z"/>
	<path fill="#CE695E" d="M98.8,140.8c1.1,2,0.7,4.3,1.1,6.4c-0.9-2-1.7-3.9-1.7-6.2C98.4,141,98.6,140.9,98.8,140.8z"/>
	<path fill="#FDAC61" d="M154.4,192.7c-0.8,1.2-2.2,2.1-3.6,2.8c-9.9,4.7-20.5,6.1-31.3,6.3c-1.2,0-1.8-0.7-2.2-1.7
		c-0.1-0.2-0.1-0.5-0.1-0.7c-1.2-7.1-1.2-7.1,5.9-7.8c8.9-0.8,17.7-2.3,26.7-1.9c1.3,0.1,2.5,0.1,3.6,0.7
		C154.5,190.8,154.9,191.4,154.4,192.7z"/>
</g>
</svg>
