<?xml version="1.0" encoding="utf-8"?>
<!-- Generator: Adobe Illustrator 18.0.0, SVG Export Plug-In . SVG Version: 6.00 Build 0)  -->
<!DOCTYPE svg PUBLIC "-//W3C//DTD SVG 1.1//EN" "http://www.w3.org/Graphics/SVG/1.1/DTD/svg11.dtd">
<svg version="1.1" id="Layer_1" xmlns="http://www.w3.org/2000/svg" xmlns:xlink="http://www.w3.org/1999/xlink" x="0px" y="0px"
	 viewBox="0 0 1476 702" enable-background="new 0 0 1476 702" xml:space="preserve">
<path fill="#979390" d="M557,432.7L707.8,46.5L339.6,88.6c0,0-50.5,1.8-75,34.1l-56.6,79.9c0,0-33.2,76.2-43.6,111.1l-21,71.2
	l1.3,14.7L557,432.7z"/>
<g>
	<path fill="#A19D99" d="M1464.2,428.2c-1.5,0.7-3.1,1.2-4.6,1.5c-1.6-0.8-4-1.8-6.6-2.7c1.1,0.1,2.3,0.2,3.5,0.4
		c2.2,0.5-8.1-13.8-12.1-16.1c-3.8-2.1-7.1-5-11.6-5.5c-1-0.1-2-0.5-2.7-1.3c-4.8-5.8-11.4-4.8-17.5-4c-6.6,0.9-11.7-1-15.9-5.9
		c-2.6-3.1-5.2-3.3-7.9-0.2c-0.4,0.8-0.5,1.6-0.5,2.4c0.7,6.8,0.1,8.1-6.6,8.8c-16,1.7-32,3.7-48,5.4c-7.8,0.9-15.5,1.6-23.3,2.7
		c-5.7,0.8-11,0.1-15.2-4.3c-1.4-1.4-2.9-3-2.1-5.2c0.8-2.1,2.8-2.1,4.6-2.2c26.4-2.6,52.9-5.1,79.3-7.9c3.3-0.3,6.6,0.5,9.9-0.7
		c2.6-3.3,1.4-5.6-2-7c-2.6-1.1-5.3-2-7.6-3.7c-3.3-2.2-6.3-1.9-10.2-1.1c-6,1.2-12.9,2.7-18-3.4c-2.3-2.7-7.3-3-10-0.5
		c-6.8,6.5-15,4.6-22.7,3.5c-5.4-0.7-10-0.9-14.4,2.8c-3.1,2.6-6.7,2.6-10.2,0.5c-4.9-2.8-6.7-2.2-9.5,2.8c-0.3,0.6-0.4,1.4-0.9,1.8
		c-4.6,3.9-5.5,8.7-5.1,14.6c0.4,5.3-4.5,7.3-9,4.3c-4.7-3.2-11.7-2.7-15.5,1.2c-1.1,1.1-1.2,1.6-0.5,5.5c-1.8-1.7-1.8-3.6-2.2-5.4
		c-0.7-3.6-2.8-5.3-6.4-4.2c-3.3,1-5.9,0.6-7.8-2.5c-0.5-0.9-1.3-1.7-2.3-1.8c-8.7-1.3-13-8.7-18.8-13.8
		c-8.2-7.2-15.1-15.9-24.2-22.1c-4-2.7-5.9-7.1-9.2-10.4c-4.6-4.5-9.4-8.9-14-13.5c-5.4-5.4-10.5-11.1-15.9-16.5
		c-3-2.9-6.2-5.5-9.3-8.2c-5.6-5-10.7-10.3-15.5-16.2c-6.7-8.4-15-15.6-23.6-22.2c-3.1-2.3-6-4.7-8.2-7.9c-4.8-7-12.2-11.3-18-17.1
		c-10.2-10.2-21.5-19.4-31.6-29.7c-2.9-3-6.1-5.6-9.6-7.9c-0.7-0.5-1.6-0.7-2.1-1.4c-7.1-9-17.4-14.3-25.6-22.1
		c-8.2-7.8-16.6-15.3-26-21.7c-4.4-3-7.5-7.3-12-10.4c-10.7-7.3-20.9-15.4-31.3-23c-25.9-18.8-53.2-35.3-81.1-51
		c-17.1-9.6-35.2-17.3-53.4-24.7c-19.1-7.7-39-12.6-59.1-16.3c-11.1-2-22.5-2-33.9-1.6c-19.1,0.7-38,3.8-57.1,5.6
		c-7.8,0.7-15.6,0.3-23.4,1.2c-8.9,1-17.9,1.5-26.8,3.1c-13.5,2.4-27.2,2-40.7,3.9c-16.6,2.4-33.5,3.1-49.9,6.9
		c-3.6,0.8-7.2,1.2-10.9,1.3C488.3,65.4,474.7,66,462,69c-14.4,3.4-29.1,2.4-43.3,6.1c-14.5,3.8-29.6,4.3-44.4,6.4
		c-7.9,1.1-15.5,3.6-23.6,4c-2.2,0.1-4.3,0.2-6.5,0c-5.2-0.5-10.3-0.8-14.9,2.4c-0.8,0.6-1.9,0.9-2.9,0.8
		c-11.1-2.1-20.7,3.6-30.9,6.2c-4.7,1.2-8.8,3.8-12.6,7c-1.4,1.2-2.8,2.3-4.5,3.2c-6,3.3-7.5,9.6-11.5,15.4c-0.7,1-1.6,1.7-2.6,2.4
		c-7.9,5.2-13.1,12.7-18,20.5c-5.8,9.3-12.2,18.2-18.2,27.4c-2.7,4.1-4.2,9.1-8.7,11.9c-7.6,11.2-13.3,23.5-19.5,35.5
		c-6,11.6-11.1,23.7-15.9,35.8c-0.7,1.8-1.4,3.7-1.3,5.8c-6.5,16.1-11.6,32.7-16.9,49.3c-1.3,4.2-2.7,8.4-4,12.6
		c-0.2,0.4-0.3,0.8-0.4,1.1c-5.2,15.1-8.6,30.8-12.6,46.3c-2.1,8.1-5.3,16.1-5.1,24.7c-0.4,2.2-0.8,4.5,0.4,6.6
		c1.4,1.2,2.7,0.9,3.9,0.4c10.6,2.2,21.4,2.8,32.1,3.8c61.4,5.8,122.9,10.6,184.4,15.3c2,0.2,4,0,6,0c0.9,0,1.9,0,2.8,0
		c-0.9,0-1.9,0-2.8,0c12.8,2.1,25.8,2.5,38.7,3.5c40.5,3.2,80.9,6.2,121.4,9.3c2.6,0.2,5.3,0.1,8,0.2c0.8,0.2,1.7,0.3,2.5,0.4
		c10.5,1.5,21.2,1.6,31.8,2.3c73.5,4.7,147,8.4,220.6,11.6c74.4,3.2,148.8,6.2,223.2,9c64.6,2.4,129.2,4.6,193.8,6.4
		c1.2,0,2.3,0.2,3.5,0.3c13.6,0,27.3,0,40.9-0.1c5.1,0,10.3-0.4,15.3-1.8c9.9-1.1,12.8-1.9,13.1-2.4c0.9,0,2.2-0.3,2.6-1.4
		c0.4,0,0.8,0,1.2,0c18.4-2.8,36.8-5.3,55.2-7.7c20.4-2.6,40.7-5.7,61-8.5c9-1.2,18.1-2.3,27.1-4.2c8.2-1.7,16.9-1.3,25.3-2.4
		c3.5-0.5,6.9-1.2,9.6-3.7C1464.9,429.8,1464.6,429,1464.2,428.2z M541.9,87.3c-0.8,0.3-1.5,0.7-2.3,0.7c-5.7-0.3-9.8,1.9-13.3,5.3
		c0.4-0.5,0.8-0.9,1.1-1.4c0.5-0.4,1-0.7,1.5-1C532.8,88,537.5,87.6,541.9,87.3z M547.2,136.7c0.3,0.1,0.5,0.1,0.8,0
		c5-1.5,10.2,0.4,15.2-1c6.5-0.3,13-0.6,19.4-0.9c6.4-0.3,7.2,0.8,4.6,6.8c-4.4,10-9.3,19.8-13.2,30c-3.1,8.2-7,14.3-17,13
		c-1.7,1-3.6,0.4-5.4,0.5c-4.6,0.3-9.3-0.5-13.9,0.4c-1.9,0-3.8,0.1-5.7,0.1c-6.7,1.1-13.3,1-20-0.4c0.2-1.9-0.5-3.9,1-5.5
		c1.1-5.4,4.3-9.8,6.5-14.7c3.1-7,7-13.8,9.6-21c1.3-2.4,2.6-4.8,5.7-5.4c-0.1-0.4,0-0.7,0.4-1c0.3,0,0.6,0,0.9-0.2
		C539.7,136.4,543.5,137.8,547.2,136.7z M545.7,87.1c3-0.2,6-0.4,9-0.6c-0.8,0.1-1.7,0.1-2.5,0.2C550,87.2,547.9,87.1,545.7,87.1z
		 M633.2,79.7c0.6,0,1.3-0.4,1.9,0c-14.5,1.1-29,2.4-43.6,3.7C605.4,82.1,619.3,80.7,633.2,79.7z M965.7,275c-0.8,0.8-1.7,1.4-2,2.4
		c-1.4-0.6-2.9-0.1-4.3,0.2c-2.5,0.5-4.9,0.5-7.4,0.6c-30.6,3.6-61.4,1.3-92.1,1.8c-16.7,0.3-33.5,0.4-50.2-1c-1.2,0-2.3,0-3.5,0
		c-6.8,2.9-13.8,1.5-20.9,1.4c-6.4-0.1-12.7-1.2-19-1.5c-8.5-1-17-1-25.4-0.8c-6.3,0.2-10.7-2.5-14.1-7.7
		c-8.8-13.6-17.4-27.2-26.1-40.8c-5-7.8-7.2-15.2-2.9-24.3c4-8.6,6.8-17.7,10.2-26.6c0.6-1.7,2-3.6,1.4-5.4c0.2-0.1,0.4-0.3,0.6-0.4
		c4.5-10.2,9.2-20.2,12.9-30.8c2.7-8,8.9-12.9,17.8-14.1c8.4-1.1,16.8-0.5,25.2-1.1c10.2-0.8,20.4-0.4,30.5-1
		c9-0.5,16.4,2.4,23.8,7.1c18.6,11.7,36.6,24.2,53.9,37.6c14.9,11.5,29.6,23.6,43.8,36.1c12.5,11,24.5,22.5,36,34.4
		c4.8,5,9.5,10.3,13.6,15.9C972.5,263.9,971.9,269.1,965.7,275z M395.3,421c2.6,0.1,5.4,0.3,8,0.8c-1.6-0.2-3.1-0.3-4.7-0.5
		C397.6,421.2,396.5,421.1,395.3,421z"/>
	<path fill="#AFABA7" d="M1465.3,430.5c-15.9-18.1-42.3-47.1-58.9-64.6c-28.6-30-59.4-57.8-90.3-85.4c-5.1-2.2-10.5-3.5-14.8-7.4
		c-2.5-2.2-5.3-3.5-8.3-0.7c-0.4,0.4-0.7,0.9-1,1.4c-4.3,4.5-10.1,4-15.3,4.1c-14.5,0.4-29,0.2-43.4,0.1
		c-11.5-0.1-22.9,1.4-34.3,0.9c-13.1-0.6-26.2-1-39.3-0.8c-6.2,0.3-12.4,1.1-18.5-0.1c-7.9-1.5-13.9-6.5-19.3-11.9
		c-9.8-9.7-20.1-18.9-29.9-28.6c-4.6-4.6-10.6-7.8-13.9-13.8c-6.3-5.3-12.4-10.9-18.4-16.5c-2-1.3-3.9-2.8-5.3-4.7
		c-19-16.9-38.1-33.6-58.2-49.2c-2-1.5-3.8-3.2-6.5-3.3c-5.1,2.4-3.2-2.1-4-4c-1.3-2.2-3.2-3-5.6-2.4c-1.6,1.2-2.9,0.6-4.6-0.1
		c-8.3-3.6-15.6-8.7-22.9-14.1c-5.2-3.9-10.8-7.3-16.4-10.5c-8.7-5-16.9-10.7-25.6-15.5c-19.7-11-39.5-21.9-60.3-31.2
		c-18-8-35.9-16.1-54.7-21.7c-30.4-9.1-61.3-14.5-93-11.9c-15.7,1.3-31.4,3.4-47.2,4.7c-16,1.3-32.1,2.6-48.1,4.4
		C588,49.9,569,51.6,550,53.5c-14.7,1.5-29.5,3.2-44.3,4.3c-2.7,0.2-3.2-2.1-5-2.6c-1.1-0.3-2.2-0.9-3.4-0.7
		c-19.5,2.9-39.3,3.7-58.9,5.8c-10.9,1.2-22,0.7-33,1.9c-18.9,2.1-37.8,3.2-56.7,4.7c-6,0.5-12,0.1-17.9,1.3
		c-2.2,0.4-4.2,0.9-5.9,2.5c-0.3,1-0.7,2-1,3c1.2,2.4,3.5,2.2,5.7,2.4c6.9,0.5,13.6-1,20.3-1.6c10.6-1,21.2-2.3,31.9-3.1
		c2.9-0.2,5.7-1.1,8.7-1.1c-28.9,3.4-58,5.2-86.7,10.4c-7.5,1.4-14.2,4.7-20.9,8.1c-6.1,2.5-9.4,7.9-12.9,13
		c-12.7,18.6-25,37.5-36.6,56.9c-4.8,7.9-9.9,15.7-13.8,24.1c3-0.3,5-2.3,6.2-4.6c2.3-4.3,5.7-7.7,8.5-11.6
		c6.7-9.5,12.6-19.4,19.1-29c3.7-5.3,24.6-29.3,26.1-30.1c1.2-0.7,2.5-1.2,3.3-2.1c6.4-6.9,15.3-8.5,23.6-11.1
		C313,91.9,418.9,77.5,429,75.8c5.7-1,33.1-4.9,35.2-5.1c22.2-1.5,44.2-3.8,66.2-7.3c19-3,38.3-5,57.5-6.2
		c11.6-0.7,22.9-3.7,34.6-4.1c5.5-0.2,10.9-1.4,16.4-1.4c20.9-0.2,41.4-4.2,62.1-5.6c17.7-1.1,35.4-1.1,53,3.3
		c12.3,3.1,24.7,5.6,36.6,9.8c13.3,4.8,26.6,9.6,39.1,16.3c9,4.7,18.7,7.9,27.4,13.1c13.8,8.1,27.7,16,41.2,24.5
		c17.7,11.1,34.7,23.4,51.7,35.6c7.5,5.4,15.6,10.3,22.3,16.5c12.2,11.3,25.4,21.3,37.8,32.2c8.2,7.2,16.4,14.8,25.3,21.4
		c7.1,5.3,13.1,12.2,19.9,18.1c9.8,8.5,18.4,18.2,28.8,26.1c2.1,1.6,4,3.5,5.5,5.7c3.2,4.5,7.1,8.2,11.5,11.6
		c10.9,8.2,20,18.3,29,28.6c7.5,8.6,16.4,16,25,23.6c2.5,2.3,4.3,5.1,6.6,7.4c6,6.2,13.5,10.9,18.4,18c7.1,10.2,18.3,16.1,26.1,25.7
		c5.4,6.5,70.8,68.4,76.6,74.8C1283.9,459.6,1462.9,432.2,1465.3,430.5z"/>
	<path fill="#989597" d="M333.2,608.3c-7.4-2.5-14.7-5.3-21.8-8.6c-13.1-6-26.9-10.2-40.8-12.8c-13.6-2.6-27.3-5.7-41.2-7.4
		c-18.3-2.2-36.2-7.1-54.4-9.6c-8.1-1.1-15.9-3.6-24.1-3.8c-4.9-0.1-9.7-0.4-14.3-2.1c-10.9-3.9-22.6-3.1-33.9-5.7
		c-9.3-2.1-18.8-3.6-28.5-4c-11.8-0.5-23.1-4.7-34.5-7.8c-11.9-3.3-21.8-9.3-28-20.6c-2.8-5-4.9-11-11.7-12.4
		c-0.5-2.8,0.5-5.2,1.7-7.6c12.4-24.7,24.7-49.5,37.1-74.2c1.3-2.7,2.8-5.3,5.8-6.5c2.2,0.9,4.1-0.8,6.4-0.4
		c16.2,3,32.7,3.9,49.1,5.2c20.1,1.6,40.1,3.8,60.1,5.6c20.2,1.8,40.4,3.5,60.6,5.4c19.7,1.9,39.4,3.8,59.1,5.5
		c20.7,1.8,41.4,3.5,62.1,5.7c19.4,2,38.7,4,58.2,5.2c18.5,1.1,36.7,5.4,55.6,2.2c13.2-2.2,26.8-2.9,40.2-3.8
		c6.2-0.4,12.6-0.1,19.3-2.4c-4.5-0.7-8.4-0.1-12.2-0.6c-2.8-0.4-5.4-1.1-4.3-4.9c1.7-1.8,4-1.6,6.1-1.5c3,0.1,5.9,0.5,8.9,0.8
		c10.7,0.9,21.5,1.5,32.1,3c2.6,0.4,5,1.1,4.8,4.5c-1,3.4-4,3-6.6,3.3c-19.5,1.9-39.1,3.8-58.6,5.2c-4.1,0.3-8.2,1.5-12.4,1.1
		c-4.5-0.4-8.9-0.4-13.2,1.5c-8.3-1.1-12.2,1.1-15.5,9c-6.9,16.4-14.2,32.7-21.1,49.2c-3.9,9.2-7.6,18.5-11.2,27.8
		c-3.1,8.2-5.1,16.9-11.1,23.7c-1.3,1.5-1.1,3.3-0.8,5.2c1.2,7.9,1.5,15.9,1.7,23.8c0.1,3.1-0.1,6.5-3.7,8l3.8,17.7L333.2,608.3z"/>
	<path fill="#888481" d="M515.8,680.4c3,4.5,7.9,4.5,12.4,5.1c35,4.4,69.4,0.7,103.6-7c31.8-7.1,63.9-13.1,95.5-21.1
		c30.9-7.9,58.7-22.4,81.3-45.5c4.8-4.9,7.4-10.6,5.6-17.6c-5.4,5.6-13.8,5.3-19.5,10.3c-2,1.8-4.9,1.1-7.1-0.1
		c-4.6-2.5-9.3-2.6-14.4-2.6c-10.8,0-21.6-0.4-32.3-2.1c-7.7-1.2-15.2,0.2-22.9-0.5c-19.4-1.8-38.8-1.6-58.3-2.2
		c-17.9-0.6-35.9-1.6-53.7-3.6c-7.3-0.8-14.6-0.9-21.9-1.1c-13.2-0.4-26.2-2.3-39.2-3.5c-10.4-0.9-20.9-1.8-31.3-2.6
		c-11-0.8-21.7-3.2-32.7-3.6c-3.3-0.1-6.4-1.6-8.7-4.3c-2.4,0.1-2.9,1.8-2.9,3.7c0.1,1.8,0.1,3.6-0.4,5.3c1,6.4,4.5,11.7,7.2,17.4
		c10.9,22.9,22.3,45.7,33.4,68.5C510.9,676.3,512.6,679,515.8,680.4z"/>
	<path fill="#979390" d="M811,585.5c-0.7-0.9-1.4-1.9-2.1-2.8c-5.9,1-11.9,1.9-17.6,3.4c-6.3,1.7-11.5,0.4-16.5-3.1
		c-28.1-19.4-58-35.9-88.4-51.5c-24.6-12.7-49.8-23.9-75.6-33.8c-22.4-8.5-45.2-16-68.6-21.1c-5.6-1.2-11.3-1.3-16.9-2.5
		c-2.7-0.5-5.2-1.3-7.4-2.9c-0.5-0.3-1-0.4-1.5-0.4c-3.8,1.1-4.6,4.6-5.9,7.6c-5.4,12.5-10.6,25.1-15.8,37.7
		c-7.5,18.5-15.4,36.8-22.7,55.4c-0.6,1.4-1.4,2.7-0.9,4.3c1.7,4.5,5.3,5.8,9.8,6.3c17.7,2,35.3,4.2,53.1,4.8
		c5.3,0.2,10.5,1.3,15.9,1.1c2.8-0.1,5.6,0,8.3-1.2c1.6-0.7,3.3-0.9,4.9-0.2c3.1,1.3,6.1,1.2,9.3,0.6c2-0.4,4.2-0.2,5.8,1
		c5.3,3.9,10.7,2.3,16.2,0.9c6.4-1.7,12.7-2,18.9,1.2c5.6,2.9,11.7,5.6,17.6,2.5c6.3-3.3,13-1.3,19.3-3.2c2.4-0.7,5,0,6.7,2.3
		c2.3,3.1,5.1,3.3,8.4,1.9c2.9-1.2,5.4-0.9,8.7,0.2c6,2,12.7,2,19.2,1.7c1.2-0.1,2.2-0.8,3-1.6c4.5-4.2,9.2-4.4,14-0.6
		c5.8,4.6,7.1,4.5,12.4-1c3.9-4.1,7.6-4.2,11.6-0.2c4.2,4.1,7.1,4.4,12.2,1c7-4.6,17.8-3.6,23.6,2.1c3.8,3.7,9.3,5.1,13.3,2.8
		c7.5-4.3,15.7-5.3,23.7-7.3C809.6,590.1,812.5,589.3,811,585.5z"/>
	<path fill="#828084" d="M10.6,517.4c-2.4-5.6-3.7-6.1-10.4-3.8c-0.6,2.7,0.7,4.9,2,7c13.3,22.7,26.7,45.3,40,68
		c1.3,2.3,3,3.2,5.5,3.7c57.2,10.9,114.4,21.9,171.6,32.9c54.2,10.4,108.5,20.8,162.7,31.4c18.1,3.5,36.1,7.6,54.2,11.4
		c1.3,0.3,2.6,0.4,3.9,0.6c2.4,0.8,4.8,0.9,6.3-1.3c1.5-2.3,0.6-4.7-0.4-7.1c-9.3-20.8-19.3-41.2-28.5-62c-5.9-10.1-7.3-21-4.4-32.1
		c2.8-10.6,6.2-21.1,10.4-31.3c6.7-16.3,13.1-32.8,20-49c3.2-7.6,7.2-14.5,14.4-19c0.7-0.4,1.3-1.1,1.6-1.9c0.1-0.6,0-1-0.5-1.4
		c-7.9-1.2-12.3,2.7-15.3,9.7c-7.6,18.4-15.7,36.7-23.5,55c-5.6,13.1-11.1,26.3-16.7,39.5c-0.3,0.8-0.4,7.4-1,7.7
		C394.8,579.9,17.2,520.4,10.6,517.4z"/>
	<path fill="#AFABA7" d="M1294,272.6c3,0.1,5.1,1.9,7.3,3.7c4.3,3.5,9.1,5.6,14.8,4.3c-8.6-9-18.2-16.9-27.6-25.1
		c-40.2-35.3-81-69.8-125-100.3c-49.5-34.2-101.5-63.5-159.5-81c-41.6-12.6-84-20.4-127.3-23.6c-6.6-0.5-12.7-1.5-18.5-5.7
		c-10.9-7.9-24-10.3-37.1-11.9c-22.8-2.8-45.6-5.7-68.4-8.5c-12.9-1.6-25.9-2.8-38.8-4.8c-3.6-0.6-7.2-0.6-10.8-0.9
		c-1.2,3.1,1.1,4.2,3.2,5.1c3.2,1.4,6.5,2.5,9.5,4.4c1.2,0.8,2.8,1.6,2.4,3.4c-0.4,1.5-2,1.7-3.3,1.7c-11.7-0.2-23,2.7-34.6,3.6
		c-11.9,0.9-23.9,2.8-35.8,3.5c-19.8,1.2-39.4,4.3-59.3,5.1c-7,0.3-13.7,2-20.6,3.1c-6.4,1.1-12.8,1.1-19.3,1.6
		c-10.7,0.7-21.4,1.2-32,3.5c-2.3,0.5-4.7,0.1-7,0.6c-2,0.5-4.2,0.5-5.4,2.6c-2.6,4.4,1.5,2.9,2.9,2.9c7.6-0.5,15.2-1.2,22.8-2
		c17-1.6,34.1-3.2,51.1-4.9c18.8-1.9,37.7-4,56.5-5.7c14.1-1.2,28.2-1.7,42.2-3.3c13-1.5,26.1-3.1,39.2-3.1
		c20.2,0.1,40,2.8,59.7,7.3c26.9,6.3,52.2,16.6,77.1,28.4c15.6,7.4,31.2,14.8,46.1,23.7c16.8,10,33.9,19.7,50.2,30.4
		c8.9,5.8,17.3,12.2,27.1,16.5c1.3,0.6,2.6,2.3,3.9,1.3c0.6-0.5,0.1-2.4,0.1-3.7c0.9-3.7-2.2-4.9-4.2-6.4c-3.1-2.4-6.3-4.8-9.4-7.2
		c-1.2-0.9-3.1-1.7-2.1-3.8c4-0.8,7.9-1.1,11.8,0c4.1,1.2,8.3,0.4,12.4,0.8c24.7,2.7,49.6,4.3,74.3,7.2c15,1.7,30.1,3.3,45.2,3.8
		c14.7,0.5,27,6.1,38.6,14.3c29.3,20.6,57.2,43,84.4,66.2c17.7,15.1,34.9,30.8,52.3,46.2c2.7,2.3,6.8,2.9,8.6,6.6
		C1292.6,272.6,1293.2,272.8,1294,272.6z"/>
	<path fill="#373634" d="M144.7,399.7c-1.3-1.9-0.1-4.2-0.9-6.2c-1.4,5.7-0.8,11.4-0.7,17.2c2,2.1,4.5,3.1,7.5,3.6
		c19.4,3.2,39,4.7,58.5,6.7c21.2,2.2,42.4,4,63.6,5.8c16.2,1.4,32.5,2.8,48.7,4.3c29.5,2.7,59,4.8,88.5,7.3
		c27.2,2.3,54.4,4.7,81.6,6.9c23.2,1.9,46.3,4.3,69.5,5.7c9.6,0.6,19.2,1.5,28.9,1.3c7.1,1.5,14.3,1.3,21.4,1.7
		c15.1,1,30.2,1.8,45.3,4c5.3-1.5,10.5-0.7,15.8,0.1c3.6-0.3,7.2-0.4,10.8,0.1c2.5,0.1,5,0,7.6,0c3.4,0.1,6.7,0.4,10,1
		c3.1-0.4,6,0.5,9,1c3.6-0.3,7.2,0.7,10.8,0.5c8.3,0.8,16.7,0.6,25,1.8c4.1,0.5,8.2,0.3,12.3,0.6c2.9,0.1,5.9,0,8.8,0.6
		c3.4,0.4,6.9,0.2,10.4,0.4c3.2,0.1,6.5-0.1,9.7,0.6c4,0.4,8.1,0.1,12.2,0.4c3,0.1,5.9,0,8.9,0.6c4.4,0.3,8.7,0.1,13.1,0.4
		c3,0.2,5.9-0.3,8.9-0.6c4.4-0.4,8.8-0.2,13.2,0.7c2.3,0.2,4.7,0.1,7,0.1c5.3-0.3,10.5,1.4,15.8,1.5c2.1,0,4.2-0.1,6.2,0.4
		c5.6,0.2,11.3,0.2,16.9,0.6c3.3,0.3,6.6-0.4,9.9,0.4c5.2,1.2,10.6,0.2,15.9,1c1.8,0.1,3.6,0.2,5.4,0.5c6.2,0,12.5-0.1,18.7,0.1
		c2.4,0.5,4.8-0.4,7.2,0.3c6.2,0.9,12.5,0.4,18.7,1c2.4,0.1,4.9,0.1,7.3,0.5c6.3,0.1,12.5-0.1,18.8,0.5c2.7,0,5.5,0.1,8.2,0.6
		c6,0.1,11.9-0.1,17.9,0.4c3.4,0.1,6.7-0.1,10,0.6c6,0.2,11.9-0.1,17.9,0.4c2.4,0,4.9,0.2,7.3,0.6c6.6-0.1,13.2-0.2,19.8,0.4
		c3.4,0.1,6.8,0,10.1,0.6c6.6,0,13.3-0.2,19.9,0.4c3.4,0.1,6.8,0,10.1,0.6c6.3,0.1,12.6-0.2,18.9,0.4c3.4,0.1,6.8,0,10.1,0.6
		c6.6,0,13.2-0.2,19.8,0.4c2.5,0,4.9,0.2,7.4,0.6c8.2-0.6,16.5-0.5,24.7,0.4c2.8,0,5.7,0.1,8.5,0.5c9.5,0.2,18.9-2.4,28.5-1.4
		c8,0,16-0.1,24,0c3.4,0,5.8-0.8,6.9-4.3c0.9-2.7,3-4.8,4.6-7.1c1-1.5,2-3.2,0.9-5.1c-1-1.7-2.8-1.2-4.5-1.1
		c-12.9,0.5-25.9,1.5-38.8-0.8c-2.9-0.5-6,0-8.9-0.5c-11.1-1.5-22.2-0.6-33.3-1.2c-25.4-1.3-50.9-1.1-76.4-2.7
		c-11-0.7-22-0.6-32.9-0.9c-14.5-0.4-29-0.9-43.4-1.5c-20.8-0.8-41.6-1-62.4-2.6c-10.1-0.8-20.3-0.5-30.5-0.9
		c-12.5-0.5-25-0.9-37.4-1.5c-18.9-0.8-37.9-1.1-56.9-2.6c-8.3-0.7-16.6-0.6-24.9-0.9c-19.1-0.7-38.3-1.5-57.4-2.5
		c-24.1-1.2-48.2-2.2-72.3-3.5c-14.5-0.8-28.9-1.6-43.4-2.4c-19.6-1.1-39.2-2.1-58.8-3.6c-10.6-0.8-21.3-1.7-31.9-1.5
		c-4.4,0.1-8.3-2.4-12.7-1.8c-13.8-0.3-27.5-1.9-41.3-2.7c-17.2-1.1-34.4-3.3-51.6-3.6c-14.3-0.2-28.2-3.2-42.3-3.9
		c-11.1-0.5-22-2.4-33.1-2.4c-13.8-0.9-27.6-1.3-41.3-2.7c-8-0.8-16-1.5-24.1-1.7c-11.4-0.2-22.6-2.5-34-2.7
		c-11.5-0.2-22.9-1.8-34.4-2.8c-19.1-1.7-38.3-3-57.3-5.8c-9.6-1.4-19.4-2.6-29.2-2.7C148.8,399.2,146.8,400.8,144.7,399.7z"/>
	<path fill="#706F6D" d="M786.9,552.6c1.9-2.1,4.4-1,6.6-0.9c49,1.7,98,4.6,147.1,3.9c6.8-0.1,13.6,0,20.5-0.1
		c7.4,0,14.9,0.4,22.3,0.3c2.3-0.1,4.7,0.2,6-2.4c0.1-2-1.2-2.8-2.7-2.9c-4.3-0.2-8.5-1.8-12.8-0.2c-1.6,0.6-3.3,0.6-4.9,0.2
		c-12.1-2.4-24.4-2.6-36.7-3.4c-8-0.5-15.8-2.7-23.1-5.9c-10-4.4-19.9-9.2-29.9-13.7c-21.9-9.8-44.6-17.8-66.3-27.9
		c-8-3.7-15.6-8.3-23.6-11.9c-9.9-4.5-19.4-10-30.5-12c-6.8-1.2-12.8-5.2-19.6-7.1c-11.5-3.2-23.2-4.4-34.8-6
		c-13.7-1.8-27.6-2.9-41.4-4.3c-12-1.3-24.1-2.6-36.2-3.7c-12.4-1-25-0.8-37.3-3.1c-6.8,0.6-13.6-1.4-20.5-0.4
		c-1.8,0.3-3.5-0.1-4.3,2.1c0.6,3.4,3.2,4.5,6.2,4.5c11.4-0.1,22.6,2.5,34,1.3c2.7-0.3,5.4-0.1,7.4,2.2c7.5,1.6,15.2,0.2,22.7,1.7
		c11.7,2.3,23.3,5.1,34.4,9.6c9.3,0.4,16.8,5.8,24.8,9.4c21.4,9.8,39.6,24.5,58,38.9c3,2.4,5.4,5.4,8.6,7.5c3.3,2.2-1.1,4.4,0,6.6
		c1,1.7,2.7,1.8,4.4,1.8c4.3,0,7.1,2.1,9,5.8c4,1.5,6.5,4.7,8.8,8C783.8,552.2,784.9,553.5,786.9,552.6z"/>
	<path fill="#ABA7A4" d="M44.8,425.2c11,3.8,22.6,4.1,34.1,5.4c19.7,2.2,39.4,3,59.1,5.6c12.8,1.7,25.8,2.3,38.7,3.4
		c17.1,1.5,34.1,3.1,51.1,4.7c16.1,1.5,32.1,2.9,48.2,4.3c16.2,1.5,32.4,3.1,48.6,4.6c15.7,1.5,31.5,2.9,47.2,4.4
		c19.9,1.9,39.7,3.8,59.6,5.5c6.7,0.6,13.4,0.8,20.3-0.5c9.9-1.9,20.1-2.1,30.2-3.1c13.7-1.4,27.5-1.9,41.2-4.1
		c0.6-0.1,1.2-0.4,2.7-0.9c-4.1-3-8.1-3.7-12.3-4c-4.9-0.3-10.1,1.4-14.6-1.9c-0.6-1.2-1.6-1.6-2.9-1.6c-12.7,4.9-25.8,6.7-39.3,5.2
		c-3.4-0.4-6.7,0.3-9.9,0.9c-13.5,2.3-26.9-0.5-40.3-1.6c-17.6-1.4-35.1-3.9-51.7-4c3.5-0.2,8,0.5,12.5,0c4.8-0.5,9.6-1.3,14.3-2.5
		c2-0.5,4.1-0.7,4.8-3c0.7-2.5-0.9-4-2.7-5.3c-1.1-0.4-2.3-0.7-3.4-1c-3.8-0.3-7.6-0.4-11.4-0.6c-13.7-1.6-27.5-2.4-41.2-3.6
		c-17.1-1.5-34.1-3.4-51.2-4.6c-16.3-1.1-32.5-3-48.7-4.3c-12.1-1-24.2-2.2-36.3-3.1c-14.3-1.1-28.5-2.9-42.8-3.5
		c-2-0.1-4-0.4-5.4,1.6c-1.9,2-4.4,1.1-6.6,1.2c-28.6,1.7-57.1,3.2-85.7,4.7C48.7,423.7,46.6,424,44.8,425.2z"/>
	<path fill="#989491" d="M501,56.6c27.6-2.9,55.2-6,82.8-8.8c19.2-1.9,38.4-3.4,57.6-5.3c18.7-1.8,37.4-3.8,56-5.7
		c7.9-0.8,15.9-1.3,23.8-2.1c1.4-0.1,3.3-0.1,3.8-1.8c0.6-2.1-1.3-2.8-2.6-3.7c-4.4-3.1-8.9-5.8-14.1-7.4c-2.1-0.6-4.2-1.3-5.3-3.4
		c-2.3-1.6-4.9-1.1-7.5-1c-6.9-0.7-13.9-0.7-20.8,0c-9.1,0.9-18.2,2-27.4,3c-10.5,1.1-21,2.1-31.4,3.3c-5.2,0.7-10.4,0.1-15.5,0.3
		c-8.6,2.2-17.6,1.1-26.3,2.9c-3.7,0.7-7.5,1.1-11.4,1.2c-5.7,0-11.2-0.3-16.7-2.1c-7-2.3-14.4-2.8-21.6-3.9
		c-2.8-0.4-5.8-0.6-8.2-2.1c-5-3.1-10.5-5-16.2-6.5c-8.6-0.8-16.9,1.4-25.4,2.2c-9.3,0.8-18.6,2.3-28,3.5c-7.4,1-14.8,2.4-22.2,2.9
		c-6.5,0.4-12.9,1.4-19.4,2.3c-10.1,1.3-20.4,2-30.5,3.7c-6.5,1.1-13.2,1.3-19.8,2.1c-8.2,1-14.1,1.5-16,9.2c1.2,2.2,3,2.2,5.1,1.6
		c13.4-4.2,27.4-5.4,41.1-7.8c20.7-3.5,41.5-6,62.3-8.7c13.5-1.7,27-4.1,40.6-5c13.9-0.9,25.4,6.4,28.6,21.6
		c0.9,4.1-1.4,6.6-6.4,7.8c-11.1,2.6-22.4,3.4-33.7,4.1c-12.9,0.8-25.8,2.3-38.6,3.4c-3.3,0.3-6.7,0.6-10-0.1
		c-9.5-1.9-19-1.3-28.3,0.1c-10,1.4-20,2.4-30.1,3c-8.3,0.5-16.6,1.1-24.8,2.1c-2.7,0.3-5.1-1.6-7.8-0.9c-3,0.6-6.3,0.4-8.6,2.9
		c-1.4,2.2-2.5,4.5-3,7c18.9-1.3,37.7-2.6,56.6-3.8c18-1.1,36-3.5,54.1-4.4c14.2-0.7,28.4-3.2,42.6-4.3
		C485.8,57.6,493.3,55.9,501,56.6z"/>
	<path fill="#A5A19E" d="M786.9,552.6c-3.1-4.2-5.7-8.9-10.8-11.1c-1.9,1.6-0.4,4.6-2.6,6c-0.8,0.6-1.3,2-2.2,1.9
		c-8.3-0.9-15.9,5.7-24.5,2.5c-1.8-0.7-3.9-0.5-5.9-0.8c-2.8-0.5-5.5-1.3-7.8-3c-2.9-2.1-2.7-4.4,0.4-6.1c4-2.3,8.6-2.2,13-2.9
		c3.1-0.5,6.2-1,9.3-1.4c2-0.3,4.4-0.6,5.2-3.1c2-1.5,4.5-0.6,7.1-1.6c-3-5-7.7-8-11.7-11.4c-23.7-20.4-49.9-36.9-78.8-48.9
		c-2.1-0.9-4.4-1.4-6.6-2.1c-2.3,3.8,0.8,5.1,3.3,6.2c6.5,3,13.4,5.2,19.5,8.9c10.8,6.5,22.6,11.5,31,21.5c1.5,1.8,2.9,3.6,4.3,5.5
		c3,3.8,3,7,1.2,12.1c-2.1,6.1-6.8,8.5-10.7,12.2c-2.5,2.4-5.1,1.7-7.8,0.3c-12.7-6.7-25.7-12.7-38.7-18.5
		c-18.4-8.1-36.6-16.8-55.6-23.6c-25.5-9.3-51.2-17.9-77.9-23.3c-3-0.6-6-0.7-8.9-0.9c-3.8-0.2-7.5-0.8-10.9-2.4
		c-1.9,0.4-2.8,1.5-2.8,3.4c0.6,3.1,3.3,3.2,5.5,3.4c24.1,2.3,46.9,9.9,69.6,17.7c18.1,6.2,35.7,13.8,53.2,21.6
		c22.1,9.8,43.7,20.6,64.9,32.2c21.3,11.7,42.5,23.6,62.3,37.7c5.9,4.2,12,6.8,19.5,4.1c4.2-1.5,8.8-1.8,13.2-2.7
		c1.9-0.4,3.6-0.8,3.8-3.2C802.4,572.1,795.3,561.9,786.9,552.6z"/>
	<path fill="#746232" d="M515.8,680.4c-15-30.6-30-61.3-45-91.9c-0.4-0.6-0.2-1.3-0.4-1.9c-0.3-1.5,1.1-3.8-1.3-4.2
		c-2.5-0.4-3.4,1.8-3.9,3.8c-1.3,5.2-0.5,10.3,1.5,15.2c6.5,15.2,13.5,30.1,17.5,38.6c-5.9-12.8-14.7-32.1-24.4-51.1
		c-1.1-2.2-1.8-4.6-2.6-7c-0.7-1.9-1.7-3.8-4.2-3.6c-2.1,0.2-2.8,1.9-3.4,3.8c-1.7,5.4-1,10.5,1.1,15.6c6,14.2,12.8,28,19.6,41.8
		c-7.5-14.8-14.3-29.9-21.4-44.9c-2.1-4.5-4.6-8.8-6.3-13.6c-0.7-2-2-3.6-4.5-3.1c-2.3,0.5-3.1,2.2-3.4,4.4
		c-0.9,7.2,0.8,13.9,4.2,20.2c6.5,12.3,12.1,24.9,17.7,37.6c-5.5-12.7-11.3-25.2-17.6-37.6c-3-5.9-5.3-12.2-8.9-17.9
		c-0.5-0.8-0.9-1.8-1.5-2.6c-1.5-2.1-3.5-3.2-6-2c-2.4,1.1-2.7,3.2-2,5.5c1,3.3,1.5,6.8,2.9,10c4.9,11.3,9.6,22.6,15.2,33.6
		c2.1,4.2,4.6,8.6,3.2,13.7c2.3,8.1,6.6,15.4,10.1,23c0.8,1.8,2.5,2.6,4.1,3.4c3.5,3.3,7.6,3.3,12.2,3.8c5.6,0.7,11.4,1.4,16.9,2.5
		c4.5,0.9,8.6,3.6,13.6,2.1c0.4-0.1,1.1,0,1.4,0.2C504.8,682.2,510.4,680.4,515.8,680.4z"/>
	<path fill="#938F8C" d="M811,585.5c-1.1,2.6-3.6,2.6-5.8,3.2c-7.5,1.8-15.5,2.1-22.2,7c-3.1,2.2-9.7,0.4-12-3.1
		c-2.8-4.3-8.8-6.6-11.3-5.7c-5,1.8-11.1,0.4-15.2,4.5c-3.3,3.2-6,2.1-8.4-0.8c-4.4-5.2-10.9-5.5-15.1-0.1c-3,3.9-5.2,5.6-9.1,0.8
		c-3.6-4.3-9.5-2.9-14.4-3.9c-1.5-0.3-2.8,1.3-2.9,2.9c-0.1,3.6-2.4,3.5-4.8,3.3c-3.1-0.3-6.3-0.9-9.4-0.8c-4.3,0.1-7.8-0.4-7.5-5.9
		c0-1-0.4-2.1-1.6-2.2c-1.6-0.2-2,1.1-2.1,2.3c-0.4,4.6-4.4,4.3-7.3,5.5c-1,0.4-2-0.1-2.3-1.3c-0.4-1.3,0.8-3.8-1.2-3.8
		c-3,0.1-5.8-1.4-8.8-0.6c-2.7,0.7-5.5,1.4-8.3,1.8c-2.2,0.3-4.5,0.5-5.2-2.4c-0.5-1.7-1.2-3.2-3.3-3c-1.1,0.1-1.9,0.7-2.2,1.7
		c-0.7,2,0.6,3.1,2,4.2c0.2,0.2,0.2,0.6,0.3,0.9c-6.7,3.4-12.7,1.3-18.8-1.9c-6.5-3.4-13.3-3.3-20.2-1.2c-4.9,1.4-10,3.3-14.5-1
		c-0.3-0.3-0.9-0.7-1.3-0.6c-7.4,0.6-14.8-2.6-22.2,0c-3.7,1.3-7.7,1.1-11.4,0.5c-14.7-2.2-29.7-1.3-44.5-4.1
		c-6.2-1.2-12.9-0.8-19.3-1.9c-2.8-0.5-6.2-0.1-7.5-3.7c-2.5,0.1-1.8,1.4-1.1,2.8c-0.4,4.1,1.4,6,5.6,6.4
		c14.7,1.4,29.4,3.5,44.1,4.6c27.3,2,54.6,5.1,82,6.5c20.4,1.1,40.8,3,61.2,3.9c9.7,0.4,19.6,0.9,29.3,0.7
		c9.8-0.2,19.6,1.4,29.4,1.5c9.3,0.1,18.5,1.1,27.8,1.3c9.1,0.2,18.2,2.2,27.4,0.8c3-0.4,5.9,1.3,8.3,3.1c3.9,2.9,7.5,1.8,10.4-1
		c2.4-2.4,5-3.3,8.2-4.1c4-1,8.8-1.9,8.5-7.9C814,591,813.3,588,811,585.5z"/>
	<path fill="#3E3D3B" d="M1230.2,478.5c41.9,1.8,82.3-8.6,123.3-14.3c36.3-5,72.4-11.2,108.6-16.9c-0.1-4.2-0.1-8.5-0.2-12.7
		c-2-2.7-4.7-0.8-7-0.9c-2.1-0.1-4.2,1-6.4,0.9c-0.5,0-1,0-1.5,0.1c-2.4,0.7-4.8,0.2-7.2,0.6c-0.4,0.1-0.9,0.3-1.3,0.4
		c-2,0.7-4.1,0.3-6.2,0.4c-0.5,0-1,0-1.4,0.1c-2.1,0.9-4.4,0.9-6.5,1.6c-8.9,0.8-17.6,2.9-26.4,3.6c-4.7,1.2-9.5,1.1-14.2,1.9
		c-0.5,0.1-1,0.2-1.5,0.4c-8.7,0.8-17.2,3.3-26,3.5c-0.5,0-1,0-1.5,0.1c-2.4,1.1-4.9,0.9-7.4,1c-0.5,0-1,0.1-1.5,0.3
		c-8.3,1.8-16.8,2.5-25.3,3.7c-0.6,0-1.1,0.1-1.7,0.3c-16.5,2.4-33,4.9-49.6,6.9c-13,2.8-26.2,1.4-39.3,1.3c-3.6,0-7.2,0-10.8,0
		c-1.8,0-4.1-0.3-5.2,2c1.6,1.1,3.5,1.1,5.3,1.1c15.1,0,30.1,0,45.7,0c-2.3,4.6-6.8,7.9-8.2,13.1c-0.3,1.3-2.7,0.9-4.2,0.9
		c-7.6,0.1-15.3,0.1-22.9,0.2C1229.6,478.2,1229.7,478.5,1230.2,478.5z"/>
	<path fill="#989491" d="M337,63.6c19.2-1.5,38.4-3.3,57.7-4.5c10.1-0.6,20.1-1.3,30.3-0.7c19.1,1.1,38.1-2.6,57.2-3.5
		c9.5-0.4,18.9-1.6,28.2-3.2c9.1-1.5,11.2-5.3,7.8-13.9c-2.5-6.3-4.7-12.4-11.3-15.8c-6.1-3.2-12.3-6.1-19.4-5.2
		c-6.4,0.8-12.8,1.9-19.3,2.7c-23.1,3-46.2,5.8-69.3,9.1c-11.2,1.6-22.4,3.2-33.5,5.4c-8.9,1.7-18,2.8-26.7,5.4c-1.3,1-0.5,3.1-2,4
		c1.6,3.1,4.5,2.5,7.1,2.2c14.7-1.6,29.4-3.5,44.1-5.2c3.1-0.4,6.9-1.5,8.5,2c1.8,3.8-0.7,7.1-3.4,9.7c-3.5,3.5-8.3,3.4-12.7,3.7
		c-12.3,0.9-24.5,2.4-36.8,3.4C340.9,59.6,337.3,59.2,337,63.6z"/>
	<path fill="#85817E" d="M380,438.6c1,0,2,0.1,3,0.1c7.3,3.9,15.5,3.6,23.4,4.3c22.5,1.9,45.1,3.8,67.6,5.8c7.3,0.7,14.7,1.9,22-0.2
		c1,0,2,0.1,2.9,0.1c10.6,0.1,21.1,1.4,31.7,2.3c5.1,0.4,10.2,1,15.3,1.5c1.7,0.2,3.3,0.4,4.1,2.2c4.7,3.5,10.8,3,14.8-1.2
		c6.4-2,13-1.2,19.6-1c1.8,0.1,3.6,0,5.5,0c0.5-0.6,0.6-1.2,0-1.8c-54.7-4.4-109.4-8.8-164.1-13.4c-52.6-4.4-105.2-9.2-157.7-13.7
		c-35.2-3-70.3-6.2-105.4-10.2c-6.6-0.8-13.1-1.9-19.6-2.8c0,2.3,0,4.6,0.1,7c14.1,1.3,28.1,2.7,42.2,4c17.9,1.6,35.8,3.1,53.6,4.7
		c13.6,1.2,27.2,2.2,40.7,3.4c11.9,1.1,23.8,2.5,35.7,3.5c7.8,0.7,15.6,1.8,23.3,2c10.2,0.3,20.2,2.2,30.3,2.4
		C372.6,438.9,376.4,437.3,380,438.6z"/>
	<path fill="#989491" d="M337,63.6c5.5-3,11.7-2.1,17.6-2.8c11-1.4,22.1-2.1,33.2-3.2c6.8-0.7,13.4-8.6,12.9-15.5
		c-0.2-3.3-2.4-4.5-5.5-4.5c-8.5,0-16.8,1.6-25.2,2.5c-11,1.3-22,3-33.1,3.4c-3.3,6.5-6.2,13.2-8.7,20.1C331,63.6,334,63.6,337,63.6
		z"/>
	<path fill="#867238" d="M1093,567.6c-1.4-8.2-5.3-15.6-7.7-23.5c-1-3.3-4-2.1-6.3-2.5c-0.2-0.1-0.5-0.1-0.7-0.2
		c-3.8-0.6-7.6-1.2-11.5-0.7c-0.8,0.2-1.5,0.4-2.3,0.5c-4,0.6-7.9,1.4-11.9,1.7c-6.5,2.3-13.3,2.4-20,3.5c-4.9,2.2-5.8,3.6-4.4,8.2
		c0.9,2.9,0.7,6.4,4.1,8.1c2.2-0.1,4.3-0.4,6.3,0.9c3.1,2.2,6.4,2.5,9.8,0.8c0.1-0.1,0.4-0.2,0.5-0.2c5.6,2.8,11.8,0.8,17.5,2.5
		c2.4,0.7,4.8,2.7,7,1c3.5-2.8,5.8-2,8.7,1.1C1085.7,572.9,1089.4,569,1093,567.6z"/>
	<path fill="#AEABA6" d="M500,13.7c8.8,6.1,18,11.2,29,11.9c7.1,0.5,14.1,2.2,21,4.3c5.8,1.7,11.9,0.9,17.9,0.5
		c8.6-0.5,17.1-2.7,25.7-2.9c2.4-0.1,4.5-1.2,6.3-2.8c-0.7-1.1-2.1-0.2-2.9-1c-8.3-1.1-16.8-0.9-24.9-2.4c-19.8-3.5-39.9-4-59.6-7.3
		C508.4,13.4,504.1,13.8,500,13.7z"/>
	<path fill="#6A624C" d="M456,669.2c-4-8.9-8-17.8-12-26.6c-0.1-4.9-3-8.7-4.9-12.8c-3.8-8.3-8.3-16.3-11.5-24.8
		c-3.8-4.4-6-9.8-8.8-14.8c-1.1-1.9-2.3-3.4-4.6-2.7c-2.9,0.9-1.7,3-1.4,4.9c0.4,2.4,1,4.8,2.1,7c9.6,20.7,19.2,41.5,28.7,62.2
		c2.2,4.7,1.5,6-3.7,7C445.3,671.1,450.6,670.9,456,669.2z"/>
	<path fill="#888481" d="M1337.8,493.9c-6.5-1.1-12.5,3.1-18.8,3.8c-3.1,0.6-157.8,31.8-170.4,31.9c0,0.2,0.1,1.8,0.1,2
		c-3.1-1.7-6.5-1.4-9.8-0.8c-12,2.2-24.1,4-36.2,6.4c-6.6,1.3-13.3,0.5-19.8,1.5c-1.7,0.3-3.2,0.3-4.1,1.9c-0.1,0.5-0.3,1.1,0.1,1.4
		c6.2,4.8,7,12.5,9.7,19.1c1,2.5,2,4.9,4.4,6.4c1.6,2.5,3.7,3.9,7,4c28.6,0.8,57.1-1.6,85.3-6.1c0.6-0.1,1.2-0.5,1.8-0.8
		c15.7-2.1,30.7-7,45.8-11.5c4.8-1.4,9.4-3.1,14.2-4.7c14.2-4.1,28.3-8.5,42-14c13.7-4,26.5-9.8,38.4-17.5c5.9-3.8,7.3-9.6,6.7-16
		C1333.8,497.9,1334.5,494.4,1337.8,493.9z"/>
	<path fill="#32312F" d="M1032.1,562.7c-0.1-2.8-0.5-5.6-1.7-8.1c-1.4-3-0.8-5,2.5-5.9c-1-2.4-3.1-2.4-5.1-2.2
		c-11.6,1.1-23.2,2.1-34.7,3.7c-1.7,0.2-3.3,0.5-4,2.4c-6.9,1.5-13.8,1.4-20.8,2c-2.5,0.2-5-0.2-7.4,0.9c7.7,1,15.4,2.1,23.2,3
		c13.7,1.6,27.4,3.1,41.1,4.7C1027.6,563.5,1029.9,564,1032.1,562.7z"/>
	<path fill="#706F6D" d="M1141,475.7c-3.3-0.1-6.5-0.1-9.8-0.2c-6.4-1.2-12.8,0.3-19.2-0.8c-3.3-0.1-6.5-0.1-9.8-0.2
		c-6.7-1.2-13.5,0.4-20.2-0.8c-3.3-0.1-6.5-0.1-9.8-0.2c-6.7-1.2-13.5,0.4-20.3-0.8c-2.3-0.1-4.5-0.1-6.8-0.2
		c-6-1.1-12.2,0.3-18.2-0.8c-3.3-0.1-6.5-0.1-9.8-0.2c-6-1.2-12.2,0.4-18.2-0.8c-2.6-0.1-5.2-0.1-7.8-0.2
		c-6.4-1.2-12.9,0.4-19.2-0.8c-2.3-0.1-4.5-0.1-6.8-0.2c-6.4-1.2-12.8,0.4-19.2-0.9c-2.3,0-4.5-0.1-6.8-0.1
		c-6.4-1.2-12.8,0.4-19.2-0.9c-1.6,0-3.2-0.1-4.8-0.1c-5.3-1.2-10.8,0.3-16.1-0.8c-3.3-0.1-6.5-0.1-9.8-0.2
		c-5.7-1.2-11.5,0.4-17.2-0.9c-1.9,0-3.9-0.1-5.8-0.1c-5.4-1.2-10.9,0.4-16.2-0.8c-2.3-0.1-4.5-0.1-6.8-0.2
		c-4.2-0.8-8.5-0.2-12.8-0.4c-3,0.8-2.1,2.4-0.6,3.8c1,0.9,2.5,0.9,3.8,1c20.7,1.5,41.4,3.3,62.2,4.4c14.6,0.8,29.2,1.6,43.9,2.2
		c17.1,0.7,34.2,2.2,51.3,2.7c24.8,0.7,49.5,2,74.3,3.5c9.9,0.6,19.9,1.3,29.9,1.4c29.6,0.1,59.2,2.1,88.9,2.2
		c11.8,0,23.6,0.4,35.4,0.7c4.1,0.1,8.2,0.5,12.1,1.6c-0.2,2.2-1.7,2.3-2.8,2.9c-13.9,7.2-28.8,12.2-43.3,17.9
		c-0.6,0.2,0.1-0.1-0.5,0.2c-2.7,1.4-6.9,2.2-5.4,6.4c1.5,4.1,4.9,1.5,7.7,0.9c20.7-4.3,40.5-12.4,61.8-14c5.7-0.4,18.1,3.8,24,5.7
		c1.8,0.4,78-16.3,82.9-18c11.7-3.6,23.4-7.2,35-10.9c22.1-7.1,44.2-14.2,65.7-23c2.4-1,4.8-2.2,7.2-3.4c1.1-0.6,2.3-1.6,2-3.1
		c-0.4-2.1-2.3-1.5-3.7-1.6c-1.7-1.7-3.7-1.8-6-1.4c-44.4,7-88.9,13.7-133.3,20.5c-19.4,3-39.1,5.1-58.2,9.2
		c-11.8,2.6-23.3,1.7-35,2.4c-9.6-0.3-19.2,0.6-28.7-0.5c-2.6,0-5.2-0.1-7.8-0.1c-6.6-0.9-13.2-0.1-19.9-0.4
		c-1.8-0.1-3.7,0.4-5.4-0.5c-2.3,0-4.5-0.1-6.8-0.1C1154.5,475.4,1147.7,476.8,1141,475.7z"/>
	<path fill="#AFABA7" d="M282.9,88.6c12.7-4.6,25.9-6.9,39.3-8.5c20.8-2.5,41.6-4.9,62.3-7.6c4.4-0.6,9-0.3,12.9-3.2
		c-24.6,0-48.9,4.2-73.4,4.3c-5.4,3.4-11.9,1.7-17.7,3.6C298,79.9,289.5,82.4,282.9,88.6z"/>
	<path fill="#938F8C" d="M1398.2,442.7c7.4-0.9,15-0.8,22.2-3.4c1.6-0.6,3.2,1.1,4.7-0.1c1.8-3.1,4.9,0.1,7-1.4l-0.1,0.1
		c2-2.5,4.9,0.3,7.1-1.1l-0.1,0.1c2.4-2.2,5.5,0.3,8.1-1.1l-0.1,0c5.9-1.8,12.3-0.9,18.2-3c1.2-0.6,1.1-1.4,0.2-2.1
		c-22.7,3.2-45.3,6.4-68,9.5c-23.8,3.3-47.8,6-71.5,9.7c-13.3,2.1-26.8,2.5-39.8,5.9c0.1,0.2,0.2,0.5,0.4,0.7c1,1.1,2.2,1.3,3.6,1
		c7.3-1.9,15.1-1.4,22.4-3.6c2.6-0.7,5.2,1.2,7.7-0.1l-0.1,0c7.7-2.5,15.8-2.6,23.7-3.6c1.1-0.1,2.3,0.3,3.4-0.4l-0.1,0.1
		c2.4-2.6,5.5,0.5,8-1.1l-0.1,0c9.4-1.1,18.6-3.5,28.1-4l-0.1,0.1C1387.9,442.5,1393.1,443.5,1398.2,442.7z"/>
	<path fill="#928F8C" d="M1465.1,432.7c-6.1,1-12.3,0.7-18.2,3c5.1,0.3,9.9-1.9,15-1.1C1463,434,1464.1,433.3,1465.1,432.7z"/>
	<path fill="#9D9996" d="M674.8,17.5c6.9,0,13.9,0,20.8,0C688.6,16.2,681.7,16.4,674.8,17.5z"/>
	<path fill="#9D9996" d="M597,23.7c1,0.3,1.9,0.7,2.9,1c5.3-0.5,10.8,0.9,16.1-0.9C609.6,23.8,603.3,23.7,597,23.7z"/>
	<path fill="#7C7976" d="M527,89.6c-1.9,2.5-3.9,4.9-5.7,7.5c-1.6,2.3-0.6,2.9,1.8,2.5c4.4-6.9,11.2-9.4,19-10c3.2-1.3,6.8,0.4,10-1
		c12.6-0.2,25.1-2.6,37.7-3.3c17.4-0.9,34.7-2.9,52.1-4.4c1.2-0.1,3.2,1,3.3-0.9c0.2-2.2-2-2.2-3.7-2.3c-6.7-0.5-13.3,0.8-19.9,1.3
		c-22,1.7-44,3.8-66,5.7c-7.4,0.7-14.9,1.4-22.3,2.1C530.8,87,528.8,88.1,527,89.6z"/>
	<path fill="#989491" d="M532,185.6c-6.6-0.8-13.3,1.1-20-0.4C518.6,186.9,525.3,188.5,532,185.6z"/>
	<path fill="#989491" d="M557,184.6c-6.4,0-12.9-0.4-19.3,0.9C544.2,185.3,550.7,186.7,557,184.6z"/>
	<path fill="#989491" d="M548,136.7c5.1-0.1,10.2,0.3,15.2-1C558.1,135.9,552.9,134.6,548,136.7z"/>
	<path fill="#989491" d="M529.1,144c1.9-1.9,3.2-4.3,5.8-5.4c0-0.3,0.1-0.6,0.2-0.9C531.8,138.5,529.7,140.5,529.1,144z"/>
	<path fill="#989491" d="M536,137.5c3.7-0.1,7.5,0.3,11.1-0.8C543.5,136.8,539.7,135.9,536,137.5z"/>
	<path fill="#938F8C" d="M953,280.6c-47.3-0.1-94.7-0.1-142-0.2c-0.7,0-1.3,0.1-2,0.2c4.9,1.9,10.2,1.1,15.2,1.4
		c6.7,0.4,13.5-0.4,20.3-0.4c33.7-0.1,67.4,0,101.2,0C948.1,281.6,950.7,282,953,280.6z"/>
	<path fill="#938F8C" d="M806,280.6c-13.3,0-26.7,0-40-0.1c4.8,1.5,9.5,2,14.6,1.8c6.1-0.3,12.2,0.3,18.3,0.7
		C801.6,283.2,804.1,283.1,806,280.6z"/>
	<path fill="#9D9996" d="M1021.3,321.1c-0.2-1.2-1.1-1.5-2.1-1.7c-0.9-0.2-1.7,0.1-1.7,1.1c0,1.1,1,1.6,2,1.8
		C1020.4,322.4,1021.1,322.1,1021.3,321.1z"/>
	<path fill="#4F4E4D" d="M1389.7,394.7c-0.9-0.8-1.8-1.5-2.7-2.3c-7.8-1.7-15.6,0-23.4,0.7c-23,2.1-46.1,4.4-69.1,6.7
		c-2.1,0.2-4.7,0-5.7,2.2c-1.2,2.5,0.6,4.4,2,6.3c4.6,6.1,10.3,9.2,18.5,8.2c24.9-3.2,49.9-5.8,74.9-8.6c7.6-0.9,9.3-3.7,6.4-10.9
		C1390.4,396.2,1390,395.5,1389.7,394.7z"/>
	<path fill="#9D9996" d="M412.5,134.7c1.6-0.1,2-1.2,2.2-2.4c0.2-1.2,0.1-2.4-1.2-2.8c-1.5-0.4-2,0.7-2.2,1.9
		C411,132.8,411.2,134,412.5,134.7z"/>
	<path fill="#9D9996" d="M502.3,96.7c0,0.9,0.2,1.8,1.3,1.7c1,0,1.3-0.9,1.4-1.8c0.1-0.9-0.1-1.7-1.2-1.7
		C502.8,95.1,502.4,95.8,502.3,96.7z"/>
	<path fill="#535250" d="M176.9,334.5c-5.6,0.4-10.3-1.1-14.6,1.7c-2.8,1.8-4,4.1-3.1,7.1c0.9,3,1.8,6.1,5.9,6.3
		c7.1,0.4,14.2,1.3,21.3,1.8c6.6,0.4,11.8-7.8,8.9-13.7c-0.9-1.8-2.3-2.2-4.1-2.3C186.2,335.1,181,334.7,176.9,334.5z"/>
	<path opacity="0.68" d="M1293.9,273.8c0-0.4,0-0.8,0.1-1.2c-0.3-0.4-0.7-0.7-1-1.1c-2.1-3.2-5.1-5.6-8.1-7.9
		c-16.1-14.2-31.9-28.7-48.2-42.7c-29.9-25.8-60.5-50.6-93.1-72.8c-10-6.8-20.6-10.9-32.9-11.5c-15.6-0.7-31.2-2.6-46.7-4.1
		c-8-1.2-16-1.7-24.1-2.4c-11-1-22-1.6-33-3c-3.9-0.5-8-0.5-11.9-0.8c-11.1-0.7-22.1-2.3-33.2-2.4c-2.8,0-4.4,0.3-2.4,3.4
		c6.2,6.5,13.9,11.1,20.6,17c1.4,0.8,3.3,1.1,4,2.9c0.9,2.4,1.6,4.9,5.1,3.9c14,10.2,26.9,21.7,40.2,32.9
		c7.7,6.5,15.1,13.3,22.7,19.9c1.8,2.1,3.6,4.1,6.1,5.5c6,5.3,12,10.7,18,16l0,0l0,0c0,0,0,0,0,0c1,1.1,2.1,2.2,3.2,3.1
		c7.8,7.6,15.7,15.3,23.5,22.9c4.9,4.7,10,9.3,14.8,14.1c6.3,6.3,13.3,11.5,21.4,15.1c6.6,0.7,13.3,0.6,19.9,0.1
		c42.9-0.4,85.8-0.8,128.7-1.2c1.3,0,2.7,0.1,4,0c1.6-0.1,3.7,0.6,4.5-1.2C1297,276.3,1295.5,274.9,1293.9,273.8z"/>
	<path fill="#AFABA7" d="M989.2,151.3c-1.7-1.3-3.4-2.6-5.1-3.9c-0.5,2.4-1.3,4.9,1.6,6.3C987.8,154.6,988.3,152.6,989.2,151.3z"/>
	<path fill="#9D9996" d="M1158.9,280.8c-6.6,0-13.3,0-19.9-0.1C1145.7,282.2,1152.3,282.1,1158.9,280.8z"/>
	<path fill="#9D9996" d="M1058.2,209.5c-2-1.8-4.1-3.6-6.1-5.5C1053.3,206.8,1055.1,208.9,1058.2,209.5z"/>
	<path fill="#98864A" d="M564.9,453.6c-4.9,0.8-9.9,1.2-14.8,1.2c-8.2,0.9-16.5,1.9-24.7,2.7c-22.2,2.1-44.3,4.1-66.5,6.2
		c0,0.3,0,0.7,0,1c-5,4.5-8.7,9.7-11,16.3c-4.1,11.4-9.1,22.5-13.9,33.7c-1.3,3.1-2.6,6.2-3.6,9.3c-1.5,4.8,0.5,6.7,5.6,5.5
		c2.1-0.8,2.7-2.8,3.4-4.7c6.2-16.4,13.7-32.2,20.6-48.3c0.9-2.1,1.9-4.3,3.5-6c0.8-0.8,1.8-2,3-1.3c1.4,0.8,0.4,2.1-0.1,3.1
		c-2.9,6.7-5.7,13.5-8.6,20.2c-10.7,24.9-20.5,50.2-31.8,74.9c-0.4,0.9-0.9,1.8-1,2.8c-0.3,2.6,0,5.2,2.9,6.2c2.8,0.9,5-0.4,6.2-2.9
		c2.4-4.9,4.4-10.1,6.4-15.2c10.8-27,22.6-53.7,33.8-80.6c1.3-3.1,2.9-6.3,7.1-7.9c-0.1,5.8-3.2,10.1-5.1,14.6
		c-11.6,28.2-23.3,56.3-35.1,84.4c-0.3,0.6-0.5,1.3-0.7,1.9c-0.9,2.9-1.3,5.8,2.2,7.2c3.4,1.3,5.4-0.9,6.5-3.8
		c5.1-12.5,10.3-24.9,15.7-37.3c8.3-19.1,15.7-38.5,24.2-57.5c1.5-3.2,3.3-6,7.3-7.7c-0.1,3.8-2,6.3-3,9
		c-8.3,22.3-18.3,44-27.2,66.1c-3.3,8.3-6.6,16.7-10.4,24.9c-0.4,0.9-0.7,1.9-0.9,2.9c-0.5,2.7,0.1,5.1,3.1,6
		c2.7,0.8,4.4-0.7,5.5-3.1c3.1-6.5,5.5-13.2,8.3-19.8c10.1-23.7,20.1-47.5,30-71.4c2.5-6,5.2-12,12.1-14.4c1-0.4,1.8-0.7,2.8-0.2
		c0,0,0,0.5,0,0.5c1-0.7,2.1-1.5,3.1-2.2c8.7,2.2,17.3-0.3,25.9-1c20.2-1.8,40.4-3.6,60.5-5.7c2.6-0.3,5.5,0.2,6.5-3.3
		c-0.7-1.6-2.1-2.1-3.7-2.1c-11.3,0.5-22.5-2.1-33.8-2.1C571.8,455.6,568.3,455.3,564.9,453.6z"/>
	<path fill="#728DE1" d="M402.3,512.6c0.2-1.3,0.5-2.6,0.7-3.9"/>
	<path fill="#728DE1" d="M402,513.8"/>
	<path fill="#7994E1" d="M401.2,618.5"/>
	<path fill="#B2F6FC" d="M402,513.8c0.1-0.4,0.2-0.8,0.4-1.1"/>
	<path fill="#97C4F9" d="M403,508.7"/>
	<path fill="#867238" d="M517,471.5c0.3-2-0.2-2.7-2.4-2.2c-5.3,1.3-9.4,4.1-11.6,9.2c-5,11.6-10.1,23.2-15.1,34.8
		c-6.7,15.6-13.2,31.3-19.8,47c-2.1,5.1-4.2,10.2-6.3,15.2c-0.6,1.4-0.9,3.7-3.2,2.9c-2.1-0.8-1.4-2.8-0.8-4.3
		c3.2-7.9,6.4-15.7,9.6-23.6c10.4-25.1,20.8-50.1,31.2-75.2c0.5-1.2,1.2-2.4,1.8-3.5c0.6-1.1,2.3-1.9,1-3.4c-1-1.1-2.6-1-3.8-0.6
		c-4.8,1.7-8.4,4.8-10.4,9.5c-11.9,27.9-23.7,55.8-35.5,83.7c-1.7,4-3.1,8.1-4.7,12.1c-0.6,1.5-1.4,3.6-3.4,2.9
		c-2.5-0.9-1.4-3.1-0.7-4.7c4.3-10.5,8.7-20.9,13.1-31.4c9.3-22.4,18.6-44.9,28-67.3c0.1-0.3,0.4-0.6,0.4-0.9c0.2-2,4.1-3.5,1.8-5.4
		c-2.1-1.7-5.3-0.2-7.4,1.3c-3.7,2.5-5.7,6.4-7.4,10.5c-12.8,30.7-25.6,61.5-38.4,92.2c-0.1,0.3-0.2,0.6-0.4,0.9
		c-0.9,1.7-1.9,4.2-4.3,3c-2-0.9-1.2-3.3-0.5-4.9c2.3-5.5,4.8-11,7.2-16.5c7.1-16.7,14.1-33.4,21.2-50.1
		c4.8-11.2,9.7-22.3,14.5-33.5c0.5-1.3,2.3-2.5,0.8-4c-1.2-1.2-2.8-0.3-4.3,0c-5.4,1-7.4,5.3-9.3,9.6c-6.9,16.2-14.5,32.2-20.8,48.7
		c-0.5,1.4-1.4,2.6-2.1,3.9c-9.9,14.3-14.9,30.6-19.8,46.9c-1.4,4.5-0.4,8.7,2,12.9c3.5,6.1,6.6,12.4,8.8,19.2
		c5.2,12.4,12.1,24,18,36c1.7-5.6-2.3-9.8-4.1-14.4c-4.6-11.4-10-22.5-14.9-33.8c-1.1-2.6-1.8-5.4-2.5-8.1c-0.5-1.8-0.7-4,1.4-4.8
		c2-0.7,2.8,1.4,3.5,2.8c5.9,11.4,11.5,22.9,17.5,34.2c4.3,8.2,7.6,17,12.7,24.8c0.5,0.8,1.2,1.5,2,2.5c0.9-2.2-0.3-3.5-0.9-5
		c-5.8-14.3-11.9-28.5-18.8-42.4c-2.5-5.1-3.2-10.5-2.8-16c0.1-1.2,0.1-2.6,1.5-2.9c1.5-0.3,1.6,1.3,2.1,2.4
		c9.4,21.5,20.4,42.2,31,63.1c0.3,0.5,0.9,0.8,1.7,1.6c1.2-3.4-0.3-6-1.5-8.3c-6.7-13.4-12.4-27.3-18.4-41
		c-2.6-5.9-3.2-11.6-0.2-18.1c11.3,25.9,24.4,50.2,37.2,74.7c1.6-3-0.1-5.1-1-7.2c-6.8-15.7-13.9-31.3-20.5-47.1
		c-2-4.9-3.2-10.5,0.3-16.2c0.7,2.1,1.2,3.6,1.7,5c0.2-3.3-0.7-6.8,1.1-10c0.4-0.9,0.7-1.8,1.1-2.8c10.2-24.8,20.2-49.6,30.6-74.3
		C507.8,491.4,511,480.8,517,471.5z"/>
	<path fill="#938F8C" d="M681.3,590.5c3,0.5,4.6-0.1,4.6-2.8c0-2-0.7-4.1-3-3.6c-2.5,0.5-5.8,1.4-5.8,4.5
		C677.1,591.4,680.2,590.2,681.3,590.5z"/>
	<path fill="#8A7C54" d="M426,606.6c0-7.1-3.8-13.1-6.6-19.2c-3.3-7.2-2.2-13.6,0.3-20.2c4.5-11.5,9.1-22.9,13.7-34.3
		c0.7-1.7,1.1-3.5,1.6-5.2c-3.7,2-3.2-0.6-2.5-2.5c1.9-5.1,4-10.2,6.2-15.1c6.8-15.1,11.4-31.1,20.1-45.3
		c-12.1,4.6-16.1,15.6-20.5,26.2c-6,14.8-12.2,29.6-17.9,44.5c-4.5,11.6-9,23.3-11,35.7c-1.6,10,1,19.4,5.4,28.4
		c-0.4-2.4-0.9-4.9-1.3-7.3c-0.2-1-0.5-2.1,0.5-2.7c1.3-0.8,2.1,0.3,2.8,1.3c3.1,4.2,4.9,9,7.3,13.5
		C424.8,605,425.4,605.8,426,606.6z"/>
	<path fill="#A9E9FC" d="M401.2,618.5"/>
	<path fill="#9D9996" d="M959.4,127.5c-0.9-3.9,2-3.1,3.9-3c10.8,0.8,21.5,1.8,32.2,2.6c22.8,1.9,45.6,3.7,68.4,5.5
		c-7.9-2.4-16.1-2.2-24.1-2.9c-22.8-2.2-45.7-4-68.5-5.9c-3.6-0.3-7.3-0.5-10.9-0.8c-1.3-0.1-2.4,0.1-2.9,1.4
		C957,126.1,958,126.9,959.4,127.5z"/>
	<path fill="#A5A19E" d="M1284.9,263.6c2.3,3,5,5.7,8.1,7.9C1292.2,267,1288.4,265.4,1284.9,263.6z"/>
	<path fill="#706F6D" d="M1265.3,499.7c0.6-0.3,1.2-0.7,1.9-1c-7.9-3-15.5,0.5-23.1,1.3c-12.7,1.4-25.3,4.2-37.4,8.5
		c-8.3,2.9-17.2,3-26,7.3c1-3.8,3.4-4.2,5.4-4.9c17.5-5.9,34.3-13.7,51.2-21c1.2-0.5,2.7-1.1,2.7-2.6c-0.1-1.8-1.9-1.6-3.1-1.8
		c-5.7-1-11.5-1.9-17.3-1.9c-24.3,0-48.5-0.8-72.8-1.2c-20.4-0.3-40.9-1.2-61.3-2c-28.2-1.1-56.4-3-84.7-4.1
		c-18-0.7-36.2-0.6-54.2-3.3c-8.3-1.2-16.9,0-25.4-0.5c-20.9-1.2-41.7-3-62.6-4.2c-8.1-0.5-16.1-2.2-24.3-1.8
		c-1.4,0.1-3.9,1.2-4.1-1.9c0.7-0.3,0.7-0.6,0-0.9c-2.9-0.1-5.8-0.2-8.7-0.2c-4.4-1.1-8.9,0.3-13.3-0.8c-2.9-0.1-5.8-0.2-8.7-0.2
		c-4-1.1-8.2,0.3-12.3-0.7c-3.2-0.1-6.5-0.2-9.7-0.3c-3.4-1-6.9,0.2-10.3-0.7c-2.9-0.1-5.9-0.2-8.8-0.3c-4-1.1-8.2,0.3-12.2-0.8
		c-8.6-0.4-17.2-0.9-25.9-1.3c-3.4-0.6-6.9-0.6-10.3,0c-2.8-0.9-5.7-1.1-8.7-1c-3.3-1-6.8,0.3-10.2-0.7c-2.6-0.1-5.3-0.2-7.9-0.2
		c-3.4-0.7-6.8-0.7-10.3,0c-5.2-1.8-10.5-0.6-15.8-0.9c-1.7-0.6-2.9-0.5-1.7,1.6c0.8,1.4,2.6,1.1,4.1,1.2c23.7,2.6,47.3,4.8,71,7.4
		c22.3,2.5,44.8,3.7,67,6.5c15,1.9,30.3,1.4,44.9,6c3.2,1,6.5,1.6,8.8,4.3c1.5,1.8,3.6,2.3,5.8,2.3c2.2,0,4.4,0.1,6.3,1.1
		c6.6,3.6,14.3,4.3,20.8,7.4c6.7,3.1,14,4.7,20.1,9.3c3.7,2.8,8.4,4.7,13.1,5.8c5.2,1.2,10.4,3.6,16.1,1.8c1.8-0.6,3.5,0.8,5.1,1.6
		c8.3,4.2,15.2,2.2,19.8-5.8c0.7-1.3,1.8-2.6,2.1-4c2.3-10.8,15.5-13.5,23.8-12.4c3.5,0.5,6.9,1.1,10.4,1.2
		c32.8,1.3,65.7,0.6,99,1.8c-0.9,2.7-3.2,3.4-5,4.6c-8,5-16.7,9.1-24.1,15.1c-4.8,2.8-9.1,6.5-15.6,5.2c-2.5-0.5-5.3,3.3-8.6,2.9
		c-3.4-0.4-6.5,0.5-9.7,1c-2.6,0.4-4.7,1.2-4.6,4.1c0,2.6,1.8,4.2,4.2,5c1.1,0.4,2.3,0.4,3.5,0.4c3.6-0.1,6.8,1,10,2.7
		c4.5,2.5,9.2,3.6,14.4,2.3c3.1-0.8,6.5-0.8,9.4,0.2c9.3,3.5,18.9,2.5,28.2,1.4c19-2.2,37.8-5.7,56.4-10.1c4.3-1,8.4-2,12.7,0.1
		c14.7-1.5,29-5.3,43.6-7.5c1.5-0.2,2.9-0.4,4.4-0.6c1.8-1.8,4.2-1.7,6.5-2.1c16.9-2.9,33.7-5.9,50.5-9c1.8-0.3,3.6-1,5-2
		c0.8-0.6-0.6-0.6-1-0.9c-2.2,0.1-4-1.1-5.9-2.1C1266.7,502.6,1263.1,503.3,1265.3,499.7z"/>
	<path fill="#706F6D" d="M995,488.6c-8.4-2-16.8-0.8-25.3-0.7c-1.8,0-2.7,1.6-3.9,2.9c-4,4.5-6.9,9.8-10,14.9
		c-3.8,6.3-10.7,8-16.5,3.5c-2.7-2.1-5-2.8-8.2-1.3c-2.4,1.1-4.9,1-7.1-0.7c-1.3-1-2.6-1.4-4.2-1.1c-2.1,0.5-3.8-0.7-5.7-1.4
		c-2.7-1-3.2-7.2-7.9-3.3c-1.7-3-5.1-3.4-7.8-5c-1.8-1-3.5-1.8-5.6-1.9c-1.4,0-2.8-0.2-3.2-1.8c-0.7-3.2-2.9-3.3-5.3-2.7
		c-2.2,0.6-3.9,0.2-5.3-1.7c-0.4-0.6-1.6-1.2-2.1-1c-4.5,1.5-7.6-1.6-11.1-3.2c-2.9-1.3-5.6-2.8-9-1.8c-1.5,0.4-3.2-0.2-4-1.6
		c-2.1-3.8-5.7-4-9.3-4.8c-19.4-4.7-39.4-4.9-59.1-7.5c-14.5-1.9-29.1-2.5-43.6-4.4c-18.1-2.4-36.4-3.2-54.6-4.5
		c-9.8-0.7-19.5-1.9-29.2-3.1c-0.2,0-0.4-0.2-0.4-0.2c0.1-0.3,0.2-0.5,0.3-0.8c-1.2-1.2-2.8-0.9-4.2-1c-19-1-38-2-57-3
		c-2-0.1-3.9-0.5-5.9-0.8c0,0.6,0,1.2,0,1.8c8.4,2.8,17.2,0.9,25.6,2.5c8.3,1.5,16.8,1.3,25.1,2.7c8.8,1.5,17.8,1.8,26.7,2.8
		c21.3,2.4,42.7,4,63.6,8.8c7.7,1.8,15.6,3.3,22.6,7.5c1,0.6,2.1,1.2,3.2,1.3c15,2.2,27.6,10.3,40.8,16.7
		c17.2,8.3,34.1,17.4,52.6,22.5c3.3,0.9,5.8,3.3,8.6,4.9c3,1.7,5.9,3.3,9.3,3.2c4-0.2,5.7,3.5,9.2,4.5c5.3,1.6,10.3,4.4,15.5,6.7
		c14,6.2,27.7,13,43.9,13.2c10.3,0.1,20.9,0.4,31.1,3.3c5.3,1.4,10.4-2,15.8-0.7c1.7,0.4,3.6,0.1,5.5,0.2c12.6-0.5,25-2.3,37.5-3.7
		c2.1-0.2,4.2-0.7,6.4-0.3c6.7-0.8,13.5-1.4,20.1-3c3.9-1.1,8-0.8,11.9-2.1c0.6-0.1,1.3-0.2,1.9-0.2c4-0.5,8.1-0.9,12.1-1.9l0,0
		c4.3-1.3,8.6-2,13.2-1.3c5.3,0.8,10.5-1,15.8-1.8c13.1-1.9,26.1-5.1,39.4-6.1c0.6,0,1.2-0.5,1.8-0.7c5.1-2.3,10.8-1.8,15.9-4
		c-0.9-4.2-3.4-5.3-7.3-4c-10.9,3.6-22.3,5.2-33.5,7.3c-12.2,2.3-24.4,5-36.9,5.5c-6.1,0.2-12.2-0.4-18.1-2.7
		c-3.6-1.4-7.6-1.4-11.2-0.4c-4.8,1.4-9,0.5-12.8-1.9c-3.4-2.1-6.9-3.2-10.8-2.9c-1.5,0.1-3,0-4.3-0.8c-1-0.6-2.1-1.3-1.9-2.7
		c0.2-1.3,1.4-1.1,2.4-1.2c8.6-1,16.7-4,25.4-4.5c3.9-0.2,8.2-1.3,11-4.9c-1.1-1.4-2.5-1.2-4.1-0.9c-12.9,2.3-26.1,2.6-39.1,3.7
		c-12.7,1.2-25.5,1.8-38.2,3.4c-5.9,0.8-11.9,0.4-17.9,1.2c-4.2,0.5-6.3-2-5.5-6.2c1.2-6.2,2.7-12.3,5.1-18.2
		c1.7-4.2,4.7-6.2,9.2-6.3c4.3-0.1,8.6,0.1,13-0.2C991.5,490.8,993.9,491.2,995,488.6z"/>
	<path fill="#373634" d="M1230.2,478.5c-0.2-0.3-0.3-0.5-0.5-0.8c-9.6,0-19.2-0.1-28.8-0.1C1210.7,479.7,1220.5,478.3,1230.2,478.5z
		"/>
	<path fill="#373634" d="M1168,476.6c8.4,2,16.8,0.7,25.2,0.9C1184.9,476.2,1176.4,476.7,1168,476.6z"/>
	<path fill="#373634" d="M1052,472.7c6.7,1.9,13.5,0.7,20.3,0.8C1065.6,472.2,1058.8,472.7,1052,472.7z"/>
	<path fill="#373634" d="M1082,473.7c6.7,1.9,13.5,0.7,20.2,0.8C1095.5,473.3,1088.8,473.8,1082,473.7z"/>
	<path fill="#373634" d="M1141,475.7c6.7,1.8,13.5,0.6,20.2,0.8C1154.5,475.3,1147.8,475.7,1141,475.7z"/>
	<path fill="#373634" d="M946,468.7c6.3,1.9,12.8,0.7,19.2,0.9C958.8,468.3,952.4,468.7,946,468.7z"/>
	<path fill="#373634" d="M972,469.7c6.3,1.9,12.8,0.7,19.2,0.8C984.9,469.2,978.4,469.7,972,469.7z"/>
	<path fill="#373634" d="M1112,474.7c6.3,1.8,12.8,0.7,19.2,0.8C1124.9,474.3,1118.4,474.7,1112,474.7z"/>
	<path fill="#373634" d="M920,467.6c6.3,1.9,12.8,0.7,19.2,0.9C932.8,467.2,926.4,467.7,920,467.6z"/>
	<path fill="#373634" d="M999,470.7c6,1.9,12.1,0.7,18.2,0.8C1011.2,470.2,1005.1,470.8,999,470.7z"/>
	<path fill="#373634" d="M1027,471.7c6,1.8,12.1,0.7,18.2,0.8C1039.2,471.2,1033.1,471.7,1027,471.7z"/>
	<path fill="#373634" d="M872,465.6c5.7,1.9,11.5,0.7,17.2,0.9C883.5,465.2,877.8,465.7,872,465.6z"/>
	<path fill="#373634" d="M899,466.7c5.3,1.7,10.8,0.7,16.1,0.8C909.8,466.3,904.4,466.7,899,466.7z"/>
	<path fill="#373634" d="M850,464.7c5.3,1.8,10.8,0.7,16.2,0.8C860.9,464.2,855.4,464.7,850,464.7z"/>
	<path fill="#7E7B79" d="M830,463.7c0,0.3,0,0.6,0,0.9c4.4,0,8.8-0.1,13.2-0.1C838.8,463.2,834.4,463.7,830,463.7z"/>
	<path fill="#7E7B79" d="M808,462.7c4.3,1.6,8.8,0.7,13.3,0.8C816.9,462.3,812.5,462.7,808,462.7z"/>
	<path fill="#7E7B79" d="M746,459.7c4,1.6,8.1,0.7,12.2,0.8C754.2,459.3,750.1,459.7,746,459.7z"/>
	<path fill="#7E7B79" d="M787,461.8c4,1.6,8.2,0.7,12.3,0.7C795.3,461.3,791.1,461.7,787,461.8z"/>
	<path fill="#7E7B79" d="M767,460.8c3.3,1.5,6.8,0.7,10.3,0.7C774,460.3,770.5,460.6,767,460.8z"/>
	<path fill="#706F6D" d="M709.8,458.5c3.4,0,6.9,0,10.3,0C716.7,457.6,713.3,456.9,709.8,458.5z"/>
	<path fill="#706F6D" d="M691,456.7c3.3,1.5,6.8,0.8,10.2,0.7C697.9,456.3,694.4,456.6,691,456.7z"/>
	<path fill="#706F6D" d="M672.9,456.5c3.4,0,6.8,0,10.3,0C679.7,455.6,676.3,454.9,672.9,456.5z"/>
	<path fill="#A5A19E" d="M613,459.7c-16.7,1.6-33.4,3.3-50.1,4.9c-13.4,1.3-26.7,2.7-40.1,4.1c-0.9,0.1-1.8,0.7-2.8,1
		c3,2.8,6.9,3.3,10.7,3.7c15.9,1.5,31,6.2,46.1,10.7c30.5,9.1,60,20.9,88.9,34.3c15.4,7.2,30.9,13.9,46,21.7c3.9,2,6.4,1.2,10.4-1.4
		c6.4-4.2,9.2-9.7,12.4-15.9c1.6-3,1.9-4.3-0.2-7.2c-5.9-7.9-11.7-15.8-20.4-21c-12-7.2-23.9-14.5-37.1-19.3
		c-2.5-0.9-5.2-1.6-5.9-4.8C652.4,463.2,633.3,458.3,613,459.7z"/>
	<path fill="#51504E" d="M761,534.6c-9.8,1.8-19.9,1.6-29.3,5.4c-5.5,2.2-6,5.2-1.5,9c2.9,2.4,6.4,3.5,9.8,4.7
		c8,1.5,15.7-0.7,23.5-2.1c3.1-0.6,6.2-0.2,9.3-0.9c1.6-0.4,3.3-0.4,4.1-2.2c1.2-2.5,0.7-4.8-0.9-7C773.8,533.2,767,534.9,761,534.6
		z"/>
	<path fill="#ABA7A4" d="M383,438.7c3,2.4,2.4,3.3-1.2,4c-10.3,2-20.7,3.4-31.2,2.9c-1.3-0.1-2.7,0-4,0.1c-1,0.1-2.3,0.2-2.3,1.4
		c0,1.2,1.3,1.3,2.3,1.4c6.9,0.7,13.9,1.4,20.8,2.1c16.9,1.6,33.7,3.1,50.6,4.7c11.1,1.1,22.2,1.9,33.3-0.3c2.5-0.5,4.9-0.4,7.4,0
		c8,1.3,15.9-0.1,23.7-1.6c4.7-0.9,10.1-0.4,13.6-4.8c-4.8-1.7-9.8-1.4-14.7-1.9"/>
	<path fill="#989597" d="M380,438.6c-3.6-1.7-7.3-0.8-11-0.9C372.5,439.4,376.3,438.4,380,438.6z"/>
	<path fill="#989491" d="M571,43.6c4.4-0.8,8.8-1.6,13.3-2.3c0.8-0.1,1.7-0.6,2.4-0.5c9.5,2,18.7-0.2,28.1-1.4
		c12.8-1.6,25.8,0.3,38.7-2.5c5.8-1.2,11.9-0.4,17.9-1.4c1.8-0.3,3.7-0.4,5.3-1.2c2.6-1.3,4.9-1.7,7.6-0.4c2.2,1,4.7,0.9,6.8,0
		c4.3-1.8,8.8-3.1,13.4-3.6c1.3-0.1,2.9-0.5,3.2-1.9c0.4-2-1.6-2.3-2.9-2.8c-10.5-4.6-21.3-6.2-32.6-4.3
		c-18.7,3.1-37.6,4.3-56.4,6.4c-1.2,0.1-2.3,0.1-3.5,0.4c-11.3,3-23,3.2-34.5,4.6c-6.7,0.8-13.3,2.7-20,3.7
		c-5.5,0.8-7.7,7.4-4.5,11.1c2.4-1.7,5.1-2.5,8-2.4C564.6,45.2,567.8,44.4,571,43.6z"/>
	<path fill="#989491" d="M540,45c0.1,2.8,0.1,5.6,3.4,6.1c1.9,0.3,3.5-1.1,2.9-3c-0.8-2.8-2.1-6.1-5-6.9
		C539.6,40.8,540.4,43.8,540,45z"/>
	<path fill="#938F8C" d="M777,548.5c-12.2,2.5-24.4,4.7-36.9,5.2c3.1,1.6,6.5,0.8,9.7,0.9c8.1,0.1,15.7-3.6,23.8-3.1
		C775.4,551.6,776.6,550.4,777,548.5z"/>
	<path fill="#928F8C" d="M1347.1,449.7c-8.1-0.8-15.9,1.2-23.8,2c-1.4,0.1-2.5,0.8-3.3,2C1329.1,452.8,1338.2,452,1347.1,449.7z"/>
	<path fill="#928F8C" d="M1383.1,444.7c-9.7-1.1-18.8,2.3-28.1,4C1364.5,448.1,1373.8,446.7,1383.1,444.7z"/>
	<path fill="#928F8C" d="M1398.2,442.7c-5.2-0.3-10.5-1.6-15.2,2.1C1388.2,444.7,1393.2,443.9,1398.2,442.7z"/>
	<path fill="#928F8C" d="M1355.1,448.7c-2.7,0.5-5.8-2.4-8,1.1C1349.8,449.9,1352.5,449.8,1355.1,448.7z"/>
	<path fill="#928F8C" d="M1439.1,436.7c-2.4,0-5.1-2.2-7.1,1.1C1434.4,437.8,1436.9,438,1439.1,436.7z"/>
	<path fill="#928F8C" d="M1447.1,435.7c-2.7,0.2-5.7-1.8-8.1,1.1C1441.7,436.7,1444.5,436.9,1447.1,435.7z"/>
	<path fill="#928F8C" d="M1432.1,437.7c-2.4,0-5.4-2.3-7,1.4C1427.4,438.6,1429.9,439,1432.1,437.7z"/>
	<path fill="#989491" d="M433.2,54.6c0.3,0,0.7,0.1,1,0c9.6-3.6,19.7-0.9,29.6-2.7c9.7-1.8,19.8-1.6,29.7-2.5
		c3.3-0.3,6.5-1.4,9.7-2.2c3.1-0.9,4.2-3,3.3-6.1c-3-11.4-15.5-18.8-27.2-16.4c-7.5,1.5-15.2,2-22.7,3.2c-6.8,1.1-13.3,2.9-20.3,2.5
		c-3.7-0.2-6.1,2.4-7,6c-1,3.5-1.9,7.1-2.6,10.6C425.6,52.7,427.3,54.6,433.2,54.6z"/>
	<path fill="#4A4947" d="M1065,543.7c-4,0.3-8.1,0.2-11.9,2.1C1057.2,545.4,1061.3,545.8,1065,543.7z"/>
	<path fill="#4A4947" d="M1079,541.6c-4.1,0-8.2,0.6-12.1,1.9C1071.1,543.8,1075.1,543.5,1079,541.6z"/>
	<path fill="#72716F" d="M1265.3,499.7c-1.3,1.6-3,2.8-5.8,3.8c3.6,1.3,6.1-0.3,8.6,0C1266.9,502.5,1265.1,501.8,1265.3,499.7z"/>
	<path fill="#72716F" d="M1309,499.6c3.5,0.1,6.8-0.5,10-1.9C1315.5,497.5,1312.1,498,1309,499.6z"/>
	<path fill="#A19D99" d="M678.2,422.8c-0.9-2-1.5-3.5-3.6-3.4c-0.3,0-0.8,0.8-0.7,1.1C674.4,422.5,675.9,422.9,678.2,422.8z"/>
	<path fill="#80723F" d="M995,488.6c-6.7,0-13.3,0.2-20,0.1c-5-0.1-8,2-9.8,6.7c-2.5,6.6-4.2,13.3-5.8,20.1c-1.8,7.5-0.1,9.6,7.6,9
		c17.9-1.4,35.7-3.4,53.7-4.5c10-0.6,19.9-1.8,29.8-2.2c5.7-0.2,11.3-0.9,16.5-3.3c6.6-6.5,15.4-9.7,22.9-14.8c2.9-1.9,6-3.5,9-5.4
		c1.1-0.7,2.7-1.3,2.3-2.9c-0.4-1.9-2.3-1.8-3.7-1.7c-7.5,0.8-14.9,0-22.3-0.1c-13.8-0.2-27.6,0-41.4-0.2
		C1020.8,489.4,1007.9,488.9,995,488.6z"/>
	<path fill="#4C4B49" d="M1057.5,427.7c4.5,0,9,0.1,13.5,0c7-0.2,11.7-4.6,12-11c0.3-6.5-3.7-10.7-11-11.5c-2.8-0.3-5.6-0.4-8.5-0.5
		c-34.8-0.8-69.6-1.5-104.4-2.4c-14.1-0.3-28.3-1-42.4-1.5c-7.3-0.2-12.4,4.1-12.7,10.6c-0.3,7,3.6,11.4,11.2,11.8
		c10.1,0.6,20.3,0.9,30.4,1.2c30.6,0.8,61.3,1.5,91.9,2.5C1044.2,427.2,1050.8,427.6,1057.5,427.7z"/>
	<path fill="#363431" d="M1025.1,498.4c-6.4,0.4-12.5,0.8-18.7,1.1c-1.7,0.1-3.4,0.2-4.2,2.1c-0.8,1.9,0.1,3.6,1.3,5
		c2,2.4,4.5,4,7.7,3.9c10.1-0.3,20.3-0.5,30.4-1c3.7-0.2,4.8-2.7,2.7-5.9c-2.1-3.2-5-5.3-9.1-5.3
		C1031.8,498.4,1028.3,498.4,1025.1,498.4z"/>
	<path fill="#37332C" d="M985.3,512.3c1.8-0.2,3.6-0.8,3.6-3.5c-0.1-3.5-5.8-8.2-9.7-8c-2.6,0.1-4.1,1.3-4,4.1
		C975.4,507.9,981.4,512.4,985.3,512.3z"/>
	<path opacity="0.68" d="M953,280.6c4.1,0.1,8.1-0.8,11.9-2.2c10.5-7,11.6-15.3,2.9-24.9c-26.2-29-55.6-54.6-86.3-78.7
		c-21.2-16.7-43.2-32.4-66.3-46.4c-4.7-2.9-9.7-4.3-15.2-4.1c-20,0.7-40,1.2-59.9,2.2c-9.3,0.5-15.1,6.6-18.8,14.5
		c-4.7,10.1-9,20.4-13.5,30.6c-4.6,12.1-9.1,24.3-13.8,36.4c-2.5,6.4-2.1,11.9,1.5,18c9.4,16,20,31.3,29.8,47.1
		c2.9,4.6,7.2,7.4,13.3,7.4c7.8-0.1,15.6-0.9,23.3,0.8c1.2,0.3,2.6-0.4,3.9-0.6c10.5,1.7,21.2,0.6,31.7,1.1c2.8,0.2,5.7,0.5,8.3-1.1
		c1,0,2,0,3,0c8.2,1.3,16.6,0.9,24.8,0.7c12.5-0.2,24.9-0.2,37.4-0.2c25.5-0.1,50.9,0,76.4-0.1C949.4,281.1,951.2,281.5,953,280.6z"
		/>
</g>
<path opacity="0.68" d="M582.6,134.8c-6.5,0.3-13,0.6-19.4,0.9c-5,1.3-10.2-0.5-15.2,1c-0.3,0.1-0.5,0.1-0.8,0
	c-3.6,1.2-7.5-0.3-11.1,0.8c-0.3,0.1-0.6,0.2-0.9,0.2c-0.4,0.3-0.5,0.6-0.4,1c-3,0.5-4.4,3-5.7,5.4c-2.6,7.3-6.5,14-9.6,21
	c-2.2,4.9-5.4,9.3-6.5,14.7c-1.6,1.6-0.8,3.6-1,5.5c6.6,1.3,13.3,1.5,20,0.4c1.9,0,3.8-0.1,5.7-0.1c4.6-0.9,9.3-0.2,13.9-0.4
	c1.8-0.1,3.7,0.5,5.4-0.5c10,1.3,13.8-4.8,17-13c3.9-10.2,8.8-20,13.2-30C589.8,135.6,589,134.5,582.6,134.8z"/>
<g>
	<path fill="#746232" d="M312.8,334.3l-43-2.4l5.1-10.2l26.7,1.5c5.2,0.3,8.8,3.4,10.7,9.3C312.5,333.1,312.7,333.7,312.8,334.3z
		 M313.8,338.5c0.9,2.7-0.1,4.6-2.8,5.6c1.8,2.1,2.8,3.2,2.9,3.4c0.8,1.1,1.4,2.4,2,4.1c0.1,0.2,0.2,0.6,0.4,1.3
		c1.1,4.1,0.6,7.4-1.5,9.8c-1.6,1.9-3.6,3.2-6.1,3.7l-32.7-1.9l-1.3-28.1L313.8,338.5z M299.7,352.2c-0.4-1.3-1.1-2-2-2.2l-9.3-0.5
		l0.3,4.3l9.3,0.5c0.6,0,1-0.2,1.4-0.6C299.8,353.3,299.9,352.8,299.7,352.2z"/>
	<path fill="#746232" d="M334.5,325.2l0.7,10.4l-14.4-0.8l-0.5-10.4L334.5,325.2z M335.6,339.6l1.8,28.3l-14.6-0.8l-1.7-28.3
		L335.6,339.6z"/>
	<path fill="#746232" d="M382.3,327.9l0.9,10.3l-39.1-2.2c-0.1-2.4,0.6-4.6,2-6.7c1.5-2.3,3.5-3.3,6-3.2L382.3,327.9z M384,343.9
		l0.8,12.2c0.2,3.3-0.2,6-1.3,8.1c-2.1,4.1-6.4,5.9-13.1,5.6l-7.2-0.4c-6.9-0.4-11.9-2.7-14.8-7c-1.2-1.7-2-3.3-2.4-4.6
		c-0.4-1.1-0.6-2.5-0.7-4l-0.8-13.6l14.1,0.8l0.7,12.8c0,0.7,0.1,1.2,0.2,1.6c0.3,0.8,0.8,1.4,1.7,1.7l8.5,0.5
		c1.1-0.3,1.5-1.3,1.3-3.1l-0.1-0.8l-8.9-0.5l2.9-10.2L384,343.9z"/>
	<path fill="#746232" d="M420.7,357.6l-26.8-1.5l-0.5-7.9l26.9,1.5L420.7,357.6z"/>
	<path fill="#746232" d="M463.4,332.5l0.8,10.4l-39.1-2.2l3-10.2L463.4,332.5z M464.2,346.9l0.8,11.3l-19.5-1.1l0.4,5.9l19.3,1.1
		l0.8,11.1l-35.2-2l-2-28.3L464.2,346.9z"/>
	<path fill="#746232" d="M553.5,337.6l0.7,10.3l-38.8-2.2c0-2.6,0.7-4.9,2.3-6.8c1.7-2.1,3.8-3,6.3-2.9L553.5,337.6z M556.1,376.3
		c-1,1.6-3.1,2.8-6.1,3.6l-32.7-1.9l-0.7-11.6l22.6,1.3c1.9-0.1,2.5-1.1,2-2.8c-0.3-1-0.7-1.8-1.1-2.2c-0.4-0.4-1.1-0.8-2.2-1.2
		l-11.6-0.7c-2.5-0.1-4.6-0.9-6.2-2.3c-1.6-1.4-2.9-3.6-3.8-6.5l-0.7-2.2l26.5,1.5c3.4,0.6,5.8,1.4,7.2,2.4c0.2,0.1,1.7,1.4,4.4,3.9
		c1.4,2.1,2.5,4.4,3.4,6.9C558.7,369.2,558.3,373.1,556.1,376.3z"/>
	<path fill="#746232" d="M575.9,338.9l0.7,10.4l-14.4-0.8l-0.8-10.4L575.9,338.9z M602.1,354.7L604,383l-14.5-0.8l-1.3-17.1
		l-10.5-0.6l1,17.1l-14.7-0.8l-1.8-28.3L602.1,354.7z M601.2,340.3l0.8,10.4l-14.6-0.8l-0.6-10.4L601.2,340.3z"/>
	<path fill="#746232" d="M622.8,341.7l0.6,10.2l-13.5-0.8l-0.5-10.1L622.8,341.7z M648.6,357.4l1.7,28.2l-21.9-1.2
		c-6.9-0.4-11.8-2.8-14.9-7.2c-0.8-1.2-1.4-2.4-1.8-3.6c-0.2-0.7-0.3-1.3-0.4-1.9l-1-16.6l13.3,0.8l0.8,15.3c0,0.7,0.1,1.2,0.2,1.6
		c0.3,0.8,0.8,1.4,1.7,1.7l9.6,0.5l-1.1-18.5L648.6,357.4z M647.7,343.1l0.5,10.2l-13.7-0.8l-0.6-10.2L647.7,343.1z"/>
	<path fill="#746232" d="M693.4,345.5l0.6,10.3l-39.9-2.3l3-10.1L693.4,345.5z M682.6,359.3l2.1,28.3l-13.7-0.8l-1.9-28.3
		L682.6,359.3z"/>
	<path fill="#746232" d="M738.6,348.1l0.6,10.3l-39.9-2.3l3-10.1L738.6,348.1z M727.9,361.9l2.1,28.3l-13.7-0.8l-1.9-28.3
		L727.9,361.9z"/>
	<path fill="#746232" d="M761.6,349.4l0.4,10.3l-14.5-0.8l-0.6-10.2L761.6,349.4z M783.5,382.7l-4.9,10.2l-29.1-1.6l-1.6-28.3
		l14.6,0.8l1.1,17.7L783.5,382.7z"/>
	<path fill="#746232" d="M819.7,352.7l0.8,10.4l-39.1-2.2l3-10.2L819.7,352.7z M820.5,367.1l0.8,11.3l-19.5-1.1l0.4,5.9l19.3,1.1
		l0.8,11.1l-35.2-2l-2-28.3L820.5,367.1z"/>
</g>
</svg>
