<?xml version="1.0" encoding="utf-8"?>
<!-- Generator: Adobe Illustrator 18.0.0, SVG Export Plug-In . SVG Version: 6.00 Build 0)  -->
<!DOCTYPE svg PUBLIC "-//W3C//DTD SVG 1.1//EN" "http://www.w3.org/Graphics/SVG/1.1/DTD/svg11.dtd">
<svg version="1.1" id="Layer_1" xmlns="http://www.w3.org/2000/svg" xmlns:xlink="http://www.w3.org/1999/xlink" x="0px" y="0px"
	 viewBox="0 0 117.2 349" enable-background="new 0 0 117.2 349" xml:space="preserve">
<g>
	<path fill="#F3BCCA" d="M96.1,67.5c3.7-1,7.4,0.8,11.1,0.2c5-3.5,5.5-7.1,1.8-13.2c-4.1-6.7-9.2-12.4-15.3-17.3
		c-5.9-4.7-11.9-9.2-18.5-12.7c-0.9-0.4-1.9-0.8-2.9-0.2c-0.4,1.5,0.3,2.7,1.3,3.6c2,1.9,1.8,3.8-0.1,5.4c-2.9,2.5-5.5,5.1-6.1,9.1
		c-0.1,0.9-0.8,1.7-1.6,2c-6.1,2.4-6.9,8-8.2,13.3c-0.6,2.4-1,4.9-1.9,7.2c-1.2,6.9-1.3,13.9-2.6,20.8c-1.8,9.1-3.7,18.1-7.1,26.7
		c-0.2,0.5-0.3,1-0.6,1.4c-0.4,0.8-0.8,1.7-1.9,1.5c-0.9-0.2-1-1.1-1.1-1.8c-0.5-3.1-0.9-6.2-0.7-9.3c0.1-1.6,0.2-3.2-0.5-4.8
		c-1.5-2.1-1.4-4.4-1.4-6.8c0-1-0.2-2.1-1.3-2.5c-1.2-0.5-1.8,0.6-2.4,1.3c-1.3,1.5-2.7,2.9-3.2,5c-0.7,2.8-1.9,5.1-4.5,7
		c-2.5,1.8-3,5.1-2.7,8.2c0.3,2.3,0.7,4.7,0.6,7.1c1.6,8.5,2.9,17,1.9,25.7c-0.4,3.7-1.2,7.4-4.2,10.1c-1.8,1.6-1.1,2.1,0.8,2.5
		c2,0.5,4.3,0.1,5.7,2.2c12.3,1.4,24.6,3.1,36.8,5c1.9-1.2,4,0.1,5.9-0.5c-0.7-3.3-3.9-3.7-6.2-4.6c-3.6-1.4-4.6-3.3-4.3-7.3
		c1.1-13.5,5.3-26.2,9.3-38.9c3.9-12.1,7.8-24.2,9.8-36.9c0.6-3.9,0.5-7.4-2.2-10.6c-1.3-1.5-1.8-3.5-3.2-6.1
		C83.1,62.9,89.7,65.1,96.1,67.5z"/>
	<path fill="#F5CCD0" d="M26.3,118.5c0.9-2,0.5-4.1,0.4-6.2c-0.3-3.9-0.3-7.8,4.3-9.5c1-0.4,1.5-1.4,1.6-2.4
		c0.8-3.8,2.4-7.2,5.6-10.1c1.4,3.1-0.7,7.1,2.4,9.6c1.5-0.7,1.1-2.2,1.1-3.3c0.6-13.7,1.8-27.4,3.3-41c1-10.2,1.9-20.4,4.7-30.3
		c0.1-0.2,0.1-0.5,0.2-0.7c0.4-0.9,0.4-2.3,1.5-2.3c1.3,0,1.1,1.4,1.4,2.3c1.5,6,1.7,12.1,2.1,18.2c0.4,6.2,0.4,12.5,0.3,18.7
		c0,1.4-0.7,3.1,1.2,3.9c2.4-4.6,1.8-10,4.1-14.6c1.1-2.2,2-4.1,4.6-4.9c1.8-0.5,3.3-1.7,3.4-3.9c0.1-3.2,2.2-5.1,4.5-6.9
		c4-3.2,4.1-4.2,0.7-8c-0.6-0.7-1-1.7-1.5-2.6c-1.6-5.7-5.6-9.8-9.5-13.9c-0.9-1-2.4-1.4-2.8-2.9c-0.1-0.1-0.2-0.2-0.3-0.2
		c-8.4-3.5-8.5-3.5-15.5,4.3c-5.8,6.5-11,13.5-14.4,21.6c-0.9,2.1-3.2,3.2-3.5,5.6c-4.9,11.1-6,22.8-6.2,34.7
		c-0.1,3.4,0.1,6.7-0.4,10.1c2.6-0.1,1.7,2,1.8,3.1c0.7,10.4,2.9,20.5,4.4,30.7C25.9,117.8,26.2,118.1,26.3,118.5z"/>
	<path fill="#E48AB3" d="M42.3,195.8c-0.6,10-6.9,15-15.6,18.1c-11.1,3.9-15.4,13.4-18.8,23.6c-0.2,0.6-0.1,1.2-0.1,1.9
		c0,0.5,0.2,0.9,0.3,1.4c1.5,0,1.7-1.1,2-2c1.3-3.1,2.6-6.2,3.7-9.4c2.4-6.8,6.6-11.5,13.7-13.6c3.6-1,7.1-2.4,11.2-5.2
		c-2.5,7.5-1,14.3-1.4,21c0.5,1.5-0.2,3.5,1.6,4.7c4.5,13.7,8.7,27.5,4.5,42.1c-2.2,7.9-5.2,15.6-7.2,23.6
		c-3.2,12.6-4.4,25.3-2.4,38.2c0.2,1.2,0,3.3,1.8,3.2c1.9-0.1,2.1-2.1,1.9-3.5c-2.5-16.3,3.5-31.1,7.8-46.4
		c5-17.5,5.7-35.4,0.3-53.2c-0.8-2.8-1.5-5.5-1.6-8.4c0-0.8,0.2-1.6,1-1.9c1.1-0.5,1.2,0.6,1.4,1.2c4,8.3,10.6,14.8,15.8,22.2
		c5.8,8,8.1,16.8,6.3,26.5c-1.4,7.6-3.1,15.2-4.4,22.8c-0.4,2.1-1.7,5.5,1,6.3c2.3,0.6,3.1-2.9,3.7-4.9c4.7-15.2,6.3-30.6,0-45.8
		c-2.6-6.2-6.6-11.4-10.5-16.8c-3.9-5.4-7.2-11.1-9.1-17.5c-2.5-0.1-2.5,2.9-4.6,3.7c-0.5-1.5-0.5-3,0.3-4.2
		c2.7-4.6,2.4-9.5,1.6-14.5c-0.3-1.6-0.4-3.2-0.7-4.8c-0.4-2.5-0.4-2.5,1.5-3.1C46.3,198.6,45.4,196.1,42.3,195.8z"/>
	<path fill="#C7678C" d="M96.1,67.5c-0.4-0.8-0.8-1.5-1.7-1.8c-3.3-1.1-6.6-2.2-9.8-3.5c-3.1-1.3-6-2.9-9.7-3.9
		c1.6,2.8,3,5.8,4.8,8.5c1.4,2.1,1.9,4.2,1.5,6.7c-2,14.9-7,29.1-11.5,43.3c-3.8,11.9-7.3,23.9-8,36.4c-0.2,2.6-0.4,4.6,3.1,5.5
		c3,0.8,6,2.4,8.4,4.7c1.2,0.4,1.6-0.2,1.5-1.3c-1.5-20.5,7-38.5,14-57C93.2,93,96.8,80.6,96.1,67.5z"/>
	<path fill="#F1B1C7" d="M42.3,195.8c1.6,1.9,3.3,3.7,4.9,5.6c2.5,0,3.3-2.4,4.7-3.8c1.8-1.8,3-4.2,4.9-5.9
		c2.2-5.6,5.8-10.6,7.6-16.5c-1.5-0.6-3-0.2-4.3,0.5c-1.1,1.2-1.8,2.7-2.7,4c-2.2,3.3-3.8,3.1-5.5-0.4c-0.3-0.7-0.6-1.4-0.9-2
		c3.3,3.4,5.1,3.2,8.6-0.9c1-2.3-1-2.9-2.3-3.5c-4.7-2.5-9.9-4-14.9-6.1c-3.5-1.4-7-3.3-10.8-3.9c-1,9.1,2.7,16.9,6.7,24.7
		C39.5,190.3,40.9,193,42.3,195.8z"/>
	<path fill="#E6BAB7" d="M19.6,83.7c2.7-2,1.3-4.9,1.3-7.3C21,63.9,22,51.6,26.7,39.9c0.1-0.2-0.2-0.7-0.4-1
		C18.7,49.2,10.9,59.4,8.9,72.5c-0.2,1.3-0.3,2.7-0.2,4.1C8.8,83.7,13.1,86.4,19.6,83.7z"/>
	<path fill="#D988A3" d="M60.2,176.2c1.4-0.3,2.9,0,4.1-0.9c1-3.8,2-7.6,3-11.4c-0.9-1-1.9-1.4-3.2-1.6c-10.1-1.3-20.2-2.8-30.4-4.1
		c-1.1-0.2-2.5-1-3.2,0.7c0.3,1.3,0.6,2.6,0.9,4c5.3,3.3,11.5,4.7,17,7.4c3.7,1.8,8.2,1.8,10.8,5.7
		C59.5,176.2,59.9,176.2,60.2,176.2z"/>
	<path fill="#D0779A" d="M56.8,191.7c-1.6-0.5-2.1,0.9-2.9,1.8c-2.2,2.6-4.5,5.3-6.7,7.9c-1.2,0.2-1.4-1.2-2.8-1.5
		c0.5,4.4,0.9,8.7,1.7,12.9c0.5,3,0.2,5.6-1.2,8.2c-1.5,2.6-1.8,5.3-0.9,8.2c3.1-0.5,3.3-3.8,5.4-5.3c3.1-6.7,6-13.4,6.5-21.8
		c5,6.3,9.2,11.8,7.6,19.6c-0.8,4-2,8-2.9,12c-0.3,1.5-1,3.1-0.2,4.7c1.3-0.2,1.5-1.3,1.8-2.2c3.8-11,5.2-21.8-2-32.2
		C57.5,200.4,56.3,196.2,56.8,191.7z"/>
	<path fill="#D17A9C" d="M38.8,236.2c-0.7-1.5,0.3-3.6-1.6-4.7c-8.1,8.2-16.6,16-20,27.5c-3.5,11.9-4.4,24-2.1,36.2
		c0.4,2,0.6,5.1,3,4.9c2-0.2,1.6-3.3,1.7-5.2c0.5-5.2-0.5-10.4-0.8-15.7c-0.8-11.4-0.4-22.6,8.1-31.6
		C30.9,243.7,34.9,240,38.8,236.2z"/>
	<path fill="#C16D6F" d="M74.4,24.8c9.1,6,18.3,12,25.9,20c3.3,3.4,6,7.3,8.5,11.3c2.6,4.2,2.1,8.2-1.6,11.6
		c6.3-1.4,8.1-4.7,5.3-10.9c-3.4-7.6-9.3-13.4-15.6-18.8c-5.6-4.8-11.7-8.7-17.8-12.8c-1.2-0.9-2-2.4-3.6-2.5
		C73.9,22.6,72.4,22.9,74.4,24.8z"/>
	<path fill="#D18DA0" d="M74.4,24.8c-0.3-0.8-0.8-1.9,0.8-1.4c1.3,0.4,2.6,1.1,3.9,1.7C74,17.9,67.4,12.2,60,7.5
		c-0.1,2.8,2.7,3.6,4,5.4c2.7,3.9,5.5,7.6,8.3,11.4C73,24.5,73.7,24.6,74.4,24.8z"/>
	<path fill="#FDDEE8" d="M56.4,65.4c-0.9-2-0.3-4.2-0.3-6.2c0.4-10.6-0.6-21-1.5-31.5c-0.1-1.7-0.8-3.3-1.2-5c-0.3-1-0.7-2-1.9-2.1
		c-1.3-0.2-1.5,1-1.9,1.9c-2.4,6.8-3.4,14-4.4,21.1c-0.9,7-1.1,14.1-2,21.1c-1.5,11.7-1.8,23.5-2.7,35.2c0.4,4.4-0.2,8.9,0.8,13.3
		c0.3,1.4,0,3.4,1.9,3.6c1.8,0.2,2.7-1.6,3.2-3.1c4.6-12.9,7.7-26.1,8.9-39.8C55.7,71,56.1,68.2,56.4,65.4z"/>
	<path fill="#FDD9E6" d="M103.3,50.8c-2-2.3-4-4.7-6.1-7c-1.1-1.2-2.5-1.6-3.9-0.3c-4,3.5-8,7-11.8,10.7c-1.3,1.2-1.3,2.4,0.8,3.4
		c6.2,2.8,12.4,5.5,19.4,5.9c4.9,0.3,6.8-1.9,5-6.4C105.8,54.8,105,52.6,103.3,50.8z"/>
	<path fill="#F5CCD0" d="M40.2,125.2c-2.4,1.8-3.8,6.5-2.7,9.4c0.8,2.2,2,2.4,3.5,0.7c2.4-2.5,2.7-5.8,3.1-9
		c0.1-0.8-0.1-1.5-0.9-1.9C42,123.8,41.1,124.5,40.2,125.2z"/>
	<path fill="#DA8CA5" d="M73.4,129.9c1.4,1.3,2.1,0.2,2.8-0.6c1.9-2.2,3-4.9,4-7.6c5.2-13.5,10.1-27.2,13.3-41.4
		c0.1-0.5,0.2-1,0.2-1.5c0-0.9,0.9-2.1-0.5-2.6c-0.9-0.3-1.5,0.7-2,1.4c-6.9,11.5-13.3,23.2-16.3,36.5c-1,4.4-1.3,8.8-1.7,13.2
		C73.2,128.3,73.4,129.2,73.4,129.9z"/>
	<path fill="#B95E68" d="M60.2,176.2c-0.3-0.1-0.6-0.1-1-0.2c-4.9,4-4.9,4-9.5-1.4c-0.1,0.2-0.3,0.5-0.3,0.6c1,3.1,0.9,7.7,4.7,8.1
		C58.2,183.7,58.5,178.8,60.2,176.2z"/>
</g>
</svg>
