<?xml version="1.0" encoding="utf-8"?>
<!-- Generator: Adobe Illustrator 18.0.0, SVG Export Plug-In . SVG Version: 6.00 Build 0)  -->
<!DOCTYPE svg PUBLIC "-//W3C//DTD SVG 1.1//EN" "http://www.w3.org/Graphics/SVG/1.1/DTD/svg11.dtd">
<svg version="1.1" id="Layer_1" xmlns="http://www.w3.org/2000/svg" xmlns:xlink="http://www.w3.org/1999/xlink" x="0px" y="0px"
	 viewBox="0 0 192.4 248.3" enable-background="new 0 0 192.4 248.3" xml:space="preserve">
<g>
	<path fill="#FACFC1" d="M150.7,235c-4.3-1.4-8.5-3-12.8-4.1c-4.2-1.1-4.5-3.7-3.5-7.1c6.3-21,10.2-42.4,10.1-64.4
		c-0.1-7.2-2.1-13.9-4.2-20.6c-1.8-5.5-4.6-10.5-8.3-14.9c-7.1-8.5-16.2-11.9-27-9.2c-11,2.7-19.6,8.9-25.7,18.6
		c-16.1,19.9-14.6,42.1-9,65.1c2.4,9.7,6,18.7,11,27.3c1.3,2.3,1.2,4.1-1.6,5.9c-5.2,3.4-10.2,7.2-16,9.8c-1.8-0.6-2.8-2-3.9-3.4
		c-20.2-26-36.1-54.2-43.9-86.5c-0.7-3-1.3-6.1-2-9.2c-0.8-3.7-1.7-7.4-0.3-11.1c1-1.5,1.6-3.2,1.3-4.9c-1.1-6.4,2.1-12.2,2.7-18.3
		c0.2-1.8,1.2-2.9,3.2-2c1.5,2.1,1.2,4.5,1.2,6.8c-2.2,34.4,9.5,64.8,27.1,93.5c4.3,7,9,13.7,13.7,20.4c2.1,3,4,4.4,7.7,2
		c3.5-2.3,3.4-4.6,1.7-7.9c-8.2-16.1-12.9-33-12.3-51.4c0.6-19,6.9-35.4,20.1-49.2c1.7-1.2,3.3-2.7,4.9-4.1c0.4-0.4,0.8-0.7,1.3-1
		c0.7-0.5,1.4-1.1,2.2-1.4c6.6-3,11.9-6.7,10.3-15.3c-0.4-2.1,0.7-4.5,1.9-6.4c6.9-11.5,7.5-24.1,6-36.9c-0.3-2.6-0.5-5.2,0.1-7.8
		c1-1.4,0.1-4.5,3.4-3.9c1.7,4.1,2.1,8.5,2,12.8c0,9.1,2,17.9,3.6,26.8c0.8,2.1,1.4,4.2,2.3,6.2c1.9,3.9,3.3,8,4.2,12.3
		c-0.1,3.1,0.2,5.7,3.5,7.5c11.6,6,17.3,16.4,20.5,28.4c3.1,11.9,3.1,24.1,2.3,36.4c-1,15.1-4,29.7-7.6,44.3
		c-0.9,3.5,0.4,5.2,3.5,6.5c3.5,1.4,4.3-1.1,5.1-3.4c12.2-32.1,21.6-64.9,24.8-99.3c0.5-5.9,0.1-11.9,0.2-17.8
		c0-2.3-0.2-4.6,0.7-6.7c1.1-1.1,3-1.4,2.9-3.6c0-1,0.1-3.1,2.4-1.9c1.4,2,1.4,4.3,1.3,6.5c-0.4,8,1.1,16.1-1,24.1
		c-3.5,1.6-1.5-1.7-2.2-2.4c-0.3,2.6-0.1,5.3,1.4,7.7c0.5,1.6,0.4,3.3,0.1,4.9c-2.7,25-9.4,49-17.3,72.8c-2.9,8.8-6.2,17.5-9.7,26
		C152.5,232.5,152,234,150.7,235z"/>
	<path fill="#482019" d="M179.2,123c1.5-10.7,1.6-21.4,0-32c-1.8-1.4-1.3-3.4-1.6-5.3c-2.4-17.2-7-33.5-18-47.4
		c-12.5-15.7-28.8-23.7-48.9-24.4c-12.3-0.4-23.9,2-35.1,6.8c-1.3,0.6-2.6,1.1-4,1c-1.6-4-6.2-3.6-9-6C83.7,5,105.7,0.9,128.9,7.5
		c23.8,6.8,39.5,22.7,49,45.2c0.7,1.6,1.3,3.2,2,4.8c0.1,0.2,3.3,8,5.6,16.5c0.2,2.5,1,5,1.3,7.5c2.2,16.7,1.8,33.4-1.1,49.9
		c-0.1,0.6-0.2,1.3-0.4,1.9c-0.3,0.8-0.6,1.6-1,2.4c-0.9,1.6-2.2,2.8-4.2,2.2c-2.1-0.6-1.4-2.5-1.5-3.9c-0.1-0.7,0.1-1.4,0.3-2
		c0-1.7,0.1-3.4,0.1-5.1C178.3,125.5,177.7,124.2,179.2,123z"/>
	<path fill="#471F18" d="M14.3,131.1c0.3,3.8,0.6,7.6,0.9,11.4c-2.7,2.1-5.4,2.1-8.2,0.2c-2.2-5.8-2.5-11.9-2.9-17.9
		c-2.2-30.5,5.4-58.1,24.9-82c2.8,1,1.2,2.7,0.6,4c-1.8,3.8-3.9,7.5,1,10.8c0.5,0.3,0.2,1.3,0.1,2c-8.6,15.5-13.9,32-15.5,49.7
		c-0.5,5.8-0.4,11.5-0.4,17.3C14.8,128.1,15.5,129.7,14.3,131.1z"/>
	<path fill="#9B4640" d="M7,142.7c2.7-0.1,5.4-0.1,8.2-0.2c7.1,36.2,24.4,67.4,46.9,96.1c0.6,0.8,1.1,1.8,1.6,2.7
		c-2.7,1.4-4.8,1.7-7.2-1.1C33,212.4,16.5,181,7.3,145.8C7.1,144.9,7.1,143.8,7,142.7z"/>
	<path fill="#E6BEA2" d="M36.4,34.6c4-4.5,8.8-8,13.7-11.5c3-0.6,5.4-2.9,8.6-3.1c3.3-0.2,6,0.3,5.8,4.5c-1.2,3.5-4.9,4.3-7.4,6.4
		c-5.5,4.6-10.7,9.5-15.7,14.6c-1.2,1.2-2,2.9-4,3.1c-3.7-0.9-4.2-3.4-3.6-6.8C34.1,39.2,36.1,37.2,36.4,34.6z"/>
	<path fill="#A1564D" d="M79.3,133.2c-0.2-0.4-0.8-1-0.7-1.2c7.7-11.2,23.1-22,37.6-19.1c12.1,2.4,22.5,13.4,24,25.8
		c-2.4-3.6-4.5-7.4-7.2-10.8C123,115,109.6,112.2,95.2,120C89,123.3,83.6,127.6,79.3,133.2z"/>
	<path fill="#C26F57" d="M36.4,34.6c2.1,2.4-0.8,3.9-1.2,5.9c-0.7,3.3-0.8,5.9,2.4,7.8c-1.2,4.4-3.2,8.2-7.4,10.4
		c-5.2-3.3-5.3-4.4-2.3-11c0.6-1.4,3.2-2.6,1.3-4.7C30.9,39.6,33.9,37.3,36.4,34.6z"/>
	<path fill="#B9715B" d="M63.8,24.9c-0.1-3.6-2.1-4-5.2-3.7c-3,0.3-5.4,2.7-8.6,1.9c4-2.8,7.9-5.7,12.5-7.4c0.6,1.3,1.6,1.1,2.6,0.7
		c4.8-2,6.3,0.1,6,4.6C69.7,24.4,67.1,25.3,63.8,24.9z"/>
	<path fill="#F4583E" d="M175.9,96.5c0.3,17.8-0.7,35.5-4.1,53.1c-4.1,21.4-10.2,42.3-17.7,62.8c-1.4,3.9-3,7.8-4.3,11.8
		c-0.9,2.9-2.7,3.6-5,2c-2.3-1.6-7.5-0.6-6.1-5.9c3.1-11.3,5.8-22.7,7.2-34.3c2.2-18.4,3.6-36.9-3.1-54.8c-3.7-9.8-9.5-18-19.5-22
		c-5.1-2.1-1.5-5.5-2.1-8.3c-0.9-4.1-0.4-8.6-4.2-11.6c-1.3-1.5-1.7-3.4-2.2-5.2c0.6-3.3,3.3-2.6,5.4-2.6c6.8-0.2,13.6-0.3,20.4,0
		c8.6,0.3,17-0.8,25.5-1.5c3.5-0.3,6.2,0.3,8,3.4C176.1,87.5,177.8,91.8,175.9,96.5z"/>
	<path fill="#F85D41" d="M81.3,120.4c-16.8,18.3-22.4,39.9-19.1,64.3c1.8,13.2,6.1,25.4,12.4,36.9c1.9,3.5,1.4,5.8-2.3,7.4
		c-3.1,1.4-5.4,5.5-9.3,0.1c-15.3-21.4-28.9-43.6-36.6-69c-4.6-15.3-7-30.9-5.9-47c2.4-1.5,5-1.2,7.6-0.8c14.4,2,28.8,4.5,43.4,4.9
		C74.8,117.4,78.8,117,81.3,120.4z"/>
	<path fill="#F8804F" d="M81.3,120.4c-8.5-2.4-17.5-1.4-26.1-2.9c-8.8-1.4-17.8-2.2-26.6-3.7c-2.7-0.5-5.5,0.9-8-0.6
		c0-2.4-0.1-4.9-0.1-7.3c-2-5.4,0.4-10.5,1.8-15.2c9.1-31.4,28.1-54.2,59-66.5c4.4-1.8,9.1-2.6,13.6-3.7c3.9-1,6.5,0.5,8.1,4
		c3.3,7.2,5.7,14.6,4.7,22.7c0.8,11.4,2.2,22.9-0.8,34.3c-0.8,3-1.9,5.5-3.4,8.1c-3.1,5.1-4.9,10.4-2.9,16.4
		c0.5,1.5,0.9,2.6-1.1,3.2c-5,1.5-9,5.2-13.7,7.3c-3.7-2.1-3.9-5.1-1.9-8.5c1.9-3.1,3.7-6.3,5.6-9.5c2.5-4.3,3.9-9.2,5.2-14
		c0.7-2.7-2.1-2.7-3.9-3.1C84,80.2,77.1,80,70.4,78.6c-7.9-1.7-15.8-2.9-23.6-5c-3.6-1-6-0.1-7.9,3.2c-5.3,9-8.5,18.8-11,28.8
		c-0.8,3.3,1,4.4,3.8,4.9c9.2,1.4,18.3,2.8,27.5,3.6c7.3,0.6,14.6,1.4,22,1.1c1.6-0.1,3.1,0.3,4.4,1.4
		C84.5,118.1,83.3,119.7,81.3,120.4z"/>
	<path fill="#FBDBC8" d="M107.6,47.2c-1.6-6.5-2.2-13.3-4.8-19.6c-2.8-6.8-3.2-7.2-10.4-5.4c-27.7,6.9-47.6,23.6-61,48.4
		c-5.9,11-9.1,22.9-10.9,35.2c-0.6,0.3-1.6,0.8-1.6,1c1,6.9-4.3,13.1-2.5,20.2c0.4,1.5,0.5,3.6-2,4c-3-26,2.2-50.2,15.8-72.5
		c2.5-3.5,5-6.9,7.4-10.4c7.6-9.1,16.2-17.1,26.3-23.3c2.4-1.3,4.9-2.6,7.3-3.9c18.1-8.4,37-11.8,56.5-6.1
		c24.2,7,38.4,24.2,46.2,47.4c3.1,9.3,5.3,18.8,5.4,28.7c-0.1,1.5-0.2,3-0.2,4.5c0.2,4.2-1.8,1.6-3.1,1.1c-0.7-4.2-1.4-8.4-2.2-12.6
		c-1.8-3.6-2.3-7.6-3.4-11.5c-6.8-22.8-19.4-40.4-43.2-48c-11.3-3.6-13.7-1.9-14.9,10.1c-0.3,2.9-0.3,6-2.4,8.4
		C108.1,43.9,109.4,46.4,107.6,47.2z"/>
	<path fill="#F8814F" d="M109.8,43c1-6.2,0.7-12.5,3.3-18.4c1.4-3.1,3.2-4,6.6-3.3c28.7,5.5,44.1,24.4,52,51
		c1.1,3.8,2.7,7.6,2.1,11.7c-4.4-5.2-10.2-2.3-15.1-1.9c-12.8,1.3-25.6,0.4-38.4,0.8c-1.8,0.1-3.9-0.6-5.4,1.1
		c-2.5-6.7-3-13.8-3.9-20.8C110.2,56.5,110.2,49.7,109.8,43z"/>
	<path fill="#F9883F" d="M111.5,106.1c-4.2,0.1-7.1-0.8-7-5.4c0.1-4.1,3.4-10.2,5.8-10.4c2.7-0.2,6.8,6.3,6.9,10.7
		C117.2,105.3,114.8,106.4,111.5,106.1z"/>
	<path fill="#F8814F" d="M117.1,89.2c6.4,2.1,3.8,7.4,4.2,11.6C119.9,96.9,118.5,93.1,117.1,89.2z"/>
	<path fill="#FBDBC8" d="M179.2,123c-0.1,1.3-0.2,2.6-0.2,3.9c-4.2-2.9,0.4-6.3-0.1-9.4C178.9,119.3,179.1,121.2,179.2,123z"/>
	<path fill="#EC5639" d="M85.7,116.5c-19,0.3-37.8-1.9-56.5-5.1c-3.2-0.6-3.9-1.9-3.1-4.5c3.1-11.4,6.3-22.8,12.9-32.9
		c1.6-2.5,3.2-3.1,5.4-2.4c16.3,4.5,33,6.8,49.6,9.1c3,0.4,3.6,1.4,2.4,4c-1.1,2.4-1.5,5.1-2.9,7.2c-1.7,2.5-1.9,4.6,0.4,6.9
		C87.7,99.4,82.7,110.9,85.7,116.5L85.7,116.5z"/>
	<path fill="#EE603C" d="M101.4,60.6c-0.5,3.1-1.5,8.2-1.9,13.4c-0.3,3.7-2.2,3.8-4.9,3.6c-16.6-1.6-32.9-5.1-49.2-8.5
		c-2.1-0.4-3.3-1.3-1.7-3.6c6-8.6,11.6-17.3,20.7-23.1c1.9-1.2,3.5-1.9,5.8-0.9c8.1,3.6,16.6,6.3,25.2,8.8
		C101.5,52.1,101.4,52.2,101.4,60.6z"/>
	<path fill="#EC5A3A" d="M138.9,79.7c-5.6,0-11.2-0.1-16.7,0c-2.4,0.1-3.7-0.6-4.3-3.3c-1.2-5.6-1.9-11.3-1.9-17
		c0-3.5,1.5-4.4,4.5-3.6c8.3,2.3,16.9,1.3,25.3,2.8c1.4,0.2,2.8,0.1,4.2,0c9.3-0.6,9.3-0.6,13,7.9c0.2,0.5,0.3,1,0.5,1.5
		c4.8,10.8,4.8,10.8-7.3,11.6c-0.3,0-0.7,0-1,0C149.7,79.7,144.3,79.7,138.9,79.7z"/>
	<path fill="#EE603C" d="M147.3,55.5c-9.3-0.4-18.7-1-27.8-3.1c-1.2-0.3-3.2,0.4-2.8-1.9c0.8-5.8,1-11.8,5.1-16.6
		c2.3-2.8,5-4.1,8.7-3.2c7.2,1.7,13.1,5.4,17.4,11.5c2.4,3.4,5.7,5.9,7.7,9.8c1.5,2.9,1.2,3.7-1.9,3.6
		C151.5,55.5,149.4,55.5,147.3,55.5z"/>
</g>
</svg>
